<?xml version="1.0" encoding="utf-8"?>
<!-- Generator: Adobe Illustrator 25.0.1, SVG Export Plug-In . SVG Version: 6.00 Build 0)  -->
<svg version="1.1" id="Layer_1" xmlns="http://www.w3.org/2000/svg" xmlns:xlink="http://www.w3.org/1999/xlink" x="0px" y="0px"
	 viewBox="0 0 100 100" enable-background="new 0 0 100 100" xml:space="preserve">
<path fill="#856849" d="M46.41,99.18l-43.9-24.7c-0.9-0.5-1.4-1.1-1.5-1.8c-0.1-0.8,0.4-1.7,1.5-2.3l43.9-24.7c2-1.1,5.2-1.1,7.2,0
	l43.9,24.7c2,1.1,2,2.9,0,4.1l-43.9,24.7C51.61,100.28,48.41,100.28,46.41,99.18z"/>
<polygon fill="#856849" points="1.01,68.18 99.01,67.88 99.01,72.38 1.01,72.68 "/>
<path fill="#3A2D18" d="M46.41,94.58l-43.9-24.7c-2-1.1-2-2.9,0-4.1l43.9-24.7c2-1.1,5.2-1.1,7.2,0l43.9,24.7c2,1.1,2,2.9,0,4.1
	l-43.9,24.7C51.61,95.78,48.41,95.78,46.41,94.58z"/>
<path fill="#52412B" d="M46.87,90.99l-38.5-21.7c-1.8-1-1.8-2.6,0-3.6l38.5-21.7c1.8-1,4.6-1,6.4,0l38.5,21.7c1.8,1,1.8,2.6,0,3.6
	l-38.5,21.7C51.57,91.89,48.67,91.89,46.87,90.99z"/>
<path fill="#AB8462" d="M47,88.38L12.92,69.17c-1.59-0.89-1.59-2.3,0-3.19L47,46.78c1.59-0.89,4.07-0.89,5.67,0l34.08,19.21
	c1.59,0.89,1.59,2.3,0,3.19L52.66,88.38C51.16,89.17,48.59,89.17,47,88.38z"/>
<path fill="#8F7157" d="M54.52,66.87c0,0-2.7,3.01-6.82,5.48s-5.75,3.09-7.74,4.53c-1.99,1.44-3.63,2.92-5.43,3.19
	c-1.8,0.27-0.83-1.06-3.28-2.23c-0.82-0.39-2.08,0.53-2.44-0.97c-0.41-1.68,5.21-3.03,6.35-3.97c1.14-0.94,13.2-8.47,13.61-8.79
	C49.18,63.81,54.52,66.87,54.52,66.87z"/>
<g>
	<rect x="48.78" y="39.69" fill="#7D4F49" width="5.44" height="4.63"/>
	<rect x="54.78" y="46.06" fill="#604039" width="11.42" height="11.42"/>
	<g>
		<polygon fill="#7D4F49" points="33.72,43.66 34.95,42.98 36.55,42.98 36.9,41.91 41.47,39.39 47.91,43.02 40.17,47.29 		"/>
		<polygon fill="#604039" points="63.13,71.6 44.34,61.64 44.17,45.09 44.17,45.06 45.18,41.48 46.1,38.2 49.99,40.38 51.17,43.21 
			52.35,41.72 59.23,45.59 59.86,49.78 60.52,54.2 63.12,71.52 		"/>
		<polygon fill="#452F28" points="44.16,45.06 40.17,47.29 40.17,64.04 44.33,61.64 		"/>
		<polygon fill="#604039" points="40.17,47.29 33.72,43.66 29.22,57.82 40.17,64.04 		"/>
		<polygon fill="#7D4F49" points="29.19,54.2 31.86,52.73 36.38,55.17 33.63,56.7 		"/>
		<polygon fill="#452F28" points="36.38,55.17 33.63,56.7 34.73,64.04 37.63,62.53 		"/>
		<polygon fill="#452F28" points="78.03,62.99 63.11,71.53 60.52,54.2 63.13,51.14 59.98,51.08 59.23,45.59 73.61,36.97 
			75.16,46.06 74.54,47.49 75.5,48.11 		"/>
		<polygon fill="#604039" points="33.63,56.7 29.19,54.2 27.79,60.03 34.73,64.04 		"/>
		<polygon fill="#7D4F49" points="81.29,54.61 76.13,51.77 67.38,56.48 72.69,59.44 		"/>
		<polygon fill="#604039" points="67.38,56.48 72.69,59.44 74.33,74.04 66.52,69.6 		"/>
		<polygon fill="#452F28" points="72.69,59.44 81.29,54.61 86.09,67.45 74.33,74.04 		"/>
		<polygon fill="#7D4F49" points="73.61,36.97 59.23,45.59 52.35,41.72 49.99,40.38 46.1,38.2 54.21,33.18 56.38,33.54 57.1,32.05 
			60.85,29.95 		"/>
	</g>
	<polygon fill="#7D4F49" points="59.97,51.08 57.7,51.97 60.52,54.2 63.14,51.14 	"/>
	<polygon fill="#7D4F49" points="73.14,64.44 71.95,64.91 73.42,66.07 74.79,64.47 	"/>
	<polygon fill="#7D4F49" points="34.01,59.29 32.82,59.74 34.27,60.93 35.67,59.36 	"/>
	<polyline fill="#452F28" points="40.19,51.39 38.6,52.64 40.17,53.85 40.19,51.77 	"/>
	<polygon fill="#452F28" points="74.11,72.08 72.21,70.45 73.82,69.48 	"/>
	<polygon fill="#7D4F49" points="71.56,38.2 71.3,41.03 69.57,39.39 	"/>
	<polygon fill="#604039" points="78.93,59.44 78.93,64.32 81.29,67.17 80.56,61.46 	"/>
	<polygon fill="#604039" points="66.67,46.74 68.1,49.92 67.4,52.45 66.2,48.53 	"/>
	<polygon fill="#452F28" points="53.6,45.14 53.6,50.02 55.96,52.87 55.23,47.15 	"/>
	<polygon fill="#452F28" points="49.61,42.78 46.82,45.73 46.2,48.41 49.16,44.65 	"/>
	<polygon fill="#452F28" points="33.92,47.29 36.71,50.24 37.34,52.91 34.38,49.16 	"/>
	<polygon fill="#452F28" points="31.43,56.49 30.72,59.03 29.44,60.27 30.54,57.37 	"/>
	<polygon fill="#604039" points="63.15,34 57.87,37.86 53.83,38.8 60.31,34.69 	"/>
	<polygon fill="#604039" points="57.08,39.83 61.54,37.07 64.84,36.56 59.39,39.46 	"/>
	<polygon fill="#604039" points="43.63,43.99 41.61,42.81 40.87,41.36 43.1,42.98 	"/>
	<polygon fill="#452F28" points="70.37,61.04 70.16,65.87 68.77,68.64 69.41,62.99 	"/>
	<polygon fill="#452F28" points="59.02,67.44 58.72,64.82 59.44,63.19 59.51,66.29 	"/>
</g>
<polygon fill="#A36343" points="45.67,64.04 45.63,53.33 47.17,54.21 47.28,64.92 "/>
<polygon fill="#8A5339" points="44.25,66.59 45.98,65.69 51.56,68.88 49.93,69.79 "/>
<polygon fill="#8A5339" points="33.19,73.22 34.85,72.35 40.19,75.41 38.63,76.28 "/>
<polygon fill="#8A5339" points="47.53,64.68 49.18,63.81 54.52,66.87 52.96,67.74 "/>
<polygon fill="#8A5339" points="39.97,68.64 41.85,67.66 47.91,71.13 46.14,72.12 "/>
<polygon fill="#8A5339" points="29.66,74.4 31.54,73.42 37.6,76.89 35.83,77.88 "/>
<polygon fill="#8A5339" points="36.38,70.62 38.28,69.79 43.96,73.6 42.16,74.45 "/>
<polygon fill="#232220" points="47.91,53.69 47.71,63.43 54.78,67.17 55.13,56.48 "/>
<line fill="none" stroke="#595651" stroke-width="0.9541" stroke-linecap="round" stroke-miterlimit="10" x1="54.21" y1="66.39" x2="34.12" y2="77.85"/>
<polygon fill="#8A5339" points="48.78,64.12 48.78,53.33 47.17,54.21 47.28,64.92 "/>
<polygon fill="#A36343" points="53.99,68.35 53.95,57.63 55.5,58.51 55.6,69.22 "/>
<polygon fill="#8A5339" points="57.1,68.43 57.1,57.63 55.5,58.51 55.6,69.22 "/>
<polygon fill="#92583D" points="43.54,52.52 57.7,59.97 57.7,57.78 43.54,50.6 "/>
<polygon fill="#A16C59" points="57.7,57.78 59.85,56.79 45.36,49.6 43.54,50.6 "/>
<polygon fill="#8A5339" points="57.7,59.97 59.77,58.89 59.85,56.79 57.7,57.78 "/>
<line fill="none" stroke="#595651" stroke-width="0.9541" stroke-linecap="round" stroke-miterlimit="10" x1="49.98" y1="64.04" x2="29.89" y2="75.5"/>
<polygon fill="#92583D" points="29.47,72.99 33.89,75.21 33.88,74.54 29.46,72.4 "/>
<polygon fill="#A16C59" points="33.88,74.54 34.54,74.22 30.02,72.08 29.46,72.4 "/>
<polygon fill="#8A5339" points="34.18,74.9 34.83,74.56 34.85,73.91 34.18,74.22 "/>
<polygon fill="#92583D" points="29.16,74.6 33.58,76.82 33.57,76.15 29.15,74 "/>
<polygon fill="#A16C59" points="33.57,76.15 34.23,75.83 29.71,73.68 29.15,74 "/>
<polygon fill="#8E4B21" points="33.85,76.5 34.49,76.17 34.52,75.52 33.85,75.82 "/>
<polygon fill="#A36343" points="28.84,76.43 28.82,70.9 29.61,71.36 29.67,76.88 "/>
<polygon fill="#8A5339" points="30.44,76.47 30.44,70.9 29.61,71.36 29.67,76.88 "/>
<polygon fill="#A36343" points="33.12,78.86 33.09,73.33 33.89,73.78 33.95,79.31 "/>
<polygon fill="#8A5339" points="34.72,78.9 34.72,73.33 33.89,73.78 33.95,79.31 "/>
<polygon fill="#A16C59" points="28.82,70.9 29.67,70.45 30.44,70.9 29.61,71.36 "/>
<polygon fill="#A16C59" points="34.72,73.33 33.89,73.78 33.18,73.43 33.89,72.91 "/>
<ellipse fill="#8F7157" cx="51.42" cy="79.31" rx="1.79" ry="1.04"/>
<ellipse fill="#8F7157" cx="43.54" cy="79.31" rx="2.12" ry="1.22"/>
<ellipse fill="#8F7157" cx="19.93" cy="67.88" rx="2.32" ry="1.34"/>
<ellipse fill="#8F7157" cx="26.5" cy="64.92" rx="1.49" ry="0.86"/>
<ellipse fill="#8F7157" cx="29.44" cy="68.25" rx="1" ry="0.57"/>
<ellipse fill="#8F7157" cx="42.88" cy="65.26" rx="1" ry="0.57"/>
<ellipse fill="#8F7157" cx="57.1" cy="80.65" rx="1" ry="0.57"/>
<ellipse fill="#8F7157" cx="68.63" cy="74.54" rx="1" ry="0.57"/>
<ellipse fill="#8F7157" cx="59.61" cy="75.41" rx="3.54" ry="2.04"/>
</svg>
