<?xml version="1.0" encoding="utf-8"?>
<!-- Generator: Adobe Illustrator 25.0.1, SVG Export Plug-In . SVG Version: 6.00 Build 0)  -->
<svg version="1.1" id="Layer_1" xmlns="http://www.w3.org/2000/svg" xmlns:xlink="http://www.w3.org/1999/xlink" x="0px" y="0px"
	 viewBox="0 0 100 100" enable-background="new 0 0 100 100" xml:space="preserve">
<g>
	<path fill="#856849" d="M46.41,99.19l-43.9-24.7c-0.9-0.5-1.4-1.1-1.5-1.8c-0.1-0.8,0.4-1.7,1.5-2.3l43.9-24.7c2-1.1,5.2-1.1,7.2,0
		l43.9,24.7c2,1.1,2,2.9,0,4.1l-43.9,24.7C51.61,100.29,48.41,100.29,46.41,99.19z"/>
	<polygon fill="#856849" points="1.01,68.19 99.01,67.89 99.01,72.39 1.01,72.69 	"/>
	<path fill="#3A2D18" d="M46.41,94.59l-43.9-24.7c-2-1.1-2-2.9,0-4.1l43.9-24.7c2-1.1,5.2-1.1,7.2,0l43.9,24.7c2,1.1,2,2.9,0,4.1
		l-43.9,24.7C51.61,95.79,48.41,95.79,46.41,94.59z"/>
	<path fill="#52412B" d="M46.87,91L8.37,69.3c-1.8-1-1.8-2.6,0-3.6L46.87,44c1.8-1,4.6-1,6.4,0l38.5,21.7c1.8,1,1.8,2.6,0,3.6
		L53.27,91C51.57,91.9,48.67,91.9,46.87,91z"/>
</g>
<path fill="#80614B" d="M83.84,65.05c5.12,3.9-7,6.28-10.47,9.1c-2.52,2.04-9.34,6.56-12.6,8.54c-1.46,0.89-11.82,6.89-15.88,2.94
	c-5.29-5.16-17.08-9.01-21.36-12.31c-2.79-2.15-12.46-5.88-7.89-8.26c18.29-9.54,28.73-15.94,28.73-15.94
	c1.76-1.06,7.13-2.93,8.89-1.87C53.26,47.25,70.35,54.78,83.84,65.05z"/>
<g>
	<path fill="#6F513C" d="M34.62,77.24l-16.64-9.36c-0.76-0.45-0.76-1.13,0-1.55l16.64-9.36c0.76-0.42,1.97-0.42,2.73,0l16.64,9.37
		c0.76,0.45,0.76,1.13,0,1.55l-16.64,9.36C36.6,77.71,35.38,77.71,34.62,77.24z"/>
	<path fill="#4B4138" d="M34.7,75.55l-14.62-8.31c-0.67-0.38-0.67-0.97,0-1.34l14.69-8.31c0.67-0.37,1.78-0.37,2.45,0l14.69,8.31
		c0.67,0.38,0.67,0.97,0,1.34l-14.77,8.31C36.47,75.92,35.43,75.92,34.7,75.55z"/>
	<path fill="#806F5C" d="M35.88,65.09v10.76c-0.45,0-0.82-0.08-1.19-0.3L20,67.24c-0.37-0.15-0.52-0.45-0.52-0.67l0,0l0,0v-8.16
		L35.88,65.09z"/>
	<polygon fill="#4B4138" points="38.1,73.92 37.29,73.84 35.95,75.85 35.95,65.09 52.35,57.59 52.35,66.57 	"/>
	<polygon fill="#40362F" points="35.95,68.72 35.95,71.1 52.35,61.75 52.35,59.97 	"/>
	<path fill="#2C2014" d="M50.05,61.53v2.52c0,0.15-0.08,0.23-0.15,0.3l-2.89,1.71c-0.22,0.07-0.52-0.08-0.52-0.3v-2.6
		c0-0.15,0.08-0.23,0.15-0.3l2.89-1.63C49.68,61.15,49.98,61.3,50.05,61.53z"/>
	<path fill="#2C2014" d="M42.85,65.61v2.52c0,0.15-0.08,0.23-0.15,0.3l-2.89,1.71c-0.22,0.07-0.52-0.08-0.52-0.3v-2.6
		c0-0.15,0.08-0.23,0.15-0.3l2.89-1.63C42.48,65.16,42.78,65.31,42.85,65.61z"/>
	<path fill="#83312A" d="M34.61,69.02l-15.58-8.83c-0.74-0.44-0.74-1.11,0-1.48l15.66-8.83c0.74-0.37,1.86-0.37,2.6,0l15.66,8.83
		c0.74,0.44,0.74,1.11,0,1.48l-15.74,8.83C36.55,69.39,35.36,69.39,34.61,69.02z"/>
	<polygon fill="#83312A" points="18.44,57.89 18.44,59.45 53.39,59.59 53.47,58.11 	"/>
	<path fill="#9D3D32" d="M30.01,51.14l4.9-2.75h0.07l6.46-3.56c0.89-0.45,2.01-0.08,2.6,0.74l9.28,12.09l0,0
		c0.3,0.37,0.22,0.89-0.37,1.19l-15.66,8.76c-0.3,0.15-0.59,0.23-0.89,0.3l-9.87-12.47c-0.6-0.81-1.64-1.11-2.6-0.74l-1.19,0.59
		L30.01,51.14z"/>
	<path fill="#B34F48" d="M18.43,57.89c0.07-0.15,0.3-0.37,0.52-0.52l3.78-2.08l1.19-0.59c0.89-0.45,2.01-0.08,2.6,0.74l9.8,12.47
		c-0.22,0-0.37,0-0.59,0c-0.37,0-0.81-0.15-1.11-0.3l-15.66-8.76C18.51,58.56,18.36,58.26,18.43,57.89z"/>
	<path fill="#2C2014" d="M25.19,70.29v-5.05c0-0.6,0.59-0.97,1.11-0.67l1.49,0.82c0.52,0.29,0.89,0.89,0.89,1.48v5.34L25.19,70.29z"
		/>
	<g>
		<polyline fill="#4B4138" points="38.73,46.04 41.84,44.26 41.84,48.12 38.73,49.9 38.73,46.04 		"/>
		<polyline fill="#806F5C" points="38.73,46.04 35.61,44.26 35.61,48.12 38.73,49.9 38.73,46.04 		"/>
		<path stroke="#867566" stroke-width="0.4454" stroke-miterlimit="10" d="M38.5,45.96l-2.82-1.56c-0.15-0.07-0.15-0.15,0-0.22
			l2.82-1.56c0.08-0.07,0.3-0.07,0.45,0l2.82,1.56c0.15,0.07,0.15,0.15,0,0.22l-2.82,1.56C38.87,46.04,38.65,46.04,38.5,45.96z"/>
	</g>
	<g>
		<polyline fill="#4B4138" points="30.62,50.44 33.73,48.66 33.73,52.52 30.62,54.3 30.62,50.44 		"/>
		<polyline fill="#806F5C" points="30.62,50.44 27.5,48.66 27.5,52.52 30.62,54.3 30.62,50.44 		"/>
		<path stroke="#867566" stroke-width="0.4454" stroke-miterlimit="10" d="M30.39,50.36l-2.82-1.56c-0.15-0.07-0.15-0.15,0-0.22
			l2.82-1.56c0.08-0.07,0.3-0.07,0.45,0l2.82,1.56c0.15,0.07,0.15,0.15,0,0.22l-2.82,1.56C30.76,50.44,30.54,50.44,30.39,50.36z"/>
	</g>
	<g>
		<path fill="none" stroke="#883231" stroke-width="0.3711" stroke-miterlimit="10" d="M34.69,53.51c0.44,0.89,0,2.08-1.04,2.67
			s-2.3,0.37-2.82-0.52"/>
		<path fill="none" stroke="#883231" stroke-width="0.3711" stroke-miterlimit="10" d="M38.55,51.36c0.44,0.89,0,2.08-1.04,2.67
			s-2.3,0.37-2.82-0.52"/>
		<path fill="none" stroke="#883231" stroke-width="0.3711" stroke-miterlimit="10" d="M37.51,54.03c0.44,0.89,0,2.08-1.04,2.67
			s-2.3,0.37-2.82-0.52"/>
		<path fill="none" stroke="#883231" stroke-width="0.3711" stroke-miterlimit="10" d="M36.47,56.7c0.44,0.89,0,2.08-1.04,2.67
			s-2.3,0.37-2.82-0.52"/>
		<path fill="none" stroke="#883231" stroke-width="0.3711" stroke-miterlimit="10" d="M41.37,51.88c0.44,0.89,0,2.08-1.04,2.67
			s-2.3,0.37-2.82-0.52"/>
		<path fill="none" stroke="#883231" stroke-width="0.3711" stroke-miterlimit="10" d="M40.33,54.55c0.44,0.89,0,2.08-1.04,2.67
			s-2.3,0.37-2.82-0.52"/>
		<path fill="none" stroke="#883231" stroke-width="0.3711" stroke-miterlimit="10" d="M39.29,57.22c0.44,0.89,0,2.08-1.04,2.67
			s-2.3,0.37-2.82-0.52"/>
		<path fill="none" stroke="#883231" stroke-width="0.3711" stroke-miterlimit="10" d="M38.26,59.89c0.44,0.89,0,2.08-1.04,2.67
			s-2.3,0.37-2.82-0.52"/>
		<path fill="none" stroke="#883231" stroke-width="0.3711" stroke-miterlimit="10" d="M45.23,49.73c0.44,0.89,0,2.08-1.04,2.67
			s-2.3,0.37-2.82-0.52"/>
		<path fill="none" stroke="#883231" stroke-width="0.3711" stroke-miterlimit="10" d="M44.19,52.4c0.44,0.89,0,2.08-1.04,2.67
			s-2.3,0.37-2.82-0.52"/>
		<path fill="none" stroke="#883231" stroke-width="0.3711" stroke-miterlimit="10" d="M43.15,55.07c0.44,0.89,0,2.08-1.04,2.67
			s-2.3,0.37-2.82-0.52"/>
		<path fill="none" stroke="#883231" stroke-width="0.3711" stroke-miterlimit="10" d="M42.11,57.74c0.44,0.89,0,2.08-1.04,2.67
			s-2.3,0.37-2.82-0.52"/>
		<path fill="none" stroke="#883231" stroke-width="0.3711" stroke-miterlimit="10" d="M41.08,60.41c0.44,0.89,0,2.08-1.04,2.67
			s-2.3,0.37-2.82-0.52"/>
		<path fill="none" stroke="#883231" stroke-width="0.3711" stroke-miterlimit="10" d="M47.01,52.92c0.44,0.89,0,2.08-1.04,2.67
			s-2.3,0.37-2.82-0.52"/>
		<path fill="none" stroke="#883231" stroke-width="0.3711" stroke-miterlimit="10" d="M45.97,55.59c0.44,0.89,0,2.08-1.04,2.67
			s-2.3,0.37-2.82-0.52"/>
		<path fill="none" stroke="#883231" stroke-width="0.3711" stroke-miterlimit="10" d="M44.93,58.26c0.44,0.89,0,2.08-1.04,2.67
			s-2.3,0.37-2.82-0.52"/>
		<path fill="none" stroke="#883231" stroke-width="0.3711" stroke-miterlimit="10" d="M48.79,56.11c0.44,0.89,0,2.08-1.04,2.67
			s-2.3,0.37-2.82-0.52"/>
	</g>
</g>
<ellipse fill="#6F513C" cx="57.8" cy="59.45" rx="1.5" ry="0.86"/>
<ellipse fill="#6F513C" cx="58.18" cy="74.56" rx="1.5" ry="0.86"/>
<ellipse fill="#6F513C" cx="49.75" cy="78.36" rx="1.2" ry="0.69"/>
<ellipse fill="#6F513C" cx="57.03" cy="79.89" rx="2.32" ry="1.34"/>
<ellipse fill="#6F513C" cx="69.09" cy="66.61" rx="11.27" ry="5.83"/>
<ellipse fill="#8A8A88" cx="21.79" cy="73.24" rx="1.38" ry="0.8"/>
<ellipse fill="#8A8A88" cx="23.74" cy="71.49" rx="0.98" ry="0.57"/>
<ellipse fill="#8A8A88" cx="26.65" cy="73.24" rx="1.46" ry="0.84"/>
<ellipse fill="#8A8A88" cx="24.14" cy="75.04" rx="1.05" ry="0.61"/>
<g>
	<ellipse fill="#3A2D18" cx="52.8" cy="49.69" rx="1.88" ry="0.87"/>
	<path fill="none" stroke="#2C2414" stroke-width="0.7233" stroke-miterlimit="10" d="M53.05,49.32c0,0,0.41-0.92-1.01-2.37
		c-1.48-1.51-1.15-1.79-1.17-2.29"/>
	<path fill="none" stroke="#2C2414" stroke-width="0.7233" stroke-miterlimit="10" d="M52.57,49.16c0,0-0.65-1.13,1.23-2.89
		c1.88-1.75,1.4-2.18,1.43-2.79"/>
	<g>
		<circle fill="#9B934F" cx="51.99" cy="41.35" r="2.72"/>
		<circle fill="#AFA551" cx="55.18" cy="42.63" r="2.72"/>
		<circle fill="#BDB458" cx="50.84" cy="43.48" r="2.72"/>
	</g>
</g>
<g>
	<ellipse fill="#5A2113" cx="52.42" cy="70.87" rx="2.43" ry="1.47"/>
	<path fill="#6F311E" d="M52.42,68.86v2.95c-1.34,0-2.43-0.66-2.43-1.47C49.99,69.52,51.08,68.86,52.42,68.86z"/>
	<path fill="#6F311E" d="M49.99,70.87c0,0-1.89-2.84,0-5.95h2.43v5.95H49.99z"/>
	<path fill="#5F2819" d="M54.85,70.87c0,0,1.89-2.84,0-5.95h-2.43v5.95H54.85z"/>
	<ellipse fill="#8D4431" cx="52.42" cy="64.91" rx="2.43" ry="1.47"/>
	<ellipse fill="#6F311E" cx="52.42" cy="64.91" rx="1.98" ry="1.2"/>
	<path fill="#5F2819" d="M54.85,70.33c0,0.81-1.09,1.47-2.43,1.47v-2.95C53.76,68.86,54.85,69.52,54.85,70.33z"/>
</g>
<g>
	<ellipse fill="#5A2113" cx="47.09" cy="74.02" rx="2.43" ry="1.47"/>
	<path fill="#6F311E" d="M47.09,72.02v2.95c-1.34,0-2.43-0.66-2.43-1.47C44.66,72.69,45.75,72.02,47.09,72.02z"/>
	<path fill="#6F311E" d="M44.66,74.02c0,0-1.89-2.84,0-5.95h2.43v5.95H44.66z"/>
	<path fill="#5F2819" d="M49.52,74.02c0,0,1.89-2.84,0-5.95h-2.43v5.95H49.52z"/>
	<ellipse fill="#8D4431" cx="47.09" cy="68.07" rx="2.43" ry="1.47"/>
	<ellipse fill="#6F311E" cx="47.09" cy="68.07" rx="1.98" ry="1.2"/>
	<path fill="#5F2819" d="M49.52,73.49c0,0.81-1.09,1.47-2.43,1.47v-2.95C48.43,72.02,49.52,72.68,49.52,73.49z"/>
</g>
<g>
	<ellipse fill="#3A2D18" cx="60.56" cy="54.16" rx="1.65" ry="0.76"/>
	<path fill="none" stroke="#2C2414" stroke-width="0.6339" stroke-miterlimit="10" d="M60.78,53.84c0,0,0.36-0.81-0.89-2.08
		c-1.3-1.32-1.01-1.57-1.03-2.01"/>
	<path fill="none" stroke="#2C2414" stroke-width="0.6339" stroke-miterlimit="10" d="M60.36,53.69c0,0-0.57-0.99,1.08-2.53
		c1.65-1.54,1.23-1.91,1.25-2.44"/>
	<g>
		<circle fill="#9B934F" cx="59.85" cy="46.85" r="2.38"/>
		<circle fill="#AFA551" cx="62.65" cy="47.97" r="2.38"/>
		<circle fill="#BDB458" cx="58.84" cy="48.72" r="2.38"/>
	</g>
</g>
<g>
	<path fill="#333333" d="M77.62,66.04c0,0.19-0.02,0.38-0.06,0.57c-0.52,2.27-4.11,4.04-8.47,4.04c-4.36,0-7.95-1.76-8.47-4.04
		c-0.04-0.19-0.06-0.38-0.06-0.57c0-2.55,3.82-4.61,8.53-4.61C73.8,61.43,77.62,63.5,77.62,66.04z"/>
	<path fill="#515251" d="M77.62,65.38c0,0.19-0.02,0.38-0.06,0.57c-0.52,2.27-4.11,4.04-8.47,4.04c-4.36,0-7.95-1.76-8.47-4.04
		c-0.04-0.19-0.06-0.38-0.06-0.57c0-2.55,3.82-4.61,8.53-4.61C73.8,60.77,77.62,62.83,77.62,65.38z"/>
	<path fill="#444545" d="M76.07,65.38c0,0.16-0.02,0.31-0.05,0.47c-0.42,1.86-3.37,3.3-6.93,3.3c-3.57,0-6.51-1.44-6.93-3.3
		c-0.03-0.16-0.05-0.31-0.05-0.47c0-2.09,3.13-3.78,6.98-3.78C72.94,61.6,76.07,63.29,76.07,65.38z"/>
	<circle fill="#555656" cx="64.21" cy="64.09" r="0.98"/>
	<path fill="#232323" d="M73.68,65.05c0,0.1-0.01,0.2-0.03,0.31c-0.28,1.22-2.21,2.17-4.56,2.17s-4.28-0.95-4.56-2.17
		c-0.02-0.1-0.03-0.2-0.03-0.31c0-1.37,2.05-2.48,4.59-2.48C71.62,62.57,73.68,63.68,73.68,65.05z"/>
	<ellipse fill="#333333" cx="69.09" cy="62.19" rx="5.47" ry="4.52"/>
	<circle fill="#555656" cx="74.16" cy="64.66" r="0.98"/>
	<ellipse fill="#333333" cx="69.09" cy="62.19" rx="5.47" ry="4.52"/>
	<path fill="#515251" d="M73.68,59.71c0,0.1-0.01,0.2-0.03,0.31c-0.28,1.22-2.21,2.17-4.56,2.17s-4.28-0.95-4.56-2.17
		c-0.02-0.1-0.03-0.2-0.03-0.31c0-1.37,2.05-2.48,4.59-2.48C71.62,57.23,73.68,58.34,73.68,59.71z"/>
	<path fill="#232323" d="M72.6,59.71c0,0.08-0.02,0.16-0.03,0.24c-0.02,0.11-0.06,0.22-0.13,0.33c-0.44,0.77-1.77,1.34-3.35,1.34
		c-1.57,0-2.91-0.55-3.35-1.33c-0.06-0.11-0.11-0.22-0.14-0.33c-0.02-0.08-0.02-0.15-0.02-0.24c0-1.05,1.57-1.9,3.51-1.9
		S72.6,58.66,72.6,59.71z"/>
	<path fill="#B34F48" d="M72.44,60.27c-0.44,0.77-1.77,1.34-3.35,1.34c-1.57,0-2.91-0.55-3.35-1.33c0.43-0.78,1.77-1.34,3.35-1.34
		C70.66,58.93,72,59.49,72.44,60.27z"/>
	<path fill="none" stroke="#232323" stroke-width="0.4835" stroke-miterlimit="10" d="M65.19,59.33c0,0,0.19-4.27,3.9-4.27
		c1.4,0,3.68,0.82,3.9,4.27"/>
	<circle fill="#606161" cx="64.21" cy="65.04" r="0.98"/>
	<circle fill="#555656" cx="65.19" cy="66.04" r="0.98"/>
	<circle fill="#606161" cx="67.84" cy="66.87" r="0.98"/>
	<circle fill="#555656" cx="71" cy="66.55" r="0.98"/>
	<circle fill="#666766" cx="69.5" cy="67.19" r="0.98"/>
</g>
</svg>
