<?xml version="1.0" encoding="utf-8"?>
<!-- Generator: Adobe Illustrator 25.0.1, SVG Export Plug-In . SVG Version: 6.00 Build 0)  -->
<svg version="1.1" id="Layer_1" xmlns="http://www.w3.org/2000/svg" xmlns:xlink="http://www.w3.org/1999/xlink" x="0px" y="0px"
	 viewBox="0 0 100 100" style="enable-background:new 0 0 100 100;" xml:space="preserve">
<style type="text/css">
	.st0{fill:#FFFFFF;}
	.st1{fill:none;stroke:#FFFFFF;stroke-width:2.5956;stroke-miterlimit:10;}
</style>
<g>
	<rect x="15.5" y="69" class="st0" width="68.5" height="9.3"/>
	<path class="st0" d="M36.3,59.8l0.6-4.3c0.2-1.3,1.2-2.2,2.3-2.2h0c1.4,0,2.5,1.4,2.3,3l-0.6,4.3c-0.2,1.3-1.2,2.2-2.3,2.2h0
		C37.1,62.8,36,61.4,36.3,59.8z"/>
	<path class="st0" d="M63.1,59.8l-0.6-4.3c-0.2-1.3-1.2-2.2-2.3-2.2h0c-1.4,0-2.5,1.4-2.3,3l0.6,4.3c0.2,1.3,1.2,2.2,2.3,2.2h0
		C62.3,62.8,63.3,61.4,63.1,59.8z"/>
	<path class="st0" d="M62.7,27.5h-26c-1.5,0-2.7-1.2-2.7-2.7v-0.3c0-1.5,1.2-2.7,2.7-2.7h26c1.5,0,2.7,1.2,2.7,2.7v0.3
		C65.4,26.3,64.2,27.5,62.7,27.5z"/>
	<path class="st0" d="M70.6,38.7c0-9.4-9.3-16.9-20.9-16.9c-11.5,0-20.9,7.6-20.9,16.9c0,3.7,1.4,7.1,3.9,9.8c0.8,0.9,1.3,2,1.3,3.2
		v0c0,2.7,2.4,4.9,5.4,4.9H60c3,0,5.4-2.2,5.4-4.9v0c0-1.2,0.5-2.3,1.3-3.2C69.1,45.7,70.6,42.3,70.6,38.7z"/>
	<path class="st1" d="M31.7,43.8c0,0-9.2,2.8-9-7s7.7-4.7,7.7-4.7L31.7,43.8z"/>
	<path class="st1" d="M67.2,43.8c0,0,9.2,2.8,9-7s-7.7-4.7-7.7-4.7L67.2,43.8z"/>
</g>
</svg>
