<?xml version="1.0" encoding="utf-8"?>
<!-- Generator: Adobe Illustrator 25.0.1, SVG Export Plug-In . SVG Version: 6.00 Build 0)  -->
<svg version="1.1" id="Layer_1" xmlns="http://www.w3.org/2000/svg" xmlns:xlink="http://www.w3.org/1999/xlink" x="0px" y="0px"
	 viewBox="0 0 100 100" enable-background="new 0 0 100 100" xml:space="preserve">
<path fill="#FFFFFF" d="M35.58,51.93c-9.16-7.44-11.44-14-11.44-14s2.22,6.58-0.45,18.08c-2.64,11.38,6.86,13.56,10.83,12.2
	C38.47,66.85,44.64,59.3,35.58,51.93z"/>
<path fill="#FFFFFF" d="M49.1,36.39c7.38-9.21,13.93-11.53,13.93-11.53s-6.57,2.26-18.08-0.34c-11.39-2.58-13.51,6.94-12.13,10.9
	C34.2,39.38,41.79,45.5,49.1,36.39z"/>
<path fill="#FFFFFF" d="M51.14,64.68c-7.56,9.06-14.15,11.26-14.15,11.26s6.61-2.14,18.07,0.68C66.4,79.41,68.7,69.94,67.4,65.96
	C66.09,61.97,58.62,55.71,51.14,64.68z"/>
<path fill="#FFFFFF" d="M66.09,49.48c8.9,7.74,10.96,14.38,10.96,14.38s-2-6.65,1.06-18.05c3.03-11.28-6.4-13.78-10.41-12.56
	C63.7,34.48,57.28,41.82,66.09,49.48z"/>
</svg>
