<?xml version="1.0" encoding="utf-8"?>
<!-- Generator: Adobe Illustrator 25.0.1, SVG Export Plug-In . SVG Version: 6.00 Build 0)  -->
<svg version="1.1" id="Layer_1" xmlns="http://www.w3.org/2000/svg" xmlns:xlink="http://www.w3.org/1999/xlink" x="0px" y="0px"
	 viewBox="0 0 100 100" style="enable-background:new 0 0 100 100;" xml:space="preserve">
<style type="text/css">
	.st0{fill:#C5BF99;}
	.st1{fill:#DED9B5;}
	.st2{fill:#532232;}
	.st3{fill:#994964;}
	.st4{fill:#AFC2C2;}
	.st5{fill:#1D2223;}
	.st6{fill:none;stroke:#532232;stroke-width:1.4599;stroke-linecap:round;stroke-miterlimit:10;}
</style>
<polygon class="st0" points="51.3,39.7 87,14.9 60.1,52.1 "/>
<polygon class="st1" points="58.4,37.6 96.2,16.3 65.9,50.8 "/>
<path class="st2" d="M23.6,55.6c0,0-2.7-4.3,10-11.8s13.7-18.4,13.7-18.4s-1.2,11.7-5.2,17.1c0,0,3.5-0.2,6.8-5.7
	c0,0-3.8,10.8-12.8,13.8S23.6,55.6,23.6,55.6z"/>
<path class="st3" d="M9.1,60.9L9.1,60.9c-2-2.4-6-0.7-5.4,2.4c0.5,3,1.7,6.6,3.9,11.3l5,0.2l-2.9,4.7l1.7,1.6c2.9,2.8,7.8,1.5,9-2.4
	l0,0L59,70.3c1.7-0.4,3.5,0.3,4.6,1.6l0.6,0.8c0.4,0.5,0.9,0.9,1.5,1.1l5.3,2l0.6-4.1c0.1-0.8-0.1-1.6-0.5-2.3l0,0
	c-0.8-1.4,0.3-3.2,2-3l4.3,0.6c0.4,0.1,0.8,0,1.2,0l10.2-2.2l-7.3-7.4c-0.3-0.3-0.7-0.6-1.2-0.8L77,55.2c-1.7-0.7-1.6-3.1,0.1-3.7
	l2.2-0.8c0.7-0.2,1.2-0.7,1.7-1.2l4.8-6.5l-7.9-1.9c-0.5-0.1-1-0.1-1.5,0l-3.6,0.7c-2.1,0.4-4.1-0.7-5-2.6
	c-1.8-3.8-5.7-8.5-14.2-3.3C42.7,42.5,9.1,60.9,9.1,60.9z"/>
<polygon class="st2" points="38.2,55.6 45.9,61.3 47.3,58.4 54.2,61.8 54.2,57 59.9,55.6 52.6,47.8 "/>
<path class="st2" d="M12.4,65.3c0,0,3.7-5,6.6-3.9C21.8,62.6,15.2,65.2,12.4,65.3z"/>
<path class="st2" d="M38.2,55.6c0,0-2.7-4.3,10-11.8s13.7-18.4,13.7-18.4s-1.2,11.7-5.2,17.1c0,0,3.5-0.2,6.8-5.7
	c0,0-3.8,10.8-12.8,13.8S38.2,55.6,38.2,55.6z"/>
<path class="st4" d="M52.6,47.8c0,0-8.9,1.2-14.4,7.8C38.2,55.6,60.1,59.9,52.6,47.8z"/>
<path class="st5" d="M44.6,56.3c0,0-2.6-2.6,0-5.8C44.6,50.6,47.5,53.1,44.6,56.3z"/>
<path class="st3" d="M69.1,42.5c0,0,16.7-5.3,18.1-12.3c0,0,3.9,15.1-7.9,20.5s-9.1-5.1-9.1-5.1l-1.1-1.8V42.5z"/>
<path class="st3" d="M76,54.8c0,0,16.6,5.4,21.9,0.5c0,0-5.6,14.6-18.3,12.1C66.8,65,75.1,58,75.1,58l0.2-2.1L76,54.8z"/>
<path class="st3" d="M69.2,67.5c0,0,7,9,11.5,8.3c0,0-8.3,5.8-14.3-0.2c-5.9-6,1.1-6.7,1.1-6.7l0.9-1.1L69.2,67.5z"/>
<circle class="st2" cx="63.5" cy="63.8" r="2"/>
<circle class="st2" cx="67.6" cy="57" r="2"/>
<circle class="st2" cx="68.3" cy="49.2" r="2"/>
<polyline class="st6" points="12.6,74.8 31.6,69.4 35.3,70.4 38.7,67.5 44.7,65.9 "/>
</svg>
