<?xml version="1.0" encoding="utf-8"?>
<!-- Generator: Adobe Illustrator 25.0.1, SVG Export Plug-In . SVG Version: 6.00 Build 0)  -->
<svg version="1.1" id="Layer_1" xmlns="http://www.w3.org/2000/svg" xmlns:xlink="http://www.w3.org/1999/xlink" x="0px" y="0px"
	 viewBox="0 0 100 100" enable-background="new 0 0 100 100" xml:space="preserve">
<path fill="#FFFFFF" d="M36.1,13.2V15v1.1h0.6c0.5,0,0.9,0.1,1.1,0.2c0.2,0.1,0.4,0.3,0.5,0.5c0.1,0.2,0.1,0.7,0.1,1.4v12.4
	c0,0.7-0.1,1.1-0.1,1.3c-0.1,0.2-0.3,0.4-0.5,0.5c-0.2,0.1-0.6,0.2-1.1,0.2h-0.6v1.1v1.8h28v-1.8v-1.1h-0.6c-0.5,0-0.9-0.1-1.1-0.2
	c-0.2-0.1-0.4-0.3-0.5-0.6c-0.1-0.3-0.2-0.7-0.2-1.3V18.5c0-0.8,0.1-1.3,0.2-1.5c0.1-0.3,0.3-0.5,0.5-0.6c0.2-0.1,0.6-0.2,1.1-0.2
	h0.6V15v-1.8H36.1z M43.3,33.8v-1.1h-0.6c-0.5,0-0.9-0.1-1.1-0.2c-0.2-0.1-0.4-0.3-0.5-0.6c-0.1-0.3-0.2-0.7-0.2-1.3V18.5
	c0-0.8,0.1-1.3,0.2-1.5c0.1-0.3,0.3-0.5,0.5-0.6c0.2-0.1,0.6-0.2,1.1-0.2h0.6V15h3.2v1.1h0.6c0.5,0,0.9,0.1,1.1,0.2
	c0.2,0.1,0.4,0.3,0.5,0.5s0.1,0.7,0.1,1.4v12.4c0,0.7-0.1,1.1-0.1,1.3c-0.1,0.2-0.3,0.4-0.5,0.5c-0.2,0.1-0.6,0.2-1.1,0.2h-0.6v1.1
	L43.3,33.8z M57.5,16.1c0.5,0,0.9,0.1,1.1,0.2c0.2,0.1,0.4,0.3,0.5,0.5c0.1,0.2,0.1,0.7,0.1,1.4v12.4c0,0.7-0.1,1.1-0.1,1.3
	c-0.1,0.2-0.3,0.4-0.5,0.5c-0.2,0.1-0.6,0.2-1.1,0.2h-0.6v1.1h-3.2v-1.1h-0.6c-0.5,0-0.9-0.1-1.1-0.2c-0.2-0.1-0.4-0.3-0.5-0.6
	c-0.1-0.3-0.2-0.7-0.2-1.3V18.5c0-0.8,0.1-1.3,0.2-1.5c0.1-0.3,0.3-0.5,0.5-0.6c0.2-0.1,0.6-0.2,1.1-0.2h0.6V15h3.2v1.1H57.5z"/>
<circle fill="none" stroke="#FFFFFF" stroke-width="3.6648" stroke-miterlimit="10" cx="50.1" cy="66.7" r="22.6"/>
<g>
	<ellipse fill="none" stroke="#FFFFFF" stroke-width="3.6648" stroke-miterlimit="10" cx="50.1" cy="66.7" rx="10.9" ry="14.7"/>
	<ellipse fill="none" stroke="#FFFFFF" stroke-width="3.6648" stroke-miterlimit="10" cx="50.1" cy="66.7" rx="5" ry="6.7"/>
</g>
</svg>
