<?xml version="1.0" encoding="utf-8"?>
<!-- Generator: Adobe Illustrator 25.0.1, SVG Export Plug-In . SVG Version: 6.00 Build 0)  -->
<svg version="1.1" id="Layer_1" xmlns="http://www.w3.org/2000/svg" xmlns:xlink="http://www.w3.org/1999/xlink" x="0px" y="0px"
	 viewBox="0 0 100 100" style="enable-background:new 0 0 100 100;" xml:space="preserve">
<style type="text/css">
	.st0{fill:none;stroke:#99634E;stroke-width:3.1487;stroke-linecap:round;stroke-miterlimit:10;}
	.st1{fill:#6EAEB0;}
	.st2{fill:#81CFD6;}
	.st3{fill:#D3D3D3;}
	.st4{opacity:0.62;fill:#81CFD6;}
	.st5{fill:#996199;}
	.st6{fill:#BE7CB4;}
	.st7{opacity:0.62;fill:#BE7CB4;}
	.st8{fill:#EBAC58;}
	.st9{fill:#E1D674;}
	.st10{opacity:0.62;fill:#E1D674;}
</style>
<g>
	<line class="st0" x1="-155.9" y1="30.4" x2="-116.6" y2="93.9"/>
	<path class="st1" d="M-154.4,19.2l-0.1,10.3l-2.6,1.6l-4.2-1.6l-2-0.7c-0.4-0.1-0.5-0.3-0.7-0.6l-2-4.8l-0.1-0.2l-2.8-3.1
		c-0.1-0.2-0.3-0.5-0.2-0.8l0.7-9.7c0.1-0.4,0.4-0.9,0.8-0.8c0,0,0,0,0.2-0.1l4.5,1.1c0.4,0.1,0.5,0.3,0.7,0.6l1.9,4.6
		c0.1,0.2,0.1,0.2,0.3,0.5l5,3C-154.6,18.4-154.3,18.8-154.4,19.2z"/>
	<path class="st2" d="M-159.4,17.8l-0.1,10.3l-1.9,1.1l-2-0.7c-0.4-0.1-0.5-0.3-0.7-0.6l-2-4.8l-0.1-0.2l-2.8-3.1
		c-0.1-0.2-0.3-0.5-0.2-0.8l0.7-9.7c0.1-0.4,0.4-0.9,0.8-0.8c0.1,0.2,0.1,0.2,0.3,0.5l2.3,4.7c0.1,0.2,0.1,0.2,0.3,0.5l5,3
		C-159.4,17.2-159.3,17.4-159.4,17.8z"/>
	<path class="st3" d="M-144.4,46.7l-1.9,1.2c-0.4,0.3-1,0.1-1.2-0.3l-9.7-15.7c-0.3-0.4-0.1-1,0.3-1.2l1.9-1.2
		c0.4-0.3,1-0.1,1.2,0.3l9.7,15.7C-143.9,45.9-144,46.5-144.4,46.7z"/>
	<polygon class="st4" points="-140.4,20.7 -138.6,27.5 -131.9,29.3 -138.6,31.1 -140.4,37.8 -142.2,31.1 -148.9,29.3 -142.2,27.5 	
		"/>
	<polygon class="st4" points="-151,6.7 -150,10.2 -146.5,11.1 -150,12.1 -151,15.6 -151.9,12.1 -155.5,11.1 -151.9,10.2 	"/>
	<polygon class="st4" points="-154.3,17.2 -153.1,21.8 -148.6,23 -153.1,24.2 -154.3,28.8 -155.6,24.2 -160.1,23 -155.6,21.8 	"/>
	<polygon class="st4" points="-167.4,34.8 -166.1,39.4 -161.6,40.6 -166.1,41.8 -167.4,46.3 -168.6,41.8 -173.1,40.6 -168.6,39.4 	
		"/>
	<polygon class="st4" points="-177.4,12.9 -175.6,19.6 -168.9,21.4 -175.6,23.2 -177.4,29.9 -179.2,23.2 -185.9,21.4 -179.2,19.6 	
		"/>
</g>
<g>
	<line class="st0" x1="41.1" y1="30.4" x2="80.3" y2="93.9"/>
	<path class="st5" d="M42.6,19.2l-0.1,10.3L40,31.1l-4.2-1.6l-2-0.7c-0.4-0.1-0.5-0.3-0.7-0.6l-2-4.8L31,23.2l-2.8-3.1
		c-0.1-0.2-0.3-0.5-0.2-0.8l0.7-9.7c0.1-0.4,0.4-0.9,0.8-0.8c0,0,0,0,0.2-0.1l4.5,1.1c0.4,0.1,0.5,0.3,0.7,0.6l1.9,4.6
		c0.1,0.2,0.1,0.2,0.3,0.5l5,3C42.4,18.4,42.7,18.8,42.6,19.2z"/>
	<path class="st6" d="M37.6,17.8l-0.1,10.3l-1.9,1.1l-2-0.7c-0.4-0.1-0.5-0.3-0.7-0.6l-2-4.8L30.8,23L28,19.9
		c-0.1-0.2-0.3-0.5-0.2-0.8l0.7-9.7c0.1-0.4,0.4-0.9,0.8-0.8c0.1,0.2,0.1,0.2,0.3,0.5l2.3,4.7c0.1,0.2,0.1,0.2,0.3,0.5l5,3
		C37.5,17.2,37.7,17.4,37.6,17.8z"/>
	<path class="st3" d="M52.5,46.7l-1.9,1.2c-0.4,0.3-1,0.1-1.2-0.3l-9.7-15.7c-0.3-0.4-0.1-1,0.3-1.2l1.9-1.2c0.4-0.3,1-0.1,1.2,0.3
		l9.7,15.7C53.1,45.9,52.9,46.5,52.5,46.7z"/>
	<ellipse class="st7" cx="56.6" cy="29.3" rx="3.2" ry="6.3"/>
	<ellipse class="st7" cx="46" cy="11.1" rx="1.8" ry="3.5"/>
	<ellipse class="st7" cx="29.6" cy="40.6" rx="1.8" ry="3.5"/>
	<ellipse class="st7" cx="42.8" cy="23" rx="2.3" ry="4.5"/>
	<ellipse class="st7" cx="19.7" cy="21.4" rx="3.2" ry="6.3"/>
</g>
<g>
	<line class="st0" x1="-77.2" y1="30.4" x2="-38" y2="93.9"/>
	<path class="st8" d="M-75.7,19.2l-0.1,10.3l-2.6,1.6l-4.2-1.6l-2-0.7c-0.4-0.1-0.5-0.3-0.7-0.6l-2-4.8l-0.1-0.2l-2.8-3.1
		c-0.1-0.2-0.3-0.5-0.2-0.8l0.7-9.7c0.1-0.4,0.4-0.9,0.8-0.8c0,0,0,0,0.2-0.1l4.5,1.1c0.4,0.1,0.5,0.3,0.7,0.6l1.9,4.6
		c0.1,0.2,0.1,0.2,0.3,0.5l5,3C-75.9,18.4-75.6,18.8-75.7,19.2z"/>
	<path class="st9" d="M-80.7,17.8l-0.1,10.3l-1.9,1.1l-2-0.7c-0.4-0.1-0.5-0.3-0.7-0.6l-2-4.8l-0.1-0.2l-2.8-3.1
		c-0.1-0.2-0.3-0.5-0.2-0.8l0.7-9.7c0.1-0.4,0.4-0.9,0.8-0.8c0.1,0.2,0.1,0.2,0.3,0.5l2.3,4.7c0.1,0.2,0.1,0.2,0.3,0.5l5,3
		C-80.8,17.2-80.6,17.4-80.7,17.8z"/>
	<path class="st3" d="M-65.8,46.7l-1.9,1.2c-0.4,0.3-1,0.1-1.2-0.3l-9.7-15.7c-0.3-0.4-0.1-1,0.3-1.2l1.9-1.2c0.4-0.3,1-0.1,1.2,0.3
		l9.7,15.7C-65.2,45.9-65.4,46.5-65.8,46.7z"/>
	<circle class="st10" cx="-72.3" cy="11.1" r="1.6"/>
	<circle class="st10" cx="-75.4" cy="23" r="1.6"/>
	<circle class="st10" cx="-98.6" cy="21.4" r="3"/>
	<circle class="st10" cx="-61.7" cy="29.3" r="3.4"/>
	<circle class="st10" cx="-88.7" cy="40.6" r="1.9"/>
	<circle class="st10" cx="-58.8" cy="21.4" r="1.2"/>
	<circle class="st10" cx="-95.8" cy="13.9" r="1.2"/>
	<circle class="st10" cx="-70.8" cy="6.7" r="0.6"/>
	<circle class="st10" cx="-87.1" cy="35.5" r="0.6"/>
	<circle class="st10" cx="-73.3" cy="17.9" r="0.6"/>
</g>
</svg>
