<?xml version="1.0" encoding="utf-8"?>
<!-- Generator: Adobe Illustrator 25.0.1, SVG Export Plug-In . SVG Version: 6.00 Build 0)  -->
<svg version="1.1" id="Layer_1" xmlns="http://www.w3.org/2000/svg" xmlns:xlink="http://www.w3.org/1999/xlink" x="0px" y="0px"
	 viewBox="0 0 100 100" enable-background="new 0 0 100 100" xml:space="preserve">
<g>
	<path fill="none" stroke="#D67A4E" stroke-width="3.5019" stroke-miterlimit="10" d="M20.65,1.99c0,0-1.15,5.44,8.06,8.69
		s20.06,2.31,34.93,29.45"/>
	<path fill="none" stroke="#D67A4E" stroke-width="3.5019" stroke-miterlimit="10" d="M72.67,96.9c0,0-5.2-1.96-2.99-11.47
		s8.84-18.15-6.03-45.29"/>
	
		<rect x="61.3" y="32.03" transform="matrix(0.8769 -0.4806 0.4806 0.8769 -11.781 35.8137)" fill="#9E614C" width="5.49" height="17.76"/>
	<polyline fill="none" stroke="#E8C19E" stroke-width="1.0005" stroke-miterlimit="10" points="22.9,4.25 19.66,6.03 68.52,95.19 
		71.77,93.41 	"/>
	<line fill="none" stroke="#D36841" stroke-width="1.5008" stroke-miterlimit="10" x1="19.38" y1="60.9" x2="73.93" y2="31"/>
	<polygon fill="#A2A0A0" points="70.46,29.37 79.12,28.16 73.63,31.17 	"/>
	<polygon fill="#A2A0A0" points="73.44,34.8 79.12,28.16 73.63,31.17 	"/>
	<polygon fill="#ED4240" points="29.24,54.62 25.24,53.7 15.01,59.31 20.28,59.53 	"/>
	<polygon fill="#ED4240" points="30,56 28.62,59.86 18.39,65.47 21.04,60.91 	"/>
</g>
</svg>
