<?xml version="1.0" encoding="utf-8"?>
<!-- Generator: Adobe Illustrator 25.0.1, SVG Export Plug-In . SVG Version: 6.00 Build 0)  -->
<svg version="1.1" id="Layer_1" xmlns="http://www.w3.org/2000/svg" xmlns:xlink="http://www.w3.org/1999/xlink" x="0px" y="0px"
	 viewBox="0 0 100 100" enable-background="new 0 0 100 100" xml:space="preserve">
<path fill="#D8D8D8" d="M86.6,91.5c0,2.3-1.8,4.1-4.1,4.1c-2.3,0-4.1-1.8-4.1-4.1c0-0.4,0.1-0.9,0.2-1.3L66.1,75.8
	c-3,1.5-7.4,2.6-11.6-1.4l1.2-1.5l1.2-1.5c1.9,1.9,4,1.9,5.7,1.3L49.8,56.7L37,72.7c1.8,0.5,3.9,0.5,5.7-1.3l1.2,1.5l1.2,1.5
	c-4.1,4-8.6,3-11.6,1.4L21,90.2c0.1,0.4,0.2,0.8,0.2,1.3c0,2.3-1.8,4.1-4.1,4.1c-2.3,0-4.1-1.8-4.1-4.1c0-2.3,1.8-4.1,4.1-4.1
	c0.1,0,0.2,0,0.2,0l11.4-15.5c-2.1-2.6-4.1-6.7-1-11.5l1.7,0.9l1.7,0.9c-1.4,2.2-1,4.2-0.1,5.8L45,50.6L25.6,26.4
	c-2.6-3.3-5-6.9-6.9-10.6l-5.6-11v0l9.5,7.9c3.2,2.7,6.2,5.7,8.9,9l18.3,22.9l18.3-22.9c2.7-3.3,5.6-6.3,8.9-9l9.5-7.9v0l-5.6,11
	c-1.9,3.7-4.2,7.3-6.9,10.6L54.7,50.6L68.6,68c0.9-1.6,1.3-3.6-0.1-5.8l1.7-0.9l1.7-0.9c3,4.9,1.1,9-1,11.5l11.4,15.5
	c0.1,0,0.2,0,0.2,0C84.8,87.4,86.6,89.3,86.6,91.5z"/>
</svg>
