<?xml version="1.0" encoding="utf-8"?>
<!-- Generator: Adobe Illustrator 25.0.1, SVG Export Plug-In . SVG Version: 6.00 Build 0)  -->
<svg version="1.1" id="Layer_1" xmlns="http://www.w3.org/2000/svg" xmlns:xlink="http://www.w3.org/1999/xlink" x="0px" y="0px"
	 viewBox="0 0 100 100" style="enable-background:new 0 0 100 100;" xml:space="preserve">
<style type="text/css">
	.st0{fill:#4C7356;}
	.st1{fill:none;stroke:#4C7356;stroke-width:2.0855;stroke-linecap:round;stroke-miterlimit:10;}
	.st2{fill:#EFEED5;}
</style>
<g>
	<path class="st0" d="M33,87.2c2.1-5.4,4.1-10.8,6-16.2c1.9-5.4,3.7-10.9,5.2-16.4c0.3-1.4,0.7-2.8,0.5-3.9
		c-0.2-1.2-0.7-2.5-1.3-3.8c-1.2-2.5-2.7-5-4.1-7.6c-1.4-2.5-2.8-5.1-3.9-7.9c-1.1-2.7-2-5.7-1.8-8.9c0-0.6,0.5-1,1.1-1
		c0.6,0,1,0.5,1,1.1c0,0,0,0,0,0l0,0c-0.2,2.6,0.5,5.4,1.4,8c1,2.6,2.3,5.2,3.7,7.7c1.4,2.5,2.9,5,4.2,7.6c0.7,1.3,1.3,2.7,1.6,4.3
		c0,0.4,0.1,0.9,0.1,1.3l-0.1,1.2c-0.1,0.7-0.3,1.5-0.4,2.2c-1.3,5.7-3.1,11.2-4.7,16.8c-1.7,5.5-3.4,11.1-5.2,16.6
		C36,89.3,35,89.8,34,89.5c-0.9-0.3-1.4-1.3-1.1-2.2C32.9,87.3,32.9,87.3,33,87.2L33,87.2z"/>
</g>
<path class="st1" d="M46.1,51.4c0,0,13.2-14.7,15.8-22.3"/>
<path class="st1" d="M46.1,51.4c0,0,21.2,1.7,28.8-6.9"/>
<path class="st2" d="M31.7,23.6c0,0-4.8-1.3-4.8-2.6c0-1.3,1.3-1.1,1.3-1.1s-1.5-3.8-1.3-5.5s1.9,0,1.9,0s1.2-4,2.1-4.1
	s2.6,1.2,2.6,1.2l4.8,1.6c0,0-0.2-1.5,0.6-1.6c0.7-0.1,1.6,4.1,1.5,5.5c0,1.4,1.2-0.8,1.7,0c0.5,0.8-3.2,4.9-3.2,4.9
	c-0.1,0.1-0.8,1.8-1.9,2.2C36,24.5,31.7,23.6,31.7,23.6z"/>
<path class="st2" d="M57.7,25c0,0-2.6-4.6-1.7-5.6c1-1,1.8,0.2,1.8,0.2s1.7-4,3.1-5.1s1.5,1.4,1.5,1.4s3.9-2.1,4.6-1.5
	c0.7,0.6,1.1,2.8,1.1,2.8l2.5,4.8c0,0,1-1.2,1.6-0.8c0.7,0.5-1.9,4.3-2.9,5.3c-1.1,1,1.5,0.2,1.3,1.3s-6,1.3-6.2,1.3
	c-0.1,0-2,0.8-3.1,0.3C60.3,28.9,57.7,25,57.7,25z"/>
<path class="st2" d="M77.2,50c0,0,4.6,1.6,5.4,0.4s-0.3-1.7-0.3-1.7s3.6-2.4,4.4-4c0.9-1.5-1.5-1.1-1.5-1.1s1.6-4.1,0.9-4.7
	c-0.6-0.6-2.8-0.4-2.8-0.4l-4.7-1.4c0,0,1.1-1.2,0.6-1.7c-0.5-0.5-3.8,2.6-4.6,3.9c-0.8,1.2-0.4-1.4-1.3-1c-0.9,0.4-0.6,6-0.6,6.1
	c0,0.1-0.5,2,0.1,2.9C73.3,48.3,77.2,50,77.2,50z"/>
<ellipse class="st0" cx="33.6" cy="17.3" rx="1.7" ry="1"/>
<ellipse transform="matrix(0.2975 -0.9547 0.9547 0.2975 24.1194 76.5979)" class="st0" cx="64.1" cy="21.9" rx="1" ry="1.7"/>
<ellipse transform="matrix(0.8271 -0.5621 0.5621 0.8271 -10.473 52.1901)" class="st0" cx="79.6" cy="43.1" rx="1" ry="1.7"/>
</svg>
