<?xml version="1.0" encoding="utf-8"?>
<!-- Generator: Adobe Illustrator 25.0.1, SVG Export Plug-In . SVG Version: 6.00 Build 0)  -->
<svg version="1.1" id="Layer_1" xmlns="http://www.w3.org/2000/svg" xmlns:xlink="http://www.w3.org/1999/xlink" x="0px" y="0px"
	 viewBox="0 0 100 100" enable-background="new 0 0 100 100" xml:space="preserve">
<g>
	<path fill="#752F18" d="M43.91,61.62l-19.04,26.4l-2.97-2.14c0,0,8.02-16.31,17.99-25.6L43.91,61.62z"/>
	<path fill="#752F18" d="M43.91,61.62l-19.04,26.4l2.97,2.14c0,0,12.95-12.76,18.6-25.16L43.91,61.62z"/>
	<path fill="#5E5B5D" d="M44.91,60.24c0,0-9.38-2.6-10.7-9.96l-2.52,1.26c0,0,3.11,6.28,10.91,11.91L44.91,60.24z"/>
	<circle fill="#5E5B5D" cx="32.31" cy="50.68" r="2.09"/>
	<path fill="#5E5B5D" d="M44.91,60.24c0,0,5.43,8.08,12.83,7.01l-0.4,2.79c0,0-6.94-0.96-14.74-6.59L44.91,60.24z"/>
	<circle fill="#5E5B5D" cx="57.96" cy="69.17" r="2.09"/>
	<path fill="#929191" d="M44.73,60.5L83.85,6.23c0,0-19.91,17.15-38.65,43.13c0,0-0.77,5.02-5.89,8.16l2.82,2.81L44.73,60.5z"/>
	<path fill="#6B6769" d="M44.73,60.5L83.85,6.23c0,0-9.98,24.31-28.71,50.29c0,0-4.52,2.31-5.89,8.16l-3.56-1.78L44.73,60.5z"/>
	<path fill="#929191" d="M22.6,84.65c0,0,0.82,1.48,2.68,2.82l-3.45,4.79c0,0-2.82-1.74-2.61-2.92
		C19.43,88.16,22.6,84.65,22.6,84.65z"/>
	<path fill="#929191" d="M28.8,89.12c0,0-1.66-0.31-3.52-1.65l-3.45,4.79c0,0,2.54,2.13,3.59,1.55
		C26.47,93.23,28.8,89.12,28.8,89.12z"/>
</g>
</svg>
