<?xml version="1.0" encoding="utf-8"?>
<!-- Generator: Adobe Illustrator 25.0.1, SVG Export Plug-In . SVG Version: 6.00 Build 0)  -->
<svg version="1.1" id="Layer_1" xmlns="http://www.w3.org/2000/svg" xmlns:xlink="http://www.w3.org/1999/xlink" x="0px" y="0px"
	 viewBox="0 0 100 100" enable-background="new 0 0 100 100" xml:space="preserve">
<g>
	<path fill="#856849" d="M46.47,99.18l-43.9-24.7c-0.9-0.5-1.4-1.1-1.5-1.8c-0.1-0.8,0.4-1.7,1.5-2.3l43.9-24.7c2-1.1,5.2-1.1,7.2,0
		l43.9,24.7c2,1.1,2,2.9,0,4.1l-43.9,24.7C51.67,100.28,48.47,100.28,46.47,99.18z"/>
	<polygon fill="#856849" points="1.07,68.18 99.07,67.88 99.07,72.38 1.07,72.68 	"/>
	<path fill="#3A2D18" d="M46.47,94.58l-43.9-24.7c-2-1.1-2-2.9,0-4.1l43.9-24.7c2-1.1,5.2-1.1,7.2,0l43.9,24.7c2,1.1,2,2.9,0,4.1
		l-43.9,24.7C51.67,95.78,48.47,95.78,46.47,94.58z"/>
	<path fill="#52412B" d="M46.93,90.99l-38.5-21.7c-1.8-1-1.8-2.6,0-3.6l38.5-21.7c1.8-1,4.6-1,6.4,0l38.5,21.7c1.8,1,1.8,2.6,0,3.6
		l-38.5,21.7C51.63,91.89,48.73,91.89,46.93,90.99z"/>
</g>
<path fill="#263B31" d="M52.82,86.51c-1.76,1.06-7.13-0.81-8.89-1.87c0,0-10.44-6.4-28.73-15.94c-4.57-2.38,5.1-6.11,7.89-8.26
	c4.28-3.3,16.07-7.15,21.36-12.31c4.06-3.95,14.42,2.05,15.88,2.94c3.26,1.98,10.08,6.5,12.6,8.54c3.47,2.82,15.59,5.2,10.47,9.1
	C69.91,78.98,52.82,86.51,52.82,86.51z"/>
<g>
	<ellipse fill="#5A2113" cx="50.33" cy="53.5" rx="2.43" ry="1.47"/>
	<path fill="#6F311E" d="M50.33,51.5v2.95c-1.34,0-2.43-0.66-2.43-1.47C47.89,52.15,48.98,51.5,50.33,51.5z"/>
	<path fill="#6F311E" d="M47.89,53.5c0,0-1.89-2.84,0-5.95h2.43v5.95H47.89z"/>
	<path fill="#5F2819" d="M52.76,53.5c0,0,1.89-2.84,0-5.95h-2.43v5.95H52.76z"/>
	<ellipse fill="#8D4431" cx="50.33" cy="47.55" rx="2.43" ry="1.47"/>
	<ellipse fill="#6F311E" cx="50.33" cy="47.55" rx="1.98" ry="1.2"/>
	<path fill="#5F2819" d="M52.76,52.96c0,0.81-1.09,1.47-2.43,1.47V51.5C51.67,51.5,52.76,52.15,52.76,52.96z"/>
</g>
<g>
	<ellipse fill="#5A2113" cx="44.92" cy="56.48" rx="2.43" ry="1.47"/>
	<path fill="#6F311E" d="M44.92,54.48v2.95c-1.34,0-2.43-0.66-2.43-1.47C42.48,55.13,43.57,54.48,44.92,54.48z"/>
	<path fill="#6F311E" d="M42.48,56.48c0,0-1.89-2.84,0-5.95h2.43v5.95H42.48z"/>
	<path fill="#5F2819" d="M47.35,56.48c0,0,1.89-2.84,0-5.95h-2.43v5.95H47.35z"/>
	<ellipse fill="#8D4431" cx="44.92" cy="50.53" rx="2.43" ry="1.47"/>
	<ellipse fill="#6F311E" cx="44.92" cy="50.53" rx="1.98" ry="1.2"/>
	<path fill="#5F2819" d="M47.35,55.94c0,0.81-1.09,1.47-2.43,1.47v-2.93C46.26,54.48,47.35,55.13,47.35,55.94z"/>
</g>
<polygon fill="#5F2819" points="51.53,63.62 51.53,59.36 62.53,53.12 62.53,57.36 "/>
<polygon fill="#6F311E" points="51.53,59.36 46.03,56.24 46.03,60.5 51.53,63.62 "/>
<polygon fill="#22332B" points="61.16,66.25 40.01,78.6 19.25,67.14 37.12,55.01 "/>
<polygon fill="#8D4431" points="51.53,59.36 46.03,56.24 56.94,50 62.44,53.12 "/>
<path fill="#AA8E6F" d="M38.66,76.52l-18.34-10.3l7.19-6.6l1.86-14.77c0,0,7.76,7.37,18.34,10.3v9.82L38.66,76.52z"/>
<path fill="#AA8E6F" d="M20.31,66.22l18.1-10.2c-3.52-1.8-9.05-11.17-9.05-11.17S25.18,58.73,20.31,66.22z"/>
<path fill="#896B56" d="M38.66,76.52l18.1-10.2c-3.52-1.8-9.05-11.17-9.05-11.17S43.52,69.03,38.66,76.52z"/>
<path fill="#4C3A2D" d="M42.36,74.49l11.92-6.72c-2.32-1.18-5.96-7.35-5.96-7.35S45.56,69.55,42.36,74.49z"/>
<path fill="#282623" d="M43.07,73.2l9.74-5.49c-1.89-0.97-4.87-6.01-4.87-6.01S45.68,69.17,43.07,73.2z"/>
<line fill="none" stroke="#754727" stroke-width="0.9094" stroke-linecap="round" stroke-miterlimit="10" x1="37.02" y1="74.49" x2="37.02" y2="77.27"/>
<line fill="none" stroke="#754727" stroke-width="0.9094" stroke-linecap="round" stroke-miterlimit="10" x1="19.61" y1="67.23" x2="19.61" y2="64.44"/>
<line fill="none" stroke="#754727" stroke-width="0.9094" stroke-linecap="round" stroke-miterlimit="10" x1="57.46" y1="63.05" x2="57.46" y2="65.84"/>
<ellipse fill="#3A2D18" cx="70.78" cy="67.01" rx="7.54" ry="4.3"/>
<ellipse fill="#47382C" cx="70.91" cy="66.67" rx="5.2" ry="2.31"/>
<path fill="#78584F" d="M73.79,64.04c-0.01,0.69,0.55,0.7-0.44,0.98c-0.99,0.28-1.4,0.5-1.66-0.04c-0.26-0.54-0.47-1.01,0.02-1.53
	c0.49-0.52,0.85,0.02,1.47,0.04S73.79,64.04,73.79,64.04z"/>
<path fill="#78584F" d="M76.22,65.61c-0.22,0.79,0.28,1.13-0.7,0.87c-0.98-0.26-1.42-0.24-1.48-1.02c-0.07-0.77-0.12-1.43,0.48-1.75
	c0.6-0.32,0.76,0.52,1.32,0.9S76.22,65.61,76.22,65.61z"/>
<path fill="#78584F" d="M68.36,65.74c-0.8,0.73-1.2,1.72-1.69,0.38s-1.29-0.93-0.61-1.64c0.68-0.71,0.11-0.88,1.18-0.56
	c1.08,0.32,1.25,0.7,1.18,1.26C68.36,65.74,68.36,65.74,68.36,65.74z"/>
<path fill="#78584F" d="M74.26,66.87c-0.05-1.78,3-0.5,1.73,1.16C74.72,69.68,74.33,69.35,74.26,66.87z"/>
<path fill="#85655D" d="M66.95,65.79c0.85,1.18-1.86,3.74-1.73,1.15C65.35,64.35,65.76,64.14,66.95,65.79z"/>
<path fill="#85655D" d="M68.65,63.35c0.24-1.33,2.28,0.8,1.09,1.52C68.55,65.59,68.32,65.2,68.65,63.35z"/>
<path fill="#78584F" d="M70.5,65.09c-0.8,0.06-0.23-3.35,0.52-1.94C71.77,64.57,71.62,65,70.5,65.09z"/>
<path fill="#7D401B" d="M67.9,66.18c0,0,1.42-2.27,2.1-2.58c0.68-0.31,1.38-1.23,1.75-1.57s0.45,1.06,0.29,1.16
	c-0.16,0.1-3.27,3.92-3.67,3.86C67.97,67,67.9,66.18,67.9,66.18z"/>
<path fill="#7D401B" d="M71.35,63.49c0,0-0.32,1.83-0.62,2.3c-0.29,0.47-0.49,1.27-0.62,1.62c-0.14,0.35-0.43-0.35-0.36-0.47
	s0.98-3.53,1.2-3.68C71.17,63.09,71.35,63.49,71.35,63.49z"/>
<path fill="#84481F" d="M71.32,64.7c0.6,0.35,1.95,1.7,2.35,1.31c0.4-0.39,0.31-0.53,0.18-0.7c-0.14-0.17-2.39-1.11-2.61-1.4
	C71.03,63.64,70.64,64.3,71.32,64.7z"/>
<path fill="#78584F" d="M67.11,68.7c-0.04-1.33-0.89-1.27,0.6-1.97c1.49-0.7,2.09-1.19,2.52-0.18c0.43,1.01,0.79,1.87,0.09,2.96
	c-0.7,1.09-1.29,0.09-2.23,0.16S67.11,68.7,67.11,68.7z"/>
<path fill="#974422" d="M69.53,63.44c0.69,0.9,2.1,3.66,2.75,3.43c0.65-0.23,0.57-0.48,0.44-0.8c-0.13-0.32-2.86-3.2-3.07-3.73
	S68.74,62.42,69.53,63.44z"/>
<path fill="#85655D" d="M70.78,67.84c0.9-1.4,1.23-2.97,2.13-1.37s1.86,0.62,1.12,1.94s0.04,1.26-1.43,1.37
	c-1.47,0.11-1.77-0.33-1.79-1.14C70.78,67.84,70.78,67.84,70.78,67.84z"/>
<ellipse fill="#78584F" cx="66.71" cy="68.1" rx="0.4" ry="0.6"/>
<ellipse fill="#78584F" cx="70.78" cy="69.05" rx="0.4" ry="0.6"/>
<ellipse fill="#78584F" cx="74.29" cy="68.45" rx="0.4" ry="0.6"/>
<ellipse fill="#70625E" cx="65.21" cy="68.75" rx="0.36" ry="0.34"/>
<ellipse fill="#85655D" cx="76.24" cy="66.67" rx="0.4" ry="0.6"/>
<ellipse fill="#78584F" cx="73.94" cy="64.73" rx="0.21" ry="0.32"/>
<ellipse fill="#78584F" cx="68.42" cy="64.52" rx="0.21" ry="0.32"/>
<path opacity="0.62" fill="#EBA224" d="M69.23,64.3c-0.23-0.25-0.74-2.17-0.15-3.3c0,0-0.01-0.41,0.56,0.59
	c0.57,1-0.08-2.36,0.84-3.36c0,0,0.3,2.68,0.65,3.07c0,0,0.28,0.37,0.82-0.76c0,0,0.61,1.25,0.22,3.24
	C71.77,65.77,69.98,65.13,69.23,64.3z"/>
<ellipse fill="#334C3E" cx="47.35" cy="79.38" rx="2.97" ry="1.72"/>
<ellipse fill="#334C3E" cx="51.53" cy="75.62" rx="1.27" ry="0.73"/>
<ellipse fill="#334C3E" cx="69.88" cy="73.5" rx="1.27" ry="0.73"/>
<ellipse fill="#334C3E" cx="60.03" cy="76.52" rx="2.04" ry="1.18"/>
<ellipse fill="#334C3E" cx="62.43" cy="60.53" rx="1.27" ry="0.73"/>
<polygon fill="#5C291A" points="53.6,52.88 53.6,51.25 57.81,53.64 57.81,55.28 "/>
<polygon fill="#4C2115" points="57.81,55.28 59.92,54.08 59.92,52.45 57.81,53.64 "/>
<polygon fill="#7B3C2B" points="53.63,51.25 55.74,50.06 59.92,52.45 57.81,53.64 "/>
</svg>
