<?xml version="1.0" encoding="utf-8"?>
<!-- Generator: Adobe Illustrator 25.0.1, SVG Export Plug-In . SVG Version: 6.00 Build 0)  -->
<svg version="1.1" id="Layer_1" xmlns="http://www.w3.org/2000/svg" xmlns:xlink="http://www.w3.org/1999/xlink" x="0px" y="0px"
	 viewBox="0 0 100 100" enable-background="new 0 0 100 100" xml:space="preserve">
<g>
	<path fill="#752F18" d="M78.06,25.63L63.7,52.03l-3.66-1.99c-1.16-0.63-1.52-2.12-0.77-3.21l16.35-23.69L78.06,25.63z"/>
	<path fill="#752F18" d="M78.06,25.63L63.7,52.03l3.66,1.99c1.16,0.63,2.61,0.12,3.11-1.1l10.99-26.6L78.06,25.63z"/>
	<circle fill="none" stroke="#6B6768" stroke-width="3.2512" stroke-miterlimit="10" cx="80.44" cy="21.25" r="5.17"/>
	<path fill="#929191" d="M56.97,50.33c-3.14,5.21-13.55,23.77-17.2,45.72L63.7,52.03l-4.32-2.35C58.53,49.22,57.47,49.5,56.97,50.33
		z"/>
	<path fill="#6B6769" d="M68.7,56.71c-2.67,5.47-12.58,24.3-29.02,39.3l23.93-44.02l4.32,2.35C68.79,54.8,69.13,55.84,68.7,56.71z"
		/>
</g>
<g>
	<path fill="#752F18" d="M24.75,75.13l14.36-26.41l3.66,1.99c1.16,0.63,1.52,2.12,0.77,3.21L27.18,77.61L24.75,75.13z"/>
	<path fill="#752F18" d="M24.75,75.13l14.36-26.41l-3.66-1.99c-1.16-0.63-2.61-0.12-3.11,1.1l-10.99,26.6L24.75,75.13z"/>
	<circle fill="none" stroke="#6B6768" stroke-width="3.2512" stroke-miterlimit="10" cx="22.37" cy="79.51" r="5.17"/>
	<path fill="#6B6769" d="M45.83,50.43c3.14-5.21,13.55-23.77,17.2-45.72L39.11,48.73l4.32,2.35C44.28,51.54,45.34,51.26,45.83,50.43
		z"/>
	<path fill="#929191" d="M34.1,44.06c2.67-5.47,12.58-24.3,29.02-39.3L39.19,48.78l-4.32-2.35C34.02,45.96,33.68,44.93,34.1,44.06z"
		/>
</g>
</svg>
