<?xml version="1.0" encoding="utf-8"?>
<!-- Generator: Adobe Illustrator 25.0.1, SVG Export Plug-In . SVG Version: 6.00 Build 0)  -->
<svg version="1.1" id="Layer_1" xmlns="http://www.w3.org/2000/svg" xmlns:xlink="http://www.w3.org/1999/xlink" x="0px" y="0px"
	 viewBox="0 0 100 100" enable-background="new 0 0 100 100" xml:space="preserve">
<path fill="#846748" d="M46.86,99.15L2.98,74.46c-2-1.13-2-2.95,0-4.08l43.88-24.69c2-1.13,5.25-1.13,7.25,0l43.88,24.69
	c1.11,0.63,1.61,1.47,1.48,2.29c-0.1,0.65-0.59,1.29-1.48,1.79L54.11,99.15C52.11,100.28,48.86,100.28,46.86,99.15z"/>
<polygon fill="#846748" points="99.47,72.67 1.48,72.42 1.48,67.89 99.47,68.14 "/>
<path fill="#3A2C18" d="M46.86,94.62L2.98,69.93c-2-1.13-2-2.95,0-4.08l43.88-24.69c2-1.13,5.25-1.13,7.25,0l43.88,24.69
	c2,1.13,2,2.95,0,4.08L54.11,94.62C52.11,95.75,48.86,95.75,46.86,94.62z"/>
<path fill="#51402A" d="M47.3,91.18L8.68,69.45c-1.76-0.99-1.76-2.6,0-3.59L47.3,44.13c1.76-0.99,4.62-0.99,6.38,0L92.3,65.86
	c1.76,0.99,1.76,2.6,0,3.59L53.68,91.18C51.92,92.17,49.06,92.17,47.3,91.18z"/>
<path fill="#7F604A" d="M74.07,69.59L52.5,81.73c-0.99,0.55-2.58,0.55-3.57,0L30.17,71.16c-0.51-0.29-0.51-1.03,0-1.32l0,0
	c1.08-0.61,1.08-1.61,0-2.22l-0.28-0.16c-0.51-0.29-0.51-1.03,0-1.32l11.49-6.47c0.23-0.13,0.51-0.13,0.74,0l7.4,4.16
	c0.66,0.37,1.73,0.37,2.39,0l7.4-4.16c0.23-0.13,0.51-0.13,0.74,0l1.49,0.85c0.51,0.29,0.51,1.03,0,1.32l-1.7,0.95
	c-0.44,0.25-0.44,0.66,0,0.91l9.71,5.46c0.44,0.25,1.16,0.25,1.6,0l2.87-1.62l0.04,0.03C75.05,68.14,75.05,69.03,74.07,69.59z"/>
<g>
	<path fill="#607E8B" d="M50.49,41.72v17.86c-0.43,0-0.85-0.09-1.17-0.27l-14.22-8c-0.64-0.36-0.64-0.95,0-1.32l14.22-8
		C49.64,41.81,50.06,41.72,50.49,41.72z"/>
	<polygon fill="#486875" points="50.49,59.58 66.36,50.65 66.36,26.84 50.49,26.84 	"/>
	<polygon fill="#607E8B" points="50.49,59.58 34.62,50.65 34.62,26.84 50.49,26.84 	"/>
	<path fill="#6C9097" d="M49.32,35.49l-14.21-8c-0.65-0.37-0.65-0.96,0-1.32l14.21-8c0.65-0.37,1.7-0.37,2.35,0l14.21,8
		c0.65,0.37,0.65,0.96,0,1.32l-14.21,8C51.02,35.86,49.96,35.86,49.32,35.49z"/>
	<path fill="#415C68" d="M62.82,27.37l-0.98,0.55l-10.41,5.85c-0.26,0.15-0.6,0.23-0.94,0.23c-0.34,0-0.68-0.08-0.94-0.23
		l-10.41-5.85l-0.98-0.55c-0.52-0.3-0.52-0.77,0-1.06l11.39-6.41c0.26-0.14,0.6-0.22,0.94-0.22c0.34,0,0.68,0.08,0.94,0.22
		l11.39,6.41C63.33,26.6,63.33,27.07,62.82,27.37z"/>
	<path fill="#486875" d="M62.82,27.37l-11.39,6.4c-0.26,0.15-0.6,0.23-0.94,0.23V19.68c0.34,0,0.68,0.08,0.94,0.22l11.39,6.41
		C63.33,26.6,63.33,27.07,62.82,27.37z"/>
	<path fill="#5A7C83" d="M61.84,27.92l-10.41,5.85c-0.26,0.15-0.6,0.23-0.94,0.23c-0.34,0-0.68-0.08-0.94-0.23l-10.41-5.85
		l10.41-5.86c0.26-0.14,0.6-0.22,0.94-0.22c0.34,0,0.68,0.08,0.94,0.22L61.84,27.92z"/>
	<g>
		<polygon fill="#6C9097" points="39.94,44.87 38.23,44.15 36.11,46.57 36.11,50.91 38.96,49.69 		"/>
		<polygon fill="#6C9097" points="13.07,58.07 38.23,44.15 36.56,54.76 13.07,68.02 		"/>
		<polygon fill="#486471" points="16.45,58.07 39.94,44.87 39.94,54.04 16.45,67.31 		"/>
	</g>
	<polygon fill="#486875" points="15.98,72.22 24.94,67.17 24.94,53.73 15.98,53.73 	"/>
	<polygon fill="#6C9097" points="62.1,44.87 63.81,44.15 65.93,46.57 65.93,50.91 63.08,49.69 	"/>
	<polygon fill="#6C9097" points="77.22,51.67 63.81,44.15 65.48,54.76 77.22,61.63 	"/>
	<polygon fill="#607E8B" points="15.98,72.22 7.01,67.17 7.01,53.73 15.98,53.73 	"/>
	<path fill="#6C9097" d="M15.31,58.62L7.29,54.1c-0.37-0.21-0.37-0.54,0-0.75l8.02-4.51c0.37-0.21,0.96-0.21,1.33,0l8.02,4.51
		c0.37,0.21,0.37,0.54,0,0.75l-8.02,4.51C16.27,58.82,15.68,58.82,15.31,58.62z"/>
	<path fill="#415C68" d="M22.94,54.03l-0.55,0.31l-5.88,3.3c-0.15,0.08-0.34,0.13-0.53,0.13c-0.19,0-0.38-0.05-0.53-0.13l-5.88-3.3
		l-0.55-0.31c-0.29-0.17-0.29-0.43,0-0.6l6.43-3.62c0.15-0.08,0.34-0.12,0.53-0.12c0.19,0,0.38,0.05,0.53,0.12l6.43,3.62
		C23.23,53.59,23.23,53.86,22.94,54.03z"/>
	<path fill="#486875" d="M22.94,54.03l-6.43,3.61c-0.15,0.08-0.34,0.13-0.53,0.13v-8.09c0.19,0,0.38,0.05,0.53,0.12l6.43,3.62
		C23.23,53.59,23.23,53.86,22.94,54.03z"/>
	<path fill="#5A7C83" d="M22.38,54.34l-5.88,3.3c-0.15,0.08-0.34,0.13-0.53,0.13c-0.19,0-0.38-0.05-0.53-0.13l-5.88-3.3l5.88-3.31
		c0.15-0.08,0.34-0.12,0.53-0.12c0.19,0,0.38,0.05,0.53,0.12L22.38,54.34z"/>
	<path fill="#486875" d="M65.87,51.31l-14.21,8c-0.32,0.18-0.74,0.27-1.17,0.27V41.72c0.43,0,0.85,0.09,1.17,0.27l14.21,8
		C66.52,50.36,66.52,50.95,65.87,51.31z"/>
	<polygon fill="#607E8B" points="73.84,51.67 62.1,44.87 62.1,53.54 73.84,60.41 	"/>
	<polygon fill="#486471" points="73.17,65.89 82.13,60.85 82.13,47.4 73.17,47.4 	"/>
	<polygon fill="#607E8B" points="73.17,65.89 64.21,60.85 64.21,47.4 73.17,47.4 	"/>
	<path fill="#6C9097" d="M72.5,52.29l-8.02-4.51c-0.37-0.21-0.37-0.54,0-0.75l8.02-4.51c0.37-0.21,0.96-0.21,1.33,0l8.02,4.51
		c0.37,0.21,0.37,0.54,0,0.75l-8.02,4.51C73.46,52.5,72.87,52.5,72.5,52.29z"/>
	<path fill="#415C68" d="M80.13,47.71l-0.55,0.31l-5.88,3.3c-0.15,0.08-0.34,0.13-0.53,0.13c-0.19,0-0.38-0.05-0.53-0.13l-5.88-3.3
		l-0.55-0.31c-0.29-0.17-0.29-0.43,0-0.6l6.43-3.62c0.15-0.08,0.34-0.12,0.53-0.12c0.19,0,0.38,0.05,0.53,0.12l6.43,3.62
		C80.42,47.27,80.42,47.54,80.13,47.71z"/>
	<path fill="#486875" d="M80.13,47.71l-6.43,3.61c-0.15,0.08-0.34,0.13-0.53,0.13v-8.09c0.19,0,0.38,0.05,0.53,0.12l6.43,3.62
		C80.42,47.27,80.42,47.54,80.13,47.71z"/>
	<path fill="#5A7C83" d="M79.58,48.02l-5.88,3.3c-0.15,0.08-0.34,0.13-0.53,0.13c-0.19,0-0.38-0.05-0.53-0.13l-5.88-3.3l5.88-3.31
		c0.15-0.08,0.34-0.12,0.53-0.12c0.19,0,0.38,0.05,0.53,0.12L79.58,48.02z"/>
	<polygon fill="#6C9097" points="47.54,54.23 44.98,52.73 44.98,50.67 47.54,52.17 	"/>
	<polygon fill="#6C9097" points="45.11,49.54 42.56,48.04 42.56,45.98 45.11,47.48 	"/>
	<polygon fill="#6C9097" points="13.99,68.6 11.43,67.1 11.43,65.04 13.99,66.54 	"/>
	<polygon fill="#6C9097" points="11.56,63.91 9,62.41 9,60.36 11.56,61.86 	"/>
	<g>
		<polygon fill="#38595F" points="27.29,59.49 29.84,57.99 29.84,55.93 27.29,57.43 		"/>
		<polygon fill="#38595F" points="29.71,54.8 32.27,53.3 32.27,51.24 29.71,52.74 		"/>
	</g>
	<g>
		<polygon fill="#38595F" points="74.36,60.05 76.91,58.55 76.91,56.49 74.36,57.99 		"/>
		<polygon fill="#38595F" points="76.78,55.36 79.34,53.86 79.34,51.81 76.78,53.31 		"/>
	</g>
	<polygon fill="#415C68" points="58.42,43.38 60.98,41.88 60.98,39.82 58.42,41.32 	"/>
	<polygon fill="#415C68" points="61.92,37.55 64.48,36.05 64.48,33.99 61.92,35.49 	"/>
	<polygon fill="#415C68" points="53.69,38.7 56.25,37.19 56.25,35.14 53.69,36.64 	"/>
	<polygon fill="#6C9097" points="39.38,35.14 36.82,33.64 36.82,31.58 39.38,33.08 	"/>
	<polygon fill="#6C9097" points="44.48,38.05 41.92,36.55 41.92,34.49 44.48,36 	"/>
	<polygon fill="#6C9097" points="40.33,42.04 37.77,40.54 37.77,38.48 40.33,39.98 	"/>
	<ellipse fill="#486875" cx="46.26" cy="27.68" rx="2.11" ry="1.28"/>
	<ellipse fill="#486875" cx="50.49" cy="25.56" rx="1.28" ry="0.78"/>
</g>
<path fill="#2C1F14" d="M18.09,71.1v-7.17c0-0.84,0.46-1.6,1.19-2l2.05-1.12c0.67-0.37,1.5,0.12,1.5,0.89v6.79L18.09,71.1z"/>
<path fill="#2C1F14" d="M53.69,58.1v-7.17c0-0.84,0.46-1.6,1.19-2l2.05-1.12c0.67-0.37,1.5,0.12,1.5,0.89v6.79L53.69,58.1z"/>
<path fill="#2C1F14" d="M66.32,62.18v-6.79c0-0.77,0.83-1.26,1.5-0.89l2.05,1.12c0.73,0.4,1.19,1.16,1.19,2v7.17L66.32,62.18z"/>
<path fill="#EF4748" d="M62.4,17.66c0,0,3.06-2.49,6.79-1.48s5.45,4.5,11.72,3.78c0,0-6.78,1.83-11.43-0.13
	c-4.71-1.98-7.08,2.04-7.08,2.04V17.66z"/>
<line fill="none" stroke="#4A4846" stroke-width="1.5" stroke-linecap="round" stroke-miterlimit="10" x1="62.4" y1="26.84" x2="62.4" y2="16.96"/>
<g>
	<polygon fill="#734B30" points="78.73,64.48 79.82,63.84 79.82,56.5 78.73,57.14 	"/>
	<polygon fill="#B68767" points="77.65,56.5 78.73,55.94 79.82,56.5 78.73,57.14 	"/>
	<polygon fill="#966746" points="78.73,64.48 77.65,63.84 77.65,56.5 78.73,57.14 	"/>
	<g>
		<polygon fill="#966746" points="80.34,65.39 79.26,64.75 79.26,57.41 80.34,58.05 		"/>
		<polygon fill="#734B30" points="80.34,65.39 81.43,64.75 81.43,57.41 80.34,58.05 		"/>
		<polygon fill="#B68767" points="79.26,57.41 80.34,56.85 81.43,57.41 80.34,58.05 		"/>
	</g>
	<g>
		<polygon fill="#966746" points="81.96,66.31 80.87,65.67 80.87,58.33 81.96,58.97 		"/>
		<polygon fill="#734B30" points="81.96,66.31 83.04,65.67 83.04,58.33 81.96,58.97 		"/>
		<polygon fill="#B68767" points="80.87,58.33 81.96,57.77 83.04,58.33 81.96,58.97 		"/>
	</g>
	<g>
		<polygon fill="#966746" points="83.57,67.22 82.48,66.58 82.48,59.24 83.57,59.88 		"/>
		<polygon fill="#734B30" points="83.57,67.22 84.65,66.58 84.65,59.24 83.57,59.88 		"/>
		<polygon fill="#B68767" points="82.48,59.24 83.57,58.68 84.65,59.24 83.57,59.88 		"/>
	</g>
	<g>
		<polygon fill="#966746" points="85.18,68.14 84.1,67.5 84.1,60.16 85.18,60.8 		"/>
		<polygon fill="#734B30" points="85.18,68.14 86.27,67.5 86.27,60.16 85.18,60.8 		"/>
		<polygon fill="#B68767" points="84.1,60.16 85.18,59.6 86.27,60.16 85.18,60.8 		"/>
	</g>
	<g>
		<polygon fill="#966746" points="86.79,69.05 85.71,68.41 85.71,61.07 86.79,61.71 		"/>
		<polygon fill="#734B30" points="86.79,69.05 87.88,68.41 87.88,61.07 86.79,61.71 		"/>
		<polygon fill="#B68767" points="85.71,61.07 86.79,60.51 87.88,61.07 86.79,61.71 		"/>
	</g>
	<g>
		<polygon fill="#966746" points="88.41,69.97 87.32,69.33 87.32,61.99 88.41,62.63 		"/>
		<polygon fill="#734B30" points="88.41,69.97 89.49,69.33 89.49,61.99 88.41,62.63 		"/>
		<polygon fill="#B68767" points="87.32,61.99 88.41,61.43 89.49,61.99 88.41,62.63 		"/>
	</g>
	<g>
		<polygon fill="#966746" points="90.35,71.48 88.95,70.66 88.95,61.2 90.35,62.02 		"/>
		<polygon fill="#734B30" points="90.35,71.48 91.74,70.66 91.74,61.2 90.35,62.02 		"/>
		<polygon fill="#B68767" points="88.95,61.2 90.35,60.48 91.74,61.2 90.35,62.02 		"/>
	</g>
	<g>
		<polygon fill="#734B30" points="88.46,72.25 89.55,71.61 89.55,64.27 88.46,64.91 		"/>
		<polygon fill="#966746" points="88.46,72.25 87.38,71.61 87.38,64.27 88.46,64.91 		"/>
		<polygon fill="#B68767" points="89.55,64.27 88.46,63.71 87.38,64.27 88.46,64.91 		"/>
	</g>
	<g>
		<polygon fill="#734B30" points="86.85,73.16 87.94,72.53 87.94,65.19 86.85,65.82 		"/>
		<polygon fill="#966746" points="86.85,73.16 85.77,72.53 85.77,65.19 86.85,65.82 		"/>
		<polygon fill="#B68767" points="87.94,65.19 86.85,64.62 85.77,65.19 86.85,65.82 		"/>
	</g>
	<g>
		<polygon fill="#734B30" points="85.24,74.08 86.32,73.44 86.32,66.1 85.24,66.74 		"/>
		<polygon fill="#966746" points="85.24,74.08 84.15,73.44 84.15,66.1 85.24,66.74 		"/>
		<polygon fill="#B68767" points="86.32,66.1 85.24,65.54 84.15,66.1 85.24,66.74 		"/>
	</g>
	<g>
		<polygon fill="#734B30" points="83.63,74.99 84.71,74.36 84.71,67.01 83.63,67.65 		"/>
		<polygon fill="#966746" points="83.63,74.99 82.54,74.36 82.54,67.01 83.63,67.65 		"/>
		<polygon fill="#B68767" points="84.71,67.01 83.63,66.45 82.54,67.01 83.63,67.65 		"/>
	</g>
	<g>
		<polygon fill="#734B30" points="82.01,75.91 83.1,75.27 83.1,67.93 82.01,68.57 		"/>
		<polygon fill="#966746" points="82.01,75.91 80.93,75.27 80.93,67.93 82.01,68.57 		"/>
		<polygon fill="#B68767" points="83.1,67.93 82.01,67.37 80.93,67.93 82.01,68.57 		"/>
	</g>
	<g>
		<polygon fill="#734B30" points="80.4,76.82 81.49,76.19 81.49,68.84 80.4,69.48 		"/>
		<polygon fill="#966746" points="80.4,76.82 79.32,76.19 79.32,68.84 80.4,69.48 		"/>
		<polygon fill="#B68767" points="81.49,68.84 80.4,68.28 79.32,68.84 80.4,69.48 		"/>
	</g>
	<g>
		<polygon fill="#734B30" points="78.79,77.74 79.87,77.1 79.87,69.76 78.79,70.4 		"/>
		<polygon fill="#966746" points="78.79,77.74 77.7,77.1 77.7,69.76 78.79,70.4 		"/>
		<polygon fill="#B68767" points="79.87,69.76 78.79,69.2 77.7,69.76 78.79,70.4 		"/>
	</g>
	<g>
		<polygon fill="#734B30" points="76.85,79.25 78.25,78.43 78.25,68.97 76.85,69.79 		"/>
		<polygon fill="#966746" points="76.85,79.25 75.45,78.43 75.45,68.97 76.85,69.79 		"/>
		<polygon fill="#B68767" points="78.25,68.97 76.85,68.25 75.45,68.97 76.85,69.79 		"/>
	</g>
</g>
<ellipse fill="#6E503B" cx="35.61" cy="69.56" rx="1.96" ry="1.19"/>
<ellipse fill="#6E503B" cx="61.26" cy="71.25" rx="1.96" ry="1.19"/>
<ellipse fill="#382C20" cx="65.19" cy="80.37" rx="1.96" ry="1.19"/>
<ellipse fill="#382C20" cx="25.65" cy="74.99" rx="1.96" ry="1.19"/>
<g>
	<ellipse fill="#5A2011" cx="32.53" cy="75.81" rx="2.43" ry="1.47"/>
	<path fill="#6E301D" d="M32.53,73.8v2.95c-1.34,0-2.43-0.66-2.43-1.47C30.09,74.46,31.18,73.8,32.53,73.8z"/>
	<path fill="#6E301D" d="M30.09,75.81c0,0-1.89-2.84,0-5.95h2.43v5.95H30.09z"/>
	<path fill="#5E2718" d="M34.96,75.81c0,0,1.89-2.84,0-5.95h-2.43v5.95H34.96z"/>
	<ellipse fill="#8D4430" cx="32.53" cy="69.86" rx="2.43" ry="1.47"/>
	<ellipse fill="#6E301D" cx="32.53" cy="69.86" rx="1.98" ry="1.2"/>
	<path fill="#5E2718" d="M34.96,75.27c0,0.81-1.09,1.47-2.43,1.47V73.8C33.87,73.8,34.96,74.46,34.96,75.27z"/>
</g>
<ellipse fill="#6E503B" cx="46.66" cy="67.68" rx="2.95" ry="1.79"/>
<ellipse fill="#6E503B" cx="36.81" cy="66.39" rx="1.2" ry="0.73"/>
<ellipse fill="#6E503B" cx="56.53" cy="64.44" rx="1.2" ry="0.73"/>
<ellipse fill="#6E503B" cx="53" cy="76.37" rx="1.2" ry="0.73"/>
<ellipse fill="#6E503B" cx="50.15" cy="74.82" rx="0.6" ry="0.36"/>
<g>
	<ellipse fill="#5A2011" cx="39.49" cy="57.04" rx="2.43" ry="1.47"/>
	<path fill="#6E301D" d="M39.49,55.03v2.95c-1.34,0-2.43-0.66-2.43-1.47C37.06,55.69,38.15,55.03,39.49,55.03z"/>
	<path fill="#6E301D" d="M37.06,57.04c0,0-1.89-2.84,0-5.95h2.43v5.95H37.06z"/>
	<path fill="#5E2718" d="M41.92,57.04c0,0,1.89-2.84,0-5.95h-2.43v5.95H41.92z"/>
	<ellipse fill="#8D4430" cx="39.49" cy="51.08" rx="2.43" ry="1.47"/>
	<ellipse fill="#6E301D" cx="39.49" cy="51.08" rx="1.98" ry="1.2"/>
	<path fill="#5E2718" d="M41.92,56.5c0,0.81-1.09,1.47-2.43,1.47v-2.95C40.83,55.03,41.92,55.69,41.92,56.5z"/>
</g>
<g>
	<ellipse fill="#5A2011" cx="34.16" cy="60.19" rx="2.43" ry="1.47"/>
	<path fill="#6E301D" d="M34.16,58.19v2.95c-1.34,0-2.43-0.66-2.43-1.47S32.82,58.19,34.16,58.19z"/>
	<path fill="#6E301D" d="M31.73,60.19c0,0-1.89-2.84,0-5.95h2.43v5.95H31.73z"/>
	<path fill="#5E2718" d="M36.59,60.19c0,0,1.89-2.84,0-5.95h-2.43v5.95H36.59z"/>
	<ellipse fill="#8D4430" cx="34.16" cy="54.24" rx="2.43" ry="1.47"/>
	<ellipse fill="#6E301D" cx="34.16" cy="54.24" rx="1.98" ry="1.2"/>
	<path fill="#5E2718" d="M36.59,59.66c0,0.81-1.09,1.47-2.43,1.47v-2.95C35.5,58.19,36.59,58.85,36.59,59.66z"/>
</g>
<polygon fill="#6E301D" points="33.73,79.36 33.73,75.12 44.73,81.36 44.73,85.62 "/>
<polygon fill="#5E2718" points="44.73,85.62 50.23,82.5 50.23,78.24 44.73,81.36 "/>
<polygon fill="#8D4430" points="33.82,75.12 39.32,72 50.23,78.24 44.73,81.36 "/>
<path fill="#846748" d="M-63.29,99.15l-43.88-24.69c-2-1.13-2-2.95,0-4.08l43.88-24.69c2-1.13,5.25-1.13,7.25,0l43.88,24.69
	c1.11,0.63,1.61,1.47,1.48,2.29c-0.1,0.65-0.59,1.29-1.48,1.79l-43.88,24.69C-58.04,100.28-61.29,100.28-63.29,99.15z"/>
<polygon fill="#846748" points="-10.68,72.67 -108.67,72.42 -108.67,67.89 -10.68,68.14 "/>
<path fill="#3A2C18" d="M-63.29,94.62l-43.88-24.69c-2-1.13-2-2.95,0-4.08l43.88-24.69c2-1.13,5.25-1.13,7.25,0l43.88,24.69
	c2,1.13,2,2.95,0,4.08l-43.88,24.69C-58.04,95.75-61.29,95.75-63.29,94.62z"/>
<path fill="#594432" d="M-62.66,90.01l-36.32-20.43c-1.66-0.94-1.66-2.44,0-3.38l36.32-20.43c1.66-0.94,4.34-0.94,6,0l36.32,20.43
	c1.66,0.94,1.66,2.44,0,3.38l-36.32,20.43C-58.32,90.95-61.01,90.95-62.66,90.01z"/>
<path fill="#7F604A" d="M-36.09,69.59l-21.57,12.14c-0.99,0.55-2.58,0.55-3.57,0l-18.76-10.56c-0.51-0.29-0.51-1.03,0-1.32l0,0
	c1.08-0.61,1.08-1.61,0-2.22l-0.28-0.16c-0.51-0.29-0.51-1.03,0-1.32l11.49-6.47c0.23-0.13,0.51-0.13,0.74,0l7.4,4.16
	c0.66,0.37,1.73,0.37,2.39,0l7.4-4.16c0.23-0.13,0.51-0.13,0.74,0l1.49,0.85c0.51,0.29,0.51,1.03,0,1.32l-1.7,0.95
	c-0.44,0.25-0.44,0.66,0,0.91l9.71,5.46c0.44,0.25,1.16,0.25,1.6,0l2.87-1.62l0.04,0.03C-35.1,68.14-35.1,69.03-36.09,69.59z"/>
<path fill="#5B5958" d="M-59.66,41.72v17.86c-0.43,0-0.85-0.09-1.17-0.27l-14.22-8c-0.64-0.36-0.64-0.95,0-1.32l14.22-8
	C-60.51,41.81-60.09,41.72-59.66,41.72z"/>
<polygon fill="#4A4846" points="-59.66,59.58 -43.79,50.65 -43.79,26.84 -59.66,26.84 "/>
<polygon fill="#5B5958" points="-59.66,59.58 -75.53,50.65 -75.53,26.84 -59.66,26.84 "/>
<path fill="#827F7C" d="M-60.84,35.49l-14.21-8c-0.65-0.37-0.65-0.96,0-1.32l14.21-8c0.65-0.37,1.7-0.37,2.35,0l14.21,8
	c0.65,0.37,0.65,0.96,0,1.32l-14.21,8C-59.14,35.86-60.19,35.86-60.84,35.49z"/>
<path fill="#33312F" d="M-47.33,27.37l-0.98,0.55l-10.41,5.85c-0.26,0.15-0.6,0.23-0.94,0.23c-0.34,0-0.68-0.08-0.94-0.23
	l-10.41-5.85l-0.98-0.55c-0.52-0.3-0.52-0.77,0-1.06l11.39-6.41c0.26-0.14,0.6-0.22,0.94-0.22c0.34,0,0.68,0.08,0.94,0.22
	l11.39,6.41C-46.82,26.6-46.82,27.07-47.33,27.37z"/>
<path fill="#4A4846" d="M-47.33,27.37l-11.39,6.4c-0.26,0.15-0.6,0.23-0.94,0.23V19.68c0.34,0,0.68,0.08,0.94,0.22l11.39,6.41
	C-46.82,26.6-46.82,27.07-47.33,27.37z"/>
<path fill="#5B5958" d="M-48.31,27.92l-10.41,5.85c-0.26,0.15-0.6,0.23-0.94,0.23c-0.34,0-0.68-0.08-0.94-0.23l-10.41-5.85
	l10.41-5.86c0.26-0.14,0.6-0.22,0.94-0.22c0.34,0,0.68,0.08,0.94,0.22L-48.31,27.92z"/>
<g>
	<polygon fill="#827F7C" points="-70.21,44.87 -71.92,44.15 -74.05,46.57 -74.05,50.91 -71.19,49.69 	"/>
	<polygon fill="#827F7C" points="-97.08,58.07 -71.92,44.15 -73.59,54.76 -97.08,68.02 	"/>
	<polygon fill="#3A3735" points="-93.7,58.07 -70.21,44.87 -70.21,54.04 -93.7,67.31 	"/>
</g>
<polygon fill="#4A4846" points="-94.18,72.22 -85.22,67.17 -85.22,53.73 -94.18,53.73 "/>
<polygon fill="#827F7C" points="-48.05,44.87 -46.35,44.15 -44.22,46.57 -44.22,50.91 -47.07,49.69 "/>
<polygon fill="#827F7C" points="-32.93,51.67 -46.35,44.15 -44.67,54.76 -32.93,61.63 "/>
<polygon fill="#5B5958" points="-94.18,72.22 -103.14,67.17 -103.14,53.73 -94.18,53.73 "/>
<path fill="#827F7C" d="M-94.84,58.62l-8.02-4.51c-0.37-0.21-0.37-0.54,0-0.75l8.02-4.51c0.37-0.21,0.96-0.21,1.33,0l8.02,4.51
	c0.37,0.21,0.37,0.54,0,0.75l-8.02,4.51C-93.88,58.82-94.47,58.82-94.84,58.62z"/>
<path fill="#33312F" d="M-87.21,54.03l-0.55,0.31l-5.88,3.3c-0.15,0.08-0.34,0.13-0.53,0.13c-0.19,0-0.38-0.05-0.53-0.13l-5.88-3.3
	l-0.55-0.31c-0.29-0.17-0.29-0.43,0-0.6l6.43-3.62c0.15-0.08,0.34-0.12,0.53-0.12c0.19,0,0.38,0.05,0.53,0.12l6.43,3.62
	C-86.93,53.59-86.93,53.86-87.21,54.03z"/>
<path fill="#4A4846" d="M-87.21,54.03l-6.43,3.61c-0.15,0.08-0.34,0.13-0.53,0.13v-8.09c0.19,0,0.38,0.05,0.53,0.12l6.43,3.62
	C-86.93,53.59-86.93,53.86-87.21,54.03z"/>
<path fill="#5B5958" d="M-87.77,54.34l-5.88,3.3c-0.15,0.08-0.34,0.13-0.53,0.13c-0.19,0-0.38-0.05-0.53-0.13l-5.88-3.3l5.88-3.31
	c0.15-0.08,0.34-0.12,0.53-0.12c0.19,0,0.38,0.05,0.53,0.12L-87.77,54.34z"/>
<path fill="#4A4846" d="M-44.28,51.31l-14.21,8c-0.32,0.18-0.74,0.27-1.17,0.27V41.72c0.43,0,0.85,0.09,1.17,0.27l14.21,8
	C-43.63,50.36-43.63,50.95-44.28,51.31z"/>
<polygon fill="#504D4C" points="-36.31,51.67 -48.05,44.87 -48.05,53.54 -36.31,60.41 "/>
<polygon fill="#4A4846" points="-36.99,65.89 -28.02,60.85 -28.02,47.4 -36.99,47.4 "/>
<g>
	<ellipse fill="#5A2011" cx="-47.42" cy="56.51" rx="1.87" ry="1.13"/>
	<path fill="#6E301D" d="M-47.42,54.97v2.26c-1.03,0-1.87-0.51-1.87-1.13S-48.45,54.97-47.42,54.97z"/>
	<path fill="#6E301D" d="M-49.28,56.51c0,0-1.45-2.18,0-4.57h1.87v4.57H-49.28z"/>
	<path fill="#5E2718" d="M-45.55,56.51c0,0,1.45-2.18,0-4.57h-1.87v4.57H-45.55z"/>
	<ellipse fill="#8D4430" cx="-47.42" cy="51.94" rx="1.87" ry="1.13"/>
	<ellipse fill="#6E301D" cx="-47.42" cy="51.94" rx="1.52" ry="0.92"/>
	<path fill="#5E2718" d="M-45.55,56.1c0,0.62-0.84,1.13-1.87,1.13v-2.26C-46.39,54.97-45.55,55.48-45.55,56.1z"/>
</g>
<polygon fill="#5B5958" points="-36.99,65.89 -45.95,60.85 -45.95,47.4 -36.99,47.4 "/>
<path fill="#827F7C" d="M-37.65,52.29l-8.02-4.51c-0.37-0.21-0.37-0.54,0-0.75l8.02-4.51c0.37-0.21,0.96-0.21,1.33,0l8.02,4.51
	c0.37,0.21,0.37,0.54,0,0.75l-8.02,4.51C-36.69,52.5-37.28,52.5-37.65,52.29z"/>
<path fill="#33312F" d="M-30.02,47.71l-0.55,0.31l-5.88,3.3c-0.15,0.08-0.34,0.13-0.53,0.13c-0.19,0-0.38-0.05-0.53-0.13l-5.88-3.3
	l-0.55-0.31c-0.29-0.17-0.29-0.43,0-0.6l6.43-3.62c0.15-0.08,0.34-0.12,0.53-0.12c0.19,0,0.38,0.05,0.53,0.12l6.43,3.62
	C-29.74,47.27-29.74,47.54-30.02,47.71z"/>
<path fill="#4A4846" d="M-30.02,47.71l-6.43,3.61c-0.15,0.08-0.34,0.13-0.53,0.13v-8.09c0.19,0,0.38,0.05,0.53,0.12l6.43,3.62
	C-29.74,47.27-29.74,47.54-30.02,47.71z"/>
<path fill="#5B5958" d="M-30.58,48.02l-5.88,3.3c-0.15,0.08-0.34,0.13-0.53,0.13c-0.19,0-0.38-0.05-0.53-0.13l-5.88-3.3l5.88-3.31
	c0.15-0.08,0.34-0.12,0.53-0.12c0.19,0,0.38,0.05,0.53,0.12L-30.58,48.02z"/>
<path fill="#2C1F14" d="M-92.06,71.1v-7.17c0-0.84,0.46-1.6,1.19-2l2.05-1.12c0.67-0.37,1.5,0.12,1.5,0.89v6.79L-92.06,71.1z"/>
<path fill="#2C1F14" d="M-56.46,58.1v-7.17c0-0.84,0.46-1.6,1.19-2l2.05-1.12c0.67-0.37,1.5,0.12,1.5,0.89v6.79L-56.46,58.1z"/>
<path fill="#2C1F14" d="M-43.83,62.18v-6.79c0-0.77,0.83-1.26,1.5-0.89l2.05,1.12c0.73,0.4,1.19,1.16,1.19,2v7.17L-43.83,62.18z"/>
<path fill="#EF4748" d="M-47.75,17.66c0,0,3.06-2.49,6.79-1.48s5.45,4.5,11.72,3.78c0,0-6.78,1.83-11.43-0.13
	c-4.71-1.98-7.08,2.04-7.08,2.04V17.66z"/>
<line fill="none" stroke="#4A4846" stroke-width="1.5" stroke-linecap="round" stroke-miterlimit="10" x1="-47.75" y1="26.84" x2="-47.75" y2="16.96"/>
<polygon fill="#686460" points="-62.61,54.23 -65.17,52.73 -65.17,50.67 -62.61,52.17 "/>
<polygon fill="#686460" points="-65.04,49.54 -67.6,48.04 -67.6,45.98 -65.04,47.48 "/>
<polygon fill="#686460" points="-96.17,68.6 -98.72,67.1 -98.72,65.04 -96.17,66.54 "/>
<polygon fill="#686460" points="-98.59,63.91 -101.15,62.41 -101.15,60.36 -98.59,61.86 "/>
<g>
	<polygon fill="#2D2A28" points="-82.87,59.49 -80.31,57.99 -80.31,55.93 -82.87,57.43 	"/>
	<polygon fill="#2D2A28" points="-80.44,54.8 -77.88,53.3 -77.88,51.24 -80.44,52.74 	"/>
</g>
<g>
	<polygon fill="#3A3735" points="-35.8,60.05 -33.24,58.55 -33.24,56.49 -35.8,57.99 	"/>
	<polygon fill="#3A3735" points="-33.37,55.36 -30.81,53.86 -30.81,51.81 -33.37,53.31 	"/>
</g>
<polygon fill="#3A3735" points="-51.73,43.38 -49.17,41.88 -49.17,39.82 -51.73,41.32 "/>
<polygon fill="#3A3735" points="-48.23,37.55 -45.67,36.05 -45.67,33.99 -48.23,35.49 "/>
<polygon fill="#3A3735" points="-56.46,38.7 -53.9,37.19 -53.9,35.14 -56.46,36.64 "/>
<polygon fill="#686460" points="-70.77,35.14 -73.33,33.64 -73.33,31.58 -70.77,33.08 "/>
<polygon fill="#686460" points="-65.67,38.05 -68.23,36.55 -68.23,34.49 -65.67,36 "/>
<polygon fill="#686460" points="-69.82,42.04 -72.38,40.54 -72.38,38.48 -69.82,39.98 "/>
<g>
	<polygon fill="#734B30" points="-31.42,64.48 -30.33,63.84 -30.33,56.5 -31.42,57.14 	"/>
	<polygon fill="#B68767" points="-32.51,56.5 -31.42,55.94 -30.33,56.5 -31.42,57.14 	"/>
	<polygon fill="#966746" points="-31.42,64.48 -32.51,63.84 -32.51,56.5 -31.42,57.14 	"/>
	<g>
		<polygon fill="#966746" points="-29.81,65.39 -30.89,64.75 -30.89,57.41 -29.81,58.05 		"/>
		<polygon fill="#734B30" points="-29.81,65.39 -28.72,64.75 -28.72,57.41 -29.81,58.05 		"/>
		<polygon fill="#B68767" points="-30.89,57.41 -29.81,56.85 -28.72,57.41 -29.81,58.05 		"/>
	</g>
	<g>
		<polygon fill="#966746" points="-28.19,66.31 -29.28,65.67 -29.28,58.33 -28.19,58.97 		"/>
		<polygon fill="#734B30" points="-28.19,66.31 -27.11,65.67 -27.11,58.33 -28.19,58.97 		"/>
		<polygon fill="#B68767" points="-29.28,58.33 -28.19,57.77 -27.11,58.33 -28.19,58.97 		"/>
	</g>
	<g>
		<polygon fill="#966746" points="-26.58,67.22 -27.67,66.58 -27.67,59.24 -26.58,59.88 		"/>
		<polygon fill="#734B30" points="-26.58,67.22 -25.5,66.58 -25.5,59.24 -26.58,59.88 		"/>
		<polygon fill="#B68767" points="-27.67,59.24 -26.58,58.68 -25.5,59.24 -26.58,59.88 		"/>
	</g>
	<g>
		<polygon fill="#966746" points="-24.97,68.14 -26.06,67.5 -26.06,60.16 -24.97,60.8 		"/>
		<polygon fill="#734B30" points="-24.97,68.14 -23.88,67.5 -23.88,60.16 -24.97,60.8 		"/>
		<polygon fill="#B68767" points="-26.06,60.16 -24.97,59.6 -23.88,60.16 -24.97,60.8 		"/>
	</g>
	<g>
		<polygon fill="#966746" points="-23.36,69.05 -24.44,68.41 -24.44,61.07 -23.36,61.71 		"/>
		<polygon fill="#734B30" points="-23.36,69.05 -22.27,68.41 -22.27,61.07 -23.36,61.71 		"/>
		<polygon fill="#B68767" points="-24.44,61.07 -23.36,60.51 -22.27,61.07 -23.36,61.71 		"/>
	</g>
	<g>
		<polygon fill="#966746" points="-21.75,69.97 -22.83,69.33 -22.83,61.99 -21.75,62.63 		"/>
		<polygon fill="#734B30" points="-21.75,69.97 -20.66,69.33 -20.66,61.99 -21.75,62.63 		"/>
		<polygon fill="#B68767" points="-22.83,61.99 -21.75,61.43 -20.66,61.99 -21.75,62.63 		"/>
	</g>
	<g>
		<polygon fill="#966746" points="-19.8,71.48 -21.2,70.66 -21.2,61.2 -19.8,62.02 		"/>
		<polygon fill="#734B30" points="-19.8,71.48 -18.41,70.66 -18.41,61.2 -19.8,62.02 		"/>
		<polygon fill="#B68767" points="-21.2,61.2 -19.8,60.48 -18.41,61.2 -19.8,62.02 		"/>
	</g>
	<g>
		<polygon fill="#734B30" points="-21.69,72.25 -20.6,71.61 -20.6,64.27 -21.69,64.91 		"/>
		<polygon fill="#966746" points="-21.69,72.25 -22.77,71.61 -22.77,64.27 -21.69,64.91 		"/>
		<polygon fill="#B68767" points="-20.6,64.27 -21.69,63.71 -22.77,64.27 -21.69,64.91 		"/>
	</g>
	<g>
		<polygon fill="#734B30" points="-23.3,73.16 -22.22,72.53 -22.22,65.19 -23.3,65.82 		"/>
		<polygon fill="#966746" points="-23.3,73.16 -24.39,72.53 -24.39,65.19 -23.3,65.82 		"/>
		<polygon fill="#B68767" points="-22.22,65.19 -23.3,64.62 -24.39,65.19 -23.3,65.82 		"/>
	</g>
	<g>
		<polygon fill="#734B30" points="-24.91,74.08 -23.83,73.44 -23.83,66.1 -24.91,66.74 		"/>
		<polygon fill="#966746" points="-24.91,74.08 -26,73.44 -26,66.1 -24.91,66.74 		"/>
		<polygon fill="#B68767" points="-23.83,66.1 -24.91,65.54 -26,66.1 -24.91,66.74 		"/>
	</g>
	<g>
		<polygon fill="#734B30" points="-26.53,74.99 -25.44,74.36 -25.44,67.01 -26.53,67.65 		"/>
		<polygon fill="#966746" points="-26.53,74.99 -27.61,74.36 -27.61,67.01 -26.53,67.65 		"/>
		<polygon fill="#B68767" points="-25.44,67.01 -26.53,66.45 -27.61,67.01 -26.53,67.65 		"/>
	</g>
	<g>
		<polygon fill="#734B30" points="-28.14,75.91 -27.05,75.27 -27.05,67.93 -28.14,68.57 		"/>
		<polygon fill="#966746" points="-28.14,75.91 -29.22,75.27 -29.22,67.93 -28.14,68.57 		"/>
		<polygon fill="#B68767" points="-27.05,67.93 -28.14,67.37 -29.22,67.93 -28.14,68.57 		"/>
	</g>
	<g>
		<polygon fill="#734B30" points="-29.75,76.82 -28.67,76.19 -28.67,68.84 -29.75,69.48 		"/>
		<polygon fill="#966746" points="-29.75,76.82 -30.84,76.19 -30.84,68.84 -29.75,69.48 		"/>
		<polygon fill="#B68767" points="-28.67,68.84 -29.75,68.28 -30.84,68.84 -29.75,69.48 		"/>
	</g>
	<g>
		<polygon fill="#734B30" points="-31.36,77.74 -30.28,77.1 -30.28,69.76 -31.36,70.4 		"/>
		<polygon fill="#966746" points="-31.36,77.74 -32.45,77.1 -32.45,69.76 -31.36,70.4 		"/>
		<polygon fill="#B68767" points="-30.28,69.76 -31.36,69.2 -32.45,69.76 -31.36,70.4 		"/>
	</g>
	<g>
		<polygon fill="#734B30" points="-33.3,79.25 -31.91,78.43 -31.91,68.97 -33.3,69.79 		"/>
		<polygon fill="#966746" points="-33.3,79.25 -34.7,78.43 -34.7,68.97 -33.3,69.79 		"/>
		<polygon fill="#B68767" points="-31.91,68.97 -33.3,68.25 -34.7,68.97 -33.3,69.79 		"/>
	</g>
</g>
<ellipse fill="#4A4846" cx="-63.89" cy="27.68" rx="2.11" ry="1.28"/>
<ellipse fill="#4A4846" cx="-59.66" cy="25.56" rx="1.28" ry="0.78"/>
<ellipse fill="#6E503B" cx="-74.54" cy="69.56" rx="1.96" ry="1.19"/>
<ellipse fill="#6E503B" cx="-48.89" cy="71.25" rx="1.96" ry="1.19"/>
<ellipse fill="#6E503B" cx="-63.49" cy="67.68" rx="2.95" ry="1.79"/>
<ellipse fill="#6E503B" cx="-73.35" cy="66.39" rx="1.2" ry="0.73"/>
<ellipse fill="#6E503B" cx="-53.62" cy="64.44" rx="1.2" ry="0.73"/>
<ellipse fill="#6E503B" cx="-57.16" cy="76.37" rx="1.2" ry="0.73"/>
<ellipse fill="#6E503B" cx="-60.01" cy="74.82" rx="0.6" ry="0.36"/>
<g>
	<ellipse fill="#5A2011" cx="-71.1" cy="56.51" rx="1.87" ry="1.13"/>
	<path fill="#6E301D" d="M-71.1,54.97v2.26c-1.03,0-1.87-0.51-1.87-1.13S-72.13,54.97-71.1,54.97z"/>
	<path fill="#6E301D" d="M-72.97,56.51c0,0-1.45-2.18,0-4.57h1.87v4.57H-72.97z"/>
	<path fill="#5E2718" d="M-69.24,56.51c0,0,1.45-2.18,0-4.57h-1.87v4.57H-69.24z"/>
	<ellipse fill="#8D4430" cx="-71.1" cy="51.94" rx="1.87" ry="1.13"/>
	<ellipse fill="#6E301D" cx="-71.1" cy="51.94" rx="1.52" ry="0.92"/>
	<path fill="#5E2718" d="M-69.24,56.1c0,0.62-0.84,1.13-1.87,1.13v-2.26C-70.07,54.97-69.24,55.48-69.24,56.1z"/>
</g>
<g>
	<ellipse fill="#5A2011" cx="-75.19" cy="58.93" rx="1.87" ry="1.13"/>
	<path fill="#6E301D" d="M-75.19,57.39v2.26c-1.03,0-1.87-0.51-1.87-1.13S-76.22,57.39-75.19,57.39z"/>
	<path fill="#6E301D" d="M-77.06,58.93c0,0-1.45-2.18,0-4.57h1.87v4.57H-77.06z"/>
	<path fill="#5E2718" d="M-73.33,58.93c0,0,1.45-2.18,0-4.57h-1.87v4.57H-73.33z"/>
	<ellipse fill="#8D4430" cx="-75.19" cy="54.36" rx="1.87" ry="1.13"/>
	<ellipse fill="#6E301D" cx="-75.19" cy="54.36" rx="1.52" ry="0.92"/>
	<path fill="#5E2718" d="M-73.33,58.52c0,0.62-0.84,1.13-1.87,1.13v-2.26C-74.16,57.39-73.33,57.9-73.33,58.52z"/>
</g>
<polygon fill="#6E301D" points="-76.43,79.36 -76.43,75.12 -65.43,81.36 -65.43,85.62 "/>
<polygon fill="#5E2718" points="-65.43,85.62 -59.92,82.5 -59.92,78.24 -65.43,81.36 "/>
<polygon fill="#8D4430" points="-76.33,75.12 -70.83,72 -59.92,78.24 -65.43,81.36 "/>
<path fill="#2C1F14" d="M43.46,39.03l3.87,2.15c0.14,0.08,0.22,0.22,0.22,0.38v3.5c0,0.33-0.36,0.54-0.65,0.37l-3.87-2.28
	c-0.13-0.08-0.21-0.22-0.21-0.37v-3.36C42.82,39.08,43.17,38.87,43.46,39.03z"/>
<ellipse fill="#382C20" cx="56.85" cy="84" rx="3.08" ry="1.85"/>
</svg>
