<?xml version="1.0" encoding="utf-8"?>
<!-- Generator: Adobe Illustrator 25.0.1, SVG Export Plug-In . SVG Version: 6.00 Build 0)  -->
<svg version="1.1" id="Layer_1" xmlns="http://www.w3.org/2000/svg" xmlns:xlink="http://www.w3.org/1999/xlink" x="0px" y="0px"
	 viewBox="0 0 100 100" enable-background="new 0 0 100 100" xml:space="preserve">
<path fill="#7D6897" d="M33.23,51.88c0,0-12.99,6.07-21.86,7.34c0,0-10.05,20.71-8.77,29.68c0,0,9.46-14.91,16.61-12.17
	c0,0,2.61-7.69,12.36-6.71c0,0-4-12.9,3.26-15.95"/>
<path fill="#7D6897" d="M54.75,42.79c0,0,9.67-10.58,13.53-18.67c0,0,22.76-3.4,30.94,0.5c0,0-17.06,4.58-16.57,12.22
	c0,0-8.12,0.2-10.1,9.79c0,0-11.12-7.67-16.19-1.65"/>
<ellipse transform="matrix(0.9445 -0.3284 0.3284 0.9445 -13.4027 17.1401)" fill="#9278AB" cx="44.04" cy="48.25" rx="13.66" ry="10.06"/>
<polygon fill="#9278AB" points="31.71,48.78 24.56,38.94 36.77,41.4 "/>
<polygon fill="#D2AED2" points="31.42,46.17 28.11,41.61 33.77,42.75 "/>
<polygon fill="#9278AB" points="54.75,40.76 54.25,28.62 46.2,38.12 "/>
<polygon fill="#D2AED2" points="53.35,38.54 53.12,32.91 49.39,37.32 "/>
<path fill="#E2E0D3" d="M41.93,47.44l0.24,7.02l0.03,0.93l-0.81-0.92l-3.36-3.78C38.68,49.51,40.08,48.33,41.93,47.44z"/>
<path fill="#E2E0D3" d="M50.49,46.54l0.15,4.32l0.06,1.57l-0.78-0.89l-4.68-5.26C47.35,45.82,49.28,45.94,50.49,46.54z"/>
<path fill="#503B68" d="M-85.01,49.91c0,0-11.26-2.22-17.6-5.6c0,0-16.29,8.63-19.71,15.03c0,0,13.17-5.16,16.49,0
	c0,0,5.33-3.74,11.16,1.51c0,0,3.52-10.23,9.65-8.76"/>
<path fill="#503B68" d="M-65.88,49.91c0,0,11.26-2.22,17.6-5.6c0,0,16.29,8.63,19.71,15.03c0,0-13.17-5.16-16.49,0
	c0,0-5.33-3.74-11.16,1.51c0,0-3.52-10.23-9.65-8.76"/>
<ellipse fill="#63487C" cx="-75.45" cy="51.36" rx="10.94" ry="8.06"/>
<path fill="#5B203B" d="M-72.26,52.51c0,0.42-0.34,0.81-0.87,1.09c-0.12,0.06-0.25,0.12-0.39,0.18c-0.54,0.2-1.21,0.32-1.93,0.32
	c-0.6,0-1.16-0.08-1.64-0.23c-0.11-0.02-0.22-0.06-0.32-0.1c-0.75-0.29-1.23-0.74-1.23-1.25c0-0.28,0.14-0.54,0.4-0.77
	c0.43-0.39,1.17-0.67,2.05-0.78c0.24-0.03,0.49-0.05,0.74-0.05c0.26,0,0.52,0.02,0.77,0.05c0.93,0.11,1.7,0.43,2.1,0.85
	C-72.37,52.02-72.26,52.26-72.26,52.51z"/>
<polygon fill="#63487C" points="-84.92,48.51 -87.74,39.19 -79.15,44.26 "/>
<polygon fill="#A474AD" points="-84.45,46.47 -85.76,42.15 -81.77,44.5 "/>
<polygon fill="#63487C" points="-65.38,48.51 -62.56,39.19 -71.15,44.26 "/>
<polygon fill="#A474AD" points="-65.86,46.47 -64.55,42.15 -68.53,44.5 "/>
<path fill="#E2E0D3" d="M-76.2,50.96l-0.9,2.89l-0.12,0.38l-0.2-0.49l-0.83-2.01C-77.81,51.35-77.08,51.07-76.2,50.96z"/>
<path fill="#E2E0D3" d="M-72.58,51.81l-0.55,1.78l-0.2,0.65l-0.19-0.47l-1.16-2.81C-73.76,51.08-72.99,51.4-72.58,51.81z"/>
<line fill="none" stroke="#000000" stroke-width="0.5171" stroke-miterlimit="10" x1="-81.23" y1="49.1" x2="-77.22" y2="49.56"/>
<line fill="none" stroke="#000000" stroke-width="0.5171" stroke-miterlimit="10" x1="-69.54" y1="49.1" x2="-73.56" y2="49.56"/>
</svg>
