<?xml version="1.0" encoding="utf-8"?>
<!-- Generator: Adobe Illustrator 25.0.1, SVG Export Plug-In . SVG Version: 6.00 Build 0)  -->
<svg version="1.1" id="Layer_1" xmlns="http://www.w3.org/2000/svg" xmlns:xlink="http://www.w3.org/1999/xlink" x="0px" y="0px"
	 viewBox="0 0 100 100" enable-background="new 0 0 100 100" xml:space="preserve">
<g>
	<path fill="#856849" d="M46.4,99.2L2.5,74.5c-2-1.1-2-2.9,0-4.1l43.9-24.7c2-1.1,5.2-1.1,7.2,0l43.9,24.7c1.1,0.6,1.6,1.5,1.5,2.3
		c-0.1,0.7-0.6,1.3-1.5,1.8L53.6,99.2C51.6,100.3,48.4,100.3,46.4,99.2z"/>
	<polygon fill="#856849" points="99,72.7 1,72.4 1,67.9 99,68.1 	"/>
	<path fill="#3A2D18" d="M46.4,94.6L2.5,69.9c-2-1.1-2-2.9,0-4.1l43.9-24.7c2-1.1,5.2-1.1,7.2,0l43.9,24.7c2,1.1,2,2.9,0,4.1
		L53.6,94.6C51.6,95.8,48.4,95.8,46.4,94.6z"/>
	<path fill="#938372" d="M46.8,91.4L8.3,69.7c-1.8-1-1.8-2.6,0-3.6l38.5-21.7c1.8-1,4.6-1,6.4,0l38.6,21.7c1.8,1,1.8,2.6,0,3.6
		L53.2,91.4C51.4,92.4,48.6,92.4,46.8,91.4z"/>
	<path fill="#B5A897" d="M68.5,55l15.3,8.5L42.9,87.2l-15.8-9.1L68.5,55z"/>
	<g>
		<polygon fill="#B5A897" points="56.6,59.6 56.6,44.5 66.9,47 66.9,54 		"/>
		<polygon fill="#D2C7BB" points="40.7,50.9 40.7,42.9 56.6,51.9 56.6,59.6 		"/>
		<polygon fill="#9C472A" points="57.2,52.5 52.9,34.3 39.3,42.5 		"/>
		<polygon fill="#863C20" points="52.9,34.3 52.9,34.3 68.3,46.2 57.2,52.5 		"/>
	</g>
	<polygon fill="#AA4E35" points="40.7,43.3 55.7,51.6 34,63.5 19.8,54.7 	"/>
	<path fill="#2C2014" d="M65.5,50.7v1.6c0,0.1,0,0.1-0.1,0.2l-1.9,1.1c-0.1,0.1-0.3,0-0.3-0.2v-1.7c0-0.1,0-0.1,0.1-0.2l1.9-1
		C65.3,50.5,65.5,50.6,65.5,50.7z"/>
	<path fill="#2C2014" d="M60.9,53.2v1.6c0,0.1,0,0.1-0.1,0.2l-1.9,1.1c-0.1,0.1-0.3,0-0.3-0.2v-1.7c0-0.1,0-0.1,0.1-0.2l1.9-1
		C60.7,53,60.9,53.1,60.9,53.2z"/>
	<polyline fill="#A29688" points="34.5,70.7 55.5,58.9 55.5,51.6 34.5,63.2 34.5,70.2 	"/>
	<line fill="none" stroke="#9C472A" stroke-miterlimit="10" x1="34" y1="63.5" x2="56.3" y2="51.3"/>
	<line fill="none" stroke="#9C472A" stroke-miterlimit="10" x1="19.1" y1="54.9" x2="41.4" y2="42.7"/>
	<g>
		<polygon fill="#B5A897" points="25.7,77.1 25.7,62 36,64.5 36,71.4 		"/>
		<polygon fill="#D2C7BB" points="9.9,68.4 9.9,60.4 25.7,69.4 25.7,77.1 		"/>
		<path fill="#2C2014" d="M15.6,71.6v-4.1c0-0.5,0.5-0.8,0.9-0.5l1.2,0.7c0.4,0.2,0.7,0.7,0.7,1.2v4.3L15.6,71.6z"/>
		<polygon fill="#9C472A" points="26.3,70 22,51.8 8.4,60 		"/>
		<polygon fill="#863C20" points="22,51.8 22,51.8 37.4,63.7 26.3,70 		"/>
	</g>
	<path fill="#2C2014" d="M44.4,65.1v-4.3c0-0.5,0.3-1,0.7-1.2l1.2-0.7c0.4-0.2,0.9,0.1,0.9,0.5v4.1L44.4,65.1z"/>
	<path fill="#2C2014" d="M34.5,68.3v1.6c0,0.1,0,0.1-0.1,0.2l-1.9,1.1c-0.1,0.1-0.3,0-0.3-0.2v-1.7c0-0.1,0-0.1,0.1-0.2l1.9-1
		C34.3,68,34.5,68.1,34.5,68.3z"/>
	<path fill="#2C2014" d="M29.9,70.8v1.6c0,0.1,0,0.1-0.1,0.2L28,73.7c-0.1,0.1-0.3,0-0.3-0.2v-1.7c0-0.1,0-0.1,0.1-0.2l1.9-1
		C29.8,70.5,29.9,70.6,29.9,70.8z"/>
	<g>
		<path fill="#A29688" d="M40.7,43.4"/>
		<ellipse fill="#8E8166" cx="38" cy="51.8" rx="9.7" ry="6.4"/>
		<path fill="#B5A888" d="M47.1,51.3c0,1.1-0.4,2.1-1.2,3c-0.1-1.4-0.8-9.1-7.5-10.1c0,0,0,0,0,0c0,0,0-0.1,0-0.1
			c-0.2-0.3-0.3-0.4-0.3-0.4v-0.5c7.3,0,8.8,5.3,9,7.4c0,0.2,0,0.3,0.1,0.4c0,0.1,0,0.1,0,0.2C47.1,51.3,47.1,51.3,47.1,51.3z"/>
		<path fill="#D6C9A7" d="M41.4,56.9c-1.1,0.3-2.2,0.5-3.5,0.5c-1.2,0-2.4-0.2-3.5-0.5c0.1-7.1,2.3-11.3,3.1-12.7c0.1,0,0.2,0,0.3,0
			c0.1,0,0.2,0,0.4,0c0,0,0,0,0,0C39.1,45.7,41.3,49.9,41.4,56.9z"/>
		<path fill="#E1D5AF" d="M37.6,44.3c-0.8,1.4-3,5.6-3.1,12.7c-1.9-0.5-3.5-1.5-4.5-2.7C30.1,52.6,30.9,45.2,37.6,44.3z"/>
		<path fill="#E8DEC1" d="M38,43.2v0.5c0,0-0.1,0.1-0.3,0.4c0,0,0,0,0,0c-6.7,0.9-7.5,8.4-7.6,10c-0.7-0.9-1.1-1.9-1.1-2.9
			c0,0,0-0.1,0-0.2c0,0,0-0.1,0-0.2c0-0.1,0-0.2,0-0.4C29.2,48.6,30.6,43.2,38,43.2z"/>
		<path fill="#E1D5AF" d="M38.3,44.3c-0.1,0-0.2,0-0.4,0c-0.1,0-0.2,0-0.3,0c0,0,0,0,0,0c0.2-0.3,0.3-0.4,0.3-0.4
			S38.1,43.9,38.3,44.3C38.2,44.2,38.3,44.2,38.3,44.3z"/>
		<path fill="#C4B895" d="M45.8,54.4c-1,1.1-2.5,2.1-4.4,2.5c-0.1-7-2.3-11.3-3.1-12.6C45.1,45.3,45.8,52.9,45.8,54.4z"/>
		<path fill="none" stroke="#BAAE94" stroke-width="0.5" stroke-miterlimit="10" d="M30,54.6c0,0,0.1-10.4,9.1-10.4"/>
		<path fill="none" stroke="#8E8166" stroke-width="0.5" stroke-miterlimit="10" d="M45.8,54.6c0,0-0.1-10.4-9.1-10.4"/>
		<path fill="none" stroke="#AFA283" stroke-width="0.5" stroke-miterlimit="10" d="M38,43.8c0,0-3.5,4.6-3.5,13.6"/>
		<path fill="none" stroke="#9E9075" stroke-width="0.5" stroke-miterlimit="10" d="M38,43.8c0,0,3.5,4.6,3.5,13.6"/>
		<path fill="#E1D5AF" d="M39.1,44.2c-0.3,0-0.6,0-0.9,0c-0.1,0-0.2,0-0.3,0"/>
		<path fill="#E1D5AF" d="M36.7,44.2c0.3,0,0.7,0,1,0c0.1,0,0.2,0,0.2,0"/>
		<ellipse fill="#AFA283" cx="38" cy="43.8" rx="2.2" ry="1.3"/>
		<path fill="#8E8166" d="M47.7,51.8c0,3.6-4.3,6.4-9.7,6.4s-9.7-2.9-9.7-6.4c0-1.1,0.4-2.1,1.1-3c-0.3,0.7-0.4,1.4-0.5,1.9
			c0,0.2,0,0.3,0,0.4c0,0.1,0,0.1,0,0.2c0,0.1,0,0.2,0,0.2c0,1.1,0.4,2.1,1.1,2.9c1,1.2,2.6,2.1,4.5,2.7c1.1,0.3,2.2,0.5,3.5,0.5
			c1.2,0,2.4-0.2,3.5-0.5c1.9-0.5,3.4-1.4,4.4-2.5c0.8-0.9,1.2-1.9,1.2-3c0,0,0-0.1,0-0.2c0,0,0-0.1,0-0.2c0-0.1,0-0.2-0.1-0.4
			c-0.1-0.5-0.2-1.1-0.4-1.9C47.3,49.6,47.7,50.7,47.7,51.8z"/>
	</g>
	<polygon fill="#A29688" points="80.6,63.5 79.6,64.1 42.8,85.3 31.1,78.6 30.2,78.1 68.3,56.7 	"/>
	<polygon fill="#D2C7BB" points="80.6,63.5 79.6,64.1 68.3,70.6 68.3,56.7 	"/>
	<polygon fill="#A29688" points="68.3,56.7 68.3,70.6 42.8,85.3 31.1,78.6 30.2,78.1 	"/>
	<polygon fill="#205D7F" points="79.6,64.1 76.9,65.7 42.8,85.3 33.9,80.2 31.1,78.6 68.3,57.8 	"/>
	<polygon fill="#31728F" points="76.9,65.7 42.8,85.3 33.9,80.2 68.3,60.9 	"/>
	<g>
		<path fill="none" stroke="#9C472A" stroke-width="0.25" stroke-miterlimit="10" d="M58.3,41.2c0.4,0.6,0.1,1.4-0.5,1.8
			c-0.6,0.4-1.4,0.1-1.8-0.5"/>
		<path fill="none" stroke="#9C472A" stroke-width="0.25" stroke-miterlimit="10" d="M60,41.7c0.4,0.6,0.1,1.4-0.5,1.8
			c-0.6,0.4-1.4,0.1-1.8-0.5"/>
		<path fill="none" stroke="#9C472A" stroke-width="0.25" stroke-miterlimit="10" d="M61.8,42.2c0.4,0.6,0.1,1.4-0.5,1.8
			c-0.6,0.4-1.4,0.1-1.8-0.5"/>
		<path fill="none" stroke="#9C472A" stroke-width="0.25" stroke-miterlimit="10" d="M64.8,44.9"/>
		<path fill="none" stroke="#9C472A" stroke-width="0.25" stroke-miterlimit="10" d="M59.5,43.5c0.4,0.6,0.1,1.4-0.5,1.8
			c-0.6,0.4-1.4,0.1-1.8-0.5"/>
		<path fill="none" stroke="#9C472A" stroke-width="0.25" stroke-miterlimit="10" d="M61.3,43.9c0.4,0.6,0.1,1.4-0.5,1.8
			c-0.6,0.4-1.4,0.1-1.8-0.5"/>
		<path fill="none" stroke="#9C472A" stroke-width="0.25" stroke-miterlimit="10" d="M63.1,44.4c0.4,0.6,0.1,1.4-0.5,1.8
			c-0.6,0.4-1.4,0.1-1.8-0.5"/>
		<path fill="none" stroke="#9C472A" stroke-width="0.25" stroke-miterlimit="10" d="M64.8,44.9c0.4,0.6,0.1,1.4-0.5,1.8
			c-0.6,0.4-1.4,0.1-1.8-0.5"/>
		<path fill="none" stroke="#9C472A" stroke-width="0.25" stroke-miterlimit="10" d="M59.1,45.2c0.4,0.6,0.1,1.4-0.5,1.8
			c-0.6,0.4-1.4,0.1-1.8-0.5"/>
		<path fill="none" stroke="#9C472A" stroke-width="0.25" stroke-miterlimit="10" d="M60.8,45.7c0.4,0.6,0.1,1.4-0.5,1.8
			c-0.6,0.4-1.4,0.1-1.8-0.5"/>
		<path fill="none" stroke="#9C472A" stroke-width="0.25" stroke-miterlimit="10" d="M62.6,46.2c0.4,0.6,0.1,1.4-0.5,1.8
			c-0.6,0.4-1.4,0.1-1.8-0.5"/>
		<path fill="none" stroke="#9C472A" stroke-width="0.25" stroke-miterlimit="10" d="M60.4,47.5c0.4,0.6,0.1,1.4-0.5,1.8
			c-0.6,0.4-1.4,0.1-1.8-0.5"/>
	</g>
	<g>
		<path fill="none" stroke="#9C472A" stroke-width="0.25" stroke-miterlimit="10" d="M27.3,59c0.4,0.6,0.1,1.4-0.5,1.8
			c-0.6,0.4-1.4,0.1-1.8-0.5"/>
		<path fill="none" stroke="#9C472A" stroke-width="0.25" stroke-miterlimit="10" d="M29.1,59.4c0.4,0.6,0.1,1.4-0.5,1.8
			c-0.6,0.4-1.4,0.1-1.8-0.5"/>
		<path fill="none" stroke="#9C472A" stroke-width="0.25" stroke-miterlimit="10" d="M30.8,59.9c0.4,0.6,0.1,1.4-0.5,1.8
			c-0.6,0.4-1.4,0.1-1.8-0.5"/>
		<path fill="none" stroke="#9C472A" stroke-width="0.25" stroke-miterlimit="10" d="M33.9,62.6"/>
		<path fill="none" stroke="#9C472A" stroke-width="0.25" stroke-miterlimit="10" d="M28.6,61.2c0.4,0.6,0.1,1.4-0.5,1.8
			c-0.6,0.4-1.4,0.1-1.8-0.5"/>
		<path fill="none" stroke="#9C472A" stroke-width="0.25" stroke-miterlimit="10" d="M30.4,61.7c0.4,0.6,0.1,1.4-0.5,1.8
			c-0.6,0.4-1.4,0.1-1.8-0.5"/>
		<path fill="none" stroke="#9C472A" stroke-width="0.25" stroke-miterlimit="10" d="M32.1,62.2c0.4,0.6,0.1,1.4-0.5,1.8
			c-0.6,0.4-1.4,0.1-1.8-0.5"/>
		<path fill="none" stroke="#9C472A" stroke-width="0.25" stroke-miterlimit="10" d="M33.9,62.6c0.4,0.6,0.1,1.4-0.5,1.8
			c-0.6,0.4-1.4,0.1-1.8-0.5"/>
		<path fill="none" stroke="#9C472A" stroke-width="0.25" stroke-miterlimit="10" d="M28.1,63c0.4,0.6,0.1,1.4-0.5,1.8
			c-0.6,0.4-1.4,0.1-1.8-0.5"/>
		<path fill="none" stroke="#9C472A" stroke-width="0.25" stroke-miterlimit="10" d="M29.9,63.4c0.4,0.6,0.1,1.4-0.5,1.8
			c-0.6,0.4-1.4,0.1-1.8-0.5"/>
		<path fill="none" stroke="#9C472A" stroke-width="0.25" stroke-miterlimit="10" d="M31.7,63.9c0.4,0.6,0.1,1.4-0.5,1.8
			c-0.6,0.4-1.4,0.1-1.8-0.5"/>
		<path fill="none" stroke="#9C472A" stroke-width="0.25" stroke-miterlimit="10" d="M29.4,65.2c0.4,0.6,0.1,1.4-0.5,1.8
			c-0.6,0.4-1.4,0.1-1.8-0.5"/>
	</g>
	<g>
		<path fill="none" stroke="#C2624C" stroke-width="0.25" stroke-miterlimit="10" d="M22.5,57.2c-0.4,0.6-1.2,0.7-1.8,0.2
			c-0.6-0.4-0.7-1.2-0.2-1.8"/>
		<path fill="none" stroke="#C2624C" stroke-width="0.25" stroke-miterlimit="10" d="M20.6,57.5c-0.4,0.6-1.2,0.7-1.8,0.2
			c-0.6-0.4-0.7-1.2-0.2-1.8"/>
		<path fill="none" stroke="#C2624C" stroke-width="0.25" stroke-miterlimit="10" d="M18.8,57.7c-0.4,0.6-1.2,0.7-1.8,0.2
			c-0.6-0.4-0.7-1.2-0.2-1.8"/>
		<path fill="none" stroke="#C2624C" stroke-width="0.25" stroke-miterlimit="10" d="M13.4,58.4"/>
		<path fill="none" stroke="#C2624C" stroke-width="0.25" stroke-miterlimit="10" d="M20.9,59.3c-0.4,0.6-1.2,0.7-1.8,0.2
			c-0.6-0.4-0.7-1.2-0.2-1.8"/>
		<path fill="none" stroke="#C2624C" stroke-width="0.25" stroke-miterlimit="10" d="M19.1,59.5c-0.4,0.6-1.2,0.7-1.8,0.2
			c-0.6-0.4-0.7-1.2-0.2-1.8"/>
		<path fill="none" stroke="#C2624C" stroke-width="0.25" stroke-miterlimit="10" d="M17.3,59.8c-0.4,0.6-1.2,0.7-1.8,0.2
			c-0.6-0.4-0.7-1.2-0.2-1.8"/>
		<path fill="none" stroke="#C2624C" stroke-width="0.25" stroke-miterlimit="10" d="M15.5,60c-0.4,0.6-1.2,0.7-1.8,0.2
			c-0.6-0.4-0.7-1.2-0.2-1.8"/>
		<path fill="none" stroke="#C2624C" stroke-width="0.25" stroke-miterlimit="10" d="M21.1,61.1c-0.4,0.6-1.2,0.7-1.8,0.2
			c-0.6-0.4-0.7-1.2-0.2-1.8"/>
		<path fill="none" stroke="#C2624C" stroke-width="0.25" stroke-miterlimit="10" d="M19.3,61.3c-0.4,0.6-1.2,0.7-1.8,0.2
			c-0.6-0.4-0.7-1.2-0.2-1.8"/>
		<path fill="none" stroke="#C2624C" stroke-width="0.25" stroke-miterlimit="10" d="M17.5,61.6c-0.4,0.6-1.2,0.7-1.8,0.2
			c-0.6-0.4-0.7-1.2-0.2-1.8"/>
		<path fill="none" stroke="#C2624C" stroke-width="0.25" stroke-miterlimit="10" d="M19.6,63.1c-0.4,0.6-1.2,0.7-1.8,0.2
			c-0.6-0.4-0.7-1.2-0.2-1.8"/>
	</g>
	<g>
		<path fill="none" stroke="#C2624C" stroke-width="0.25" stroke-miterlimit="10" d="M53.3,39.8c-0.4,0.6-1.2,0.7-1.8,0.2
			c-0.6-0.4-0.7-1.2-0.2-1.8"/>
		<path fill="none" stroke="#C2624C" stroke-width="0.25" stroke-miterlimit="10" d="M51.5,40c-0.4,0.6-1.2,0.7-1.8,0.2
			c-0.6-0.4-0.7-1.2-0.2-1.8"/>
		<path fill="none" stroke="#C2624C" stroke-width="0.25" stroke-miterlimit="10" d="M49.7,40.3c-0.4,0.6-1.2,0.7-1.8,0.2
			c-0.6-0.4-0.7-1.2-0.2-1.8"/>
		<path fill="none" stroke="#C2624C" stroke-width="0.25" stroke-miterlimit="10" d="M44.3,41"/>
		<path fill="none" stroke="#C2624C" stroke-width="0.25" stroke-miterlimit="10" d="M51.8,41.8c-0.4,0.6-1.2,0.7-1.8,0.2
			c-0.6-0.4-0.7-1.2-0.2-1.8"/>
		<path fill="none" stroke="#C2624C" stroke-width="0.25" stroke-miterlimit="10" d="M50,42.1c-0.4,0.6-1.2,0.7-1.8,0.2
			c-0.6-0.4-0.7-1.2-0.2-1.8"/>
		<path fill="none" stroke="#C2624C" stroke-width="0.25" stroke-miterlimit="10" d="M48.2,42.3c-0.4,0.6-1.2,0.7-1.8,0.2
			c-0.6-0.4-0.7-1.2-0.2-1.8"/>
		<path fill="none" stroke="#C2624C" stroke-width="0.25" stroke-miterlimit="10" d="M46.4,42.6c-0.4,0.6-1.2,0.7-1.8,0.2
			c-0.6-0.4-0.7-1.2-0.2-1.8"/>
		<path fill="none" stroke="#C2624C" stroke-width="0.25" stroke-miterlimit="10" d="M52,43.6c-0.4,0.6-1.2,0.7-1.8,0.2
			c-0.6-0.4-0.7-1.2-0.2-1.8"/>
		<path fill="none" stroke="#C2624C" stroke-width="0.25" stroke-miterlimit="10" d="M50.2,43.9c-0.4,0.6-1.2,0.7-1.8,0.2
			c-0.6-0.4-0.7-1.2-0.2-1.8"/>
		<path fill="none" stroke="#C2624C" stroke-width="0.25" stroke-miterlimit="10" d="M48.4,44.1c-0.4,0.6-1.2,0.7-1.8,0.2
			c-0.6-0.4-0.7-1.2-0.2-1.8"/>
		<path fill="none" stroke="#C2624C" stroke-width="0.25" stroke-miterlimit="10" d="M50.5,45.7c-0.4,0.6-1.2,0.7-1.8,0.2
			c-0.6-0.4-0.7-1.2-0.2-1.8"/>
	</g>
	<ellipse fill="#684B32" cx="53.5" cy="85.1" rx="2.6" ry="1.7"/>
	<ellipse fill="#684B32" cx="80.8" cy="70.4" rx="2.6" ry="1.7"/>
	<path fill="none" stroke="#2C2014" stroke-width="0.8515" stroke-miterlimit="10" d="M81.1,70c0,0,0.6-1.3-1.4-3.2
		c-2-2.1-1.6-2.4-1.6-3.1"/>
	<path fill="none" stroke="#2C2014" stroke-width="0.8515" stroke-miterlimit="10" d="M80.5,69.8c0,0-0.9-1.5,1.7-3.9
		c2.6-2.4,1.9-3,1.9-3.8"/>
	<path fill="none" stroke="#2C2014" stroke-width="0.8515" stroke-miterlimit="10" d="M53.8,84.6c0,0,0.6-1.3-1.4-3.2
		c-2-2.1-1.6-2.4-1.6-3.1"/>
	<path fill="none" stroke="#2C2014" stroke-width="0.8515" stroke-miterlimit="10" d="M53.2,84.4c0,0-0.9-1.5,1.7-3.9
		c2.6-2.4,1.9-3,1.9-3.8"/>
	<g>
		<circle fill="#376146" cx="79.7" cy="59.2" r="3.7"/>
		<circle fill="#3E7654" cx="84" cy="60.9" r="3.7"/>
		<circle fill="#468260" cx="78.1" cy="62.1" r="3.7"/>
		<circle fill="#376146" cx="52.4" cy="73.8" r="3.7"/>
		<circle fill="#3E7654" cx="56.7" cy="75.5" r="3.7"/>
		<circle fill="#468260" cx="50.8" cy="76.7" r="3.7"/>
	</g>
	<path fill="#B5A897" d="M64.1,81.2l-2.8,1.5l-3.9-2.2l2.8-1.5L64.1,81.2z"/>
	<path fill="#B5A897" d="M70,79.4l-2.8,1.5l-3.9-2.2l2.8-1.5L70,79.4z"/>
	<path fill="#B5A897" d="M73.3,76.2l-2.8,1.5l-3.9-2.2l2.8-1.5L73.3,76.2z"/>
	<path fill="#B5A897" d="M79.2,74.4l-2.8,1.5l-3.9-2.2l2.8-1.5L79.2,74.4z"/>
</g>
</svg>
