<?xml version="1.0" encoding="utf-8"?>
<!-- Generator: Adobe Illustrator 25.0.1, SVG Export Plug-In . SVG Version: 6.00 Build 0)  -->
<svg version="1.1" id="Layer_1" xmlns="http://www.w3.org/2000/svg" xmlns:xlink="http://www.w3.org/1999/xlink" x="0px" y="0px"
	 viewBox="0 0 100 100" enable-background="new 0 0 100 100" xml:space="preserve">
<path fill="#757576" d="M6.04,35.59L6.04,35.59c2.59-1.14,11.88-1.73,14.72-1.73h16.9l-2.24,3.67L6.04,35.59z"/>
<path fill="#757576" d="M32.89,33.87h59.68v5.65c0,0-23.24,2.51-25.44,11.78c-2.2,9.27,8.79,11.31,8.79,11.31l3.45,3.61H29.91
	l2.83-3.77c0,0,8.79-1.41,9.42-5.81c0.63-4.4-9.11-5.65-9.11-5.65L32.89,33.87z"/>
<rect x="29.91" y="66.17" fill="#464646" width="49.49" height="5.18"/>
<path fill="#666666" d="M32.91,35.59H6.04c0,0,4.03,11.78,26.99,12.56L32.91,35.59z"/>
<polygon fill="#A2A0A0" points="92.57,33.87 32.89,33.87 35.61,31.51 89.89,31.83 "/>
<path fill="#666666" d="M75.92,62.6l3.45,3.61H68.33c0,0-5.67-4.18-6.36-11.15C60.9,44.14,88.9,39.78,92.25,39.55
	c-2.79,0.35-23.07,3.11-25.13,11.74C64.92,60.56,75.92,62.6,75.92,62.6z"/>
</svg>
