<?xml version="1.0" encoding="utf-8"?>
<!-- Generator: Adobe Illustrator 25.0.1, SVG Export Plug-In . SVG Version: 6.00 Build 0)  -->
<svg version="1.1" id="Layer_1" xmlns="http://www.w3.org/2000/svg" xmlns:xlink="http://www.w3.org/1999/xlink" x="0px" y="0px"
	 viewBox="0 0 100 100" style="enable-background:new 0 0 100 100;" xml:space="preserve">
<style type="text/css">
	.st0{fill:#FFFFFF;}
</style>
<path class="st0" d="M55.3,51.1c-0.3,0-0.4,0-0.5,0h-3.7c0.1-0.3,0.3-0.7,0.5-1.1c1.5-2.8,3.4-5.7,5.4-8.3c0.1-0.1,0.1-0.1,0.2-0.2
	c2.6,1.3,12.8,4.7,14-16.6c0,0-19.4,0.9-14.8,15.7c-0.1,0.1-0.2,0.2-0.3,0.3c-1.1,1.3-2.2,2.6-3.1,4c-1,1.3-1.9,2.8-2.8,4.3
	c-0.2,0.4-0.4,0.8-0.6,1.2L46.5,47c0-0.1-0.1-0.2-0.2-0.3c13.2-17.5-16.4-28-16.4-28c-1.7,7.7-1.8,13.4-0.8,17.5
	c-7.7-0.3-15.4,2.4-15.4,2.4c13.1,27.1,26.9,15.6,29.7,12.8c0.3,0.1,0.4,0.2,0.5,0.2l4.8,1.4c0,0,0,0,0,0.1l-0.3,1.2
	c-0.4,1.6-0.7,3.3-1,5c-0.6,3.4-1,6.8-1.1,10.3c-0.1,3.4,0.3,7.1,1.6,10.6c0,0.1,0.1,0.1,0.1,0.2c0.5,1,1.7,1.3,2.7,0.9
	c1-0.5,1.3-1.7,0.9-2.7v-0.1c-0.7-1.3-1.2-2.8-1.6-4.3c-0.2-0.7-0.3-1.5-0.4-2.3c-0.1-0.7-0.2-1.6-0.3-2.4c-0.2-3.2-0.1-6.6,0.3-9.8
	c0.2-1.6,0.4-3.3,0.7-4.9l0.2-1.3c0.1-0.4,0.1-0.8,0.2-1.1h4.1c0.1,0,0.2,0,0.4,0c1.1,3.5,7,17.8,29.8-1.3
	C85.1,51,65.7,32.1,55.3,51.1z M44.4,50.3c0,0-0.1-0.1-0.4-0.1c0-1-0.1-2-0.3-2.9c0.6,0,1.1,0,1.5-0.1c0.1,0.2,0.3,0.4,0.3,0.5
	l3.5,4L44.4,50.3z"/>
</svg>
