<?xml version="1.0" encoding="utf-8"?>
<!-- Generator: Adobe Illustrator 25.0.1, SVG Export Plug-In . SVG Version: 6.00 Build 0)  -->
<svg version="1.1" id="Layer_1" xmlns="http://www.w3.org/2000/svg" xmlns:xlink="http://www.w3.org/1999/xlink" x="0px" y="0px"
	 viewBox="0 0 100 100" enable-background="new 0 0 100 100" xml:space="preserve">
<path fill="#FFFFFF" d="M37.14,54.24c-2.79-4.47-2.81-7.57-2.81-7.57s-0.01,3.1-2.81,7.57c-2.77,4.42,0.94,6.72,2.81,6.72
	C36.21,60.97,39.91,58.67,37.14,54.24z"/>
<path fill="#FFFFFF" d="M68.47,54.24c-2.79-4.47-2.81-7.57-2.81-7.57s-0.01,3.1-2.81,7.57c-2.77,4.42,0.94,6.72,2.81,6.72
	C67.54,60.97,71.24,58.67,68.47,54.24z"/>
<path fill="#FFFFFF" d="M60.66,22.31h-9.23h-2.87h-9.23c-8.5,0-15.4,6.89-15.4,15.4v4.22c0,0.99,0.8,1.8,1.8,1.8h1.12
	c0.99,0,1.8-0.8,1.8-1.8v-3c0-0.99,0.8-1.8,1.8-1.8h1.27c0.99,0,1.8,0.8,1.8,1.8s0.8,1.8,1.8,1.8h0.97c0.99,0,1.8-0.8,1.8-1.8v-3.3
	c0-0.99,0.8-1.8,1.8-1.8h0.15c0.99,0,1.8-0.8,1.8-1.8v-0.67c0-0.99,0.8-1.8,1.8-1.8h0.75c0.99,0,1.8,0.8,1.8,1.8v36.51
	c-7.93,0.61-13.87,3.08-13.87,6.03c0,3.41,7.92,6.18,17.69,6.18s17.69-2.77,17.69-6.18c0-2.95-5.94-5.42-13.87-6.03V31.37
	c0-0.99,0.8-1.8,1.8-1.8h0.75c0.99,0,1.8,0.8,1.8,1.8v0.67c0,0.99,0.8,1.8,1.8,1.8h0.15c0.99,0,1.8,0.8,1.8,1.8v3.3
	c0,0.99,0.8,1.8,1.8,1.8h0.97c0.99,0,1.8-0.8,1.8-1.8s0.8-1.8,1.8-1.8h1.27c0.99,0,1.8,0.8,1.8,1.8v3c0,0.99,0.8,1.8,1.8,1.8h1.12
	c0.99,0,1.8-0.8,1.8-1.8v-4.22C76.06,29.2,69.17,22.31,60.66,22.31z"/>
</svg>
