<?xml version="1.0" encoding="utf-8"?>
<!-- Generator: Adobe Illustrator 25.0.1, SVG Export Plug-In . SVG Version: 6.00 Build 0)  -->
<svg version="1.1" id="Layer_1" xmlns="http://www.w3.org/2000/svg" xmlns:xlink="http://www.w3.org/1999/xlink" x="0px" y="0px"
	 viewBox="0 0 100 100" enable-background="new 0 0 100 100" xml:space="preserve">
<g>
	<path fill="#856849" d="M46.41,99.11l-43.9-24.7c-0.9-0.5-1.4-1.1-1.5-1.8c-0.1-0.8,0.4-1.7,1.5-2.3l43.9-24.7c2-1.1,5.2-1.1,7.2,0
		l43.9,24.7c2,1.1,2,2.9,0,4.1l-43.9,24.7C51.61,100.21,48.41,100.21,46.41,99.11z"/>
	<polygon fill="#856849" points="1.01,68.11 99.01,67.81 99.01,72.31 1.01,72.61 	"/>
	<path fill="#3A2D18" d="M46.41,94.51l-43.9-24.7c-2-1.1-2-2.9,0-4.1l43.9-24.7c2-1.1,5.2-1.1,7.2,0l43.9,24.7c2,1.1,2,2.9,0,4.1
		l-43.9,24.7C51.61,95.71,48.41,95.71,46.41,94.51z"/>
</g>
<path fill="#4D4949" d="M46.81,90.61l-38.5-21.7c-1.8-1-1.8-2.6,0-3.6l38.5-21.7c1.8-1,4.6-1,6.4,0l38.5,21.7c1.8,1,1.8,2.6,0,3.6
	l-38.5,21.7C51.51,91.51,48.61,91.51,46.81,90.61z"/>
<polygon fill="#3A3939" points="40.43,78.73 37.64,80.28 34.84,78.73 37.64,77.18 "/>
<g>
	<path fill="#383838" d="M48.85,56.74l-8.64-4.86c-0.18-0.1-0.28-0.22-0.3-0.35c-0.02-0.16,0.08-0.33,0.3-0.45l8.64-4.86
		c0.39-0.22,1.02-0.22,1.42,0l8.64,4.86c0.39,0.22,0.39,0.57,0,0.81l-8.64,4.86C49.88,56.96,49.25,56.96,48.85,56.74z"/>
	<polygon fill="#15373F" points="39.91,50.64 59.21,50.58 59.21,51.46 39.91,51.52 	"/>
	<path fill="#606060" d="M48.85,55.84l-8.64-4.86c-0.39-0.22-0.39-0.57,0-0.81l8.64-4.86c0.39-0.22,1.02-0.22,1.42,0l8.64,4.86
		c0.39,0.22,0.39,0.57,0,0.81l-8.64,4.86C49.88,56.07,49.25,56.07,48.85,55.84z"/>
</g>
<g>
	<path fill="#383838" d="M77.48,72.69l-8.64-4.86c-0.18-0.1-0.28-0.22-0.3-0.35c-0.02-0.16,0.08-0.33,0.3-0.45l8.64-4.86
		c0.39-0.22,1.02-0.22,1.42,0l8.64,4.86c0.39,0.22,0.39,0.57,0,0.81l-8.64,4.86C78.5,72.91,77.87,72.91,77.48,72.69z"/>
	<polygon fill="#15373F" points="68.54,66.58 87.83,66.53 87.83,67.41 68.54,67.47 	"/>
	<path fill="#606060" d="M77.48,71.78l-8.64-4.86c-0.39-0.22-0.39-0.57,0-0.81l8.64-4.86c0.39-0.22,1.02-0.22,1.42,0l8.64,4.86
		c0.39,0.22,0.39,0.57,0,0.81l-8.64,4.86C78.5,72.02,77.87,72.02,77.48,71.78z"/>
</g>
<polygon fill="#3A3939" points="25.55,71.06 22.76,72.61 19.96,71.06 22.76,69.51 "/>
<polygon fill="#3A3939" points="36.98,61.66 34.19,63.21 31.4,61.66 34.19,60.11 "/>
<polygon fill="#3A3939" points="32.21,57.13 30.13,58.28 28.04,57.13 30.13,55.97 "/>
<polygon fill="#3A3939" points="24.23,60.15 22.14,61.31 20.06,60.15 22.14,58.99 "/>
<polygon fill="#3A3939" points="53.06,79.57 48.75,81.96 44.44,79.57 48.75,77.18 "/>
<polygon fill="#3A3939" points="64.43,67.47 61.64,69.02 58.85,67.47 61.64,65.92 "/>
<polygon fill="#3A3939" points="55.74,84.46 53.65,85.62 51.56,84.46 53.65,83.3 "/>
<polygon fill="#3A3939" points="40.11,54.74 38.03,55.9 35.94,54.74 38.03,53.59 "/>
<polygon fill="#3A3939" points="28.48,63.9 26.4,65.06 24.31,63.9 26.4,62.74 "/>
<polygon fill="#3A3939" points="58.58,58.99 56.49,60.15 54.41,58.99 56.49,57.83 "/>
<g>
	<polygon fill="#3A3939" points="49.56,18.77 49.56,54.74 42.59,50.88 42.59,29.98 43.35,28.45 42.59,26.85 42.59,18.77 	"/>
	<polygon fill="#282725" points="56.49,18.77 56.49,50.88 49.56,54.74 49.56,18.77 	"/>
	<polygon fill="#282727" points="56.5,18.79 49.54,22.65 42.59,18.79 49.54,14.93 	"/>
</g>
<polyline opacity="0.89" fill="#AE2A32" points="53.02,23.98 53.02,52.54 74.71,65.06 76.6,33.88 52.47,23.98 "/>
<g>
	<polygon fill="#3A3939" points="78.2,34.55 78.2,70.52 71.23,66.65 71.23,34.55 	"/>
	<polygon fill="#282725" points="85.13,34.55 85.13,55.32 84.33,56.28 85.13,57.68 85.13,66.65 78.2,70.52 78.2,34.55 	"/>
	<polygon fill="#282727" points="85.14,34.57 78.19,38.43 71.23,34.57 78.19,30.7 	"/>
</g>
<polygon fill="#3A3939" points="45.14,84.66 42.69,86.02 40.25,84.66 42.69,83.3 "/>
<polygon fill="#3A3939" points="30.85,76.36 28.06,77.91 25.26,76.36 28.06,74.81 "/>
<polygon fill="#3A3939" points="61.64,75.58 59.55,76.74 57.46,75.58 59.55,74.42 "/>
<polygon fill="#3A3939" points="74.79,75.58 72.71,76.74 70.62,75.58 72.71,74.42 "/>
<polygon fill="#3A3939" points="63.72,83.3 61.64,84.46 59.55,83.3 61.64,82.14 "/>
<polygon fill="#3A3939" points="14.45,67.08 12.36,68.23 10.28,67.08 12.36,65.92 "/>
<path fill="#606060" d="M42.67,6.49l-0.44,0.23C42.36,6.61,42.51,6.54,42.67,6.49z"/>
<polygon fill="#2B2B2B" points="38.57,22.02 38.55,22.03 38.55,22.02 "/>
<polygon fill="#2B2B2B" points="49.56,22.64 49.56,29.17 42.59,24.39 42.59,18.78 49.54,22.65 "/>
<polygon fill="#2B2B2B" points="67.21,37.8 67.19,37.81 67.19,37.8 "/>
<g>
	<ellipse fill="none" stroke="#3A3939" stroke-miterlimit="10" cx="46.07" cy="68.23" rx="10.57" ry="6.57"/>
	<polygon fill="none" stroke="#3A3939" stroke-miterlimit="10" points="54.3,67.32 40.18,72.25 46.21,63.04 50.76,72.7 38.23,66.06 
			"/>
</g>
<polygon fill="#2B2B2B" points="78.2,38.41 78.2,44.17 71.23,41.12 71.23,34.56 78.19,38.42 "/>
<radialGradient id="SVGID_1_" cx="43" cy="49.6383" r="43.8214" fx="64.2059" fy="42.0773" gradientUnits="userSpaceOnUse">
	<stop  offset="1.331947e-07" style="stop-color:#ED1C24"/>
	<stop  offset="0.0556" style="stop-color:#EE222A;stop-opacity:0.9298"/>
	<stop  offset="0.3141" style="stop-color:#EF364B;stop-opacity:0.6032"/>
	<stop  offset="0.5317" style="stop-color:#EF4261;stop-opacity:0.3284"/>
	<stop  offset="0.6974" style="stop-color:#EF486F;stop-opacity:0.1191"/>
	<stop  offset="0.7916" style="stop-color:#EF4B74;stop-opacity:0"/>
</radialGradient>
<polygon fill="url(#SVGID_1_)" points="52.96,28.53 11.98,0.62 5.09,31.68 11.34,69.19 80.91,98.66 71.71,38.08 59.69,29.23 "/>
<g>
	<path fill="#606060" d="M95.68,31.62l-7.61,3.73v2.77l-2.99-1.31l-20.15-8.8l-19.9-13.63c-0.55-0.38-0.97-0.9-1.23-1.49l-6.08-3.52
		l-0.51-2.31l6.86-3.53l0.44-0.23l0.03-0.01h0.01c0.35-0.1,0.74-0.07,1.1,0.13l15.34,8.51l1.76,1.91l1.79,0.06l19.32,10.72
		l-0.1,1.28l2.93,0.28l7.88,4.37C95.03,30.81,95.41,31.18,95.68,31.62z"/>
	<path fill="#3A3939" d="M35.94,15.28V8.51c0-1.11,1.19-1.81,2.16-1.27l2.82,1.57l1.53,1.71l1.91,0.2l42.65,23.66
		c1,0.55,1.62,1.61,1.62,2.75v6.15c0,1.04-1.07,1.74-2.03,1.33l-20.16-8.81L64.54,34l-1.69,0.22l-5.47-2.39L37.48,18.2
		C36.52,17.54,35.94,16.45,35.94,15.28z"/>
	<path fill="#353032" d="M42.63,18.5v-4.66c0-0.76,0.82-1.24,1.48-0.87l33.63,18.66c0.69,0.38,1.11,1.11,1.11,1.89v4.23
		c0,0.72-0.74,1.2-1.39,0.91l-20.1-8.78l-13.68-9.37C43.03,20.05,42.63,19.3,42.63,18.5z"/>
	<path fill="#282725" d="M96.18,33.31v6.14c0,0.45-0.2,0.84-0.5,1.08l-0.66,0.34h-0.01l-6.94,3.55v-9.07l7.61-3.73
		C96,32.11,96.18,32.7,96.18,33.31z"/>
</g>
<path fill="#9F1D20" d="M161.22,42.95"/>
</svg>
