<?xml version="1.0" encoding="utf-8"?>
<!-- Generator: Adobe Illustrator 25.0.1, SVG Export Plug-In . SVG Version: 6.00 Build 0)  -->
<svg version="1.1" id="Layer_1" xmlns="http://www.w3.org/2000/svg" xmlns:xlink="http://www.w3.org/1999/xlink" x="0px" y="0px"
	 viewBox="0 0 100 100" enable-background="new 0 0 100 100" xml:space="preserve">
<ellipse transform="matrix(0.8589 -0.5122 0.5122 0.8589 -61.9323 -21.4365)" fill="#999999" cx="-69.87" cy="101.67" rx="13.19" ry="2.66"/>
<ellipse fill="#999999" cx="-91.7" cy="70.74" rx="7.76" ry="1.96"/>
<path fill="#999999" d="M-104.89,40.92c0,0-0.65,11.19,10.87,14.75c0,0-3.34,2.91,0,5.27c0,0-1.15,5.63-4.74,7.9
	c-0.45,0.28-0.7,0.79-0.7,1.32v0.58h7.75V40.92H-104.89z"/>
<path fill="#999999" d="M-78.51,40.92c0,0,0.65,11.19-10.87,14.75c0,0,3.34,2.91,0,5.27c0,0,1.15,5.63,4.74,7.9
	c0.45,0.28,0.7,0.79,0.7,1.32v0.58h-7.75V40.92H-78.51z"/>
<path fill="#999999" d="M-89.38,55.67c0,0,3.33,2.9,0,5.27c0,0,1.15,5.63,4.73,7.9c0.45,0.29,0.71,0.79,0.71,1.32v0.58h-7.76V55.51
	c7.92-4.59,6.32-12.81,5.86-14.59h7.33C-78.51,40.92-77.87,52.11-89.38,55.67z"/>
<ellipse fill="#606161" cx="-91.7" cy="40.92" rx="13.19" ry="3.34"/>
<path fill="#C6C6C5" d="M-89.38,55.67c0,0,3.33,2.9,0,5.27c0,0,1.15,5.63,4.73,7.9c0.45,0.29,0.71,0.79,0.71,1.32v0.58
	c0,0.55-0.91,1.05-2.38,1.41v-0.69c0-0.25-0.05-0.5-0.15-0.72c-0.14-0.34-0.39-0.63-0.73-0.8c-0.49-0.24-0.93-0.59-1.32-1
	c-2.51-2.61-3.18-8-3.18-8c2.63-1.19,0-5.43,0-5.43c7.92-4.59,6.32-12.81,5.86-14.59h7.33C-78.51,40.92-77.87,52.11-89.38,55.67z"/>
<ellipse fill="#999999" cx="-44.4" cy="36.02" rx="7.76" ry="1.56"/>
<path fill="#999999" d="M-31.22,12.29c0,0,0.65,8.91-10.87,11.74c0,0,3.34,2.31,0,4.2c0,0,1.15,4.48,4.74,6.29
	c0.45,0.23,0.7,0.63,0.7,1.05v0.46h-7.75V12.29H-31.22z"/>
<path fill="#999999" d="M-57.59,12.29c0,0-0.65,8.91,10.87,11.74c0,0-3.34,2.31,0,4.2c0,0-1.15,4.48-4.74,6.29
	c-0.45,0.23-0.7,0.63-0.7,1.05v0.46h7.75V12.29H-57.59z"/>
<path fill="#999999" d="M-46.72,24.03c0,0-3.33,2.31,0,4.19c0,0-1.15,4.48-4.73,6.29c-0.45,0.23-0.71,0.63-0.71,1.05v0.46h7.76V23.9
	c-7.92-3.65-6.32-10.2-5.86-11.61h-7.33C-57.59,12.29-58.23,21.19-46.72,24.03z"/>
<path fill="#C6C6C5" d="M-46.72,24.03c0,0-3.33,2.31,0,4.19c0,0-1.15,4.48-4.73,6.29c-0.45,0.23-0.71,0.63-0.71,1.05v0.46
	c0,0.44,0.91,0.84,2.38,1.12v-0.55c0-0.2,0.05-0.4,0.15-0.57c0.14-0.27,0.39-0.5,0.73-0.64c0.49-0.19,0.93-0.47,1.32-0.8
	c2.51-2.08,3.18-6.37,3.18-6.37c-2.63-0.95,0-4.32,0-4.32c-7.92-3.65-6.32-10.2-5.86-11.61h-7.33
	C-57.59,12.29-58.23,21.19-46.72,24.03z"/>
<ellipse fill="#606161" cx="-44.4" cy="12.29" rx="13.19" ry="2.66"/>
<ellipse transform="matrix(0.8589 -0.5122 0.5122 0.8589 -70.6565 -12.3349)" fill="#999999" cx="-57.71" cy="122.05" rx="7.76" ry="1.56"/>
<path fill="#999999" d="M-58.54,94.92c0,0,5.12,7.32-3.33,15.65c0,0,4.05,0.28,2.15,3.61c0,0,3.28,3.26,7.29,2.98
	c0.5-0.03,0.92,0.18,1.14,0.54l0.23,0.39l-6.66,3.97l-12.15-20.38L-58.54,94.92z"/>
<path fill="#999999" d="M-81.19,108.42c0,0,4.01,7.98,15.35,4.51c0,0-1.68,3.7,2.15,3.61c0,0,1.31,4.44-0.85,7.83
	c-0.27,0.42-0.28,0.9-0.07,1.26l0.23,0.39l6.66-3.97l-12.15-20.38L-81.19,108.42z"/>
<path fill="#999999" d="M-65.84,112.94c0,0-1.68,3.69,2.15,3.6c0,0,1.31,4.44-0.84,7.82c-0.27,0.43-0.29,0.9-0.07,1.27l0.24,0.4
	l6.66-3.97l-6.21-10.41c-8.67,0.92-10.65-5.52-10.98-6.97l-6.3,3.75C-81.19,108.43-77.18,116.4-65.84,112.94z"/>
<path fill="#C6C6C5" d="M-65.84,112.94c0,0-1.68,3.69,2.15,3.6c0,0,1.31,4.44-0.84,7.82c-0.27,0.43-0.29,0.9-0.07,1.27l0.24,0.4
	c0.22,0.38,1.21,0.25,2.62-0.26l-0.28-0.47c-0.1-0.17-0.16-0.37-0.16-0.57c-0.02-0.3,0.08-0.63,0.3-0.92
	c0.32-0.42,0.56-0.88,0.73-1.36c1.09-3.07-0.53-7.1-0.53-7.1c-2.74,0.53-2.21-3.71-2.21-3.71c-8.67,0.92-10.65-5.52-10.98-6.97
	l-6.3,3.75C-81.19,108.43-77.18,116.4-65.84,112.94z"/>
<path fill="#E54446" d="M-85.89,113.85c0,0-3.26,2.62-1.28,4.6S-84.49,115.7-85.89,113.85z"/>
<ellipse transform="matrix(0.8589 -0.5122 0.5122 0.8589 -62.0287 -21.2541)" fill="#40403F" cx="-69.58" cy="101.94" rx="11.57" ry="2.28"/>
<path fill="#E54446" d="M-68.51,103.95c0,0-16.73-1.87-15.65,8.32s6.57,5.28,5.11,2.15C-80.52,111.3-74.49,107.08-68.51,103.95z"/>
<ellipse transform="matrix(0.8589 -0.5122 0.5122 0.8589 -8.0797 29.1714)" fill="#BCBCBB" cx="48.9" cy="29.25" rx="31.36" ry="6.32"/>
<path fill="#BCBCBB" d="M93.66,68.27c-0.01-0.02-0.04-0.03-0.05-0.05l-0.52-0.87c-0.51-0.86-1.52-1.37-2.71-1.29
	c-9.54,0.67-17.34-7.08-17.34-7.08c4.52-7.92-5.11-8.58-5.11-8.58c20.09-19.81,7.91-37.22,7.91-37.22L48.9,29.25L21.96,45.31
	c0,0,9.54,18.99,36.51,10.73c0,0-4,8.79,5.11,8.58c0,0,3.11,10.55-2.02,18.62c-0.64,1-0.67,2.14-0.16,2.99l0.52,0.87
	c0.01,0.02,0.01,0.05,0.02,0.07c1.05,1.76,9-1.04,17.76-6.26C88.47,75.7,94.72,70.04,93.66,68.27z"/>
<path fill="#727373" d="M58.46,56.06c0,0-3.99,8.77,5.11,8.57c0,0,3.11,10.56-2,18.61c-0.64,1.02-0.68,2.15-0.17,3.01l0.56,0.94
	c0.53,0.89,2.88,0.6,6.23-0.61l-0.67-1.12c-0.24-0.41-0.38-0.87-0.39-1.35c-0.04-0.72,0.19-1.5,0.72-2.19
	c0.77-0.99,1.33-2.09,1.73-3.23c2.6-7.3-1.26-16.88-1.26-16.88c-6.53,1.27-5.26-8.83-5.26-8.83c-20.63,2.19-25.33-13.13-26.12-16.58
	l-14.97,8.93C21.96,45.32,31.5,64.29,58.46,56.06z"/>
<path fill="#E54446" d="M10.77,58.21c0,0-7.74,6.22-3.04,10.93C12.44,73.85,14.11,62.61,10.77,58.21z"/>
<ellipse transform="matrix(0.8589 -0.5122 0.5122 0.8589 -8.309 29.6051)" fill="#40403F" cx="49.57" cy="29.88" rx="27.52" ry="5.43"/>
<path fill="#E54446" d="M52.13,34.67c0,0-39.8-4.45-37.22,19.79s15.64,12.56,12.15,5.12C23.56,52.15,37.89,42.11,52.13,34.67z"/>
</svg>
