<?xml version="1.0" encoding="utf-8"?>
<!-- Generator: Adobe Illustrator 25.0.1, SVG Export Plug-In . SVG Version: 6.00 Build 0)  -->
<svg version="1.1" id="Layer_1" xmlns="http://www.w3.org/2000/svg" xmlns:xlink="http://www.w3.org/1999/xlink" x="0px" y="0px"
	 viewBox="0 0 100 100" enable-background="new 0 0 100 100" xml:space="preserve">
<path fill="#FFFFFF" d="M51.31,12.88c-16.77,0-30.37,16.91-30.37,37.78c0,20.87,13.6,37.78,30.37,37.78s30.37-16.91,30.37-37.78
	C81.68,29.79,68.08,12.88,51.31,12.88z M43.36,55.58c-3.33,0-9.9-4.08-4.99-11.94c4.96-7.94,4.99-13.45,4.99-13.45
	s0.03,5.51,4.99,13.45C53.26,51.5,46.69,55.58,43.36,55.58z M57.82,68.11c-3.33,0-9.9-4.08-4.99-11.94
	c4.96-7.94,4.99-13.45,4.99-13.45s0.03,5.51,4.99,13.45C67.72,64.03,61.15,68.11,57.82,68.11z"/>
</svg>
