<?xml version="1.0" encoding="utf-8"?>
<!-- Generator: Adobe Illustrator 25.0.1, SVG Export Plug-In . SVG Version: 6.00 Build 0)  -->
<svg version="1.1" id="Layer_1" xmlns="http://www.w3.org/2000/svg" xmlns:xlink="http://www.w3.org/1999/xlink" x="0px" y="0px"
	 viewBox="0 0 100 100" enable-background="new 0 0 100 100" xml:space="preserve">
<path fill="#FFFFFF" d="M68.01,51.72c5.18-20.93-5.68-26.96-12.69-28.7c-0.08-2.87-2.44-5.17-5.32-5.17c-2.9,0-5.25,2.3-5.33,5.18
	c-7.01,1.73-17.87,7.77-12.69,28.69c-0.21-0.32-3.75-5.48-12.59-5.8c0,0,4.4,14.98,12.6,20.91c8.2,5.92,0.42,19.72,18.01,19.72
	c17.58,0,9.8-13.8,18-19.72c8.2-5.93,12.6-20.91,12.6-20.91C71.76,46.24,68.23,51.4,68.01,51.72z M34.95,57.69
	c0,0,4.77-2.8,12.34,4.77C47.3,62.46,41.94,71.43,34.95,57.69z M47.42,80.74c-3.49-6.57,1.47-12.72,1.47-12.72
	S50.9,87.3,47.42,80.74z M50.01,48.04c0,0-2.39-0.2-8.54,1.16c-1.34-3.37-5.8-16.6,3.9-23.37c0.92,1.61,2.65,2.69,4.64,2.69
	c1.98,0,3.72-1.09,4.63-2.7c9.72,6.77,5.25,20.01,3.91,23.38C52.39,47.84,50.01,48.04,50.01,48.04z M53.1,80.74
	c-3.5,6.56-1.48-12.72-1.48-12.72S56.58,74.17,53.1,80.74z M52.7,62.46c7.57-7.57,12.34-4.77,12.34-4.77
	C58.07,71.43,52.7,62.46,52.7,62.46z"/>
<path fill="#FFFFFF" d="M-52.5,22.32c0,0-25.45-0.54-18.01,29.42L-60.7,50c0,0-9.47-20.35,8.2-26.49"/>
<path fill="#FFFFFF" d="M-52.5,22.32c0,0,25.45-0.54,18.01,29.42L-44.3,50c0,0,9.47-20.35-8.2-26.49"/>
<circle fill="#FFFFFF" cx="-52.5" cy="23.19" r="5.33"/>
<path fill="#FFFFFF" d="M-70.51,51.74c0,0-3.47-5.5-12.6-5.82c0,0,4.4,14.98,12.6,20.91c8.2,5.93,0.42,19.72,18.01,19.72v-38.5
	C-52.5,48.04-57.24,47.65-70.51,51.74z"/>
<path fill="#FFFFFF" d="M-34.5,51.74c0,0,3.47-5.5,12.6-5.82c0,0-4.4,14.98-12.6,20.91c-8.2,5.93-0.42,19.72-18.01,19.72v-38.5
	C-52.5,48.04-47.77,47.65-34.5,51.74z"/>
<path fill="#CFCFCE" d="M-67.55,57.69c0,0,4.77-2.79,12.34,4.77C-55.21,62.46-60.57,71.43-67.55,57.69z"/>
<path fill="#CFCFCE" d="M-37.46,57.69c0,0-4.77-2.79-12.34,4.77C-49.8,62.46-44.44,71.43-37.46,57.69z"/>
<path fill="#CFCFCE" d="M-53.62,68.02c0,0-4.97,6.15-1.47,12.72C-51.6,87.3-53.62,68.02-53.62,68.02z"/>
<path fill="#CFCFCE" d="M-50.89,68.02c0,0,4.97,6.15,1.47,12.72C-52.91,87.3-50.89,68.02-50.89,68.02z"/>
</svg>
