<?xml version="1.0" encoding="utf-8"?>
<!-- Generator: Adobe Illustrator 25.0.1, SVG Export Plug-In . SVG Version: 6.00 Build 0)  -->
<svg version="1.1" id="Layer_1" xmlns="http://www.w3.org/2000/svg" xmlns:xlink="http://www.w3.org/1999/xlink" x="0px" y="0px"
	 viewBox="0 0 100 100" style="enable-background:new 0 0 100 100;" xml:space="preserve">
<style type="text/css">
	.st0{fill:#A1313F;}
	.st1{fill:#D66FAB;}
	.st2{fill:none;stroke:#D66FAB;stroke-width:1.1382;stroke-linecap:round;stroke-miterlimit:10;}
	.st3{fill:none;stroke:#D66FAB;stroke-width:1.6923;stroke-linecap:round;stroke-miterlimit:10;}
	.st4{fill:#AC3442;}
	.st5{fill:none;stroke:#E671B5;stroke-width:1.5634;stroke-linecap:round;stroke-miterlimit:10;}
	.st6{fill:#B13A48;}
	.st7{fill:none;stroke:#EB7DBC;stroke-width:1.6923;stroke-linecap:round;stroke-miterlimit:10;}
</style>
<path class="st0" d="M59.6,37.2c0,0,17.8,11,19.6-21.8C79.2,15.4,52.5,16.7,59.6,37.2z"/>
<g>
	<path class="st1" d="M76.4,20.3c-1.3,1.6-2.6,3.1-3.9,4.6l-4.1,4.4c-2.7,2.9-5.5,5.8-8.3,8.7l0.1-0.1c-2.7,3.5-5.3,7.3-7.3,11.1
		c-0.5,1-0.9,2-1.1,2.9c-0.1,0.4-0.2,1-0.3,1.6l-0.3,1.7c-0.4,2.2-0.7,4.4-1,6.6c-0.6,4.4-0.7,8.9-0.4,13.2c0.1,1.1,0.2,2.2,0.4,3.2
		c0.2,1.1,0.3,2.1,0.6,3.1c0.5,2.1,1.2,4,2.1,5.8v0.1c0.6,1.3,0.1,2.9-1.2,3.6c-1.3,0.6-2.9,0.1-3.6-1.2c0-0.1-0.1-0.2-0.1-0.3
		c-1.7-4.7-2.2-9.6-2.1-14.2c0.1-4.7,0.7-9.3,1.5-13.8c0.4-2.3,0.9-4.5,1.4-6.7l0.4-1.6c0.1-0.5,0.2-1,0.4-1.7
		c0.4-1.2,0.9-2.3,1.5-3.3c1.1-2.1,2.4-4,3.7-5.8c1.3-1.9,2.7-3.6,4.2-5.4l0,0l0,0c2.9-2.8,5.6-5.7,8.4-8.5c1.4-1.4,2.7-2.9,4-4.4
		s2.6-3,3.7-4.6l0,0c0.3-0.4,0.8-0.5,1.2-0.2C76.6,19.3,76.7,19.9,76.4,20.3L76.4,20.3z"/>
</g>
<path class="st2" d="M71.8,24.6c0,0-1.6-2.2-0.8-4.5"/>
<path class="st2" d="M68.1,28.6c0,0-1.7-3.6-1.3-6.1"/>
<path class="st2" d="M63.6,32.6c0,0-1.7-3.6-1.3-6.1"/>
<path class="st2" d="M63.2,34.9c0,0,2.9,2.1,5.3,0.9"/>
<path class="st2" d="M66.4,31c0,0,2.9,2.1,5.3,0.9"/>
<path class="st2" d="M70.4,26.1c0.6,0.7,2.8,1.3,3.3,0.9"/>
<g>
	<path class="st0" d="M42.8,50c0,0-20.8,24.4-40.6-16.4C2.1,33.6,42.8,19.6,42.8,50z"/>
	<path class="st3" d="M9.7,37.1c8,4.4,33.3,13.1,33.3,13.1l7.5,2.2"/>
	<path class="st3" d="M18,40.9c0,0,1.2-3.7-1.2-6.2"/>
	<path class="st3" d="M25.6,43.9c0,0,0.6-5.6-1.3-8.5"/>
	<path class="st3" d="M34.4,46.4c0,0,0.6-5.6-1.3-8.5"/>
	<path class="st3" d="M36.2,49c0,0-3.2,4.4-7.4,4.3"/>
	<path class="st3" d="M29.4,45.9c0,0-3.2,4.4-7.4,4.3"/>
	<path class="st3" d="M20.9,42c-0.5,1.2-3.4,3.3-4.4,3.1"/>
</g>
<g>
	<path class="st4" d="M57.6,51c0,0,5.6,28.2,40.2-0.7C97.9,50.3,71.5,24.6,57.6,51z"/>
	<path class="st5" d="M90.2,50.9c-8.5,1.1-32.9,0.3-32.9,0.3h-6.8"/>
	<path class="st5" d="M81.7,51.4c0,0,0.7-3.7,3.8-5"/>
	<path class="st5" d="M74.2,51.4c0,0,2.1-5.1,4.9-6.9"/>
	<path class="st5" d="M66,50.6c0,0,2.1-5.1,4.9-6.9"/>
	<path class="st5" d="M63.3,52.4c0,0,0.6,4.9,4.1,6.2"/>
	<path class="st5" d="M70.2,51.9c0,0,0.6,4.9,4.1,6.2"/>
	<path class="st5" d="M78.9,51.4c-0.2,1.2,1.2,4,2.2,4.2"/>
</g>
<g>
	<path class="st6" d="M45.4,45.1c0,0-31.5,6-21.5-38.2C23.9,6.9,64.4,21.3,45.4,45.1z"/>
	<path class="st7" d="M27.6,14.3c3.5,8.5,17.9,31.1,17.9,31.1l5,5.7"/>
	<path class="st7" d="M31.8,22.5c0,0,3.3-2.1,2.9-5.6"/>
	<path class="st7" d="M35.8,29.6c0,0,4-4,4.3-7.4"/>
	<path class="st7" d="M41.2,37.1c0,0,4-4,4.3-7.4"/>
	<path class="st7" d="M40.9,40.3c0,0-5.2,1.4-8.5-1.3"/>
	<path class="st7" d="M37.6,33.6c0,0-5.2,1.4-8.5-1.3"/>
	<path class="st7" d="M33.3,25.2c-1.1,0.6-4.7,0.5-5.4-0.4"/>
</g>
</svg>
