<?xml version="1.0" encoding="utf-8"?>
<!-- Generator: Adobe Illustrator 25.0.1, SVG Export Plug-In . SVG Version: 6.00 Build 0)  -->
<svg version="1.1" id="Layer_1" xmlns="http://www.w3.org/2000/svg" xmlns:xlink="http://www.w3.org/1999/xlink" x="0px" y="0px"
	 viewBox="0 0 100 100" enable-background="new 0 0 100 100" xml:space="preserve">
<g>
	<path fill="#856849" d="M46.48,99.18l-43.9-24.7c-0.9-0.5-1.4-1.1-1.5-1.8c-0.1-0.8,0.4-1.7,1.5-2.3l43.9-24.7c2-1.1,5.2-1.1,7.2,0
		l43.9,24.7c2,1.1,2,2.9,0,4.1l-43.9,24.7C51.68,100.28,48.48,100.28,46.48,99.18z"/>
	<polygon fill="#856849" points="1.08,68.18 99.08,67.88 99.08,72.38 1.08,72.68 	"/>
	<path fill="#3A2D18" d="M46.48,94.58l-43.9-24.7c-2-1.1-2-2.9,0-4.1l43.9-24.7c2-1.1,5.2-1.1,7.2,0l43.9,24.7c2,1.1,2,2.9,0,4.1
		l-43.9,24.7C51.68,95.78,48.48,95.78,46.48,94.58z"/>
</g>
<path fill="#4D4949" d="M46.88,90.68l-38.5-21.7c-1.8-1-1.8-2.6,0-3.6l38.5-21.7c1.8-1,4.6-1,6.4,0l38.5,21.7c1.8,1,1.8,2.6,0,3.6
	l-38.5,21.7C51.58,91.58,48.68,91.58,46.88,90.68z"/>
<polygon fill="#3A3939" points="40.5,78.79 37.71,80.34 34.92,78.79 37.71,77.24 "/>
<polygon fill="#3A3939" points="25.62,71.12 22.83,72.68 20.04,71.12 22.83,69.57 "/>
<path fill="#3A3939" d="M47.73,49.91L20.45,65.29V64.9h-1.97v2.26c0,0,0,0.01,0,0.01v0.01l0,0c0.01,0.47,0.34,0.94,0.99,1.3
	l0.36,0.2l27.9,15.73c0.63,0.33,1.48,0.5,2.35,0.5V49.36C49.23,49.36,48.39,49.55,47.73,49.91z"/>
<polygon fill="#3A3939" points="32.29,57.19 30.2,58.35 28.11,57.19 30.2,56.03 "/>
<polygon fill="#3A3939" points="24.3,60.21 22.22,61.37 20.13,60.21 22.22,59.05 "/>
<polygon fill="#3A3939" points="48.91,48.9 45.21,50.96 41.51,48.9 45.21,46.85 "/>
<polygon fill="#3A3939" points="75.74,73.98 71.43,76.37 67.12,73.98 71.43,71.58 "/>
<polygon fill="#3A3939" points="78.07,60.21 75.28,61.76 72.49,60.21 75.28,58.66 "/>
<polygon fill="#3A3939" points="55.81,84.52 53.72,85.68 51.64,84.52 53.72,83.36 "/>
<path fill="#191816" d="M81.69,67.14l0-2.23l-3.62-0.55l0,0L52.43,49.91c-0.66-0.36-1.51-0.55-2.35-0.55v35.55
	c0.83,0,1.7-0.17,2.35-0.5l27.91-15.73l0.36-0.2C81.37,68.11,81.69,67.63,81.69,67.14L81.69,67.14z"/>
<polygon fill="#3A3939" points="58.42,49.55 56.33,50.71 54.25,49.55 56.33,48.39 "/>
<path fill="#282727" d="M47.73,82.15L19.47,66.22c-1.32-0.73-1.32-1.91,0-2.64l28.27-15.93c1.32-0.73,3.38-0.73,4.7,0l28.27,15.93
	c1.32,0.73,1.32,1.91,0,2.64L52.43,82.15C51.18,82.82,49.05,82.82,47.73,82.15z"/>
<g>
	<polygon fill="#3A3939" points="36.52,36.12 36.52,57.19 34.01,55.79 34.01,36.12 	"/>
	<polygon fill="#191816" points="39.02,36.12 39.02,55.79 36.52,57.19 36.52,36.12 	"/>
	<polygon fill="#282727" points="39.02,36.13 36.52,37.52 34.01,36.13 36.52,34.74 	"/>
</g>
<path fill="#191816" d="M50.08,50.96v27.83c-0.65,0-1.33-0.13-1.84-0.39L26.39,66.09l-0.28-0.16c-1.03-0.57-1.03-1.49,0-2.07
	l22.13-12.47C48.76,51.11,49.42,50.96,50.08,50.96z"/>
<path fill="#3A3939" d="M74.04,65.93l-0.28,0.16L51.92,78.4c-0.49,0.26-1.16,0.39-1.84,0.39V50.96c0.66,0,1.32,0.15,1.84,0.43
	l22.12,12.47C75.08,64.44,75.08,65.36,74.04,65.93z"/>
<path fill="#9F1D20" d="M73.76,66.09L51.92,78.4c-0.98,0.52-2.64,0.52-3.68,0L26.39,66.09l21.85-12.32c1.04-0.57,2.64-0.57,3.68,0
	L73.76,66.09z"/>
<path fill="#9F1D20" d="M73.76,66.09l-3.11,1.75L51.92,78.4c-0.98,0.52-2.64,0.52-3.68,0L29.5,67.84l-3.11-1.75l21.85-12.32
	c1.04-0.57,2.64-0.57,3.68,0L73.76,66.09z"/>
<path fill="#AE2A32" d="M70.65,67.84L51.92,78.4c-0.98,0.52-2.64,0.52-3.68,0L29.5,67.84l18.74-10.56c1.04-0.57,2.64-0.57,3.68,0
	L70.65,67.84z"/>
<polygon fill="#3A3939" points="85.14,71.12 82.35,72.68 79.55,71.12 82.35,69.57 "/>
<polygon fill="#3A3939" points="45.21,84.72 42.77,86.08 40.32,84.72 42.77,83.36 "/>
<polygon fill="#3A3939" points="30.92,76.42 28.13,77.98 25.34,76.42 28.13,74.87 "/>
<polygon fill="#3A3939" points="67.26,79.95 65.18,81.11 63.09,79.95 65.18,78.79 "/>
<polygon fill="#3A3939" points="63.8,83.36 61.71,84.52 59.62,83.36 61.71,82.2 "/>
<polygon fill="#3A3939" points="65.88,52.18 63.8,53.34 61.71,52.18 63.8,51.03 "/>
<polygon fill="#3A3939" points="14.52,67.14 12.44,68.3 10.35,67.14 12.44,65.98 "/>
<path fill="none" stroke="#BE3C47" stroke-width="0.3417" stroke-miterlimit="10" d="M41.62,69.95c2.79-1.48,4.54-1.02,7.07-0.03
	c2.53,0.99,6.06-1.19,8.66,0.12"/>
<path fill="none" stroke="#BE3C47" stroke-width="0.3417" stroke-miterlimit="10" d="M42.81,67.01c2.79-1.48,4.54-1.02,7.07-0.03
	s6.06-1.19,8.66,0.12"/>
<path fill="#AE2A32" d="M70.66,67.84L51.92,78.4c-0.98,0.52-2.64,0.52-3.68,0L29.51,67.84l18.74-10.56c1.04-0.57,2.64-0.57,3.68,0
	L70.66,67.84z"/>
<ellipse fill="#9F1D20" cx="46.13" cy="71.7" rx="1.8" ry="1.1"/>
<ellipse fill="#9F1D20" cx="50.67" cy="62.86" rx="1.8" ry="1.1"/>
<ellipse fill="#9F1D20" cx="57.35" cy="68.3" rx="3.1" ry="1.8"/>
<g>
	<path fill="#4D4949" d="M38.12,37.86c0,0,4.12-0.34,5.53,3.61H41.5c0,0-0.14-1.55-3.39-1.81V37.86z"/>
	<ellipse fill="#4D4949" cx="42.57" cy="41.53" rx="1.07" ry="0.62"/>
	<ellipse fill="#4D4949" cx="38.13" cy="38.75" rx="0.53" ry="0.9"/>
</g>
</svg>
