<svg id="Layer_1" data-name="Layer 1" xmlns="http://www.w3.org/2000/svg" xmlns:xlink="http://www.w3.org/1999/xlink" viewBox="0 0 98.01 99.31"><defs><radialGradient id="radial-gradient" cx="43" cy="50.36" fx="64.2045199114394" fy="42.79949116962494" r="43.82" gradientTransform="matrix(1, 0, 0, -1, -1, 99.38)" gradientUnits="userSpaceOnUse"><stop offset="0" stop-color="#ed1c24"/><stop offset="0.06" stop-color="#ee222a" stop-opacity="0.93"/><stop offset="0.31" stop-color="#ef364b" stop-opacity="0.6"/><stop offset="0.53" stop-color="#ef4261" stop-opacity="0.33"/><stop offset="0.7" stop-color="#ef486f" stop-opacity="0.12"/><stop offset="0.79" stop-color="#ef4b74" stop-opacity="0"/></radialGradient></defs><path d="M46.41,99.11,2.51,74.41A2.57,2.57,0,0,1,1,72.61a2.43,2.43,0,0,1,1.5-2.3l43.9-24.7a8.27,8.27,0,0,1,7.2,0l43.9,24.7c2,1.1,2,2.9,0,4.1l-43.9,24.7A8.27,8.27,0,0,1,46.41,99.11Z" transform="translate(-1 -0.62)" fill="#856849"/><polygon points="0.01 67.49 98.01 67.19 98.01 71.69 0.01 71.99 0.01 67.49" fill="#856849"/><path d="M46.41,94.51,2.51,69.81c-2-1.1-2-2.9,0-4.1L46.41,41a8.27,8.27,0,0,1,7.2,0l43.9,24.7c2,1.1,2,2.9,0,4.1l-43.9,24.7A7.65,7.65,0,0,1,46.41,94.51Z" transform="translate(-1 -0.62)" fill="#3a2d18"/><path d="M46.81,90.61,8.31,68.91c-1.8-1-1.8-2.6,0-3.6l38.5-21.7a7.2,7.2,0,0,1,6.4,0l38.5,21.7c1.8,1,1.8,2.6,0,3.6l-38.5,21.7A7.92,7.92,0,0,1,46.81,90.61Z" transform="translate(-1 -0.62)" fill="#4d4949"/><polygon points="39.43 78.11 36.64 79.66 33.84 78.11 36.64 76.56 39.43 78.11" fill="#3a3939"/><path d="M48.85,56.74l-8.64-4.86a.52.52,0,0,1-.3-.35.47.47,0,0,1,.3-.45l8.64-4.86a1.61,1.61,0,0,1,1.42,0l8.64,4.86c.39.22.39.57,0,.81l-8.64,4.86A1.64,1.64,0,0,1,48.85,56.74Z" transform="translate(-1 -0.62)" fill="#383838"/><polygon points="38.91 50.02 58.21 49.96 58.21 50.84 38.91 50.9 38.91 50.02" fill="#15373f"/><path d="M48.85,55.84,40.21,51c-.39-.22-.39-.57,0-.81l8.64-4.86a1.61,1.61,0,0,1,1.42,0l8.64,4.86c.39.22.39.57,0,.81l-8.64,4.86A1.55,1.55,0,0,1,48.85,55.84Z" transform="translate(-1 -0.62)" fill="#606060"/><path d="M77.48,72.69l-8.64-4.86a.52.52,0,0,1-.3-.35.47.47,0,0,1,.3-.45l8.64-4.86a1.61,1.61,0,0,1,1.42,0L87.54,67c.39.22.39.57,0,.81L78.9,72.7A1.64,1.64,0,0,1,77.48,72.69Z" transform="translate(-1 -0.62)" fill="#383838"/><polygon points="67.54 65.96 86.83 65.91 86.83 66.79 67.54 66.85 67.54 65.96" fill="#15373f"/><path d="M77.48,71.78l-8.64-4.86c-.39-.22-.39-.57,0-.81l8.64-4.86a1.61,1.61,0,0,1,1.42,0l8.64,4.86c.39.22.39.57,0,.81L78.9,71.78A1.49,1.49,0,0,1,77.48,71.78Z" transform="translate(-1 -0.62)" fill="#606060"/><polygon points="24.55 70.44 21.76 71.99 18.96 70.44 21.76 68.89 24.55 70.44" fill="#3a3939"/><polygon points="35.98 61.04 33.19 62.59 30.4 61.04 33.19 59.49 35.98 61.04" fill="#3a3939"/><polygon points="31.21 56.51 29.13 57.66 27.04 56.51 29.13 55.35 31.21 56.51" fill="#3a3939"/><polygon points="23.23 59.53 21.14 60.69 19.06 59.53 21.14 58.37 23.23 59.53" fill="#3a3939"/><polygon points="52.06 78.95 47.75 81.34 43.44 78.95 47.75 76.56 52.06 78.95" fill="#3a3939"/><polygon points="63.43 66.85 60.64 68.4 57.85 66.85 60.64 65.3 63.43 66.85" fill="#3a3939"/><polygon points="54.74 83.84 52.65 85 50.56 83.84 52.65 82.68 54.74 83.84" fill="#3a3939"/><polygon points="39.11 54.12 37.03 55.28 34.94 54.12 37.03 52.97 39.11 54.12" fill="#3a3939"/><polygon points="27.48 63.28 25.4 64.44 23.31 63.28 25.4 62.12 27.48 63.28" fill="#3a3939"/><polygon points="57.58 58.37 55.49 59.53 53.41 58.37 55.49 57.21 57.58 58.37" fill="#3a3939"/><polygon points="48.56 18.15 48.56 54.12 41.59 50.26 41.59 29.36 42.35 27.83 41.59 26.23 41.59 18.15 48.56 18.15" fill="#3a3939"/><polygon points="55.49 18.15 55.49 50.26 48.56 54.12 48.56 18.15 55.49 18.15" fill="#282725"/><polygon points="55.5 18.17 48.54 22.03 41.59 18.17 48.54 14.31 55.5 18.17" fill="#282727"/><polyline points="52.02 23.36 52.02 51.92 73.71 64.44 75.6 33.26 51.47 23.36" fill="#ae2a32" opacity="0.89" style="isolation:isolate"/><polygon points="77.2 33.93 77.2 69.9 70.23 66.03 70.23 33.93 77.2 33.93" fill="#3a3939"/><polygon points="84.13 33.93 84.13 54.7 83.33 55.66 84.13 57.06 84.13 66.03 77.2 69.9 77.2 33.93 84.13 33.93" fill="#282725"/><polygon points="84.14 33.95 77.19 37.81 70.23 33.95 77.19 30.08 84.14 33.95" fill="#282727"/><polygon points="44.14 84.04 41.69 85.4 39.25 84.04 41.69 82.68 44.14 84.04" fill="#3a3939"/><polygon points="29.85 75.74 27.06 77.29 24.26 75.74 27.06 74.19 29.85 75.74" fill="#3a3939"/><polygon points="60.64 74.96 58.55 76.12 56.46 74.96 58.55 73.8 60.64 74.96" fill="#3a3939"/><polygon points="73.79 74.96 71.71 76.12 69.62 74.96 71.71 73.8 73.79 74.96" fill="#3a3939"/><polygon points="62.72 82.68 60.64 83.84 58.55 82.68 60.64 81.52 62.72 82.68" fill="#3a3939"/><polygon points="13.45 66.46 11.36 67.61 9.28 66.46 11.36 65.3 13.45 66.46" fill="#3a3939"/><path d="M42.67,6.49l-.44.23A1.24,1.24,0,0,1,42.67,6.49Z" transform="translate(-1 -0.62)" fill="#606060"/><polygon points="37.57 21.4 37.55 21.41 37.55 21.4 37.57 21.4" fill="#2b2b2b"/><polygon points="48.56 22.02 48.56 28.55 41.59 23.77 41.59 18.16 48.54 22.03 48.56 22.02" fill="#2b2b2b"/><polygon points="66.21 37.18 66.19 37.19 66.19 37.18 66.21 37.18" fill="#2b2b2b"/><ellipse cx="45.07" cy="67.61" rx="10.57" ry="6.57" fill="none" stroke="#f46464" stroke-miterlimit="10"/><polygon points="53.3 66.7 39.18 71.63 45.21 62.42 49.76 72.08 37.23 65.44 53.3 66.7" fill="none" stroke="#f46464" stroke-miterlimit="10"/><polygon points="77.2 37.79 77.2 43.55 70.23 40.5 70.23 33.94 77.19 37.8 77.2 37.79" fill="#2b2b2b"/><polygon points="51.96 27.91 10.98 0 4.09 31.06 10.34 68.57 79.91 98.04 70.71 37.46 58.69 28.61 51.96 27.91" fill="url(#radial-gradient)"/><path d="M95.68,31.62l-7.61,3.73v2.77l-3-1.31L64.93,28,45,14.38a3.55,3.55,0,0,1-1.23-1.49L37.72,9.37l-.51-2.31,6.86-3.53.44-.23h0a1.43,1.43,0,0,1,1.1.13L61,11.93l1.76,1.91,1.79.06L83.86,24.62l-.1,1.28,2.93.28,7.88,4.37A3.08,3.08,0,0,1,95.68,31.62Z" transform="translate(-1 -0.62)" fill="#606060"/><path d="M35.94,15.28V8.51A1.45,1.45,0,0,1,38.1,7.24l2.82,1.57,1.53,1.71,1.91.2L87,34.38a3.14,3.14,0,0,1,1.62,2.75v6.15a1.46,1.46,0,0,1-2,1.33L66.44,35.8,64.54,34l-1.69.22-5.47-2.39L37.48,18.2A3.55,3.55,0,0,1,35.94,15.28Z" transform="translate(-1 -0.62)" fill="#3a3939"/><path d="M42.63,18.5V13.84A1,1,0,0,1,44.11,13L77.74,31.63a2.16,2.16,0,0,1,1.11,1.89v4.23a1,1,0,0,1-1.39.91l-20.1-8.78L43.68,20.51A2.47,2.47,0,0,1,42.63,18.5Z" transform="translate(-1 -0.62)" fill="#353032"/><path d="M96.18,33.31v6.14a1.38,1.38,0,0,1-.5,1.08l-.66.34h0l-6.94,3.55V35.35l7.61-3.73A3.1,3.1,0,0,1,96.18,33.31Z" transform="translate(-1 -0.62)" fill="#282725"/><path d="M161.22,43" transform="translate(-1 -0.62)" fill="#9f1d20"/></svg>