<?xml version="1.0" encoding="utf-8"?>
<!-- Generator: Adobe Illustrator 25.0.1, SVG Export Plug-In . SVG Version: 6.00 Build 0)  -->
<svg version="1.1" id="Layer_1" xmlns="http://www.w3.org/2000/svg" xmlns:xlink="http://www.w3.org/1999/xlink" x="0px" y="0px"
	 viewBox="0 0 100 100" enable-background="new 0 0 100 100" xml:space="preserve">
<path fill="#FFFFFF" d="M39.43,50.71c-6.25-10.01-6.29-16.95-6.29-16.95s-0.03,6.95-6.29,16.95c-6.19,9.91,2.1,15.05,6.29,15.05
	C37.33,65.76,45.62,60.62,39.43,50.71z"/>
<path fill="#FFFFFF" d="M57.66,66.51c-6.25-10.01-6.29-16.95-6.29-16.95s-0.03,6.95-6.29,16.95c-6.19,9.91,2.1,15.05,6.29,15.05
	C55.57,81.56,63.85,76.41,57.66,66.51z"/>
<path fill="#FFFFFF" d="M57.65,32.49c-6.25-10.01-6.29-16.95-6.29-16.95s-0.03,6.95-6.29,16.95c-6.19,9.91,2.1,15.05,6.29,15.05
	C55.56,47.54,63.84,42.39,57.65,32.49z"/>
<path fill="#FFFFFF" d="M75.89,48.29c-6.25-10.01-6.29-16.95-6.29-16.95s-0.03,6.95-6.29,16.95c-6.19,9.91,2.1,15.05,6.29,15.05
	C73.79,63.33,82.08,58.19,75.89,48.29z"/>
</svg>
