<?xml version="1.0" encoding="utf-8"?>
<!-- Generator: Adobe Illustrator 25.0.1, SVG Export Plug-In . SVG Version: 6.00 Build 0)  -->
<svg version="1.1" id="Layer_1" xmlns="http://www.w3.org/2000/svg" xmlns:xlink="http://www.w3.org/1999/xlink" x="0px" y="0px"
	 viewBox="0 0 100 100" enable-background="new 0 0 100 100" xml:space="preserve">
<path fill="#DDC4A1" d="M50.5,15.43c0,0-30.77-0.65-21.78,35.57l11.86-2.1c0,0-11.45-24.61,9.92-32.03"/>
<path fill="#DDC4A1" d="M50.5,15.43c0,0,30.77-0.65,21.78,35.57l-11.86-2.1c0,0,11.45-24.61-9.92-32.03"/>
<circle fill="#DD3450" cx="50.5" cy="16.48" r="7.99"/>
<circle fill="#EF4258" cx="50.5" cy="16.48" r="5.39"/>
<circle opacity="0.62" fill="#FCDCE4" cx="48.06" cy="13.53" r="2.44"/>
<circle opacity="0.62" fill="#FCDCE4" cx="54.24" cy="19.71" r="1.41"/>
<path fill="#EF4258" d="M72.26,51c-15.96-4.92-21.7-4.48-21.77-4.46c-0.06-0.02-5.81-0.46-21.77,4.46c0,0-4.2-6.65-15.24-7.04
	c0,0,5.32,18.11,15.24,25.28c9.91,7.17,0.51,23.84,21.77,23.84v0c0,0,0,0,0.01,0s0,0,0.01,0v0c21.25-0.01,11.85-16.68,21.77-23.84
	c9.92-7.17,15.24-25.28,15.24-25.28C76.46,44.35,72.26,51,72.26,51z"/>
<path fill="#E5E5E5" d="M32.3,58.19c0,0,5.77-3.37,14.92,5.77C47.22,63.96,40.74,74.81,32.3,58.19z"/>
<path fill="#E5E5E5" d="M68.68,58.19c0,0-5.77-3.37-14.92,5.77C53.76,63.96,60.24,74.81,68.68,58.19z"/>
<path fill="#9E1C3E" d="M49.14,70.69c0,0-6.01,7.44-1.78,15.38C51.58,94,49.14,70.69,49.14,70.69z"/>
<path fill="#9E1C3E" d="M52.44,70.69c0,0,6.01,7.44,1.78,15.38C50,94,52.44,70.69,52.44,70.69z"/>
<path fill="#9E1C3E" d="M17.07,47.72c0,0,7.56,2.35,8.47,6.91c0.91,4.56-0.78,5.08-0.78,5.08S19.54,55.4,17.07,47.72z"/>
<path fill="#9E1C3E" d="M84.44,47.72c0,0-7.56,2.35-8.47,6.91s0.78,5.08,0.78,5.08S81.97,55.4,84.44,47.72z"/>
</svg>
