<?xml version="1.0" encoding="utf-8"?>
<!-- Generator: Adobe Illustrator 25.0.1, SVG Export Plug-In . SVG Version: 6.00 Build 0)  -->
<svg version="1.1" id="Layer_1" xmlns="http://www.w3.org/2000/svg" xmlns:xlink="http://www.w3.org/1999/xlink" x="0px" y="0px"
	 viewBox="0 0 100 100" style="enable-background:new 0 0 100 100;" xml:space="preserve">
<style type="text/css">
	.st0{fill:#869DD0;}
	.st1{fill:#7385C1;}
	.st2{fill:#6374B8;}
	.st3{fill:#6B472D;}
</style>
<path class="st0" d="M41.9,86.9c-2.1,5.4-4.4,8.9-6.4,7.8c-0.7-0.4-0.8-2.8,0-7.2c1.3-7,4.8-19.1,11.9-36.5c11.5-28.3,6.1-7.5,4,1.2
	C49.9,58,46.1,76.2,41.9,86.9z"/>
<path class="st1" d="M42.3,40.4c0,0,5.9,5.4,5.3,9.2c-0.2,1.2,3.5,3.1,4.2,1.6c1.8-4.4,10.7-2.4,10.7-2.4L42.3,40.4z"/>
<path class="st2" d="M69.6,28.3c1.6,5.4,8,24.2,5.4,24.2c-8,0.1-29.4-6.9-44.8-13.6c-7.4-3.2,11.7-12.3,18.7-17.2
	c6.5-4.6,15.3-16.8,18.8-16.2C70.3,5.9,67.4,20.7,69.6,28.3z"/>
<path class="st3" d="M41.9,86.9c-2.1,5.4-4.4,8.9-6.4,7.8c-0.7-0.4-0.8-2.8,0-7.2c0,0,2.1-3,2.4-1.5c0.2,1.5-0.8,3.2,0.4,2.3
	C39.3,87.5,41.6,84.8,41.9,86.9z"/>
<ellipse class="st0" cx="44.6" cy="35.4" rx="3.3" ry="1.8"/>
<ellipse transform="matrix(0.866 -0.5 0.5 0.866 -12.9705 30.4141)" class="st0" cx="50.3" cy="39.4" rx="1.1" ry="1.6"/>
<circle class="st0" cx="67.8" cy="45.8" r="1.6"/>
<circle class="st0" cx="56.8" cy="22.4" r="1.6"/>
</svg>
