<?xml version="1.0" encoding="utf-8"?>
<!-- Generator: Adobe Illustrator 25.0.1, SVG Export Plug-In . SVG Version: 6.00 Build 0)  -->
<svg version="1.1" id="Layer_1" xmlns="http://www.w3.org/2000/svg" xmlns:xlink="http://www.w3.org/1999/xlink" x="0px" y="0px"
	 viewBox="0 0 100 100" style="enable-background:new 0 0 100 100;" xml:space="preserve">
<style type="text/css">
	.st0{fill:#FFFFFF;}
</style>
<path class="st0" d="M65,34.1c-1.6-5.6,0.5-16.5-1.4-16.8c-2.6-0.4-9.1,8.5-13.8,11.9C44.6,32.8,30.5,39.5,36,41.9
	c3.7,1.6,7.8,3.2,11.9,4.7c0.7,1.1,1.1,2.2,1,3.2c0,0.1,0,0.3,0.1,0.4c-0.1,0.2-0.2,0.4-0.3,0.6c-5.2,12.8-7.8,21.7-8.8,26.9
	c-0.6,3.2-0.5,5,0,5.3c1.5,0.8,3.2-1.8,4.7-5.7c3.1-7.9,5.9-21.3,7-25.5c0-0.2,0.1-0.3,0.1-0.5c0.1-0.1,0.1-0.1,0.2-0.2
	c0.5-1.3,1.8-1.8,3.2-2c5.9,1.8,11,3,13.9,3C70.9,51.9,66.2,38.1,65,34.1z"/>
</svg>
