<?xml version="1.0" encoding="utf-8"?>
<!-- Generator: Adobe Illustrator 25.0.1, SVG Export Plug-In . SVG Version: 6.00 Build 0)  -->
<svg version="1.1" id="Layer_1" xmlns="http://www.w3.org/2000/svg" xmlns:xlink="http://www.w3.org/1999/xlink" x="0px" y="0px"
	 viewBox="0 0 100 100" enable-background="new 0 0 100 100" xml:space="preserve">
<polygon fill="#567B65" points="17.06,98.71 9.16,90.8 74.49,12.7 82.85,20.79 "/>
<path fill="#567B65" d="M16,11.67v84.41c0,2.11,1.71,3.83,3.83,3.83h69.02c2.11,0,3.83-1.71,3.83-3.83V11.67
	c0-2.11-1.71-3.83-3.83-3.83H19.83C17.72,7.84,16,9.56,16,11.67z"/>
<g>
	<path fill="#E2C4A7" d="M11.78,7.77v77.44c0,1.94,1.57,3.51,3.51,3.51H78.6c1.94,0,3.51-1.57,3.51-3.51V7.77
		c0-1.94-1.57-3.51-3.51-3.51H15.29C13.35,4.26,11.78,5.83,11.78,7.77z"/>
	<path fill="#E2C4A7" d="M18.85,14.84v77.44c0,1.94,1.57,3.51,3.51,3.51h63.31c1.94,0,3.51-1.57,3.51-3.51V14.84
		c0-1.94-1.57-3.51-3.51-3.51H22.36C20.42,11.33,18.85,12.9,18.85,14.84z"/>
	<polygon fill="#E2C4A7" points="20,94.87 13.16,87.98 80.94,5.15 88.07,12.28 	"/>
</g>
<path fill="#567B65" d="M8.29,3.96v84.41c0,2.11,1.71,3.83,3.83,3.83h69.02c2.11,0,3.83-1.71,3.83-3.83V3.96
	c0-2.11-1.71-3.83-3.83-3.83H12.12C10,0.13,8.29,1.85,8.29,3.96z"/>
<path fill="none" stroke="#8EB79E" stroke-width="1.0787" stroke-miterlimit="10" d="M13.64,9.05v74.23c0,1.86,1.47,3.36,3.29,3.36
	h59.4c1.82,0,3.29-1.51,3.29-3.36V9.05c0-1.86-1.47-3.36-3.29-3.36h-59.4C15.11,5.68,13.64,7.19,13.64,9.05z"/>
<polygon fill="#8EB79E" points="73.49,86.58 67.28,83.47 60.28,86.49 66.87,89.82 "/>
<polygon fill="#8EB79E" points="13.55,53.88 11.21,60.75 13.55,68.46 16.07,61.17 "/>
<polygon fill="#8EB79E" points="79.53,20.02 77.19,26.89 79.53,34.6 82.05,27.31 "/>
<polygon fill="#8EB79E" points="51.24,5.6 44.37,3.25 36.66,5.6 43.95,8.11 "/>
<circle fill="#B8B8B8" cx="-1.6" cy="-39.72" r="20.45"/>
<circle fill="#B8B8B8" cx="-1.6" cy="-39.72" r="15.83"/>
<path fill="#B8B8B8" d="M83.42-57.5c-1.32,5.94-6.62,10.38-12.96,10.38c-6.09,0-11.23-4.11-12.78-9.7c2.13-0.98,6.41-2.49,9.25-0.52
	C69.97-55.23,78.06-54.95,83.42-57.5z"/>
<rect x="-7.04" y="-69.12" fill="#B8B8B8" width="10.89" height="19.7"/>
<rect x="-9.43" y="-75.78" fill="#B8B8B8" width="15.66" height="4.77"/>
<path fill="#B8B8B8" d="M75.91-80.11v-9.69H65.02v9.69c-8.65,2.37-15.01,10.3-15.01,19.71c0,11.29,9.16,20.45,20.45,20.45
	c11.3,0,20.45-9.16,20.45-20.45C90.91-69.81,84.56-77.73,75.91-80.11z M70.46-44.57c-8.74,0-15.83-7.09-15.83-15.83
	c0-6.84,4.33-12.65,10.39-14.87c1.69-0.62,3.53-0.96,5.44-0.96c1.92,0,3.75,0.34,5.45,0.96c6.06,2.22,10.38,8.04,10.38,14.87
	C86.29-51.66,79.21-44.57,70.46-44.57z"/>
<rect x="61.07" y="-98.3" fill="#B8B8B8" width="18.79" height="5.72"/>
<path fill="#B8B8B8" d="M83.42-57.5c-1.32,5.94-6.62,10.38-12.96,10.38c-6.09,0-11.23-4.11-12.78-9.7c2.13-0.98,6.41-2.49,9.25-0.52
	C69.97-55.23,78.06-54.95,83.42-57.5z"/>
<circle fill="#B8B8B8" cx="76.37" cy="-62.35" r="3.5"/>
<circle fill="#B8B8B8" cx="66.14" cy="-67.45" r="2.49"/>
<g>
	<path fill="#ADC7AB" d="M57.85,57.67c-1.07,4.82-5.38,8.43-10.52,8.43c-4.95,0-9.12-3.34-10.38-7.88c1.73-0.8,5.21-2.02,7.51-0.42
		C46.93,59.51,53.5,59.74,57.85,57.67z"/>
	<path fill="#ADC7AB" d="M51.75,39.31v-7.87h-8.84v7.87c-7.02,1.92-12.19,8.36-12.19,16.01c0,9.17,7.44,16.61,16.61,16.61
		c9.18,0,16.61-7.44,16.61-16.61C63.93,47.67,58.77,41.24,51.75,39.31z M47.32,68.17c-7.1,0-12.85-5.76-12.85-12.85
		c0-5.55,3.52-10.27,8.44-12.08c1.37-0.5,2.87-0.78,4.42-0.78c1.56,0,3.05,0.28,4.43,0.78c4.92,1.8,8.43,6.53,8.43,12.08
		C60.18,62.41,54.43,68.17,47.32,68.17z"/>
	<rect x="40.88" y="28.35" fill="#ADC7AB" width="12.9" height="6.32"/>
	<rect x="43.66" y="24.09" fill="#ADC7AB" width="7.33" height="3.16"/>
	<path fill="#ADC7AB" d="M57.85,57.67c-1.07,4.82-5.38,8.43-10.52,8.43c-4.95,0-9.12-3.34-10.38-7.88c1.73-0.8,5.21-2.02,7.51-0.42
		C46.93,59.51,53.5,59.74,57.85,57.67z"/>
	<circle fill="#ADC7AB" cx="52.12" cy="53.73" r="2.84"/>
	<circle fill="#ADC7AB" cx="43.81" cy="49.58" r="2.03"/>
</g>
</svg>
