<?xml version="1.0" encoding="utf-8"?>
<!-- Generator: Adobe Illustrator 25.0.1, SVG Export Plug-In . SVG Version: 6.00 Build 0)  -->
<svg version="1.1" id="Layer_1" xmlns="http://www.w3.org/2000/svg" xmlns:xlink="http://www.w3.org/1999/xlink" x="0px" y="0px"
	 viewBox="0 0 100 100" enable-background="new 0 0 100 100" xml:space="preserve">
<polygon fill="#75587B" points="17.1,98.7 9.2,90.8 74.5,12.7 82.9,20.8 "/>
<path fill="#75587B" d="M16,11.7v84.4c0,2.1,1.7,3.8,3.8,3.8h69c2.1,0,3.8-1.7,3.8-3.8V11.7c0-2.1-1.7-3.8-3.8-3.8h-69
	C17.7,7.8,16,9.6,16,11.7z"/>
<g>
	<path fill="#E2C4A7" d="M11.8,7.8v77.4c0,1.9,1.6,3.5,3.5,3.5h63.3c1.9,0,3.5-1.6,3.5-3.5V7.8c0-1.9-1.6-3.5-3.5-3.5H15.3
		C13.4,4.3,11.8,5.8,11.8,7.8z"/>
	<path fill="#E2C4A7" d="M18.9,14.8v77.4c0,1.9,1.6,3.5,3.5,3.5h63.3c1.9,0,3.5-1.6,3.5-3.5V14.8c0-1.9-1.6-3.5-3.5-3.5H22.4
		C20.4,11.3,18.9,12.9,18.9,14.8z"/>
	<polygon fill="#E2C4A7" points="20,94.9 13.2,88 80.9,5.1 88.1,12.3 	"/>
</g>
<path fill="#75587B" d="M8.3,4v84.4c0,2.1,1.7,3.8,3.8,3.8h69c2.1,0,3.8-1.7,3.8-3.8V4c0-2.1-1.7-3.8-3.8-3.8h-69
	C10,0.1,8.3,1.8,8.3,4z"/>
<path fill="none" stroke="#B08FB8" stroke-width="1.0787" stroke-miterlimit="10" d="M13.6,9v74.2c0,1.9,1.5,3.4,3.3,3.4h59.4
	c1.8,0,3.3-1.5,3.3-3.4V9c0-1.9-1.5-3.4-3.3-3.4H16.9C15.1,5.7,13.6,7.2,13.6,9z"/>
<polygon fill="#B08FB8" points="73.5,86.6 67.3,83.5 60.3,86.5 66.9,89.8 "/>
<polygon fill="#B08FB8" points="13.6,53.9 11.2,60.7 13.6,68.5 16.1,61.2 "/>
<polygon fill="#B08FB8" points="79.5,20 77.2,26.9 79.5,34.6 82.1,27.3 "/>
<polygon fill="#B08FB8" points="51.2,5.6 44.4,3.2 36.7,5.6 44,8.1 "/>
<path fill="#C8BAD8" d="M45.8,55.4L45.8,55.4c-0.7,1.2-2.6,0.7-2.5-0.7v0c0-1-1-1.7-2-1.3l0,0c-1.3,0.6-2.5-0.8-1.7-2l0,0
	c0.6-0.9,0-2-1-2.1l0,0c-1.4-0.2-1.7-2.1-0.4-2.6h0c0.9-0.4,1.1-1.7,0.3-2.3l0,0c-1.1-0.9-0.3-2.6,1.1-2.4h0c1,0.2,1.8-0.8,1.5-1.8
	v0c-0.4-1.3,1.2-2.4,2.2-1.4l0,0c0.8,0.7,2,0.3,2.3-0.7l0,0c0.4-1.4,2.3-1.4,2.7,0v0c0.3,1,1.5,1.3,2.3,0.7l0,0
	c1-0.9,2.7,0.1,2.2,1.4v0c-0.3,1,0.5,1.9,1.5,1.8h0c1.4-0.2,2.2,1.5,1.1,2.4l0,0c-0.8,0.7-0.6,1.9,0.3,2.3h0c1.3,0.6,1,2.5-0.4,2.6
	l0,0c-1,0.1-1.5,1.3-1,2.1l0,0c0.8,1.2-0.5,2.6-1.7,2l0,0c-0.9-0.4-2,0.2-2,1.3v0c0,1.4-1.8,1.9-2.5,0.7l0,0
	C47.6,54.5,46.3,54.5,45.8,55.4z"/>
<line fill="none" stroke="#C8BAD8" stroke-width="1.0975" stroke-linecap="round" stroke-miterlimit="10" x1="46.9" y1="32.5" x2="46.9" y2="26.4"/>
<circle fill="none" stroke="#B8ABC7" stroke-width="1.0975" stroke-miterlimit="10" cx="46.9" cy="24.4" r="2"/>
<line fill="none" stroke="#C8BAD8" stroke-width="1.0975" stroke-linecap="round" stroke-miterlimit="10" x1="46.9" y1="60.4" x2="46.9" y2="66.6"/>
<circle fill="none" stroke="#C8BAD8" stroke-width="1.0975" stroke-miterlimit="10" cx="46.9" cy="68.6" r="2"/>
<line fill="none" stroke="#C8BAD8" stroke-width="1.0975" stroke-linecap="round" stroke-miterlimit="10" x1="37.1" y1="36.6" x2="32.7" y2="32.3"/>
<line fill="none" stroke="#C8BAD8" stroke-width="1.0975" stroke-linecap="round" stroke-miterlimit="10" x1="56.8" y1="56.4" x2="61.2" y2="60.7"/>
<line fill="none" stroke="#C8BAD8" stroke-width="1.0975" stroke-linecap="round" stroke-miterlimit="10" x1="33" y1="46.5" x2="26.8" y2="46.5"/>
<circle fill="none" stroke="#C8BAD8" stroke-width="1.0975" stroke-miterlimit="10" cx="24.9" cy="46.5" r="2"/>
<line fill="none" stroke="#C8BAD8" stroke-width="1.0975" stroke-linecap="round" stroke-miterlimit="10" x1="60.9" y1="46.5" x2="67.1" y2="46.5"/>
<circle fill="none" stroke="#C8BAD8" stroke-width="1.0975" stroke-miterlimit="10" cx="69" cy="46.5" r="2"/>
<line fill="none" stroke="#C8BAD8" stroke-width="1.0975" stroke-linecap="round" stroke-miterlimit="10" x1="37.1" y1="56.4" x2="32.7" y2="60.7"/>
<line fill="none" stroke="#C8BAD8" stroke-width="1.0975" stroke-linecap="round" stroke-miterlimit="10" x1="56.8" y1="36.6" x2="61.2" y2="32.3"/>
<line fill="none" stroke="#C8BAD8" stroke-width="1.0975" stroke-linecap="round" stroke-miterlimit="10" x1="34.1" y1="41" x2="28.5" y2="38.5"/>
<line fill="none" stroke="#C8BAD8" stroke-width="1.0975" stroke-linecap="round" stroke-miterlimit="10" x1="59.8" y1="52" x2="65.4" y2="54.4"/>
<line fill="none" stroke="#C8BAD8" stroke-width="1.0975" stroke-linecap="round" stroke-miterlimit="10" x1="41.4" y1="59.3" x2="39" y2="65"/>
<line fill="none" stroke="#C8BAD8" stroke-width="1.0975" stroke-linecap="round" stroke-miterlimit="10" x1="52.5" y1="33.7" x2="54.9" y2="28"/>
<line fill="none" stroke="#C8BAD8" stroke-width="1.0975" stroke-linecap="round" stroke-miterlimit="10" x1="41.6" y1="33.6" x2="39.2" y2="27.9"/>
<line fill="none" stroke="#C8BAD8" stroke-width="1.0975" stroke-linecap="round" stroke-miterlimit="10" x1="52.3" y1="59.4" x2="54.7" y2="65.1"/>
<line fill="none" stroke="#C8BAD8" stroke-width="1.0975" stroke-linecap="round" stroke-miterlimit="10" x1="34.1" y1="51.8" x2="28.4" y2="54.2"/>
<line fill="none" stroke="#C8BAD8" stroke-width="1.0975" stroke-linecap="round" stroke-miterlimit="10" x1="59.8" y1="41.1" x2="65.5" y2="38.8"/>
</svg>
