<?xml version="1.0" encoding="utf-8"?>
<!-- Generator: Adobe Illustrator 25.0.1, SVG Export Plug-In . SVG Version: 6.00 Build 0)  -->
<svg version="1.1" id="Layer_1" xmlns="http://www.w3.org/2000/svg" xmlns:xlink="http://www.w3.org/1999/xlink" x="0px" y="0px"
	 viewBox="0 0 100 100" enable-background="new 0 0 100 100" xml:space="preserve">
<polygon fill="#B64444" points="19.3,98.7 11.4,90.8 76.7,12.7 85.1,20.8 "/>
<path fill="#B64444" d="M18.2,11.6v84.4c0,2.1,1.7,3.8,3.8,3.8h69c2.1,0,3.8-1.7,3.8-3.8V11.6c0-2.1-1.7-3.8-3.8-3.8h-69
	C20,7.8,18.2,9.5,18.2,11.6z"/>
<g>
	<path fill="#E2C4A6" d="M14,7.8v77.4c0,1.9,1.6,3.5,3.5,3.5h63.3c1.9,0,3.5-1.6,3.5-3.5V7.8c0-1.9-1.6-3.5-3.5-3.5H17.5
		C15.6,4.2,14,5.8,14,7.8z"/>
	<path fill="#E2C4A6" d="M21.1,14.8v77.4c0,1.9,1.6,3.5,3.5,3.5h63.3c1.9,0,3.5-1.6,3.5-3.5V14.8c0-1.9-1.6-3.5-3.5-3.5H24.6
		C22.7,11.3,21.1,12.9,21.1,14.8z"/>
	<polygon fill="#E2C4A6" points="22.2,94.8 15.4,88 83.2,5.1 90.3,12.3 	"/>
</g>
<path fill="#B64444" d="M10.5,3.9v84.4c0,2.1,1.7,3.8,3.8,3.8h69c2.1,0,3.8-1.7,3.8-3.8V3.9c0-2.1-1.7-3.8-3.8-3.8h-69
	C12.2,0.1,10.5,1.8,10.5,3.9z"/>
<path fill="none" stroke="#F37374" stroke-width="1.0787" stroke-miterlimit="10" d="M15.9,9v74.2c0,1.9,1.5,3.4,3.3,3.4h59.4
	c1.8,0,3.3-1.5,3.3-3.4V9c0-1.9-1.5-3.4-3.3-3.4H19.2C17.4,5.7,15.9,7.2,15.9,9z"/>
<path fill="#B64444" d="M19.3,98.7"/>
<polygon fill="#DB6767" points="-57.8,32.6 -68.3,22.7 -67,10.9 -60.5,4.9 -61,12.2 -60.7,18.7 -52.2,23.8 -42.8,22.2 -42.8,59.2 
	-47.2,50 -49.3,57.1 -52.5,48.8 -55.5,53.3 "/>
<path fill="#DB6767" d="M-60.8,90.9l-3.5-3.3c-2.5-2.4-3.8-5.8-3.4-9.3l0.3-2.3c0.3-2.6,1.5-5,3.4-6.8l3.5-3.3l-0.5,6.7
	c0,0.4,0,0.9,0,1.3l0,0c0.2,3.7,2.2,7,5.4,8.9l0,0c2.2,1.3,4.8,1.8,7.3,1.4l5.4-0.9v36.9l-4.4-9.2l-2,7.1l-3.2-8.3l-3.1,4.5
	l-1.8-16.6C-57.6,95.2-58.8,92.7-60.8,90.9z"/>
<path fill="#383838" d="M-52.2,93.8l6.6,4.7c0,0-6.6,1-8-1.1C-54.9,95.3-52.2,93.8-52.2,93.8z"/>
<path fill="#DB6767" d="M-24.8,90.9l3.5-3.3c2.5-2.4,3.8-5.8,3.4-9.3l-0.3-2.3c-0.3-2.6-1.5-5-3.4-6.8l-3.5-3.3l0.5,6.7
	c0,0.4,0,0.9,0,1.3l0,0c-0.2,3.7-2.2,7-5.4,8.9v0c-2.2,1.3-4.8,1.8-7.3,1.4l-5.4-0.9v36.9l4.4-9.2l2,7.1l3.2-8.3l3.1,4.5l1.8-16.6
	C-28,95.2-26.8,92.7-24.8,90.9z"/>
<path fill="#383838" d="M-33.4,93.8l-6.6,4.7c0,0,6.6,1,8-1.1C-30.7,95.3-33.4,93.8-33.4,93.8z"/>
<path fill="#DB6767" d="M-17.9,137.8l-0.3-2.3c-0.3-2.6-1.5-5-3.4-6.8l-3.5-3.3l0.5,6.7c0,0.4,0,0.9,0,1.3c-0.1,1.8-0.6,3.6-1.6,5.1
	c-0.9,1.5-2.2,2.8-3.8,3.8l0,0c-2.2,1.3-4.8,1.8-7.3,1.4l-2-0.3c-2.3-0.4-4.7-0.4-7,0l-2,0.3c-2.5,0.4-5.1-0.1-7.3-1.4l0,0
	c-1.6-0.9-2.9-2.2-3.8-3.8c-0.9-1.5-1.5-3.3-1.6-5.1c0-0.4,0-0.9,0-1.3l0.5-6.7l-3.5,3.3c-1.9,1.8-3.1,4.2-3.4,6.8l-0.3,2.3
	c-0.4,3.5,0.9,6.9,3.4,9.3l3.5,3.3c1.9,1.8,3.1,4.2,3.4,6.8l1.8,16.6l3.1-8.5l3.2,12.3l1-3.4c0.7-2.5,1.6-4.9,2.7-7.2l2.8-6.3
	l2.8,6.2c1.1,2.4,2,4.8,2.7,7.3l1,3.4l3.2-12.3l3.1,8.5l1.8-16.6c0.3-2.6,1.5-5,3.4-6.8l3.5-3.3C-18.8,144.7-17.5,141.2-17.9,137.8z
	 M-53.5,156.8c-1.4-2.1,1.4-3.6,1.4-3.6l7.9,5.6C-44.2,158.8-52.2,158.9-53.5,156.8z M-32.1,156.8c-1.4,2.1-9.3,2-9.3,2l7.9-5.6
	C-33.4,153.2-30.7,154.7-32.1,156.8z"/>
<polygon fill="#F37374" points="75.7,86.6 69.5,83.4 62.5,86.5 69.1,89.8 "/>
<polygon fill="#F37374" points="15.8,53.9 13.4,60.7 15.8,68.4 18.3,61.2 "/>
<polygon fill="#F37374" points="81.8,20 79.4,26.9 81.8,34.6 84.3,27.3 "/>
<polygon fill="#F37374" points="53.5,5.6 46.6,3.2 38.9,5.6 46.2,8.1 "/>
<path fill="#F4B9BB" d="M177.6,24.6l-0.2-1.5c-0.2-1.7-1-3.3-2.2-4.5l-2.3-2.2l0.3,4.4c0,0.3,0,0.6,0,0.9c-0.1,1.2-0.4,2.4-1,3.4
	c-0.6,1-1.4,1.9-2.5,2.5h0c-1.4,0.9-3.2,1.2-4.8,0.9l-1.3-0.2c-1.5-0.2-3.1-0.2-4.6,0l-1.3,0.2c-1.7,0.3-3.4,0-4.8-0.9h0
	c-1-0.6-1.9-1.5-2.5-2.5s-1-2.2-1-3.4c0-0.3,0-0.6,0-0.9l0.3-4.4l-2.3,2.2c-1.3,1.2-2.1,2.8-2.2,4.5l-0.2,1.5
	c-0.3,2.3,0.6,4.5,2.2,6.1l2.3,2.2c1.3,1.2,2.1,2.8,2.2,4.5l1.2,10.9l2-5.6l2.1,8.1l0.6-2.2c0.5-1.6,1.1-3.2,1.7-4.8l1.9-4.1
	l1.8,4.1c0.7,1.6,1.3,3.2,1.8,4.8l0.6,2.2l2.1-8.1l2,5.6l1.2-10.9c0.2-1.7,1-3.3,2.2-4.5l2.3-2.2C177.1,29.1,177.9,26.9,177.6,24.6z
	 M154.2,37.1c-0.9-1.4,0.9-4.2,0.9-4.2l5.2,5.5C160.3,38.4,155.1,38.5,154.2,37.1z M168.3,37.1c-0.9,1.4-6.1,1.3-6.1,1.3l5.2-5.5
	C167.4,32.9,169.2,35.7,168.3,37.1z"/>
<circle fill="none" stroke="#F4B9BB" stroke-width="2.5918" stroke-miterlimit="10" cx="49.3" cy="46.5" r="16.5"/>
<polygon fill="none" stroke="#F4B9BB" stroke-width="1.936" stroke-miterlimit="10" points="57.6,36.4 48.8,60.1 41,36.4 62.1,50.3 
	36.4,50.3 "/>
</svg>
