<?xml version="1.0" encoding="utf-8"?>
<!-- Generator: Adobe Illustrator 25.0.1, SVG Export Plug-In . SVG Version: 6.00 Build 0)  -->
<svg version="1.1" id="Layer_1" xmlns="http://www.w3.org/2000/svg" xmlns:xlink="http://www.w3.org/1999/xlink" x="0px" y="0px"
	 viewBox="0 0 100 100" enable-background="new 0 0 100 100" xml:space="preserve">
<g>
	<path fill="#9A6D41" d="M50.49,71.61c-15.06,0-27.32-10.73-27.32-23.92c0-13.19,12.26-23.92,27.32-23.92
		c15.06,0,27.32,10.73,27.32,23.92C77.81,60.88,65.55,71.61,50.49,71.61z M50.49,30.29c-11.47,0-20.8,7.8-20.8,17.4
		s9.33,17.4,20.8,17.4s20.8-7.8,20.8-17.4S61.96,30.29,50.49,30.29z"/>
</g>
<g>
	<path fill="#B98E70" d="M50.49,76.27c-15.06,0-27.32-10.73-27.32-23.92s12.26-23.92,27.32-23.92c15.06,0,27.32,10.73,27.32,23.92
		S65.55,76.27,50.49,76.27z M50.49,34.95c-11.47,0-20.8,7.8-20.8,17.4c0,9.59,9.33,17.4,20.8,17.4s20.8-7.8,20.8-17.4
		C71.29,42.75,61.96,34.95,50.49,34.95z"/>
</g>
</svg>
