<?xml version="1.0" encoding="utf-8"?>
<!-- Generator: Adobe Illustrator 25.0.1, SVG Export Plug-In . SVG Version: 6.00 Build 0)  -->
<svg version="1.1" id="Layer_1" xmlns="http://www.w3.org/2000/svg" xmlns:xlink="http://www.w3.org/1999/xlink" x="0px" y="0px"
	 viewBox="0 0 100 100" style="enable-background:new 0 0 100 100;" xml:space="preserve">
<style type="text/css">
	.st0{fill:#FFFFFF;stroke:#6B9D73;stroke-width:2.4741;stroke-linecap:round;stroke-miterlimit:10;}
	.st1{fill:none;stroke:#6B9D73;stroke-width:1.237;stroke-miterlimit:10;}
	.st2{fill:#ED7D1D;}
	.st3{fill:#E0582B;}
	.st4{fill:#D76D17;}
</style>
<path class="st0" d="M48.7,46.6c4.4,12.5,27.4,49.5,27.4,49.5"/>
<path class="st1" d="M18.1,32.8c0,0,5.5,19.6,30.1,13.5s14.4-33,14.4-33"/>
<path class="st1" d="M21.5,25.9c0,0,6.3,19.8,26.8,20.5c0,0,13.4-8.5,5.6-35.2"/>
<path class="st1" d="M29.3,24.8c0,0,3.5,14.6,18.9,21.5c0,0,6.7-12.9-1.5-32"/>
<path class="st1" d="M36.8,25.5c0,0,0.1,12.3,10.9,19.8c0,0,1-16.7-8.5-29.4"/>
<path class="st1" d="M28.9,33c0,0,6.4,10.9,19.4,13.4c0,0,14-8.9,11.1-23"/>
<g>
	<ellipse transform="matrix(0.9096 -0.4156 0.4156 0.9096 -11.6442 9.7231)" class="st2" cx="16.5" cy="31.6" rx="4.5" ry="2.6"/>
	<ellipse transform="matrix(0.9096 -0.4156 0.4156 0.9096 -12.0166 11.5923)" class="st2" cx="20.6" cy="33.4" rx="2.3" ry="1.3"/>
	<ellipse transform="matrix(0.9096 -0.4156 0.4156 0.9096 -9.7653 10.7443)" class="st2" cx="19.8" cy="27.8" rx="2.3" ry="1.3"/>
	<ellipse transform="matrix(0.9096 -0.4156 0.4156 0.9096 -13.1068 9.6066)" class="st2" cx="15.5" cy="34.9" rx="2.3" ry="1.3"/>
	<ellipse transform="matrix(0.9096 -0.4156 0.4156 0.9096 -11.8281 8.0221)" class="st2" cx="12.5" cy="31.2" rx="2.3" ry="1.3"/>
	<ellipse transform="matrix(0.9096 -0.4156 0.4156 0.9096 -10.8572 11.5122)" class="st2" cx="21" cy="30.7" rx="2.3" ry="1.3"/>
</g>
<g>
	<ellipse transform="matrix(0.9096 -0.4156 0.4156 0.9096 -8.9875 11.0991)" class="st3" cx="21" cy="26.2" rx="4.2" ry="2.4"/>
	<ellipse transform="matrix(0.9096 -0.4156 0.4156 0.9096 -9.3063 12.8141)" class="st3" cx="24.8" cy="27.8" rx="2.1" ry="1.2"/>
	<ellipse transform="matrix(0.9096 -0.4156 0.4156 0.9096 -7.2675 12.0278)" class="st3" cx="24" cy="22.7" rx="2.1" ry="1.2"/>
	<ellipse transform="matrix(0.9096 -0.4156 0.4156 0.9096 -10.316 10.9878)" class="st3" cx="20.1" cy="29.2" rx="2.1" ry="1.2"/>
	<ellipse transform="matrix(0.9096 -0.4156 0.4156 0.9096 -9.1744 9.4845)" class="st3" cx="17.2" cy="25.8" rx="2.1" ry="1.2"/>
	<ellipse transform="matrix(0.9096 -0.4156 0.4156 0.9096 -8.2511 12.7145)" class="st3" cx="25.1" cy="25.3" rx="2.1" ry="1.2"/>
</g>
<g>
	<ellipse transform="matrix(0.9096 -0.4156 0.4156 0.9096 -11.014 14.6304)" class="st2" cx="28.1" cy="32.6" rx="4.5" ry="2.6"/>
	<ellipse transform="matrix(0.9096 -0.4156 0.4156 0.9096 -11.3864 16.4996)" class="st2" cx="32.2" cy="34.4" rx="2.3" ry="1.3"/>
	<ellipse transform="matrix(0.9096 -0.4156 0.4156 0.9096 -9.1351 15.6516)" class="st2" cx="31.4" cy="28.8" rx="2.3" ry="1.3"/>
	<ellipse transform="matrix(0.9096 -0.4156 0.4156 0.9096 -12.4511 14.548)" class="st2" cx="27.2" cy="35.9" rx="2.3" ry="1.3"/>
	<ellipse transform="matrix(0.9096 -0.4156 0.4156 0.9096 -11.1979 12.9295)" class="st2" cx="24.1" cy="32.2" rx="2.3" ry="1.3"/>
	<ellipse transform="matrix(0.9096 -0.4156 0.4156 0.9096 -10.227 16.4195)" class="st2" cx="32.6" cy="31.7" rx="2.3" ry="1.3"/>
</g>
<g>
	<ellipse transform="matrix(0.9096 -0.4156 0.4156 0.9096 -7.9523 13.6636)" class="st2" cx="27.4" cy="25.1" rx="4.5" ry="2.6"/>
	<ellipse transform="matrix(0.9096 -0.4156 0.4156 0.9096 -8.2906 15.5074)" class="st2" cx="31.5" cy="26.8" rx="2.3" ry="1.3"/>
	<ellipse transform="matrix(0.9096 -0.4156 0.4156 0.9096 -6.0734 14.6848)" class="st2" cx="30.7" cy="21.3" rx="2.3" ry="1.3"/>
	<ellipse transform="matrix(0.9096 -0.4156 0.4156 0.9096 -10.7265 19.5337)" class="st2" cx="39.5" cy="34.4" rx="2.3" ry="1.3"/>
	<ellipse transform="matrix(0.9096 -0.4156 0.4156 0.9096 -6.7044 27.6146)" class="st2" cx="60.1" cy="29.2" rx="2.3" ry="1.3"/>
	<ellipse transform="matrix(0.9096 -0.4156 0.4156 0.9096 -5.0927 22.0003)" class="st2" cx="48" cy="22.7" rx="2.3" ry="1.3"/>
	<ellipse transform="matrix(0.9096 -0.4156 0.4156 0.9096 -4.4798 13.4252)" class="st2" cx="28.6" cy="17" rx="2.3" ry="1.3"/>
	<ellipse transform="matrix(0.9096 -0.4156 0.4156 0.9096 -13.9731 12.0103)" class="st2" cx="20.6" cy="38.1" rx="2.3" ry="1.3"/>
	<ellipse transform="matrix(0.9096 -0.4156 0.4156 0.9096 -1.9382 29.8471)" class="st2" cx="67.6" cy="19.4" rx="2.3" ry="1.3"/>
	<ellipse transform="matrix(0.9096 -0.4156 0.4156 0.9096 -7.043 9.637)" class="st2" cx="18.6" cy="21" rx="2.3" ry="1.3"/>
	<ellipse transform="matrix(0.9096 -0.4156 0.4156 0.9096 -9.4149 13.5472)" class="st2" cx="26.4" cy="28.4" rx="2.3" ry="1.3"/>
	<ellipse transform="matrix(0.9096 -0.4156 0.4156 0.9096 -8.1618 11.9286)" class="st2" cx="23.3" cy="24.7" rx="2.3" ry="1.3"/>
	<ellipse transform="matrix(0.9096 -0.4156 0.4156 0.9096 -7.1653 15.4527)" class="st2" cx="31.9" cy="24.2" rx="2.3" ry="1.3"/>
</g>
<g>
	<ellipse transform="matrix(0.8768 -0.4808 0.4808 0.8768 -8.2074 20.8019)" class="st4" cx="36.5" cy="26.4" rx="4.5" ry="2.6"/>
	<ellipse transform="matrix(0.8768 -0.4808 0.4808 0.8768 -8.4083 23.0117)" class="st4" cx="40.7" cy="27.9" rx="2.3" ry="1.3"/>
	<ellipse transform="matrix(0.8768 -0.4808 0.4808 0.8768 -5.9138 21.751)" class="st4" cx="39.5" cy="22.4" rx="2.3" ry="1.3"/>
	<ellipse transform="matrix(0.8768 -0.4808 0.4808 0.8768 -9.9127 20.8861)" class="st4" cx="35.8" cy="29.8" rx="2.3" ry="1.3"/>
	<ellipse transform="matrix(0.8768 -0.4808 0.4808 0.8768 -8.6319 18.8601)" class="st4" cx="32.5" cy="26.3" rx="2.3" ry="1.3"/>
	<ellipse transform="matrix(0.8768 -0.4808 0.4808 0.8768 -7.0823 22.7773)" class="st4" cx="40.9" cy="25.2" rx="2.3" ry="1.3"/>
</g>
<g>
	<ellipse transform="matrix(0.8223 -0.5691 0.5691 0.8223 -2.2623 24.7683)" class="st2" cx="38.5" cy="16" rx="4.5" ry="2.6"/>
	<ellipse transform="matrix(0.8223 -0.5691 0.5691 0.8223 -2.0354 27.4269)" class="st2" cx="42.9" cy="17" rx="2.3" ry="1.3"/>
	<ellipse transform="matrix(0.8223 -0.5691 0.5691 0.8223 0.6545 25.4731)" class="st2" cx="41.1" cy="11.7" rx="2.3" ry="1.3"/>
	<ellipse transform="matrix(0.8223 -0.5691 0.5691 0.8223 -4.273 25.1387)" class="st2" cx="38.1" cy="19.4" rx="2.3" ry="1.3"/>
	<ellipse transform="matrix(0.8223 -0.5691 0.5691 0.8223 -3.1238 22.5284)" class="st2" cx="34.5" cy="16.3" rx="2.3" ry="1.3"/>
	<ellipse transform="matrix(0.8223 -0.5691 0.5691 0.8223 -0.5158 26.8975)" class="st2" cx="42.8" cy="14.3" rx="2.3" ry="1.3"/>
</g>
<g>
	<ellipse transform="matrix(0.9096 -0.4156 0.4156 0.9096 -2.1858 20.9426)" class="st3" cx="47" cy="15.5" rx="4.5" ry="2.6"/>
	<ellipse transform="matrix(0.9096 -0.4156 0.4156 0.9096 -2.5242 22.7863)" class="st3" cx="51.1" cy="17.2" rx="2.3" ry="1.3"/>
	<ellipse transform="matrix(0.9096 -0.4156 0.4156 0.9096 -0.3069 21.9638)" class="st3" cx="50.3" cy="11.7" rx="2.3" ry="1.3"/>
	<ellipse transform="matrix(0.9096 -0.4156 0.4156 0.9096 -3.6484 20.8261)" class="st3" cx="46" cy="18.8" rx="2.3" ry="1.3"/>
	<ellipse transform="matrix(0.9096 -0.4156 0.4156 0.9096 -2.3612 19.1821)" class="st3" cx="42.9" cy="15" rx="2.3" ry="1.3"/>
	<ellipse transform="matrix(0.9096 -0.4156 0.4156 0.9096 -1.3648 22.7062)" class="st3" cx="51.5" cy="14.5" rx="2.3" ry="1.3"/>
</g>
<g>
	<ellipse transform="matrix(0.9596 -0.2814 0.2814 0.9596 -0.7742 15.4208)" class="st2" cx="53.3" cy="10.4" rx="4.5" ry="2.6"/>
	<ellipse transform="matrix(0.9596 -0.2814 0.2814 0.9596 -1.2677 16.5795)" class="st2" cx="57.1" cy="12.7" rx="2.3" ry="1.3"/>
	<ellipse transform="matrix(0.9596 -0.2814 0.2814 0.9596 0.3083 16.3535)" class="st2" cx="57.1" cy="7.1" rx="2.3" ry="1.3"/>
	<ellipse transform="matrix(0.9596 -0.2814 0.2814 0.9596 -1.6993 15.1491)" class="st2" cx="51.9" cy="13.5" rx="2.3" ry="1.3"/>
	<ellipse transform="matrix(0.9596 -0.2814 0.2814 0.9596 -0.6457 14.2808)" class="st2" cx="49.4" cy="9.4" rx="2.3" ry="1.3"/>
	<ellipse transform="matrix(0.9596 -0.2814 0.2814 0.9596 -0.5013 16.6996)" class="st2" cx="57.9" cy="10.1" rx="2.3" ry="1.3"/>
</g>
<g>
	
		<ellipse transform="matrix(0.9999 -1.260662e-02 1.260662e-02 0.9999 -0.2664 0.7354)" class="st4" cx="58.2" cy="21.5" rx="4.5" ry="2.6"/>
	
		<ellipse transform="matrix(0.9999 -1.260662e-02 1.260662e-02 0.9999 -0.2233 0.7717)" class="st4" cx="61.1" cy="18.1" rx="2.3" ry="1.3"/>
	
		<ellipse transform="matrix(0.9999 -1.260662e-02 1.260662e-02 0.9999 -0.2913 0.7923)" class="st4" cx="62.7" cy="23.5" rx="2.3" ry="1.3"/>
	
		<ellipse transform="matrix(0.9999 -1.260662e-02 1.260662e-02 0.9999 -0.2338 0.7062)" class="st4" cx="55.9" cy="18.9" rx="2.3" ry="1.3"/>
	
		<ellipse transform="matrix(0.9999 -1.260662e-02 1.260662e-02 0.9999 -0.2932 0.6914)" class="st4" cx="54.7" cy="23.6" rx="2.3" ry="1.3"/>
	
		<ellipse transform="matrix(0.9999 -1.260627e-02 1.260627e-02 0.9999 -0.2522 0.7908)" class="st4" cx="62.6" cy="20.4" rx="2.3" ry="1.3"/>
</g>
<g>
	
		<ellipse transform="matrix(0.9964 -8.478622e-02 8.478622e-02 0.9964 -0.8355 5.3272)" class="st3" cx="62.3" cy="12.5" rx="4.6" ry="2.6"/>
	
		<ellipse transform="matrix(0.9964 -8.478605e-02 8.478605e-02 0.9964 -0.5208 5.5433)" class="st3" cx="65" cy="8.9" rx="2.3" ry="1.3"/>
	
		<ellipse transform="matrix(0.9964 -8.478639e-02 8.478639e-02 0.9964 -0.9624 5.7402)" class="st3" cx="67.1" cy="14.2" rx="2.3" ry="1.3"/>
	
		<ellipse transform="matrix(0.9964 -8.478639e-02 8.478639e-02 0.9964 -0.6408 5.1068)" class="st3" cx="59.8" cy="10.1" rx="2.3" ry="1.3"/>
	
		<ellipse transform="matrix(0.9964 -8.478639e-02 8.478639e-02 0.9964 -1.0512 5.0475)" class="st3" cx="58.9" cy="14.9" rx="2.3" ry="1.3"/>
	
		<ellipse transform="matrix(0.9964 -8.478639e-02 8.478639e-02 0.9964 -0.7012 5.6954)" class="st3" cx="66.7" cy="11.1" rx="2.3" ry="1.3"/>
</g>
<g>
	
		<ellipse transform="matrix(0.9964 -8.478639e-02 8.478639e-02 0.9964 -2.3792 4.1783)" class="st3" cx="48" cy="30.1" rx="4.6" ry="2.6"/>
	
		<ellipse transform="matrix(0.9964 -8.478639e-02 8.478639e-02 0.9964 -2.0645 4.3945)" class="st3" cx="50.7" cy="26.5" rx="2.3" ry="1.3"/>
	
		<ellipse transform="matrix(0.9964 -8.478639e-02 8.478639e-02 0.9964 -2.5061 4.5914)" class="st3" cx="52.8" cy="31.8" rx="2.3" ry="1.3"/>
	
		<ellipse transform="matrix(0.9964 -8.478639e-02 8.478639e-02 0.9964 -2.176 3.9568)" class="st3" cx="45.5" cy="27.6" rx="2.3" ry="1.3"/>
	
		<ellipse transform="matrix(0.9964 -8.478639e-02 8.478639e-02 0.9964 -2.5949 3.8986)" class="st3" cx="44.6" cy="32.5" rx="2.3" ry="1.3"/>
	
		<ellipse transform="matrix(0.9964 -8.478639e-02 8.478639e-02 0.9964 -2.2365 4.5455)" class="st3" cx="52.4" cy="28.6" rx="2.3" ry="1.3"/>
</g>
</svg>
