<?xml version="1.0" encoding="utf-8"?>
<!-- Generator: Adobe Illustrator 25.0.1, SVG Export Plug-In . SVG Version: 6.00 Build 0)  -->
<svg version="1.1" id="Layer_1" xmlns="http://www.w3.org/2000/svg" xmlns:xlink="http://www.w3.org/1999/xlink" x="0px" y="0px"
	 viewBox="0 0 100 100" style="enable-background:new 0 0 100 100;" xml:space="preserve">
<style type="text/css">
	.st0{fill:#FFFFFF;}
</style>
<g>
	<path class="st0" d="M75.3,86.7C75.2,86.4,56.7,56.6,53,46.3c5-1.5,8.6-4.2,10.6-8.2c3.5-6.6,1.7-14.6,0.8-17.8
		c0.3-0.1,0.6-0.2,0.9-0.3c0.1,0.5,1,0.9,2,0.8c1-0.1,1.8-0.6,1.8-1.2c-0.1-0.6-0.9-1-2-0.9c-0.1,0-0.2,0-0.2,0
		c0.1-0.1,0.1-0.3,0.1-0.5c1-0.1,1.8-0.6,1.8-1.2c-0.1-0.6-0.9-1-2-0.9c0,0-0.1,0-0.1,0c0.4-0.2,0.7-0.6,0.7-0.9
		c-0.1-0.6-0.9-1-2-0.9c-1,0.1-1.8,0.6-1.8,1.2c0,0.3,0.2,0.5,0.6,0.7c-0.3,0-0.7,0-1.1,0c0,0,0,0,0,0c-0.1-0.6-0.9-1-2-0.9
		c-0.1,0-0.1,0-0.2,0c-0.4-0.2-1-0.2-1.6,0c0,0,0,0,0,0c-0.1-0.1-0.2-0.3-0.3-0.4c0.1,0,0.2,0,0.3-0.1c1-0.3,1.7-1,1.5-1.6
		c-0.2-0.6-1.1-0.8-2.1-0.5c-0.9,0.3-1.6,0.9-1.5,1.5c-0.6,0-1.2,0-1.9,0.2c-0.4,0.1-0.7,0.2-1,0.4c-0.4-0.3-1.1-0.4-1.9-0.2
		c-1,0.3-1.7,1-1.5,1.6c0.1,0.4,0.7,0.7,1.5,0.6c0,0.1,0,0.1,0,0.2c-0.5,0.4-0.7,0.9-0.6,1.2c-0.6,0.1-1.2,0.2-1.8,0.5
		c-0.3,0.2-0.7,0.4-1,0.6c0.1-0.3,0.1-0.5-0.1-0.7c-0.3-0.5-1.3-0.4-2.2,0.2c0,0,0,0,0,0c-0.1-0.1-0.2-0.2-0.4-0.3
		c0.1,0,0.2-0.1,0.2-0.1c0.9-0.6,1.3-1.5,0.9-2c-0.3-0.5-1.3-0.4-2.2,0.2c-0.8,0.6-1.2,1.3-1,1.8c-0.6,0.2-1.2,0.4-1.7,0.8
		c-0.3,0.2-0.6,0.4-0.8,0.7c-0.4-0.2-1.2-0.1-1.9,0.4c-0.9,0.6-1.3,1.5-0.9,2c0.3,0.4,0.9,0.4,1.6,0.1c0,0.3,0.1,0.5,0.2,0.7
		c0.3,0.4,0.7,0.6,1.3,0.6c-0.3,0.4-0.3,0.9-0.1,1.1c0.3,0.5,1.3,0.4,2.2-0.2c0.8-0.6,1.2-1.4,1-1.9c1.5,2.2,2.5,4.6,3.4,6.9
		c-0.5,0.2-0.8,0.6-0.8,1c0,0.4,0.4,0.7,0.9,0.8c-0.5,0.4-0.8,0.9-0.7,1.4c0,0.3,0.1,0.5,0.3,0.7c-0.7,0.2-1.2,0.6-1.2,1.1
		c0.1,0.6,0.9,1,2,0.9c0.4,0,0.8-0.1,1.1-0.3c0.8,3.9,0.9,7.2,0.9,8.8c-2.8-2.1-4.6-4.7-5.7-7c0.9-0.4,1.5-1.2,1.2-1.7
		c-0.2-0.5-1.1-0.6-2.1-0.2c-0.5-1.2-0.8-2.4-1-3.3c0-0.1,0-0.3-0.1-0.4c0,0,0,0,0,0c0,0,0,0,0,0c0.3-0.2,0.6-0.3,0.8-0.5
		c-0.2,0.3-0.2,0.6-0.1,0.8c0.3,0.5,1.3,0.5,2.2,0s1.4-1.3,1.1-1.8c-0.2-0.3-0.5-0.4-1-0.4c0.9-0.5,1.4-1.3,1.1-1.8
		c-0.3-0.5-1.3-0.5-2.2,0c-0.1-0.1-0.2-0.2-0.4-0.3c0.1,0,0.1-0.1,0.2-0.1c0.9-0.5,1.4-1.3,1.1-1.8c-0.3-0.5-1.3-0.5-2.2,0
		c-0.8,0.5-1.3,1.2-1.2,1.7c-0.6,0.1-1.2,0.3-1.8,0.6c-0.3,0.2-0.6,0.4-0.9,0.6c-0.2-0.1-0.4-0.1-0.6-0.1c0.4-0.4,0.6-0.8,0.4-1.2
		c-0.2-0.5-1.2-0.6-2.2-0.2c0,0,0,0,0,0c-0.1-0.1-0.2-0.2-0.3-0.3c0.1,0,0.2-0.1,0.2-0.1c1-0.4,1.5-1.2,1.3-1.8s-1.2-0.6-2.2-0.2
		c-0.9,0.4-1.4,1.1-1.3,1.7c-0.6,0.1-1.2,0.2-1.8,0.5c-0.4,0.2-0.7,0.4-1,0.6c0,0,0,0,0,0c0.5-0.4,0.8-0.9,0.6-1.3
		c-0.2-0.5-1.1-0.6-2-0.2c-0.8,0.4-1.3,1-1.2,1.5c-0.5,0.1-1.1,0.2-1.7,0.5c-0.3,0.2-0.6,0.3-0.9,0.5c-0.4-0.3-1.1-0.3-1.8,0
		c-0.9,0.4-1.4,1.1-1.2,1.6c0.2,0.4,0.8,0.5,1.5,0.4c0,0.2,0,0.5,0.1,0.7c0.1,0.2,0.2,0.3,0.4,0.4c0,0,0,0.1,0,0.1
		c-0.6,0.1-1.2,0.2-1.8,0.5c-0.3,0.2-0.6,0.3-0.9,0.5c-0.4-0.3-1.2-0.3-1.9,0.1c-1,0.4-1.5,1.2-1.3,1.8c0.2,0.4,0.8,0.6,1.6,0.4
		c0,0.3,0,0.5,0.1,0.7c0.2,0.4,0.6,0.7,1.2,0.8c-0.4,0.4-0.5,0.8-0.4,1.1c0.2,0.5,1.2,0.6,2.2,0.2c0.9-0.4,1.5-1.2,1.3-1.8
		c0.1,0,0.1-0.1,0.2-0.1c0.2,0.6,0.7,1.6,1.4,2.8c-0.7,0.4-1,1.1-0.8,1.5c0.2,0.5,1.1,0.6,2,0.3c2.6,3.4,7.2,7.2,15.1,7.2
		c2,0,4.3-0.3,6.8-0.8c3.7,10.3,21.9,39.7,22.6,40.9c0.2,0.3,0.5,0.5,0.9,0.5c0.2,0,0.4,0,0.5-0.2C75.5,87.8,75.6,87.2,75.3,86.7z
		 M30.1,34.5c-0.2-0.1-0.4-0.1-0.6-0.1c0,0,0,0,0,0c0.6-0.3,1-0.6,1.2-1c0.1,0.1,0.1,0.3,0.2,0.4C30.6,34,30.3,34.2,30.1,34.5z
		 M47.1,44.4c-4.2-1.8-7.3-4.7-9.1-6.7c0.2,0,0.5-0.1,0.8-0.2c0.3-0.1,0.5-0.3,0.7-0.5C41.3,39.4,43.7,42.1,47.1,44.4z M51.5,35
		c0.6,0,1.1-0.2,1.6-0.3c0.1,4.7-0.8,8.1-1.5,9.9c0-1.6-0.1-5.2-1-9.6C50.9,35,51.2,35,51.5,35z M51.9,22.6c0.1-0.1,0.2-0.1,0.3-0.2
		c-0.1,0.2-0.1,0.5,0,0.7c0.2,0.5,1.2,0.6,2.2,0.2c1-0.4,1.5-1.2,1.3-1.8c-0.1-0.3-0.5-0.5-1-0.5c0,0,0,0,0,0
		c0.7-0.3,1.3-0.9,1.3-1.4c0.1-0.1,0.2-0.2,0.2-0.3c0.3,1.2,0.5,2.3,0.7,3.4c-0.6,0.2-1,0.5-1,1c0,0.4,0.3,0.7,0.8,0.9
		c-0.5,0.4-0.7,0.8-0.7,1.3c0,0.2,0.1,0.5,0.2,0.7c-0.8,0.2-1.3,0.6-1.3,1c0,0.6,0.9,1.1,1.9,1c0.3,0,0.5,0,0.8-0.1
		c0.4,9.1-3,14.1-4.9,16.1c0.6-1.9,1.5-5.1,1.5-9.4c0.3,0.1,0.8,0.2,1.2,0.1c1-0.1,1.8-0.6,1.8-1.2c-0.1-0.6-0.9-1-2-0.9
		c-0.1,0-0.2,0-0.2,0c0.1-0.2,0.1-0.4,0.1-0.5c1-0.1,1.8-0.6,1.7-1.2c0-0.6-0.9-1-1.9-0.9c0.3-0.2,0.5-0.5,0.5-0.8
		c0-0.6-0.9-1-1.9-0.9c-0.1-0.7-0.3-1.5-0.5-2.3c0.1-0.2,0.1-0.4,0-0.5c0-0.1-0.1-0.2-0.2-0.2C52.6,24.7,52.3,23.7,51.9,22.6z
		 M59.6,19.4C59.6,19.4,59.6,19.4,59.6,19.4C59.6,19.4,59.6,19.4,59.6,19.4C59.6,19.4,59.6,19.4,59.6,19.4z M60,17.4
		c0,0-0.1,0.1-0.1,0.1c0,0-0.1,0-0.1,0c0,0,0,0,0,0C59.9,17.4,59.9,17.4,60,17.4C60,17.4,60,17.4,60,17.4z M58.5,17.5
		C58.5,17.5,58.5,17.5,58.5,17.5C58.5,17.5,58.5,17.5,58.5,17.5C58.5,17.5,58.5,17.5,58.5,17.5C58.5,17.5,58.5,17.5,58.5,17.5z
		 M57.2,18.4c0,0.1-0.1,0.1-0.1,0.2c0,0,0-0.1,0-0.1C57.1,18.4,57.1,18.4,57.2,18.4z M64.1,23.9c-0.2-0.1-0.5-0.1-0.7-0.1
		c0,0,0,0-0.1,0c0.3-0.1,0.6-0.4,0.7-0.6C64,23.4,64.1,23.7,64.1,23.9z M64.5,26.5c-0.3-0.1-0.6-0.2-1-0.2c-0.1,0-0.1,0-0.2,0
		c0.1-0.1,0.1-0.3,0.1-0.4c0.4,0,0.7-0.1,1-0.2C64.4,26,64.4,26.3,64.5,26.5z M62.1,24.1c0,0-0.1,0-0.1-0.1
		C62,24.1,62.1,24.1,62.1,24.1c0.1-0.1,0.1-0.1,0.1-0.1C62.2,24.1,62.1,24.1,62.1,24.1z M60.3,27.9c0.2,1.2,0.3,2.4,0.2,3.5
		c-0.7,0.4-1.1,1.1-0.9,1.6c0.1,0.2,0.4,0.4,0.7,0.4c-0.6,3.1-2.2,5.8-3.9,7.8c1.5-3,2.7-7.3,2.3-13.3c0.4,0.1,0.7,0.1,1.1,0.1
		C60,27.9,60.1,27.9,60.3,27.9z M53.4,21.3C53.4,21.3,53.5,21.3,53.4,21.3C53.5,21.3,53.4,21.3,53.4,21.3
		C53.4,21.3,53.4,21.3,53.4,21.3C53.4,21.3,53.4,21.3,53.4,21.3z M37.7,35.5c0,0,0.1-0.1,0.1-0.1c0,0,0.1,0,0.1,0c0,0,0,0,0,0
		C37.8,35.5,37.8,35.5,37.7,35.5z M38.4,33.2c-0.1-0.1-0.1-0.3-0.2-0.4c0.4-0.2,0.7-0.4,0.9-0.7c0.2,0.2,0.5,0.3,0.8,0.3
		c-0.2,0.2-0.3,0.4-0.3,0.6C39.3,32.9,38.8,33,38.4,33.2z M36,30.3C36,30.3,36,30.4,36,30.3c0,0.3-0.1,0.5,0,0.6
		c0.1,0.2,0.2,0.3,0.4,0.3c0,0,0,0.1,0,0.1c-0.4,0.4-0.6,0.8-0.5,1.1c-0.6,0.1-1.2,0.2-1.8,0.5c-0.3,0.2-0.6,0.3-0.9,0.5
		c-0.3-0.2-0.7-0.2-1.2-0.1c-0.3-0.5-0.5-0.9-0.7-1.3c0.2,0,0.4,0,0.6,0c0,0.1,0,0.1,0,0.2c0.2,0.5,1.2,0.6,2.2,0.2
		c0.9-0.4,1.5-1.2,1.3-1.8C35.5,30.6,35.8,30.5,36,30.3z M30.7,31C30.7,31,30.7,31,30.7,31C30.7,31,30.7,31,30.7,31
		C30.7,31,30.7,31,30.7,31z M30,31.8c0.1,0.1,0.1,0.2,0.2,0.3c-0.1,0-0.2,0-0.3,0C29.9,32,30,31.9,30,31.8z M28.3,34.6
		c0,0,0.1,0,0.1,0C28.4,34.6,28.4,34.6,28.3,34.6c0,0,0,0.1-0.1,0.1C28.2,34.7,28.2,34.6,28.3,34.6z M35.9,36.9c0,0,0.1,0,0.1-0.1
		c1.4,1.9,4.5,5.5,9.5,8c-4.4-1.4-7.7-4-10.1-6.6C35.9,37.7,36.1,37.2,35.9,36.9z M62.7,37.7c-1.7,3.2-4.5,5.6-8.3,7.1
		c2.5-2.2,6-6.2,7-11.5c0.1,0,0.3-0.1,0.4-0.2c1-0.4,1.5-1.2,1.3-1.8c-0.2-0.4-0.8-0.6-1.5-0.4c0-1,0-2.1-0.2-3.2
		c0.1,0,0.2-0.1,0.3-0.1c0.1,0.5,0.9,0.9,1.9,0.9c0.4,0,0.8-0.1,1.1-0.2C64.6,31.3,64.2,34.7,62.7,37.7z M63.8,22.5
		c-0.3-0.3-1-0.6-1.7-0.6c-1,0-1.9,0.5-1.9,1.1c0,0.3,0.2,0.5,0.5,0.7c-0.3-0.1-0.7-0.1-1-0.1c0,0,0,0,0,0c0-0.6-0.8-1-1.7-1
		c-0.2-1-0.4-2-0.7-3.1c0.4,0.3,1.1,0.3,1.8,0.1c0.1,0,0.1,0,0.2-0.1c-0.6,0.2-0.9,0.6-0.9,1c0.1,0.6,0.9,1,2,0.9
		c0.9-0.1,1.5-0.5,1.7-0.9c0.4,0,0.8,0,1.2,0c0,0,0,0,0,0C63.5,21,63.6,21.7,63.8,22.5z M65.4,16.5c0,0,0.1,0,0.1,0
		C65.5,16.5,65.5,16.5,65.4,16.5c-0.1,0-0.1,0-0.2,0C65.3,16.5,65.4,16.5,65.4,16.5z M46.2,23.5c0.4,0,1-0.1,1.5-0.5
		c0.2,0.1,0.4,0.2,0.6,0.3C48,23.6,47.8,24,48,24.4c0.2,0.5,1.2,0.6,2.2,0.2c0.4-0.2,0.8-0.5,1-0.8c0.2,0.6,0.4,1.2,0.5,1.8
		c-0.3,0-0.6,0.1-0.8,0.2c-1,0.4-1.5,1.2-1.3,1.8s1.2,0.6,2.2,0.2c0.2-0.1,0.3-0.2,0.4-0.2c0.1,0.5,0.2,1.1,0.3,1.6
		c-0.5,0.2-0.9,0.6-0.9,1c0,0.3,0.2,0.5,0.6,0.7c-0.3,0-0.7,0-1.1,0c0,0,0,0,0,0c0,0,0-0.1,0-0.1c-0.1-0.6-0.9-1-2-0.9c0,0,0,0,0,0
		C48.4,27.7,47.5,25.5,46.2,23.5z M48.8,44.2c-4-2.4-6.8-5.4-8.7-8.2c0-0.1,0-0.3,0-0.4c-0.1-0.2-0.2-0.3-0.4-0.4
		c-0.1-0.1-0.1-0.2-0.2-0.3c0.5-0.3,0.8-0.7,1-1.1c0.4,0,0.9-0.1,1.4-0.4c0.2-0.1,0.3-0.2,0.4-0.3c0.2,0.8,0.5,1.7,0.9,2.7
		c-0.5,0.4-0.7,0.9-0.5,1.3c0.2,0.4,0.7,0.5,1.2,0.4C44.9,39.9,46.5,42.2,48.8,44.2z M44.7,30.2C44.7,30.2,44.8,30.2,44.7,30.2
		C44.8,30.2,44.7,30.2,44.7,30.2C44.7,30.2,44.7,30.2,44.7,30.2z M29.9,40c0.5-0.4,0.8-1,0.6-1.4c-0.2-0.5-1-0.6-1.8-0.3
		c-0.3-0.5-0.6-1.1-0.8-1.5c0.4,0,0.8-0.1,1.3-0.3c0.5-0.2,0.9-0.5,1.1-0.8c0.3,0.1,0.7,0.1,1.2,0c0,0.3,0,0.5,0.1,0.7
		c0.2,0.4,0.6,0.7,1.2,0.9c-0.3,0.4-0.5,0.8-0.3,1.1c0.2,0.5,1.1,0.6,2,0.3c3,3.4,7.3,6.6,13.4,7.7C38.1,47.8,32.7,43.7,29.9,40z"/>
	<path class="st0" d="M35.8,23.1c1-0.4,1.5-1.2,1.3-1.8c-0.2-0.5-1.2-0.6-2.2-0.2c-1,0.4-1.5,1.2-1.3,1.8S34.9,23.5,35.8,23.1z"/>
	<path class="st0" d="M67,23.1c-1,0.4-1.5,1.2-1.3,1.8c0.2,0.5,1.2,0.6,2.2,0.2c1-0.4,1.5-1.2,1.3-1.8C69,22.7,68,22.6,67,23.1z"/>
	<path class="st0" d="M27.6,26.4c1-0.4,1.5-1.2,1.3-1.8s-1.2-0.6-2.2-0.2c-1,0.4-1.5,1.2-1.3,1.8S26.6,26.8,27.6,26.4z"/>
</g>
</svg>
