<?xml version="1.0" encoding="utf-8"?>
<!-- Generator: Adobe Illustrator 25.0.1, SVG Export Plug-In . SVG Version: 6.00 Build 0)  -->
<svg version="1.1" id="Layer_1" xmlns="http://www.w3.org/2000/svg" xmlns:xlink="http://www.w3.org/1999/xlink" x="0px" y="0px"
	 viewBox="0 0 100 100" enable-background="new 0 0 100 100" xml:space="preserve">
<path fill="#A8856D" d="M79.6,51c0.9,6.2,0.8,15.6-5.6,23.7c-5.4,6.8-15.3,12.7-32.9,15c0,0-4.7-13.6,4.6-25.2
	C55,53,42.2,45.4,42.2,45.4s-2.6,8-13,8.9c0,0-2.5,8.5-8.4,4.6C15,55,16,52.6,18.2,48.4c2.2-4.2,15.2-26.2,11-34.4
	c0,0,3.9,0.5,4.8,3.4c0,0,2.6-4.3,1.7-6.9c0,0,5.9,4.2,5.5,9.3c0,0,20.7,4.6,24.7,1.2c0,0-0.1,3.8-2.4,5.5c0,0,19.1,16.3,22.8,14.8
	c0,0-4.5,3.1-8.5,2.9C77.9,44.2,79,46.9,79.6,51z"/>
<path fill="none" stroke="#573721" stroke-width="1.9259" stroke-linecap="round" stroke-miterlimit="10" d="M22.2,41.1
	c0,0,9.6,4.7,12,12.1"/>
<path fill="none" stroke="#573721" stroke-width="1.9259" stroke-linecap="round" stroke-miterlimit="10" d="M42.9,46.4
	c0,0,2.6-17.6-0.4-26.8"/>
<path fill="none" stroke="#573721" stroke-width="1.9259" stroke-linecap="round" stroke-miterlimit="10" d="M30.3,47.2
	c0,0,8.3-3.3,13.5-10.9"/>
<circle fill="#2B2C2B" cx="34.7" cy="33" r="1.9"/>
<path fill="#7E5D46" d="M50.2,77c-1.1-2.8,0.4-5.9,6.7-10s5.7,1.2,4.7,3.1s0.6,6.1-2.4,6.9C56.3,77.8,52.7,83.5,50.2,77z"/>
<path fill="#7E5D46" d="M74,74.7c0,0-5.7-6.3-2.8-12c2.9-5.6,2.5-5.8,2.8-8c0.3-2.2,5.6-3.7,5.6-3.7l0,0
	C80.5,57.2,80.4,66.6,74,74.7z"/>
</svg>
