<?xml version="1.0" encoding="utf-8"?>
<!-- Generator: Adobe Illustrator 25.0.1, SVG Export Plug-In . SVG Version: 6.00 Build 0)  -->
<svg version="1.1" id="Layer_1" xmlns="http://www.w3.org/2000/svg" xmlns:xlink="http://www.w3.org/1999/xlink" x="0px" y="0px"
	 viewBox="0 0 100 100" enable-background="new 0 0 100 100" xml:space="preserve">
<path fill="#775036" d="M83.54,92.48c-4.17,0.57-5.61,2.16-6.62-1.87c-1-4.02-9.07-14.96-14.1-19.28
	c-5.03-4.31-43.88-26.76-49.63-33.81c-0.2-0.25-0.37-0.52-0.51-0.8c0.24,0.12,3.82,1.6,15.46-7.54l6.2,6.18l-2.44-9.49
	c0,0,4.46-3.16,7.18-5.33c2.74-2.15,5.35-8.11,3.34-10.24c10.87,5.88,21.93,47.78,24.73,52.69c3.02,5.33,8.77,17.27,19.71,23.61
	C89.84,88.33,87.72,91.91,83.54,92.48z"/>
<path fill="#A36235" d="M39.07,20.54c-2.72,2.16-7.18,5.33-7.18,5.33l2.44,9.49l-6.2-6.18c-11.64,9.15-15.22,7.66-15.46,7.54
	c-0.01-0.01-0.01-0.01-0.01-0.01C8.91,29.03,28.55,10.03,39.79,9.6c0.87-0.03,1.74,0.2,2.6,0.68l0.01,0.01
	C44.43,12.43,41.81,18.39,39.07,20.54z"/>
<polygon fill="#63402D" points="28.14,29.18 32.56,28.48 34.33,35.36 "/>
<path fill="#775036" d="M14.62,32.63c-0.39-1.74,5.18-9.5,9.21-12.23s11.66-8.49,14.96-7.91s-3.02,8.88-5.9,10.05
	c-2.88,1.17-9.64,6.92-11.37,8.08C19.8,31.77,15.41,36.13,14.62,32.63z"/>
<path fill="#A36235" d="M17.84,30.27c-0.54-0.7,2.96-5.52,5.87-7.7s8.35-6.57,11.1-7.08c2.76-0.51-1.29,4.74-3.47,5.94
	c-2.18,1.2-6.92,5.39-8.17,6.32S18.94,31.68,17.84,30.27z"/>
<path fill="#775036" d="M22.21,25.83c-0.26-0.37,1.56-2.75,3.05-3.79c1.48-1.04,4.26-3.16,5.64-3.36c1.38-0.2-0.72,2.39-1.82,2.95
	s-3.53,2.59-4.16,3.03C24.27,25.11,22.74,26.58,22.21,25.83z"/>
<path fill="#63402D" d="M36.46,29.68c0,0,0.7,0.82,4.15,7.7s6.32,9.45,7.76,11.19c1.44,1.75,5.04,8.83,9.93,13.45
	c0,0-5.61-8.52-6.19-10.06c-0.58-1.54-4.46-8.22-6.04-9.24s-5.04-6.37-5.76-8.22C39.6,32.66,36.46,29.68,36.46,29.68z"/>
<path fill="#63402D" d="M43.88,20.42c0,0,0.61,1,3.31,9.16c2.7,8.16,5.28,11.35,6.54,13.47c1.25,2.12,4.08,10.53,8.46,16.24
	c0,0-4.68-10.23-5.09-12.04c-0.41-1.81-3.56-9.77-5.03-11.09c-1.47-1.32-4.33-7.72-4.85-9.89C46.7,24.1,43.88,20.42,43.88,20.42z"/>
<path fill="#63402D" d="M23.67,38.22c0,0,0.81,0.48,5.48,5.1s7.81,5.94,9.5,6.97c1.69,1.03,6.53,5.78,11.96,8.22
	c0,0-6.97-5.38-7.83-6.47c-0.87-1.09-5.87-5.43-7.52-5.85c-1.65-0.42-5.96-3.8-7.02-5.1C27.16,39.8,23.67,38.22,23.67,38.22z"/>
<path fill="#BF8C7A" d="M63.88,72.3c0,0,3.35-1.07,4.67-6.77c0,0,1.32,1.63,3.62,4.37c2.3,2.73,3.17,8.2,8.49,10.94
	c0,0-1.17,4.43-5.55,5.88C75.12,86.72,65.08,74.85,63.88,72.3z"/>
<path fill="#E2C59E" d="M47.23,21.17c0,0,11.5-6.13,14.78-9.85c0,0-7.8,12.77-10.67,14.72C51.34,26.04,48.33,26.02,47.23,21.17z"/>
<path fill="#E2C59E" d="M54.71,34.49c0,0,11.22-1.45,15.04-3.47c0,0-10.25,7.98-13.19,8.69C56.56,39.7,54.12,38.77,54.71,34.49z"/>
<path fill="#E2C59E" d="M44.5,30.82c0,0,10.96-2.83,14.49-5.3c0,0-9.19,9.19-12.02,10.25C46.97,35.77,44.44,35.14,44.5,30.82z"/>
<path fill="#E2C59E" d="M18.93,39.7c0,0-7.61,8.38-11.44,10.35c0,0,12.41-3.85,14.67-5.86C22.15,44.2,22.78,41.66,18.93,39.7z"/>
<path fill="#E2C59E" d="M31.89,41.58c0,0-6.21,9.46-9.7,12.01c0,0,11.66-5.73,13.58-8.07C35.77,45.52,35.99,42.92,31.89,41.58z"/>
<path fill="#E2C59E" d="M34.47,50.57c0,0-4.25,10.49-7.17,13.66c0,0,10.32-7.89,11.75-10.56C39.04,53.67,38.75,51.08,34.47,50.57z"
	/>
<path fill="#A57363" d="M69.18,70.45c0,0,2.79,1.66,3.15,3.7s1.14,3.11,2.43,4.04c1.29,0.93,1.26,4.08,1.61,4.59
	s-2.41-3.54-3.97-4.11c-1.56-0.57-0.68-3.83-1.98-5S69.18,70.45,69.18,70.45z"/>
<polygon fill="#63402D" points="31.89,25.86 31.35,28.67 32.56,28.48 "/>
</svg>
