<?xml version="1.0" encoding="utf-8"?>
<!-- Generator: Adobe Illustrator 25.0.1, SVG Export Plug-In . SVG Version: 6.00 Build 0)  -->
<svg version="1.1" id="Layer_1" xmlns="http://www.w3.org/2000/svg" xmlns:xlink="http://www.w3.org/1999/xlink" x="0px" y="0px"
	 viewBox="0 0 100 100" enable-background="new 0 0 100 100" xml:space="preserve">
<path fill="#86694A" d="M46.38,99.1L2.5,74.41c-0.89-0.5-1.38-1.14-1.48-1.79c-0.13-0.82,0.37-1.66,1.48-2.29l43.88-24.69
	c2-1.13,5.25-1.13,7.25,0l43.88,24.69c2,1.13,2,2.95,0,4.08L53.63,99.1C51.63,100.23,48.38,100.23,46.38,99.1z"/>
<polygon fill="#86694A" points="1.02,68.09 99.01,67.84 99.01,72.37 1.02,72.62 "/>
<path fill="#3B2E19" d="M46.38,94.57L2.5,69.88c-2-1.13-2-2.95,0-4.08l43.88-24.69c2-1.13,5.25-1.13,7.25,0L97.51,65.8
	c2,1.13,2,2.95,0,4.08L53.63,94.57C51.63,95.7,48.38,95.7,46.38,94.57z"/>
<path fill="#4F6031" d="M46.83,90.58L8.28,68.89c-1.76-0.99-1.76-2.59,0-3.58l38.55-21.69c1.76-0.99,4.61-0.99,6.37,0l38.55,21.69
	c1.76,0.99,1.76,2.59,0,3.58L53.2,90.58C51.44,91.57,48.59,91.57,46.83,90.58z"/>
<path fill="#54683A" d="M47.97,82.16L23.24,68.25c-1.13-0.64-1.13-1.66,0-2.3l24.73-13.91c1.13-0.64,2.96-0.64,4.09,0l24.73,13.91
	c1.13,0.64,1.13,1.66,0,2.3L52.05,82.16C50.92,82.8,49.1,82.8,47.97,82.16z"/>
<path fill="#617244" d="M48.45,78.56L29.63,67.97c-0.86-0.48-0.86-1.26,0-1.75l18.82-10.59c0.86-0.48,2.25-0.48,3.11,0l18.82,10.59
	c0.86,0.48,0.86,1.26,0,1.75L51.57,78.56C50.71,79.05,49.31,79.05,48.45,78.56z"/>
<ellipse fill="#42542E" cx="80.77" cy="65.96" rx="1.84" ry="1.11"/>
<ellipse fill="#42542E" cx="57.49" cy="80.97" rx="1.84" ry="1.11"/>
<ellipse fill="#42542E" cx="28.83" cy="57.2" rx="1.84" ry="1.11"/>
<ellipse fill="#42542E" cx="23.39" cy="71.27" rx="1.54" ry="0.93"/>
<ellipse fill="#42542E" cx="47.36" cy="51.56" rx="1.84" ry="1.11"/>
<ellipse fill="#42542E" cx="68.1" cy="77.04" rx="1.84" ry="1.11"/>
<ellipse fill="#42542E" cx="59.33" cy="55.27" rx="1.2" ry="0.73"/>
<ellipse fill="#42542E" cx="28.09" cy="77.04" rx="0.73" ry="0.44"/>
<ellipse fill="#42542E" cx="70.21" cy="60.16" rx="0.73" ry="0.44"/>
<ellipse fill="#42542E" cx="37.51" cy="54.55" rx="0.73" ry="0.44"/>
<ellipse fill="#42542E" cx="45.52" cy="85.83" rx="3.06" ry="1.84"/>
<polygon fill="#996A39" points="127.73,90.32 114.65,82.68 121.53,78.5 135.16,86.07 "/>
<path fill="#3A4924" d="M51.41,73.01l-14.37-8.64c-0.35-0.21-0.35-0.71-0.01-0.93l7.64-4.79c0.17-0.11,0.38-0.11,0.56-0.01
	l16.07,9.19c0.36,0.21,0.37,0.73,0.01,0.94l-7.21,4.25C53.26,73.51,52.24,73.51,51.41,73.01z"/>
<g>
	<polygon fill="#996A39" points="161.18,64.55 148.1,56.92 154.98,52.73 168.61,60.3 	"/>
	<polygon fill="#996A39" points="168.61,55.87 167.63,56.43 161.18,60.12 149.03,53.03 148.1,52.49 154.98,48.31 	"/>
	<path fill="#724722" d="M167.31,55.82l-1.15,0.66l-5.08,2.91l-10.7-6.25l-1.03-0.6l2.28-1.39c0.17-0.1,0.3-0.18,0.42-0.25
		l3.04-1.86l1.09,0.61l9.54,5.29L167.31,55.82z"/>
	<polygon fill="#996A39" points="154.98,48.31 160.11,40.7 173.47,48.31 168.61,55.87 	"/>
	<polygon fill="#84562B" points="172.43,48.33 168.02,55.12 156.15,48.59 156.14,48.59 155.68,48.33 160.3,41.53 160.32,41.5 	"/>
	<path fill="#84562B" d="M173.47,48.31c0,0,1.6,6.31-4.86,7.57L173.47,48.31z"/>
	<path fill="#724722" d="M156.15,48.59h-0.01l-0.46-0.26l4.62-6.8C160.51,42.78,160.9,47.22,156.15,48.59z"/>
	<polygon fill="#84562B" points="161.18,60.12 161.18,64.55 168.61,60.3 168.61,55.87 	"/>
	<polygon fill="#84562B" points="148.1,52.49 148.1,56.92 161.18,64.55 161.18,60.12 	"/>
	<path fill="#F99D2E" d="M166.16,56.48l-5.08,2.91l-10.7-6.25c0.04-0.26,0.12-0.53,0.26-0.79v-0.01c0.23-0.43,0.59-0.83,1.15-1.07
		c0.67-0.3,1.43-0.45,2.15-0.61c1.53-0.35,1.04-0.67,2.24-1.01c0.21-0.06,0.48-0.08,0.82-0.1c2.51-0.17,4.09,1.47,4.41,2.33
		c0.33,0.85,1.14,1.04,2.25,1.25c0.42,0.08,0.88,0.37,1.29,0.78c0.3,0.29,0.56,0.65,0.77,1.03
		C165.99,55.43,166.16,55.97,166.16,56.48z"/>
	<ellipse fill="#FCB567" cx="157.87" cy="50.87" rx="1.6" ry="0.72"/>
	<ellipse fill="#FCB567" cx="152.88" cy="52.34" rx="1.1" ry="0.57"/>
	<ellipse fill="#FCB567" cx="161.98" cy="54.46" rx="1.1" ry="0.57"/>
	<ellipse fill="#FCB567" cx="157.55" cy="53.89" rx="0.77" ry="0.4"/>
	<path fill="#DC8427" d="M166.16,56.48l-5.08,2.91l-10.7-6.25c0.04-0.26,0.12-0.53,0.26-0.79c1.45,1.94,6.97,3.78,8.59,3.52
		c1.63-0.25,2.6,0.96,4.15,0c1-0.62,1.41-1.46,1.57-1.96c0.3,0.29,0.56,0.65,0.77,1.03C165.99,55.43,166.16,55.97,166.16,56.48z"/>
</g>
<polygon fill="#996A39" points="52.12,72.06 39.05,64.43 45.93,60.24 59.56,67.81 "/>
<polygon fill="#996A39" points="59.56,63.38 58.58,63.94 52.13,67.63 39.98,60.54 39.05,60 45.93,55.82 "/>
<path fill="#724722" d="M58.26,63.33l-1.15,0.66l-5.08,2.91l-10.7-6.25l-1.03-0.6l2.28-1.39c0.17-0.1,0.3-0.18,0.42-0.25l3.04-1.86
	l1.09,0.61l9.54,5.29L58.26,63.33z"/>
<polygon fill="#996A39" points="45.93,55.82 51.05,48.21 64.42,55.82 59.56,63.38 "/>
<polygon fill="#84562B" points="63.38,55.84 58.97,62.63 47.1,56.1 47.09,56.1 46.63,55.84 51.25,49.04 51.27,49.01 "/>
<path fill="#84562B" d="M64.42,55.82c0,0,1.6,6.31-4.86,7.57L64.42,55.82z"/>
<path fill="#724722" d="M47.1,56.1h-0.01l-0.46-0.26l4.62-6.8C51.46,50.29,51.85,54.73,47.1,56.1z"/>
<polygon fill="#84562B" points="52.12,67.63 52.12,72.06 59.56,67.81 59.56,63.38 "/>
<polygon fill="#84562B" points="39.05,60 39.05,64.43 52.12,72.06 52.12,67.63 "/>
<linearGradient id="SVGID_1_" gradientUnits="userSpaceOnUse" x1="51.9362" y1="11" x2="51.9362" y2="63.9925">
	<stop  offset="0.2816" style="stop-color:#FFFFFF;stop-opacity:0"/>
	<stop  offset="0.3575" style="stop-color:#FFFCF7;stop-opacity:0.0529"/>
	<stop  offset="0.4722" style="stop-color:#FEF3E3;stop-opacity:0.1327"/>
	<stop  offset="0.6113" style="stop-color:#FEE5C1;stop-opacity:0.2295"/>
	<stop  offset="0.7696" style="stop-color:#FDD292;stop-opacity:0.3397"/>
	<stop  offset="0.9419" style="stop-color:#FBB956;stop-opacity:0.4596"/>
	<stop  offset="1" style="stop-color:#FBB040;stop-opacity:0.5"/>
</linearGradient>
<polygon display="none" fill="url(#SVGID_1_)" points="41.33,60.65 12.7,24.11 18.25,16.9 52.12,11 91.17,29.21 57.11,63.99 "/>
<path fill="#F99D2E" d="M57.11,63.99l-5.08,2.91l-10.7-6.25c0.04-0.26,0.12-0.53,0.26-0.79v-0.01c0.23-0.43,0.59-0.83,1.15-1.07
	c0.67-0.3,1.43-0.45,2.15-0.61c1.53-0.35,1.04-0.67,2.24-1.01c0.21-0.06,0.48-0.08,0.82-0.1c2.51-0.17,4.09,1.47,4.41,2.33
	c0.33,0.85,1.14,1.04,2.25,1.25c0.42,0.08,0.88,0.37,1.29,0.78c0.3,0.29,0.56,0.65,0.77,1.03C56.94,62.94,57.11,63.48,57.11,63.99z"
	/>
<ellipse fill="#FCB567" cx="48.82" cy="58.38" rx="1.6" ry="0.72"/>
<ellipse fill="#FCB567" cx="43.83" cy="59.85" rx="1.1" ry="0.57"/>
<ellipse fill="#FCB567" cx="52.93" cy="61.98" rx="1.1" ry="0.57"/>
<ellipse fill="#FCB567" cx="48.5" cy="61.4" rx="0.77" ry="0.4"/>
<path fill="#DC8427" d="M57.11,63.99l-5.08,2.91l-10.7-6.25c0.04-0.26,0.12-0.53,0.26-0.79c1.45,1.94,6.97,3.78,8.59,3.52
	c1.63-0.25,2.6,0.96,4.15,0c1-0.62,1.41-1.46,1.57-1.96c0.3,0.29,0.56,0.65,0.77,1.03C56.94,62.94,57.11,63.48,57.11,63.99z"/>
</svg>
