<?xml version="1.0" encoding="utf-8"?>
<!-- Generator: Adobe Illustrator 25.0.1, SVG Export Plug-In . SVG Version: 6.00 Build 0)  -->
<svg version="1.1" id="Layer_1" xmlns="http://www.w3.org/2000/svg" xmlns:xlink="http://www.w3.org/1999/xlink" x="0px" y="0px"
	 viewBox="0 0 100 100" enable-background="new 0 0 100 100" xml:space="preserve">
<path opacity="0.2" fill="#9F9E9F" d="M74.4,36.33c1.29-1.24,2.28-2.06,2.28-2.06c-5.45-10.03-12.63-8.3-12.63-8.3
	s-0.26,0.06-0.7,0.17h-0.01l-4.21-3.31c-1.22-2.61-4.63-4.49-8.64-4.49s-7.42,1.88-8.64,4.49l-4.21,3.31
	c-0.45-0.11-0.72-0.17-0.72-0.17s-7.18-1.73-12.63,8.3c0,0,1.19,0.98,2.67,2.44h0.01c0,0,0,0,0,0c-0.47,0.37-4.19,3.51-5.68,11.71
	c0,0,3.11,4.75,10.65,4.1c0.04,2.11,0.19,4.51,0.53,7.26c0.23,1.83,0.76,3.39,1.49,4.73l-3.04,9.51c0,0,5.98,7.68,19.56,7.68
	c13.59,0,19.56-7.68,19.56-7.68l-3.04-9.52c0.73-1.34,1.26-2.9,1.49-4.72c0.38-3.07,0.53-5.72,0.54-7.99
	c7.55,0.66,10.65-4.1,10.65-4.1C78.41,40.67,75.51,37.37,74.4,36.33z M41.54,26.25c0.53-2.02,2.34-3.71,4.8-4.62
	c1.24-0.47,2.65-0.73,4.15-0.73s2.91,0.26,4.15,0.73c2.46,0.91,4.27,2.6,4.8,4.62c0.11,0.38,0.17,0.76,0.18,1.16v0.12
	c0,2.93-2.62,5.42-6.25,6.29c-0.91,0.22-1.87,0.34-2.88,0.34s-1.98-0.12-2.89-0.35c-3.63-0.87-6.24-3.35-6.24-6.28v-0.12
	C41.37,27.01,41.43,26.63,41.54,26.25z"/>
</svg>
