<?xml version="1.0" encoding="utf-8"?>
<!-- Generator: Adobe Illustrator 25.0.1, SVG Export Plug-In . SVG Version: 6.00 Build 0)  -->
<svg version="1.1" xmlns="http://www.w3.org/2000/svg" xmlns:xlink="http://www.w3.org/1999/xlink" x="0px" y="0px"
	 viewBox="0 0 100 56.64" enable-background="new 0 0 100 56.64" xml:space="preserve">
<g id="Layer_2" display="none">
	<rect display="inline" fill="#1B1C1B" width="100" height="56.64"/>
</g>
<g id="Layer_1">
	<g display="none">
		<path display="inline" fill="#45302B" d="M69.57,42.67H30.43c-0.49,0-0.88-0.39-0.88-0.88v-17.8c0-0.49,0.39-0.88,0.88-0.88h39.15
			c0.49,0,0.88,0.39,0.88,0.88v17.8C70.45,42.28,70.06,42.67,69.57,42.67z"/>
		<path display="inline" fill="#664A46" d="M72.25,47.3h-44.5c-1.34,0-2.42-1.08-2.42-2.42V30.63c0-0.28,0.22-0.5,0.5-0.5h48.34
			c0.28,0,0.5,0.22,0.5,0.5v14.24C74.67,46.21,73.59,47.3,72.25,47.3z"/>
		<path display="inline" fill="#41322F" d="M71.49,45.06H28.51c-0.7,0-1.28-0.57-1.28-1.28v-9.98c0-0.7,0.57-1.28,1.28-1.28h42.98
			c0.7,0,1.28,0.57,1.28,1.28v9.98C72.77,44.49,72.19,45.06,71.49,45.06z"/>
		<polygon display="inline" fill="#45302B" points="25.33,30.52 29.62,23.63 70.37,23.63 74.67,30.52 		"/>
		<polygon display="inline" fill="#191312" points="28.4,29.25 31.69,23.97 68.31,23.97 71.16,29.26 		"/>
		<g display="inline">
			<path fill="#41322F" d="M36.57,12.12h26.85c3.62,0,6.55,2.93,6.55,6.55v4.86c0,0.21-0.17,0.37-0.37,0.37H30.4
				c-0.21,0-0.37-0.17-0.37-0.37v-4.86C30.02,15.05,32.96,12.12,36.57,12.12z"/>
			<polygon fill="#41322F" points="27.23,18.92 31.7,14.58 68.49,14.58 72.77,18.92 27.23,18.92 			"/>
			<path fill="#664A46" d="M74.68,24.13v4.77H25.32v-4.77c0-4.47,3.63-8.09,8.09-8.09h33.16C71.05,16.04,74.68,19.67,74.68,24.13z"
				/>
			<path fill="#41322F" d="M72.77,24.86v4.04H27.23v-4.04c0-3.78,3.35-6.86,7.47-6.86h30.6C69.42,18.01,72.77,21.08,72.77,24.86z"/>
			<path fill="#664A46" d="M74.68,28.91v1.24c0,0.25-0.21,0.46-0.47,0.46H25.79c-0.26,0-0.47-0.21-0.47-0.46v-1.24H74.68z"/>
			<path fill="#282828" d="M53.58,32.98h-7.15c-0.72,0-1.31-0.58-1.31-1.31v-3.73c0-0.72,0.58-1.31,1.31-1.31h7.15
				c0.72,0,1.31,0.58,1.31,1.31v3.73C54.88,32.4,54.3,32.98,53.58,32.98z"/>
			<path fill="#404243" d="M53.58,34.1h-7.15c-0.72,0-1.31-0.58-1.31-1.31v-3.73c0-0.72,0.58-1.31,1.31-1.31h7.15
				c0.72,0,1.31,0.58,1.31,1.31v3.73C54.88,33.52,54.3,34.1,53.58,34.1z"/>
		</g>
	</g>
	<g display="none">
		<path display="inline" fill="#45302B" d="M69.57,42.64H30.43c-0.49,0-0.88-0.39-0.88-0.88v-17.8c0-0.49,0.39-0.88,0.88-0.88h39.15
			c0.49,0,0.88,0.39,0.88,0.88v17.8C70.46,42.25,70.06,42.64,69.57,42.64z"/>
		<path display="inline" fill="#664A46" d="M72.25,47.27h-44.5c-1.34,0-2.42-1.08-2.42-2.42V30.6c0-0.28,0.22-0.5,0.5-0.5h48.34
			c0.28,0,0.5,0.22,0.5,0.5v14.24C74.67,46.18,73.59,47.27,72.25,47.27z"/>
		<path display="inline" fill="#41322F" d="M71.49,45.03H28.51c-0.7,0-1.28-0.57-1.28-1.28v-9.98c0-0.7,0.57-1.28,1.28-1.28h42.98
			c0.7,0,1.28,0.57,1.28,1.28v9.98C72.77,44.46,72.19,45.03,71.49,45.03z"/>
		<polygon display="inline" fill="#45302B" points="25.33,30.49 29.63,23.6 70.37,23.6 74.67,30.49 		"/>
		<polygon display="inline" fill="#1D1817" points="28.4,29.22 31.69,23.95 68.31,23.95 71.16,29.23 		"/>
		<g display="inline">
			<path fill="#45302B" d="M35.24,9.41h29.52c3.76,0,6.81,3.05,6.81,6.81v4.59c0,0.21-0.17,0.39-0.39,0.39H28.82
				c-0.21,0-0.39-0.17-0.39-0.39v-4.59C28.43,12.45,31.48,9.41,35.24,9.41z"/>
			<path fill="#664A46" d="M76.08,19.92v4.77H23.92v-4.77c0-4.47,3.84-8.09,8.56-8.09h35.06C72.25,11.82,76.08,15.45,76.08,19.92z"
				/>
			<path fill="#41322F" d="M74.07,20.65v4.04H25.93v-4.04c0-3.78,3.54-6.86,7.89-6.86h32.34C70.53,13.79,74.07,16.87,74.07,20.65z"
				/>
			<path fill="#664A46" d="M76.08,24.69v1.24c0,0.25-0.22,0.46-0.49,0.46H24.41c-0.27,0-0.49-0.21-0.49-0.46v-1.24H76.08z"/>
			<path fill="#282828" d="M53.58,28.77h-7.15c-0.72,0-1.31-0.58-1.31-1.31v-3.73c0-0.72,0.58-1.31,1.31-1.31h7.15
				c0.72,0,1.31,0.58,1.31,1.31v3.73C54.88,28.18,54.3,28.77,53.58,28.77z"/>
			<path fill="#404243" d="M53.58,29.88h-7.15c-0.72,0-1.31-0.58-1.31-1.31v-3.73c0-0.72,0.58-1.31,1.31-1.31h7.15
				c0.72,0,1.31,0.58,1.31,1.31v3.73C54.88,29.3,54.3,29.88,53.58,29.88z"/>
		</g>
	</g>
	<g display="none">
		<path display="inline" fill="#45302B" d="M69.57,42.64H30.43c-0.49,0-0.88-0.39-0.88-0.88v-17.8c0-0.49,0.39-0.88,0.88-0.88h39.15
			c0.49,0,0.88,0.39,0.88,0.88v17.8C70.46,42.25,70.06,42.64,69.57,42.64z"/>
		<path display="inline" fill="#664A46" d="M72.25,47.27h-44.5c-1.34,0-2.42-1.08-2.42-2.42V30.6c0-0.28,0.22-0.5,0.5-0.5h48.34
			c0.28,0,0.5,0.22,0.5,0.5v14.24C74.67,46.18,73.59,47.27,72.25,47.27z"/>
		<path display="inline" fill="#41322F" d="M71.49,45.03H28.51c-0.7,0-1.28-0.57-1.28-1.28v-9.98c0-0.7,0.57-1.28,1.28-1.28h42.98
			c0.7,0,1.28,0.57,1.28,1.28v9.98C72.77,44.46,72.19,45.03,71.49,45.03z"/>
		<polygon display="inline" fill="#45302B" points="25.33,30.49 29.63,23.6 70.37,23.6 74.67,30.49 		"/>
		<polygon display="inline" fill="#5C76BA" points="28.4,29.22 31.69,23.95 68.31,23.95 71.16,29.23 		"/>
		
			<radialGradient id="SVGID_1_" cx="94.7393" cy="53.9454" r="26.5841" gradientTransform="matrix(1.3263 0 0 0.7297 -75.6562 -11.7322)" gradientUnits="userSpaceOnUse">
			<stop  offset="0" style="stop-color:#00AEEF"/>
			<stop  offset="1" style="stop-color:#00AEEF;stop-opacity:0"/>
		</radialGradient>
		<polygon display="inline" fill="url(#SVGID_1_)" points="1.58,44.96 9.03,10.24 91.98,10.24 98.42,45.03 		"/>
		<g display="inline">
			<path fill="#45302B" d="M35.24,9.41h29.52c3.76,0,6.81,3.05,6.81,6.81v4.59c0,0.21-0.17,0.39-0.39,0.39H28.82
				c-0.21,0-0.39-0.17-0.39-0.39v-4.59C28.43,12.45,31.48,9.41,35.24,9.41z"/>
			<path fill="#664A46" d="M76.08,19.92v4.77H23.92v-4.77c0-4.47,3.84-8.09,8.56-8.09h35.06C72.25,11.82,76.08,15.45,76.08,19.92z"
				/>
			<path fill="#41322F" d="M74.07,20.65v4.04H25.93v-4.04c0-3.78,3.54-6.86,7.89-6.86h32.34C70.53,13.79,74.07,16.87,74.07,20.65z"
				/>
			<path fill="#664A46" d="M76.08,24.69v1.24c0,0.25-0.22,0.46-0.49,0.46H24.41c-0.27,0-0.49-0.21-0.49-0.46v-1.24H76.08z"/>
			<path fill="#282828" d="M53.58,28.77h-7.15c-0.72,0-1.31-0.58-1.31-1.31v-3.73c0-0.72,0.58-1.31,1.31-1.31h7.15
				c0.72,0,1.31,0.58,1.31,1.31v3.73C54.88,28.18,54.3,28.77,53.58,28.77z"/>
			<path fill="#404243" d="M53.58,29.88h-7.15c-0.72,0-1.31-0.58-1.31-1.31v-3.73c0-0.72,0.58-1.31,1.31-1.31h7.15
				c0.72,0,1.31,0.58,1.31,1.31v3.73C54.88,29.3,54.3,29.88,53.58,29.88z"/>
		</g>
	</g>
	<g display="none">
		<path display="inline" fill="#45302B" d="M69.57,42.64H30.43c-0.49,0-0.88-0.39-0.88-0.88v-17.8c0-0.49,0.39-0.88,0.88-0.88h39.15
			c0.49,0,0.88,0.39,0.88,0.88v17.8C70.46,42.25,70.06,42.64,69.57,42.64z"/>
		<path display="inline" fill="#664A46" d="M72.25,47.27h-44.5c-1.34,0-2.42-1.08-2.42-2.42V30.6c0-0.28,0.22-0.5,0.5-0.5h48.34
			c0.28,0,0.5,0.22,0.5,0.5v14.24C74.67,46.18,73.59,47.27,72.25,47.27z"/>
		<path display="inline" fill="#41322F" d="M71.49,45.03H28.51c-0.7,0-1.28-0.57-1.28-1.28v-9.98c0-0.7,0.57-1.28,1.28-1.28h42.98
			c0.7,0,1.28,0.57,1.28,1.28v9.98C72.77,44.46,72.19,45.03,71.49,45.03z"/>
		<polygon display="inline" fill="#45302B" points="25.33,30.49 29.63,23.6 70.37,23.6 74.67,30.49 		"/>
		<polygon display="inline" fill="#B86FAE" points="28.4,29.22 31.69,23.95 68.31,23.95 71.16,29.23 		"/>
		
			<radialGradient id="SVGID_2_" cx="94.572" cy="53.9454" r="26.5841" gradientTransform="matrix(1.3263 0 0 0.7297 -75.6562 -11.7322)" gradientUnits="userSpaceOnUse">
			<stop  offset="0" style="stop-color:#7063AC"/>
			<stop  offset="1" style="stop-color:#7063AC;stop-opacity:0"/>
		</radialGradient>
		<polygon display="inline" fill="url(#SVGID_2_)" points="1.35,44.96 8.81,10.24 91.75,10.24 98.2,45.03 		"/>
		<g display="inline">
			<path fill="#45302B" d="M35.24,9.41h29.52c3.76,0,6.81,3.05,6.81,6.81v4.59c0,0.21-0.17,0.39-0.39,0.39H28.82
				c-0.21,0-0.39-0.17-0.39-0.39v-4.59C28.43,12.45,31.48,9.41,35.24,9.41z"/>
			<path fill="#664A46" d="M76.08,19.92v4.77H23.92v-4.77c0-4.47,3.84-8.09,8.56-8.09h35.06C72.25,11.82,76.08,15.45,76.08,19.92z"
				/>
			<path fill="#41322F" d="M74.07,20.65v4.04H25.93v-4.04c0-3.78,3.54-6.86,7.89-6.86h32.34C70.53,13.79,74.07,16.87,74.07,20.65z"
				/>
			<path fill="#664A46" d="M76.08,24.69v1.24c0,0.25-0.22,0.46-0.49,0.46H24.41c-0.27,0-0.49-0.21-0.49-0.46v-1.24H76.08z"/>
			<path fill="#282828" d="M53.58,28.77h-7.15c-0.72,0-1.31-0.58-1.31-1.31v-3.73c0-0.72,0.58-1.31,1.31-1.31h7.15
				c0.72,0,1.31,0.58,1.31,1.31v3.73C54.88,28.18,54.3,28.77,53.58,28.77z"/>
			<path fill="#404243" d="M53.58,29.88h-7.15c-0.72,0-1.31-0.58-1.31-1.31v-3.73c0-0.72,0.58-1.31,1.31-1.31h7.15
				c0.72,0,1.31,0.58,1.31,1.31v3.73C54.88,29.3,54.3,29.88,53.58,29.88z"/>
		</g>
	</g>
	<g>
		<path fill="#45302B" d="M69.57,42.64H30.43c-0.49,0-0.88-0.39-0.88-0.88v-17.8c0-0.49,0.39-0.88,0.88-0.88h39.15
			c0.49,0,0.88,0.39,0.88,0.88v17.8C70.46,42.25,70.06,42.64,69.57,42.64z"/>
		<path fill="#664A46" d="M72.25,47.27h-44.5c-1.34,0-2.42-1.08-2.42-2.42V30.6c0-0.28,0.22-0.5,0.5-0.5h48.34
			c0.28,0,0.5,0.22,0.5,0.5v14.24C74.67,46.18,73.59,47.27,72.25,47.27z"/>
		<path fill="#41322F" d="M71.49,45.03H28.51c-0.7,0-1.28-0.57-1.28-1.28v-9.98c0-0.7,0.57-1.28,1.28-1.28h42.98
			c0.7,0,1.28,0.57,1.28,1.28v9.98C72.77,44.46,72.19,45.03,71.49,45.03z"/>
		<polygon fill="#45302B" points="25.33,30.49 29.63,23.6 70.37,23.6 74.67,30.49 		"/>
		<polygon fill="#B84C26" points="28.4,29.22 31.69,23.95 68.31,23.95 71.16,29.23 		"/>
		
			<radialGradient id="SVGID_3_" cx="94.572" cy="53.9454" r="26.5841" gradientTransform="matrix(1.3263 0 0 0.7297 -75.6562 -11.7322)" gradientUnits="userSpaceOnUse">
			<stop  offset="0" style="stop-color:#E8D224"/>
			<stop  offset="0.1972" style="stop-color:#E8D224;stop-opacity:0.5045"/>
			<stop  offset="0.2404" style="stop-color:#E8D224;stop-opacity:0.4693"/>
			<stop  offset="0.8168" style="stop-color:#E8D224;stop-opacity:0"/>
		</radialGradient>
		<polygon fill="url(#SVGID_3_)" points="1.35,44.96 8.81,10.24 91.75,10.24 98.2,45.03 		"/>
		<g>
			<path fill="#45302B" d="M35.24,9.41h29.52c3.76,0,6.81,3.05,6.81,6.81v4.59c0,0.21-0.17,0.39-0.39,0.39H28.82
				c-0.21,0-0.39-0.17-0.39-0.39v-4.59C28.43,12.45,31.48,9.41,35.24,9.41z"/>
			<path fill="#664A46" d="M76.08,19.92v4.77H23.92v-4.77c0-4.47,3.84-8.09,8.56-8.09h35.06C72.25,11.82,76.08,15.45,76.08,19.92z"
				/>
			<path fill="#41322F" d="M74.07,20.65v4.04H25.93v-4.04c0-3.78,3.54-6.86,7.89-6.86h32.34C70.53,13.79,74.07,16.87,74.07,20.65z"
				/>
			<path fill="#664A46" d="M76.08,24.69v1.24c0,0.25-0.22,0.46-0.49,0.46H24.41c-0.27,0-0.49-0.21-0.49-0.46v-1.24H76.08z"/>
			<path fill="#282828" d="M53.58,28.77h-7.15c-0.72,0-1.31-0.58-1.31-1.31v-3.73c0-0.72,0.58-1.31,1.31-1.31h7.15
				c0.72,0,1.31,0.58,1.31,1.31v3.73C54.88,28.18,54.3,28.77,53.58,28.77z"/>
			<path fill="#404243" d="M53.58,29.88h-7.15c-0.72,0-1.31-0.58-1.31-1.31v-3.73c0-0.72,0.58-1.31,1.31-1.31h7.15
				c0.72,0,1.31,0.58,1.31,1.31v3.73C54.88,29.3,54.3,29.88,53.58,29.88z"/>
		</g>
	</g>
</g>
</svg>
