<?xml version="1.0" encoding="utf-8"?>
<!-- Generator: Adobe Illustrator 25.0.1, SVG Export Plug-In . SVG Version: 6.00 Build 0)  -->
<svg version="1.1" id="Layer_1" xmlns="http://www.w3.org/2000/svg" xmlns:xlink="http://www.w3.org/1999/xlink" x="0px" y="0px"
	 viewBox="0 0 100 100" enable-background="new 0 0 100 100" xml:space="preserve">
<path fill="#856849" d="M46.4,99.2L2.5,74.5c-2-1.1-2-2.9,0-4.1l43.9-24.7c2-1.1,5.2-1.1,7.2,0l43.9,24.7c1.1,0.6,1.6,1.5,1.5,2.3
	c-0.1,0.7-0.6,1.3-1.5,1.8L53.6,99.2C51.6,100.3,48.4,100.3,46.4,99.2z"/>
<polygon fill="#856849" points="99,72.7 1,72.4 1,67.9 99,68.1 "/>
<path fill="#3A2D18" d="M46.4,94.6L2.5,69.9c-2-1.1-2-2.9,0-4.1l43.9-24.7c2-1.1,5.2-1.1,7.2,0l43.9,24.7c2,1.1,2,2.9,0,4.1
	L53.6,94.6C51.6,95.8,48.4,95.8,46.4,94.6z"/>
<path fill="#645744" d="M46.8,91.4L8.3,69.7c-1.8-1-1.8-2.6,0-3.6l38.5-21.7c1.8-1,4.6-1,6.4,0l38.5,21.7c1.8,1,1.8,2.6,0,3.6
	L53.2,91.4C51.4,92.4,48.6,92.4,46.8,91.4z"/>
<path fill="#2B2927" d="M77.6,61.4C77.6,61.4,77.6,61.4,77.6,61.4l0-1.9l-1.7,0.2L52.5,46.8c-1.4-0.7-3-0.7-4.4,0L14.9,65.5
	l-3.3,0.3V68l0,0c-0.1,0.6,0.2,1.1,0.7,1.5l16.1,8.8l2.1,0.2l1.7,1.8l4.5,2.5c1.4,0.7,3,0.7,4.4,0l24.2-13.6l1.8-1.8l3-0.9l6.9-3.9
	c0.4-0.2,0.6-0.6,0.7-1l0,0L77.6,61.4z"/>
<path fill="#363A3B" d="M52.5,45.3l24.4,13.4c1,0.5,1,1.9,0,2.5L52.7,74.8l-3.8,0.4l-0.3,1.9l-7.5,4.2c-1.4,0.8-3,0.8-4.4,0
	l-14.3-7.8l-0.6-2.1l-2.5,0.4l-7.1-3.9c-1-0.5-1-1.9,0-2.5l35.9-20.2C49.5,44.5,51.1,44.5,52.5,45.3z"/>
<path fill="#4B4F56" d="M75.9,44v3.4l-0.8,1.8l0.8,1.6v9.2c0,0.5-0.2,0.9-0.7,1.2l-1.7,1V44.8L75.9,44z"/>
<path fill="#585F61" d="M13.3,50.6l0,16.1c0,0.5,0.3,0.9,0.7,1.1l1.6,0.8L17,50L13.3,50.6z"/>
<polygon fill="#585F61" points="49.9,32.6 49.9,49.3 63.9,56.9 65.1,56.5 66.6,58.4 73.6,62.2 73.6,45.2 57.9,36.9 "/>
<polygon fill="#4B4F56" points="53.8,44.7 53.8,47.7 58.1,50.1 58.1,47 "/>
<polygon fill="#4B4F56" points="57.5,42 57.5,45 61.8,47.4 61.8,44.3 "/>
<polygon fill="#4B4F56" points="66.2,52.6 66.2,55.7 70.5,58 70.5,54.9 "/>
<polygon fill="#858B8D" points="44.6,43.1 42,41.7 34.9,45.7 36.9,47.4 "/>
<path fill="#4B4F56" d="M16.7,51.8c-0.7,0.4-1.1,1.1-1.1,1.9v3.7l0.7,1.9L15.6,62v6.6l12-6.8l1.4-1.8l3.1-0.8l11-6.2l1.5-2.3h2.6
	l2.7-1.5V33.1L16.7,51.8z M44.6,43.1l-7.7,4.3V44c0-0.2,0.1-0.3,0.2-0.4l7.5-4.2V43.1z"/>
<path fill="#858B8D" d="M75.2,45.1L75.2,45.1c-0.9,0.5-2,0.5-2.8,0.1l-12.1-6.6l-1.1,0.4l-1.2-1.7l-5.6-3c-1.3-0.7-3-0.7-4.3,0
	l-15.3,8.6L31,45.7l-1.9-0.8l-11.9,6.7c-1,0.5-2.2,0.6-3.1,0l-0.1,0C13,51,13,49.7,14,49.2l5.2-2.9l3.3-0.7l2.1-2.3l13.4-7.5
	l3.5-0.4l0.6-1.9l6-3.4c1.3-0.7,2.8-0.7,4.1,0l3.3,1.8l1.1,1.2l1.5,0.2l8.2,4.5l1.4,2.5l2.9-0.2l4.7,2.6
	C76.1,43.2,76.2,44.6,75.2,45.1z"/>
<polygon fill="#585F61" points="42.2,40.7 42,41.7 44.6,43.1 44.6,39.4 "/>
<polygon fill="#585F61" points="24.6,57.4 24.6,60.4 20.3,62.8 20.3,59.7 "/>
<polygon fill="#585F61" points="29.8,50.5 29.8,53.5 25.5,55.8 25.5,52.7 "/>
<polygon fill="#585F61" points="39,50.5 39,53.5 34.7,55.8 34.7,52.7 "/>
<path fill="#856849" d="M-73.9,99.2l-43.9-24.7c-2-1.1-2-2.9,0-4.1l43.9-24.7c2-1.1,5.2-1.1,7.2,0l43.9,24.7
	c1.1,0.6,1.6,1.5,1.5,2.3c-0.1,0.7-0.6,1.3-1.5,1.8l-43.9,24.7C-68.6,100.3-71.9,100.3-73.9,99.2z"/>
<polygon fill="#856849" points="-21.3,72.7 -119.3,72.4 -119.3,67.9 -21.3,68.1 "/>
<path fill="#3A2D18" d="M-73.9,94.6l-43.9-24.7c-2-1.1-2-2.9,0-4.1l43.9-24.7c2-1.1,5.2-1.1,7.2,0l43.9,24.7c2,1.1,2,2.9,0,4.1
	l-43.9,24.7C-68.6,95.8-71.9,95.8-73.9,94.6z"/>
<path fill="#4C4130" d="M-73.4,91.4L-112,69.7c-1.8-1-1.8-2.6,0-3.6l38.5-21.7c1.8-1,4.6-1,6.4,0l38.6,21.7c1.8,1,1.8,2.6,0,3.6
	l-38.6,21.7C-68.8,92.4-71.7,92.4-73.4,91.4z"/>
<path fill="#2B2927" d="M-42.6,61.4C-42.6,61.4-42.6,61.4-42.6,61.4l0-1.9l-1.7,0.2l-23.5-12.9c-1.4-0.7-3-0.7-4.4,0l-33.2,18.7
	l-3.3,0.3V68l0,0c-0.1,0.6,0.2,1.1,0.7,1.5l24.4,13.4c1.4,0.7,3,0.7,4.4,0l35.8-20.2c0.4-0.2,0.6-0.6,0.7-1l0,0L-42.6,61.4z"/>
<path fill="#363A3B" d="M-67.8,45.3l24.4,13.4c1,0.5,1,1.9,0,2.5l-35.8,20.2c-1.4,0.8-3,0.8-4.4,0L-108,67.9c-1-0.5-1-1.9,0-2.5
	l35.9-20.2C-70.8,44.5-69.1,44.5-67.8,45.3z"/>
<path fill="#4B4F56" d="M-44.4,44v16.1c0,0.5-0.2,0.9-0.7,1.2l-1.7,1V44.8L-44.4,44z"/>
<path fill="#585F61" d="M-107,50.6l0,16.1c0,0.5,0.3,0.9,0.7,1.1l1.6,0.8l1.4-18.6L-107,50.6z"/>
<polygon fill="#585F61" points="-70.3,32.6 -70.3,49.3 -46.7,62.2 -46.7,45.2 "/>
<polygon fill="#4B4F56" points="-66.5,44.7 -66.5,47.7 -62.2,50.1 -62.2,47 "/>
<polygon fill="#4B4F56" points="-62.8,42 -62.8,45 -58.5,47.4 -58.5,44.3 "/>
<polygon fill="#4B4F56" points="-54,52.6 -54,55.7 -49.7,58 -49.7,54.9 "/>
<polygon fill="#858B8D" points="-75.7,43.1 -78.3,41.7 -85.3,45.7 -83.4,47.4 "/>
<path fill="#4B4F56" d="M-103.6,51.8c-0.7,0.4-1.1,1.1-1.1,1.9v14.9l34.3-19.3V33.1L-103.6,51.8z M-75.7,43.1l-7.7,4.3V44
	c0-0.2,0.1-0.3,0.2-0.4l7.5-4.2V43.1z"/>
<path fill="#858B8D" d="M-45,45.1L-45,45.1c-0.9,0.5-2,0.5-2.8,0.1l-20-11c-1.3-0.7-3-0.7-4.3,0l-30.9,17.4c-1,0.5-2.2,0.6-3.1,0
	l-0.1,0c-0.9-0.5-0.9-1.9,0-2.4l34-19.1c1.3-0.7,2.8-0.7,4.1,0L-45,42.7C-44.1,43.2-44.1,44.6-45,45.1z"/>
<path fill="#2C3030" d="M-68.7,85.8l-3.2,1.8l-4.5-2.5l3.2-1.8L-68.7,85.8z"/>
<path fill="#2C3030" d="M-56,81.8l-3.2,1.8l-4.5-2.5l3.2-1.8L-56,81.8z"/>
<path fill="#2C3030" d="M-50.5,74.4l-3.2,1.8l-4.5-2.5l3.2-1.8L-50.5,74.4z"/>
<path fill="#2C3030" d="M-41.3,72.1l-3.2,1.8l-4.5-2.5l3.2-1.8L-41.3,72.1z"/>
<path fill="#2C3030" d="M-35.1,66.1l-3.2,1.8l-4.5-2.5l3.2-1.8L-35.1,66.1z"/>
<polygon fill="#585F61" points="-78,40.7 -78.3,41.7 -75.7,43.1 -75.7,39.4 "/>
<polygon fill="#363A3B" points="-95.7,57.4 -95.7,60.4 -100,62.8 -100,59.7 "/>
<polygon fill="#363A3B" points="-90.5,50.5 -90.5,53.5 -94.8,55.8 -94.8,52.7 "/>
<polygon fill="#363A3B" points="-81.2,50.5 -81.2,53.5 -85.5,55.8 -85.5,52.7 "/>
<polygon fill="#363A3B" points="20.6,51.5 20,54.7 20.6,57.4 21.5,54.6 "/>
<polygon fill="#2B2927" points="27.5,68 32.1,71.2 36.6,73 32.6,69.8 "/>
<polygon fill="#2B2927" points="31.6,63.5 36.3,66.8 40.7,68.6 36.8,65.4 "/>
<polygon fill="#2B2927" points="60,58.7 64.7,62 69.1,63.8 65.2,60.6 "/>
<polygon fill="#2B2927" points="46.5,60.8 51.1,64 55.5,65.8 51.6,62.6 "/>
<polygon fill="#A1A6A7" points="35.6,39.1 30.9,42.4 26.5,44.2 30.4,41 "/>
<polygon fill="#A1A6A7" points="50.2,31.1 47.4,33.1 44.7,34.2 47.1,32.2 "/>
<polygon fill="#363A3B" points="46.6,43.1 46.2,45.7 46.6,47.9 47.4,45.6 "/>
<polygon fill="#4B4F56" points="67.1,44.5 66.6,47.2 67.1,49.4 67.8,47.1 "/>
<polygon fill="#4B4F56" points="61.3,50.2 61.1,51.6 61.3,52.8 61.7,51.6 "/>
<g>
	<polyline fill="none" stroke="#365639" stroke-width="0.3295" stroke-miterlimit="10" points="52.5,50.8 52.6,46.3 54.8,44 
		54.3,41.3 	"/>
	<polyline fill="none" stroke="#365639" stroke-width="0.3295" stroke-miterlimit="10" points="58.5,44.5 56.9,45.7 56.6,47.9 
		52.7,48.1 	"/>
	<polygon fill="#4B8C56" points="54.4,39.9 53.5,41.3 55,41.5 	"/>
	<polygon fill="#4B8C56" points="51.9,45.4 51.8,47.1 53.2,46.6 	"/>
	<polygon fill="#4B8C56" points="54.6,42.9 54.4,44.6 55.9,44 	"/>
	<polygon fill="#4B8C56" points="53.5,43.8 52.3,45.1 53.8,45.5 	"/>
	<polygon fill="#4B8C56" points="54.4,46.7 54.8,45.1 53.3,45.4 	"/>
	<polygon fill="#4B8C56" points="55.5,42.6 56,41 54.5,41.3 	"/>
	<polygon fill="#4B8C56" points="59,45.5 59.5,43.9 57.9,44.2 	"/>
	<polygon fill="#4B8C56" points="57.4,46.4 56.6,44.9 55.7,46.2 	"/>
	<polygon fill="#4B8C56" points="57.4,48.8 56.5,47.4 55.7,48.7 	"/>
	<polygon fill="#4B8C56" points="53.6,46.9 53.8,48.6 55.1,47.7 	"/>
	<polygon fill="#4B8C56" points="51.9,49.4 52.9,48.1 51.4,47.8 	"/>
</g>
<g>
	<polyline fill="none" stroke="#365639" stroke-width="0.2489" stroke-miterlimit="10" points="21.5,64.9 19.5,62.1 17.2,61.6 
		16.4,59.7 	"/>
	<polyline fill="none" stroke="#365639" stroke-width="0.2489" stroke-miterlimit="10" points="15.1,63.4 16.6,63.5 17.7,64.8 
		20.2,63.3 	"/>
	<polygon fill="#4B8C56" points="15.8,58.8 17,59.3 16.1,60.1 	"/>
	<polygon fill="#4B8C56" points="19.7,61.3 20.4,62.3 19.3,62.5 	"/>
	<polygon fill="#4B8C56" points="16.9,60.8 17.7,61.8 16.6,62 	"/>
	<polygon fill="#4B8C56" points="18,60.9 19.2,61.2 18.5,62.1 	"/>
	<polygon fill="#4B8C56" points="18.6,63.1 17.7,62.3 18.7,61.8 	"/>
	<polygon fill="#4B8C56" points="16.2,61 15.3,60.1 16.3,59.7 	"/>
	<polygon fill="#4B8C56" points="15.2,64.2 14.2,63.4 15.3,63 	"/>
	<polygon fill="#4B8C56" points="16.6,64.2 16.5,62.9 17.6,63.4 	"/>
	<polygon fill="#4B8C56" points="17.6,65.7 17.5,64.4 18.6,64.9 	"/>
	<polygon fill="#4B8C56" points="19.2,62.9 19.7,64.1 18.6,64 	"/>
	<polygon fill="#4B8C56" points="21.3,63.8 20.1,63.4 20.9,62.6 	"/>
</g>
<g>
	<polyline fill="none" stroke="#365639" stroke-width="0.2907" stroke-miterlimit="10" points="38.1,43.8 39,47.7 41.3,49.3 
		41.3,51.7 	"/>
	<polyline fill="none" stroke="#365639" stroke-width="0.2907" stroke-miterlimit="10" points="44.4,48.3 42.8,47.4 42.2,45.6 
		38.8,46.1 	"/>
	<polygon fill="#4B8C56" points="41.6,52.9 40.6,51.8 41.9,51.4 	"/>
	<polygon fill="#4B8C56" points="38.5,48.5 38.1,47.1 39.5,47.3 	"/>
	<polygon fill="#4B8C56" points="41.3,50.2 40.9,48.8 42.2,49.1 	"/>
	<polygon fill="#4B8C56" points="40.1,49.6 38.9,48.8 40.2,48.2 	"/>
	<polygon fill="#4B8C56" points="40.5,47 41.1,48.3 39.8,48.3 	"/>
	<polygon fill="#4B8C56" points="42.1,50.3 42.8,51.7 41.4,51.7 	"/>
	<polygon fill="#4B8C56" points="44.6,47.3 45.3,48.6 44,48.6 	"/>
	<polygon fill="#4B8C56" points="43.2,46.7 42.7,48.2 41.7,47.2 	"/>
	<polygon fill="#4B8C56" points="42.7,44.7 42.2,46.1 41.3,45.1 	"/>
	<polygon fill="#4B8C56" points="39.7,46.9 39.7,45.4 40.9,46 	"/>
	<polygon fill="#4B8C56" points="37.8,45.1 39,46 37.7,46.6 	"/>
</g>
<g>
	<path fill="#2B2927" d="M56,54.8c-0.2-0.1-0.2-0.3-0.2-0.6c0-1,1.1-2.6,1.7-2.6c0.7,0,1.4,0.2,1.9,0.7c0.1,0,0.1,0.1,0.1,0.2
		c0.3,0.6,0.1,2,0.7,2.3C60.9,55.2,58.3,56.6,56,54.8z"/>
	<path fill="#4B4F56" d="M58.1,52.8l0.6,0.8c0,0-0.3,0.7-1.5,0.6c-0.5,0-1,0-1.4,0c0-1,1.1-2.6,1.7-2.6c0.7,0,1.4,0.2,1.9,0.7
		c0.1,0,0.1,0.1,0.1,0.2C58.8,52.8,58.1,52.8,58.1,52.8z"/>
</g>
<g>
	<path fill="#2B2927" d="M32.1,59C32,58.9,32,58.8,32,58.7c0-0.6,0.7-1.7,1.1-1.7c0.4,0,0.9,0.2,1.2,0.4c0,0,0.1,0.1,0.1,0.1
		c0.2,0.4,0.1,1.3,0.5,1.5C35.3,59.2,33.6,60.2,32.1,59z"/>
	<path fill="#363A3B" d="M33.5,57.7l0.4,0.5c0,0-0.2,0.4-0.9,0.4c-0.3,0-0.6,0-0.9,0c0-0.6,0.7-1.7,1.1-1.7c0.4,0,0.9,0.2,1.2,0.4
		c0,0,0.1,0.1,0.1,0.1C33.9,57.7,33.5,57.7,33.5,57.7z"/>
</g>
<g>
	<path fill="#4B4F56" d="M60.7,37.2c-0.1-0.1-0.1-0.2-0.1-0.4c0-0.6,0.7-1.7,1.1-1.7c0.4,0,0.9,0.2,1.2,0.4c0,0,0.1,0.1,0.1,0.1
		c0.2,0.4,0.1,1.3,0.5,1.5C63.8,37.4,62.2,38.3,60.7,37.2z"/>
	<path fill="#585F61" d="M62,35.9l0.4,0.5c0,0-0.2,0.4-0.9,0.4c-0.3,0-0.6,0-0.9,0c0-0.6,0.7-1.7,1.1-1.7c0.4,0,0.9,0.2,1.2,0.4
		c0,0,0.1,0.1,0.1,0.1C62.5,35.9,62,35.9,62,35.9z"/>
</g>
<g>
	<path fill="#2B2927" d="M36.9,76.4c-0.2-0.1-0.4-0.3-0.4-0.5c0-1,1.6-2.7,2.4-2.8c1-0.1,2.3,0.1,3.1,0.4c0.1,0,0.2,0.1,0.2,0.2
		c0.5,0.6,0.4,2,1.3,2.2C44.6,76.1,40.7,77.9,36.9,76.4z"/>
	<path fill="#4B4F56" d="M40,74.2l1.1,0.8c0,0-0.4,0.7-2.3,0.8c-0.8,0-1.6,0.1-2.3,0.2c0-1,1.6-2.7,2.4-2.8c1-0.1,2.3,0.1,3.1,0.4
		c0.1,0,0.2,0.1,0.2,0.2C41.1,74,40,74.2,40,74.2z"/>
</g>
<g>
	<path fill="#2B2927" d="M63.9,70.6c-0.2-0.2-0.2-0.4-0.3-0.8c-0.1-1.4,0.8-4,1.3-4c0.7-0.1,1.5,0.3,2,0.9c0.1,0.1,0.1,0.2,0.2,0.3
		c0.4,0.9,0.4,3,1,3.4C68.7,70.7,66.4,73.1,63.9,70.6z"/>
	<path fill="#4B4F56" d="M65.6,67.4l0.7,1.2c0,0-0.2,1.1-1.4,1c-0.5,0-1,0-1.4,0.1c-0.1-1.4,0.8-4,1.3-4c0.7-0.1,1.5,0.3,2,0.9
		c0.1,0.1,0.1,0.2,0.2,0.3C66.4,67.3,65.6,67.4,65.6,67.4z"/>
</g>
<ellipse fill="#675A49" cx="50.8" cy="70.5" rx="2.6" ry="1.4"/>
<ellipse fill="#675A49" cx="48.3" cy="57" rx="2.3" ry="1.2"/>
<ellipse fill="#4C4237" cx="76.8" cy="70.5" rx="2.8" ry="1.5"/>
<ellipse fill="#4C4237" cx="73.9" cy="74" rx="1.6" ry="0.9"/>
<path fill="#2B2927" d="M62.1,60.8L62.1,60.8L62.1,60.8L62.1,60.8L62.1,60.8l-3.4-2l-1.1,0.3l-0.7,0.8l-1.5-0.2l-2.5,0.7l-4.3-2.5
	l-0.5,0.9l-2-0.3l-1.3,0.3l2.3,1.4l0,0l-2.3-1.4v2l1.7,1.1l0,0l0,0l-7.6,2l-1.5,1.1l-1.5-0.3l-2.7,0.7L35,67l0,0l0,0l-1.8-1.5v2
	l2.8,2.4l16.3-4.4l4.2,2.4l4.3-0.8v-2l-2.6,0.5l0,0l2.6-0.5l-2.2-1.3l3.6-1V60.8z M59.8,61.5L59.8,61.5L59.8,61.5L59.8,61.5
	L59.8,61.5z"/>
<ellipse fill="#675A49" cx="45.6" cy="68.5" rx="1.7" ry="0.9"/>
<ellipse fill="#675A49" cx="27.5" cy="72.4" rx="1.7" ry="0.9"/>
<g>
	<polygon fill="#585F61" points="32,65.9 47.7,61.7 43.6,59.2 47.4,58.3 51.7,60.8 57.5,59.2 60.9,61.2 55,62.8 59.6,65.5 
		55.3,66.3 51.1,63.9 34.8,68.3 	"/>
	<polygon fill="#9CA2A4" points="57.3,62.2 59.6,63.5 57,64 55.3,64.3 51.1,61.9 42.6,64.2 41.6,65.3 39.8,64.9 34.8,66.3 
		33.8,65.4 32,63.9 34.7,63.2 36.2,63.5 37.7,62.4 45.3,60.3 45.4,60.3 45.4,60.3 47.7,59.7 46,58.6 43.6,57.2 44.9,56.9 46.9,57.2 
		47.4,56.3 51.7,58.8 54.2,58.1 55.7,58.3 56.4,57.5 57.5,57.2 60.9,59.2 58.6,59.9 55,60.8 	"/>
	<polygon fill="#767D7F" points="34.8,68.3 34.8,66.3 32,63.9 32,65.9 	"/>
	<polygon fill="#767D7F" points="43.6,59.2 43.6,57.2 47.7,59.7 45.3,60.3 	"/>
	<polygon fill="#767D7F" points="55.3,66.3 55.3,64.3 51.1,61.9 51.1,63.9 	"/>
	<polygon fill="#585F61" points="59.6,65.5 59.6,63.5 55.3,64.3 55.3,66.3 	"/>
	<polygon fill="#585F61" points="60.9,61.2 60.9,59.2 55,60.8 57.3,62.2 	"/>
</g>
<g>
	<path fill="#2C3030" d="M51.6,85.8l-3.2,1.8l-4.5-2.5l3.2-1.8L51.6,85.8z"/>
	<polygon fill="#2C3030" points="43.9,85.1 43.9,83.9 51.6,84.7 51.6,85.8 	"/>
	<path fill="#363A3B" d="M51.6,84.7l-3.2,1.8l-4.5-2.5l3.2-1.8L51.6,84.7z"/>
</g>
<g>
	<path fill="#2C3030" d="M61.7,83.1l-3.2,1.8L54,82.4l3.2-1.8L61.7,83.1z"/>
	<polygon fill="#2C3030" points="54,82.4 54,81.2 61.7,82 61.7,83.1 	"/>
	<path fill="#363A3B" d="M61.7,82l-3.2,1.8L54,81.2l3.2-1.8L61.7,82z"/>
</g>
<g>
	<path fill="#2C3030" d="M66.2,77.1L63,78.8l-4.5-2.5l3.2-1.8L66.2,77.1z"/>
	<polygon fill="#2C3030" points="58.5,76.3 58.5,75.1 66.2,75.9 66.2,77.1 	"/>
	<path fill="#363A3B" d="M66.2,75.9L63,77.7l-4.5-2.5l3.2-1.8L66.2,75.9z"/>
</g>
<g>
	<path fill="#2C3030" d="M89.1,68.7l-3.2,1.8l-4.5-2.5l3.2-1.8L89.1,68.7z"/>
	<polygon fill="#2C3030" points="81.4,67.9 81.4,66.7 89.1,67.5 89.1,68.7 	"/>
	<path fill="#363A3B" d="M89.1,67.5l-3.2,1.8l-4.5-2.5l3.2-1.8L89.1,67.5z"/>
</g>
<polygon fill="#858B8D" points="49,60.8 45.2,62.3 41.9,62.9 45.1,61.3 "/>
</svg>
