<?xml version="1.0" encoding="utf-8"?>
<!-- Generator: Adobe Illustrator 25.0.1, SVG Export Plug-In . SVG Version: 6.00 Build 0)  -->
<svg version="1.1" id="Layer_1" xmlns="http://www.w3.org/2000/svg" xmlns:xlink="http://www.w3.org/1999/xlink" x="0px" y="0px"
	 viewBox="0 0 100 100" enable-background="new 0 0 100 100" xml:space="preserve">
<g>
	<g>
		<path fill="#86694A" d="M46.5,99.1L2.6,74.4c-0.9-0.5-1.4-1.1-1.5-1.8c-0.1-0.8,0.4-1.7,1.5-2.3l43.9-24.7c2-1.1,5.2-1.1,7.2,0
			l43.9,24.7c2,1.1,2,2.9,0,4.1L53.7,99.1C51.7,100.2,48.5,100.2,46.5,99.1z"/>
		<polygon fill="#86694A" points="1.1,68.1 99.1,67.8 99.1,72.3 1.1,72.6 		"/>
		<path fill="#3B2E19" d="M46.5,94.5L2.6,69.8c-2-1.1-2-2.9,0-4.1L46.5,41c2-1.1,5.2-1.1,7.2,0l43.9,24.7c2,1.1,2,2.9,0,4.1
			L53.7,94.5C51.7,95.7,48.5,95.7,46.5,94.5z"/>
		<path fill="#53422C" d="M47,90.9L8.5,69.2c-1.8-1-1.8-2.6,0-3.6L47,43.9c1.8-1,4.6-1,6.4,0l38.5,21.7c1.8,1,1.8,2.6,0,3.6
			L53.4,90.9C51.7,91.8,48.8,91.8,47,90.9z"/>
	</g>
	<path fill="#716C64" d="M47.1,90.8L8.5,69.2c-1.8-1-1.8-2.6,0-3.6l38.5-21.7c1.8-1,4.6-1,6.4,0L92,65.6c1.8,1,1.8,2.6,0,3.6
		L53.4,90.8C51.7,91.8,48.8,91.8,47.1,90.8z"/>
	<path fill="#82807D" d="M45.7,78.4l3.2,1.8l-4.5,2.5l-3.2-1.8L45.7,78.4z"/>
	<path fill="#82807D" d="M36.6,77.3l3.2,1.8l-4.5,2.5l-3.2-1.8L36.6,77.3z"/>
	<path fill="#82807D" d="M36,72l3.2,1.8l-4.5,2.5l-3.2-1.8L36,72z"/>
	<path fill="#82807D" d="M27.8,69.4l3.1,1.7l-4.3,2.4l-3.1-1.7L27.8,69.4z"/>
	<path fill="#BCB6B0" d="M52,36.7l25.1,14.1c0.4,0.2,0.4,0.9,0,1.1l-17.2,9.4c-1.1,0.6-2.3,0.6-3.4,0L31.4,47.2
		c-0.4-0.2-0.4-0.9,0-1.1l17.2-9.4C49.7,36.1,51,36.1,52,36.7z"/>
	<path fill="#5F5C59" d="M79.8,61.9l-21.9,12L27.2,56.7l21.9-12L79.8,61.9z"/>
	<path fill="#82807D" d="M72.3,77.7L51.7,88.9c-1.1,0.6-2.4,0.6-3.5,0l-37.9-21c-0.6-0.4-0.6-1.3,0-1.6l13.4-7.3
		c0.8-0.5,1.9-0.5,2.7,0l29.9,16.9c0.8,0.5,1.8,0.5,2.6,0l5.3-2.8c0.8-0.4,1.8-0.4,2.6,0l5.5,3C73,76.4,73,77.4,72.3,77.7z"/>
	<path fill="#5F5C59" d="M80.2,61.1l11.1,6.1l-15.5,8.7l-11.1-6.1L80.2,61.1z"/>
	<polygon fill="#B8BFC7" points="31.4,56.5 31.4,47.2 58,53.3 58,71.7 	"/>
	<path fill="#C7C7C6" d="M77.4,61L58.2,71.6L31.4,56.5L50.6,46L77.4,61z"/>
	<path fill="#2C2014" d="M41.6,62.5v-4.9c0-0.6,0.6-0.9,1.1-0.6l1.5,0.8c0.5,0.3,0.9,0.8,0.9,1.5v5.2L41.6,62.5z"/>
	<polygon fill="#A3A3A3" points="58,71.7 58,62.2 77.4,51.3 77.4,61.1 	"/>
	<polygon fill="#4F667E" points="79.1,50.9 69.2,48 57.4,63 	"/>
	<polygon fill="#404F67" points="51.1,35.2 79.1,50.9 69.2,48 41.1,32.7 	"/>
	<polygon fill="#5A6B85" points="57.4,63 29.4,47.4 41.1,32.7 69.2,48 	"/>
	<polygon fill="#C7C7C6" points="50.7,46 50.7,36.5 61.9,33.9 61.9,52.3 	"/>
	<polygon fill="#A3A3A3" points="66.6,46.2 61.9,52.3 61.9,42.7 66.6,36.7 70.6,37.9 70.6,47.4 	"/>
	<polygon fill="#404F67" points="59.2,30.6 71.6,37.6 67.2,36.3 54.8,29.5 	"/>
	<polygon fill="#5A6B85" points="62,42.9 49.6,36 54.8,29.5 67.2,36.3 	"/>
	<polygon fill="#4F667E" points="67.2,37.8 62,44.5 62,42.9 67.2,36.3 71.6,37.6 71.6,39.1 	"/>
	<polygon fill="#6D7E97" points="49.6,37.6 49.6,36 62,42.8 62,44.5 	"/>
	<path fill="#2C2014" d="M65.6,45.1v-2.6c0-0.3,0.2-0.6,0.4-0.7l0.7-0.4c0.2-0.1,0.5,0.1,0.5,0.3v2.5L65.6,45.1z"/>
	<path fill="#2C2014" d="M49,63.3l-1.9-1.1C47,62.1,47,62.1,47,62v-1.8c0-0.2,0.2-0.3,0.3-0.2l1.9,1.1c0.1,0,0.1,0.1,0.1,0.2v1.7
		C49.3,63.2,49.2,63.3,49,63.3z"/>
	<g>
		<path fill="none" stroke="#475B6D" stroke-width="0.2974" stroke-miterlimit="10" d="M55.2,52.9c-0.5,0.8-1.5,1.1-2.3,0.6
			c-0.8-0.5-1.1-1.5-0.6-2.3"/>
		<path fill="none" stroke="#475B6D" stroke-width="0.2974" stroke-miterlimit="10" d="M55.8,55.2c-0.5,0.8-1.5,1.1-2.3,0.6
			c-0.8-0.5-1.1-1.5-0.6-2.3"/>
		<path fill="none" stroke="#475B6D" stroke-width="0.2974" stroke-miterlimit="10" d="M49.9,42c-0.5,0.8-1.5,1.1-2.3,0.6
			c-0.8-0.5-1.1-1.5-0.6-2.3"/>
		<path fill="none" stroke="#475B6D" stroke-width="0.2974" stroke-miterlimit="10" d="M52.3,51.2c-0.5,0.8-1.5,1.1-2.3,0.6
			c-0.8-0.5-1.1-1.5-0.6-2.3"/>
		<path fill="none" stroke="#475B6D" stroke-width="0.2974" stroke-miterlimit="10" d="M52.9,53.5c-0.5,0.8-1.5,1.1-2.3,0.6
			c-0.8-0.5-1.1-1.5-0.6-2.3"/>
		<path fill="none" stroke="#475B6D" stroke-width="0.2974" stroke-miterlimit="10" d="M53.5,55.8c-0.5,0.8-1.5,1.1-2.3,0.6
			c-0.8-0.5-1.1-1.5-0.6-2.3"/>
		<path fill="none" stroke="#475B6D" stroke-width="0.2974" stroke-miterlimit="10" d="M47,40.3c-0.5,0.8-1.5,1.1-2.3,0.6
			c-0.8-0.5-1.1-1.5-0.6-2.3"/>
		<path fill="none" stroke="#475B6D" stroke-width="0.2974" stroke-miterlimit="10" d="M47.6,42.6c-0.5,0.8-1.5,1.1-2.3,0.6
			c-0.8-0.5-1.1-1.5-0.6-2.3"/>
		<path fill="none" stroke="#475B6D" stroke-width="0.2974" stroke-miterlimit="10" d="M48.2,44.9c-0.5,0.8-1.5,1.1-2.3,0.6
			c-0.8-0.5-1.1-1.5-0.6-2.3"/>
		<path fill="none" stroke="#475B6D" stroke-width="0.2974" stroke-miterlimit="10" d="M48.8,47.2c-0.5,0.8-1.5,1.1-2.3,0.6
			c-0.8-0.5-1.1-1.5-0.6-2.3"/>
		<path fill="none" stroke="#475B6D" stroke-width="0.2974" stroke-miterlimit="10" d="M49.4,49.5c-0.5,0.8-1.5,1.1-2.3,0.6
			c-0.8-0.5-1.1-1.5-0.6-2.3"/>
		<path fill="none" stroke="#475B6D" stroke-width="0.2974" stroke-miterlimit="10" d="M50,51.8c-0.5,0.8-1.5,1.1-2.3,0.6
			c-0.8-0.5-1.1-1.5-0.6-2.3"/>
		<path fill="none" stroke="#475B6D" stroke-width="0.2974" stroke-miterlimit="10" d="M50.6,54.1c-0.5,0.8-1.5,1.1-2.3,0.6
			c-0.8-0.5-1.1-1.5-0.6-2.3"/>
		<path fill="none" stroke="#475B6D" stroke-width="0.2974" stroke-miterlimit="10" d="M44.1,38.6c-0.5,0.8-1.5,1.1-2.3,0.6
			c-0.8-0.5-1.1-1.5-0.6-2.3"/>
		<path fill="none" stroke="#475B6D" stroke-width="0.2974" stroke-miterlimit="10" d="M44.7,40.9c-0.5,0.8-1.5,1.1-2.3,0.6
			c-0.8-0.5-1.1-1.5-0.6-2.3"/>
		<path fill="none" stroke="#475B6D" stroke-width="0.2974" stroke-miterlimit="10" d="M45.3,43.2c-0.5,0.8-1.5,1.1-2.3,0.6
			c-0.8-0.5-1.1-1.5-0.6-2.3"/>
		<path fill="none" stroke="#475B6D" stroke-width="0.2974" stroke-miterlimit="10" d="M45.9,45.5c-0.5,0.8-1.5,1.1-2.3,0.6
			c-0.8-0.5-1.1-1.5-0.6-2.3"/>
		<path fill="none" stroke="#475B6D" stroke-width="0.2974" stroke-miterlimit="10" d="M46.5,47.8c-0.5,0.8-1.5,1.1-2.3,0.6
			c-0.8-0.5-1.1-1.5-0.6-2.3"/>
		<path fill="none" stroke="#475B6D" stroke-width="0.2974" stroke-miterlimit="10" d="M47.1,50.1c-0.5,0.8-1.5,1.1-2.3,0.6
			c-0.8-0.5-1.1-1.5-0.6-2.3"/>
		<path fill="none" stroke="#475B6D" stroke-width="0.2974" stroke-miterlimit="10" d="M47.7,52.4c-0.5,0.8-1.5,1.1-2.3,0.6
			c-0.8-0.5-1.1-1.5-0.6-2.3"/>
		<path fill="none" stroke="#475B6D" stroke-width="0.2974" stroke-miterlimit="10" d="M41.8,39.2c-0.5,0.8-1.5,1.1-2.3,0.6
			c-0.8-0.5-1.1-1.5-0.6-2.3"/>
		<path fill="none" stroke="#475B6D" stroke-width="0.2974" stroke-miterlimit="10" d="M42.4,41.5c-0.5,0.8-1.5,1.1-2.3,0.6
			c-0.8-0.5-1.1-1.5-0.6-2.3"/>
		<path fill="none" stroke="#475B6D" stroke-width="0.2974" stroke-miterlimit="10" d="M43,43.8c-0.5,0.8-1.5,1.1-2.3,0.6
			c-0.8-0.5-1.1-1.5-0.6-2.3"/>
		<path fill="none" stroke="#475B6D" stroke-width="0.2974" stroke-miterlimit="10" d="M43.6,46.1c-0.5,0.8-1.5,1.1-2.3,0.6
			c-0.8-0.5-1.1-1.5-0.6-2.3"/>
		<path fill="none" stroke="#475B6D" stroke-width="0.2974" stroke-miterlimit="10" d="M44.2,48.4c-0.5,0.8-1.5,1.1-2.3,0.6
			c-0.8-0.5-1.1-1.5-0.6-2.3"/>
		<path fill="none" stroke="#475B6D" stroke-width="0.2974" stroke-miterlimit="10" d="M44.8,50.7c-0.5,0.8-1.5,1.1-2.3,0.6
			c-0.8-0.5-1.1-1.5-0.6-2.3"/>
		<path fill="none" stroke="#475B6D" stroke-width="0.2974" stroke-miterlimit="10" d="M40.7,44.4c-0.5,0.8-1.5,1.1-2.3,0.6
			c-0.8-0.5-1.1-1.5-0.6-2.3"/>
		<path fill="none" stroke="#475B6D" stroke-width="0.2974" stroke-miterlimit="10" d="M41.3,46.7c-0.5,0.8-1.5,1.1-2.3,0.6
			c-0.8-0.5-1.1-1.5-0.6-2.3"/>
		<path fill="none" stroke="#475B6D" stroke-width="0.2974" stroke-miterlimit="10" d="M41.9,49c-0.5,0.8-1.5,1.1-2.3,0.6
			c-0.8-0.5-1.1-1.5-0.6-2.3"/>
		<path fill="none" stroke="#475B6D" stroke-width="0.2974" stroke-miterlimit="10" d="M39,47.3c-0.5,0.8-1.5,1.1-2.3,0.6
			c-0.8-0.5-1.1-1.5-0.6-2.3"/>
	</g>
	<g>
		<path fill="none" stroke="#475B6D" stroke-width="0.3643" stroke-miterlimit="10" d="M59.3,33.5c-0.5,0.9-1.6,1.2-2.5,0.7
			c-0.9-0.5-1.2-1.6-0.7-2.5"/>
		<path fill="none" stroke="#475B6D" stroke-width="0.3643" stroke-miterlimit="10" d="M62.4,35.3c-0.5,0.9-1.6,1.2-2.5,0.7
			c-0.9-0.5-1.2-1.6-0.7-2.5"/>
		<path fill="none" stroke="#475B6D" stroke-width="0.3643" stroke-miterlimit="10" d="M59.9,36c-0.5,0.9-1.6,1.2-2.5,0.7
			c-0.9-0.5-1.2-1.6-0.7-2.5"/>
		<path fill="none" stroke="#475B6D" stroke-width="0.3643" stroke-miterlimit="10" d="M57.5,36.7c-0.5,0.9-1.6,1.2-2.5,0.7
			c-0.9-0.5-1.2-1.6-0.7-2.5"/>
		<path fill="none" stroke="#475B6D" stroke-width="0.3643" stroke-miterlimit="10" d="M63.1,37.8c-0.5,0.9-1.6,1.2-2.5,0.7
			c-0.9-0.5-1.2-1.6-0.7-2.5"/>
		<path fill="none" stroke="#475B6D" stroke-width="0.3643" stroke-miterlimit="10" d="M60.6,38.5c-0.5,0.9-1.6,1.2-2.5,0.7
			c-0.9-0.5-1.2-1.6-0.7-2.5"/>
	</g>
	<path fill="#2C2014" d="M39.8,58.6l-1.9-1.1c-0.1,0-0.1-0.1-0.1-0.2v-1.8c0-0.2,0.2-0.3,0.3-0.2l1.9,1.1c0.1,0,0.1,0.1,0.1,0.2v1.7
		C40.2,58.6,40,58.7,39.8,58.6z"/>
	<path fill="#2C2014" d="M35.2,55.9l-1.9-1.1c-0.1,0-0.1-0.1-0.1-0.2v-1.8c0-0.2,0.2-0.3,0.3-0.2l1.9,1.1c0.1,0,0.1,0.1,0.1,0.2v1.7
		C35.5,55.9,35.3,56,35.2,55.9z"/>
	<polygon fill="#C7C7C6" points="76.2,73.9 76.2,57.7 87.4,60.3 87.4,67.6 	"/>
	<polygon fill="#A3A3A3" points="67.5,69 67.5,61.7 71.5,60.5 76.2,66.6 76.2,73.9 76.2,73.9 	"/>
	<polygon fill="#404F67" points="83.3,53.3 70.8,60.1 66.5,61.4 78.8,54.4 	"/>
	<polygon fill="#5A6B85" points="70.8,60.1 83.3,53.3 88.4,59.8 76,66.8 	"/>
	<polygon fill="#4F667E" points="66.5,62.9 66.5,61.4 70.8,60.1 76,66.8 76,68.3 70.8,61.6 	"/>
	<polygon fill="#6D7E97" points="76,68.3 76,66.6 88.4,59.8 88.4,61.4 	"/>
	<path fill="#2C2014" d="M70.8,68v-2.5c0-0.3,0.3-0.5,0.5-0.3l0.7,0.4c0.3,0.1,0.4,0.4,0.4,0.7v2.6L70.8,68z"/>
	<g>
		<path fill="none" stroke="#475B6D" stroke-width="0.3643" stroke-miterlimit="10" d="M81.9,55.5c0.5,0.9,0.2,2-0.7,2.5
			c-0.9,0.5-2,0.2-2.5-0.7"/>
		<path fill="none" stroke="#475B6D" stroke-width="0.3643" stroke-miterlimit="10" d="M78.8,57.3c0.5,0.9,0.2,2-0.7,2.5
			c-0.9,0.5-2,0.2-2.5-0.7"/>
		<path fill="none" stroke="#475B6D" stroke-width="0.3643" stroke-miterlimit="10" d="M81.3,58c0.5,0.9,0.2,2-0.7,2.5
			c-0.9,0.5-2,0.2-2.5-0.7"/>
		<path fill="none" stroke="#475B6D" stroke-width="0.3643" stroke-miterlimit="10" d="M83.8,58.7c0.5,0.9,0.2,2-0.7,2.5
			c-0.9,0.5-2,0.2-2.5-0.7"/>
		<path fill="none" stroke="#475B6D" stroke-width="0.3643" stroke-miterlimit="10" d="M78.1,59.8c0.5,0.9,0.2,2-0.7,2.5
			c-0.9,0.5-2,0.2-2.5-0.7"/>
		<path fill="none" stroke="#475B6D" stroke-width="0.3643" stroke-miterlimit="10" d="M80.6,60.5c0.5,0.9,0.2,2-0.7,2.5
			c-0.9,0.5-2,0.2-2.5-0.7"/>
	</g>
	<path fill="#2C2014" d="M80.8,71.5v-4.2c0-0.5,0.3-0.9,0.7-1.2l1.2-0.7c0.4-0.2,0.9,0.1,0.9,0.5v4L80.8,71.5z"/>
	<path fill="#A18753" d="M67.4,30.3c0,0,2-1.6,4.5-1c2.5,0.7,4.3,3.2,8.4,2.7l-0.7,4.2c-4.1,0.5-5.3-1.8-7.7-2.5
		c-2.5-0.7-4.5,1-4.5,1"/>
	<path fill="#404F67" d="M67.6,31.1c0,0,2.1-1.5,4.3-0.8c2.2,0.7,3.4,2.6,7.3,2.7l-0.5,2.7c-3.9-0.1-4.9-2.3-7.1-2.6
		c-2.3-0.4-4.3,1-4.3,1"/>
	<path fill="#716C64" d="M34.6,72.5l3.2,1.8l-4.5,2.5L30.1,75L34.6,72.5z"/>
	<path fill="#716C64" d="M44.7,78.7l3.2,1.8L43.5,83l-3.2-1.8L44.7,78.7z"/>
	<path fill="#716C64" d="M53.9,78.5l3.2,1.8l-4.5,2.5L49.5,81L53.9,78.5z"/>
	<path fill="#716C64" d="M44.1,73.4l3.2,1.8l-4.5,2.5l-3.2-1.8L44.1,73.4z"/>
	
		<line fill="#EFA458" stroke="#4D4A48" stroke-width="1.219" stroke-linecap="round" stroke-miterlimit="10" x1="67.3" y1="37.5" x2="67.3" y2="29.5"/>
	<ellipse fill="#A8A29D" cx="23.9" cy="66.7" rx="9.5" ry="4.9"/>
	<rect x="14.5" y="65.3" fill="#A8A29D" width="19" height="1.6"/>
	<ellipse fill="#BBB7B3" cx="23.9" cy="65.3" rx="9.5" ry="4.9"/>
	<ellipse fill="#6590A6" cx="23.9" cy="65.2" rx="8.2" ry="4.3"/>
	<ellipse fill="#A8A29D" cx="23.9" cy="65.3" rx="4.3" ry="2.2"/>
	<rect x="19.7" y="64.7" fill="#A8A29D" width="8.6" height="0.6"/>
	<ellipse fill="#BBB7B3" cx="23.9" cy="64.7" rx="4.3" ry="2.2"/>
	<ellipse fill="#CAC9C9" cx="23.9" cy="64.7" rx="3.1" ry="1.6"/>
	<ellipse fill="#BBB7B3" cx="23.9" cy="55.9" rx="3.1" ry="1.6"/>
	<rect x="20.8" y="55.7" fill="#CAC9C9" width="6.3" height="9"/>
	<polygon fill="#6590A6" points="21.8,57.3 21.8,65.9 21,66.3 21,67.4 21.4,67.8 21.8,66.6 22.4,66.1 22.4,57.5 	"/>
	<polygon fill="#6590A6" points="26.1,57.3 26.1,65.9 26.9,66.3 26.9,67.4 26.5,67.8 26.1,66.6 25.5,66.1 25.5,57.5 	"/>
	<ellipse fill="#A8A29D" cx="23.9" cy="56" rx="3.5" ry="1.8"/>
	<rect x="20.4" y="55.5" fill="#A8A29D" width="7.1" height="0.5"/>
	<ellipse fill="#BBB7B3" cx="23.9" cy="55.5" rx="3.5" ry="1.8"/>
	<ellipse fill="#A8A29D" cx="23.9" cy="55.5" rx="2.6" ry="1.3"/>
	<ellipse fill="#6590A6" cx="23.9" cy="55.5" rx="1.4" ry="0.7"/>
	<path fill="#6DAEB0" d="M26.5,52.5l-2,3.2h-1.1l-1-1.3l-0.5-0.6c-0.1-0.1-0.1-0.2-0.1-0.3l0.3-1.9v-0.1L21.8,50
		c0-0.1,0-0.2,0.1-0.3l2.1-2.9c0.1-0.1,0.3-0.2,0.4-0.1c0,0,0,0,0.1,0l1.2,1.2c0.1,0.1,0.1,0.2,0.1,0.3L25.4,50c0,0.1,0,0.1,0,0.2
		l1,1.9C26.5,52.3,26.5,52.4,26.5,52.5z"/>
	<path fill="#80CFD6" d="M25.1,51.2l-2,3.2h-0.8l-0.5-0.6c-0.1-0.1-0.1-0.2-0.1-0.3l0.3-1.9v-0.1L21.8,50c0-0.1,0-0.2,0.1-0.3
		l2.1-2.9c0.1-0.1,0.3-0.2,0.4-0.1c0,0.1,0,0.1,0,0.2l-0.3,1.8c0,0.1,0,0.1,0,0.2l1,1.9C25.2,51,25.2,51.1,25.1,51.2z"/>
	<polygon fill="#6590A6" points="21.5,57.3 21.5,56.8 22.7,55.9 23.2,56 22,57 22,57.6 	"/>
	<polygon fill="#6590A6" points="26.4,57.3 26.3,56.8 25.1,55.9 24.6,56 25.9,57 25.9,57.6 	"/>
</g>
</svg>
