<?xml version="1.0" encoding="utf-8"?>
<!-- Generator: Adobe Illustrator 25.0.1, SVG Export Plug-In . SVG Version: 6.00 Build 0)  -->
<svg version="1.1" id="Layer_1" xmlns="http://www.w3.org/2000/svg" xmlns:xlink="http://www.w3.org/1999/xlink" x="0px" y="0px"
	 viewBox="0 0 100 100" enable-background="new 0 0 100 100" xml:space="preserve">
<g>
	<g>
		<path fill="#86694A" d="M46.4,99.1L2.5,74.4c-0.9-0.5-1.4-1.1-1.5-1.8c-0.1-0.8,0.4-1.7,1.5-2.3l43.9-24.7c2-1.1,5.2-1.1,7.2,0
			l43.9,24.7c2,1.1,2,2.9,0,4.1L53.6,99.1C51.6,100.2,48.4,100.2,46.4,99.1z"/>
		<polygon fill="#86694A" points="1,68.1 99,67.8 99,72.3 1,72.6 		"/>
		<path fill="#3B2E19" d="M46.4,94.5L2.5,69.8c-2-1.1-2-2.9,0-4.1L46.4,41c2-1.1,5.2-1.1,7.2,0l43.9,24.7c2,1.1,2,2.9,0,4.1
			L53.6,94.5C51.6,95.7,48.4,95.7,46.4,94.5z"/>
		<path fill="#53422C" d="M46.9,90.9L8.4,69.2c-1.8-1-1.8-2.6,0-3.6l38.5-21.7c1.8-1,4.6-1,6.4,0l38.5,21.7c1.8,1,1.8,2.6,0,3.6
			L53.3,90.9C51.6,91.8,48.7,91.8,46.9,90.9z"/>
	</g>
	<path fill="#716C64" d="M46.9,90.8L8.4,69.1c-1.8-1-1.8-2.6,0-3.6l38.5-21.7c1.8-1,4.6-1,6.4,0l38.5,21.7c1.8,1,1.8,2.6,0,3.6
		L53.3,90.8C51.5,91.8,48.7,91.8,46.9,90.8z"/>
	<path fill="#82807D" d="M45.6,78.4l3.2,1.8l-4.5,2.5l-3.2-1.8L45.6,78.4z"/>
	<path fill="#82807D" d="M36.5,77.3l3.2,1.8l-4.5,2.5L32,79.8L36.5,77.3z"/>
	<path fill="#82807D" d="M35.9,72l3.2,1.8l-4.5,2.5l-3.2-1.8L35.9,72z"/>
	<path fill="#82807D" d="M27.7,69.4l3.1,1.7l-4.3,2.4l-3.1-1.7L27.7,69.4z"/>
	<path fill="#BCB6B0" d="M51.9,36.6L77,50.8c0.4,0.2,0.4,0.9,0,1.1l-17.2,9.4c-1.1,0.6-2.3,0.6-3.4,0L31.3,47.2
		c-0.4-0.2-0.4-0.9,0-1.1l17.2-9.4C49.5,36,50.8,36,51.9,36.6z"/>
	<path fill="#5F5C59" d="M79.7,61.8l-21.9,12L27.1,56.6l21.9-12L79.7,61.8z"/>
	<path fill="#82807D" d="M72.2,77.7L51.6,88.9c-1.1,0.6-2.4,0.6-3.5,0l-37.9-21c-0.6-0.4-0.6-1.3,0-1.6l13.4-7.3
		c0.8-0.5,1.9-0.5,2.7,0l29.9,16.9c0.8,0.5,1.8,0.5,2.6,0l5.3-2.8c0.8-0.4,1.8-0.4,2.6,0l5.5,3C72.8,76.4,72.8,77.4,72.2,77.7z"/>
	<path fill="#5F5C59" d="M80.1,61.1l11.1,6.1l-15.5,8.7l-11.1-6.1L80.1,61.1z"/>
	<polygon fill="#B8BFC7" points="31.3,56.5 31.3,47.2 57.9,53.3 57.9,71.6 	"/>
	<path fill="#C7C7C6" d="M77.2,61L58,71.5L31.3,56.5L50.4,46L77.2,61z"/>
	<path fill="#2C2014" d="M41.5,62.5v-4.9c0-0.6,0.6-0.9,1.1-0.6l1.5,0.8c0.5,0.3,0.9,0.8,0.9,1.5v5.2L41.5,62.5z"/>
	<polygon fill="#A3A3A3" points="57.9,71.6 57.9,62.2 77.2,51.3 77.2,61 	"/>
	<polygon fill="#794F64" points="78.9,50.8 69,48 57.3,63 	"/>
	<polygon fill="#633F4D" points="51,35.2 78.9,50.8 69,48 41,32.7 	"/>
	<polygon fill="#81596A" points="57.3,63 29.3,47.4 41,32.7 69,48 	"/>
	<polygon fill="#C7C7C6" points="50.5,46 50.5,36.5 61.7,33.9 61.7,52.3 	"/>
	<polygon fill="#A3A3A3" points="66.4,46.2 61.7,52.3 61.7,42.7 66.4,36.7 70.4,37.8 70.4,47.4 	"/>
	<polygon fill="#633F4D" points="59.1,30.6 71.5,37.5 67.1,36.3 54.7,29.5 	"/>
	<polygon fill="#81596A" points="61.9,42.9 49.5,36 54.7,29.5 67.1,36.3 	"/>
	<polygon fill="#794F64" points="67.1,37.8 61.9,44.5 61.9,42.9 67.1,36.3 71.5,37.5 71.5,39.1 	"/>
	<polygon fill="#936D7C" points="49.5,37.6 49.5,36 61.9,42.8 61.9,44.5 	"/>
	<path fill="#2C2014" d="M65.4,45.1v-2.6c0-0.3,0.2-0.6,0.4-0.7l0.7-0.4c0.2-0.1,0.5,0.1,0.5,0.3v2.5L65.4,45.1z"/>
	<path fill="#2C2014" d="M48.9,63.2l-1.9-1.1c-0.1,0-0.1-0.1-0.1-0.2v-1.8c0-0.2,0.2-0.3,0.3-0.2l1.9,1.1c0.1,0,0.1,0.1,0.1,0.2V63
		C49.2,63.2,49,63.3,48.9,63.2z"/>
	<g>
		<path fill="none" stroke="#694658" stroke-width="0.2974" stroke-miterlimit="10" d="M55.1,52.9c-0.5,0.8-1.5,1.1-2.3,0.6
			C52,53,51.7,52,52.2,51.2"/>
		<path fill="none" stroke="#694658" stroke-width="0.2974" stroke-miterlimit="10" d="M55.7,55.2c-0.5,0.8-1.5,1.1-2.3,0.6
			c-0.8-0.5-1.1-1.5-0.6-2.3"/>
		<path fill="none" stroke="#694658" stroke-width="0.2974" stroke-miterlimit="10" d="M49.8,42c-0.5,0.8-1.5,1.1-2.3,0.6
			c-0.8-0.5-1.1-1.5-0.6-2.3"/>
		<path fill="none" stroke="#694658" stroke-width="0.2974" stroke-miterlimit="10" d="M52.2,51.2c-0.5,0.8-1.5,1.1-2.3,0.6
			c-0.8-0.5-1.1-1.5-0.6-2.3"/>
		<path fill="none" stroke="#694658" stroke-width="0.2974" stroke-miterlimit="10" d="M52.8,53.5c-0.5,0.8-1.5,1.1-2.3,0.6
			c-0.8-0.5-1.1-1.5-0.6-2.3"/>
		<path fill="none" stroke="#694658" stroke-width="0.2974" stroke-miterlimit="10" d="M53.4,55.8c-0.5,0.8-1.5,1.1-2.3,0.6
			c-0.8-0.5-1.1-1.5-0.6-2.3"/>
		<path fill="none" stroke="#694658" stroke-width="0.2974" stroke-miterlimit="10" d="M46.9,40.3c-0.5,0.8-1.5,1.1-2.3,0.6
			c-0.8-0.5-1.1-1.5-0.6-2.3"/>
		<path fill="none" stroke="#694658" stroke-width="0.2974" stroke-miterlimit="10" d="M47.5,42.6c-0.5,0.8-1.5,1.1-2.3,0.6
			c-0.8-0.5-1.1-1.5-0.6-2.3"/>
		<path fill="none" stroke="#694658" stroke-width="0.2974" stroke-miterlimit="10" d="M48.1,44.9c-0.5,0.8-1.5,1.1-2.3,0.6
			C45,45,44.7,44,45.2,43.2"/>
		<path fill="none" stroke="#694658" stroke-width="0.2974" stroke-miterlimit="10" d="M48.7,47.2c-0.5,0.8-1.5,1.1-2.3,0.6
			c-0.8-0.5-1.1-1.5-0.6-2.3"/>
		<path fill="none" stroke="#694658" stroke-width="0.2974" stroke-miterlimit="10" d="M49.3,49.5c-0.5,0.8-1.5,1.1-2.3,0.6
			c-0.8-0.5-1.1-1.5-0.6-2.3"/>
		<path fill="none" stroke="#694658" stroke-width="0.2974" stroke-miterlimit="10" d="M49.9,51.8c-0.5,0.8-1.5,1.1-2.3,0.6
			c-0.8-0.5-1.1-1.5-0.6-2.3"/>
		<path fill="none" stroke="#694658" stroke-width="0.2974" stroke-miterlimit="10" d="M50.5,54.1c-0.5,0.8-1.5,1.1-2.3,0.6
			c-0.8-0.5-1.1-1.5-0.6-2.3"/>
		<path fill="none" stroke="#694658" stroke-width="0.2974" stroke-miterlimit="10" d="M44,38.6c-0.5,0.8-1.5,1.1-2.3,0.6
			c-0.8-0.5-1.1-1.5-0.6-2.3"/>
		<path fill="none" stroke="#694658" stroke-width="0.2974" stroke-miterlimit="10" d="M44.6,40.9c-0.5,0.8-1.5,1.1-2.3,0.6
			c-0.8-0.5-1.1-1.5-0.6-2.3"/>
		<path fill="none" stroke="#694658" stroke-width="0.2974" stroke-miterlimit="10" d="M45.2,43.2c-0.5,0.8-1.5,1.1-2.3,0.6
			c-0.8-0.5-1.1-1.5-0.6-2.3"/>
		<path fill="none" stroke="#694658" stroke-width="0.2974" stroke-miterlimit="10" d="M45.8,45.5c-0.5,0.8-1.5,1.1-2.3,0.6
			c-0.8-0.5-1.1-1.5-0.6-2.3"/>
		<path fill="none" stroke="#694658" stroke-width="0.2974" stroke-miterlimit="10" d="M46.4,47.8c-0.5,0.8-1.5,1.1-2.3,0.6
			c-0.8-0.5-1.1-1.5-0.6-2.3"/>
		<path fill="none" stroke="#694658" stroke-width="0.2974" stroke-miterlimit="10" d="M47,50.1c-0.5,0.8-1.5,1.1-2.3,0.6
			c-0.8-0.5-1.1-1.5-0.6-2.3"/>
		<path fill="none" stroke="#694658" stroke-width="0.2974" stroke-miterlimit="10" d="M47.6,52.4c-0.5,0.8-1.5,1.1-2.3,0.6
			c-0.8-0.5-1.1-1.5-0.6-2.3"/>
		<path fill="none" stroke="#694658" stroke-width="0.2974" stroke-miterlimit="10" d="M41.7,39.2c-0.5,0.8-1.5,1.1-2.3,0.6
			c-0.8-0.5-1.1-1.5-0.6-2.3"/>
		<path fill="none" stroke="#694658" stroke-width="0.2974" stroke-miterlimit="10" d="M42.3,41.5c-0.5,0.8-1.5,1.1-2.3,0.6
			c-0.8-0.5-1.1-1.5-0.6-2.3"/>
		<path fill="none" stroke="#694658" stroke-width="0.2974" stroke-miterlimit="10" d="M42.9,43.8c-0.5,0.8-1.5,1.1-2.3,0.6
			c-0.8-0.5-1.1-1.5-0.6-2.3"/>
		<path fill="none" stroke="#694658" stroke-width="0.2974" stroke-miterlimit="10" d="M43.5,46.1c-0.5,0.8-1.5,1.1-2.3,0.6
			c-0.8-0.5-1.1-1.5-0.6-2.3"/>
		<path fill="none" stroke="#694658" stroke-width="0.2974" stroke-miterlimit="10" d="M44.1,48.4c-0.5,0.8-1.5,1.1-2.3,0.6
			c-0.8-0.5-1.1-1.5-0.6-2.3"/>
		<path fill="none" stroke="#694658" stroke-width="0.2974" stroke-miterlimit="10" d="M44.7,50.7c-0.5,0.8-1.5,1.1-2.3,0.6
			c-0.8-0.5-1.1-1.5-0.6-2.3"/>
		<path fill="none" stroke="#694658" stroke-width="0.2974" stroke-miterlimit="10" d="M40.6,44.4c-0.5,0.8-1.5,1.1-2.3,0.6
			c-0.8-0.5-1.1-1.5-0.6-2.3"/>
		<path fill="none" stroke="#694658" stroke-width="0.2974" stroke-miterlimit="10" d="M41.2,46.7c-0.5,0.8-1.5,1.1-2.3,0.6
			c-0.8-0.5-1.1-1.5-0.6-2.3"/>
		<path fill="none" stroke="#694658" stroke-width="0.2974" stroke-miterlimit="10" d="M41.8,49c-0.5,0.8-1.5,1.1-2.3,0.6
			c-0.8-0.5-1.1-1.5-0.6-2.3"/>
		<path fill="none" stroke="#694658" stroke-width="0.2974" stroke-miterlimit="10" d="M38.9,47.3c-0.5,0.8-1.5,1.1-2.3,0.6
			c-0.8-0.5-1.1-1.5-0.6-2.3"/>
	</g>
	<g>
		<path fill="none" stroke="#694658" stroke-width="0.3643" stroke-miterlimit="10" d="M59.1,33.5c-0.5,0.9-1.6,1.2-2.5,0.7
			c-0.9-0.5-1.2-1.6-0.7-2.5"/>
		<path fill="none" stroke="#694658" stroke-width="0.3643" stroke-miterlimit="10" d="M62.3,35.3c-0.5,0.9-1.6,1.2-2.5,0.7
			c-0.9-0.5-1.2-1.6-0.7-2.5"/>
		<path fill="none" stroke="#694658" stroke-width="0.3643" stroke-miterlimit="10" d="M59.8,36c-0.5,0.9-1.6,1.2-2.5,0.7
			c-0.9-0.5-1.2-1.6-0.7-2.5"/>
		<path fill="none" stroke="#694658" stroke-width="0.3643" stroke-miterlimit="10" d="M57.3,36.7c-0.5,0.9-1.6,1.2-2.5,0.7
			c-0.9-0.5-1.2-1.6-0.7-2.5"/>
		<path fill="none" stroke="#694658" stroke-width="0.3643" stroke-miterlimit="10" d="M63,37.8c-0.5,0.9-1.6,1.2-2.5,0.7
			c-0.9-0.5-1.2-1.6-0.7-2.5"/>
		<path fill="none" stroke="#694658" stroke-width="0.3643" stroke-miterlimit="10" d="M60.5,38.5c-0.5,0.9-1.6,1.2-2.5,0.7
			c-0.9-0.5-1.2-1.6-0.7-2.5"/>
	</g>
	<path fill="#2C2014" d="M39.7,58.6l-1.9-1.1c-0.1,0-0.1-0.1-0.1-0.2v-1.8c0-0.2,0.2-0.3,0.3-0.2l1.9,1.1c0.1,0,0.1,0.1,0.1,0.2v1.7
		C40,58.6,39.8,58.7,39.7,58.6z"/>
	<path fill="#2C2014" d="M35,55.9l-1.9-1.1c-0.1,0-0.1-0.1-0.1-0.2v-1.8c0-0.2,0.2-0.3,0.3-0.2l1.9,1.1c0.1,0,0.1,0.1,0.1,0.2v1.7
		C35.3,55.9,35.2,56,35,55.9z"/>
	<polygon fill="#C7C7C6" points="76,73.9 76,57.7 87.3,60.3 87.3,67.6 	"/>
	<polygon fill="#A3A3A3" points="67.3,69 67.3,61.7 71.3,60.5 76,66.5 76,73.9 76,73.9 	"/>
	<polygon fill="#633F4D" points="83.1,53.3 70.7,60.1 66.3,61.3 78.7,54.4 	"/>
	<polygon fill="#81596A" points="70.7,60.1 83.1,53.3 88.3,59.8 75.9,66.7 	"/>
	<polygon fill="#794F64" points="66.3,62.9 66.3,61.3 70.7,60.1 75.9,66.7 75.9,68.3 70.7,61.6 	"/>
	<polygon fill="#936D7C" points="75.9,68.3 75.9,66.6 88.3,59.8 88.3,61.4 	"/>
	<path fill="#2C2014" d="M70.6,67.9v-2.5c0-0.3,0.3-0.5,0.5-0.3l0.7,0.4c0.3,0.1,0.4,0.4,0.4,0.7v2.6L70.6,67.9z"/>
	<g>
		<path fill="none" stroke="#694658" stroke-width="0.3643" stroke-miterlimit="10" d="M81.8,55.5c0.5,0.9,0.2,2-0.7,2.5
			c-0.9,0.5-2,0.2-2.5-0.7"/>
		<path fill="none" stroke="#694658" stroke-width="0.3643" stroke-miterlimit="10" d="M78.6,57.3c0.5,0.9,0.2,2-0.7,2.5
			c-0.9,0.5-2,0.2-2.5-0.7"/>
		<path fill="none" stroke="#694658" stroke-width="0.3643" stroke-miterlimit="10" d="M81.1,58c0.5,0.9,0.2,2-0.7,2.5
			c-0.9,0.5-2,0.2-2.5-0.7"/>
		<path fill="none" stroke="#694658" stroke-width="0.3643" stroke-miterlimit="10" d="M83.6,58.7c0.5,0.9,0.2,2-0.7,2.5
			c-0.9,0.5-2,0.2-2.5-0.7"/>
		<path fill="none" stroke="#694658" stroke-width="0.3643" stroke-miterlimit="10" d="M78,59.8c0.5,0.9,0.2,2-0.7,2.5
			c-0.9,0.5-2,0.2-2.5-0.7"/>
		<path fill="none" stroke="#694658" stroke-width="0.3643" stroke-miterlimit="10" d="M80.5,60.5c0.5,0.9,0.2,2-0.7,2.5
			c-0.9,0.5-2,0.2-2.5-0.7"/>
	</g>
	<path fill="#2C2014" d="M80.7,71.5v-4.2c0-0.5,0.3-0.9,0.7-1.2l1.2-0.7c0.4-0.2,0.9,0.1,0.9,0.5v4L80.7,71.5z"/>
	<path fill="#A18753" d="M67.3,30.3c0,0,2-1.6,4.5-1c2.5,0.7,4.3,3.2,8.4,2.7l-0.7,4.2c-4.1,0.5-5.3-1.8-7.7-2.5
		c-2.5-0.7-4.5,1-4.5,1"/>
	<path fill="#633F4D" d="M67.5,31c0,0,2.1-1.5,4.3-0.8s3.4,2.6,7.3,2.7l-0.5,2.7c-3.9-0.1-4.9-2.3-7.1-2.6c-2.3-0.4-4.3,1-4.3,1"/>
	<path fill="#716C64" d="M34.4,72.5l3.2,1.8l-4.5,2.5L30,75L34.4,72.5z"/>
	<path fill="#716C64" d="M44.6,78.7l3.2,1.8L43.3,83l-3.2-1.8L44.6,78.7z"/>
	<path fill="#716C64" d="M53.8,78.5l3.2,1.8l-4.5,2.5L49.3,81L53.8,78.5z"/>
	<path fill="#716C64" d="M44,73.4l3.2,1.8l-4.5,2.5l-3.2-1.8L44,73.4z"/>
	
		<line fill="#EFA458" stroke="#4D4A48" stroke-width="1.219" stroke-linecap="round" stroke-miterlimit="10" x1="67.2" y1="37.5" x2="67.2" y2="29.4"/>
	<ellipse fill="#A8A29D" cx="23.8" cy="66.7" rx="9.5" ry="4.9"/>
	<rect x="14.3" y="65.3" fill="#A8A29D" width="19" height="1.6"/>
	<ellipse fill="#BBB7B3" cx="23.8" cy="65.3" rx="9.5" ry="4.9"/>
	<ellipse fill="#6590A6" cx="23.8" cy="65.2" rx="8.2" ry="4.3"/>
	<ellipse fill="#A8A29D" cx="23.8" cy="65.3" rx="4.3" ry="2.2"/>
	<rect x="19.5" y="64.7" fill="#A8A29D" width="8.6" height="0.6"/>
	<ellipse fill="#BBB7B3" cx="23.8" cy="64.7" rx="4.3" ry="2.2"/>
	<ellipse fill="#CAC9C9" cx="23.8" cy="64.7" rx="3.1" ry="1.6"/>
	<ellipse fill="#BBB7B3" cx="23.8" cy="55.8" rx="3.1" ry="1.6"/>
	<rect x="20.7" y="55.7" fill="#CAC9C9" width="6.3" height="9"/>
	<polygon fill="#6590A6" points="21.6,57.3 21.6,65.9 20.9,66.3 20.9,67.4 21.3,67.8 21.6,66.6 22.3,66.1 22.3,57.5 	"/>
	<polygon fill="#6590A6" points="26,57.3 26,65.9 26.8,66.3 26.8,67.4 26.4,67.8 26,66.6 25.4,66.1 25.4,57.5 	"/>
	<ellipse fill="#A8A29D" cx="23.8" cy="56" rx="3.5" ry="1.8"/>
	<rect x="20.3" y="55.5" fill="#A8A29D" width="7.1" height="0.5"/>
	<ellipse fill="#BBB7B3" cx="23.8" cy="55.5" rx="3.5" ry="1.8"/>
	<ellipse fill="#A8A29D" cx="23.8" cy="55.5" rx="2.6" ry="1.3"/>
	<ellipse fill="#6590A6" cx="23.8" cy="55.5" rx="1.4" ry="0.7"/>
	<path fill="#996199" d="M26.3,52.5l-2,3.2h-1.1l-1-1.3l-0.5-0.6c-0.1-0.1-0.1-0.2-0.1-0.3l0.3-1.9v-0.1L21.6,50
		c0-0.1,0-0.2,0.1-0.3l2.1-2.9c0.1-0.1,0.3-0.2,0.4-0.1c0,0,0,0,0.1,0l1.2,1.2c0.1,0.1,0.1,0.2,0.1,0.3L25.3,50c0,0.1,0,0.1,0,0.2
		l1,1.9C26.4,52.3,26.4,52.4,26.3,52.5z"/>
	<path fill="#BE7BB4" d="M25,51.2l-2,3.2h-0.8l-0.5-0.6c-0.1-0.1-0.1-0.2-0.1-0.3l0.3-1.9v-0.1L21.6,50c0-0.1,0-0.2,0.1-0.3l2.1-2.9
		c0.1-0.1,0.3-0.2,0.4-0.1c0,0.1,0,0.1,0,0.2L24,48.7c0,0.1,0,0.1,0,0.2l1,1.9C25.1,50.9,25.1,51.1,25,51.2z"/>
	<polygon fill="#6590A6" points="21.4,57.3 21.4,56.8 22.6,55.8 23.1,56 21.8,57 21.8,57.5 	"/>
	<polygon fill="#6590A6" points="26.2,57.3 26.2,56.8 25,55.8 24.5,56 25.8,57 25.8,57.5 	"/>
</g>
</svg>
