<?xml version="1.0" encoding="utf-8"?>
<!-- Generator: Adobe Illustrator 25.0.1, SVG Export Plug-In . SVG Version: 6.00 Build 0)  -->
<svg version="1.1" id="Layer_1" xmlns="http://www.w3.org/2000/svg" xmlns:xlink="http://www.w3.org/1999/xlink" x="0px" y="0px"
	 viewBox="0 0 100 100" enable-background="new 0 0 100 100" xml:space="preserve">
<g>
	<g>
		<polyline fill="none" stroke="#FAFDF9" stroke-width="1.9184" stroke-miterlimit="10" points="18.3,49.6 20.9,52.4 20.9,62 		"/>
		<line fill="none" stroke="#FAFDF9" stroke-width="1.9184" stroke-miterlimit="10" x1="23.6" y1="49.6" x2="20.9" y2="52.4"/>
		<polyline fill="none" stroke="#FAFDF9" stroke-width="1.9184" stroke-miterlimit="10" points="18.3,74.4 20.9,71.6 20.9,62 		"/>
		<line fill="none" stroke="#FAFDF9" stroke-width="1.9184" stroke-miterlimit="10" x1="23.6" y1="74.4" x2="20.9" y2="71.6"/>
		<polyline fill="none" stroke="#FAFDF9" stroke-width="1.9184" stroke-miterlimit="10" points="33.4,59.3 30.6,61.9 21,61.9 		"/>
		<line fill="none" stroke="#FAFDF9" stroke-width="1.9184" stroke-miterlimit="10" x1="33.4" y1="64.7" x2="30.6" y2="61.9"/>
		<polyline fill="none" stroke="#FAFDF9" stroke-width="1.9184" stroke-miterlimit="10" points="8.6,59.3 11.3,61.9 21,61.9 		"/>
		<line fill="none" stroke="#FAFDF9" stroke-width="1.9184" stroke-miterlimit="10" x1="8.6" y1="64.7" x2="11.3" y2="61.9"/>
		<polyline fill="none" stroke="#FAFDF9" stroke-width="1.9184" stroke-miterlimit="10" points="31.6,68.9 27.9,68.7 21,61.9 		"/>
		<line fill="none" stroke="#FAFDF9" stroke-width="1.9184" stroke-miterlimit="10" x1="27.9" y1="72.6" x2="27.9" y2="68.7"/>
		<polyline fill="none" stroke="#FAFDF9" stroke-width="1.9184" stroke-miterlimit="10" points="14.1,51.4 14.2,55.1 21,61.9 		"/>
		<line fill="none" stroke="#FAFDF9" stroke-width="1.9184" stroke-miterlimit="10" x1="10.3" y1="55.1" x2="14.2" y2="55.1"/>
		<polyline fill="none" stroke="#FAFDF9" stroke-width="1.9184" stroke-miterlimit="10" points="14.1,72.6 14.2,68.9 21,62.1 		"/>
		<line fill="none" stroke="#FAFDF9" stroke-width="1.9184" stroke-miterlimit="10" x1="10.3" y1="68.9" x2="14.2" y2="68.9"/>
		<polyline fill="none" stroke="#FAFDF9" stroke-width="1.9184" stroke-miterlimit="10" points="31.6,55.1 27.9,55.3 21,62.1 		"/>
		<line fill="none" stroke="#FAFDF9" stroke-width="1.9184" stroke-miterlimit="10" x1="27.9" y1="51.4" x2="27.9" y2="55.3"/>
		<polygon fill="#FAFDF9" points="23.2,56.7 18.8,56.7 15.7,59.8 15.7,64.2 18.8,67.3 23.2,67.3 26.4,64.2 26.4,59.8 		"/>
	</g>
	<g>
		<polyline fill="none" stroke="#FAFDF9" stroke-width="1.9184" stroke-miterlimit="10" points="76.4,49.6 78.9,52.4 78.9,62 		"/>
		<line fill="none" stroke="#FAFDF9" stroke-width="1.9184" stroke-miterlimit="10" x1="81.7" y1="49.6" x2="78.9" y2="52.4"/>
		<polyline fill="none" stroke="#FAFDF9" stroke-width="1.9184" stroke-miterlimit="10" points="76.4,74.4 78.9,71.6 78.9,62 		"/>
		<line fill="none" stroke="#FAFDF9" stroke-width="1.9184" stroke-miterlimit="10" x1="81.7" y1="74.4" x2="78.9" y2="71.6"/>
		<polyline fill="none" stroke="#FAFDF9" stroke-width="1.9184" stroke-miterlimit="10" points="91.4,59.3 88.7,61.9 79,61.9 		"/>
		<line fill="none" stroke="#FAFDF9" stroke-width="1.9184" stroke-miterlimit="10" x1="91.4" y1="64.7" x2="88.7" y2="61.9"/>
		<polyline fill="none" stroke="#FAFDF9" stroke-width="1.9184" stroke-miterlimit="10" points="66.6,59.3 69.4,61.9 79,61.9 		"/>
		<line fill="none" stroke="#FAFDF9" stroke-width="1.9184" stroke-miterlimit="10" x1="66.6" y1="64.7" x2="69.4" y2="61.9"/>
		<polyline fill="none" stroke="#FAFDF9" stroke-width="1.9184" stroke-miterlimit="10" points="89.7,68.9 85.9,68.7 79.1,61.9 		
			"/>
		<line fill="none" stroke="#FAFDF9" stroke-width="1.9184" stroke-miterlimit="10" x1="85.9" y1="72.6" x2="85.9" y2="68.7"/>
		<polyline fill="none" stroke="#FAFDF9" stroke-width="1.9184" stroke-miterlimit="10" points="72.1,51.4 72.3,55.1 79.1,61.9 		
			"/>
		<line fill="none" stroke="#FAFDF9" stroke-width="1.9184" stroke-miterlimit="10" x1="68.4" y1="55.1" x2="72.3" y2="55.1"/>
		<polyline fill="none" stroke="#FAFDF9" stroke-width="1.9184" stroke-miterlimit="10" points="72.1,72.6 72.3,68.9 79.1,62.1 		
			"/>
		<line fill="none" stroke="#FAFDF9" stroke-width="1.9184" stroke-miterlimit="10" x1="68.4" y1="68.9" x2="72.3" y2="68.9"/>
		<polyline fill="none" stroke="#FAFDF9" stroke-width="1.9184" stroke-miterlimit="10" points="89.7,55.1 85.9,55.3 79.1,62.1 		
			"/>
		<line fill="none" stroke="#FAFDF9" stroke-width="1.9184" stroke-miterlimit="10" x1="85.9" y1="51.4" x2="85.9" y2="55.3"/>
		<polygon fill="#FAFDF9" points="81.3,56.7 76.9,56.7 73.8,59.8 73.8,64.2 76.9,67.3 81.3,67.3 84.4,64.2 84.4,59.8 		"/>
	</g>
	<rect x="28.1" y="80.7" fill="#FFFFFF" width="43.6" height="6.2"/>
	<rect x="39.4" y="76.4" fill="#FFFFFF" width="21" height="4.3"/>
	<rect x="39.4" y="46.3" fill="#FFFFFF" width="21" height="4.3"/>
	<rect x="43" y="53.5" fill="#FFFFFF" width="13.8" height="20.2"/>
	<path fill="#FFFFFF" d="M58.6,32.5L52,43.2h-3.7L45,38.9l-1.7-2c-0.3-0.3-0.3-0.7-0.3-1l1-6.3v-0.3l-1-5c0-0.3,0-0.7,0.3-1l7-9.7
		c0.3-0.3,1-0.7,1.3-0.3c0,0,0,0,0.3,0l4,4c0.3,0.3,0.3,0.7,0.3,1l-1,6c0,0.3,0,0.3,0,0.7l3.3,6.3C59,31.5,59,32.2,58.6,32.5z"/>
</g>
</svg>
