<?xml version="1.0" encoding="utf-8"?>
<!-- Generator: Adobe Illustrator 25.0.1, SVG Export Plug-In . SVG Version: 6.00 Build 0)  -->
<svg version="1.1" id="Layer_1" xmlns="http://www.w3.org/2000/svg" xmlns:xlink="http://www.w3.org/1999/xlink" x="0px" y="0px"
	 viewBox="0 0 100 100" style="enable-background:new 0 0 100 100;" xml:space="preserve">
<style type="text/css">
	.st0{fill:#86694A;}
	.st1{fill:#3B2E19;}
	.st2{fill:#53422C;}
	.st3{fill:#716C64;}
	.st4{fill:#82807D;}
	.st5{fill:#BCB6B0;}
	.st6{fill:#5F5C59;}
	.st7{fill:#B8BFC7;}
	.st8{fill:#C7C7C6;}
	.st9{fill:#2C2014;}
	.st10{fill:#A3A3A3;}
	.st11{fill:#A14342;}
	.st12{fill:#8B3935;}
	.st13{fill:#A94F4B;}
	.st14{fill:#BB625E;}
	.st15{fill:none;stroke:#913D3E;stroke-width:0.2974;stroke-miterlimit:10;}
	.st16{fill:none;stroke:#913D3E;stroke-width:0.3643;stroke-miterlimit:10;}
	.st17{fill:#A18753;}
	.st18{fill:none;stroke:#4D4A48;stroke-width:1.219;stroke-linecap:round;stroke-miterlimit:10;}
	.st19{fill:#A8A29D;}
	.st20{fill:#BBB7B3;}
	.st21{fill:#6590A6;}
	.st22{fill:#CAC9C9;}
	.st23{fill:#EBAC58;}
	.st24{fill:#E0D674;}
</style>
<g>
	<g>
		<path class="st0" d="M46.4,99.2L2.5,74.5C1.6,74,1.1,73.4,1,72.7c-0.1-0.8,0.4-1.7,1.5-2.3l43.9-24.7c2-1.1,5.2-1.1,7.2,0
			l43.9,24.7c2,1.1,2,2.9,0,4.1L53.6,99.2C51.6,100.3,48.4,100.3,46.4,99.2z"/>
		<polygon class="st0" points="1,68.2 99,67.9 99,72.4 1,72.7 		"/>
		<path class="st1" d="M46.4,94.6L2.5,69.9c-2-1.1-2-2.9,0-4.1l43.9-24.7c2-1.1,5.2-1.1,7.2,0l43.9,24.7c2,1.1,2,2.9,0,4.1
			L53.6,94.6C51.6,95.8,48.4,95.8,46.4,94.6z"/>
		<path class="st2" d="M46.9,91L8.4,69.3c-1.8-1-1.8-2.6,0-3.6L46.9,44c1.8-1,4.6-1,6.4,0l38.5,21.7c1.8,1,1.8,2.6,0,3.6L53.3,91
			C51.6,91.9,48.7,91.9,46.9,91z"/>
	</g>
	<path class="st3" d="M46.9,90.9L8.4,69.2c-1.8-1-1.8-2.6,0-3.6l38.5-21.7c1.8-1,4.6-1,6.4,0l38.5,21.7c1.8,1,1.8,2.6,0,3.6
		L53.3,90.9C51.5,91.9,48.7,91.9,46.9,90.9z"/>
	<path class="st4" d="M45.6,78.5l3.2,1.8l-4.5,2.5L41.1,81L45.6,78.5z"/>
	<path class="st4" d="M36.5,77.4l3.2,1.8l-4.5,2.5L32,79.9L36.5,77.4z"/>
	<path class="st4" d="M35.9,72.1l3.2,1.8l-4.5,2.5l-3.2-1.8L35.9,72.1z"/>
	<path class="st4" d="M27.7,69.5l3.1,1.7l-4.3,2.4l-3.1-1.7L27.7,69.5z"/>
	<path class="st5" d="M51.9,36.7L77,50.8c0.4,0.2,0.4,0.9,0,1.1l-17.2,9.4c-1.1,0.6-2.3,0.6-3.4,0l-25.1-14c-0.4-0.2-0.4-0.9,0-1.1
		l17.2-9.4C49.5,36.1,50.8,36.1,51.9,36.7z"/>
	<path class="st6" d="M79.7,61.9l-21.9,12L27.1,56.7l21.9-12L79.7,61.9z"/>
	<path class="st4" d="M72.2,77.8L51.6,88.9c-1.1,0.6-2.4,0.6-3.5,0l-37.9-21c-0.6-0.4-0.6-1.3,0-1.6L23.6,59c0.8-0.5,1.9-0.5,2.7,0
		l29.9,16.9c0.8,0.5,1.8,0.5,2.6,0l5.3-2.8c0.8-0.4,1.8-0.4,2.6,0l5.5,3C72.8,76.5,72.8,77.4,72.2,77.8z"/>
	<path class="st6" d="M80.1,61.2l11.1,6.1L75.7,76l-11.1-6.1L80.1,61.2z"/>
	<polygon class="st7" points="31.3,56.5 31.3,47.3 57.9,53.3 57.9,71.7 	"/>
	<path class="st8" d="M77.2,61.1L58,71.6l-26.7-15L50.4,46L77.2,61.1z"/>
	<path class="st9" d="M41.5,62.5v-4.9c0-0.6,0.6-0.9,1.1-0.6l1.5,0.8c0.5,0.3,0.9,0.8,0.9,1.5v5.2L41.5,62.5z"/>
	<polygon class="st10" points="57.9,71.7 57.9,62.3 77.2,51.4 77.2,61.1 	"/>
	<polygon class="st11" points="78.9,50.9 69,48 57.3,63.1 	"/>
	<polygon class="st12" points="51,35.3 78.9,50.9 69,48 41,32.8 	"/>
	<polygon class="st13" points="57.3,63.1 29.3,47.5 41,32.8 69,48 	"/>
	<polygon class="st8" points="50.5,46.1 50.5,36.6 61.7,34 61.7,52.3 	"/>
	<polygon class="st10" points="66.4,46.3 61.7,52.3 61.7,42.8 66.4,36.8 70.4,37.9 70.4,47.5 	"/>
	<polygon class="st12" points="59.1,30.7 71.5,37.6 67.1,36.3 54.7,29.6 	"/>
	<polygon class="st13" points="61.9,43 49.5,36.1 54.7,29.6 67.1,36.3 	"/>
	<polygon class="st11" points="67.1,37.9 61.9,44.6 61.9,43 67.1,36.3 71.5,37.6 71.5,39.2 	"/>
	<polygon class="st14" points="49.5,37.6 49.5,36.1 61.9,42.8 61.9,44.6 	"/>
	<path class="st9" d="M65.4,45.2v-2.6c0-0.3,0.2-0.6,0.4-0.7l0.7-0.4c0.2-0.1,0.5,0.1,0.5,0.3v2.5L65.4,45.2z"/>
	<path class="st9" d="M48.9,63.3L47,62.2c-0.1,0-0.1-0.1-0.1-0.2v-1.8c0-0.2,0.2-0.3,0.3-0.2l1.9,1.1c0.1,0,0.1,0.1,0.1,0.2V63
		C49.2,63.3,49,63.4,48.9,63.3z"/>
	<g>
		<path class="st15" d="M55.1,53c-0.5,0.8-1.5,1.1-2.3,0.6s-1.1-1.5-0.6-2.3"/>
		<path class="st15" d="M55.7,55.3c-0.5,0.8-1.5,1.1-2.3,0.6s-1.1-1.5-0.6-2.3"/>
		<path class="st15" d="M49.8,42.1c-0.5,0.8-1.5,1.1-2.3,0.6s-1.1-1.5-0.6-2.3"/>
		<path class="st15" d="M52.2,51.3c-0.5,0.8-1.5,1.1-2.3,0.6s-1.1-1.5-0.6-2.3"/>
		<path class="st15" d="M52.8,53.6c-0.5,0.8-1.5,1.1-2.3,0.6s-1.1-1.5-0.6-2.3"/>
		<path class="st15" d="M53.4,55.9c-0.5,0.8-1.5,1.1-2.3,0.6C50.3,56,50,55,50.5,54.2"/>
		<path class="st15" d="M46.9,40.4c-0.5,0.8-1.5,1.1-2.3,0.6s-1.1-1.5-0.6-2.3"/>
		<path class="st15" d="M47.5,42.7c-0.5,0.8-1.5,1.1-2.3,0.6s-1.1-1.5-0.6-2.3"/>
		<path class="st15" d="M48.1,45c-0.5,0.8-1.5,1.1-2.3,0.6s-1.1-1.5-0.6-2.3"/>
		<path class="st15" d="M48.7,47.3c-0.5,0.8-1.5,1.1-2.3,0.6s-1.1-1.5-0.6-2.3"/>
		<path class="st15" d="M49.3,49.6c-0.5,0.8-1.5,1.1-2.3,0.6s-1.1-1.5-0.6-2.3"/>
		<path class="st15" d="M49.9,51.9c-0.5,0.8-1.5,1.1-2.3,0.6C46.8,52,46.5,51,47,50.2"/>
		<path class="st15" d="M50.5,54.2c-0.5,0.8-1.5,1-2.3,0.6c-0.8-0.5-1.1-1.5-0.6-2.3"/>
		<path class="st15" d="M44,38.6c-0.5,0.8-1.5,1.1-2.3,0.6s-1.1-1.5-0.6-2.3"/>
		<path class="st15" d="M44.6,40.9c-0.5,0.8-1.5,1.1-2.3,0.6s-1.1-1.5-0.6-2.3"/>
		<path class="st15" d="M45.2,43.3c-0.5,0.8-1.5,1.1-2.3,0.6s-1.1-1.5-0.6-2.3"/>
		<path class="st15" d="M45.8,45.6c-0.5,0.8-1.5,1.1-2.3,0.6s-1.1-1.5-0.6-2.3"/>
		<path class="st15" d="M46.4,47.9c-0.5,0.8-1.5,1.1-2.3,0.6C43.3,48,43,47,43.5,46.2"/>
		<path class="st15" d="M47,50.2c-0.5,0.8-1.5,1.1-2.3,0.6s-1.1-1.5-0.6-2.3"/>
		<path class="st15" d="M47.6,52.5c-0.5,0.8-1.5,1.1-2.3,0.6s-1.1-1.5-0.6-2.3"/>
		<path class="st15" d="M41.7,39.2c-0.5,0.8-1.5,1.1-2.3,0.6s-1.1-1.5-0.6-2.3"/>
		<path class="st15" d="M42.3,41.5c-0.5,0.8-1.5,1.1-2.3,0.6s-1.1-1.5-0.6-2.3"/>
		<path class="st15" d="M42.9,43.8c-0.5,0.8-1.5,1.1-2.3,0.6C39.8,44,39.5,43,40,42.1"/>
		<path class="st15" d="M43.5,46.2c-0.5,0.8-1.5,1-2.3,0.6c-0.8-0.5-1.1-1.5-0.6-2.3"/>
		<path class="st15" d="M44.1,48.5c-0.5,0.8-1.5,1.1-2.3,0.6s-1.1-1.5-0.6-2.3"/>
		<path class="st15" d="M44.7,50.8c-0.5,0.8-1.5,1.1-2.3,0.6s-1.1-1.5-0.6-2.3"/>
		<path class="st15" d="M40.6,44.5c-0.5,0.8-1.5,1.1-2.3,0.6s-1.1-1.5-0.6-2.3"/>
		<path class="st15" d="M41.2,46.8c-0.5,0.8-1.5,1.1-2.3,0.6s-1.1-1.5-0.6-2.3"/>
		<path class="st15" d="M41.8,49.1c-0.5,0.8-1.5,1.1-2.3,0.6s-1.1-1.5-0.6-2.3"/>
		<path class="st15" d="M38.9,47.4c-0.5,0.8-1.5,1.1-2.3,0.6s-1.1-1.5-0.6-2.3"/>
	</g>
	<g>
		<path class="st16" d="M59.1,33.6c-0.5,0.9-1.6,1.2-2.5,0.7s-1.2-1.6-0.7-2.5"/>
		<path class="st16" d="M62.3,35.4c-0.5,0.9-1.6,1.2-2.5,0.7s-1.2-1.6-0.7-2.5"/>
		<path class="st16" d="M59.8,36.1c-0.5,0.9-1.6,1.2-2.5,0.7s-1.2-1.6-0.7-2.5"/>
		<path class="st16" d="M57.3,36.7c-0.5,0.9-1.6,1.2-2.5,0.7s-1.2-1.6-0.7-2.5"/>
		<path class="st16" d="M63,37.9c-0.5,0.9-1.6,1.2-2.5,0.7s-1.2-1.6-0.7-2.5"/>
		<path class="st16" d="M60.5,38.6c-0.5,0.9-1.6,1.2-2.5,0.7s-1.2-1.6-0.7-2.5"/>
	</g>
	<path class="st9" d="M39.7,58.7l-1.9-1.1c-0.1,0-0.1-0.1-0.1-0.2v-1.8c0-0.2,0.2-0.3,0.3-0.2l1.9,1.1c0.1,0,0.1,0.1,0.1,0.2v1.7
		C40,58.7,39.8,58.8,39.7,58.7z"/>
	<path class="st9" d="M35,56l-1.9-1.1c-0.1,0-0.1-0.1-0.1-0.2V53c0-0.2,0.2-0.3,0.3-0.2l1.9,1.1c0.1,0,0.1,0.1,0.1,0.2v1.7
		C35.3,56,35.2,56.1,35,56z"/>
	<g>
		<polygon class="st8" points="76,73.9 76,57.8 87.3,60.4 87.3,67.7 		"/>
		<polygon class="st10" points="67.3,69.1 67.3,61.7 71.3,60.6 76,66.6 76,73.9 76,73.9 		"/>
		<polygon class="st12" points="83.1,53.4 70.7,60.2 66.3,61.4 78.7,54.5 		"/>
		<polygon class="st13" points="70.7,60.2 83.1,53.4 88.3,59.9 75.9,66.8 		"/>
		<polygon class="st11" points="66.3,63 66.3,61.4 70.7,60.2 75.9,66.8 75.9,68.4 70.7,61.7 		"/>
		<polygon class="st14" points="75.9,68.4 75.9,66.7 88.3,59.9 88.3,61.4 		"/>
		<path class="st9" d="M70.6,68v-2.5c0-0.3,0.3-0.5,0.5-0.3l0.7,0.4c0.3,0.1,0.4,0.4,0.4,0.7V69L70.6,68z"/>
		<g>
			<path class="st16" d="M81.8,55.6c0.5,0.9,0.2,2-0.7,2.5c-0.9,0.5-2,0.2-2.5-0.7"/>
			<path class="st16" d="M78.6,57.4c0.5,0.9,0.2,2-0.7,2.5c-0.9,0.5-2,0.2-2.5-0.7"/>
			<path class="st16" d="M81.1,58c0.5,0.9,0.2,2-0.7,2.5c-0.9,0.5-2,0.2-2.5-0.7"/>
			<path class="st16" d="M83.6,58.7c0.5,0.9,0.2,2-0.7,2.5c-0.9,0.5-2,0.2-2.5-0.7"/>
			<path class="st16" d="M78,59.9c0.5,0.9,0.2,2-0.7,2.5c-0.9,0.5-2,0.2-2.5-0.7"/>
			<path class="st16" d="M80.5,60.5c0.5,0.9,0.2,2-0.7,2.5c-0.9,0.5-2,0.2-2.5-0.7"/>
		</g>
		<path class="st9" d="M80.7,71.6v-4.2c0-0.5,0.3-0.9,0.7-1.2l1.2-0.7c0.4-0.2,0.9,0.1,0.9,0.5v4L80.7,71.6z"/>
	</g>
	<path class="st17" d="M67.3,30.4c0,0,2-1.6,4.5-1c2.5,0.7,4.3,3.2,8.4,2.7l-0.7,4.2c-4.1,0.5-5.3-1.8-7.7-2.5c-2.5-0.7-4.5,1-4.5,1
		"/>
	<path class="st12" d="M67.5,31.1c0,0,2.1-1.5,4.3-0.8c2.2,0.7,3.4,2.6,7.3,2.7l-0.5,2.7c-3.9-0.1-4.9-2.3-7.1-2.6
		c-2.3-0.4-4.3,1-4.3,1"/>
	<path class="st3" d="M34.4,72.5l3.2,1.8l-4.5,2.5L30,75.1L34.4,72.5z"/>
	<path class="st3" d="M44.6,78.7l3.2,1.8L43.3,83l-3.2-1.8L44.6,78.7z"/>
	<path class="st3" d="M53.8,78.6l3.2,1.8l-4.5,2.5l-3.2-1.8L53.8,78.6z"/>
	<path class="st3" d="M44,73.5l3.2,1.8l-4.5,2.5L39.5,76L44,73.5z"/>
	<line class="st18" x1="67.2" y1="37.5" x2="67.2" y2="29.5"/>
	<ellipse class="st19" cx="23.8" cy="66.8" rx="9.5" ry="4.9"/>
	<rect x="14.3" y="65.4" class="st19" width="19" height="1.6"/>
	<ellipse class="st20" cx="23.8" cy="65.4" rx="9.5" ry="4.9"/>
	<ellipse class="st21" cx="23.8" cy="65.2" rx="8.2" ry="4.3"/>
	<ellipse class="st19" cx="23.8" cy="65.4" rx="4.3" ry="2.2"/>
	<rect x="19.5" y="64.8" class="st19" width="8.6" height="0.6"/>
	<ellipse class="st20" cx="23.8" cy="64.8" rx="4.3" ry="2.2"/>
	<ellipse class="st22" cx="23.8" cy="64.8" rx="3.1" ry="1.6"/>
	<ellipse class="st20" cx="23.8" cy="55.9" rx="3.1" ry="1.6"/>
	<rect x="20.7" y="55.7" class="st22" width="6.3" height="9"/>
	<polygon class="st21" points="21.6,57.4 21.6,65.9 20.9,66.4 20.9,67.4 21.3,67.9 21.6,66.7 22.3,66.2 22.3,57.6 	"/>
	<polygon class="st21" points="26,57.4 26,65.9 26.8,66.4 26.8,67.4 26.4,67.9 26,66.7 25.4,66.2 25.4,57.6 	"/>
	<ellipse class="st19" cx="23.8" cy="56" rx="3.5" ry="1.8"/>
	<rect x="20.3" y="55.5" class="st19" width="7.1" height="0.5"/>
	<ellipse class="st20" cx="23.8" cy="55.5" rx="3.5" ry="1.8"/>
	<ellipse class="st19" cx="23.8" cy="55.5" rx="2.6" ry="1.3"/>
	<ellipse class="st21" cx="23.8" cy="55.5" rx="1.4" ry="0.7"/>
	<path class="st23" d="M26.3,52.6l-2,3.2h-1.1l-1-1.3l-0.5-0.6c-0.1-0.1-0.1-0.2-0.1-0.3l0.3-1.9v-0.1l-0.3-1.5c0-0.1,0-0.2,0.1-0.3
		l2.1-2.9c0.1-0.1,0.3-0.2,0.4-0.1c0,0,0,0,0.1,0l1.2,1.2c0.1,0.1,0.1,0.2,0.1,0.3l-0.3,1.8c0,0.1,0,0.1,0,0.2l1,1.9
		C26.4,52.3,26.4,52.5,26.3,52.6z"/>
	<path class="st24" d="M25,51.2l-2,3.2h-0.8l-0.5-0.6c-0.1-0.1-0.1-0.2-0.1-0.3l0.3-1.9v-0.1L21.6,50c0-0.1,0-0.2,0.1-0.3l2.1-2.9
		c0.1-0.1,0.3-0.2,0.4-0.1c0,0.1,0,0.1,0,0.2L24,48.8c0,0.1,0,0.1,0,0.2l1,1.9C25.1,51,25.1,51.1,25,51.2z"/>
	<polygon class="st21" points="21.4,57.4 21.4,56.9 22.6,55.9 23.1,56.1 21.8,57.1 21.8,57.6 	"/>
	<polygon class="st21" points="26.2,57.4 26.2,56.9 25,55.9 24.5,56.1 25.8,57.1 25.8,57.6 	"/>
</g>
</svg>
