<?xml version="1.0" encoding="utf-8"?>
<!-- Generator: Adobe Illustrator 25.0.1, SVG Export Plug-In . SVG Version: 6.00 Build 0)  -->
<svg version="1.1" id="Layer_1" xmlns="http://www.w3.org/2000/svg" xmlns:xlink="http://www.w3.org/1999/xlink" x="0px" y="0px"
	 viewBox="0 0 100 100" enable-background="new 0 0 100 100" xml:space="preserve">
<g>
	<g>
		<ellipse fill="none" stroke="#FFFFFF" stroke-width="3.003" stroke-miterlimit="10" cx="21.5" cy="60.6" rx="9" ry="12.1"/>
		<ellipse fill="none" stroke="#FFFFFF" stroke-width="3.003" stroke-miterlimit="10" cx="21.5" cy="60.6" rx="4.1" ry="5.5"/>
	</g>
	<g>
		<ellipse fill="none" stroke="#FFFFFF" stroke-width="3.003" stroke-miterlimit="10" cx="77.4" cy="60.6" rx="9" ry="12.1"/>
		<ellipse fill="none" stroke="#FFFFFF" stroke-width="3.003" stroke-miterlimit="10" cx="77.4" cy="60.6" rx="4.1" ry="5.5"/>
	</g>
	<rect x="28.1" y="80.7" fill="#FFFFFF" width="43.6" height="6.2"/>
	<rect x="39.4" y="76.4" fill="#FFFFFF" width="21" height="4.3"/>
	<rect x="39.4" y="46.3" fill="#FFFFFF" width="21" height="4.3"/>
	<rect x="42.9" y="53.5" fill="#FFFFFF" width="13.8" height="20.2"/>
	<path fill="#FFFFFF" d="M58.6,32.5l-6.7,10.7h-3.7l-3.3-4.3l-1.7-2c-0.3-0.3-0.3-0.7-0.3-1l1-6.3v-0.3l-1-5c0-0.3,0-0.7,0.3-1
		l7-9.7c0.3-0.3,1-0.7,1.3-0.3c0,0,0,0,0.3,0l4,4c0.3,0.3,0.3,0.7,0.3,1l-1,6c0,0.3,0,0.3,0,0.7l3.3,6.3
		C58.9,31.5,58.9,32.2,58.6,32.5z"/>
</g>
</svg>
