<?xml version="1.0" encoding="utf-8"?>
<!-- Generator: Adobe Illustrator 25.0.1, SVG Export Plug-In . SVG Version: 6.00 Build 0)  -->
<svg version="1.1" id="Layer_1" xmlns="http://www.w3.org/2000/svg" xmlns:xlink="http://www.w3.org/1999/xlink" x="0px" y="0px"
	 viewBox="0 0 100 100" style="enable-background:new 0 0 100 100;" xml:space="preserve">
<style type="text/css">
	.st0{fill:#846748;}
	.st1{fill:#3A2C18;}
	.st2{fill:#706B64;}
	.st3{fill:#5E5D59;}
	.st4{fill:#BCB6AF;}
	.st5{fill:#B5A897;}
	.st6{fill:#9F9A94;}
	.st7{fill:#827F7C;}
	.st8{fill:#2C1F14;}
	.st9{fill:#D2C7BB;}
	.st10{fill:#554E69;}
	.st11{fill:#5F5871;}
	.st12{fill:#423B54;}
	.st13{fill:#BCBBBB;}
	.st14{fill:#586271;}
	.st15{fill:#3B4454;}
	.st16{fill:#756F84;}
	.st17{fill:#674A31;}
	.st18{fill:none;stroke:#2C1F14;stroke-width:0.9684;stroke-miterlimit:10;}
	.st19{fill:#C9667C;}
	.st20{fill:#DD687C;}
	.st21{fill:#EB6F80;}
	.st22{fill:none;stroke:#5F5871;stroke-width:0.4149;stroke-miterlimit:10;}
</style>
<path class="st0" d="M46.4,99.1L2.5,74.4c-2-1.1-2-2.9,0-4.1l43.9-24.7c2-1.1,5.2-1.1,7.2,0l43.9,24.7c1.1,0.6,1.6,1.5,1.5,2.3
	c-0.1,0.7-0.6,1.3-1.5,1.8L53.6,99.1C51.6,100.2,48.4,100.2,46.4,99.1z"/>
<polygon class="st0" points="99,72.6 1,72.3 1,67.8 99,68.1 "/>
<path class="st1" d="M46.4,94.5L2.5,69.8c-2-1.1-2-2.9,0-4.1l43.9-24.7c2-1.1,5.2-1.1,7.2,0l43.9,24.7c2,1.1,2,2.9,0,4.1L53.6,94.5
	C51.6,95.7,48.4,95.7,46.4,94.5z"/>
<path class="st2" d="M46.8,91.3L8.3,69.6c-1.8-1-1.8-2.6,0-3.6l38.5-21.7c1.8-1,4.6-1,6.4,0L91.7,66c1.8,1,1.8,2.6,0,3.6L53.2,91.3
	C51.4,92.3,48.6,92.3,46.8,91.3z"/>
<path class="st3" d="M47.7,45.6L74,60L37.3,80.7L11,66.3L47.7,45.6z"/>
<path class="st4" d="M49.1,38l19.6,10.7c0.5,0.3,0.5,1,0,1.3L40.1,66.1c-1.2,0.7-2.7,0.7-3.9,0L16.6,55.4c-0.5-0.3-0.5-1,0-1.3
	L45.2,38C46.4,37.3,47.9,37.3,49.1,38z"/>
<polygon class="st5" points="38.3,77.8 38.3,56.9 68.7,50 68.7,60.5 "/>
<path class="st6" d="M50.6-40.7l27.3,15L39.8-4.2l-27.4-15L50.6-40.7z"/>
<path class="st7" d="M60.2,79.4L57,81.2l-4.5-2.5l3.2-1.8L60.2,79.4z"/>
<path class="st7" d="M69.3,78.3l-3.2,1.8l-4.5-2.5l3.2-1.8L69.3,78.3z"/>
<path class="st7" d="M69.9,73l-3.2,1.8l-4.5-2.5l3.2-1.8L69.9,73z"/>
<path class="st7" d="M79.2,70.7L76,72.5L71.5,70l3.2-1.8L79.2,70.7z"/>
<path class="st5" d="M46.8,48.6l21.9,12L38.2,77.7l-21.9-12L46.8,48.6z"/>
<path class="st8" d="M53.1,69.5v-6c0-0.7,0.4-1.3,1-1.7l1.7-0.9c0.6-0.3,1.2,0.1,1.2,0.7v5.6L53.1,69.5z"/>
<polygon class="st9" points="16.3,65.8 16.3,54.7 38.3,67.1 38.3,77.8 "/>
<path class="st8" d="M23.7,69.8v-5.6c0-0.6,0.7-1,1.2-0.7l1.7,0.9c0.6,0.3,1,1,1,1.7v6L23.7,69.8z"/>
<polygon class="st10" points="39.1,68 25.7,50.9 14.4,54.1 "/>
<polygon class="st11" points="57.6,33.5 25.7,50.9 14.4,54.1 46.2,36.3 "/>
<polygon class="st12" points="25.7,50.9 57.6,33.5 70.9,50.2 39.1,68 "/>
<polygon class="st13" points="55.9,34.4 43.1,41.4 38.6,42.7 51.3,35.6 "/>
<polygon class="st6" points="43.1,41.4 55.9,34.4 61.2,41.1 48.5,48.3 "/>
<polygon class="st5" points="48.5,48.3 48.5,27.3 61.2,30.3 61.2,41.1 "/>
<polygon class="st9" points="38.6,42.7 38.6,31.8 43.1,30.5 48.5,37.4 48.5,48.3 43.1,41.4 "/>
<polygon class="st14" points="56.5,24.1 42.4,31.8 37.4,33.3 51.5,25.4 "/>
<polygon class="st15" points="42.4,31.8 56.5,24.1 62.4,31.5 48.3,39.4 "/>
<polygon class="st11" points="56.5,22.3 42.4,30.1 37.4,31.5 51.5,23.6 "/>
<polygon class="st12" points="42.4,30.1 56.5,22.3 62.4,29.8 48.3,37.6 "/>
<polygon class="st16" points="37.4,33.3 37.4,31.5 42.4,30.1 48.3,37.6 48.3,39.4 42.4,31.8 "/>
<polygon class="st11" points="48.3,39.4 48.3,37.5 62.4,29.8 62.4,31.5 "/>
<path class="st8" d="M42.3,39v-2.8c0-0.3,0.3-0.5,0.6-0.4l0.8,0.5c0.3,0.2,0.5,0.5,0.5,0.8v3L42.3,39z"/>
<path class="st8" d="M45.3,70v-2.8c0-0.1,0.1-0.2,0.2-0.3l3.2-1.9c0.2-0.1,0.5,0,0.5,0.3v2.9c0,0.1-0.1,0.2-0.2,0.3l-3.2,1.8
	C45.6,70.4,45.3,70.2,45.3,70z"/>
<g>
	<ellipse class="st17" cx="85.6" cy="67.6" rx="2.9" ry="1.9"/>
	<path class="st18" d="M86,67.2c0,0,0.6-1.4-1.6-3.7c-2.3-2.3-1.8-2.8-1.8-3.5"/>
	<path class="st18" d="M85.2,66.9c0,0-1-1.8,1.9-4.5c2.9-2.7,2.2-3.4,2.2-4.3"/>
	<ellipse class="st8" cx="85.6" cy="67" rx="1" ry="0.7"/>
	<circle class="st19" cx="84.3" cy="54.9" r="4.2"/>
	<circle class="st20" cx="89.3" cy="56.8" r="4.2"/>
	<circle class="st21" cx="82.5" cy="58.2" r="4.2"/>
</g>
<g>
	<ellipse class="st17" cx="49.8" cy="87.2" rx="2.9" ry="1.9"/>
	<path class="st18" d="M50.2,86.6c0,0,0.6-1.4-1.6-3.7c-2.3-2.3-1.8-2.8-1.8-3.5"/>
	<path class="st18" d="M49.4,86.3c0,0-1-1.8,1.9-4.5c2.9-2.7,2.2-3.4,2.2-4.3"/>
	<circle class="st19" cx="48.5" cy="74.3" r="4.2"/>
	<circle class="st20" cx="53.4" cy="76.3" r="4.2"/>
	<circle class="st21" cx="46.7" cy="77.6" r="4.2"/>
	<ellipse class="st8" cx="49.8" cy="86.5" rx="1" ry="0.7"/>
</g>
<g>
	<path class="st22" d="M59.9,44.8c0.6,1.1,0.3,2.6-0.9,3.2c-1.1,0.6-2.6,0.3-3.2-0.9"/>
	<path class="st22" d="M63.1,45.7c0.6,1.1,0.3,2.6-0.9,3.2c-1.1,0.6-2.6,0.3-3.2-0.9"/>
	<path class="st22" d="M43,43.7c0.6,1.1,0.3,2.6-0.9,3.2c-1.1,0.6-2.6,0.3-3.2-0.9"/>
	<path class="st22" d="M55.8,47.2c0.6,1.1,0.3,2.6-0.9,3.2c-1.1,0.6-2.6,0.3-3.2-0.9"/>
	<path class="st22" d="M59,48.1c0.6,1.1,0.3,2.6-0.9,3.2c-1.1,0.6-2.6,0.3-3.2-0.9"/>
	<path class="st22" d="M62.2,48.9c0.6,1.1,0.3,2.6-0.9,3.2c-1.1,0.6-2.6,0.3-3.2-0.9"/>
	<path class="st22" d="M38.9,46.1c0.6,1.1,0.3,2.6-0.9,3.2c-1.1,0.6-2.6,0.3-3.2-0.9"/>
	<path class="st22" d="M42.1,46.9c0.6,1.1,0.3,2.6-0.9,3.2c-1.1,0.6-2.6,0.3-3.2-0.9"/>
	<path class="st22" d="M45.3,47.8c0.6,1.1,0.3,2.6-0.9,3.2c-1.1,0.6-2.6,0.3-3.2-0.9"/>
	<path class="st22" d="M48.5,48.7c0.6,1.1,0.3,2.6-0.9,3.2c-1.1,0.6-2.6,0.3-3.2-0.9"/>
	<path class="st22" d="M51.7,49.5c0.6,1.1,0.3,2.6-0.9,3.2c-1.1,0.6-2.6,0.3-3.2-0.9"/>
	<path class="st22" d="M55,50.4c0.6,1.1,0.3,2.6-0.9,3.2c-1.1,0.6-2.6,0.3-3.2-0.9"/>
	<path class="st22" d="M58.2,51.3c0.6,1.1,0.3,2.6-0.9,3.2c-1.1,0.6-2.6,0.3-3.2-0.9"/>
	<path class="st22" d="M34.9,48.4c0.6,1.1,0.3,2.6-0.9,3.2c-1.1,0.6-2.6,0.3-3.2-0.9"/>
	<path class="st22" d="M38.1,49.3c0.6,1.1,0.3,2.6-0.9,3.2c-1.1,0.6-2.6,0.3-3.2-0.9"/>
	<path class="st22" d="M41.3,50.1c0.6,1.1,0.3,2.6-0.9,3.2c-1.1,0.6-2.6,0.3-3.2-0.9"/>
	<path class="st22" d="M44.5,51c0.6,1.1,0.3,2.6-0.9,3.2c-1.1,0.6-2.6,0.3-3.2-0.9"/>
	<path class="st22" d="M47.7,51.9c0.6,1.1,0.3,2.6-0.9,3.2c-1.1,0.6-2.6,0.3-3.2-0.9"/>
	<path class="st22" d="M50.9,52.7c0.6,1.1,0.3,2.6-0.9,3.2c-1.1,0.6-2.6,0.3-3.2-0.9"/>
	<path class="st22" d="M54.1,53.6c0.6,1.1,0.3,2.6-0.9,3.2c-1.1,0.6-2.6,0.3-3.2-0.9"/>
	<path class="st22" d="M34,51.6c0.6,1.1,0.3,2.6-0.9,3.2c-1.1,0.6-2.6,0.3-3.2-0.9"/>
	<path class="st22" d="M37.2,52.5c0.6,1.1,0.3,2.6-0.9,3.2c-1.1,0.6-2.6,0.3-3.2-0.9"/>
	<path class="st22" d="M40.4,53.3c0.6,1.1,0.3,2.6-0.9,3.2c-1.1,0.6-2.6,0.3-3.2-0.9"/>
	<path class="st22" d="M43.6,54.2c0.6,1.1,0.3,2.6-0.9,3.2c-1.1,0.6-2.6,0.3-3.2-0.9"/>
	<path class="st22" d="M46.8,55.1c0.6,1.1,0.3,2.6-0.9,3.2c-1.1,0.6-2.6,0.3-3.2-0.9"/>
	<path class="st22" d="M50,55.9c0.6,1.1,0.3,2.6-0.9,3.2c-1.1,0.6-2.6,0.3-3.2-0.9"/>
	<path class="st22" d="M39.5,56.6c0.6,1.1,0.3,2.6-0.9,3.2c-1.1,0.6-2.6,0.3-3.2-0.9"/>
	<path class="st22" d="M42.7,57.4c0.6,1.1,0.3,2.6-0.9,3.2c-1.1,0.6-2.6,0.3-3.2-0.9"/>
	<path class="st22" d="M45.9,58.3c0.6,1.1,0.3,2.6-0.9,3.2c-1.1,0.6-2.6,0.3-3.2-0.9"/>
	<path class="st22" d="M41.9,60.6c0.6,1.1,0.3,2.6-0.9,3.2c-1.1,0.6-2.6,0.3-3.2-0.9"/>
</g>
<g>
	<path class="st22" d="M55,24.8c0.6,1,0.2,2.3-0.8,2.8c-1,0.6-2.3,0.2-2.8-0.8"/>
	<path class="st22" d="M51.4,26.9c0.6,1,0.2,2.3-0.8,2.8c-1,0.6-2.3,0.2-2.8-0.8"/>
	<path class="st22" d="M54.3,27.7c0.6,1,0.2,2.3-0.8,2.8c-1,0.6-2.3,0.2-2.8-0.8"/>
	<path class="st22" d="M57.1,28.4c0.6,1,0.2,2.3-0.8,2.8c-1,0.6-2.3,0.2-2.8-0.8"/>
	<path class="st22" d="M50.7,29.7c0.6,1,0.2,2.3-0.8,2.8c-1,0.6-2.3,0.2-2.8-0.8"/>
	<path class="st22" d="M53.5,30.5c0.6,1,0.2,2.3-0.8,2.8c-1,0.6-2.3,0.2-2.8-0.8"/>
</g>
<path class="st8" d="M60.5,62.3v-2.8c0-0.1,0.1-0.2,0.2-0.3l3.2-1.9c0.2-0.1,0.5,0,0.5,0.3v2.9c0,0.1-0.1,0.2-0.2,0.3L61,62.6
	C60.7,62.8,60.5,62.6,60.5,62.3z"/>
</svg>
