<?xml version="1.0" encoding="utf-8"?>
<!-- Generator: Adobe Illustrator 25.0.1, SVG Export Plug-In . SVG Version: 6.00 Build 0)  -->
<svg version="1.1" id="Layer_1" xmlns="http://www.w3.org/2000/svg" xmlns:xlink="http://www.w3.org/1999/xlink" x="0px" y="0px"
	 viewBox="0 0 100 100" enable-background="new 0 0 100 100" xml:space="preserve">
<polygon fill="#5F6E71" stroke="#879499" stroke-width="2.4085" stroke-miterlimit="10" points="43.38,48.84 50.01,55.44 
	39.6,65.85 33,59.22 26.38,52.62 36.78,42.22 "/>
<polygon fill="#5F6E71" stroke="#879499" stroke-width="2.4085" stroke-miterlimit="10" points="82.54,9.68 81.63,23.82 
	63.23,42.24 50.01,29.02 68.41,10.6 "/>
<rect x="7.18" y="69.35" transform="matrix(-0.7071 0.7071 -0.7071 -0.7071 84.7249 110.3519)" fill="#4C2B20" stroke="#834B3A" stroke-width="2.4085" stroke-miterlimit="10" width="24.66" height="6.75"/>
<line fill="none" stroke="#834B3A" stroke-width="2.4085" stroke-miterlimit="10" x1="18.68" y1="68.78" x2="26.76" y2="70.25"/>
<line fill="none" stroke="#834B3A" stroke-width="2.4085" stroke-miterlimit="10" x1="13.82" y1="73.64" x2="21.89" y2="75.11"/>
<path fill="#48565C" stroke="#879499" stroke-width="2.4085" stroke-miterlimit="10" d="M9.14,89.33L2.9,83.09
	c-1.32-1.32-1.32-3.45,0-4.77h0c1.32-1.32,3.45-1.32,4.77,0l6.24,6.24c1.32,1.32,1.32,3.45,0,4.77l0,0
	C12.59,90.65,10.46,90.65,9.14,89.33z"/>
<line fill="#5F6E71" stroke="#879499" stroke-width="2.4085" stroke-miterlimit="10" x1="43.38" y1="48.84" x2="33" y2="59.22"/>
<line fill="#5F6E71" stroke="#879499" stroke-width="2.4085" stroke-miterlimit="10" x1="82.54" y1="9.68" x2="56.61" y2="35.62"/>
<rect x="68.16" y="69.35" transform="matrix(0.7071 0.7071 -0.7071 0.7071 74.9985 -35.6165)" fill="#4C2B20" stroke="#834B3A" stroke-width="2.4085" stroke-miterlimit="10" width="24.66" height="6.75"/>
<line fill="none" stroke="#834B3A" stroke-width="2.4085" stroke-miterlimit="10" x1="76.55" y1="73.55" x2="78.01" y2="65.47"/>
<line fill="none" stroke="#834B3A" stroke-width="2.4085" stroke-miterlimit="10" x1="81.41" y1="78.41" x2="82.88" y2="70.34"/>
<polygon fill="#8A9599" stroke="#ADBBC0" stroke-width="2.4085" stroke-miterlimit="10" points="73.61,52.62 60.39,65.85 
	50.01,55.44 43.38,48.84 36.78,42.22 18.38,23.82 17.44,9.68 31.58,10.6 50.01,29.02 "/>
<path fill="#48565C" stroke="#879499" stroke-width="2.4085" stroke-miterlimit="10" d="M97.1,83.09l-6.24,6.24
	c-1.32,1.32-3.45,1.32-4.77,0l0,0c-1.32-1.32-1.32-3.45,0-4.77l6.24-6.24c1.32-1.32,3.45-1.32,4.77,0l0,0
	C98.42,79.64,98.42,81.77,97.1,83.09z"/>
<line fill="#8A9599" stroke="#ADBBC0" stroke-width="2.4085" stroke-miterlimit="10" x1="17.45" y1="9.68" x2="67" y2="59.23"/>
<path fill="#48565C" stroke="#879499" stroke-width="2.4085" stroke-miterlimit="10" d="M81.13,54.65L62.42,73.37
	c-1.32,1.32-3.45,1.32-4.77,0l0,0c-1.32-1.32-1.32-3.45,0-4.77l18.72-18.72c1.32-1.32,3.45-1.32,4.77,0v0
	C82.45,51.19,82.45,53.33,81.13,54.65z"/>
<path fill="#48565C" stroke="#879499" stroke-width="2.4085" stroke-miterlimit="10" d="M37.58,73.37L18.87,54.65
	c-1.32-1.32-1.32-3.45,0-4.77l0,0c1.32-1.32,3.45-1.32,4.77,0l18.72,18.72c1.32,1.32,1.32,3.45,0,4.77l0,0
	C41.04,74.68,38.9,74.68,37.58,73.37z"/>
</svg>
