<?xml version="1.0" encoding="utf-8"?>
<!-- Generator: Adobe Illustrator 25.0.1, SVG Export Plug-In . SVG Version: 6.00 Build 0)  -->
<svg version="1.1" id="Layer_1" xmlns="http://www.w3.org/2000/svg" xmlns:xlink="http://www.w3.org/1999/xlink" x="0px" y="0px"
	 viewBox="0 0 100 100" enable-background="new 0 0 100 100" xml:space="preserve">
<g>
	<path fill="#856849" d="M46.36,99.18l-43.9-24.7c-0.9-0.5-1.4-1.1-1.5-1.8c-0.1-0.8,0.4-1.7,1.5-2.3l43.9-24.7c2-1.1,5.2-1.1,7.2,0
		l43.9,24.7c2,1.1,2,2.9,0,4.1l-43.9,24.7C51.56,100.28,48.36,100.28,46.36,99.18z"/>
	<polygon fill="#856849" points="0.96,68.18 98.96,67.88 98.96,72.38 0.96,72.68 	"/>
	<path fill="#3A2D18" d="M46.36,94.58l-43.9-24.7c-2-1.1-2-2.9,0-4.1l43.9-24.7c2-1.1,5.2-1.1,7.2,0l43.9,24.7c2,1.1,2,2.9,0,4.1
		l-43.9,24.7C51.56,95.78,48.36,95.78,46.36,94.58z"/>
	<path fill="#52412B" d="M46.82,90.99l-38.5-21.7c-1.8-1-1.8-2.6,0-3.6l38.5-21.7c1.8-1,4.6-1,6.4,0l38.5,21.7c1.8,1,1.8,2.6,0,3.6
		l-38.5,21.7C51.52,91.89,48.62,91.89,46.82,90.99z"/>
</g>
<path fill="#3A2D18" d="M47.87,88.23L14.42,69.41c-1.53-0.84-1.53-2.21,0-3.12l33.45-18.84c1.53-0.84,3.96-0.84,5.49,0l33.45,18.82
	c1.53,0.84,1.53,2.21,0,3.12L53.36,88.21C51.83,89.15,49.38,89.15,47.87,88.23z"/>
<g>
	<path fill="#64676F" d="M50.17,44.44c-0.98-0.04-1.99,0.16-2.76,0.59L16.67,62.35c-0.94,0.52-1.27,1.24-0.97,1.91
		c0.15,0.35,0.48,0.69,0.97,0.97l0.2,0.12l30.31-17.08c0.86-0.47,1.97-0.7,3.06-0.66L50.17,44.44z"/>
	<path fill="#64676F" d="M84.23,64.26c-0.15,0.35-0.48,0.69-0.97,0.97l-0.13,0.07L52.89,48.26c-0.75-0.42-1.7-0.64-2.65-0.66
		l-0.07-3.16c0.85,0.03,1.69,0.22,2.35,0.59l30.74,17.33C84.19,62.87,84.52,63.59,84.23,64.26z"/>
	<path fill="#6F7478" d="M50.01,89.17c-1.05,0-2.1-0.21-2.91-0.61L12.7,69.17c-0.8-0.45-1.21-1.03-1.21-1.61v-3.77
		c0,0.58,0.4,1.16,1.21,1.61l0.49,0.28L47.1,84.79c0.79,0.39,1.81,0.6,2.82,0.61h0.07L50.01,89.17z"/>
	<path fill="#64676F" d="M52.82,84.79l13.52-7.62v3.77l-13.52,7.62c-0.76,0.4-1.78,0.61-2.81,0.61l-0.02-3.77
		C51.04,85.4,52.06,85.19,52.82,84.79z"/>
	<path fill="#64676F" d="M88.43,67.25l-0.04,0.02c0.16,0.67-0.23,1.38-1.17,1.9l-14.16,8l-0.09-3.72l0,0l11.28-6.38l-0.03-0.88
		l4.2-2.42v3.48H88.43z"/>
	<path fill="#80858A" d="M87.22,62.18l-34.4-19.39c-1.61-0.89-4.11-0.89-5.72,0L12.7,62.18c-0.79,0.44-1.19,1-1.21,1.57v0.04
		c0,0.58,0.4,1.16,1.21,1.61l0.49,0.28L47.1,84.79c0.79,0.39,1.81,0.6,2.82,0.61c1.06,0.01,2.12-0.2,2.9-0.61l13.52-7.62l-2.2-1.16
		l-11.62,6.55c-1.36,0.71-3.67,0.71-5.11,0L16.67,65.23c-0.49-0.28-0.82-0.62-0.97-0.97c-0.29-0.67,0.04-1.39,0.97-1.91l30.74-17.33
		c1.44-0.8,3.67-0.8,5.11,0l30.74,17.33c0.94,0.52,1.27,1.24,0.97,1.91c-0.15,0.35-0.48,0.69-0.97,0.97l-12.25,6.92l1.97,1.29
		l13.76-7.76l0.49-0.28C88.83,64.51,88.83,63.08,87.22,62.18z"/>
	<polygon fill="#71778F" points="71,72.15 71.07,75.95 73.06,77.17 72.97,73.45 	"/>
</g>
<g>
	<path fill="#595F65" d="M50.03,45.99V81.4c-0.74,0.03-1.49-0.12-2.04-0.47l-23.6-13.27c-0.57-0.31-0.83-0.73-0.8-1.14V43.22
		L50.03,45.99z"/>
	<path fill="#4F535C" d="M76.36,43.22v23.31l-0.1,0.06c-0.02,0.38-0.29,0.76-0.82,1.07l-23.6,13.27c-0.5,0.31-1.16,0.47-1.82,0.48
		V45.99L76.36,43.22z"/>
	<path fill="#6A7077" d="M47.98,57.56l-23.6-13.27c-1.08-0.6-1.08-1.56,0-2.2l23.6-13.29c1.08-0.6,2.79-0.6,3.87,0l23.6,13.27
		c1.08,0.6,1.08,1.56,0,2.2l-23.6,13.27C50.77,58.22,49.04,58.22,47.98,57.56z"/>
	<path fill="#55565C" d="M71.44,44.11l-0.43,0.24L51.55,55.3c-0.91,0.56-2.37,0.56-3.27,0.01L28.82,44.36l-0.43-0.24
		c-0.91-0.5-0.91-1.31,0-1.85l19.89-11.2c0.91-0.51,2.36-0.51,3.27,0l19.89,11.19C72.35,42.76,72.35,43.57,71.44,44.11z"/>
	<path fill="#595F65" d="M71.01,44.35L51.55,55.3c-0.91,0.56-2.37,0.56-3.27,0.01L28.82,44.36L48.28,33.4
		c0.91-0.51,2.36-0.51,3.27,0L71.01,44.35z"/>
	<polygon fill="#43464D" points="68.53,68.26 71.09,66.76 71.09,64.7 68.53,66.2 	"/>
	<polygon fill="#43464D" points="53.82,74.46 56.38,72.96 56.38,70.9 53.82,72.4 	"/>
	<polygon fill="#43464D" points="72.03,62.43 74.59,60.93 74.59,58.87 72.03,60.37 	"/>
	<polygon fill="#43464D" points="63.8,63.58 66.36,62.07 66.36,60.02 63.8,61.52 	"/>
	<polygon fill="#676D73" points="42.56,72.68 40,71.18 40,69.12 42.56,70.62 	"/>
	<polygon fill="#676D73" points="30.1,67.13 27.54,65.63 27.54,63.57 30.1,65.08 	"/>
	<polygon fill="#676D73" points="38.08,56.65 35.52,55.15 35.52,53.09 38.08,54.6 	"/>
	<polygon fill="#676D73" points="39.36,68.18 36.8,66.68 36.8,64.62 39.36,66.13 	"/>
</g>
<path fill="#2C2014" d="M40.02,59.26l2.89,1.63c0.07,0.07,0.15,0.15,0.15,0.3v2.6c0,0.22-0.3,0.37-0.52,0.3l-2.89-1.71
	c-0.07-0.07-0.15-0.15-0.15-0.3v-2.52C39.57,59.26,39.87,59.11,40.02,59.26z"/>
<path fill="#2C2014" d="M59.94,60.21v2.52c0,0.15-0.08,0.23-0.15,0.3l-2.89,1.71c-0.22,0.07-0.52-0.08-0.52-0.3v-2.6
	c0-0.15,0.08-0.23,0.15-0.3l2.89-1.63C59.57,59.76,59.87,59.91,59.94,60.21z"/>
<path fill="#2C2014" d="M72.03,53.63v2.52c0,0.15-0.08,0.23-0.15,0.3l-2.89,1.71c-0.22,0.07-0.52-0.08-0.52-0.3v-2.6
	c0-0.15,0.08-0.23,0.15-0.3l2.89-1.63C71.66,53.18,71.96,53.33,72.03,53.63z"/>
<path fill="#2C2014" d="M28.23,52.5l2.89,1.63c0.07,0.07,0.15,0.15,0.15,0.3v2.6c0,0.22-0.3,0.37-0.52,0.3l-2.89-1.71
	c-0.07-0.07-0.15-0.15-0.15-0.3V52.8C27.78,52.5,28.08,52.35,28.23,52.5z"/>
<path fill="#2C2014" d="M63.19,74.77v-5.34c0-0.59,0.37-1.19,0.89-1.48l1.49-0.82c0.52-0.3,1.11,0.07,1.11,0.67v5.05L63.19,74.77z"
	/>
<ellipse fill="#4F535C" cx="42.96" cy="44.21" rx="2.96" ry="1.8"/>
<ellipse fill="#4F535C" cx="48.89" cy="41.23" rx="1.8" ry="1.09"/>
<g>
	<path fill="#D88232" d="M50.69,22.7c0,0,3.06-2.49,6.79-1.48s5.45,4.5,11.72,3.78c0,0-6.78,1.83-11.43-0.13
		c-4.71-1.98-7.08,2.04-7.08,2.04V22.7z"/>
	
		<line fill="none" stroke="#4C4947" stroke-width="1.5" stroke-linecap="round" stroke-miterlimit="10" x1="50.69" y1="31.88" x2="50.69" y2="22"/>
</g>
<g>
	<path fill="#D88232" d="M71.44,34.02c0,0,3.06-2.49,6.79-1.48c3.73,1.01,5.45,4.5,11.72,3.78c0,0-6.78,1.83-11.43-0.13
		c-4.71-1.98-7.08,2.04-7.08,2.04V34.02z"/>
	
		<line fill="none" stroke="#4C4947" stroke-width="1.5" stroke-linecap="round" stroke-miterlimit="10" x1="71.44" y1="43.2" x2="71.44" y2="33.32"/>
</g>
<g>
	<path fill="#D88232" d="M28.82,34.02c0,0,3.06-2.49,6.79-1.48c3.73,1.01,5.45,4.5,11.72,3.78c0,0-6.78,1.83-11.43-0.13
		c-4.71-1.98-7.08,2.04-7.08,2.04V34.02z"/>
	
		<line fill="none" stroke="#4C4947" stroke-width="1.5" stroke-linecap="round" stroke-miterlimit="10" x1="28.82" y1="43.2" x2="28.82" y2="33.32"/>
</g>
<g>
	<path fill="#D88232" d="M49.91,45.86c0,0,3.06-2.49,6.79-1.48c3.73,1.01,5.45,4.5,11.72,3.78c0,0-6.78,1.83-11.43-0.13
		c-4.71-1.98-7.08,2.04-7.08,2.04V45.86z"/>
	
		<line fill="none" stroke="#4C4947" stroke-width="1.5" stroke-linecap="round" stroke-miterlimit="10" x1="49.91" y1="55.04" x2="49.91" y2="45.16"/>
</g>
<g>
	<path fill="#80858A" d="M66.34,74.21l-13.52,7.62c-0.76,0.4-1.79,0.61-2.83,0.61h-0.07c-1.01-0.01-2.03-0.22-2.82-0.61L23.58,68.58
		l-10.39-5.86l-0.49-0.28c-0.81-0.45-1.21-1.03-1.21-1.61v-0.04c0.02-0.57,0.42-1.13,1.21-1.57l10.88-6.13v2.41l-6.91,3.89
		c-0.27,0.15-0.48,0.32-0.65,0.49c-0.14,0.14-0.25,0.3-0.32,0.46v0.01c-0.07,0.14-0.1,0.29-0.1,0.44c0,0.05,0,0.1,0.01,0.15
		c-0.01,0.04,0,0.08,0.01,0.12c0.02,0.08,0.04,0.16,0.08,0.24c0.15,0.35,0.48,0.69,0.97,0.97l0.21,0.12l6.7,3.78L47.41,79.6
		c1.44,0.71,3.75,0.71,5.11,0l11.62-6.55L66.34,74.21z"/>
	<g>
		<path fill="#64676F" d="M23.58,55.5v3.11l-6.7,3.78l-0.21-0.12c-0.49-0.28-0.82-0.62-0.97-0.97c-0.04-0.08-0.06-0.16-0.08-0.24
			c-0.01-0.04-0.02-0.08-0.01-0.12c-0.01-0.05-0.01-0.1-0.01-0.15c0-0.15,0.03-0.3,0.1-0.44v-0.01c0.07-0.16,0.18-0.32,0.32-0.46
			c0.17-0.17,0.38-0.34,0.65-0.49L23.58,55.5z"/>
		<path fill="#64676F" d="M84.32,60.94c0.01,0.04,0,0.08-0.01,0.12c-0.02,0.08-0.05,0.16-0.08,0.24c-0.15,0.35-0.48,0.69-0.97,0.97
			l-0.13,0.07l-6.77-3.81v-3.02l6.9,3.89c0.09,0.05,0.17,0.1,0.25,0.15s0.15,0.11,0.22,0.16c0.07,0.05,0.13,0.11,0.18,0.17
			c0.07,0.08,0.13,0.15,0.18,0.23c0.11,0.16,0.18,0.32,0.21,0.48C84.33,60.71,84.34,60.82,84.32,60.94z"/>
		<path fill="#6F7478" d="M50.01,86.21c-1.05,0-2.1-0.21-2.91-0.61L23.58,72.34L12.7,66.21c-0.8-0.45-1.21-1.03-1.21-1.61v-3.77
			c0,0.58,0.4,1.16,1.21,1.61l0.49,0.28l10.39,5.86L47.1,81.83c0.79,0.39,1.81,0.6,2.82,0.61h0.07L50.01,86.21z"/>
		<path fill="#64676F" d="M66.34,74.21v3.77L52.82,85.6c-0.76,0.4-1.78,0.61-2.81,0.61l-0.02-3.77c1.04,0,2.07-0.21,2.83-0.61
			L66.34,74.21z"/>
		<path fill="#80858A" d="M15.6,60.79c0-0.15,0.03-0.3,0.1-0.44C15.64,60.49,15.6,60.65,15.6,60.79z"/>
		<path fill="#80858A" d="M16.02,59.88c-0.14,0.15-0.24,0.3-0.32,0.46C15.77,60.18,15.88,60.02,16.02,59.88z"/>
		<polygon fill="#71778F" points="73.06,74.21 71.07,72.99 71,69.19 71.01,69.19 72.97,70.49 		"/>
		<path fill="#80858A" d="M88.42,60.81v0.14c-0.04,0.54-0.44,1.08-1.19,1.49l-0.49,0.28l-10.38,5.85l-3.38,1.91l-1.97-1.29
			l5.35-3.02l6.77-3.83l0.13-0.07c0.49-0.28,0.82-0.62,0.97-0.97c0.03-0.08,0.06-0.16,0.08-0.24c0.01-0.04,0.02-0.08,0.01-0.12
			c0.02-0.12,0.01-0.23-0.02-0.35c-0.02-0.17-0.09-0.33-0.21-0.48c-0.04-0.08-0.11-0.16-0.18-0.23c-0.05-0.06-0.11-0.12-0.18-0.17
			c-0.07-0.05-0.14-0.11-0.22-0.16c-0.07-0.06-0.16-0.11-0.25-0.16l-6.9-3.89v-2.4l10.86,6.12c0.8,0.45,1.18,1.02,1.19,1.6
			L88.42,60.81z"/>
	</g>
	<path fill="#64676F" d="M88.42,64.29l-0.03,0.02c0.16,0.67-0.23,1.38-1.17,1.9l-10.86,6.14l-3.3,1.86l-0.09-3.72l0.01-0.01
		l3.38-1.91l10.38-5.85l0.49-0.28c0.75-0.41,1.15-0.95,1.19-1.49V64.29z"/>
</g>
<polygon fill="#7D8286" points="40,82.44 37.44,80.94 37.44,78.88 40,80.39 "/>
<polygon fill="#7D8286" points="23.58,73.93 21.02,72.43 21.02,70.37 23.58,71.88 "/>
<polygon fill="#7D8286" points="19.59,69.96 17.03,68.46 17.03,66.4 19.59,67.91 "/>
<polygon fill="#585A61" points="75.87,73.48 78.43,71.97 78.43,69.92 75.87,71.42 "/>
<polygon fill="#585A61" points="82.65,68.91 85.21,67.4 85.21,65.35 82.65,66.85 "/>
<polygon fill="#585A61" points="55.1,84.97 57.66,83.46 57.66,81.41 55.1,82.91 "/>
</svg>
