<?xml version="1.0" encoding="utf-8"?>
<!-- Generator: Adobe Illustrator 25.0.1, SVG Export Plug-In . SVG Version: 6.00 Build 0)  -->
<svg version="1.1" id="Layer_1" xmlns="http://www.w3.org/2000/svg" xmlns:xlink="http://www.w3.org/1999/xlink" x="0px" y="0px"
	 viewBox="0 0 100 100" enable-background="new 0 0 100 100" xml:space="preserve">
<path fill="#92552D" d="M55.14,48.35c0,0-25.12-15.23-17.34-37.04C37.8,11.31,60.37,25.99,55.14,48.35z"/>
<path fill="#A56032" d="M44.33,49c0,0-4.21-35.85,22.81-44.78C67.14,4.22,69.95,37.19,44.33,49z"/>
<ellipse fill="#29818C" cx="50.35" cy="37.02" rx="21.15" ry="7.83"/>
<path fill="#B56E38" d="M52.98,45.34c0,0-8.44-24.77-36.24-28.46C16.73,16.88,25.46,39.57,52.98,45.34z"/>
<path fill="#B56E38" d="M48.87,45.34c0,0,8.44-24.77,36.24-28.46C85.11,16.88,76.38,39.57,48.87,45.34z"/>
<path fill="#29818C" d="M28.52,62.68l3.12,26.25c0.38,3.91,3.67,6.89,7.59,6.89h10.76V60.73L28.52,62.68z"/>
<path fill="#29818C" d="M71.5,62.68l-3.12,26.25c-0.38,3.91-3.67,6.89-7.59,6.89H50.03V60.73L71.5,62.68z"/>
<path fill="#B56E38" d="M39.71,43.21c0,0-13.43-13.95-33.21-7.68C6.5,35.52,19.47,47.98,39.71,43.21z"/>
<path fill="#964836" d="M56.42,77.77c-0.85,0.86-1.4,1.67-1.88,2.81c-0.59-0.02-1.2-0.06-1.84-0.07
	C54.53,78.65,56.42,77.77,56.42,77.77z"/>
<path fill="#5B2318" d="M46.91,60.73c-2.13,4.38-6.12,7.3-10.68,7.3c-4.56,0-8.57-2.92-10.7-7.3c2.13-4.38,6.13-7.3,10.7-7.3
	C40.8,53.43,44.78,56.35,46.91,60.73z"/>
<path fill="#5B2318" d="M74.45,60.73c-2.13,4.38-6.12,7.3-10.68,7.3c-4.56,0-8.57-2.92-10.7-7.3c2.13-4.38,6.13-7.3,10.7-7.3
	C68.33,53.43,72.32,56.35,74.45,60.73z"/>
<path fill="#29818C" d="M46.91,56.87c-2.13,4.38-6.12,7.3-10.68,7.3c-4.56,0-8.57-2.92-10.7-7.3c2.13-4.38,6.13-7.3,10.7-7.3
	C40.8,49.57,44.78,52.49,46.91,56.87z"/>
<path fill="#29818C" d="M74.45,56.87c-2.13,4.38-6.12,7.3-10.68,7.3c-4.56,0-8.57-2.92-10.7-7.3c2.13-4.38,6.13-7.3,10.7-7.3
	C68.33,49.57,72.32,52.49,74.45,56.87z"/>
<rect x="46.91" y="60.73" fill="#6B2828" width="6.47" height="18.45"/>
<rect x="46.89" y="77.58" fill="#6B2828" width="6.47" height="18.23"/>
<path fill="#6B2828" d="M50.23,74.2c-5.79,0-10.87,2.83-13.57,7.08c2.7,4.25,7.78,7.1,13.57,7.1c5.77,0,10.83-2.85,13.53-7.1
	C61.06,77.04,56,74.2,50.23,74.2z M50.21,82.11c-4.27,0-8.02-0.33-10.02-0.83c2-0.48,5.76-0.81,10.02-0.81
	c4.28,0,8.02,0.33,10.02,0.81C58.23,81.78,54.49,82.11,50.21,82.11z"/>
<path fill="#5B2318" d="M46.91,53.43c-2.13,4.38-6.12,7.3-10.68,7.3c-4.56,0-8.57-2.92-10.7-7.3c2.13-4.38,6.13-7.3,10.7-7.3
	C40.8,46.12,44.78,49.04,46.91,53.43z"/>
<path fill="#5B2318" d="M50.21,76.24c-4.76,0-8.94,2.02-11.16,5.04c2.11,2.89,5.99,4.85,10.48,5.04c0.22,0.02,0.44,0.02,0.68,0.02
	c0.97,0,1.93-0.09,2.85-0.26c3.53-0.63,6.53-2.39,8.29-4.8C59.13,78.27,54.98,76.24,50.21,76.24z M54.06,82.02
	c-0.85,0.04-1.75,0.07-2.67,0.07c-0.39,0.02-0.77,0.02-1.18,0.02c-4.27,0-8.02-0.33-10.02-0.83c2-0.48,5.76-0.81,10.02-0.81
	c0.86,0,1.69,0.02,2.5,0.04c0.64,0.02,1.25,0.06,1.84,0.07c2.41,0.15,4.4,0.39,5.68,0.7C58.86,81.63,56.67,81.89,54.06,82.02z"/>
<path fill="#371611" d="M60.23,81.28c-1.38,0.35-3.57,0.61-6.18,0.74c-0.85,0.04-1.75,0.07-2.67,0.07
	c-0.39,0.02-0.77,0.02-1.18,0.02c-4.27,0-8.02-0.33-10.02-0.83c2-0.48,5.76-0.81,10.02-0.81c0.86,0,1.69,0.02,2.5,0.04
	c0.64,0.02,1.25,0.06,1.84,0.07C56.96,80.73,58.95,80.97,60.23,81.28z"/>
<circle fill="none" stroke="#F4A025" stroke-width="2.6372" stroke-miterlimit="10" cx="50.03" cy="66.24" r="5.39"/>
<path fill="#5B2318" d="M74.45,53.43c-2.13,4.38-6.12,7.3-10.68,7.3c-4.56,0-8.57-2.92-10.7-7.3c2.13-4.38,6.13-7.3,10.7-7.3
	C68.33,46.12,72.32,49.04,74.45,53.43z"/>
<path fill="#D6A5B5" d="M46.61,48.19c-2.34,4.09-6.72,6.82-11.74,6.82c-5.02,0-9.42-2.73-11.76-6.82c2.34-4.09,6.74-6.82,11.76-6.82
	C39.88,41.37,44.26,44.1,46.61,48.19z"/>
<path fill="#D6A5B5" d="M76.88,48.19c-2.34,4.09-6.72,6.82-11.74,6.82c-5.02,0-9.42-2.73-11.76-6.82c2.34-4.09,6.74-6.82,11.76-6.82
	C70.15,41.37,74.53,44.1,76.88,48.19z"/>
<polygon fill="#D28D58" points="49.99,42.51 45.72,42.51 42.24,62.58 49.99,65.96 "/>
<path fill="#B56E38" d="M60.76,43.21c0,0,13.43-13.95,33.21-7.68C93.98,35.52,81,47.98,60.76,43.21z"/>
<polygon fill="#C98042" points="49.99,42.51 54.26,42.51 57.75,62.58 49.99,65.96 "/>
<path fill="#C98042" d="M48.87,47.64c0,0,13.59-22.37,41.53-19.96C90.4,27.68,76.98,47.95,48.87,47.64z"/>
<path fill="#C98042" d="M51.56,47.64c0,0-13.59-22.37-41.53-19.96C10.02,27.68,23.45,47.95,51.56,47.64z"/>
<path fill="#C98042" d="M44.1,39.1c0,0,5.94,6.34,12.51,0l-5.05,7.46l-4.67-1.42L44.1,39.1z"/>
</svg>
