<?xml version="1.0" encoding="utf-8"?>
<!-- Generator: Adobe Illustrator 25.0.1, SVG Export Plug-In . SVG Version: 6.00 Build 0)  -->
<svg version="1.1" id="Layer_1" xmlns="http://www.w3.org/2000/svg" xmlns:xlink="http://www.w3.org/1999/xlink" x="0px" y="0px"
	 viewBox="0 0 100 100" enable-background="new 0 0 100 100" xml:space="preserve">
<ellipse fill="#A03822" cx="50.35" cy="29.24" rx="21.15" ry="7.83"/>
<path fill="#A03822" d="M28.52,54.9l3.12,26.25c0.38,3.91,3.67,6.89,7.59,6.89h10.76V52.95L28.52,54.9z"/>
<path fill="#8F2E1D" d="M71.5,54.9l-3.12,26.25c-0.38,3.91-3.67,6.89-7.59,6.89H50.03V52.95L71.5,54.9z"/>
<path fill="#B56E38" d="M39.71,35.42c0,0-13.43-13.95-33.21-7.68C6.5,27.74,19.47,40.2,39.71,35.42z"/>
<path fill="#964836" d="M56.42,69.99c-0.85,0.86-1.4,1.67-1.88,2.81c-0.59-0.02-1.2-0.06-1.84-0.07
	C54.53,70.87,56.42,69.99,56.42,69.99z"/>
<path fill="#5B2318" d="M46.91,52.95c-2.13,4.38-6.12,7.3-10.68,7.3c-4.56,0-8.57-2.92-10.7-7.3c2.13-4.38,6.13-7.3,10.7-7.3
	C40.8,45.64,44.78,48.56,46.91,52.95z"/>
<path fill="#5B2318" d="M74.45,52.95c-2.13,4.38-6.12,7.3-10.68,7.3c-4.56,0-8.57-2.92-10.7-7.3c2.13-4.38,6.13-7.3,10.7-7.3
	C68.33,45.64,72.32,48.56,74.45,52.95z"/>
<path fill="#A03822" d="M46.91,49.09c-2.13,4.38-6.12,7.3-10.68,7.3c-4.56,0-8.57-2.92-10.7-7.3c2.13-4.38,6.13-7.3,10.7-7.3
	C40.8,41.79,44.78,44.71,46.91,49.09z"/>
<path fill="#A03822" d="M74.45,49.09c-2.13,4.38-6.12,7.3-10.68,7.3c-4.56,0-8.57-2.92-10.7-7.3c2.13-4.38,6.13-7.3,10.7-7.3
	C68.33,41.79,72.32,44.71,74.45,49.09z"/>
<rect x="46.91" y="52.95" fill="#6B2828" width="6.47" height="18.45"/>
<rect x="46.89" y="69.8" fill="#6B2828" width="6.47" height="18.23"/>
<path fill="#6B2828" d="M50.23,66.42c-5.79,0-10.87,2.83-13.57,7.08c2.7,4.25,7.78,7.1,13.57,7.1c5.77,0,10.83-2.85,13.53-7.1
	C61.06,69.25,56,66.42,50.23,66.42z M50.21,74.33c-4.27,0-8.02-0.33-10.02-0.83c2-0.48,5.76-0.81,10.02-0.81
	c4.28,0,8.02,0.33,10.02,0.81C58.23,74,54.49,74.33,50.21,74.33z"/>
<path fill="#5B2318" d="M46.91,45.64c-2.13,4.38-6.12,7.3-10.68,7.3c-4.56,0-8.57-2.92-10.7-7.3c2.13-4.38,6.13-7.3,10.7-7.3
	C40.8,38.34,44.78,41.26,46.91,45.64z"/>
<path fill="#5B2318" d="M50.21,68.46c-4.76,0-8.94,2.02-11.16,5.04c2.11,2.89,5.99,4.85,10.48,5.04c0.22,0.02,0.44,0.02,0.68,0.02
	c0.97,0,1.93-0.09,2.85-0.26c3.53-0.63,6.53-2.39,8.29-4.8C59.13,70.48,54.98,68.46,50.21,68.46z M54.06,74.23
	c-0.85,0.04-1.75,0.07-2.67,0.07c-0.39,0.02-0.77,0.02-1.18,0.02c-4.27,0-8.02-0.33-10.02-0.83c2-0.48,5.76-0.81,10.02-0.81
	c0.86,0,1.69,0.02,2.5,0.04c0.64,0.02,1.25,0.06,1.84,0.07c2.41,0.15,4.4,0.39,5.68,0.7C58.86,73.85,56.67,74.11,54.06,74.23z"/>
<path fill="#371611" d="M60.23,73.5c-1.38,0.35-3.57,0.61-6.18,0.74c-0.85,0.04-1.75,0.07-2.67,0.07c-0.39,0.02-0.77,0.02-1.18,0.02
	c-4.27,0-8.02-0.33-10.02-0.83c2-0.48,5.76-0.81,10.02-0.81c0.86,0,1.69,0.02,2.5,0.04c0.64,0.02,1.25,0.06,1.84,0.07
	C56.96,72.95,58.95,73.19,60.23,73.5z"/>
<path fill="#5B2318" d="M74.45,45.64c-2.13,4.38-6.12,7.3-10.68,7.3c-4.56,0-8.57-2.92-10.7-7.3c2.13-4.38,6.13-7.3,10.7-7.3
	C68.33,38.34,72.32,41.26,74.45,45.64z"/>
<path fill="#D6A5B5" d="M46.61,40.41c-2.34,4.09-6.72,6.82-11.74,6.82c-5.02,0-9.42-2.73-11.76-6.82c2.34-4.09,6.74-6.82,11.76-6.82
	C39.88,33.59,44.26,36.31,46.61,40.41z"/>
<path fill="#D6A5B5" d="M76.88,40.41c-2.34,4.09-6.72,6.82-11.74,6.82c-5.02,0-9.42-2.73-11.76-6.82c2.34-4.09,6.74-6.82,11.76-6.82
	C70.15,33.59,74.53,36.31,76.88,40.41z"/>
<polygon fill="#D28D58" points="49.99,34.72 45.72,34.72 42.24,54.79 49.99,58.17 "/>
<path fill="#B56E38" d="M60.76,35.42c0,0,13.43-13.95,33.21-7.68C93.98,27.74,81,40.2,60.76,35.42z"/>
<polygon fill="#C98042" points="49.99,34.72 54.26,34.72 57.75,54.79 49.99,58.17 "/>
<path fill="#C98042" d="M48.87,39.85c0,0,13.59-22.37,41.53-19.96C90.4,19.89,76.98,40.16,48.87,39.85z"/>
<path fill="#C98042" d="M51.56,39.85c0,0-13.59-22.37-41.53-19.96C10.02,19.89,23.45,40.16,51.56,39.85z"/>
<path fill="#C98042" d="M44.1,31.32c0,0,5.94,6.34,12.51,0l-5.05,7.46l-4.67-1.42L44.1,31.32z"/>
</svg>
