<?xml version="1.0" encoding="utf-8"?>
<!-- Generator: Adobe Illustrator 25.0.1, SVG Export Plug-In . SVG Version: 6.00 Build 0)  -->
<svg version="1.1" id="Layer_1" xmlns="http://www.w3.org/2000/svg" xmlns:xlink="http://www.w3.org/1999/xlink" x="0px" y="0px"
	 viewBox="0 0 100 100" enable-background="new 0 0 100 100" xml:space="preserve">
<path fill="#FFFFFF" d="M81.86,39.42l-0.33-2.98c-0.39-3.31-1.95-6.39-4.38-8.66l-4.5-4.21l0.6,8.53c0.04,0.56,0.04,1.13,0.02,1.71
	c-0.12,2.36-0.84,4.6-2.01,6.54c-1.19,1.95-2.82,3.64-4.87,4.83h-0.02c-2.82,1.67-6.15,2.3-9.4,1.75l-2.51-0.41
	c-2.94-0.49-5.96-0.49-8.92,0l-2.51,0.41c-3.23,0.55-6.56-0.08-9.4-1.75H33.6c-2.01-1.19-3.68-2.88-4.87-4.83
	c-1.19-1.95-1.89-4.21-2.03-6.54c-0.02-0.58,0-1.15,0.04-1.71l0.6-8.53l-4.5,4.21c-2.45,2.28-3.99,5.35-4.38,8.66l-0.33,2.98
	c-0.51,4.44,1.11,8.84,4.36,11.88l4.52,4.24c2.47,2.3,4.03,5.41,4.38,8.74l2.28,21.26l3.91-10.88l4.13,15.79l1.27-4.38
	c0.9-3.17,2.04-6.27,3.39-9.29L50,68.76l3.6,7.98c1.38,3.04,2.55,6.17,3.47,9.4l1.23,4.3l4.13-15.79l3.93,10.88l2.28-21.26
	c0.37-3.35,1.91-6.45,4.38-8.74l4.52-4.24C80.76,48.26,82.36,43.86,81.86,39.42z M36.23,63.74c-1.73-2.67,1.73-8.18,1.73-8.18
	l10.14,10.75C48.13,66.33,37.99,66.45,36.23,63.74z M63.71,63.74c-1.75,2.71-11.88,2.57-11.88,2.57l10.13-10.75
	C61.96,55.58,65.46,61.07,63.71,63.74z"/>
<path fill="#FFFFFF" d="M39.41,11.5v2.06v1.3h0.68c0.61,0,1.04,0.06,1.29,0.2c0.25,0.13,0.44,0.33,0.55,0.61s0.17,0.81,0.17,1.61
	v14.26c0,0.75-0.06,1.26-0.17,1.53c-0.11,0.26-0.3,0.46-0.55,0.6c-0.25,0.14-0.68,0.21-1.29,0.21h-0.68v1.3v2.06h20.2v-2.06v-1.3
	h-0.64c-0.63,0-1.06-0.07-1.31-0.2c-0.24-0.13-0.43-0.35-0.57-0.64c-0.13-0.29-0.2-0.79-0.2-1.5V17.6c0-0.88,0.06-1.48,0.19-1.78
	c0.12-0.31,0.32-0.54,0.59-0.71c0.27-0.17,0.7-0.25,1.3-0.25h0.64v-1.3V11.5H39.41z M54.03,31.53c0,0.75-0.06,1.26-0.17,1.53
	c-0.11,0.26-0.3,0.46-0.55,0.6c-0.25,0.14-0.68,0.21-1.29,0.21h-0.68v1.3h-3.66v-1.3h-0.64c-0.63,0-1.06-0.07-1.31-0.2
	c-0.24-0.13-0.43-0.35-0.57-0.64c-0.13-0.29-0.2-0.79-0.2-1.5V17.6c0-0.88,0.06-1.48,0.19-1.78c0.12-0.31,0.32-0.54,0.59-0.71
	c0.27-0.17,0.7-0.25,1.3-0.25h0.64v-1.3h3.66v1.3h0.68c0.61,0,1.04,0.06,1.29,0.2c0.25,0.13,0.44,0.33,0.55,0.61
	s0.17,0.81,0.17,1.61V31.53z"/>
</svg>
