<?xml version="1.0" encoding="utf-8"?>
<!-- Generator: Adobe Illustrator 25.0.1, SVG Export Plug-In . SVG Version: 6.00 Build 0)  -->
<svg version="1.1" id="Layer_1" xmlns="http://www.w3.org/2000/svg" xmlns:xlink="http://www.w3.org/1999/xlink" x="0px" y="0px"
	 viewBox="0 0 100 100" enable-background="new 0 0 100 100" xml:space="preserve">
<path fill="#FFFFFF" d="M-43.33,36.28c-3.28,0-6.05,9.02-1.37,9.15c0,0,1.57,2.94-1.09,5.13c-2.36,1.94-0.32,5.06,0.43,6.9
	c0.75,1.83,0.57,2.82-1.77,4.48c0,0,4.14-1.24,3.06-4.98c-1.08-3.74-1.74-3.28,1.02-5.91c1.79-1.71,0.98-5.74,0.98-5.74
	C-37.6,45.68-40.27,36.28-43.33,36.28z"/>
<path fill="#FFFFFF" d="M-43.33-5.11c-3.15,0-5.84,8.35-1.87,9.1c0.36,0.07,0.65,0.34,0.75,0.69c0.3,0.98,0.56,2.93-1.34,4.5
	c-2.36,1.94-0.32,5.06,0.43,6.9c0.75,1.83,0.57,2.82-1.77,4.48c0,0,3.95-1.38,2.81-5.11c-1.02-3.32-1.87-3.66,0.6-5.87
	c1.85-1.66,1.29-3.04,1.4-4.68c0.04-0.52,0.68-0.91,1.18-1.06C-38.02,2.88-40.51-5.11-43.33-5.11z"/>
<circle fill="none" stroke="#FFFFFF" stroke-miterlimit="10" cx="-43.44" cy="-0.12" r="10.43"/>
<path fill="#FFFFFF" d="M49.76,57.28c5.43-5.43-4.32-24.45-12.45-18.91c-0.74,0.5-1.69,0.53-2.48,0.12
	c-2.22-1.17-6.02-4.08-5.44-10.06c0.72-7.41-8.17-9.29-12.63-11.15S10.9,13.4,12.07,6.5c0,0-4.42,9.19,3.96,13.64
	c7.47,3.97,9.54,3.08,9.1,11.15c-0.33,6.05,3.02,7.46,5.65,10.49c0.84,0.97,0.39,2.73-0.21,3.86
	C26.84,52.68,44.89,62.15,49.76,57.28z"/>
<circle fill="none" stroke="#FFFFFF" stroke-width="3.3205" stroke-miterlimit="10" cx="57.49" cy="65.4" r="21.09"/>
<polygon fill="none" stroke="#FFFFFF" stroke-width="2.7093" stroke-miterlimit="10" points="69.07,51.14 56.84,84.26 45.91,51.14 
	75.44,70.5 39.55,70.5 "/>
</svg>
