<?xml version="1.0" encoding="utf-8"?>
<!-- Generator: Adobe Illustrator 25.0.1, SVG Export Plug-In . SVG Version: 6.00 Build 0)  -->
<svg version="1.1" id="Layer_1" xmlns="http://www.w3.org/2000/svg" xmlns:xlink="http://www.w3.org/1999/xlink" x="0px" y="0px"
	 viewBox="0 0 100 100" enable-background="new 0 0 100 100" xml:space="preserve">
<path fill="#FFFFFF" d="M81.86,39.57l-0.33-2.98c-0.39-3.31-1.95-6.39-4.38-8.66l-4.5-4.21l0.6,8.53c0.04,0.56,0.04,1.13,0.02,1.71
	c-0.12,2.36-0.84,4.6-2.01,6.54c-1.19,1.95-2.82,3.64-4.87,4.83h-0.02c-2.82,1.67-6.15,2.3-9.4,1.75l-2.51-0.41
	c-2.94-0.49-5.96-0.49-8.92,0l-2.51,0.41c-3.23,0.55-6.56-0.08-9.4-1.75H33.6c-2.01-1.19-3.68-2.88-4.87-4.83
	c-1.19-1.95-1.89-4.21-2.03-6.54c-0.02-0.58,0-1.15,0.04-1.71l0.6-8.53l-4.5,4.21c-2.45,2.28-3.99,5.35-4.38,8.66l-0.33,2.98
	c-0.51,4.44,1.11,8.84,4.36,11.88l4.52,4.24c2.47,2.3,4.03,5.41,4.38,8.74l2.28,21.26l3.91-10.88l4.13,15.79l1.27-4.38
	c0.9-3.17,2.04-6.27,3.39-9.29L50,68.91l3.6,7.98c1.38,3.04,2.55,6.17,3.47,9.4l1.23,4.3l4.13-15.79l3.93,10.88l2.28-21.26
	c0.37-3.35,1.91-6.45,4.38-8.74l4.52-4.24C80.76,48.41,82.36,44.01,81.86,39.57z M36.23,63.89c-1.73-2.67,1.73-8.18,1.73-8.18
	l10.14,10.75C48.13,66.48,37.99,66.6,36.23,63.89z M63.71,63.89c-1.75,2.71-11.88,2.57-11.88,2.57l10.13-10.75
	C61.96,55.73,65.46,61.22,63.71,63.89z"/>
</svg>
