<?xml version="1.0" encoding="utf-8"?>
<!-- Generator: Adobe Illustrator 25.0.1, SVG Export Plug-In . SVG Version: 6.00 Build 0)  -->
<svg version="1.1" id="Layer_1" xmlns="http://www.w3.org/2000/svg" xmlns:xlink="http://www.w3.org/1999/xlink" x="0px" y="0px"
	 viewBox="0 0 100 100" enable-background="new 0 0 100 100" xml:space="preserve">
<path fill="#FFFFFF" d="M65.37,10.87v2.06v1.3h0.68c0.61,0,1.04,0.06,1.29,0.2c0.25,0.13,0.44,0.33,0.55,0.61s0.17,0.81,0.17,1.61
	v14.26c0,0.75-0.06,1.26-0.17,1.53c-0.11,0.26-0.3,0.46-0.55,0.6c-0.25,0.14-0.68,0.21-1.29,0.21h-0.68v1.3v2.06h20.2v-2.06v-1.3
	h-0.64c-0.63,0-1.06-0.07-1.31-0.2c-0.24-0.13-0.43-0.35-0.57-0.64c-0.13-0.29-0.2-0.79-0.2-1.5V16.97c0-0.88,0.06-1.48,0.19-1.78
	c0.12-0.31,0.32-0.54,0.59-0.71c0.27-0.17,0.7-0.25,1.3-0.25h0.64v-1.3v-2.06H65.37z M80,30.91c0,0.75-0.06,1.26-0.17,1.53
	c-0.11,0.26-0.3,0.46-0.55,0.6c-0.25,0.14-0.68,0.21-1.29,0.21H77.3v1.3h-3.66v-1.3h-0.64c-0.63,0-1.06-0.07-1.31-0.2
	c-0.24-0.13-0.43-0.35-0.57-0.64c-0.13-0.29-0.2-0.79-0.2-1.5V16.97c0-0.88,0.06-1.48,0.19-1.78c0.12-0.31,0.32-0.54,0.59-0.71
	c0.27-0.17,0.7-0.25,1.3-0.25h0.64v-1.3h3.66v1.3h0.68c0.61,0,1.04,0.06,1.29,0.2c0.25,0.13,0.44,0.33,0.55,0.61S80,15.85,80,16.65
	V30.91z"/>
<path fill="#FFFFFF" d="M49.79,57.3c5.43-5.43-4.32-24.45-12.45-18.91c-0.74,0.5-1.69,0.53-2.48,0.12
	c-2.22-1.17-6.02-4.08-5.44-10.06c0.72-7.41-8.17-9.29-12.63-11.15s-5.86-3.88-4.69-10.77c0,0-4.42,9.19,3.96,13.64
	c7.47,3.97,9.54,3.08,9.1,11.15c-0.33,6.05,3.02,7.46,5.65,10.49c0.84,0.97,0.39,2.73-0.21,3.86C26.87,52.7,44.93,62.17,49.79,57.3z
	"/>
<circle fill="none" stroke="#FFFFFF" stroke-width="3.3205" stroke-miterlimit="10" cx="57.52" cy="65.42" r="21.09"/>
<polygon fill="none" stroke="#FFFFFF" stroke-width="2.7093" stroke-miterlimit="10" points="69.11,51.15 56.87,84.28 45.95,51.15 
	75.47,70.51 39.58,70.51 "/>
</svg>
