<?xml version="1.0" encoding="utf-8"?>
<!-- Generator: Adobe Illustrator 25.0.1, SVG Export Plug-In . SVG Version: 6.00 Build 0)  -->
<svg version="1.1" id="Layer_1" xmlns="http://www.w3.org/2000/svg" xmlns:xlink="http://www.w3.org/1999/xlink" x="0px" y="0px"
	 viewBox="0 0 100 100" style="enable-background:new 0 0 100 100;" xml:space="preserve">
<style type="text/css">
	.st0{fill:#FFFFFF;}
</style>
<polygon class="st0" points="24.9,73.7 24.4,73.7 22.9,73.7 22.4,73.7 21.3,84.9 22,84.9 25.3,84.9 26,84.9 "/>
<polygon class="st0" points="26.9,66.6 30.7,66.6 25.7,60.7 28.6,60.7 23.6,51.2 18.6,60.7 21.5,60.7 16.6,66.6 20.3,66.6 15,71.6 
	23.6,71.6 32.2,71.6 "/>
<polygon class="st0" points="45.2,73.7 44.7,73.7 43.2,73.7 42.7,73.7 41.6,84.9 42.3,84.9 45.6,84.9 46.3,84.9 "/>
<polygon class="st0" points="47.2,66.6 51,66.6 46,60.7 48.9,60.7 43.9,51.2 38.9,60.7 41.8,60.7 36.9,66.6 40.6,66.6 35.4,71.6 
	43.9,71.6 52.5,71.6 "/>
<polygon class="st0" points="34.2,46.4 33.7,46.4 32.2,46.4 31.7,46.4 30.6,57.6 31.4,57.6 34.6,57.6 35.4,57.6 "/>
<polygon class="st0" points="36.3,39.3 40.1,39.3 35.1,33.4 38,33.4 33,23.9 28,33.4 30.9,33.4 25.9,39.3 29.7,39.3 24.4,44.2 
	33,44.2 41.6,44.2 "/>
<polygon class="st0" points="65.4,73.7 64.8,73.7 63.4,73.7 62.8,73.7 61.7,84.9 62.5,84.9 65.7,84.9 66.5,84.9 "/>
<polygon class="st0" points="67.4,66.6 71.2,66.6 66.2,60.7 69.1,60.7 64.1,51.2 59.1,60.7 62,60.7 57,66.6 60.8,66.6 55.5,71.6 
	64.1,71.6 72.7,71.6 "/>
<polygon class="st0" points="54.4,46.4 53.9,46.4 52.4,46.4 51.9,46.4 50.8,57.6 51.5,57.6 54.8,57.6 55.5,57.6 "/>
<polygon class="st0" points="56.5,39.3 60.2,39.3 55.3,33.4 58.2,33.4 53.2,23.9 48.1,33.4 51.1,33.4 46.1,39.3 49.9,39.3 
	44.6,44.2 53.2,44.2 61.7,44.2 "/>
<path class="st0" d="M64.8,14.6v2.1V18h0.7c0.6,0,1,0.1,1.3,0.2c0.2,0.1,0.4,0.3,0.6,0.6c0.1,0.3,0.2,0.8,0.2,1.6v14.3
	c0,0.8-0.1,1.3-0.2,1.5c-0.1,0.3-0.3,0.5-0.6,0.6S66,37,65.4,37h-0.7v1.3v2.1H85v-2.1V37h-0.6c-0.6,0-1.1-0.1-1.3-0.2
	c-0.2-0.1-0.4-0.3-0.6-0.6c-0.1-0.3-0.2-0.8-0.2-1.5V20.7c0-0.9,0.1-1.5,0.2-1.8c0.1-0.3,0.3-0.5,0.6-0.7s0.7-0.2,1.3-0.2H85v-1.3
	v-2.1C85,14.6,64.8,14.6,64.8,14.6z M79.4,34.7c0,0.8-0.1,1.3-0.2,1.5c-0.1,0.3-0.3,0.5-0.6,0.6S78,37,77.4,37h-0.7v1.3H73V37h-0.6
	c-0.6,0-1.1-0.1-1.3-0.2c-0.2-0.1-0.4-0.3-0.6-0.6c-0.1-0.3-0.2-0.8-0.2-1.5V20.7c0-0.9,0.1-1.5,0.2-1.8c0.1-0.3,0.3-0.5,0.6-0.7
	s0.7-0.2,1.3-0.2H73v-1.3h3.7V18h0.7c0.6,0,1,0.1,1.3,0.2c0.2,0.1,0.4,0.3,0.6,0.6c0.1,0.3,0.2,0.8,0.2,1.6V34.7z"/>
</svg>
