<?xml version="1.0" encoding="utf-8"?>
<!-- Generator: Adobe Illustrator 25.0.1, SVG Export Plug-In . SVG Version: 6.00 Build 0)  -->
<svg version="1.1" id="Layer_1" xmlns="http://www.w3.org/2000/svg" xmlns:xlink="http://www.w3.org/1999/xlink" x="0px" y="0px"
	 viewBox="0 0 100 100" style="enable-background:new 0 0 100 100;" xml:space="preserve">
<style type="text/css">
	.st0{fill:#FFFFFF;}
</style>
<polygon class="st0" points="30.9,69 30.4,69 28.9,69 28.4,69 27.3,80.1 28,80.1 31.3,80.1 32,80.1 "/>
<polygon class="st0" points="32.9,61.9 36.7,61.9 31.8,56 34.7,56 29.7,46.5 24.6,56 27.5,56 22.6,61.9 26.4,61.9 21.1,66.8 
	29.7,66.8 38.2,66.8 "/>
<polygon class="st0" points="51.2,69 50.7,69 49.2,69 48.7,69 47.6,80.1 48.3,80.1 51.6,80.1 52.3,80.1 "/>
<polygon class="st0" points="53.3,61.9 57,61.9 52.1,56 55,56 50,46.5 45,56 47.9,56 42.9,61.9 46.7,61.9 41.4,66.8 50,66.8 
	58.5,66.8 "/>
<polygon class="st0" points="40.3,41.7 39.8,41.7 38.3,41.7 37.8,41.7 36.6,52.8 37.4,52.8 40.6,52.8 41.4,52.8 "/>
<polygon class="st0" points="42.3,34.5 46.1,34.5 41.1,28.6 44,28.6 39,19.2 34,28.6 36.9,28.6 31.9,34.5 35.7,34.5 30.4,39.5 
	39,39.5 47.6,39.5 "/>
<polygon class="st0" points="71.4,69 70.9,69 69.4,69 68.9,69 67.8,80.1 68.5,80.1 71.8,80.1 72.5,80.1 "/>
<polygon class="st0" points="73.4,61.9 77.2,61.9 72.2,56 75.1,56 70.1,46.5 65.1,56 68,56 63.1,61.9 66.8,61.9 61.6,66.8 
	70.1,66.8 78.7,66.8 "/>
<polygon class="st0" points="60.4,41.7 59.9,41.7 58.4,41.7 57.9,41.7 56.8,52.8 57.6,52.8 60.8,52.8 61.6,52.8 "/>
<polygon class="st0" points="62.5,34.5 66.3,34.5 61.3,28.6 64.2,28.6 59.2,19.2 54.2,28.6 57.1,28.6 52.1,34.5 55.9,34.5 
	50.6,39.5 59.2,39.5 67.8,39.5 "/>
</svg>
