<?xml version="1.0" encoding="utf-8"?>
<!-- Generator: Adobe Illustrator 25.0.1, SVG Export Plug-In . SVG Version: 6.00 Build 0)  -->
<svg version="1.1" id="Layer_1" xmlns="http://www.w3.org/2000/svg" xmlns:xlink="http://www.w3.org/1999/xlink" x="0px" y="0px"
	 viewBox="0 0 100 100" style="enable-background:new 0 0 100 100;" xml:space="preserve">
<style type="text/css">
	.st0{fill:#FFFFFF;}
</style>
<polygon class="st0" points="19.7,74 19.2,74 17.7,74 17.2,74 16.1,85.1 16.8,85.1 20.1,85.1 20.8,85.1 "/>
<polygon class="st0" points="21.8,66.9 25.5,66.9 20.6,61 23.5,61 18.5,51.5 13.5,61 16.4,61 11.4,66.9 15.2,66.9 9.9,71.8 
	18.5,71.8 27,71.8 "/>
<polygon class="st0" points="40,74 39.5,74 38,74 37.5,74 36.4,85.1 37.1,85.1 40.4,85.1 41.1,85.1 "/>
<polygon class="st0" points="42.1,66.9 45.8,66.9 40.9,61 43.8,61 38.8,51.5 33.8,61 36.7,61 31.7,66.9 35.5,66.9 30.2,71.8 
	38.8,71.8 47.4,71.8 "/>
<polygon class="st0" points="29.1,46.7 28.6,46.7 27.1,46.7 26.6,46.7 25.5,57.8 26.2,57.8 29.5,57.8 30.2,57.8 "/>
<polygon class="st0" points="31.1,39.6 34.9,39.6 29.9,33.6 32.8,33.6 27.8,24.2 22.8,33.6 25.7,33.6 20.8,39.6 24.5,39.6 
	19.3,44.5 27.8,44.5 36.4,44.5 "/>
<polygon class="st0" points="60.2,74 59.7,74 58.2,74 57.7,74 56.6,85.1 57.3,85.1 60.6,85.1 61.3,85.1 "/>
<polygon class="st0" points="62.2,66.9 66,66.9 61.1,61 64,61 59,51.5 53.9,61 56.9,61 51.9,66.9 55.7,66.9 50.4,71.8 59,71.8 
	67.5,71.8 "/>
<polygon class="st0" points="49.3,46.7 48.7,46.7 47.3,46.7 46.7,46.7 45.6,57.8 46.4,57.8 49.6,57.8 50.4,57.8 "/>
<polygon class="st0" points="51.3,39.6 55.1,39.6 50.1,33.6 53,33.6 48,24.2 43,33.6 45.9,33.6 40.9,39.6 44.7,39.6 39.4,44.5 
	48,44.5 56.6,44.5 "/>
<path class="st0" d="M59.6,14.9v2.1v1.3h0.7c0.6,0,1,0.1,1.3,0.2c0.2,0.1,0.4,0.3,0.5,0.6c0.1,0.3,0.2,0.8,0.2,1.6v14.3
	c0,0.8-0.1,1.3-0.2,1.5s-0.3,0.5-0.5,0.6s-0.7,0.2-1.3,0.2h-0.7v1.3v2.1h32.1v-2.1v-1.3h-0.6c-0.6,0-1.1-0.1-1.3-0.2
	c-0.2-0.1-0.4-0.3-0.6-0.6c-0.1-0.3-0.2-0.8-0.2-1.5V21c0-0.9,0.1-1.5,0.2-1.8c0.1-0.3,0.3-0.5,0.6-0.7s0.7-0.2,1.3-0.2h0.6v-1.3
	v-2.1C91.7,14.9,59.6,14.9,59.6,14.9z M67.9,38.6v-1.3h-0.6c-0.6,0-1.1-0.1-1.3-0.2c-0.2-0.1-0.4-0.3-0.6-0.6
	c-0.1-0.3-0.2-0.8-0.2-1.5V21c0-0.9,0.1-1.5,0.2-1.8c0.1-0.3,0.3-0.5,0.6-0.7s0.7-0.2,1.3-0.2h0.6v-1.3h3.7v1.3h0.7
	c0.6,0,1,0.1,1.3,0.2c0.2,0.1,0.4,0.3,0.6,0.6c0.1,0.3,0.2,0.8,0.2,1.6v14.3c0,0.8-0.1,1.3-0.2,1.5s-0.3,0.5-0.6,0.6
	s-0.7,0.2-1.3,0.2h-0.7v1.3C71.5,38.6,67.9,38.6,67.9,38.6z M84.1,18.2c0.6,0,1,0.1,1.3,0.2c0.2,0.1,0.4,0.3,0.6,0.6
	c0.1,0.3,0.2,0.8,0.2,1.6v14.3c0,0.8-0.1,1.3-0.2,1.5s-0.3,0.5-0.6,0.6s-0.7,0.2-1.3,0.2h-0.7v1.3h-3.7v-1.3h-0.6
	c-0.6,0-1.1-0.1-1.3-0.2c-0.2-0.1-0.4-0.3-0.6-0.6c-0.1-0.3-0.2-0.8-0.2-1.5V21c0-0.9,0.1-1.5,0.2-1.8c0.1-0.3,0.3-0.5,0.6-0.7
	s0.7-0.2,1.3-0.2h0.6v-1.3h3.7v1.3H84.1z"/>
</svg>
