<?xml version="1.0" encoding="utf-8"?>
<!-- Generator: Adobe Illustrator 25.0.1, SVG Export Plug-In . SVG Version: 6.00 Build 0)  -->
<svg version="1.1" id="Layer_1" xmlns="http://www.w3.org/2000/svg" xmlns:xlink="http://www.w3.org/1999/xlink" x="0px" y="0px"
	 viewBox="0 0 100 100" enable-background="new 0 0 100 100" xml:space="preserve">
<radialGradient id="SVGID_1_" cx="50" cy="48.014" r="48.7" gradientTransform="matrix(1 0 0 1 0 2)" gradientUnits="userSpaceOnUse">
	<stop  offset="0" style="stop-color:#9855A1"/>
	<stop  offset="1" style="stop-color:#8E55A2;stop-opacity:0"/>
</radialGradient>
<circle fill="url(#SVGID_1_)" cx="50" cy="50.01" r="48.7"/>
<g>
	<g>
		<path fill="#476F52" d="M34.11,79.1c-2.62,0-5.41-1.49-7.19-3.34c-0.63-0.65-0.61-1.69,0.05-2.32c0.66-0.63,1.69-0.6,2.32,0.05
			c1.69,1.76,4.28,2.73,5.78,2.17c1.32-0.49,1.67-2.24,1.73-3.63c0.32-6.98-1.02-8.93-1.03-8.95c-0.61-0.67-0.53-1.67,0.14-2.28
			c0.67-0.61,1.74-0.53,2.35,0.14c0.37,0.41,2.21,2.86,1.83,11.24c-0.21,4.52-2.5,6.04-3.86,6.55C35.55,78.99,34.84,79.1,34.11,79.1
			z"/>
	</g>
	<g>
		<path fill="#476F52" d="M72.82,79.62c-0.01,0-0.02,0-0.03,0c-3.82-0.08-10.4-0.66-11.65-3.64c-0.29-0.69-0.54-2.08,0.98-3.69
			c2.25-2.39,3.49-6.39,3.48-11.26l1.64-0.1l1.64,0.09c0.01,5.72-1.54,10.52-4.37,13.52c-0.1,0.11-0.17,0.2-0.22,0.27
			c0.94,0.74,4.84,1.45,8.57,1.53c0.91,0.02,1.63,0.77,1.61,1.68C74.45,78.91,73.71,79.62,72.82,79.62z"/>
	</g>
	<path fill="#352621" d="M37.75,62.05c0,0,13.55-12.3,29.49,0l-3.92-21.66l-23.6-2.1L37.75,62.05z"/>
	<path fill="#5F906F" d="M33.68,51.75c0,0-2.1-21.71,19.28-28.8c0,0,19.24,3.79,18.69,28.8c-0.39,17.82-6.82,12.01-7.85,5.14
		c-1.37-9.14-16.93-8.61-20.91-2.73c-2.88,4.25-1.97,9.63-7.95,9.6C31.92,63.74,33.71,54.42,33.68,51.75z"/>
	<path fill="#476F52" d="M42.29,29.08c0,0,9.99,2.84,10.62,13.16h2.24c0,0,0.06-12.09,8.91-12.82c0,0-1.5-4.99-11.56-7.76
		C52.49,21.66,43.75,24.3,42.29,29.08z"/>
	<polyline fill="none" stroke="#6DA385" stroke-width="2.0929" stroke-miterlimit="10" points="41.24,40.95 45.12,45.76 
		48.68,40.95 	"/>
	<polyline fill="none" stroke="#6DA385" stroke-width="2.0929" stroke-miterlimit="10" points="59.18,43.93 63.06,48.74 
		66.62,43.93 	"/>
	<circle fill="#434343" cx="40.66" cy="41.26" r="2.19"/>
	<circle fill="#434343" cx="39.2" cy="47.63" r="2.19"/>
	<circle fill="#434343" cx="66.24" cy="42.26" r="2.19"/>
	<circle fill="#434343" cx="67.7" cy="48.63" r="2.19"/>
	<polyline fill="none" stroke="#568465" stroke-width="2.0929" stroke-miterlimit="10" points="49.45,27.14 53.33,31.95 
		56.89,27.14 	"/>
</g>
</svg>
