<?xml version="1.0" encoding="utf-8"?>
<!-- Generator: Adobe Illustrator 25.0.1, SVG Export Plug-In . SVG Version: 6.00 Build 0)  -->
<svg version="1.1" id="Layer_1" xmlns="http://www.w3.org/2000/svg" xmlns:xlink="http://www.w3.org/1999/xlink" x="0px" y="0px"
	 viewBox="0 0 100 100" enable-background="new 0 0 100 100" xml:space="preserve">
<radialGradient id="SVGID_1_" cx="50" cy="47.9602" r="48.7" gradientTransform="matrix(1 0 0 1 0 2)" gradientUnits="userSpaceOnUse">
	<stop  offset="0" style="stop-color:#9855A1"/>
	<stop  offset="1" style="stop-color:#8E55A2;stop-opacity:0"/>
</radialGradient>
<circle fill="url(#SVGID_1_)" cx="50" cy="49.96" r="48.7"/>
<g>
	<path fill="#5F906F" d="M26.56,37.01c0,0-4.21,3.03-5.82,11.94c0,0,3.37,5.2,11.66,4.09s1.47-12.63,1.47-12.63L26.56,37.01z"/>
	<path fill="#5F906F" d="M74.24,37.01c0,0,4.21,3.03,5.82,11.94c0,0-3.37,5.2-11.66,4.09s-1.47-12.63-1.47-12.63L74.24,37.01z"/>
	<path fill="#568465" d="M68,73.41c0,0-5.38,6.36-17.6,6.36c-12.22,0-17.59-6.36-17.59-6.36l0.96-17.04
		c-0.42-9.22,1.18-13.36,1.18-13.36l3.68-6l11.77,0.67l11.78-0.67l3.68,6c0,0,1.6,4.14,1.18,13.36L68,73.41z"/>
	<path fill="#476F52" d="M36.84,27.78c0,0-7.18-1.73-12.63,8.3c0,0,7.21,5.94,8.19,10.28c0,0,7.63,0.51,13.71-7.36
		S36.84,27.78,36.84,27.78z"/>
	<path fill="#476F52" d="M63.97,27.78c0,0,7.18-1.73,12.63,8.3c0,0-7.21,5.94-8.19,10.28c0,0-7.63,0.51-13.71-7.36
		S63.97,27.78,63.97,27.78z"/>
	<path fill="#5F906F" d="M57.52,22.7H50.4h-7.12l-6.44,5.07c0,0,5.46,12.01,13.56,12.63c8.11-0.62,13.56-12.63,13.56-12.63
		L57.52,22.7z"/>
	<ellipse fill="#5F906F" cx="50.4" cy="26.78" rx="9.13" ry="6.63"/>
	<ellipse fill="#2D2D2D" cx="50.4" cy="29.33" rx="9.13" ry="6.63"/>
	<path fill="none" d="M36.84,27.78"/>
	<circle fill="#434343" cx="37.01" cy="54" r="1.73"/>
	<circle fill="#434343" cx="68.58" cy="32.39" r="1.73"/>
	<circle fill="#434343" cx="64.3" cy="38.75" r="1.73"/>
	<circle fill="#434343" cx="36.67" cy="59.54" r="1.73"/>
	<circle fill="#434343" cx="36.33" cy="65.07" r="1.73"/>
	<circle fill="#434343" cx="35.99" cy="70.6" r="1.73"/>
	<circle fill="#434343" cx="63.41" cy="54" r="1.73"/>
	<circle fill="#434343" cx="63.74" cy="59.54" r="1.73"/>
	<path fill="#644032" d="M36.84,27.78c0,0,7.42,25.42,30.69,37.32c4.45,2.27,0.47,7.4,0.47,7.4s-22.72-6.18-37.89-43.16
		C30.11,29.33,29.55,24.29,36.84,27.78z"/>
	<polyline fill="none" stroke="#6DA385" stroke-width="1.2747" stroke-miterlimit="10" points="40.53,70.87 42.89,73.8 45.06,70.87 
			"/>
	<polyline fill="none" stroke="#6DA385" stroke-width="1.2747" stroke-miterlimit="10" points="45.27,63.6 47.63,66.53 49.8,63.6 	
		"/>
	<polyline fill="none" stroke="#6DA385" stroke-width="1.2747" stroke-miterlimit="10" points="51.61,70.87 53.97,73.8 56.14,70.87 
			"/>
	<polyline fill="none" stroke="#6DA385" stroke-width="1.2747" stroke-miterlimit="10" points="54.79,49.52 57.15,52.45 
		59.32,49.52 	"/>
	<polyline fill="none" stroke="#6DA385" stroke-width="1.2747" stroke-miterlimit="10" points="47.53,42.31 49.89,45.24 
		52.06,42.31 	"/>
	<polyline fill="none" stroke="#6DA385" stroke-width="1.2747" stroke-miterlimit="10" points="72.18,45.4 75.63,46.9 76.2,43.3 	
		"/>
	<polyline fill="none" stroke="#6DA385" stroke-width="1.2747" stroke-miterlimit="10" points="25.34,45.24 26.43,48.84 
		29.54,46.95 	"/>
</g>
</svg>
