<?xml version="1.0" encoding="utf-8"?>
<!-- Generator: Adobe Illustrator 25.0.1, SVG Export Plug-In . SVG Version: 6.00 Build 0)  -->
<svg version="1.1" id="Layer_1" xmlns="http://www.w3.org/2000/svg" xmlns:xlink="http://www.w3.org/1999/xlink" x="0px" y="0px"
	 viewBox="0 0 100 100" enable-background="new 0 0 100 100" xml:space="preserve">
<radialGradient id="SVGID_1_" cx="50" cy="50.0172" r="48.7" gradientUnits="userSpaceOnUse">
	<stop  offset="0" style="stop-color:#9754A1"/>
	<stop  offset="1" style="stop-color:#8D53A1;stop-opacity:0"/>
</radialGradient>
<circle fill="url(#SVGID_1_)" cx="50" cy="50.02" r="48.7"/>
<g>
	<path fill="#568465" d="M55.6,29.53V58.9c0,0-6.63,3.28-19.86,4.59c-3.49,0.34-6.09,0.37-8.03,0.23c-0.06,0-0.11,0-0.18-0.01
		c-0.19-0.03-0.37-0.04-0.55-0.05c-0.09,0-0.18-0.01-0.27-0.04c-1.05-0.11-1.86-0.29-2.49-0.5c-2.03-0.65-2.15-1.53-2.15-1.53
		c0-6.51,14.7-12.5,14.7-12.5V29.53C48.22,32.39,55.6,29.53,55.6,29.53z"/>
	<circle fill="#2D2D2D" cx="51.36" cy="47.26" r="1.9"/>
	<circle fill="#2D2D2D" cx="51.36" cy="53.66" r="1.9"/>
	<path fill="#659679" d="M34.11,26.59v11.83c0,0.14,0.06,0.26,0.16,0.34c0.72,0.53,3.75,2.58,6.61,1.89
		c0.13-0.03,0.24-0.14,0.29-0.28l1.51-5c0.11-0.36,0.57-0.38,0.71-0.04l2.18,5.27c0.05,0.12,0.15,0.21,0.27,0.23
		c1.13,0.25,7.07,1.36,11.18-1.42c0.11-0.08,0.18-0.21,0.18-0.36V26.42c0-0.25-0.2-0.45-0.44-0.41c-2.65,0.46-16.69,2.71-22.12,0.21
		C34.4,26.11,34.11,26.29,34.11,26.59z"/>
	<ellipse fill="#659679" cx="45.67" cy="26.54" rx="11.55" ry="2.49"/>
	<ellipse fill="#110E0E" cx="45.67" cy="27.03" rx="9.93" ry="1.99"/>
	<path fill="#416148" d="M55.6,58.89c0,2.45-1.75,4.55-4.14,5.02c-11.96,2.38-29.38,4.47-29.38-2.33c0,0,0.45,3.2,13.66,1.9
		C48.97,62.17,55.6,58.89,55.6,58.89z"/>
	<path fill="#5F906F" d="M74.04,37.12v29.37c0,0-6.63,3.28-19.86,4.59c-13.22,1.3-13.66-1.9-13.66-1.9c0-6.51,14.7-12.5,14.7-12.5
		V37.12C66.66,39.99,74.04,37.12,74.04,37.12z"/>
	<path fill="#6DA385" d="M52.55,34.19v11.83c0,0.14,0.06,0.26,0.16,0.34c0.72,0.53,3.75,2.58,6.61,1.89
		c0.13-0.03,0.24-0.14,0.29-0.28l1.51-5c0.11-0.36,0.57-0.38,0.71-0.04l2.18,5.27c0.05,0.12,0.15,0.21,0.27,0.23
		c1.13,0.25,7.07,1.36,11.18-1.42c0.11-0.08,0.18-0.21,0.18-0.36V34.02c0-0.25-0.2-0.45-0.44-0.41c-2.65,0.46-16.69,2.71-22.12,0.21
		C52.84,33.7,52.55,33.89,52.55,34.19z"/>
	<ellipse fill="#6DA385" cx="64.11" cy="34.13" rx="11.55" ry="2.49"/>
	<ellipse fill="#1E1616" cx="64.11" cy="34.63" rx="9.93" ry="1.99"/>
	<path fill="#476F52" d="M74.04,66.49c0,2.45-1.75,4.55-4.14,5.02c-11.96,2.38-29.38,4.47-29.38-2.33c0,0,0.45,3.2,13.66,1.9
		C67.41,69.76,74.04,66.49,74.04,66.49z"/>
	<circle fill="#2D2D2D" cx="68.93" cy="54.25" r="1.9"/>
	<circle fill="#2D2D2D" cx="68.93" cy="60.65" r="1.9"/>
	<path fill="#659679" d="M27.71,63.71c-0.06,0-0.11,0-0.18-0.01c-0.19-0.03-0.37-0.04-0.55-0.05c-0.09,0-0.18-0.01-0.27-0.04
		c-0.79-0.18-1.63-0.34-2.49-0.5c-2.03-0.65-2.15-1.53-2.15-1.53c0-6.51,14.7-12.5,14.7-12.5s4.82,1.05,6.56,4.58
		C44.95,56.96,32.96,63.7,27.71,63.71z"/>
	<path fill="#659679" d="M46.29,71.11c-0.06,0-0.11,0-0.18-0.01c-0.19-0.03-0.37-0.04-0.55-0.05c-0.09,0-0.18-0.01-0.27-0.04
		c-0.79-0.18-1.63-0.34-2.49-0.5c-2.03-0.65-2.15-1.53-2.15-1.53c0-6.51,14.7-12.5,14.7-12.5s4.82,1.05,6.56,4.58
		C63.53,64.35,51.54,71.1,46.29,71.11z"/>
	<polyline fill="none" stroke="#5F906F" stroke-width="1.2747" stroke-miterlimit="10" points="67.03,40.04 69.39,42.97 
		71.56,40.04 	"/>
	<polyline fill="none" stroke="#5F906F" stroke-width="1.2747" stroke-miterlimit="10" points="54.18,42 56.54,44.93 58.71,42 	"/>
	<polyline fill="none" stroke="#568465" stroke-width="1.2747" stroke-miterlimit="10" points="46.83,34.13 49.19,37.06 
		51.36,34.13 	"/>
	<polyline fill="none" stroke="#659679" stroke-width="1.2747" stroke-miterlimit="10" points="40.27,45.8 42.63,48.72 44.8,45.8 	
		"/>
	<polyline fill="none" stroke="#6DA385" stroke-width="1.2747" stroke-miterlimit="10" points="58.25,51.2 60.61,54.13 62.78,51.2 	
		"/>
	<polyline fill="none" stroke="#6DA385" stroke-width="1.2747" stroke-miterlimit="10" points="62.28,57.12 64.64,60.05 
		66.81,57.12 	"/>
	<polyline fill="none" stroke="#476F52" stroke-width="1.2747" stroke-miterlimit="10" points="48.66,62.6 48.59,66.36 52.14,65.51 
			"/>
	<polyline fill="none" stroke="#476F52" stroke-width="1.2747" stroke-miterlimit="10" points="55.52,60.21 55.45,63.98 
		58.99,63.12 	"/>
	<polyline fill="none" stroke="#476F52" stroke-width="1.2747" stroke-miterlimit="10" points="35.81,51.77 35.74,55.54 
		39.28,54.68 	"/>
	<polyline fill="none" stroke="#476F52" stroke-width="1.2747" stroke-miterlimit="10" points="28.32,56.15 28.26,59.91 31.8,59.05 
			"/>
	<polyline fill="none" stroke="#568465" stroke-width="1.2747" stroke-miterlimit="10" points="35.74,31.2 38.1,34.13 40.27,31.2 	
		"/>
</g>
</svg>
