<?xml version="1.0" encoding="utf-8"?>
<!-- Generator: Adobe Illustrator 25.0.1, SVG Export Plug-In . SVG Version: 6.00 Build 0)  -->
<svg version="1.1" id="Layer_1" xmlns="http://www.w3.org/2000/svg" xmlns:xlink="http://www.w3.org/1999/xlink" x="0px" y="0px"
	 viewBox="0 0 100 100" style="enable-background:new 0 0 100 100;" xml:space="preserve">
<style type="text/css">
	.st0{fill:#FFFFFF;}
</style>
<path class="st0" d="M69,56.4c8.3-2.1,15.6-9.4,15.6-9.4c-13.2-0.5-19.7,4.4-22.4,7.3c-0.9-1.7-2.4-3.1-4.3-3.7c0-0.2,0-0.3,0-0.5
	c0-0.9-0.2-1.7-0.4-2.5c10.2,0.8,20.9-9.9,20.9-9.9c-4.2-0.1-7.7,0.2-10.7,0.9c1.8-2.4,3.6-5.5,5.1-9.4c0,0-14.1,5.5-17.4,15.2
	c-0.7-0.6-1.5-1.2-2.4-1.5c0-0.1,0-0.2,0-0.3c0-2-0.8-3.8-2-5.2c3.7-1.3,10.8-5.3,15.6-17.6c0,0-9.6,3.8-14.8,10.5
	c1-4.2,1.1-10.3-1.8-18.5c0,0-7.1,13.7-2.9,23.2c-0.6-0.1-1.2-0.2-1.8-0.2c-3.7,0-6.8,2.6-7.6,6.1c-7.1-7.4-22.3-6.3-22.3-6.3
	c6.3,5.9,12,8.2,16.2,9C23.3,45.7,16.1,53,16.1,53c13,0.5,19.4-4.2,22.2-7.1c0.8,1.8,2.3,3.2,4.2,3.9c0,0.1,0,0.2,0,0.3
	c0,0.8,0.1,1.6,0.4,2.4c-10.1-0.6-20.6,10-20.6,9.9c4.2,0.1,7.7-0.2,10.6-0.9c-1.8,2.4-3.6,5.5-5.1,9.4c0,0,13.8-5.4,17.3-15
	c0.7,0.6,1.6,1.1,2.5,1.5c0,0.2,0,0.3,0,0.5c0,1.8,0.6,3.5,1.7,4.8c-3.8,1.4-10.6,5.5-15.3,17.5c0,0,9.6-3.8,14.8-10.5
	c-1,4.2-1.1,10.3,1.8,18.5c0,0,6.8-13.2,3.1-22.7c0.5,0.1,1.1,0.2,1.6,0.2c3.9,0,7.1-2.8,7.7-6.5c7.2,7.3,22.2,6.3,22.2,6.3
	C78.9,59.5,73.3,57.2,69,56.4z"/>
</svg>
