<?xml version="1.0" encoding="utf-8"?>
<!-- Generator: Adobe Illustrator 25.0.1, SVG Export Plug-In . SVG Version: 6.00 Build 0)  -->
<svg version="1.1" id="Layer_1" xmlns="http://www.w3.org/2000/svg" xmlns:xlink="http://www.w3.org/1999/xlink" x="0px" y="0px"
	 viewBox="0 0 100 100" enable-background="new 0 0 100 100" xml:space="preserve">
<path fill="#6C8273" d="M38.09,20.56c0,0,5.03-5.15,0.99-16.32C39.08,4.24,33.74,14.59,38.09,20.56z"/>
<path fill="#586D5E" d="M38.19,20.9c0,0,7.18-0.56,11.5-11.62C49.69,9.28,38.85,13.54,38.19,20.9z"/>
<path fill="#586D5E" d="M46.14,32.81c0,0,6.73-2.57,15.37,5.56C61.52,38.37,49.9,39.17,46.14,32.81z"/>
<path fill="#6C8273" d="M45.87,32.58c0,0,3.36-6.37,15.23-5.95C61.09,26.63,52.89,34.89,45.87,32.58z"/>
<path fill="#586D5E" d="M41.94,26.6c0,0,3.36-6.37,15.23-5.95C57.16,20.65,48.96,28.91,41.94,26.6z"/>
<path fill="#6C8273" d="M42.12,26.88c0,0,7.18-0.56,11.5-11.62C53.62,15.26,42.78,19.52,42.12,26.88z"/>
<path fill="#6C8273" d="M36.41,30.23c0,0-7.18,0.56-11.5,11.62C24.91,41.85,35.75,37.59,36.41,30.23z"/>
<path fill="#586D5E" d="M36.6,30.51c0,0-3.36,6.37-15.23,5.95C21.37,36.47,29.58,28.2,36.6,30.51z"/>
<path fill="#6C8273" d="M40.44,36.56c0,0-5.03,5.15-0.99,16.32C39.45,52.88,44.8,42.53,40.44,36.56z"/>
<path fill="#586D5E" d="M40.35,36.21c0,0-7.18,0.56-11.5,11.62C28.84,47.83,39.68,43.57,40.35,36.21z"/>
<path fill="#586D5E" d="M32.39,24.31c0,0-6.73,2.57-15.37-5.56C17.02,18.75,28.63,17.94,32.39,24.31z"/>
<path fill="#6C8273" d="M32.67,24.53c0,0-3.36,6.37-15.23,5.95C17.44,30.49,25.65,22.22,32.67,24.53z"/>
<path fill="#924B40" d="M83.45,93.38L44.89,34.71l-2.33,1.53l38.57,58.66c0.41,0.63,1.24,0.81,1.89,0.43l0,0
	C83.68,94.93,83.89,94.04,83.45,93.38z"/>
<circle fill="#8A433C" cx="42.47" cy="33.57" r="4.95"/>
<circle fill="#9A514B" cx="39.2" cy="28.6" r="4.95"/>
<circle fill="#A65751" cx="36.06" cy="23.82" r="4.95"/>
<rect x="48.58" y="38.61" transform="matrix(0.8356 -0.5493 0.5493 0.8356 -16.7971 35.2034)" fill="#A07558" width="3.67" height="14.12"/>
</svg>
