<?xml version="1.0" encoding="utf-8"?>
<!-- Generator: Adobe Illustrator 25.0.1, SVG Export Plug-In . SVG Version: 6.00 Build 0)  -->
<svg version="1.1" id="Layer_1" xmlns="http://www.w3.org/2000/svg" xmlns:xlink="http://www.w3.org/1999/xlink" x="0px" y="0px"
	 viewBox="0 0 100 100" enable-background="new 0 0 100 100" xml:space="preserve">
<path fill="#E0E0E0" d="M57.2,40c7,10.1,11.9,21.5,14.4,33.5c0.3,1.2-0.3,2.3-1.1,2.8s-2,0.7-3.1,0.1l0,0
	c-10.3-6.5-19.3-15.1-26.2-25.1L22.5,24.4l-2.9-4.2c-0.1-0.1-0.1-0.2-0.2-0.3c-2.6-4.1-1.6-9.5,2.4-12.3l1.2-0.9
	C27.2,4,32.9,5,35.7,9.1l2.9,4.2L57.2,40z"/>
<line fill="none" stroke="#919191" stroke-width="0.9099" stroke-linecap="round" stroke-miterlimit="10" x1="43.5" y1="37.6" x2="32.6" y2="35.7"/>
<line fill="none" stroke="#919191" stroke-width="0.9099" stroke-linecap="round" stroke-miterlimit="10" x1="54.9" y1="54" x2="44" y2="52.2"/>
<line fill="none" stroke="#919191" stroke-width="0.9099" stroke-linecap="round" stroke-miterlimit="10" x1="49.4" y1="46" x2="51.6" y2="35.2"/>
<path fill="#B7B7B7" d="M36.5,27.3c0,0,31.5,51.7,47.7,68.7C73.9,74.9,36.5,27.3,36.5,27.3z"/>
<path fill="#303030" d="M35.3,8.3l2.4,3.4c-0.4,4.6-1.3,9.6-2.8,13.4c-4.1,0.1-9.1-0.9-13.6-2.1l-2.5-3.6c-2.7-4.1-1.6-9.7,2.5-12.6
	L22.5,6C26.6,3.1,32.4,4.1,35.3,8.3z"/>
</svg>
