<?xml version="1.0" encoding="utf-8"?>
<!-- Generator: Adobe Illustrator 25.0.1, SVG Export Plug-In . SVG Version: 6.00 Build 0)  -->
<svg version="1.1" id="Layer_1" xmlns="http://www.w3.org/2000/svg" xmlns:xlink="http://www.w3.org/1999/xlink" x="0px" y="0px"
	 viewBox="0 0 100 100" enable-background="new 0 0 100 100" xml:space="preserve">
<polygon fill="#434343" points="19.24,98.8 11.33,90.87 76.8,12.6 85.18,20.71 "/>
<path fill="#434343" d="M18.18,11.56v84.6c0,2.12,1.72,3.83,3.83,3.83h69.17c2.12,0,3.83-1.72,3.83-3.83v-84.6
	c0-2.12-1.72-3.83-3.83-3.83H22.02C19.9,7.73,18.18,9.45,18.18,11.56z"/>
<g>
	<path fill="#E2C4A6" d="M13.95,7.65v77.61c0,1.94,1.58,3.52,3.52,3.52h63.46c1.94,0,3.52-1.58,3.52-3.52V7.65
		c0-1.94-1.58-3.52-3.52-3.52H17.47C15.53,4.13,13.95,5.71,13.95,7.65z"/>
	<path fill="#E2C4A6" d="M21.04,14.74v77.61c0,1.94,1.58,3.52,3.52,3.52h63.46c1.94,0,3.52-1.58,3.52-3.52V14.74
		c0-1.94-1.58-3.52-3.52-3.52H24.56C22.62,11.22,21.04,12.8,21.04,14.74z"/>
	<polygon fill="#E2C4A6" points="22.19,94.95 15.33,88.05 83.27,5.03 90.42,12.17 	"/>
</g>
<path fill="#434343" d="M10.46,3.83v84.6c0,2.12,1.72,3.83,3.83,3.83h69.17c2.12,0,3.83-1.72,3.83-3.83V3.83
	C87.3,1.72,85.58,0,83.46,0H14.29C12.17,0,10.46,1.72,10.46,3.83z"/>
<path fill="none" stroke="#5F5E5F" stroke-width="1.0812" stroke-miterlimit="10" d="M15.81,8.94v74.4c0,1.86,1.48,3.37,3.3,3.37
	h59.53c1.82,0,3.3-1.51,3.3-3.37V8.94c0-1.86-1.48-3.37-3.3-3.37H19.11C17.29,5.56,15.81,7.07,15.81,8.94z"/>
<path fill="#434343" d="M19.24,98.8"/>
<polygon fill="#5F5E5F" points="75.8,86.64 69.58,83.53 62.56,86.56 69.16,89.88 "/>
<polygon fill="#5F5E5F" points="15.73,53.86 13.38,60.75 15.73,68.48 18.25,61.17 "/>
<polygon fill="#5F5E5F" points="81.86,19.93 79.51,26.82 81.86,34.55 84.38,27.24 "/>
<polygon fill="#5F5E5F" points="53.5,5.48 46.61,3.13 38.89,5.48 46.19,8 "/>
<g>
	<path fill="#5F5E5F" d="M62.51,37.73l-0.1,0.4l-0.4,1.29l-0.37,1.36l-0.13,0.47l-0.43,0.56l-0.13,1.06l-0.4,0.2l-0.13,0.7
		l-1.43,0.9l-0.53,1.83l-0.9,0.86l-0.53,0.23l-0.76,1.2l-0.13,0.76h-0.53c-0.66,1.11-1.57,1.88-2.72,2.32l-1.1-0.23l-2.32,1.29
		l-0.33,1.1c-0.02,0.31,0.24,0.92,0.8,1.83c0.58,1,0.9,1.7,0.96,2.12l-0.2,0.33c0.07,0.4,0.1,0.72,0.1,0.96
		c0,0.8-0.25,1.49-0.76,2.09l-1.43-0.4l-0.56,0.2l-1.1,1.23l-0.53-0.13c-0.46-1.84-0.7-4.35-0.7-7.54c0-0.75,0.12-1.78,0.37-3.09
		l1.23-2.09l0.73-0.4l0.56-0.7l0.66-0.2l0.2-0.33l0.76-0.56l0.66,0.37l0.9-0.13c0.11-0.49,0.18-0.84,0.2-1.06V46.5l0.66-0.56
		c0.02-0.11,0.03-0.2,0.03-0.27c0-0.24-0.06-0.51-0.17-0.8c0.8-0.8,1.64-2.25,2.52-4.35c0.86-2.15,1.27-3.74,1.23-4.78h0.2l0.56-0.2
		v-0.73l-0.23-0.5l0.56-0.2l-0.56-0.73l0.23-0.56l-0.13-0.07l-0.46-0.2c-0.42-0.2-0.7-0.33-0.83-0.4l-0.23,0.2v-0.4l-0.73,0.53
		l-0.13-1.76l-0.56,0.33l-1.06-1.63c-1.79-1.15-3.22-1.93-4.28-2.32l-1.29,0.2l-0.7-0.2l-0.53,0.56h-0.56v0.2l-0.53-0.43l-0.9,0.23
		l-0.73-0.23L43.02,28l0.2,0.4l-0.2,0.13l-0.37,0.76v0.33h-1.06l-0.2,0.9h-0.37c-0.04,0.55-0.33,1.21-0.86,1.96v1.96l-0.37,0.56v0.2
		c0,0.16,0.04,0.53,0.13,1.13c0.02,0.27,0.04,0.56,0.07,0.9c0.07,1,0.3,1.82,0.7,2.46l0.13,0.13v0.76l0.76,1.06
		c0.69,0.6,1.52,0.94,2.49,1.03l0.7-0.46c0.73-1.26,1.1-2.96,1.1-5.08c0-0.58-0.04-1.17-0.13-1.79l-0.23-0.13l-0.86,0.33l-0.9,1.43
		h-0.4l-0.13-1.1l-0.2-0.13l1.29-1.63l1.43-0.33l3.52,1.56l2.19,2.39v1.43l0.2,0.53l-0.76,1.03l-0.53,0.2l-0.13,0.33h-0.2
		c-0.09,0.22-0.56,0.59-1.43,1.1h-0.37l-2.16,1.1v0.33l-1.1,0.4c-2.1-0.29-4.07-1.26-5.91-2.92l-1.23-3.19l-0.2-0.2
		c-1.22-2.48-1.83-4.28-1.83-5.41c0-0.33,0.02-0.62,0.07-0.86c0.71-1.22,2.09-2.65,4.15-4.28c0.97-0.8,1.8-1.33,2.49-1.59
		c1-0.38,2.27-0.56,3.82-0.56c2.48,0,4.96,0.45,7.44,1.36c1.08,0.38,1.91,0.83,2.49,1.36h0.2c1.04,0.51,2.36,1.27,3.95,2.29
		l0.33,1.1c0.31,0.13,0.7,0.76,1.16,1.89c0.38,0.95,0.58,1.68,0.6,2.19l-0.33,0.53l0.33,0.76V37.73z M50.69,69.61l-0.33,1.1
		l0.2,0.33h-0.33v0.76l-2.39-0.2l-2.86-1.79c0.22-1.06,0.33-1.98,0.33-2.76c0-0.46-0.04-0.93-0.13-1.39l0.56-0.2l0.33-0.33
		c1.53,0.6,2.96,1.25,4.28,1.96l-0.13,0.76l0.33,0.33L50.69,69.61z"/>
</g>
</svg>
