<?xml version="1.0" encoding="utf-8"?>
<!-- Generator: Adobe Illustrator 25.0.1, SVG Export Plug-In . SVG Version: 6.00 Build 0)  -->
<svg version="1.1" id="Layer_1" xmlns="http://www.w3.org/2000/svg" xmlns:xlink="http://www.w3.org/1999/xlink" x="0px" y="0px"
	 viewBox="0 0 100 100" style="enable-background:new 0 0 100 100;" xml:space="preserve">
<style type="text/css">
	.st0{fill:#FFFFFF;}
	.st1{fill:none;stroke:#FFFFFF;stroke-width:4;stroke-linecap:round;stroke-miterlimit:10;}
</style>
<path class="st0" d="M50.5,18.7c-13.5,0-24.4,14-24.4,31.3S37,81.3,50.5,81.3s24.4-14,24.4-31.3S64,18.7,50.5,18.7z M50.5,27.3
	c3.3,0,6,2.7,6,6s-2.7,6-6,6s-6-2.7-6-6S47.2,27.3,50.5,27.3z M37.3,48c0-3.8,3.1-6.9,6.9-6.9h12.6c3.8,0,6.9,3.1,6.9,6.9v2.4H37.3
	V48z M35.8,59.4c-0.7,0-1.2-0.6-1.2-1.2c0-0.7,0.6-1.2,1.2-1.2h26.4c0.7,0,1.2,0.6,1.2,1.2c0,0.7-0.6,1.2-1.2,1.2H35.8z M51.7,62.5
	c0,0.7-0.6,1.2-1.2,1.2H39.3c-0.7,0-1.2-0.6-1.2-1.2c0-0.7,0.6-1.2,1.2-1.2h11.2C51.2,61.2,51.7,61.8,51.7,62.5z M63.7,68.1H37.3
	c-0.7,0-1.2-0.6-1.2-1.2c0-0.7,0.6-1.2,1.2-1.2h26.4c0.7,0,1.2,0.6,1.2,1.2C64.9,67.5,64.4,68.1,63.7,68.1z M63.7,63.7h-8.4
	c-0.7,0-1.2-0.6-1.2-1.2c0-0.7,0.5-1.2,1.2-1.2h8.4c0.7,0,1.2,0.6,1.2,1.2C64.9,63.2,64.4,63.7,63.7,63.7z M63.7,55H37.3
	c-0.7,0-1.2-0.6-1.2-1.2c0-0.7,0.6-1.2,1.2-1.2h26.4c0.7,0,1.2,0.6,1.2,1.2C64.9,54.4,64.4,55,63.7,55z"/>
<ellipse class="st1" cx="50.5" cy="50" rx="31.9" ry="40.9"/>
</svg>
