<?xml version="1.0" encoding="utf-8"?>
<!-- Generator: Adobe Illustrator 25.0.1, SVG Export Plug-In . SVG Version: 6.00 Build 0)  -->
<svg version="1.1" id="Layer_1" xmlns="http://www.w3.org/2000/svg" xmlns:xlink="http://www.w3.org/1999/xlink" x="0px" y="0px"
	 viewBox="0 0 100 100" style="enable-background:new 0 0 100 100;" xml:space="preserve">
<style type="text/css">
	.st0{fill:#FFFFFF;}
	.st1{fill:none;stroke:#FFFFFF;stroke-width:0.5418;stroke-miterlimit:10;}
</style>
<g>
	<path class="st0" d="M28.7,29.1c0,0-12-0.3-15.7-15.7C13.1,13.4,27.3,16.4,28.7,29.1z"/>
	<path class="st0" d="M71.3,29.2c0,0,0.3-12,15.7-15.7C86.9,13.5,83.9,27.8,71.3,29.2z"/>
	<path class="st0" d="M28.7,70.9c0,0-12,0.3-15.7,15.7C13.1,86.6,27.3,83.6,28.7,70.9z"/>
	<path class="st0" d="M71.3,70.8c0,0,0.3,12,15.7,15.7C86.9,86.5,83.9,72.2,71.3,70.8z"/>
	<g>
		<path class="st0" d="M64,48.1c0.9,0,1.5,0.7,1.5,1.5c0,0.1,0,0.1,0,0.2c-0.2,1.9-0.9,5.2-2.9,8.3c-0.9,1.5-2.2,3-3.8,4.3
			c0.4,0.6,0.8,1.3,1.3,1.9c2.3,2.7,1.9,3.5,0.9,3.5c-0.7,0-1.7-0.3-2.4-0.7c-0.1,0-0.2-0.1-0.3-0.1c-0.2,0-0.4,0.1-0.5,0.4
			c-0.4,1-1.3,5.2-3.2,5.2c-0.5,0-1-0.3-1.6-0.9c0,0,0,0,0,0c-0.3,0-0.8,1.8-2.8,1.8c0,0,0,0,0,0c0,0,0,0,0,0
			c-1.9,0-2.5-1.8-2.8-1.8c0,0,0,0,0,0c-0.6,0.6-1.1,0.9-1.6,0.9c-1.9,0-2.8-4.2-3.2-5.2c-0.1-0.2-0.3-0.4-0.5-0.4
			c-0.1,0-0.2,0-0.3,0.1c-0.7,0.4-1.7,0.7-2.4,0.7c-1,0-1.4-0.8,0.9-3.5c0.8-0.9,1.4-2,1.9-3c-1.7-1.1-2.9-2.4-3.8-3.8
			c-1.4-2.2-1.9-4.5-2-5.9c0,0,0-0.1,0-0.1c0-0.6,0.5-1.1,1.1-1.1c0.5,0,1,0.4,1.1,0.9c0.6,3.4,2.3,5.2,3.8,6
			c0.5-0.1,0.9-0.2,1.4-0.4c2.8-0.9,5.1-2.9,6.6-5.3c1.2,2.7,3.5,4.9,6.4,5.9c0.2,0.1,0.3,0.1,0.5,0.2c2-1.3,4.4-3.7,5.2-8.4
			C62.6,48.6,63.2,48.1,64,48.1 M53.5,67.8c0.9,0,1.6-1.7,1.6-3.7c0-2-0.7-3.7-1.6-3.7c-0.9,0-1.6,1.7-1.6,3.7
			C51.9,66.1,52.6,67.8,53.5,67.8 M47.2,67.8c0.9,0,1.6-1.7,1.6-3.7c0-2-0.7-3.7-1.6-3.7c-0.9,0-1.6,1.7-1.6,3.7
			C45.7,66.1,46.4,67.8,47.2,67.8 M64,46.1c-1.7,0-3.2,1.2-3.5,2.9c-0.5,2.9-1.6,5-3.5,6.5c-2.1-0.9-3.8-2.6-4.7-4.7l-1.6-3.5
			l-2,3.3c-1.2,2.1-3.2,3.7-5.5,4.5c-0.1,0-0.2,0.1-0.4,0.1c-1.2-0.9-1.9-2.3-2.2-4.2c-0.2-1.5-1.5-2.6-3.1-2.6
			c-1.7,0-3.1,1.4-3.1,3.1c0,0.1,0,0.3,0,0.4c0.2,1.7,0.8,4.2,2.3,6.7c0.8,1.3,1.7,2.4,2.9,3.3c-0.3,0.4-0.6,0.8-0.9,1.2
			c-1.5,1.8-2.7,3.6-1.9,5.3c0.2,0.4,0.9,1.5,2.6,1.5c0.6,0,1.2-0.1,1.7-0.3c0.7,2.1,1.9,5.1,4.6,5.1c0.4,0,0.9-0.1,1.3-0.3
			c0.7,0.6,1.7,1.2,3.1,1.2c1.4,0,2.4-0.6,3.1-1.2c0.4,0.2,0.9,0.3,1.3,0.3c2.7,0,3.9-3,4.6-5.1c0.5,0.2,1.2,0.3,1.7,0.3
			c1.7,0,2.4-1,2.6-1.5c0.8-1.7-0.4-3.6-1.9-5.3c-0.1-0.1-0.2-0.2-0.2-0.3c1.1-1.1,2.1-2.3,2.9-3.6c2.1-3.3,2.9-6.8,3.2-9.1l0,0l0,0
			c0-0.1,0-0.2,0-0.4C67.5,47.7,65.9,46.1,64,46.1L64,46.1z"/>
	</g>
	<ellipse class="st1" cx="47.2" cy="64.1" rx="1.6" ry="3.7"/>
	<ellipse class="st1" cx="53.5" cy="64.1" rx="1.6" ry="3.7"/>
	<path class="st0" d="M72,47c0,5.6-4,10.2-9.4,11.1c2-3.1,2.6-6.4,2.9-8.3c0-0.1,0-0.1,0-0.2c0-0.8-0.7-1.5-1.5-1.5
		c-0.7,0-1.4,0.5-1.5,1.3c-0.8,4.7-3.1,7.1-5.2,8.4c-0.2-0.1-0.3-0.1-0.5-0.2c-2.8-1.1-5.1-3.2-6.4-5.9C49,54.1,46.6,56,43.8,57
		c-0.5,0.2-0.9,0.3-1.4,0.4c-1.5-0.9-3.2-2.6-3.8-6c-0.1-0.5-0.5-0.9-1.1-0.9c-0.6,0-1.1,0.5-1.1,1.1c0,0,0,0.1,0,0.1
		c0.2,1.4,0.6,3.7,2,5.9c-6-0.7-10.6-5.8-10.6-12c0-6.7,5.4-12.1,12.1-12.1c0.3,0,0.6,0,1,0c1.7-4.2,5.8-7.2,10.7-7.2
		c5.7,0,10.5,4.2,11.4,9.7C68.1,37,72,41.6,72,47z"/>
	<ellipse class="st0" cx="47.2" cy="64.1" rx="1.6" ry="3.7"/>
	<ellipse class="st0" cx="53.5" cy="64.1" rx="1.6" ry="3.7"/>
</g>
</svg>
