<?xml version="1.0" encoding="utf-8"?>
<!-- Generator: Adobe Illustrator 25.0.1, SVG Export Plug-In . SVG Version: 6.00 Build 0)  -->
<svg version="1.1" id="Layer_1" xmlns="http://www.w3.org/2000/svg" xmlns:xlink="http://www.w3.org/1999/xlink" x="0px" y="0px"
	 viewBox="0 0 100 100" enable-background="new 0 0 100 100" xml:space="preserve">
<ellipse fill="none" stroke="#FFFFFF" stroke-width="4" stroke-miterlimit="10" cx="51.31" cy="50.66" rx="31.77" ry="39.52"/>
<path fill="#FFFFFF" d="M51.31,20.51c-13.38,0-24.24,13.5-24.24,30.15c0,16.66,10.85,30.15,24.24,30.15s24.24-13.5,24.24-30.15
	C75.55,34,64.7,20.51,51.31,20.51z M44.97,54.59c-2.66,0-7.9-3.26-3.98-9.53c3.96-6.34,3.98-10.73,3.98-10.73s0.02,4.4,3.98,10.73
	C52.87,51.33,47.63,54.59,44.97,54.59z M56.51,64.59c-2.66,0-7.9-3.26-3.98-9.53c3.96-6.34,3.98-10.73,3.98-10.73
	s0.02,4.4,3.98,10.73C64.41,61.33,59.17,64.59,56.51,64.59z"/>
</svg>
