<?xml version="1.0" encoding="utf-8"?>
<!-- Generator: Adobe Illustrator 25.0.1, SVG Export Plug-In . SVG Version: 6.00 Build 0)  -->
<svg version="1.1" id="Layer_1" xmlns="http://www.w3.org/2000/svg" xmlns:xlink="http://www.w3.org/1999/xlink" x="0px" y="0px"
	 viewBox="0 0 100 100" enable-background="new 0 0 100 100" xml:space="preserve">
<g>
	<g>
		<ellipse fill="none" stroke="#FFFFFF" stroke-width="3.003" stroke-miterlimit="10" cx="21.8" cy="61.8" rx="9" ry="12.1"/>
		<ellipse fill="none" stroke="#FFFFFF" stroke-width="3.003" stroke-miterlimit="10" cx="21.8" cy="61.8" rx="4.1" ry="5.5"/>
	</g>
	<g>
		<ellipse fill="none" stroke="#FFFFFF" stroke-width="3.003" stroke-miterlimit="10" cx="77.7" cy="61.7" rx="9" ry="12.1"/>
		<ellipse fill="none" stroke="#FFFFFF" stroke-width="3.003" stroke-miterlimit="10" cx="77.7" cy="61.7" rx="4.1" ry="5.5"/>
	</g>
	<g>
		<ellipse fill="none" stroke="#FFFFFF" stroke-width="3.003" stroke-miterlimit="10" cx="21.8" cy="27" rx="9" ry="12.1"/>
		<ellipse fill="none" stroke="#FFFFFF" stroke-width="3.003" stroke-miterlimit="10" cx="21.8" cy="27" rx="4.1" ry="5.5"/>
	</g>
	<g>
		<ellipse fill="none" stroke="#FFFFFF" stroke-width="3.003" stroke-miterlimit="10" cx="77.7" cy="27" rx="9" ry="12.1"/>
		<ellipse fill="none" stroke="#FFFFFF" stroke-width="3.003" stroke-miterlimit="10" cx="77.7" cy="27" rx="4.1" ry="5.5"/>
	</g>
	<rect x="28.4" y="81.9" fill="#FFFFFF" width="43.6" height="6.2"/>
	<rect x="39.7" y="77.5" fill="#FFFFFF" width="21" height="4.3"/>
	<rect x="39.7" y="47.5" fill="#FFFFFF" width="21" height="4.3"/>
	<rect x="43.3" y="54.6" fill="#FFFFFF" width="13.8" height="20.2"/>
	<path fill="#FFFFFF" d="M58.9,33.7l-6.7,10.7h-3.7L45.3,40l-1.7-2c-0.3-0.3-0.3-0.7-0.3-1l1-6.3v-0.3l-1-5c0-0.3,0-0.7,0.3-1l7-9.7
		c0.3-0.3,1-0.7,1.3-0.3c0,0,0,0,0.3,0l4,4c0.3,0.3,0.3,0.7,0.3,1l-1,6c0,0.3,0,0.3,0,0.7l3.3,6.3C59.3,32.7,59.3,33.3,58.9,33.7z"
		/>
</g>
</svg>
