<?xml version="1.0" encoding="utf-8"?>
<!-- Generator: Adobe Illustrator 25.0.1, SVG Export Plug-In . SVG Version: 6.00 Build 0)  -->
<svg version="1.1" id="Layer_1" xmlns="http://www.w3.org/2000/svg" xmlns:xlink="http://www.w3.org/1999/xlink" x="0px" y="0px"
	 viewBox="0 0 100 100" style="enable-background:new 0 0 100 100;" xml:space="preserve">
<style type="text/css">
	.st0{fill:#FFFFFF;}
</style>
<rect x="21.6" y="57.5" class="st0" width="56.7" height="10.1"/>
<polygon class="st0" points="66.7,71.8 63.3,71.8 36.7,71.8 33.2,71.8 33.2,78.5 36.7,78.5 36.7,81.3 30.5,81.3 30.5,87.7 
	69.5,87.7 69.5,81.3 63.3,81.3 63.3,78.5 66.8,78.5 "/>
<path class="st0" d="M35.4,28.1c-4.7-7.6-4.8-12.8-4.8-12.8s0,5.3-4.8,12.8c-4.7,7.5,1.6,11.4,4.8,11.4
	C33.8,39.5,40.1,35.7,35.4,28.1z"/>
<path class="st0" d="M49.2,40.1c-4.7-7.6-4.8-12.8-4.8-12.8s0,5.3-4.8,12.8c-4.7,7.5,1.6,11.4,4.8,11.4
	C47.7,51.5,53.9,47.6,49.2,40.1z"/>
<polygon class="st0" points="73.3,25.8 68.4,25.8 68.4,16.5 69.9,16.5 69.9,14.1 62.4,14.1 62.4,16.5 63.9,16.5 63.9,25.8 59,25.8 
	59,28.7 63.9,28.7 61.8,42.5 66.1,53 70.5,42.5 68.4,28.7 73.3,28.7 "/>
</svg>
