<?xml version="1.0" encoding="utf-8"?>
<!-- Generator: Adobe Illustrator 25.0.1, SVG Export Plug-In . SVG Version: 6.00 Build 0)  -->
<svg version="1.1" id="Layer_1" xmlns="http://www.w3.org/2000/svg" xmlns:xlink="http://www.w3.org/1999/xlink" x="0px" y="0px"
	 viewBox="0 0 100 100" enable-background="new 0 0 100 100" xml:space="preserve">
<g>
	<path fill="#FFFFFF" d="M20.3,73.8c-5.4,0.3-14.4-3.5-7.4-19.9c0,0,1.3,9.1,4.9,6.9c2.9-1.8,3.6-6,3.4-11.2c0,0,4.8,4.2,3.2,11.5
		c-0.6,2.9,4.6,5,5.8,0.9C30.3,62.2,33.3,73.1,20.3,73.8z"/>
	<path fill="#FFFFFF" d="M79.8,73.8c-5.4,0.3-14.4-3.5-7.4-19.9c0,0,1.3,9.1,4.9,6.9c2.9-1.8,3.6-6,3.4-11.2c0,0,4.8,4.2,3.2,11.5
		c-0.6,2.9,4.6,5,5.8,0.9C89.8,62.2,92.8,73.1,79.8,73.8z"/>
	<path fill="#FFFFFF" d="M20.3,39.1c-5.4,0.3-14.4-3.5-7.4-19.9c0,0,1.3,9.1,4.9,6.9c2.9-1.8,3.6-6,3.4-11.2c0,0,4.8,4.2,3.2,11.5
		c-0.6,2.9,4.6,5,5.8,0.9C30.3,27.4,33.3,38.4,20.3,39.1z"/>
	<path fill="#FFFFFF" d="M79.8,39.1c-5.4,0.3-14.4-3.5-7.4-19.9c0,0,1.3,9.1,4.9,6.9c2.9-1.8,3.6-6,3.4-11.2c0,0,4.8,4.2,3.2,11.5
		c-0.6,2.9,4.6,5,5.8,0.9C89.8,27.4,92.8,38.4,79.8,39.1z"/>
	<rect x="28.3" y="81.9" fill="#FFFFFF" width="43.6" height="6.2"/>
	<rect x="39.6" y="77.5" fill="#FFFFFF" width="21" height="4.3"/>
	<rect x="39.6" y="47.5" fill="#FFFFFF" width="21" height="4.3"/>
	<rect x="43.2" y="54.6" fill="#FFFFFF" width="13.8" height="20.2"/>
	<path fill="#FFFFFF" d="M58.8,33.7l-6.7,10.7h-3.7L45.2,40l-1.7-2c-0.3-0.3-0.3-0.7-0.3-1l1-6.3v-0.3l-1-5c0-0.3,0-0.7,0.3-1l7-9.7
		c0.3-0.3,1-0.7,1.3-0.3c0,0,0,0,0.3,0l4,4c0.3,0.3,0.3,0.7,0.3,1l-1,6c0,0.3,0,0.3,0,0.7l3.3,6.3C59.2,32.7,59.2,33.3,58.8,33.7z"
		/>
</g>
</svg>
