<?xml version="1.0" encoding="utf-8"?>
<!-- Generator: Adobe Illustrator 25.0.1, SVG Export Plug-In . SVG Version: 6.00 Build 0)  -->
<svg version="1.1" id="Layer_1" xmlns="http://www.w3.org/2000/svg" xmlns:xlink="http://www.w3.org/1999/xlink" x="0px" y="0px"
	 viewBox="0 0 100 100" enable-background="new 0 0 100 100" xml:space="preserve">
<g>
	<polyline fill="none" stroke="#FAFDF9" stroke-width="1.9184" stroke-miterlimit="10" points="18.6,50.8 21.1,53.5 21.1,63.1 	"/>
	<line fill="none" stroke="#FAFDF9" stroke-width="1.9184" stroke-miterlimit="10" x1="23.9" y1="50.8" x2="21.1" y2="53.5"/>
	<polyline fill="none" stroke="#FAFDF9" stroke-width="1.9184" stroke-miterlimit="10" points="18.6,75.5 21.1,72.8 21.1,63.1 	"/>
	<line fill="none" stroke="#FAFDF9" stroke-width="1.9184" stroke-miterlimit="10" x1="23.9" y1="75.5" x2="21.1" y2="72.8"/>
	<polyline fill="none" stroke="#FAFDF9" stroke-width="1.9184" stroke-miterlimit="10" points="33.6,60.5 30.9,63 21.2,63 	"/>
	<line fill="none" stroke="#FAFDF9" stroke-width="1.9184" stroke-miterlimit="10" x1="33.6" y1="65.8" x2="30.9" y2="63"/>
	<polyline fill="none" stroke="#FAFDF9" stroke-width="1.9184" stroke-miterlimit="10" points="8.9,60.5 11.6,63 21.2,63 	"/>
	<line fill="none" stroke="#FAFDF9" stroke-width="1.9184" stroke-miterlimit="10" x1="8.9" y1="65.8" x2="11.6" y2="63"/>
	<polyline fill="none" stroke="#FAFDF9" stroke-width="1.9184" stroke-miterlimit="10" points="31.9,70 28.1,69.9 21.3,63.1 	"/>
	<line fill="none" stroke="#FAFDF9" stroke-width="1.9184" stroke-miterlimit="10" x1="28.1" y1="73.8" x2="28.1" y2="69.9"/>
	<polyline fill="none" stroke="#FAFDF9" stroke-width="1.9184" stroke-miterlimit="10" points="14.4,52.5 14.5,56.2 21.3,63.1 	"/>
	<line fill="none" stroke="#FAFDF9" stroke-width="1.9184" stroke-miterlimit="10" x1="10.6" y1="56.3" x2="14.5" y2="56.2"/>
	<polyline fill="none" stroke="#FAFDF9" stroke-width="1.9184" stroke-miterlimit="10" points="14.4,73.8 14.5,70 21.3,63.2 	"/>
	<line fill="none" stroke="#FAFDF9" stroke-width="1.9184" stroke-miterlimit="10" x1="10.6" y1="70" x2="14.5" y2="70"/>
	<polyline fill="none" stroke="#FAFDF9" stroke-width="1.9184" stroke-miterlimit="10" points="31.9,56.3 28.1,56.4 21.3,63.2 	"/>
	<line fill="none" stroke="#FAFDF9" stroke-width="1.9184" stroke-miterlimit="10" x1="28.1" y1="52.5" x2="28.1" y2="56.4"/>
	<polygon fill="#FAFDF9" points="23.5,57.8 19.1,57.8 16,60.9 16,65.3 19.1,68.5 23.5,68.5 26.6,65.3 26.6,60.9 	"/>
</g>
<g>
	<polyline fill="none" stroke="#FAFDF9" stroke-width="1.9184" stroke-miterlimit="10" points="76.7,50.8 79.2,53.5 79.2,63.1 	"/>
	<line fill="none" stroke="#FAFDF9" stroke-width="1.9184" stroke-miterlimit="10" x1="82" y1="50.8" x2="79.2" y2="53.5"/>
	<polyline fill="none" stroke="#FAFDF9" stroke-width="1.9184" stroke-miterlimit="10" points="76.7,75.5 79.2,72.8 79.2,63.1 	"/>
	<line fill="none" stroke="#FAFDF9" stroke-width="1.9184" stroke-miterlimit="10" x1="82" y1="75.5" x2="79.2" y2="72.8"/>
	<polyline fill="none" stroke="#FAFDF9" stroke-width="1.9184" stroke-miterlimit="10" points="91.7,60.5 89,63 79.3,63 	"/>
	<line fill="none" stroke="#FAFDF9" stroke-width="1.9184" stroke-miterlimit="10" x1="91.7" y1="65.8" x2="89" y2="63"/>
	<polyline fill="none" stroke="#FAFDF9" stroke-width="1.9184" stroke-miterlimit="10" points="66.9,60.5 69.7,63 79.3,63 	"/>
	<line fill="none" stroke="#FAFDF9" stroke-width="1.9184" stroke-miterlimit="10" x1="66.9" y1="65.8" x2="69.7" y2="63"/>
	<polyline fill="none" stroke="#FAFDF9" stroke-width="1.9184" stroke-miterlimit="10" points="90,70 86.2,69.9 79.4,63.1 	"/>
	<line fill="none" stroke="#FAFDF9" stroke-width="1.9184" stroke-miterlimit="10" x1="86.2" y1="73.8" x2="86.2" y2="69.9"/>
	<polyline fill="none" stroke="#FAFDF9" stroke-width="1.9184" stroke-miterlimit="10" points="72.4,52.5 72.6,56.2 79.4,63.1 	"/>
	<line fill="none" stroke="#FAFDF9" stroke-width="1.9184" stroke-miterlimit="10" x1="68.7" y1="56.3" x2="72.6" y2="56.2"/>
	<polyline fill="none" stroke="#FAFDF9" stroke-width="1.9184" stroke-miterlimit="10" points="72.4,73.8 72.6,70 79.4,63.2 	"/>
	<line fill="none" stroke="#FAFDF9" stroke-width="1.9184" stroke-miterlimit="10" x1="68.7" y1="70" x2="72.6" y2="70"/>
	<polyline fill="none" stroke="#FAFDF9" stroke-width="1.9184" stroke-miterlimit="10" points="90,56.3 86.2,56.4 79.4,63.2 	"/>
	<line fill="none" stroke="#FAFDF9" stroke-width="1.9184" stroke-miterlimit="10" x1="86.2" y1="52.5" x2="86.2" y2="56.4"/>
	<polygon fill="#FAFDF9" points="81.6,57.8 77.2,57.8 74.1,60.9 74.1,65.3 77.2,68.5 81.6,68.5 84.7,65.3 84.7,60.9 	"/>
</g>
<g>
	<polyline fill="none" stroke="#FAFDF9" stroke-width="1.9184" stroke-miterlimit="10" points="18.6,16 21.1,18.8 21.1,28.4 	"/>
	<line fill="none" stroke="#FAFDF9" stroke-width="1.9184" stroke-miterlimit="10" x1="23.9" y1="16" x2="21.1" y2="18.8"/>
	<polyline fill="none" stroke="#FAFDF9" stroke-width="1.9184" stroke-miterlimit="10" points="18.6,40.8 21.1,38.1 21.1,28.4 	"/>
	<line fill="none" stroke="#FAFDF9" stroke-width="1.9184" stroke-miterlimit="10" x1="23.9" y1="40.8" x2="21.1" y2="38.1"/>
	<polyline fill="none" stroke="#FAFDF9" stroke-width="1.9184" stroke-miterlimit="10" points="33.6,25.8 30.9,28.3 21.2,28.3 	"/>
	<line fill="none" stroke="#FAFDF9" stroke-width="1.9184" stroke-miterlimit="10" x1="33.6" y1="31.1" x2="30.9" y2="28.3"/>
	<polyline fill="none" stroke="#FAFDF9" stroke-width="1.9184" stroke-miterlimit="10" points="8.9,25.8 11.6,28.3 21.2,28.3 	"/>
	<line fill="none" stroke="#FAFDF9" stroke-width="1.9184" stroke-miterlimit="10" x1="8.9" y1="31.1" x2="11.6" y2="28.3"/>
	<polyline fill="none" stroke="#FAFDF9" stroke-width="1.9184" stroke-miterlimit="10" points="31.9,35.3 28.1,35.2 21.3,28.3 	"/>
	<line fill="none" stroke="#FAFDF9" stroke-width="1.9184" stroke-miterlimit="10" x1="28.1" y1="39.1" x2="28.1" y2="35.2"/>
	<polyline fill="none" stroke="#FAFDF9" stroke-width="1.9184" stroke-miterlimit="10" points="14.4,17.8 14.5,21.5 21.3,28.3 	"/>
	<line fill="none" stroke="#FAFDF9" stroke-width="1.9184" stroke-miterlimit="10" x1="10.6" y1="21.5" x2="14.5" y2="21.5"/>
	<polyline fill="none" stroke="#FAFDF9" stroke-width="1.9184" stroke-miterlimit="10" points="14.4,39.1 14.5,35.3 21.3,28.5 	"/>
	<line fill="none" stroke="#FAFDF9" stroke-width="1.9184" stroke-miterlimit="10" x1="10.6" y1="35.3" x2="14.5" y2="35.3"/>
	<polyline fill="none" stroke="#FAFDF9" stroke-width="1.9184" stroke-miterlimit="10" points="31.9,21.5 28.1,21.7 21.3,28.5 	"/>
	<line fill="none" stroke="#FAFDF9" stroke-width="1.9184" stroke-miterlimit="10" x1="28.1" y1="17.8" x2="28.1" y2="21.7"/>
	<polygon fill="#FAFDF9" points="23.5,23.1 19.1,23.1 16,26.2 16,30.6 19.1,33.7 23.5,33.7 26.6,30.6 26.6,26.2 	"/>
</g>
<g>
	<polyline fill="none" stroke="#FAFDF9" stroke-width="1.9184" stroke-miterlimit="10" points="76.7,16 79.2,18.8 79.2,28.4 	"/>
	<line fill="none" stroke="#FAFDF9" stroke-width="1.9184" stroke-miterlimit="10" x1="82" y1="16" x2="79.2" y2="18.8"/>
	<polyline fill="none" stroke="#FAFDF9" stroke-width="1.9184" stroke-miterlimit="10" points="76.7,40.8 79.2,38.1 79.2,28.4 	"/>
	<line fill="none" stroke="#FAFDF9" stroke-width="1.9184" stroke-miterlimit="10" x1="82" y1="40.8" x2="79.2" y2="38.1"/>
	<polyline fill="none" stroke="#FAFDF9" stroke-width="1.9184" stroke-miterlimit="10" points="91.7,25.8 89,28.3 79.3,28.3 	"/>
	<line fill="none" stroke="#FAFDF9" stroke-width="1.9184" stroke-miterlimit="10" x1="91.7" y1="31.1" x2="89" y2="28.3"/>
	<polyline fill="none" stroke="#FAFDF9" stroke-width="1.9184" stroke-miterlimit="10" points="66.9,25.8 69.7,28.3 79.3,28.3 	"/>
	<line fill="none" stroke="#FAFDF9" stroke-width="1.9184" stroke-miterlimit="10" x1="66.9" y1="31.1" x2="69.7" y2="28.3"/>
	<polyline fill="none" stroke="#FAFDF9" stroke-width="1.9184" stroke-miterlimit="10" points="90,35.3 86.2,35.2 79.4,28.3 	"/>
	<line fill="none" stroke="#FAFDF9" stroke-width="1.9184" stroke-miterlimit="10" x1="86.2" y1="39.1" x2="86.2" y2="35.2"/>
	<polyline fill="none" stroke="#FAFDF9" stroke-width="1.9184" stroke-miterlimit="10" points="72.4,17.8 72.6,21.5 79.4,28.3 	"/>
	<line fill="none" stroke="#FAFDF9" stroke-width="1.9184" stroke-miterlimit="10" x1="68.7" y1="21.5" x2="72.6" y2="21.5"/>
	<polyline fill="none" stroke="#FAFDF9" stroke-width="1.9184" stroke-miterlimit="10" points="72.4,39.1 72.6,35.3 79.4,28.5 	"/>
	<line fill="none" stroke="#FAFDF9" stroke-width="1.9184" stroke-miterlimit="10" x1="68.7" y1="35.3" x2="72.6" y2="35.3"/>
	<polyline fill="none" stroke="#FAFDF9" stroke-width="1.9184" stroke-miterlimit="10" points="90,21.5 86.2,21.7 79.4,28.5 	"/>
	<line fill="none" stroke="#FAFDF9" stroke-width="1.9184" stroke-miterlimit="10" x1="86.2" y1="17.8" x2="86.2" y2="21.7"/>
	<polygon fill="#FAFDF9" points="81.6,23.1 77.2,23.1 74.1,26.2 74.1,30.6 77.2,33.7 81.6,33.7 84.7,30.6 84.7,26.2 	"/>
</g>
<rect x="28.4" y="81.9" fill="#FFFFFF" width="43.6" height="6.2"/>
<rect x="39.7" y="77.5" fill="#FFFFFF" width="21" height="4.3"/>
<rect x="39.7" y="47.5" fill="#FFFFFF" width="21" height="4.3"/>
<rect x="43.3" y="54.6" fill="#FFFFFF" width="13.8" height="20.2"/>
<path fill="#FFFFFF" d="M58.9,33.7l-6.7,10.7h-3.7L45.3,40l-1.7-2c-0.3-0.3-0.3-0.7-0.3-1l1-6.3v-0.3l-1-5c0-0.3,0-0.7,0.3-1l7-9.7
	c0.3-0.3,1-0.7,1.3-0.3c0,0,0,0,0.3,0l4,4c0.3,0.3,0.3,0.7,0.3,1l-1,6c0,0.3,0,0.3,0,0.7l3.3,6.3C59.3,32.7,59.3,33.3,58.9,33.7z"/>
</svg>
