<?xml version="1.0" encoding="utf-8"?>
<!-- Generator: Adobe Illustrator 25.0.1, SVG Export Plug-In . SVG Version: 6.00 Build 0)  -->
<svg version="1.1" id="Layer_1" xmlns="http://www.w3.org/2000/svg" xmlns:xlink="http://www.w3.org/1999/xlink" x="0px" y="0px"
	 viewBox="0 0 100 100" enable-background="new 0 0 100 100" xml:space="preserve">
<path fill="#FFFFFF" d="M64.56,53.59c4.13-16.69-4.53-21.5-10.12-22.88c-0.06-2.29-1.95-4.12-4.24-4.12c-2.31,0-4.19,1.83-4.25,4.13
	c-5.59,1.38-14.25,6.2-10.12,22.88c-0.17-0.26-2.99-4.37-10.04-4.62c0,0,3.51,11.94,10.05,16.67c6.54,4.72,0.33,15.72,14.36,15.72
	c14.02,0,7.81-11,14.35-15.72c6.54-4.73,10.05-16.67,10.05-16.67C67.55,49.22,64.73,53.33,64.56,53.59z M38.2,58.35
	c0,0,3.8-2.23,9.84,3.8C48.04,62.15,43.77,69.31,38.2,58.35z M48.14,76.73c-2.78-5.24,1.17-10.14,1.17-10.14
	S50.92,81.96,48.14,76.73z M50.2,50.66c0,0-1.91-0.16-6.81,0.92c-1.07-2.69-4.62-13.24,3.11-18.63c0.73,1.28,2.11,2.14,3.7,2.14
	c1.58,0,2.97-0.87,3.69-2.15c7.75,5.4,4.19,15.95,3.12,18.64C52.11,50.5,50.2,50.66,50.2,50.66z M52.67,76.73
	c-2.79,5.23-1.18-10.14-1.18-10.14S55.45,71.49,52.67,76.73z M52.36,62.15c6.04-6.04,9.84-3.8,9.84-3.8
	C56.63,69.31,52.36,62.15,52.36,62.15z"/>
<path fill="#FFFFFF" d="M80.57,25.16c-4.99-7.98-5.01-13.52-5.01-13.52s-0.03,5.54-5.01,13.52c-4.94,7.9,1.67,12,5.01,12
	C78.9,37.16,85.51,33.06,80.57,25.16z"/>
<path fill="#FFFFFF" d="M29.45,25.16c-4.99-7.98-5.01-13.52-5.01-13.52s-0.03,5.54-5.01,13.52c-4.94,7.9,1.67,12,5.01,12
	C27.78,37.16,34.39,33.06,29.45,25.16z"/>
<path fill="#FFFFFF" d="M80.57,74.75c-4.99-7.98-5.01-13.52-5.01-13.52s-0.03,5.54-5.01,13.52c-4.94,7.9,1.67,12,5.01,12
	C78.9,86.75,85.51,82.64,80.57,74.75z"/>
<path fill="#FFFFFF" d="M29.45,74.75c-4.99-7.98-5.01-13.52-5.01-13.52s-0.03,5.54-5.01,13.52c-4.94,7.9,1.67,12,5.01,12
	C27.78,86.75,34.39,82.64,29.45,74.75z"/>
</svg>
