<?xml version="1.0" encoding="utf-8"?>
<!-- Generator: Adobe Illustrator 25.0.1, SVG Export Plug-In . SVG Version: 6.00 Build 0)  -->
<svg version="1.1" id="Layer_1" xmlns="http://www.w3.org/2000/svg" xmlns:xlink="http://www.w3.org/1999/xlink" x="0px" y="0px"
	 viewBox="0 0 100 100" enable-background="new 0 0 100 100" xml:space="preserve">
<path fill="none" stroke="#FFFFFF" stroke-width="3.9821" stroke-miterlimit="10" d="M23.4,72.03V31.69c0-3.79,3.07-6.87,6.87-6.87
	h0c3.79,0,6.87,3.07,6.87,6.87v37.12c0,3.52,2.85,6.36,6.36,6.36h0c3.52,0,6.36-2.85,6.36-6.36V38.27c0-7.43,6.02-13.45,13.45-13.45
	h0"/>
<line fill="none" stroke="#FFFFFF" stroke-width="3.9821" stroke-miterlimit="10" x1="63.3" y1="35.27" x2="49.86" y2="35.27"/>
<line fill="none" stroke="#FFFFFF" stroke-width="3.9821" stroke-miterlimit="10" x1="63.3" y1="42.42" x2="49.86" y2="42.42"/>
<rect x="15.38" y="52" fill="#FFFFFF" width="14.6" height="3.74"/>
<path fill="#FFFFFF" d="M81.14,53.66c-3.72-1.81-7.83,2.96-7.83,2.96s-4.1-4.77-7.83-2.96c-3.72,1.81-5.06,7.73-0.95,12.03
	c4.1,4.29,8.78,7.06,8.78,7.06s4.68-2.77,8.78-7.06C86.2,61.39,84.87,55.47,81.14,53.66z"/>
</svg>
