<?xml version="1.0" encoding="utf-8"?>
<!-- Generator: Adobe Illustrator 25.0.1, SVG Export Plug-In . SVG Version: 6.00 Build 0)  -->
<svg version="1.1" id="Layer_1" xmlns="http://www.w3.org/2000/svg" xmlns:xlink="http://www.w3.org/1999/xlink" x="0px" y="0px"
	 viewBox="0 0 100 100" enable-background="new 0 0 100 100" xml:space="preserve">
<g>
	<path fill="#D7794E" d="M61.73,75.45L61.73,75.45c-1.64,0.88-3.69,0.26-4.57-1.38L33.23,29.35c-0.88-1.64-0.26-3.69,1.38-4.57l0,0
		c1.64-0.88,3.69-0.26,4.57,1.38l23.93,44.72C63.99,72.53,63.37,74.58,61.73,75.45z"/>
	<path fill="#C9C9C9" d="M52.83,34.9L33.09,45.46c-1.12,0.6-2.52,0.18-3.12-0.95l-4.71-8.8c-0.6-1.12-0.18-2.52,0.95-3.12
		l19.74-10.56c1.12-0.6,2.52-0.18,3.12,0.95l4.71,8.8C54.38,32.9,53.95,34.3,52.83,34.9z"/>
	
		<rect x="17.57" y="55.37" transform="matrix(0.4717 0.8817 -0.8817 0.4717 71.4211 18.7622)" fill="#9E604B" width="4.97" height="27.23"/>
	<path fill="#A5A5A5" d="M30.52,68.22l-3.91-7.31c-1.36-2.54-2.04-5.39-1.97-8.27l0.02-0.82c0.01-0.36,0.27-0.66,0.62-0.73
		l0.32-0.06c1.18-0.21,2.23,0.79,2.08,1.98l-0.12,0.93c-0.13,1.03,0.06,2.07,0.55,2.99l6.56,12.25c0.49,0.91,1.25,1.65,2.18,2.11
		l0.85,0.42c1.08,0.54,1.33,1.96,0.5,2.83l-0.23,0.24C37.7,75.04,37.3,75.09,37,74.9l-0.71-0.45
		C33.87,72.91,31.88,70.76,30.52,68.22z"/>
	<path fill="#C9C9C9" d="M84.34,39.56L33.39,66.82l-4.13-7.73l50.95-27.26c3.56-1.91,7.51-3,11.56-3.19l4.07-0.2l-2.43,3.28
		C91.01,34.97,87.91,37.65,84.34,39.56z"/>
	<circle fill="#A5A5A5" cx="8.05" cy="75.41" r="4.38"/>
	<path fill="#B5B6B6" d="M84.34,39.56L33.39,66.82l-2.07-3.86l64.51-34.52l-2.43,3.28C91.01,34.97,87.91,37.65,84.34,39.56z"/>
</g>
</svg>
