<?xml version="1.0" encoding="utf-8"?>
<!-- Generator: Adobe Illustrator 25.0.1, SVG Export Plug-In . SVG Version: 6.00 Build 0)  -->
<svg version="1.1" id="Layer_1" xmlns="http://www.w3.org/2000/svg" xmlns:xlink="http://www.w3.org/1999/xlink" x="0px" y="0px"
	 viewBox="0 0 100 100" style="enable-background:new 0 0 100 100;" xml:space="preserve">
<style type="text/css">
	.st0{fill:#FFFFFF;}
</style>
<path class="st0" d="M68.3,53.6c-15,3.4-14.4,2-15.8,2.8c-0.6,0.4-1.1,1.1-1.2,1.9c-0.8,0.3-1.6,0.7-2.6,1.3c1-2.2,1.9-4.6,2.9-7.2
	c0.8,0.4,1.9,0.4,3-1.1c2.9-3.6,2.3-11,15.2-16.1c13.6-5.4,16.5-13.7,13.1-13.5c-3.2,0.2-3.7,5.6-15.4,9.3
	C55.8,34.6,48.8,48.4,49.5,50c0,0,0.3,0.6,0.7,1.2c-1.3,3.5-2.6,6.8-4,9.7c-3,1.8-6.5,4.2-10.2,6.8c3.4-6.2,6.5-12.7,7.5-17.3
	c0.7,0,1.5-0.2,2.4-0.8c2.8-1.9,6-24.4,10.8-29.6c4.8-5.2-3.9-7.7-9.3,9.5c-5.4,17.2-6.7,15.8-6.7,17.9c0,1,0.5,2,1.4,2.5
	c-1.1,5.1-5.1,12.9-9.1,19.9c-9.2,6.7-18,13.9-18.6,14.4c-0.3,0.3-0.4,0.8-0.1,1.1c0.2,0.2,0.4,0.3,0.6,0.3c0.2,0,0.3-0.1,0.5-0.2
	c0.1-0.1,7.4-6,15.6-12.2c-4,6.8-7.6,12.2-7.6,12.3c-0.2,0.4-0.1,0.8,0.2,1.1c0.1,0.1,0.3,0.1,0.4,0.1c0.3,0,0.5-0.1,0.7-0.4
	c0.4-0.5,4.9-7.4,9.5-15.5c3.7-2.7,7.5-5.4,10.7-7.4c-8.6,17.6-17,23.1-17.1,23.1c-0.4,0.2-0.5,0.7-0.2,1.1c0.1,0.2,0.4,0.4,0.7,0.4
	c0.1,0,0.3,0,0.4-0.1c0.5-0.3,9.6-6.2,18.8-26c1.6-0.9,2.9-1.7,4.1-2.1c0.3,0.5,0.8,0.9,1.6,1.3c2.6,1.2,20.4-6.1,26.2-4.8
	C85.2,57.6,83.3,50.2,68.3,53.6z"/>
</svg>
