<?xml version="1.0" encoding="utf-8"?>
<!-- Generator: Adobe Illustrator 25.0.1, SVG Export Plug-In . SVG Version: 6.00 Build 0)  -->
<svg version="1.1" id="Layer_1" xmlns="http://www.w3.org/2000/svg" xmlns:xlink="http://www.w3.org/1999/xlink" x="0px" y="0px"
	 viewBox="0 0 100 100" style="enable-background:new 0 0 100 100;" xml:space="preserve">
<style type="text/css">
	.st0{fill:none;stroke:#4C7356;stroke-width:1.7581;stroke-linecap:round;stroke-miterlimit:10;}
	.st1{fill:#EFEED5;}
</style>
<path class="st0" d="M22.6,88.4c0,0,18.3-27.6,21.1-40.4"/>
<path class="st1" d="M47.2,47.4c3.2-2.1,6.7-27.4,12.1-33.2s-4.4-8.6-10.5,10.7S41.3,42.7,41.3,45C41.4,47.3,43.7,49.7,47.2,47.4z"
	/>
<path class="st0" d="M12.3,87.1c0,0,31.1-25.3,41.4-29.2"/>
<path class="st1" d="M55.2,60.4c2.9,1.4,22.9-6.8,29.4-5.4c6.6,1.4,4.4-6.9-12.4-3.1s-16.2,2.2-17.8,3.2
	C52.8,56.1,52,58.8,55.2,60.4z"/>
<path class="st0" d="M27.3,89.8c0,0,14.3-8.9,26-41.7"/>
<path class="st1" d="M51.1,47.9c-0.8-1.8,7-17.4,20.1-21.5S84.9,16.2,88.5,16c3.8-0.2,0.6,9.1-14.7,15.2
	c-14.5,5.7-13.8,14-17.1,18.1C53.6,53.4,51.1,47.9,51.1,47.9z"/>
</svg>
