<?xml version="1.0" encoding="utf-8"?>
<!-- Generator: Adobe Illustrator 25.0.1, SVG Export Plug-In . SVG Version: 6.00 Build 0)  -->
<svg version="1.1" id="Layer_1" xmlns="http://www.w3.org/2000/svg" xmlns:xlink="http://www.w3.org/1999/xlink" x="0px" y="0px"
	 viewBox="0 0 100 100" enable-background="new 0 0 100 100" xml:space="preserve">
<path fill="#846747" d="M46.9,99.2L3,74.5c-0.9-0.5-1.4-1.1-1.5-1.8C1.4,71.8,1.9,71,3,70.4l43.9-24.7c2-1.1,5.2-1.1,7.2,0L98,70.4
	c2,1.1,2,2.9,0,4.1L54.2,99.2C52.2,100.3,48.9,100.3,46.9,99.2z"/>
<polygon fill="#846747" points="1.5,68.1 99.5,67.9 99.5,72.4 1.5,72.7 "/>
<path fill="#3A2B18" d="M46.9,94.6L3,69.9c-2-1.1-2-2.9,0-4.1l43.9-24.7c2-1.1,5.2-1.1,7.2,0L98,65.8c2,1.1,2,2.9,0,4.1L54.2,94.6
	C52.2,95.8,48.9,95.8,46.9,94.6z"/>
<path fill="#51402A" d="M47.3,90.71L8.8,69.01c-1.8-1-1.8-2.6,0-3.6l38.5-21.7c1.8-1,4.6-1,6.4,0l38.5,21.7c1.8,1,1.8,2.6,0,3.6
	l-38.5,21.7C52,91.61,49.1,91.61,47.3,90.71z"/>
<path fill="#51402A" d="M47.3,90.71L8.8,69.01c-1.8-1-1.8-2.6,0-3.6l38.5-21.7c1.8-1,4.6-1,6.4,0l38.5,21.7c1.8,1,1.8,2.6,0,3.6
	l-38.5,21.7C52,91.61,49.1,91.61,47.3,90.71z"/>
<path fill="#B08D46" d="M45.02,68.26l19.3,10.87c0.84,0.46,0.84,1.67,0,2.2l-11.55,6.46c-1.52,0.84-3.34,0.84-4.86,0L13.18,68.26
	c-0.84-0.46-0.84-1.67,0-2.2L47.9,46.52c1.52-0.84,3.34-0.84,4.86,0l11.55,6.46c0.84,0.46,0.84,1.67,0,2.2l-19.3,10.87
	C44.18,66.58,44.18,67.8,45.02,68.26z"/>
<path fill="#DEBF90" d="M82.86,66.51L67.81,58c-0.68-0.38-1.82-0.38-2.51,0l-6.08,3.42l-9.5-5.39v10.41l0.38,0.23
	c-0.46,0.38-0.46,0.91,0.15,1.22l15.05,8.51c0.68,0.38,1.82,0.38,2.51,0l15.05-8.51C83.54,67.5,83.54,66.89,82.86,66.51z"/>
<polygon fill="#B08D46" points="12.57,66.96 12.57,62.56 65,49.56 65,54.2 41.14,62.18 65,75.93 65,80.11 "/>
<path fill="#D1AF77" d="M45.02,63.85l19.3,10.87c0.84,0.46,0.84,1.67,0,2.2l-11.55,6.53c-1.52,0.84-3.34,0.84-4.86,0l-34.73-19.6
	c-0.84-0.46-0.84-1.67,0-2.2L47.9,42.12c1.52-0.84,3.34-0.84,4.86,0l11.55,6.46c0.84,0.46,0.84,1.67,0,2.2l-19.3,10.87
	C44.18,62.1,44.18,63.32,45.02,63.85z"/>
<line fill="none" stroke="#B08D46" stroke-width="0.7599" stroke-miterlimit="10" x1="17.21" y1="62.86" x2="48.82" y2="80.64"/>
<line fill="none" stroke="#B08D46" stroke-width="0.7599" stroke-miterlimit="10" x1="20.7" y1="60.96" x2="52.31" y2="78.67"/>
<line fill="none" stroke="#B08D46" stroke-width="0.7599" stroke-miterlimit="10" x1="24.12" y1="58.99" x2="55.73" y2="76.69"/>
<line fill="none" stroke="#B08D46" stroke-width="0.7599" stroke-miterlimit="10" x1="31.11" y1="55.03" x2="41.37" y2="60.96"/>
<line fill="none" stroke="#B08D46" stroke-width="0.7599" stroke-miterlimit="10" x1="34.61" y1="53.06" x2="44.86" y2="58.99"/>
<line fill="none" stroke="#B08D46" stroke-width="0.7599" stroke-miterlimit="10" x1="38.1" y1="51.08" x2="48.28" y2="57.01"/>
<line fill="none" stroke="#B08D46" stroke-width="0.7599" stroke-miterlimit="10" x1="41.6" y1="49.11" x2="51.78" y2="55.03"/>
<line fill="none" stroke="#B08D46" stroke-width="0.7599" stroke-miterlimit="10" x1="45.09" y1="47.13" x2="55.27" y2="53.06"/>
<line fill="none" stroke="#B08D46" stroke-width="0.7599" stroke-miterlimit="10" x1="48.51" y1="45.23" x2="58.77" y2="51.16"/>
<line fill="none" stroke="#B08D46" stroke-width="0.7599" stroke-miterlimit="10" x1="27.62" y1="57.01" x2="59.23" y2="74.71"/>
<polygon fill="#A8906F" points="49.73,59.14 49.73,60.96 66.6,70.53 66.6,68.18 "/>
<polygon fill="#C0552F" points="49.73,58.99 66.6,68.56 66.6,61.57 49.73,56.78 "/>
<path fill="#D77D54" d="M65.3,67.8l-15.05-8.43c-0.68-0.38-0.68-0.99,0-1.37l15.05-8.51c0.68-0.38,1.82-0.38,2.51,0L82.86,58
	c0.68,0.38,0.68,0.99,0,1.37L67.81,67.8C67.13,68.18,65.99,68.18,65.3,67.8z"/>
<path fill="#A8906F" d="M83.39,56.25v10.87l0,0l0,0c0,0.23-0.15,0.53-0.53,0.68l-15.05,8.59c-0.3,0.23-0.84,0.3-1.22,0.3V65.67
	L83.39,56.25z"/>
<path fill="#5E2C25" d="M65.23,68.41L49.2,59.37c-0.76-0.38-0.76-1.06,0-1.52l16.03-9.04c0.76-0.38,1.9-0.38,2.66,0l16.03,9.04
	c0.76,0.38,0.76,1.06,0,1.52l-16.03,9.04C67.2,68.86,65.99,68.86,65.23,68.41z"/>
<polygon fill="#5E2C25" points="48.66,57.24 48.66,58.53 84.53,58.68 84.53,57.24 "/>
<path fill="#AC665B" d="M80.12,54.35l-1.22-0.61c-0.99-0.38-2.05-0.08-2.66,0.76L66.14,67.34c-0.3-0.08-0.61-0.15-0.91-0.3L49.2,58
	c-0.61-0.3-0.68-0.84-0.38-1.22l0,0l9.5-12.31c0.61-0.84,1.75-1.22,2.66-0.76l6.61,3.65h0.08l5.02,2.81L80.12,54.35z"/>
<path fill="#E58A6E" d="M72.6,50.17l-5.02-2.81c0.08,0,0.15,0.08,0.23,0.15L72.6,50.17z"/>
<path fill="#77392D" d="M83.92,58l-16.03,9.04c-0.3,0.15-0.76,0.3-1.22,0.3c-0.23,0-0.38,0-0.61,0L76.25,54.5
	c0.61-0.84,1.75-1.22,2.66-0.76l1.22,0.61L84,56.48c0.23,0.15,0.46,0.38,0.53,0.53C84.6,57.39,84.38,57.77,83.92,58z"/>
<path fill="#2B1E12" d="M53.15,63.92l2.96,1.6c0.08,0.08,0.15,0.15,0.15,0.3v2.66c0,0.23-0.3,0.38-0.53,0.3l-2.96-1.75
	c-0.08-0.08-0.15-0.15-0.15-0.3v-2.51C52.61,63.92,52.92,63.77,53.15,63.92z"/>
<path fill="#2B1E12" d="M79.67,64.53v2.58c0,0.15-0.08,0.23-0.15,0.3l-2.96,1.75c-0.23,0.15-0.53,0-0.53-0.3V66.2
	c0-0.15,0.08-0.23,0.15-0.3l2.96-1.67C79.36,64.15,79.67,64.3,79.67,64.53z"/>
<g>
	<polyline fill="#9C4C29" points="72.6,50.02 72.6,53.89 69.41,52.15 69.41,48.2 72.6,50.02 	"/>
	<polyline fill="#6E341E" points="72.6,50.02 72.6,53.89 75.87,52.15 75.87,48.2 72.6,50.02 	"/>
	<path fill="#2E2213" stroke="#B8846A" stroke-width="0.4561" stroke-miterlimit="10" d="M72.37,49.94l-2.81-1.67
		c-0.15-0.08-0.15-0.23,0-0.23l2.89-1.6c0.15-0.08,0.3-0.08,0.46,0l2.89,1.6c0.15,0.08,0.15,0.23,0,0.23l-2.89,1.6
		C72.75,49.94,72.52,49.94,72.37,49.94z"/>
</g>
<path fill="#2B1E13" d="M69.26,75.7v-5.47c0-0.61,0.38-1.22,0.91-1.52l1.52-0.84c0.53-0.3,1.14,0.08,1.14,0.68v5.17L69.26,75.7z"/>
<g>
	<path fill="none" stroke="#995C56" stroke-width="0.3799" stroke-miterlimit="10" d="M71.84,55.11c-0.53,0.91-1.82,1.14-2.89,0.53
		c-1.06-0.61-1.6-1.82-1.06-2.74"/>
	<path fill="none" stroke="#995C56" stroke-width="0.3799" stroke-miterlimit="10" d="M67.89,52.91c-0.53,0.91-1.82,1.14-2.89,0.53
		s-1.6-1.82-1.06-2.74"/>
	<path fill="none" stroke="#995C56" stroke-width="0.3799" stroke-miterlimit="10" d="M68.95,55.64c-0.53,0.91-1.82,1.14-2.89,0.53
		c-1.06-0.61-1.6-1.82-1.06-2.74"/>
	<path fill="none" stroke="#995C56" stroke-width="0.3799" stroke-miterlimit="10" d="M70.02,58.38c-0.53,0.91-1.82,1.14-2.89,0.53
		c-1.06-0.61-1.6-1.82-1.06-2.74"/>
	<path fill="none" stroke="#995C56" stroke-width="0.3799" stroke-miterlimit="10" d="M65,53.44c-0.53,0.91-1.82,1.14-2.89,0.53
		c-1.06-0.61-1.6-1.82-1.06-2.74"/>
	<path fill="none" stroke="#995C56" stroke-width="0.3799" stroke-miterlimit="10" d="M66.06,56.17c-0.53,0.91-1.82,1.14-2.89,0.53
		c-1.06-0.61-1.6-1.82-1.06-2.74"/>
	<path fill="none" stroke="#995C56" stroke-width="0.3799" stroke-miterlimit="10" d="M67.13,58.91c-0.53,0.91-1.82,1.14-2.89,0.53
		c-1.06-0.61-1.6-1.82-1.06-2.74"/>
	<path fill="none" stroke="#995C56" stroke-width="0.3799" stroke-miterlimit="10" d="M68.19,61.64c-0.53,0.91-1.82,1.14-2.89,0.53
		c-1.06-0.61-1.6-1.82-1.06-2.74"/>
	<path fill="none" stroke="#995C56" stroke-width="0.3799" stroke-miterlimit="10" d="M61.05,51.23c-0.53,0.91-1.82,1.14-2.89,0.53
		c-1.06-0.61-1.6-1.82-1.06-2.74"/>
	<path fill="none" stroke="#995C56" stroke-width="0.3799" stroke-miterlimit="10" d="M62.11,53.97c-0.53,0.91-1.82,1.14-2.89,0.53
		c-1.06-0.61-1.6-1.82-1.06-2.74"/>
	<path fill="none" stroke="#995C56" stroke-width="0.3799" stroke-miterlimit="10" d="M63.18,56.71c-0.53,0.91-1.82,1.14-2.89,0.53
		c-1.06-0.61-1.6-1.82-1.06-2.74"/>
	<path fill="none" stroke="#995C56" stroke-width="0.3799" stroke-miterlimit="10" d="M64.24,59.44c-0.53,0.91-1.82,1.14-2.89,0.53
		c-1.06-0.61-1.52-1.82-1.06-2.74"/>
	<path fill="none" stroke="#995C56" stroke-width="0.3799" stroke-miterlimit="10" d="M65.3,62.18c-0.53,0.91-1.82,1.14-2.89,0.53
		s-1.6-1.82-1.06-2.74"/>
	<path fill="none" stroke="#995C56" stroke-width="0.3799" stroke-miterlimit="10" d="M59.23,54.5c-0.53,0.91-1.82,1.14-2.89,0.53
		c-1.06-0.61-1.6-1.82-1.06-2.74"/>
	<path fill="none" stroke="#995C56" stroke-width="0.3799" stroke-miterlimit="10" d="M60.29,57.24c-0.53,0.91-1.82,1.14-2.89,0.53
		c-1.06-0.61-1.6-1.82-1.06-2.74"/>
	<path fill="none" stroke="#995C56" stroke-width="0.3799" stroke-miterlimit="10" d="M61.35,59.97c-0.53,0.91-1.82,1.14-2.89,0.53
		c-1.06-0.61-1.6-1.82-1.06-2.74"/>
	<path fill="none" stroke="#995C56" stroke-width="0.3799" stroke-miterlimit="10" d="M57.4,57.77c-0.53,0.91-1.82,1.14-2.89,0.53
		c-1.06-0.61-1.6-1.82-1.06-2.74"/>
</g>
<ellipse fill="#382C20" cx="87.89" cy="66.47" rx="1.8" ry="1.1"/>
</svg>
