<?xml version="1.0" encoding="utf-8"?>
<!-- Generator: Adobe Illustrator 25.0.1, SVG Export Plug-In . SVG Version: 6.00 Build 0)  -->
<svg version="1.1" id="Layer_1" xmlns="http://www.w3.org/2000/svg" xmlns:xlink="http://www.w3.org/1999/xlink" x="0px" y="0px"
	 viewBox="0 0 100 100" enable-background="new 0 0 100 100" xml:space="preserve">
<g>
	<path fill="#D67A4E" d="M46.24,33.16l26.97,49.21c0.01,0.03,0.03,0.05,0.03,0.05l7.83,12.69c0.26,0.43,0.25,0.92-0.03,1.07
		l-3.52,1.93c-0.28,0.15-0.69-0.1-0.92-0.55l-6.39-13.45c-0.01-0.03-0.03-0.05-0.04-0.08L43.21,34.85c-0.23-0.42-0.2-0.87,0.06-1.02
		l2.09-1.14C45.62,32.54,46.01,32.74,46.24,33.16z"/>
	<path fill="#A2A0A0" d="M40.88,4.53l8.92,16.28c1.17,2.13,0.94,4.65-0.36,6.52c-0.64,0.92-2.03,0.85-2.57-0.14L35.96,7.29
		l-2.01,1.1l11.14,20.33c0.4,0.73,0.13,1.65-0.6,2.05l-2.09,1.15c-0.73,0.4-1.65,0.13-2.05-0.6L29.26,11.08l-2.01,1.1l10.94,19.97
		c0.5,0.91-0.04,2.07-1.07,2.22c-2.49,0.37-5.05-0.81-6.33-3.14l-8.92-16.28l-2.01,1.1l8.92,16.28c2.25,4.11,7.4,5.61,11.51,3.36
		l8.17-4.48c4.11-2.25,5.61-7.4,3.36-11.51L42.9,3.43L40.88,4.53z"/>
	<polygon fill="#A2A0A0" points="19.65,13.3 19.85,16.06 21.87,14.95 	"/>
	<polygon fill="#A2A0A0" points="40.69,1.78 40.88,4.53 42.9,3.43 	"/>
	<polygon fill="#A2A0A0" points="27.04,9.43 27.24,12.19 29.26,11.08 	"/>
	<polygon fill="#A2A0A0" points="33.79,5.74 33.99,8.49 36,7.39 	"/>
	
		<rect x="42.59" y="32.07" transform="matrix(0.8769 -0.4806 0.4806 0.8769 -11.454 26.2239)" fill="#A2A0A0" width="5.78" height="6.82"/>
</g>
</svg>
