<?xml version="1.0" encoding="utf-8"?>
<!-- Generator: Adobe Illustrator 25.0.1, SVG Export Plug-In . SVG Version: 6.00 Build 0)  -->
<svg version="1.1" id="Layer_1" xmlns="http://www.w3.org/2000/svg" xmlns:xlink="http://www.w3.org/1999/xlink" x="0px" y="0px"
	 viewBox="0 0 100 100" enable-background="new 0 0 100 100" xml:space="preserve">
<path opacity="0.2" fill="#9F9E9F" d="M38.49,66.01c0.24-0.97,0.77-1.92,1.49-2.83c3.83-4.81,13.08-8.58,13.08-8.58v-8.92
	c-1.21-0.49-2.15-1.13-2.51-1.4c-0.1-0.08-0.16-0.2-0.16-0.34v-2.72v-9.11c0-0.02,0-0.04,0.01-0.06c0-0.59,0.95-1.13,2.54-1.56
	c1.18-0.16,2.14-0.36,2.84-0.54c0.01,0,0.02-0.01,0.03,0c0.45-0.07,0.91-0.12,1.4-0.17c0.52-0.05,1.05-0.09,1.61-0.13v-2.98
	c0-0.04,0.01-0.09,0.01-0.13c0-0.04,0-0.08-0.01-0.12c0-0.01-0.01-0.01,0-0.02c-0.01-0.16-0.1-0.3-0.22-0.36
	c-0.01-0.01-0.01-0.01-0.01-0.01c-1.1-1.13-5.74-1.98-11.31-1.98c-6.38,0-11.55,1.11-11.55,2.49v0.03v0.01v11.84
	c0,0.14,0.06,0.26,0.16,0.34c0.36,0.27,1.3,0.91,2.5,1.4v8.92c0,0-14.7,5.99-14.7,12.5C23.69,65.82,30.48,66.61,38.49,66.01z
	 M37.35,27.03c0-0.12,0.06-0.24,0.16-0.36c0.85-0.93,4.91-1.63,9.77-1.63c4.22,0,7.84,0.53,9.27,1.27c0.43,0.23,0.66,0.47,0.66,0.72
	c0,1.1-4.45,1.99-9.93,1.99C41.8,29.02,37.35,28.13,37.35,27.03z"/>
<path opacity="0.2" fill="#9F9E9F" d="M77.26,34.03v-0.01c0-0.03,0-0.06-0.02-0.09c-0.01-0.11-0.07-0.21-0.16-0.26
	c-1-1.16-5.7-2.03-11.35-2.03c-2.59,0-4.98,0.18-6.91,0.5c-0.58,0.09-1.12,0.19-1.61,0.31c-1.88,0.44-3.03,1.03-3.03,1.68
	c-0.01,0.02-0.01,0.04-0.01,0.06v11.83c0,0.14,0.06,0.26,0.16,0.34c0.36,0.27,1.3,0.91,2.51,1.4v8.92c0,0-14.7,5.99-14.7,12.5
	c0,6.8,17.42,4.71,29.38,2.33c2.39-0.47,4.14-2.57,4.14-5.02v-18.7c0.49-0.21,0.97-0.47,1.42-0.78c0.11-0.08,0.18-0.21,0.18-0.36
	V34.28c0.01-0.05,0.02-0.1,0.02-0.15C77.28,34.09,77.27,34.06,77.26,34.03z M69.59,36.47c-0.59,0.04-1.21,0.08-1.86,0.11
	c-0.65,0.03-1.32,0.04-2,0.04s-1.35-0.01-2-0.04c-0.65-0.03-1.27-0.07-1.86-0.11c-1.14-0.1-2.18-0.24-3.05-0.41
	c-0.62-0.12-1.17-0.26-1.61-0.41c-0.9-0.3-1.41-0.65-1.41-1.02c0-0.12,0.05-0.24,0.16-0.35c0.21-0.24,0.64-0.47,1.25-0.67
	c0.44-0.15,0.99-0.29,1.61-0.41c1.79-0.35,4.22-0.56,6.91-0.56c4.21,0,7.82,0.53,9.26,1.27c0.43,0.22,0.67,0.47,0.67,0.72
	C75.66,35.45,73.16,36.16,69.59,36.47z"/>
</svg>
