<?xml version="1.0" encoding="utf-8"?>
<!-- Generator: Adobe Illustrator 25.0.1, SVG Export Plug-In . SVG Version: 6.00 Build 0)  -->
<svg version="1.1" id="Layer_1" xmlns="http://www.w3.org/2000/svg" xmlns:xlink="http://www.w3.org/1999/xlink" x="0px" y="0px"
	 viewBox="0 0 100 100" style="enable-background:new 0 0 100 100;" xml:space="preserve">
<style type="text/css">
	.st0{fill:#FFFFFF;}
</style>
<path class="st0" d="M79.2,37.5c0-1.5-2.8-1.4-4.2-1.2c0-0.1-0.1-0.2-0.1-0.2c1.2-0.7,3.7-2.5,3.6-4.8c-0.1-2.5-3.8,2-5,3.5
	c0,0,0,0,0,0c0,0,0,0-0.1,0c0.6-1.2,2.1-4.3,1.6-5.9c-0.6-1.6-2.8,2.8-3.6,4.9c0.1-1.5,0.1-4.2-1-4.6c-1.6-0.6-1.1,5.1-0.5,6.6
	c0,0.1,0.1,0.2,0.1,0.2c0,0,0,0,0,0c-0.3-0.5-1.8-3.8-2.8-3.5c-1.1,0.2-0.2,1.9,1.2,3.7c-3.7,0.4-9.3,1.4-12.9,3.9
	c1.6-4.3,2.8-8.6,3.6-12.8c0.7-0.3,1.1-1.1,1.4-2.8c0,0,3.3,6,4.3,2.7c0.6-1.8-0.5-2.9-1.6-3.5c2.3,0.8,6,1.9,5.3,0.4
	c-0.9-1.8-3.7-2.7-5.2-2.9c1.5-0.2,4.3-1,3.8-2.6c-0.7-2.4-4.5,0.4-5.1,1.5c0,0,0,0,0,0.1c0,0,0,0,0-0.1c0.2-0.8,1.5-5-0.3-5.5
	c-1.7-0.5-2.3,2.5-2.5,3.8c-0.1,0-0.2,0-0.2,0c-0.4-1.4-1.6-4.6-4.1-5.3c-2.6-0.7,1.1,4.3,2.4,6c0,0,0,0.1-0.1,0.1
	c-1.1-1.1-3.9-3.5-5.7-3.5c-1.9,0,2.3,3.8,4.3,5.2C54,20,51.1,19,50.4,19.9c-1,1.4,5.1,2.8,6.8,2.8c1.7,0-4.2,0.1-4.3,1.5
	C52.8,25.6,55.5,25,58,24c0,0-1.4,2.4-0.4,3c-1.8,9.7-6.3,20.1-11.3,29.5l-0.1-1.7l-0.9,0.4l-0.5-2.6l-1,0.9l-1.4-1.7l-0.3,2.1
	l-1.8,0.3l1.3,1.6L40,56.1l1.8,2.2c0.7,0.8,1.6,1.4,2.6,1.6c-3,5.3-6.1,10.2-8.9,14.4c0,0,0-0.1,0-0.1l0.4-3.4l-1.7,0.3L34,66.6
	l-2,1.1l-1.7-3.1l-1,3.3h-3.1l1.6,3.1l-2.5,0.2l2.4,4.1c1,1.7,2.5,3,4.4,3.7c-3.7,5.2-6.3,8.5-6.4,8.6c-0.3,0.3-0.2,0.8,0.1,1.1
	c0.1,0.1,0.3,0.2,0.5,0.2c0.2,0,0.4-0.1,0.6-0.3c0.1-0.1,4.3-5.3,9.7-13.3l-0.2,0.4l0.1,0.1c1.1,1,2.7,1.5,4.5,1.1l3.7-0.8l-0.8-1.6
	l2.7-0.6l-1-1.9l2-2.3l-2.7,0.5l0.1-1.7l-3.1,2.2l-0.3-1.2l-2.2,2.1c-0.1,0.1-0.2,0.2-0.3,0.3C44,64,49.8,54,54,43.7l0.1,0
	c1.6-3.6,7.3-5.2,11.9-5.9c0.3,1.1,1.2,1.4,3.4,1.3c0,0-4.6,4.3-1.1,4.4c1.8,0,2.5-1,2.8-2.1c0,2.2,0.1,5.5,1.4,4.5
	c1.5-1.2,1.4-4,1-5.3c0.7,1.2,2.3,3.7,3.8,2.8c1.9-1.1-1.2-3.4-2.6-4.1c0.1-0.1,0.1-0.2,0.2-0.3C76.1,39.1,79.3,39.1,79.2,37.5z"/>
</svg>
