<?xml version="1.0" encoding="utf-8"?>
<!-- Generator: Adobe Illustrator 25.0.1, SVG Export Plug-In . SVG Version: 6.00 Build 0)  -->
<svg version="1.1" id="Layer_1" xmlns="http://www.w3.org/2000/svg" xmlns:xlink="http://www.w3.org/1999/xlink" x="0px" y="0px"
	 viewBox="0 0 100 100" style="enable-background:new 0 0 100 100;" xml:space="preserve">
<style type="text/css">
	.st0{fill:none;stroke:#6DA375;stroke-width:1.7621;stroke-linecap:round;stroke-miterlimit:10;}
	.st1{fill:none;stroke:#6DA375;stroke-width:1.7621;stroke-miterlimit:10;}
	.st2{fill:#6DA375;}
	.st3{fill:#F1F2CA;}
	.st4{fill:#BEC659;}
</style>
<path class="st0" d="M25,92.4c0,0,36.3-44.5,38.3-78.6"/>
<path class="st1" d="M78.4,32.3c0,0-18.3,0.2-21.8,8"/>
<path class="st2" d="M33.3,81.4c1.3-1.5,2.2-3.3,2.4-5.3l0.5-4l-2,0.4L34,67.3l-2.3,1.3L29.7,65l-1.2,3.9l-3.6,0l1.9,3.6l-2.9,0.2
	l2.8,4.8c1.3,2.2,3.4,3.9,5.9,4.6l0.2,0L33.3,81.4z"/>
<path class="st2" d="M47.4,59.3c0.6-1,0.9-2.2,0.9-3.4l-0.1-2.4L47.1,54l-0.6-3l-1.2,1L43.7,50l-0.3,2.4l-2.1,0.4l1.5,1.9L41,55
	l2.1,2.6c1,1.2,2.4,1.9,3.9,2.1l0.1,0L47.4,59.3z"/>
<path class="st2" d="M37,77.4c0.6-1.6,1.6-3,2.9-4.2l2.6-2.4l0.4,1.4l3.6-2.6l-0.1,2l3.2-0.6l-2.3,2.7l1.2,2.2l-3.1,0.7l0.9,1.9
	L42,79.4c-2,0.4-3.9-0.1-5.2-1.3L36.7,78L37,77.4z"/>
<path class="st3" d="M63,11.6c0,0-1.3-5.9-5-6.9s3.3,7.7,3.3,7.7s-4.6-4.6-7.2-4.7c-2.6,0,4.9,6.4,6.1,6.7s-5.9-3.1-7.1-1.5
	s5.9,3.3,7.9,3.3c2,0-4.9,0.1-5,1.7c-0.1,1.6,3,0.9,5.9-0.3c0,0-1.9,3.2-0.1,3.7s2.6-0.4,3.1-3.2c0,0,3.8,7,5,3.1s-4-4.9-4-4.9
	s9.5,3.8,8.2,1.2c-1.3-2.6-5.9-3.6-7-3.3c-1.1,0.3,6.3-0.3,5.4-3.1c-0.8-2.8-5.3,0.5-6,1.7c-0.7,1.2,2.1-5.7-0.5-6.4
	C63.4,5.7,63,11.6,63,11.6z"/>
<ellipse transform="matrix(0.5419 -0.8404 0.8404 0.5419 17.3488 59.8257)" class="st4" cx="63.6" cy="14" rx="2.9" ry="3.6"/>
<path class="st3" d="M80.9,32.1c0,0,5.1-2.5,4.9-6c-0.2-3.4-6.2,4.6-6.2,4.6s2.9-5.1,2.1-7.4c-0.8-2.3-4.5,5.7-4.4,6.8
	s1.1-5.8-0.9-6.5c-1.9-0.7-1.3,5.9-0.6,7.7s-1.7-4.2-3.2-3.9c-1.5,0.3,0.1,2.8,2.1,5.1c0,0-3.6-0.9-3.5,0.8s1.2,2.2,4,2
	c0,0-5.4,5-1.3,5.1c4.1,0.1,3.3-4.6,3.3-4.6s-0.6,9.1,1.5,7.4c2.1-1.7,1.5-6,0.9-6.9s2.3,5.4,4.7,4s-2.1-4.5-3.5-4.9
	c-1.3-0.4,6,0.5,5.8-2C86.6,31.1,80.9,32.1,80.9,32.1z"/>
<ellipse transform="matrix(0.2746 -0.9616 0.9616 0.2746 24.9689 100.3733)" class="st4" cx="79" cy="33.6" rx="3.6" ry="2.9"/>
</svg>
