<?xml version="1.0" encoding="utf-8"?>
<!-- Generator: Adobe Illustrator 25.0.1, SVG Export Plug-In . SVG Version: 6.00 Build 0)  -->
<svg version="1.1" id="Layer_1" xmlns="http://www.w3.org/2000/svg" xmlns:xlink="http://www.w3.org/1999/xlink" x="0px" y="0px"
	 viewBox="0 0 100 100" enable-background="new 0 0 100 100" xml:space="preserve">
<path opacity="0.2" fill="#9F9E9F" d="M50.49,23.77c-15.06,0-27.32,10.73-27.32,23.92c0,0.79,0.05,1.56,0.13,2.33
	c-0.09,0.77-0.13,1.54-0.13,2.33c0,13.19,12.26,23.92,27.32,23.92s27.32-10.73,27.32-23.92c0-0.79-0.05-1.56-0.13-2.33
	c0.09-0.77,0.13-1.54,0.13-2.33C77.81,34.5,65.55,23.77,50.49,23.77z M50.49,65.09c-10.52,0-19.22-6.57-20.59-15.07
	c1.37-8.5,10.07-15.07,20.59-15.07c10.52,0,19.22,6.57,20.59,15.07C69.71,58.52,61.01,65.09,50.49,65.09z"/>
</svg>
