<?xml version="1.0" encoding="utf-8"?>
<!-- Generator: Adobe Illustrator 25.0.1, SVG Export Plug-In . SVG Version: 6.00 Build 0)  -->
<svg version="1.1" id="Layer_1" xmlns="http://www.w3.org/2000/svg" xmlns:xlink="http://www.w3.org/1999/xlink" x="0px" y="0px"
	 viewBox="0 0 100 100" enable-background="new 0 0 100 100" xml:space="preserve">
<g>
	<path fill="#FFFFFF" d="M61.7,49.2c-5.4,0.3-14.6-3.6-7.5-20.2c0,0,1.3,9.2,5,7c3-1.8,3.7-6.1,3.5-11.3c0,0,4.9,4.2,3.2,11.7
		c-0.6,2.9,4.7,5.1,5.9,1C71.8,37.4,74.9,48.5,61.7,49.2z"/>
	<circle fill="none" stroke="#FFFFFF" stroke-width="3.0426" stroke-miterlimit="10" cx="61.9" cy="37.6" r="23.4"/>
	<path fill="#FFFFFF" d="M16.4,83.1L16.4,83.1c-1.3-1.3-1.3-3.5,0-4.8l26.1-26.1l4.8,4.8L21.2,83.1C19.9,84.4,17.8,84.4,16.4,83.1z"
		/>
</g>
</svg>
