<?xml version="1.0" encoding="utf-8"?>
<!-- Generator: Adobe Illustrator 25.0.1, SVG Export Plug-In . SVG Version: 6.00 Build 0)  -->
<svg version="1.1" id="Layer_1" xmlns="http://www.w3.org/2000/svg" xmlns:xlink="http://www.w3.org/1999/xlink" x="0px" y="0px"
	 viewBox="0 0 100 100" style="enable-background:new 0 0 100 100;" xml:space="preserve">
<style type="text/css">
	.st0{fill:none;stroke:#EA8642;stroke-width:3.0923;stroke-miterlimit:10;}
	.st1{fill:#9E614C;}
	.st2{fill:none;stroke:#E8C19E;stroke-width:0.8835;stroke-miterlimit:10;}
	.st3{fill:none;stroke:#D36841;stroke-width:1.5008;stroke-miterlimit:10;}
	.st4{fill:#4F4F4F;}
	.st5{fill:#ED4240;}
	.st6{fill:#EA8642;}
</style>
<path class="st0" d="M23.3,10.8c0,0-1,4.8,7.1,7.7s17.7,2,30.8,26"/>
<path class="st0" d="M69.3,94.6c0,0-4.6-1.7-2.6-10.1s7.8-16-5.3-40"/>
<rect x="59.2" y="37.3" transform="matrix(0.8769 -0.4806 0.4806 0.8769 -14.104 35.1895)" class="st1" width="4.8" height="15.7"/>
<polyline class="st2" points="25.3,12.8 22.5,14.3 65.6,93.1 68.5,91.5 "/>
<line class="st3" x1="19.9" y1="64.1" x2="74.5" y2="34.2"/>
<polygon class="st4" points="71,32.5 79.7,31.3 74.2,34.3 "/>
<polygon class="st4" points="74,38 79.7,31.3 74.2,34.3 "/>
<polygon class="st5" points="29.8,57.8 25.8,56.9 15.6,62.5 20.8,62.7 "/>
<polygon class="st5" points="30.5,59.2 29.2,63 18.9,68.6 21.6,64.1 "/>
<path class="st5" d="M68.9,16.4c0,0-5.6-2-5.9-5.6c0,0,2,2.4,5.9,2.2c3.8-0.2,3.7,2.9,3.4,5.6C72.3,18.6,70.7,17.2,68.9,16.4z"/>
<path class="st5" d="M74.1,40c-7.9,0-9.5-5.4-6.2-9.8c2.1-2.7,4.1-3.8,0.9-9.6c0,0,5,2.9,6.5,6.5c1.5,3.6,7-6.3,3.4-10.9
	C78.7,16.3,94.2,40,74.1,40z"/>
<circle class="st0" cx="73.3" cy="89.2" r="6.7"/>
<circle class="st0" cx="30" cy="10.8" r="6.7"/>
<path class="st6" d="M73.3,28.9c0,0,3.5,7.7,7.5,1.2c0,0,4.1,4.8-4,6.5C68.7,38.2,71.3,31.5,73.3,28.9z"/>
</svg>
