<?xml version="1.0" encoding="utf-8"?>
<!-- Generator: Adobe Illustrator 25.0.1, SVG Export Plug-In . SVG Version: 6.00 Build 0)  -->
<svg version="1.1" id="Layer_1" xmlns="http://www.w3.org/2000/svg" xmlns:xlink="http://www.w3.org/1999/xlink" x="0px" y="0px"
	 viewBox="0 0 100 100" style="enable-background:new 0 0 100 100;" xml:space="preserve">
<style type="text/css">
	.st0{fill:none;stroke:#99634E;stroke-width:3.1487;stroke-linecap:round;stroke-miterlimit:10;}
	.st1{fill:#996199;}
	.st2{fill:#BE7CB4;}
	.st3{fill:#D3D3D3;}
	.st4{fill:#6EAEB0;}
	.st5{fill:#81CFD6;}
	.st6{fill:#EBAC58;}
	.st7{fill:#E1D674;}
	.st8{opacity:0.62;fill:#E1D674;}
	.st9{opacity:0.62;fill:#81CFD6;}
	.st10{opacity:0.62;fill:#BE7CB4;}
</style>
<line class="st0" x1="-59.5" y1="30.4" x2="-20.3" y2="93.9"/>
<path class="st1" d="M-58,19.2L-58,29.5l-2.6,1.6l-4.2-1.6l-2-0.7c-0.4-0.1-0.5-0.3-0.7-0.6l-2-4.8l-0.1-0.2l-2.8-3.1
	c-0.1-0.2-0.3-0.5-0.2-0.8l0.7-9.7c0.1-0.4,0.4-0.9,0.8-0.8c0,0,0,0,0.2-0.1l4.5,1.1c0.4,0.1,0.5,0.3,0.7,0.6l1.9,4.6
	c0.1,0.2,0.1,0.2,0.3,0.5l5,3C-58.2,18.4-57.9,18.8-58,19.2z"/>
<path class="st2" d="M-63,17.8l-0.1,10.3l-1.9,1.1l-2-0.7c-0.4-0.1-0.5-0.3-0.7-0.6l-2-4.8l-0.1-0.2l-2.8-3.1
	c-0.1-0.2-0.3-0.5-0.2-0.8l0.7-9.7c0.1-0.4,0.4-0.9,0.8-0.8c0.1,0.2,0.1,0.2,0.3,0.5l2.3,4.7c0.1,0.2,0.1,0.2,0.3,0.5l5,3
	C-63.1,17.2-62.9,17.4-63,17.8z"/>
<path class="st3" d="M-48.1,46.7l-1.9,1.2c-0.4,0.3-1,0.1-1.2-0.3l-9.7-15.7c-0.3-0.4-0.1-1,0.3-1.2l1.9-1.2c0.4-0.3,1-0.1,1.2,0.3
	l9.7,15.7C-47.5,45.9-47.6,46.5-48.1,46.7z"/>
<line class="st0" x1="-155.9" y1="30.4" x2="-116.6" y2="93.9"/>
<path class="st4" d="M-154.4,19.2l-0.1,10.3l-2.6,1.6l-4.2-1.6l-2-0.7c-0.4-0.1-0.5-0.3-0.7-0.6l-2-4.8l-0.1-0.2l-2.8-3.1
	c-0.1-0.2-0.3-0.5-0.2-0.8l0.7-9.7c0.1-0.4,0.4-0.9,0.8-0.8c0,0,0,0,0.2-0.1l4.5,1.1c0.4,0.1,0.5,0.3,0.7,0.6l1.9,4.6
	c0.1,0.2,0.1,0.2,0.3,0.5l5,3C-154.6,18.4-154.3,18.8-154.4,19.2z"/>
<path class="st5" d="M-159.4,17.8l-0.1,10.3l-1.9,1.1l-2-0.7c-0.4-0.1-0.5-0.3-0.7-0.6l-2-4.8l-0.1-0.2l-2.8-3.1
	c-0.1-0.2-0.3-0.5-0.2-0.8l0.7-9.7c0.1-0.4,0.4-0.9,0.8-0.8c0.1,0.2,0.1,0.2,0.3,0.5l2.3,4.7c0.1,0.2,0.1,0.2,0.3,0.5l5,3
	C-159.4,17.2-159.3,17.4-159.4,17.8z"/>
<path class="st3" d="M-144.4,46.7l-1.9,1.2c-0.4,0.3-1,0.1-1.2-0.3l-9.7-15.7c-0.3-0.4-0.1-1,0.3-1.2l1.9-1.2c0.4-0.3,1-0.1,1.2,0.3
	l9.7,15.7C-143.9,45.9-144,46.5-144.4,46.7z"/>
<line class="st0" x1="41.4" y1="30.4" x2="80.6" y2="93.9"/>
<path class="st6" d="M42.9,19.2l-0.1,10.3l-2.6,1.6l-4.2-1.6l-2-0.7c-0.4-0.1-0.5-0.3-0.7-0.6l-2-4.8l-0.1-0.2l-2.8-3.1
	c-0.1-0.2-0.3-0.5-0.2-0.8l0.7-9.7c0.1-0.4,0.4-0.9,0.8-0.8c0,0,0,0,0.2-0.1l4.5,1.1c0.4,0.1,0.5,0.3,0.7,0.6l1.9,4.6
	c0.1,0.2,0.1,0.2,0.3,0.5l5,3C42.7,18.4,43,18.8,42.9,19.2z"/>
<path class="st7" d="M37.9,17.8l-0.1,10.3L36,29.3l-2-0.7c-0.4-0.1-0.5-0.3-0.7-0.6l-2-4.8L31.1,23l-2.8-3.1
	c-0.1-0.2-0.3-0.5-0.2-0.8l0.7-9.7c0.1-0.4,0.4-0.9,0.8-0.8c0.1,0.2,0.1,0.2,0.3,0.5l2.3,4.7c0.1,0.2,0.1,0.2,0.3,0.5l5,3
	C37.8,17.2,38,17.4,37.9,17.8z"/>
<path class="st3" d="M52.8,46.7l-1.9,1.2c-0.4,0.3-1,0.1-1.2-0.3l-9.7-15.7c-0.3-0.4-0.1-1,0.3-1.2l1.9-1.2c0.4-0.3,1-0.1,1.2,0.3
	l9.7,15.7C53.4,45.9,53.2,46.5,52.8,46.7z"/>
<circle class="st8" cx="46.3" cy="11.1" r="1.6"/>
<circle class="st8" cx="43.1" cy="23" r="1.6"/>
<circle class="st8" cx="20" cy="21.4" r="3"/>
<circle class="st8" cx="56.9" cy="29.3" r="3.4"/>
<circle class="st8" cx="29.9" cy="40.6" r="1.9"/>
<polygon class="st9" points="-140.4,20.7 -138.6,27.5 -131.9,29.3 -138.6,31.1 -140.4,37.8 -142.2,31.1 -148.9,29.3 -142.2,27.5 "/>
<polygon class="st9" points="-151,6.7 -150,10.2 -146.5,11.1 -150,12.1 -151,15.6 -151.9,12.1 -155.5,11.1 -151.9,10.2 "/>
<polygon class="st9" points="-154.3,17.2 -153.1,21.8 -148.6,23 -153.1,24.2 -154.3,28.8 -155.6,24.2 -160.1,23 -155.6,21.8 "/>
<polygon class="st9" points="-167.4,34.8 -166.1,39.4 -161.6,40.6 -166.1,41.8 -167.4,46.3 -168.6,41.8 -173.1,40.6 -168.6,39.4 "/>
<polygon class="st9" points="-177.4,12.9 -175.6,19.6 -168.9,21.4 -175.6,23.2 -177.4,29.9 -179.2,23.2 -185.9,21.4 -179.2,19.6 "/>
<ellipse class="st10" cx="-44" cy="29.3" rx="3.2" ry="6.3"/>
<ellipse class="st10" cx="-54.6" cy="11.1" rx="1.8" ry="3.5"/>
<ellipse class="st10" cx="-71" cy="40.6" rx="1.8" ry="3.5"/>
<ellipse class="st10" cx="-57.7" cy="23" rx="2.3" ry="4.5"/>
<ellipse class="st10" cx="-80.9" cy="21.4" rx="3.2" ry="6.3"/>
<circle class="st8" cx="59.8" cy="21.4" r="1.2"/>
<circle class="st8" cx="22.7" cy="13.9" r="1.2"/>
<circle class="st8" cx="47.8" cy="6.7" r="0.6"/>
<circle class="st8" cx="31.5" cy="35.5" r="0.6"/>
<circle class="st8" cx="45.3" cy="17.9" r="0.6"/>
</svg>
