<?xml version="1.0" encoding="utf-8"?>
<!-- Generator: Adobe Illustrator 25.0.1, SVG Export Plug-In . SVG Version: 6.00 Build 0)  -->
<svg version="1.1" id="Layer_1" xmlns="http://www.w3.org/2000/svg" xmlns:xlink="http://www.w3.org/1999/xlink" x="0px" y="0px"
	 viewBox="0 0 100 100" style="enable-background:new 0 0 100 100;" xml:space="preserve">
<style type="text/css">
	.st0{fill:#F2EFEB;}
	.st1{fill:#DDD6CE;}
	.st2{fill:#E54849;}
	.st3{fill:#6B472D;}
</style>
<path class="st0" d="M43.8,85c-2.9,5.4-6.7,8.4-12,6.3c-1.8-0.7-3-3.5-2.9-8.2c0.2-7.5,3.7-19.9,13.4-36.9c15.7-27.7,11.4-6.1,9.9,3
	C51.2,55.2,49.4,74.5,43.8,85z"/>
<path class="st1" d="M25.6,34.6c0,0,16.1,8.5,16.1,12.6c0,1.3,9.6,5,10.4,3.5c2.5-4.3,24.2,1.5,24.2,1.5L25.6,34.6z"/>
<path class="st2" d="M85.8,54.5c-10.2,0.1-43.4-10.4-62.9-18.9C-1.1,25.1,46.7,11.1,60.6,15c2.4,0.6,4.9,2.2,7.4,4.4
	c1.1,0.9,2.1,1.9,3.2,3c4.2,4.4,8.3,10,11.3,15.3c1,1.8,1.9,3.5,2.7,5.2C88.3,49.4,89.1,54.5,85.8,54.5z"/>
<ellipse transform="matrix(0.2878 -0.9577 0.9577 0.2878 -2.7571 62.317)" class="st0" cx="40.5" cy="33" rx="2.7" ry="3.5"/>
<ellipse transform="matrix(0.7857 -0.6186 0.6186 0.7857 -3.4389 48.7018)" class="st0" cx="68.6" cy="29.3" rx="1.7" ry="2.5"/>
<ellipse transform="matrix(0.2878 -0.9577 0.9577 0.2878 5.5169 76.6886)" class="st0" cx="54.3" cy="34.6" rx="1.8" ry="2.3"/>
<ellipse transform="matrix(0.2878 -0.9577 0.9577 0.2878 1.5917 83.0273)" class="st0" cx="56.6" cy="40.4" rx="1.3" ry="1.6"/>
<ellipse transform="matrix(0.1117 -0.9937 0.9937 0.1117 28.27 105.0846)" class="st0" cx="72.9" cy="36.7" rx="1.4" ry="1.1"/>
<ellipse transform="matrix(0.9962 -8.678532e-02 8.678532e-02 0.9962 -1.6073 4.3524)" class="st0" cx="49.3" cy="20.7" rx="2.6" ry="2.1"/>
<path class="st0" d="M71.2,22.4c-0.4,0.4-1.1,0.8-1.9,0.8c-1.5,0.1-2.7-0.7-2.8-1.8c-0.1-0.9,0.5-1.6,1.5-2
	C69.1,20.2,70.2,21.3,71.2,22.4z"/>
<ellipse transform="matrix(0.9962 -8.678532e-02 8.678532e-02 0.9962 -2.1286 2.7815)" class="st0" cx="30.9" cy="25.9" rx="3.7" ry="2.9"/>
<path class="st0" d="M85.2,42.9c-0.5,0.2-1,0.4-1.6,0.4c-2,0.2-3.8-1-3.9-2.5c-0.1-1.4,1.1-2.7,2.8-3.1
	C83.6,39.5,84.5,41.2,85.2,42.9z"/>
<ellipse transform="matrix(0.9962 -8.678532e-02 8.678532e-02 0.9962 -2.0488 3.6203)" class="st0" cx="40.6" cy="25.4" rx="1.4" ry="1.1"/>
<ellipse transform="matrix(0.9962 -8.678532e-02 8.678532e-02 0.9962 -3.8601 6.6292)" class="st0" cx="74.3" cy="47.7" rx="1.4" ry="1.1"/>
<ellipse transform="matrix(0.9962 -8.678532e-02 8.678532e-02 0.9962 -2.5204 2.0094)" class="st0" cx="21.8" cy="30" rx="1.2" ry="1.6"/>
<ellipse transform="matrix(0.9962 -8.678532e-02 8.678532e-02 0.9962 -2.0278 5.1019)" class="st0" cx="57.7" cy="25.9" rx="1.4" ry="1.1"/>
<ellipse transform="matrix(0.7857 -0.6186 0.6186 0.7857 -10.4575 50.7)" class="st0" cx="67.9" cy="40.4" rx="2.1" ry="3.4"/>
<path class="st3" d="M43.8,85c-2.9,5.4-6.7,8.4-12,6.3c-1.8-0.7-3-3.5-2.9-8.2c0,0,3.8-2.6,5-0.8c1.2,1.8-0.5,3.3,1.9,2.8
	C38.1,84.6,42.3,82.5,43.8,85z"/>
</svg>
