<?xml version="1.0" encoding="utf-8"?>
<!-- Generator: Adobe Illustrator 25.0.1, SVG Export Plug-In . SVG Version: 6.00 Build 0)  -->
<svg version="1.1" id="Layer_1" xmlns="http://www.w3.org/2000/svg" xmlns:xlink="http://www.w3.org/1999/xlink" x="0px" y="0px"
	 viewBox="0 0 100 100" style="enable-background:new 0 0 100 100;" xml:space="preserve">
<style type="text/css">
	.st0{fill:#FFFFFF;}
</style>
<path class="st0" d="M80.3,41.9c-0.4,0.2-0.9,0.4-1.4,0.4c-1.8,0.2-3.3-0.9-3.4-2.2c-0.1-1.2,1-2.4,2.5-2.7
	c-2.6-4.7-6.2-9.6-9.9-13.4c-0.4,0.4-1,0.7-1.7,0.7C65,24.7,63.9,24,63.8,23c-0.1-0.8,0.4-1.4,1.3-1.8c-2.2-1.9-4.4-3.3-6.5-3.9
	C46.4,14,4.4,26.3,25.5,35.5c3.4,1.5,7.2,3,11.2,4.5c2.9,2,5.3,4.2,5.3,5.7c0,0,0,0,0,0c-8.1,14.5-11.1,25-11.3,31.5
	c-0.1,4.1,1,6.6,2.5,7.2c4.7,1.8,8-0.8,10.5-5.5c4.5-8.5,6.2-23.5,7.2-30c0.1,0,0.1-0.1,0.1-0.1c0.9-1.5,4.3-1.6,8.2-1.2
	c9.3,2.7,17.4,4.6,21.5,4.5C83.7,52.1,83,47.6,80.3,41.9z M24.7,32c-0.6,0.1-1.1-0.5-1.2-1.3c-0.1-0.8,0.3-1.4,0.9-1.5
	c0.6-0.1,1.1,0.5,1.2,1.3C25.7,31.3,25.3,31.9,24.7,32z M32.8,29.5c-1.8,0.2-3.3-0.9-3.5-2.3c-0.1-1.4,1.2-2.7,3-2.8
	c1.8-0.1,3.3,0.9,3.5,2.3C35.9,28.1,34.6,29.4,32.8,29.5z M41,25.6c0.7-0.1,1.3,0.3,1.3,0.9c0,0.5-0.5,1-1.1,1.1
	c-0.7,0.1-1.3-0.3-1.3-0.9C39.8,26.1,40.3,25.6,41,25.6z M43.9,34.1c-0.4,1.2-2,1.9-3.6,1.4c-1.6-0.5-2.6-1.9-2.3-3.2
	c0.4-1.3,2-1.9,3.6-1.4C43.3,31.4,44.3,32.9,43.9,34.1z M48.9,24.2c-1.3,0.1-2.3-0.6-2.4-1.6c-0.1-1,0.9-1.9,2.1-2
	c1.3-0.1,2.3,0.6,2.4,1.6C51.1,23.2,50.1,24.1,48.9,24.2z M52.7,36.2C52.7,36.2,52.7,36.2,52.7,36.2c-1.2-0.4-1.8-1.3-1.6-2.1
	c0.1-0.5,0.5-0.8,1-0.9c0.4-0.1,0.9-0.1,1.3,0c1.1,0.3,1.7,1.3,1.5,2.1C54.8,36,53.8,36.5,52.7,36.2z M56.5,40.2
	c-0.2,0.6-0.9,0.9-1.7,0.7c-0.7-0.2-1.2-0.9-1-1.5c0.2-0.6,0.9-0.9,1.7-0.7C56.2,38.9,56.6,39.5,56.5,40.2z M56.2,27.9
	c-0.7,0.1-1.3-0.3-1.3-0.9c0-0.5,0.5-1,1.1-1.1c0.7-0.1,1.3,0.3,1.3,0.9C57.4,27.4,56.9,27.9,56.2,27.9z M66.9,42.1
	c-0.8,0.6-2.3,0.1-3.3-1.2c-1-1.3-1.2-2.9-0.4-3.5c0.8-0.6,2.3-0.1,3.3,1.2C67.5,39.9,67.7,41.5,66.9,42.1z M67,31.7
	c-0.6,0.5-1.8,0.2-2.5-0.8c-0.7-0.9-0.8-2.1-0.2-2.7c0.7-0.5,1.8-0.1,2.5,0.8C67.6,30,67.7,31.2,67,31.7z M68.5,36.4
	c0.1-0.7,0.6-1.2,1.1-1.1c0.5,0.1,0.9,0.7,0.8,1.3c-0.1,0.7-0.6,1.2-1.1,1.1C68.8,37.7,68.4,37.1,68.5,36.4z M70.8,47.1
	c-0.7,0.1-1.3-0.3-1.3-0.9c-0.1-0.5,0.5-1,1.1-1.1c0.7-0.1,1.3,0.3,1.3,0.9C72,46.6,71.4,47,70.8,47.1z"/>
</svg>
