<?xml version="1.0" encoding="utf-8"?>
<!-- Generator: Adobe Illustrator 25.0.1, SVG Export Plug-In . SVG Version: 6.00 Build 0)  -->
<svg version="1.1" id="Layer_1" xmlns="http://www.w3.org/2000/svg" xmlns:xlink="http://www.w3.org/1999/xlink" x="0px" y="0px"
	 viewBox="0 0 100 100" enable-background="new 0 0 100 100" xml:space="preserve">
<g>
	<g>
		<path fill="#E8C19E" d="M58.17,34.33c-15.14,0-27.41,8.27-27.41,18.47c0,0.01,0,0.01,0,0.02c0,1.21-0.81,2.25-2,2.48
			c-8.28,1.61-14.34,6.75-14.34,12.85c0,7.39,8.89,13.39,19.86,13.39c7.69,0,14.35-2.95,17.65-7.26c1.47-1.93,3.76-3.01,6.18-3.01
			c0.02,0,0.03,0,0.05,0c15.14,0,27.41-8.27,27.41-18.47C85.57,42.6,73.3,34.33,58.17,34.33z"/>
		<polygon fill="#E8C19E" points="14.43,68.14 14.43,58.94 85.57,43.59 85.57,52.8 		"/>
		<g>
			<path fill="#ED4140" d="M34.29,71.24c-10.36,0-18.78-5.52-18.78-12.3c0-5.75,1.78-10.48,10.87-17.63
				c0.53-0.42,1.08-0.86,1.66-1.33c4.58-3.71,10.85-8.78,22.26-12.05c2.41-0.69,4.98-1.04,7.64-1.04c12.9,0,26.55,8.58,26.55,16.7
				c0,9.59-11.81,17.39-26.32,17.39c-2.81,0-5.44,1.28-7.09,3.43C47.85,68.62,41.42,71.24,34.29,71.24z"/>
			<path fill="#E8C19E" d="M57.94,27.98c13.48,0,25.47,8.73,25.47,15.62c0,8.99-11.32,16.3-25.24,16.3l-0.05,0
				c-3.1,0-6.05,1.44-7.9,3.86c-2.98,3.89-9.23,6.4-15.93,6.4c-9.59,0-17.7-5.14-17.7-11.22c0-5.42,1.71-9.9,10.45-16.78
				c0.53-0.42,1.08-0.87,1.67-1.34c4.51-3.65,10.68-8.65,21.88-11.85C52.91,28.31,55.38,27.98,57.94,27.98 M57.94,25.81
				c-2.67,0-5.34,0.34-7.94,1.08c-13.08,3.74-19.57,9.85-24.29,13.57c-8.84,6.96-11.28,11.91-11.28,18.49
				c0,7.39,8.89,13.39,19.86,13.39c7.69,0,14.35-2.95,17.65-7.25c1.47-1.92,3.77-3.01,6.18-3.01c0,0,0,0,0,0l0.05,0
				c15.14,0,27.41-8.27,27.41-18.47C85.57,35.03,71.9,25.81,57.94,25.81L57.94,25.81z"/>
		</g>
		<path fill="#E8C19E" d="M49.61,38.48c-1.74,2.25-16.73-1.45-10.13-5.09c0,0-4.2,1.01-7.36,3.28c-4.75,3.41-5.62,5.93-5.62,5.93
			c8.27-6.32,23.36,1.86,24.05,2.69c0,0,7.97-2.97,4.98-3.83C53.85,40.97,49.61,38.48,49.61,38.48z"/>
		<ellipse fill="#E8C19E" cx="58.17" cy="41.38" rx="9.57" ry="6.45"/>
		<ellipse fill="#FFFFFF" cx="58.17" cy="41.38" rx="5.76" ry="3.88"/>
	</g>
	<path fill="#E8C19E" d="M26.5,61.52c0,0,11.31,5.15,20.38-5.6C46.89,55.92,40.28,71.62,26.5,61.52z"/>
	<path fill="#E8C19E" d="M28.58,55.54c0,0,7.8,3.55,14.06-3.86C42.64,51.67,38.09,62.51,28.58,55.54z"/>
</g>
</svg>
