<?xml version="1.0" encoding="utf-8"?>
<!-- Generator: Adobe Illustrator 25.0.1, SVG Export Plug-In . SVG Version: 6.00 Build 0)  -->
<svg version="1.1" id="Layer_1" xmlns="http://www.w3.org/2000/svg" xmlns:xlink="http://www.w3.org/1999/xlink" x="0px" y="0px"
	 viewBox="0 0 100 100" enable-background="new 0 0 100 100" xml:space="preserve">
<path fill="#836749" d="M46.39,99.18l-43.9-24.7c-0.9-0.5-1.4-1.1-1.5-1.8c-0.1-0.8,0.4-1.7,1.5-2.3l43.9-24.7c2-1.1,5.2-1.1,7.2,0
	l43.9,24.7c2,1.1,2,2.9,0,4.1l-43.9,24.7C51.59,100.28,48.39,100.28,46.39,99.18z"/>
<polygon fill="#836749" points="0.99,68.18 98.99,67.88 98.99,72.38 0.99,72.68 "/>
<path fill="#3A2C18" d="M46.39,94.58l-43.9-24.7c-2-1.1-2-2.9,0-4.1l43.9-24.7c2-1.1,5.2-1.1,7.2,0l43.9,24.7c2,1.1,2,2.9,0,4.1
	l-43.9,24.7C51.59,95.78,48.39,95.78,46.39,94.58z"/>
<path fill="#51402A" d="M46.85,90.99l-38.5-21.7c-1.8-1-1.8-2.6,0-3.6l38.5-21.7c1.8-1,4.6-1,6.4,0l38.5,21.7c1.8,1,1.8,2.6,0,3.6
	l-38.5,21.7C51.55,91.89,48.65,91.89,46.85,90.99z"/>
<path fill="#383129" d="M46.97,46.29c1.89-1.14,7.66,0.87,9.55,2.01c0,0,11.21,6.87,30.86,17.12c4.91,2.56-5.48,6.56-8.47,8.87
	c-4.6,3.54-17.26,7.68-22.94,13.22c-4.36,4.24-15.49-2.2-17.06-3.16c-3.5-2.13-10.83-6.98-13.53-9.17
	c-3.73-3.03-16.74-5.59-11.25-9.77C28.61,54.38,46.97,46.29,46.97,46.29z"/>
<path fill="#6D5754" d="M50.05,49.32v34.9c-0.83,0-1.66-0.16-2.3-0.49L20,68.09c-0.66-0.37-0.98-0.85-0.97-1.32v-3.75l3.83,0.87
	l24.89-14.03C48.4,49.5,49.22,49.32,50.05,49.32z"/>
<path fill="#807161" d="M81.07,66.71v0.06h-0.01C81.06,66.75,81.07,66.73,81.07,66.71z"/>
<path fill="#4A4741" d="M81.07,63.02v3.69c0,0.02-0.01,0.04-0.01,0.06c0.01,0.47-0.3,0.96-0.96,1.32L52.36,83.73
	c-0.62,0.33-1.46,0.49-2.31,0.49v-34.9c0.83,0,1.66,0.18,2.31,0.54l24.88,14.03L81.07,63.02z"/>
<path fill="#807161" d="M47.75,79.98L20,64.35c-1.3-0.72-1.3-1.87,0-2.59l27.74-15.64c1.3-0.72,3.31-0.72,4.61,0L80.1,61.75
	c1.3,0.72,1.3,1.87,0,2.59L52.36,79.98C51.13,80.63,49.04,80.63,47.75,79.98z"/>
<path fill="#6D5754" d="M50.05,47.2v31.41c-0.75,0-1.49-0.14-2.07-0.44L23,64.09c-0.59-0.33-0.88-0.77-0.87-1.19v-3.94l3.45,0.05
	l22.4-11.33C48.56,47.36,49.3,47.2,50.05,47.2z"/>
<path fill="#4A4741" d="M77.97,58.98v3.87c0,0.02-0.01,0.04-0.01,0.05c0.01,0.42-0.27,0.86-0.86,1.19L52.13,78.17
	c-0.56,0.3-1.31,0.44-2.08,0.44V47.2c0.75,0,1.49,0.16,2.08,0.49l22.39,11.04L77.97,58.98z"/>
<path fill="#807161" d="M47.98,74.21L23,60.13c-1.17-0.65-1.17-1.69,0-2.34l24.97-14.08c1.17-0.65,2.98-0.65,4.15,0L77.1,57.8
	c1.17,0.65,1.17,1.69,0,2.34L52.13,74.21C51.02,74.79,49.14,74.79,47.98,74.21z"/>
<path fill="#6D5754" d="M50.05,44.87v27.65c-0.66,0-1.32-0.13-1.82-0.39L26.24,59.75c-0.52-0.29-0.78-0.67-0.77-1.05v-4.23
	l3.03,0.81l19.72-9.97C48.74,45.02,49.39,44.87,50.05,44.87z"/>
<path fill="#4A4741" d="M74.63,54.48v4.17c0,0.02-0.01,0.03-0.01,0.05c0.01,0.37-0.24,0.76-0.76,1.05L51.88,72.14
	c-0.49,0.26-1.16,0.39-1.83,0.39V44.87c0.66,0,1.32,0.14,1.83,0.43l19.71,9.72L74.63,54.48z"/>
<path fill="#807161" d="M48.22,67.88L26.24,55.49c-1.03-0.57-1.03-1.48,0-2.06l21.98-12.39c1.03-0.57,2.63-0.57,3.65,0l21.98,12.39
	c1.03,0.57,1.03,1.48,0,2.06L51.88,67.88C50.91,68.4,49.25,68.4,48.22,67.88z"/>
<path fill="#6D5754" d="M50.05,42.26v23.76c-0.57,0-1.13-0.11-1.57-0.33L29.59,55.04c-0.45-0.25-0.67-0.58-0.66-0.9v-4.49l2.61,1.55
	l16.94-8.57C48.93,42.38,49.49,42.26,50.05,42.26z"/>
<path fill="#4A4741" d="M71.17,49.63v4.47c0,0.01-0.01,0.03-0.01,0.04c0.01,0.32-0.2,0.65-0.65,0.9L51.62,65.69
	c-0.42,0.22-0.99,0.33-1.57,0.33V42.26c0.57,0,1.13,0.12,1.57,0.37l16.94,8.35L71.17,49.63z"/>
<path fill="#807161" d="M48.48,61.18L29.59,50.53c-0.88-0.49-0.88-1.28,0-1.77l18.89-10.65c0.88-0.49,2.26-0.49,3.14,0l18.89,10.65
	c0.88,0.49,0.88,1.28,0,1.77L51.62,61.18C50.79,61.62,49.36,61.62,48.48,61.18z"/>
<path fill="#6D5754" d="M50.05,39.04v20.14c-0.48,0-0.96-0.09-1.33-0.28l-16.02-9.03c-0.38-0.21-0.57-0.49-0.56-0.76V36.22
	l2.21,1.31l14.37,1.82C49.1,39.14,49.57,39.04,50.05,39.04z"/>
<path fill="#4A4741" d="M67.96,36.22v12.85c0,0.01-0.01,0.02-0.01,0.03c0.01,0.27-0.17,0.55-0.55,0.76L51.38,58.9
	c-0.36,0.19-0.84,0.28-1.33,0.28V39.04c0.48,0,0.96,0.1,1.33,0.31l14.36-1.98L67.96,36.22z"/>
<path fill="#807161" d="M48.72,46.01l-16.01-9.03c-0.75-0.42-0.75-1.08,0-1.5l16.01-9.03c0.75-0.42,1.91-0.42,2.66,0l16.01,9.03
	c0.75,0.42,0.75,1.08,0,1.5l-16.01,9.03C50.68,46.39,49.47,46.39,48.72,46.01z"/>
<path fill="#807161" d="M81.07,66.71v0.06h-0.01C81.06,66.75,81.07,66.73,81.07,66.71z"/>
<path fill="#807161" d="M81.07,66.71v0.06h-0.01C81.06,66.75,81.07,66.73,81.07,66.71z"/>
<polygon fill="#5A4F41" points="-9.28,42.68 -16.38,46.73 -30.38,38.76 -23.27,34.71 "/>
<g>
	<polygon fill="#4A4741" points="36.84,43.23 36.84,49 34.32,47.5 34.32,41.73 35.38,42.36 	"/>
	<polygon fill="#171A16" points="36.84,43.23 36.84,48.37 35.38,47.5 35.38,42.36 	"/>
	<polygon fill="#4A4741" points="42.46,46.41 42.46,55.52 38.48,53.15 38.48,44.04 40.15,45.04 	"/>
	<polygon fill="#171A16" points="42.46,46.41 42.46,54.52 40.15,53.15 40.15,45.04 	"/>
	<polygon fill="#4A4741" points="46.81,48.88 46.81,54.65 44.29,53.15 44.29,47.38 45.35,48.01 	"/>
	<polygon fill="#171A16" points="46.81,48.88 46.81,54.02 45.35,53.15 45.35,48.01 	"/>
</g>
<g>
	<polygon fill="#6D5754" points="63.15,43.23 63.15,49 65.67,47.5 65.67,41.73 64.61,42.36 	"/>
	<polygon fill="#171A16" points="63.15,43.23 63.15,48.37 64.61,47.5 64.61,42.36 	"/>
	<polygon fill="#6D5754" points="57.53,46.41 57.53,55.52 61.51,53.15 61.51,44.04 59.84,45.04 	"/>
	<polygon fill="#171A16" points="57.53,46.41 57.53,54.52 59.84,53.15 59.84,45.04 	"/>
	<polygon fill="#6D5754" points="53.18,48.88 53.18,54.65 55.7,53.15 55.7,47.38 54.64,48.01 	"/>
	<polygon fill="#171A16" points="53.18,48.88 53.18,54.02 54.64,53.15 54.64,48.01 	"/>
</g>
<g>
	<polyline fill="#4A4741" points="44.12,58.86 44.12,63.28 42.02,64.44 42.02,68.7 40.05,69.8 40.05,73.76 38.41,74.78 38.41,78.52 
		36.29,79.71 	"/>
	<polygon fill="#6D5754" points="26.49,74.18 34.34,53.28 44.25,58.86 36.29,79.71 	"/>
	<polygon fill="#807161" points="28.41,71.89 36.48,76.26 37.31,75.61 29.32,71.44 	"/>
	<polygon fill="#807161" points="29.36,69.41 37.43,73.78 38.34,73.07 30.28,68.9 	"/>
	<polygon fill="#807161" points="30.3,66.97 38.48,71.34 39.44,70.5 31.33,66.3 	"/>
	<polygon fill="#807161" points="31.37,64.32 39.55,68.69 40.41,67.94 32.32,63.74 	"/>
	<polygon fill="#807161" points="32.34,61.76 40.52,66.13 41.28,65.46 33.16,61.26 	"/>
	<polygon fill="#807161" points="33.17,59.28 41.35,63.65 42.07,62.94 34.14,58.73 	"/>
	<polygon fill="#807161" points="34.14,56.88 42.33,61.26 43.24,60.46 35.31,56.25 	"/>
	<polygon fill="#383129" points="25.97,74.65 35.77,80.18 36.71,78.6 26.91,73.07 	"/>
	<polygon fill="#807161" points="35.37,79.21 43.26,58.3 44.25,58.86 36.29,79.71 	"/>
	<polygon fill="#807161" points="26.43,74.15 34.32,53.24 35.31,53.8 27.36,74.65 	"/>
	<g>
		<polygon fill="#3A2C18" points="27.36,74.65 28.41,71.89 28.41,73.96 		"/>
		<polygon fill="#3A2C18" points="33.16,61.26 32.32,61.78 32.32,63.74 31.33,64.3 31.33,66.3 30.28,67 30.28,68.9 29.36,69.39 
			33.16,59.43 		"/>
		<polygon fill="#3A2C18" points="34.14,58.73 33.26,59.18 34.14,56.87 		"/>
		<polygon fill="#3A2C18" points="29.32,71.44 28.41,71.89 29.32,69.5 		"/>
		<line fill="#3A2C18" x1="33.26" y1="59.18" x2="33.16" y2="59.43"/>
		<polygon fill="#3A2C18" points="29.36,69.39 29.32,69.5 29.32,69.42 		"/>
		<polygon fill="#3A2C18" points="34.14,56.87 34.14,56.87 34.14,56.87 		"/>
		<polygon fill="#3A2C18" points="35.31,56.25 34.14,56.87 35.31,53.8 		"/>
	</g>
</g>
<g>
	<polyline fill="#6D5754" points="55.71,58.86 55.71,63.28 57.81,64.44 57.81,68.7 59.78,69.8 59.78,73.76 61.42,74.78 61.42,78.52 
		63.54,79.71 	"/>
	<polygon fill="#4A4741" points="73.34,74.18 65.49,53.28 55.58,58.86 63.54,79.71 	"/>
	<polygon fill="#807161" points="71.42,71.89 63.35,76.26 62.52,75.61 70.51,71.44 	"/>
	<polygon fill="#807161" points="70.47,69.41 62.4,73.78 61.49,73.07 69.55,68.9 	"/>
	<polygon fill="#807161" points="69.53,66.97 61.35,71.34 60.39,70.5 68.5,66.3 	"/>
	<polygon fill="#807161" points="68.46,64.32 60.28,68.69 59.42,67.94 67.51,63.74 	"/>
	<polygon fill="#807161" points="67.49,61.76 59.31,66.13 58.55,65.46 66.67,61.26 	"/>
	<polygon fill="#807161" points="66.66,59.28 58.48,63.65 57.76,62.94 65.69,58.73 	"/>
	<polygon fill="#807161" points="65.69,56.88 57.5,61.26 56.59,60.46 64.52,56.25 	"/>
	<polygon fill="#383129" points="73.86,74.65 64.06,80.18 63.12,78.6 72.92,73.07 	"/>
	<polygon fill="#807161" points="64.46,79.21 56.57,58.3 55.58,58.86 63.54,79.71 	"/>
	<polygon fill="#807161" points="73.4,74.15 65.51,53.24 64.52,53.8 72.47,74.65 	"/>
	<g>
		<polygon fill="#3A2C18" points="72.47,74.65 71.42,71.89 71.42,73.96 		"/>
		<polygon fill="#3A2C18" points="66.67,61.26 67.51,61.78 67.51,63.74 68.5,64.3 68.5,66.3 69.55,67 69.55,68.9 70.47,69.39 
			66.67,59.43 		"/>
		<polygon fill="#3A2C18" points="65.69,58.73 66.57,59.18 65.69,56.87 		"/>
		<polygon fill="#3A2C18" points="70.51,71.44 71.42,71.89 70.51,69.5 		"/>
		<line fill="#3A2C18" x1="66.57" y1="59.18" x2="66.67" y2="59.43"/>
		<polygon fill="#3A2C18" points="70.47,69.39 70.51,69.5 70.51,69.42 		"/>
		<polygon fill="#3A2C18" points="65.69,56.87 65.69,56.87 65.69,56.87 		"/>
		<polygon fill="#3A2C18" points="64.52,56.25 65.69,56.87 64.52,53.8 		"/>
	</g>
</g>
<path fill="#6D5754" d="M50.05,29.06v14.4c-0.34,0-0.68-0.07-0.95-0.2L37.65,36.8c-0.27-0.15-0.4-0.35-0.4-0.54v-2.72l1.58,0.94
	l10.27-5.19C49.37,29.13,49.71,29.06,50.05,29.06z"/>
<path fill="#4A4741" d="M62.85,33.52v2.71c0,0.01,0,0.02,0,0.02c0,0.19-0.12,0.4-0.4,0.54L51,43.25c-0.26,0.14-0.6,0.2-0.95,0.2
	v-14.4c0.34,0,0.68,0.07,0.95,0.22l10.26,5.06L62.85,33.52z"/>
<path fill="#8C8476" d="M49.1,40.52l-11.44-6.45c-0.54-0.3-0.54-0.77,0-1.07l11.44-6.45c0.54-0.3,1.37-0.3,1.9,0L62.45,33
	c0.54,0.3,0.54,0.77,0,1.07L51,40.52C50.5,40.79,49.63,40.79,49.1,40.52z"/>
</svg>
