<?xml version="1.0" encoding="utf-8"?>
<!-- Generator: Adobe Illustrator 25.0.1, SVG Export Plug-In . SVG Version: 6.00 Build 0)  -->
<svg version="1.1" id="Layer_1" xmlns="http://www.w3.org/2000/svg" xmlns:xlink="http://www.w3.org/1999/xlink" x="0px" y="0px"
	 viewBox="0 0 100 100" enable-background="new 0 0 100 100" xml:space="preserve">
<path fill="#846748" d="M46.43,98.9L2.55,74.21c-0.89-0.5-1.38-1.14-1.48-1.79c-0.13-0.82,0.37-1.66,1.48-2.29l43.88-24.69
	c2-1.13,5.25-1.13,7.25,0l43.88,24.69c2,1.13,2,2.95,0,4.08L53.68,98.9C51.68,100.03,48.43,100.03,46.43,98.9z"/>
<polygon fill="#846748" points="1.07,67.89 99.06,67.64 99.06,72.17 1.07,72.42 "/>
<path fill="#3A2C18" d="M46.43,94.37L2.55,69.68c-2-1.13-2-2.95,0-4.08l43.88-24.69c2-1.13,5.25-1.13,7.25,0L97.56,65.6
	c2,1.13,2,2.95,0,4.08L53.68,94.37C51.68,95.5,48.43,95.5,46.43,94.37z"/>
<path fill="#51402A" d="M46.87,91.13L8.32,69.44c-1.76-0.99-1.76-2.59,0-3.58l38.55-21.69c1.76-0.99,4.61-0.99,6.37,0l38.55,21.69
	c1.76,0.99,1.76,2.59,0,3.58L53.24,91.13C51.48,92.12,48.63,92.12,46.87,91.13z"/>
<polygon fill="#B09B84" points="59.96,80.27 59.96,58.35 28.2,51.12 28.2,62.18 "/>
<path fill="#B09B84" d="M83.01,67.62L60.13,80.16L28.2,62.2l22.88-12.54L83.01,67.62z"/>
<path fill="#2C1F14" d="M40.39,69.3v-5.9c0-0.67,0.72-1.1,1.31-0.77l1.78,0.97c0.63,0.34,1.03,1.01,1.03,1.74v6.23L40.39,69.3z"/>
<polygon fill="#937F66" points="83.01,67.64 83.01,57.45 59.96,69.01 59.96,80.27 "/>
<polygon fill="#19303A" points="59.2,71.96 73.21,54.03 85.04,57.45 "/>
<polygon fill="#19303A" points="39.8,35.82 73.21,54.03 85.04,57.45 51.71,38.82 "/>
<polygon fill="#213C4A" points="73.21,54.03 39.8,35.82 25.87,53.33 59.2,71.96 "/>
<ellipse fill="#3A2C18" cx="17.39" cy="67.64" rx="3" ry="1.97"/>
<path fill="none" stroke="#2C1F14" stroke-miterlimit="10" d="M17.03,67.22c0,0-0.66-1.47,1.62-3.78c2.36-2.41,1.84-2.86,1.87-3.66"
	/>
<path fill="none" stroke="#2C1F14" stroke-miterlimit="10" d="M17.8,66.96c0,0,1.04-1.81-1.97-4.61c-3-2.8-2.24-3.48-2.28-4.45"/>
<ellipse fill="#2C1F14" cx="17.39" cy="67.08" rx="1.02" ry="0.73"/>
<circle fill="#35764D" cx="18.73" cy="54.5" r="4.34"/>
<circle fill="#388A5B" cx="13.63" cy="56.54" r="4.34"/>
<circle fill="#3E9767" cx="20.57" cy="57.9" r="4.34"/>
<path fill="#2C1F14" d="M49.58,67.78l3.87,2.15c0.14,0.08,0.22,0.22,0.22,0.38v3.5c0,0.33-0.36,0.54-0.65,0.37l-3.87-2.28
	c-0.13-0.08-0.21-0.22-0.21-0.37v-3.36C48.94,67.83,49.29,67.62,49.58,67.78z"/>
<path fill="#2C1F14" d="M32.54,58.4l3.87,2.15c0.14,0.08,0.22,0.22,0.22,0.38v3.5c0,0.33-0.36,0.54-0.65,0.37l-3.87-2.28
	c-0.13-0.08-0.21-0.22-0.21-0.37v-3.36C31.9,58.45,32.25,58.24,32.54,58.4z"/>
<polygon fill="#B09B84" points="47.54,44.3 47.54,35.45 42.14,36.71 42.14,41.28 "/>
<polygon fill="#937F66" points="51.73,41.95 51.73,37.35 49.81,36.8 47.54,38.66 47.54,44.3 49.81,41.39 "/>
<path fill="#D2C7BB" d="M47.06,39.5l-4.77-2.62c-0.2-0.11-0.2-0.29,0-0.4l3.81-1.99c0.2-0.11,0.51-0.11,0.71,0l4.77,2.62
	c0.2,0.11,0.2,0.29,0,0.4l-3.81,1.99C47.57,39.61,47.25,39.61,47.06,39.5z"/>
<path fill="#2C1F14" d="M47.03,38.94l-3.72-2.04c-0.15-0.09-0.15-0.22,0-0.31l2.97-1.55c0.15-0.09,0.4-0.09,0.55,0l3.72,2.04
	c0.15,0.09,0.15,0.22,0,0.31l-2.97,1.55C47.43,39.03,47.18,39.03,47.03,38.94z"/>
<ellipse fill="#382C20" cx="31.9" cy="67.22" rx="1.84" ry="1.11"/>
<ellipse fill="#595A5A" cx="37.82" cy="70.99" rx="1.84" ry="1.11"/>
<ellipse fill="#595A5A" cx="34.89" cy="74.21" rx="1.7" ry="1.02"/>
<ellipse fill="#595A5A" cx="30.06" cy="77.31" rx="2.23" ry="1.34"/>
<ellipse fill="#595A5A" cx="40.83" cy="73.98" rx="2.71" ry="1.63"/>
<ellipse fill="#595A5A" cx="35.97" cy="79.77" rx="1.84" ry="1.11"/>
<ellipse fill="#382C20" cx="25.06" cy="64.86" rx="1.84" ry="1.11"/>
<ellipse fill="#382C20" cx="52.27" cy="87.04" rx="1.84" ry="1.11"/>
<ellipse fill="#382C20" cx="41.06" cy="81.93" rx="1.32" ry="0.8"/>
<ellipse fill="#382C20" cx="74.99" cy="75.09" rx="1.84" ry="1.11"/>
<ellipse fill="#382C20" cx="87.55" cy="67.04" rx="1.84" ry="1.11"/>
<ellipse fill="#382C20" cx="23.83" cy="71.96" rx="3.08" ry="1.85"/>
<ellipse fill="#382C20" cx="53.6" cy="82.36" rx="3.08" ry="1.85"/>
<g>
	<path fill="none" stroke="#172D33" stroke-width="0.3916" stroke-miterlimit="10" d="M67.39,52.77c-0.83,1.51-2.72,2.06-4.24,1.23
		c-1.51-0.83-2.06-2.72-1.23-4.24"/>
	<path fill="none" stroke="#172D33" stroke-width="0.3916" stroke-miterlimit="10" d="M61.92,49.75c-0.83,1.51-2.72,2.06-4.24,1.23
		c-1.51-0.83-2.06-2.72-1.23-4.24"/>
	<path fill="none" stroke="#172D33" stroke-width="0.3916" stroke-miterlimit="10" d="M63.15,53.99c-0.83,1.51-2.72,2.06-4.24,1.23
		c-1.51-0.83-2.06-2.72-1.23-4.24"/>
	<path fill="none" stroke="#172D33" stroke-width="0.3916" stroke-miterlimit="10" d="M64.38,58.23c-0.83,1.51-2.72,2.06-4.24,1.23
		c-1.51-0.83-2.06-2.72-1.23-4.24"/>
	<path fill="none" stroke="#172D33" stroke-width="0.3916" stroke-miterlimit="10" d="M56.46,46.74c-0.83,1.51-2.72,2.06-4.24,1.23
		c-1.51-0.83-2.06-2.72-1.23-4.24"/>
	<path fill="none" stroke="#172D33" stroke-width="0.3916" stroke-miterlimit="10" d="M57.69,50.98c-0.83,1.51-2.72,2.06-4.24,1.23
		c-1.51-0.83-2.06-2.72-1.23-4.24"/>
	<path fill="none" stroke="#172D33" stroke-width="0.3916" stroke-miterlimit="10" d="M58.91,55.22c-0.83,1.51-2.72,2.06-4.24,1.23
		c-1.51-0.83-2.06-2.72-1.23-4.24"/>
	<path fill="none" stroke="#172D33" stroke-width="0.3916" stroke-miterlimit="10" d="M60.14,59.45c-0.83,1.51-2.72,2.06-4.24,1.23
		c-1.51-0.83-2.06-2.72-1.23-4.24"/>
	<path fill="none" stroke="#172D33" stroke-width="0.3916" stroke-miterlimit="10" d="M61.37,63.69c-0.83,1.51-2.72,2.06-4.24,1.23
		c-1.51-0.83-2.06-2.72-1.23-4.24"/>
	<path fill="none" stroke="#172D33" stroke-width="0.3916" stroke-miterlimit="10" d="M52.23,47.97c-0.83,1.51-2.72,2.06-4.24,1.23
		c-1.51-0.83-2.06-2.72-1.23-4.24"/>
	<path fill="none" stroke="#172D33" stroke-width="0.3916" stroke-miterlimit="10" d="M53.45,52.21c-0.83,1.51-2.72,2.06-4.24,1.23
		c-1.51-0.83-2.06-2.72-1.23-4.24"/>
	<path fill="none" stroke="#172D33" stroke-width="0.3916" stroke-miterlimit="10" d="M54.68,56.44c-0.83,1.51-2.72,2.06-4.24,1.23
		c-1.51-0.83-2.06-2.72-1.23-4.24"/>
	<path fill="none" stroke="#172D33" stroke-width="0.3916" stroke-miterlimit="10" d="M55.9,60.68c-0.83,1.51-2.72,2.06-4.24,1.23
		c-1.51-0.83-2.06-2.72-1.23-4.24"/>
	<path fill="none" stroke="#172D33" stroke-width="0.3916" stroke-miterlimit="10" d="M57.13,64.92c-0.83,1.51-2.72,2.06-4.24,1.23
		c-1.51-0.83-2.06-2.72-1.23-4.24"/>
	<path fill="none" stroke="#172D33" stroke-width="0.3916" stroke-miterlimit="10" d="M46.76,44.96c-0.83,1.51-2.72,2.06-4.24,1.23
		c-1.51-0.83-2.06-2.72-1.23-4.24"/>
	<path fill="none" stroke="#172D33" stroke-width="0.3916" stroke-miterlimit="10" d="M47.99,49.2c-0.83,1.51-2.72,2.06-4.24,1.23
		c-1.51-0.83-2.06-2.72-1.23-4.24"/>
	<path fill="none" stroke="#172D33" stroke-width="0.3916" stroke-miterlimit="10" d="M49.21,53.43c-0.83,1.51-2.72,2.06-4.24,1.23
		c-1.51-0.83-2.06-2.72-1.23-4.24"/>
	<path fill="none" stroke="#172D33" stroke-width="0.3916" stroke-miterlimit="10" d="M50.44,57.67c-0.83,1.51-2.72,2.06-4.24,1.23
		c-1.51-0.83-2.06-2.72-1.23-4.24"/>
	<path fill="none" stroke="#172D33" stroke-width="0.3916" stroke-miterlimit="10" d="M51.67,61.91c-0.83,1.51-2.72,2.06-4.24,1.23
		c-1.51-0.83-2.06-2.72-1.23-4.24"/>
	<path fill="none" stroke="#172D33" stroke-width="0.3916" stroke-miterlimit="10" d="M42.53,46.18c-0.83,1.51-2.72,2.06-4.24,1.23
		c-1.51-0.83-2.06-2.72-1.23-4.24"/>
	<path fill="none" stroke="#172D33" stroke-width="0.3916" stroke-miterlimit="10" d="M43.75,50.42c-0.83,1.51-2.72,2.06-4.24,1.23
		c-1.51-0.83-2.06-2.72-1.23-4.24"/>
	<path fill="none" stroke="#172D33" stroke-width="0.3916" stroke-miterlimit="10" d="M44.98,54.66c-0.83,1.51-2.72,2.06-4.24,1.23
		c-1.51-0.83-2.06-2.72-1.23-4.24"/>
	<path fill="none" stroke="#172D33" stroke-width="0.3916" stroke-miterlimit="10" d="M46.2,58.89c-0.83,1.51-2.72,2.06-4.24,1.23
		c-1.51-0.83-2.06-2.72-1.23-4.24"/>
	<path fill="none" stroke="#172D33" stroke-width="0.3916" stroke-miterlimit="10" d="M39.52,51.65c-0.83,1.51-2.72,2.06-4.24,1.23
		c-1.51-0.83-2.06-2.72-1.23-4.24"/>
	<path fill="none" stroke="#172D33" stroke-width="0.3916" stroke-miterlimit="10" d="M40.74,55.88c-0.83,1.51-2.72,2.06-4.24,1.23
		c-1.51-0.83-2.06-2.72-1.23-4.24"/>
</g>
</svg>
