<?xml version="1.0" encoding="utf-8"?>
<!-- Generator: Adobe Illustrator 25.0.1, SVG Export Plug-In . SVG Version: 6.00 Build 0)  -->
<svg version="1.1" id="Layer_1" xmlns="http://www.w3.org/2000/svg" xmlns:xlink="http://www.w3.org/1999/xlink" x="0px" y="0px"
	 viewBox="0 0 100 100" enable-background="new 0 0 100 100" xml:space="preserve">
<g>
	<path fill="none" stroke="#CE954F" stroke-width="0.5" stroke-miterlimit="10" d="M188.49,31.97c0,1.84-1.48,3.32-3.32,3.32
		c-1.83,0-3.32-1.48-3.32-3.32"/>
	<path fill="none" stroke="#CE954F" stroke-width="0.5" stroke-miterlimit="10" d="M191.81,35.29c0,1.84-1.48,3.32-3.32,3.32
		c-1.83,0-3.32-1.48-3.32-3.32"/>
	<path fill="none" stroke="#CE954F" stroke-width="0.5" stroke-miterlimit="10" d="M195.13,38.61c0,1.84-1.48,3.32-3.32,3.32
		c-1.83,0-3.32-1.48-3.32-3.32"/>
	<path fill="none" stroke="#CE954F" stroke-width="0.5" stroke-miterlimit="10" d="M198.45,41.93c0,1.84-1.48,3.32-3.32,3.32
		c-1.83,0-3.32-1.48-3.32-3.32"/>
	<path fill="none" stroke="#CE954F" stroke-width="0.5" stroke-miterlimit="10" d="M201.77,45.25c0,1.84-1.48,3.32-3.32,3.32
		c-1.83,0-3.32-1.48-3.32-3.32"/>
	<path fill="none" stroke="#CE954F" stroke-width="0.5" stroke-miterlimit="10" d="M205.09,48.57c0,1.84-1.48,3.32-3.32,3.32
		c-1.83,0-3.32-1.48-3.32-3.32"/>
	<path fill="none" stroke="#CE954F" stroke-width="0.5" stroke-miterlimit="10" d="M208.41,51.89c0,1.84-1.48,3.32-3.32,3.32
		c-1.83,0-3.32-1.48-3.32-3.32"/>
	<path fill="none" stroke="#CE954F" stroke-width="0.5" stroke-miterlimit="10" d="M211.73,55.21c0,1.84-1.48,3.32-3.32,3.32
		c-1.83,0-3.32-1.48-3.32-3.32"/>
	<path fill="none" stroke="#CE954F" stroke-width="0.5" stroke-miterlimit="10" d="M215.05,58.53c0,1.84-1.48,3.32-3.32,3.32
		c-1.83,0-3.32-1.48-3.32-3.32"/>
	<path fill="none" stroke="#CE954F" stroke-width="0.5" stroke-miterlimit="10" d="M218.37,61.85c0,1.84-1.48,3.32-3.32,3.32
		c-1.83,0-3.32-1.48-3.32-3.32"/>
	<path fill="none" stroke="#CE954F" stroke-width="0.5" stroke-miterlimit="10" d="M221.69,65.17c0,1.84-1.48,3.32-3.32,3.32
		c-1.83,0-3.32-1.48-3.32-3.32"/>
	<path fill="none" stroke="#CE954F" stroke-width="0.5" stroke-miterlimit="10" d="M181.85,31.97c0,1.84-1.48,3.32-3.32,3.32
		c-1.83,0-3.32-1.48-3.32-3.32"/>
	<path fill="none" stroke="#CE954F" stroke-width="0.5" stroke-miterlimit="10" d="M185.17,35.29c0,1.84-1.48,3.32-3.32,3.32
		c-1.83,0-3.32-1.48-3.32-3.32"/>
	<path fill="none" stroke="#CE954F" stroke-width="0.5" stroke-miterlimit="10" d="M188.49,38.61c0,1.84-1.48,3.32-3.32,3.32
		c-1.83,0-3.32-1.48-3.32-3.32"/>
	<path fill="none" stroke="#CE954F" stroke-width="0.5" stroke-miterlimit="10" d="M191.81,41.93c0,1.84-1.48,3.32-3.32,3.32
		c-1.83,0-3.32-1.48-3.32-3.32"/>
	<path fill="none" stroke="#CE954F" stroke-width="0.5" stroke-miterlimit="10" d="M195.13,45.25c0,1.84-1.48,3.32-3.32,3.32
		c-1.83,0-3.32-1.48-3.32-3.32"/>
	<path fill="none" stroke="#CE954F" stroke-width="0.5" stroke-miterlimit="10" d="M198.45,48.57c0,1.84-1.48,3.32-3.32,3.32
		c-1.83,0-3.32-1.48-3.32-3.32"/>
	<path fill="none" stroke="#CE954F" stroke-width="0.5" stroke-miterlimit="10" d="M201.77,51.89c0,1.84-1.48,3.32-3.32,3.32
		c-1.83,0-3.32-1.48-3.32-3.32"/>
	<path fill="none" stroke="#CE954F" stroke-width="0.5" stroke-miterlimit="10" d="M205.09,55.21c0,1.84-1.48,3.32-3.32,3.32
		c-1.83,0-3.32-1.48-3.32-3.32"/>
	<path fill="none" stroke="#CE954F" stroke-width="0.5" stroke-miterlimit="10" d="M208.41,58.53c0,1.84-1.48,3.32-3.32,3.32
		c-1.83,0-3.32-1.48-3.32-3.32"/>
	<path fill="none" stroke="#CE954F" stroke-width="0.5" stroke-miterlimit="10" d="M211.73,61.85c0,1.84-1.48,3.32-3.32,3.32
		c-1.83,0-3.32-1.48-3.32-3.32"/>
	<path fill="none" stroke="#CE954F" stroke-width="0.5" stroke-miterlimit="10" d="M215.05,65.17c0,1.84-1.48,3.32-3.32,3.32
		c-1.83,0-3.32-1.48-3.32-3.32"/>
	<path fill="none" stroke="#CE954F" stroke-width="0.5" stroke-miterlimit="10" d="M175.21,31.97c0,1.84-1.48,3.32-3.32,3.32
		c-1.83,0-3.32-1.48-3.32-3.32"/>
	<path fill="none" stroke="#CE954F" stroke-width="0.5" stroke-miterlimit="10" d="M178.53,35.29c0,1.84-1.48,3.32-3.32,3.32
		c-1.83,0-3.32-1.48-3.32-3.32"/>
	<path fill="none" stroke="#CE954F" stroke-width="0.5" stroke-miterlimit="10" d="M181.85,38.61c0,1.84-1.48,3.32-3.32,3.32
		c-1.83,0-3.32-1.48-3.32-3.32"/>
	<path fill="none" stroke="#CE954F" stroke-width="0.5" stroke-miterlimit="10" d="M185.17,41.93c0,1.84-1.48,3.32-3.32,3.32
		c-1.83,0-3.32-1.48-3.32-3.32"/>
	<path fill="none" stroke="#CE954F" stroke-width="0.5" stroke-miterlimit="10" d="M188.49,45.25c0,1.84-1.48,3.32-3.32,3.32
		c-1.83,0-3.32-1.48-3.32-3.32"/>
	<path fill="none" stroke="#CE954F" stroke-width="0.5" stroke-miterlimit="10" d="M191.81,48.57c0,1.84-1.48,3.32-3.32,3.32
		c-1.83,0-3.32-1.48-3.32-3.32"/>
	<path fill="none" stroke="#CE954F" stroke-width="0.5" stroke-miterlimit="10" d="M195.13,51.89c0,1.84-1.48,3.32-3.32,3.32
		c-1.83,0-3.32-1.48-3.32-3.32"/>
	<path fill="none" stroke="#CE954F" stroke-width="0.5" stroke-miterlimit="10" d="M198.45,55.21c0,1.84-1.48,3.32-3.32,3.32
		c-1.83,0-3.32-1.48-3.32-3.32"/>
	<path fill="none" stroke="#CE954F" stroke-width="0.5" stroke-miterlimit="10" d="M201.77,58.53c0,1.84-1.48,3.32-3.32,3.32
		c-1.83,0-3.32-1.48-3.32-3.32"/>
	<path fill="none" stroke="#CE954F" stroke-width="0.5" stroke-miterlimit="10" d="M205.09,61.85c0,1.84-1.48,3.32-3.32,3.32
		c-1.83,0-3.32-1.48-3.32-3.32"/>
	<path fill="none" stroke="#CE954F" stroke-width="0.5" stroke-miterlimit="10" d="M208.41,65.17c0,1.84-1.48,3.32-3.32,3.32
		c-1.83,0-3.32-1.48-3.32-3.32"/>
	<path fill="none" stroke="#CE954F" stroke-width="0.5" stroke-miterlimit="10" d="M168.57,31.97c0,1.84-1.48,3.32-3.32,3.32
		c-1.83,0-3.32-1.48-3.32-3.32"/>
	<path fill="none" stroke="#CE954F" stroke-width="0.5" stroke-miterlimit="10" d="M171.89,35.29c0,1.84-1.48,3.32-3.32,3.32
		c-1.83,0-3.32-1.48-3.32-3.32"/>
	<path fill="none" stroke="#CE954F" stroke-width="0.5" stroke-miterlimit="10" d="M175.21,38.61c0,1.84-1.48,3.32-3.32,3.32
		c-1.83,0-3.32-1.48-3.32-3.32"/>
	<path fill="none" stroke="#CE954F" stroke-width="0.5" stroke-miterlimit="10" d="M178.53,41.93c0,1.84-1.48,3.32-3.32,3.32
		c-1.83,0-3.32-1.48-3.32-3.32"/>
	<path fill="none" stroke="#CE954F" stroke-width="0.5" stroke-miterlimit="10" d="M181.85,45.25c0,1.84-1.48,3.32-3.32,3.32
		c-1.83,0-3.32-1.48-3.32-3.32"/>
	<path fill="none" stroke="#CE954F" stroke-width="0.5" stroke-miterlimit="10" d="M185.17,48.57c0,1.84-1.48,3.32-3.32,3.32
		c-1.83,0-3.32-1.48-3.32-3.32"/>
	<path fill="none" stroke="#CE954F" stroke-width="0.5" stroke-miterlimit="10" d="M188.49,51.89c0,1.84-1.48,3.32-3.32,3.32
		c-1.83,0-3.32-1.48-3.32-3.32"/>
	<path fill="none" stroke="#CE954F" stroke-width="0.5" stroke-miterlimit="10" d="M191.81,55.21c0,1.84-1.48,3.32-3.32,3.32
		c-1.83,0-3.32-1.48-3.32-3.32"/>
	<path fill="none" stroke="#CE954F" stroke-width="0.5" stroke-miterlimit="10" d="M195.13,58.53c0,1.84-1.48,3.32-3.32,3.32
		c-1.83,0-3.32-1.48-3.32-3.32"/>
	<path fill="none" stroke="#CE954F" stroke-width="0.5" stroke-miterlimit="10" d="M198.45,61.85c0,1.84-1.48,3.32-3.32,3.32
		c-1.83,0-3.32-1.48-3.32-3.32"/>
	<path fill="none" stroke="#CE954F" stroke-width="0.5" stroke-miterlimit="10" d="M201.77,65.17c0,1.84-1.48,3.32-3.32,3.32
		c-1.83,0-3.32-1.48-3.32-3.32"/>
	<path fill="none" stroke="#CE954F" stroke-width="0.5" stroke-miterlimit="10" d="M161.93,31.97c0,1.84-1.48,3.32-3.32,3.32
		c-1.83,0-3.32-1.48-3.32-3.32"/>
	<path fill="none" stroke="#CE954F" stroke-width="0.5" stroke-miterlimit="10" d="M165.25,35.29c0,1.84-1.48,3.32-3.32,3.32
		c-1.83,0-3.32-1.48-3.32-3.32"/>
	<path fill="none" stroke="#CE954F" stroke-width="0.5" stroke-miterlimit="10" d="M168.57,38.61c0,1.84-1.48,3.32-3.32,3.32
		c-1.83,0-3.32-1.48-3.32-3.32"/>
	<path fill="none" stroke="#CE954F" stroke-width="0.5" stroke-miterlimit="10" d="M171.89,41.93c0,1.84-1.48,3.32-3.32,3.32
		c-1.83,0-3.32-1.48-3.32-3.32"/>
	<path fill="none" stroke="#CE954F" stroke-width="0.5" stroke-miterlimit="10" d="M175.21,45.25c0,1.84-1.48,3.32-3.32,3.32
		c-1.83,0-3.32-1.48-3.32-3.32"/>
	<path fill="none" stroke="#CE954F" stroke-width="0.5" stroke-miterlimit="10" d="M178.53,48.57c0,1.84-1.48,3.32-3.32,3.32
		c-1.83,0-3.32-1.48-3.32-3.32"/>
	<path fill="none" stroke="#CE954F" stroke-width="0.5" stroke-miterlimit="10" d="M181.85,51.89c0,1.84-1.48,3.32-3.32,3.32
		c-1.83,0-3.32-1.48-3.32-3.32"/>
	<path fill="none" stroke="#CE954F" stroke-width="0.5" stroke-miterlimit="10" d="M185.17,55.21c0,1.84-1.48,3.32-3.32,3.32
		c-1.83,0-3.32-1.48-3.32-3.32"/>
	<path fill="none" stroke="#CE954F" stroke-width="0.5" stroke-miterlimit="10" d="M188.49,58.53c0,1.84-1.48,3.32-3.32,3.32
		c-1.83,0-3.32-1.48-3.32-3.32"/>
	<path fill="none" stroke="#CE954F" stroke-width="0.5" stroke-miterlimit="10" d="M191.81,61.85c0,1.84-1.48,3.32-3.32,3.32
		c-1.83,0-3.32-1.48-3.32-3.32"/>
	<path fill="none" stroke="#CE954F" stroke-width="0.5" stroke-miterlimit="10" d="M195.13,65.17c0,1.84-1.48,3.32-3.32,3.32
		c-1.83,0-3.32-1.48-3.32-3.32"/>
	<path fill="none" stroke="#CE954F" stroke-width="0.5" stroke-miterlimit="10" d="M155.29,31.97c0,1.84-1.48,3.32-3.32,3.32
		c-1.83,0-3.32-1.48-3.32-3.32"/>
	<path fill="none" stroke="#CE954F" stroke-width="0.5" stroke-miterlimit="10" d="M158.61,35.29c0,1.84-1.48,3.32-3.32,3.32
		c-1.83,0-3.32-1.48-3.32-3.32"/>
	<path fill="none" stroke="#CE954F" stroke-width="0.5" stroke-miterlimit="10" d="M161.93,38.61c0,1.84-1.48,3.32-3.32,3.32
		c-1.83,0-3.32-1.48-3.32-3.32"/>
	<path fill="none" stroke="#CE954F" stroke-width="0.5" stroke-miterlimit="10" d="M165.25,41.93c0,1.84-1.48,3.32-3.32,3.32
		c-1.83,0-3.32-1.48-3.32-3.32"/>
	<path fill="none" stroke="#CE954F" stroke-width="0.5" stroke-miterlimit="10" d="M168.57,45.25c0,1.84-1.48,3.32-3.32,3.32
		c-1.83,0-3.32-1.48-3.32-3.32"/>
	<path fill="none" stroke="#CE954F" stroke-width="0.5" stroke-miterlimit="10" d="M171.89,48.57c0,1.84-1.48,3.32-3.32,3.32
		c-1.83,0-3.32-1.48-3.32-3.32"/>
	<path fill="none" stroke="#CE954F" stroke-width="0.5" stroke-miterlimit="10" d="M175.21,51.89c0,1.84-1.48,3.32-3.32,3.32
		c-1.83,0-3.32-1.48-3.32-3.32"/>
	<path fill="none" stroke="#CE954F" stroke-width="0.5" stroke-miterlimit="10" d="M178.53,55.21c0,1.84-1.48,3.32-3.32,3.32
		c-1.83,0-3.32-1.48-3.32-3.32"/>
	<path fill="none" stroke="#CE954F" stroke-width="0.5" stroke-miterlimit="10" d="M181.85,58.53c0,1.84-1.48,3.32-3.32,3.32
		c-1.83,0-3.32-1.48-3.32-3.32"/>
	<path fill="none" stroke="#CE954F" stroke-width="0.5" stroke-miterlimit="10" d="M185.17,61.85c0,1.84-1.48,3.32-3.32,3.32
		c-1.83,0-3.32-1.48-3.32-3.32"/>
	<path fill="none" stroke="#CE954F" stroke-width="0.5" stroke-miterlimit="10" d="M188.49,65.17c0,1.84-1.48,3.32-3.32,3.32
		c-1.83,0-3.32-1.48-3.32-3.32"/>
	<path fill="none" stroke="#CE954F" stroke-width="0.5" stroke-miterlimit="10" d="M148.65,31.97c0,1.84-1.48,3.32-3.32,3.32
		c-1.83,0-3.32-1.48-3.32-3.32"/>
	<path fill="none" stroke="#CE954F" stroke-width="0.5" stroke-miterlimit="10" d="M151.97,35.29c0,1.84-1.48,3.32-3.32,3.32
		c-1.83,0-3.32-1.48-3.32-3.32"/>
	<path fill="none" stroke="#CE954F" stroke-width="0.5" stroke-miterlimit="10" d="M155.29,38.61c0,1.84-1.48,3.32-3.32,3.32
		c-1.83,0-3.32-1.48-3.32-3.32"/>
	<path fill="none" stroke="#CE954F" stroke-width="0.5" stroke-miterlimit="10" d="M158.61,41.93c0,1.84-1.48,3.32-3.32,3.32
		c-1.83,0-3.32-1.48-3.32-3.32"/>
	<path fill="none" stroke="#CE954F" stroke-width="0.5" stroke-miterlimit="10" d="M161.93,45.25c0,1.84-1.48,3.32-3.32,3.32
		c-1.83,0-3.32-1.48-3.32-3.32"/>
	<path fill="none" stroke="#CE954F" stroke-width="0.5" stroke-miterlimit="10" d="M165.25,48.57c0,1.84-1.48,3.32-3.32,3.32
		c-1.83,0-3.32-1.48-3.32-3.32"/>
	<path fill="none" stroke="#CE954F" stroke-width="0.5" stroke-miterlimit="10" d="M168.57,51.89c0,1.84-1.48,3.32-3.32,3.32
		c-1.83,0-3.32-1.48-3.32-3.32"/>
	<path fill="none" stroke="#CE954F" stroke-width="0.5" stroke-miterlimit="10" d="M171.89,55.21c0,1.84-1.48,3.32-3.32,3.32
		c-1.83,0-3.32-1.48-3.32-3.32"/>
	<path fill="none" stroke="#CE954F" stroke-width="0.5" stroke-miterlimit="10" d="M175.21,58.53c0,1.84-1.48,3.32-3.32,3.32
		c-1.83,0-3.32-1.48-3.32-3.32"/>
	<path fill="none" stroke="#CE954F" stroke-width="0.5" stroke-miterlimit="10" d="M178.53,61.85c0,1.84-1.48,3.32-3.32,3.32
		c-1.83,0-3.32-1.48-3.32-3.32"/>
	<path fill="none" stroke="#CE954F" stroke-width="0.5" stroke-miterlimit="10" d="M181.85,65.17c0,1.84-1.48,3.32-3.32,3.32
		c-1.83,0-3.32-1.48-3.32-3.32"/>
	<path fill="none" stroke="#CE954F" stroke-width="0.5" stroke-miterlimit="10" d="M142.01,31.97c0,1.84-1.48,3.32-3.32,3.32
		c-1.83,0-3.32-1.48-3.32-3.32"/>
	<path fill="none" stroke="#CE954F" stroke-width="0.5" stroke-miterlimit="10" d="M145.33,35.29c0,1.84-1.48,3.32-3.32,3.32
		c-1.83,0-3.32-1.48-3.32-3.32"/>
	<path fill="none" stroke="#CE954F" stroke-width="0.5" stroke-miterlimit="10" d="M148.65,38.61c0,1.84-1.48,3.32-3.32,3.32
		c-1.83,0-3.32-1.48-3.32-3.32"/>
	<path fill="none" stroke="#CE954F" stroke-width="0.5" stroke-miterlimit="10" d="M151.97,41.93c0,1.84-1.48,3.32-3.32,3.32
		c-1.83,0-3.32-1.48-3.32-3.32"/>
	<path fill="none" stroke="#CE954F" stroke-width="0.5" stroke-miterlimit="10" d="M155.29,45.25c0,1.84-1.48,3.32-3.32,3.32
		c-1.83,0-3.32-1.48-3.32-3.32"/>
	<path fill="none" stroke="#CE954F" stroke-width="0.5" stroke-miterlimit="10" d="M158.61,48.57c0,1.84-1.48,3.32-3.32,3.32
		c-1.83,0-3.32-1.48-3.32-3.32"/>
	<path fill="none" stroke="#CE954F" stroke-width="0.5" stroke-miterlimit="10" d="M161.93,51.89c0,1.84-1.48,3.32-3.32,3.32
		c-1.83,0-3.32-1.48-3.32-3.32"/>
	<path fill="none" stroke="#CE954F" stroke-width="0.5" stroke-miterlimit="10" d="M165.25,55.21c0,1.84-1.48,3.32-3.32,3.32
		c-1.83,0-3.32-1.48-3.32-3.32"/>
	<path fill="none" stroke="#CE954F" stroke-width="0.5" stroke-miterlimit="10" d="M168.57,58.53c0,1.84-1.48,3.32-3.32,3.32
		c-1.83,0-3.32-1.48-3.32-3.32"/>
	<path fill="none" stroke="#CE954F" stroke-width="0.5" stroke-miterlimit="10" d="M171.89,61.85c0,1.84-1.48,3.32-3.32,3.32
		c-1.83,0-3.32-1.48-3.32-3.32"/>
	<path fill="none" stroke="#CE954F" stroke-width="0.5" stroke-miterlimit="10" d="M175.21,65.17c0,1.84-1.48,3.32-3.32,3.32
		c-1.83,0-3.32-1.48-3.32-3.32"/>
	<path fill="none" stroke="#CE954F" stroke-width="0.5" stroke-miterlimit="10" d="M135.37,31.97c0,1.84-1.48,3.32-3.32,3.32
		c-1.83,0-3.32-1.48-3.32-3.32"/>
	<path fill="none" stroke="#CE954F" stroke-width="0.5" stroke-miterlimit="10" d="M138.69,35.29c0,1.84-1.48,3.32-3.32,3.32
		c-1.83,0-3.32-1.48-3.32-3.32"/>
	<path fill="none" stroke="#CE954F" stroke-width="0.5" stroke-miterlimit="10" d="M142.01,38.61c0,1.84-1.48,3.32-3.32,3.32
		c-1.83,0-3.32-1.48-3.32-3.32"/>
	<path fill="none" stroke="#CE954F" stroke-width="0.5" stroke-miterlimit="10" d="M145.33,41.93c0,1.84-1.48,3.32-3.32,3.32
		c-1.83,0-3.32-1.48-3.32-3.32"/>
	<path fill="none" stroke="#CE954F" stroke-width="0.5" stroke-miterlimit="10" d="M148.65,45.25c0,1.84-1.48,3.32-3.32,3.32
		c-1.83,0-3.32-1.48-3.32-3.32"/>
	<path fill="none" stroke="#CE954F" stroke-width="0.5" stroke-miterlimit="10" d="M151.97,48.57c0,1.84-1.48,3.32-3.32,3.32
		c-1.83,0-3.32-1.48-3.32-3.32"/>
	<path fill="none" stroke="#CE954F" stroke-width="0.5" stroke-miterlimit="10" d="M155.29,51.89c0,1.84-1.48,3.32-3.32,3.32
		c-1.83,0-3.32-1.48-3.32-3.32"/>
	<path fill="none" stroke="#CE954F" stroke-width="0.5" stroke-miterlimit="10" d="M158.61,55.21c0,1.84-1.48,3.32-3.32,3.32
		c-1.83,0-3.32-1.48-3.32-3.32"/>
	<path fill="none" stroke="#CE954F" stroke-width="0.5" stroke-miterlimit="10" d="M161.93,58.53c0,1.84-1.48,3.32-3.32,3.32
		c-1.83,0-3.32-1.48-3.32-3.32"/>
	<path fill="none" stroke="#CE954F" stroke-width="0.5" stroke-miterlimit="10" d="M165.25,61.85c0,1.84-1.48,3.32-3.32,3.32
		c-1.83,0-3.32-1.48-3.32-3.32"/>
	<path fill="none" stroke="#CE954F" stroke-width="0.5" stroke-miterlimit="10" d="M168.57,65.17c0,1.84-1.48,3.32-3.32,3.32
		c-1.83,0-3.32-1.48-3.32-3.32"/>
	<path fill="none" stroke="#CE954F" stroke-width="0.5" stroke-miterlimit="10" d="M128.73,31.97c0,1.84-1.48,3.32-3.32,3.32
		c-1.83,0-3.32-1.48-3.32-3.32"/>
	<path fill="none" stroke="#CE954F" stroke-width="0.5" stroke-miterlimit="10" d="M132.05,35.29c0,1.84-1.48,3.32-3.32,3.32
		c-1.83,0-3.32-1.48-3.32-3.32"/>
	<path fill="none" stroke="#CE954F" stroke-width="0.5" stroke-miterlimit="10" d="M135.37,38.61c0,1.84-1.48,3.32-3.32,3.32
		c-1.83,0-3.32-1.48-3.32-3.32"/>
	<path fill="none" stroke="#CE954F" stroke-width="0.5" stroke-miterlimit="10" d="M138.69,41.93c0,1.84-1.48,3.32-3.32,3.32
		c-1.83,0-3.32-1.48-3.32-3.32"/>
	<path fill="none" stroke="#CE954F" stroke-width="0.5" stroke-miterlimit="10" d="M142.01,45.25c0,1.84-1.48,3.32-3.32,3.32
		c-1.83,0-3.32-1.48-3.32-3.32"/>
	<path fill="none" stroke="#CE954F" stroke-width="0.5" stroke-miterlimit="10" d="M145.33,48.57c0,1.84-1.48,3.32-3.32,3.32
		c-1.83,0-3.32-1.48-3.32-3.32"/>
	<path fill="none" stroke="#CE954F" stroke-width="0.5" stroke-miterlimit="10" d="M148.65,51.89c0,1.84-1.48,3.32-3.32,3.32
		c-1.83,0-3.32-1.48-3.32-3.32"/>
	<path fill="none" stroke="#CE954F" stroke-width="0.5" stroke-miterlimit="10" d="M151.97,55.21c0,1.84-1.48,3.32-3.32,3.32
		c-1.83,0-3.32-1.48-3.32-3.32"/>
	<path fill="none" stroke="#CE954F" stroke-width="0.5" stroke-miterlimit="10" d="M155.29,58.53c0,1.84-1.48,3.32-3.32,3.32
		c-1.83,0-3.32-1.48-3.32-3.32"/>
	<path fill="none" stroke="#CE954F" stroke-width="0.5" stroke-miterlimit="10" d="M158.61,61.85c0,1.84-1.48,3.32-3.32,3.32
		c-1.83,0-3.32-1.48-3.32-3.32"/>
	<path fill="none" stroke="#CE954F" stroke-width="0.5" stroke-miterlimit="10" d="M161.93,65.17c0,1.84-1.48,3.32-3.32,3.32
		c-1.83,0-3.32-1.48-3.32-3.32"/>
	<path fill="none" stroke="#CE954F" stroke-width="0.5" stroke-miterlimit="10" d="M122.09,31.97c0,1.84-1.48,3.32-3.32,3.32
		c-1.83,0-3.32-1.48-3.32-3.32"/>
	<path fill="none" stroke="#CE954F" stroke-width="0.5" stroke-miterlimit="10" d="M125.41,35.29c0,1.84-1.48,3.32-3.32,3.32
		c-1.83,0-3.32-1.48-3.32-3.32"/>
	<path fill="none" stroke="#CE954F" stroke-width="0.5" stroke-miterlimit="10" d="M128.73,38.61c0,1.84-1.48,3.32-3.32,3.32
		c-1.83,0-3.32-1.48-3.32-3.32"/>
	<path fill="none" stroke="#CE954F" stroke-width="0.5" stroke-miterlimit="10" d="M132.05,41.93c0,1.84-1.48,3.32-3.32,3.32
		c-1.83,0-3.32-1.48-3.32-3.32"/>
	<path fill="none" stroke="#CE954F" stroke-width="0.5" stroke-miterlimit="10" d="M135.37,45.25c0,1.84-1.48,3.32-3.32,3.32
		c-1.83,0-3.32-1.48-3.32-3.32"/>
	<path fill="none" stroke="#CE954F" stroke-width="0.5" stroke-miterlimit="10" d="M138.69,48.57c0,1.84-1.48,3.32-3.32,3.32
		c-1.83,0-3.32-1.48-3.32-3.32"/>
	<path fill="none" stroke="#CE954F" stroke-width="0.5" stroke-miterlimit="10" d="M142.01,51.89c0,1.84-1.48,3.32-3.32,3.32
		c-1.83,0-3.32-1.48-3.32-3.32"/>
	<path fill="none" stroke="#CE954F" stroke-width="0.5" stroke-miterlimit="10" d="M145.33,55.21c0,1.84-1.48,3.32-3.32,3.32
		c-1.83,0-3.32-1.48-3.32-3.32"/>
	<path fill="none" stroke="#CE954F" stroke-width="0.5" stroke-miterlimit="10" d="M148.65,58.53c0,1.84-1.48,3.32-3.32,3.32
		c-1.83,0-3.32-1.48-3.32-3.32"/>
	<path fill="none" stroke="#CE954F" stroke-width="0.5" stroke-miterlimit="10" d="M151.97,61.85c0,1.84-1.48,3.32-3.32,3.32
		c-1.83,0-3.32-1.48-3.32-3.32"/>
	<path fill="none" stroke="#CE954F" stroke-width="0.5" stroke-miterlimit="10" d="M155.29,65.17c0,1.84-1.48,3.32-3.32,3.32
		c-1.83,0-3.32-1.48-3.32-3.32"/>
	<path fill="none" stroke="#CE954F" stroke-width="0.5" stroke-miterlimit="10" d="M115.45,31.97c0,1.84-1.48,3.32-3.32,3.32
		c-1.83,0-3.32-1.48-3.32-3.32"/>
	<path fill="none" stroke="#CE954F" stroke-width="0.5" stroke-miterlimit="10" d="M118.77,35.29c0,1.84-1.48,3.32-3.32,3.32
		c-1.83,0-3.32-1.48-3.32-3.32"/>
	<path fill="none" stroke="#CE954F" stroke-width="0.5" stroke-miterlimit="10" d="M122.09,38.61c0,1.84-1.48,3.32-3.32,3.32
		c-1.83,0-3.32-1.48-3.32-3.32"/>
	<path fill="none" stroke="#CE954F" stroke-width="0.5" stroke-miterlimit="10" d="M125.41,41.93c0,1.84-1.48,3.32-3.32,3.32
		c-1.83,0-3.32-1.48-3.32-3.32"/>
	<path fill="none" stroke="#CE954F" stroke-width="0.5" stroke-miterlimit="10" d="M128.73,45.25c0,1.84-1.48,3.32-3.32,3.32
		c-1.83,0-3.32-1.48-3.32-3.32"/>
	<path fill="none" stroke="#CE954F" stroke-width="0.5" stroke-miterlimit="10" d="M132.05,48.57c0,1.84-1.48,3.32-3.32,3.32
		c-1.83,0-3.32-1.48-3.32-3.32"/>
	<path fill="none" stroke="#CE954F" stroke-width="0.5" stroke-miterlimit="10" d="M135.37,51.89c0,1.84-1.48,3.32-3.32,3.32
		c-1.83,0-3.32-1.48-3.32-3.32"/>
	<path fill="none" stroke="#CE954F" stroke-width="0.5" stroke-miterlimit="10" d="M138.69,55.21c0,1.84-1.48,3.32-3.32,3.32
		c-1.83,0-3.32-1.48-3.32-3.32"/>
	<path fill="none" stroke="#CE954F" stroke-width="0.5" stroke-miterlimit="10" d="M142.01,58.53c0,1.84-1.48,3.32-3.32,3.32
		c-1.83,0-3.32-1.48-3.32-3.32"/>
	<path fill="none" stroke="#CE954F" stroke-width="0.5" stroke-miterlimit="10" d="M145.33,61.85c0,1.84-1.48,3.32-3.32,3.32
		c-1.83,0-3.32-1.48-3.32-3.32"/>
	<path fill="none" stroke="#CE954F" stroke-width="0.5" stroke-miterlimit="10" d="M148.65,65.17c0,1.84-1.48,3.32-3.32,3.32
		c-1.83,0-3.32-1.48-3.32-3.32"/>
</g>
<path fill="#846748" d="M46.37,99.05L2.49,74.36c-2-1.13-2-2.95,0-4.08l43.88-24.69c2-1.13,5.25-1.13,7.25,0L97.5,70.28
	c1.11,0.63,1.61,1.47,1.48,2.29c-0.1,0.65-0.59,1.29-1.48,1.79L53.62,99.05C51.62,100.18,48.37,100.18,46.37,99.05z"/>
<polygon fill="#846748" points="98.98,72.57 0.99,72.32 0.99,67.79 98.98,68.04 "/>
<path fill="#3A2C18" d="M46.37,94.52L2.49,69.83c-2-1.13-2-2.95,0-4.08l43.88-24.69c2-1.13,5.25-1.13,7.25,0L97.5,65.75
	c2,1.13,2,2.95,0,4.08L53.62,94.52C51.62,95.65,48.37,95.65,46.37,94.52z"/>
<path fill="#51402A" d="M46.93,90.9L8.39,69.21c-1.76-0.99-1.76-2.59,0-3.58l38.55-21.69c1.76-0.99,4.61-0.99,6.37,0l38.55,21.69
	c1.76,0.99,1.76,2.59,0,3.58L53.3,90.9C51.54,91.89,48.69,91.89,46.93,90.9z"/>
<ellipse fill="#382C20" cx="110.98" cy="83.99" rx="3.08" ry="1.85"/>
<path fill="#665D52" d="M47.73,84.08L20.4,68.69c-1.25-0.7-1.25-1.85,0-2.55l27.33-15.39c1.25-0.7,3.26-0.7,4.52,0l27.33,15.39
	c1.25,0.7,1.25,1.85,0,2.55L52.25,84.08C51.01,84.78,48.98,84.78,47.73,84.08z"/>
<path fill="#2D2A28" d="M47.81,82.57L21.44,67.73c-1.21-0.68-1.21-1.78,0-2.46l26.36-14.84c1.21-0.68,3.15-0.68,4.36,0l26.36,14.84
	c1.21,0.68,1.21,1.78,0,2.46L52.17,82.57C50.97,83.25,49.02,83.25,47.81,82.57z"/>
<path fill="#5B534B" d="M48.82,75.41l-14.08-7.93c-0.65-0.36-0.65-0.95,0-1.31l14.08-7.93c0.65-0.36,1.68-0.36,2.33,0l14.08,7.93
	c0.65,0.36,0.65,0.95,0,1.31l-14.08,7.93C50.51,75.78,49.47,75.78,48.82,75.41z"/>
<rect x="34.26" y="64.94" fill="#5B534B" width="31.46" height="1.89"/>
<path fill="#3F372D" d="M48.82,73.53L34.75,65.6c-0.65-0.36-0.65-0.95,0-1.31l14.08-7.93c0.65-0.36,1.68-0.36,2.33,0l14.08,7.93
	c0.65,0.36,0.65,0.95,0,1.31l-14.08,7.93C50.51,73.89,49.47,73.89,48.82,73.53z"/>
<path fill="#F9A236" d="M48.98,72.35l-12.15-6.84c-0.56-0.31-0.56-0.82,0-1.13l12.15-6.84c0.56-0.31,1.45-0.31,2.01,0l12.15,6.84
	c0.56,0.31,0.56,0.82,0,1.13l-12.15,6.84C50.44,72.66,49.54,72.66,48.98,72.35z"/>
<path fill="#494036" d="M49.75,78.82l-2.92-1.64c-0.13-0.08-0.13-0.2,0-0.27l2.92-1.64c0.13-0.08,0.35-0.08,0.48,0l2.92,1.64
	c0.13,0.08,0.13,0.2,0,0.27l-2.92,1.64C50.1,78.9,49.88,78.9,49.75,78.82z"/>
<path fill="#494036" d="M30.54,68.24l-2.92-1.64c-0.13-0.08-0.13-0.2,0-0.27l2.92-1.64c0.13-0.08,0.35-0.08,0.48,0l2.92,1.64
	c0.13,0.08,0.13,0.2,0,0.27l-2.92,1.64C30.89,68.32,30.68,68.32,30.54,68.24z"/>
<path fill="#494036" d="M68.87,68.24l-2.92-1.64c-0.13-0.08-0.13-0.2,0-0.27l2.92-1.64c0.13-0.08,0.35-0.08,0.48,0l2.92,1.64
	c0.13,0.08,0.13,0.2,0,0.27l-2.92,1.64C69.22,68.32,69,68.32,68.87,68.24z"/>
<path fill="#846748" d="M47.55-24.64l-29.6-16.65c-1.34-0.77-1.34-2,0-2.76l29.6-16.65c1.34-0.76,3.54-0.76,4.89,0l29.6,16.65
	c1.34,0.77,1.34,2,0,2.76l-29.6,16.65C51.08-23.88,48.9-23.88,47.55-24.64z"/>
<polygon fill="#A15352" points="17,-45.58 16.93,-42.67 83,-42.37 83.03,-45.13 "/>
<path fill="#471E1E" d="M46.22-27.51L19.7-42.43c-1.2-0.69-1.2-1.79,0-2.47l26.52-14.92c1.2-0.68,3.18-0.68,4.38,0l26.52,14.92
	c1.2,0.69,1.2,1.79,0,2.47L50.6-27.51C49.38-26.83,47.43-26.83,46.22-27.51z"/>
<path fill="#6E2D2A" d="M38.81-58.33L48-63.45l0.08-0.04l12.16-6.79c1.78-0.76,3.85-0.15,4.94,1.44l17.54,22.79l-0.03-0.01
	c0.63,0.73,0.42,1.64-0.66,2.24l-29.6,16.64c-0.46,0.25-1.04,0.45-1.62,0.52l-18.6-23.59c-1.11-1.6-3.17-2.2-4.94-1.44l-2.24,1.13
	L38.81-58.33z"/>
<path fill="#A15352" d="M50.81-26.67c-0.36,0.05-0.72,0.07-1.09,0.05c-0.68-0.03-1.37-0.17-1.93-0.45l-15.62-19.8
	c-1.16-1.69-3.36-2.33-5.25-1.53l-2.38,1.21l-6.27,3.53l-0.31-0.17c-0.84-0.48-1.17-1.14-0.97-1.75c0.14-0.37,0.46-0.73,0.95-1
	l7.08-3.99l2.24-1.13c1.77-0.76,3.85-0.16,4.94,1.44L50.81-26.67z"/>
<g>
	<path fill="none" stroke="#572323" stroke-width="0.5" stroke-miterlimit="10" d="M58.41-64.41c0.79,1.44,0.28,3.23-1.16,4.02
		c-1.43,0.79-3.23,0.28-4.02-1.16"/>
	<path fill="none" stroke="#572323" stroke-width="0.5" stroke-miterlimit="10" d="M62.43-63.25c0.79,1.44,0.28,3.23-1.16,4.02
		c-1.43,0.79-3.23,0.28-4.02-1.16"/>
	<path fill="none" stroke="#572323" stroke-width="0.5" stroke-miterlimit="10" d="M66.46-62.09c0.79,1.44,0.28,3.23-1.16,4.02
		c-1.43,0.79-3.23,0.28-4.02-1.16"/>
	<path fill="none" stroke="#572323" stroke-width="0.5" stroke-miterlimit="10" d="M53.22-61.54c0.79,1.44,0.28,3.23-1.16,4.02
		c-1.43,0.79-3.23,0.28-4.02-1.16"/>
	<path fill="none" stroke="#572323" stroke-width="0.5" stroke-miterlimit="10" d="M57.25-60.38c0.79,1.44,0.28,3.23-1.16,4.02
		c-1.43,0.79-3.23,0.28-4.02-1.16"/>
	<path fill="none" stroke="#572323" stroke-width="0.5" stroke-miterlimit="10" d="M61.27-59.22c0.79,1.44,0.28,3.23-1.16,4.02
		c-1.43,0.79-3.23,0.28-4.02-1.16"/>
	<path fill="none" stroke="#572323" stroke-width="0.5" stroke-miterlimit="10" d="M65.3-58.06c0.79,1.44,0.28,3.23-1.16,4.02
		c-1.43,0.79-3.23,0.28-4.02-1.16"/>
	<path fill="none" stroke="#572323" stroke-width="0.5" stroke-miterlimit="10" d="M69.32-56.9c0.79,1.44,0.28,3.23-1.16,4.02
		c-1.43,0.79-3.23,0.28-4.02-1.16"/>
	<path fill="none" stroke="#572323" stroke-width="0.5" stroke-miterlimit="10" d="M48.04-58.67c0.79,1.44,0.28,3.23-1.16,4.02
		c-1.43,0.79-3.23,0.28-4.02-1.16"/>
	<path fill="none" stroke="#572323" stroke-width="0.5" stroke-miterlimit="10" d="M52.06-57.51c0.79,1.44,0.28,3.23-1.16,4.02
		c-1.43,0.79-3.23,0.28-4.02-1.16"/>
	<path fill="none" stroke="#572323" stroke-width="0.5" stroke-miterlimit="10" d="M56.09-56.36c0.79,1.44,0.28,3.23-1.16,4.02
		c-1.43,0.79-3.23,0.28-4.02-1.16"/>
	<path fill="none" stroke="#572323" stroke-width="0.5" stroke-miterlimit="10" d="M60.11-55.2c0.79,1.44,0.28,3.23-1.16,4.02
		c-1.43,0.79-3.23,0.28-4.02-1.16"/>
	<path fill="none" stroke="#572323" stroke-width="0.5" stroke-miterlimit="10" d="M64.14-54.04c0.79,1.44,0.28,3.23-1.16,4.02
		c-1.43,0.79-3.23,0.28-4.02-1.16"/>
	<path fill="none" stroke="#572323" stroke-width="0.5" stroke-miterlimit="10" d="M68.16-52.88c0.79,1.44,0.28,3.23-1.16,4.02
		c-1.43,0.79-3.23,0.28-4.02-1.16"/>
	<path fill="none" stroke="#572323" stroke-width="0.5" stroke-miterlimit="10" d="M72.19-51.72c0.79,1.44,0.28,3.23-1.16,4.02
		C69.6-46.9,67.8-47.42,67-48.85"/>
	<path fill="none" stroke="#572323" stroke-width="0.5" stroke-miterlimit="10" d="M76.21-50.56c0.79,1.44,0.28,3.23-1.16,4.02
		c-1.43,0.79-3.23,0.28-4.02-1.16"/>
	<path fill="none" stroke="#572323" stroke-width="0.5" stroke-miterlimit="10" d="M42.85-55.81c0.79,1.44,0.28,3.23-1.16,4.02
		c-1.43,0.79-3.23,0.28-4.02-1.16"/>
	<path fill="none" stroke="#572323" stroke-width="0.5" stroke-miterlimit="10" d="M46.88-54.65c0.79,1.44,0.28,3.23-1.16,4.02
		c-1.43,0.79-3.23,0.28-4.02-1.16"/>
	<path fill="none" stroke="#572323" stroke-width="0.5" stroke-miterlimit="10" d="M50.9-53.49c0.79,1.44,0.28,3.23-1.16,4.02
		c-1.43,0.79-3.23,0.28-4.02-1.16"/>
	<path fill="none" stroke="#572323" stroke-width="0.5" stroke-miterlimit="10" d="M54.93-52.33c0.79,1.44,0.28,3.23-1.16,4.02
		c-1.43,0.79-3.23,0.28-4.02-1.16"/>
	<path fill="none" stroke="#572323" stroke-width="0.5" stroke-miterlimit="10" d="M58.95-51.17c0.79,1.44,0.28,3.23-1.16,4.02
		c-1.43,0.79-3.23,0.28-4.02-1.16"/>
	<path fill="none" stroke="#572323" stroke-width="0.5" stroke-miterlimit="10" d="M62.98-50.01c0.79,1.44,0.28,3.23-1.16,4.02
		c-1.43,0.79-3.23,0.28-4.02-1.16"/>
	<path fill="none" stroke="#572323" stroke-width="0.5" stroke-miterlimit="10" d="M67-48.85c0.79,1.44,0.28,3.23-1.16,4.02
		c-1.43,0.79-3.23,0.28-4.02-1.16"/>
	<path fill="none" stroke="#572323" stroke-width="0.5" stroke-miterlimit="10" d="M71.03-47.69c0.79,1.44,0.28,3.23-1.16,4.02
		c-1.43,0.79-3.23,0.28-4.02-1.16"/>
	<path fill="none" stroke="#572323" stroke-width="0.5" stroke-miterlimit="10" d="M75.05-46.54c0.79,1.44,0.28,3.23-1.16,4.02
		c-1.43,0.79-3.23,0.28-4.02-1.16"/>
	<path fill="none" stroke="#572323" stroke-width="0.5" stroke-miterlimit="10" d="M45.72-50.62c0.79,1.44,0.28,3.23-1.16,4.02
		c-1.43,0.79-3.23,0.28-4.02-1.16"/>
	<path fill="none" stroke="#572323" stroke-width="0.5" stroke-miterlimit="10" d="M49.74-49.47c0.79,1.44,0.28,3.23-1.16,4.02
		c-1.43,0.79-3.23,0.28-4.02-1.16"/>
	<path fill="none" stroke="#572323" stroke-width="0.5" stroke-miterlimit="10" d="M53.77-48.31c0.79,1.44,0.28,3.23-1.16,4.02
		c-1.43,0.79-3.23,0.28-4.02-1.16"/>
	<path fill="none" stroke="#572323" stroke-width="0.5" stroke-miterlimit="10" d="M57.79-47.15c0.79,1.44,0.28,3.23-1.16,4.02
		c-1.43,0.79-3.23,0.28-4.02-1.16"/>
	<path fill="none" stroke="#572323" stroke-width="0.5" stroke-miterlimit="10" d="M61.82-45.99c0.79,1.44,0.28,3.23-1.16,4.02
		c-1.43,0.79-3.23,0.28-4.02-1.16"/>
	<path fill="none" stroke="#572323" stroke-width="0.5" stroke-miterlimit="10" d="M65.84-44.83c0.79,1.44,0.28,3.23-1.16,4.02
		c-1.43,0.79-3.23,0.28-4.02-1.16"/>
	<path fill="none" stroke="#572323" stroke-width="0.5" stroke-miterlimit="10" d="M69.87-43.67c0.79,1.44,0.28,3.23-1.16,4.02
		c-1.43,0.79-3.23,0.28-4.02-1.16"/>
	<path fill="none" stroke="#572323" stroke-width="0.5" stroke-miterlimit="10" d="M48.59-45.44c0.79,1.44,0.28,3.23-1.16,4.02
		c-1.43,0.79-3.23,0.28-4.02-1.16"/>
	<path fill="none" stroke="#572323" stroke-width="0.5" stroke-miterlimit="10" d="M52.61-44.28c0.79,1.44,0.28,3.23-1.16,4.02
		c-1.43,0.79-3.23,0.28-4.02-1.16"/>
	<path fill="none" stroke="#572323" stroke-width="0.5" stroke-miterlimit="10" d="M56.64-43.12c0.79,1.44,0.28,3.23-1.16,4.02
		c-1.43,0.79-3.23,0.28-4.02-1.16"/>
	<path fill="none" stroke="#572323" stroke-width="0.5" stroke-miterlimit="10" d="M60.66-41.96c0.79,1.44,0.28,3.23-1.16,4.02
		c-1.43,0.79-3.23,0.28-4.02-1.16"/>
	<path fill="none" stroke="#572323" stroke-width="0.5" stroke-miterlimit="10" d="M64.69-40.8c0.79,1.44,0.28,3.23-1.16,4.02
		c-1.43,0.79-3.23,0.28-4.02-1.16"/>
	<path fill="none" stroke="#572323" stroke-width="0.5" stroke-miterlimit="10" d="M51.45-40.26c0.79,1.44,0.28,3.23-1.16,4.02
		c-1.43,0.79-3.23,0.28-4.02-1.16"/>
	<path fill="none" stroke="#572323" stroke-width="0.5" stroke-miterlimit="10" d="M55.48-39.1c0.79,1.44,0.28,3.23-1.16,4.02
		c-1.43,0.79-3.23,0.28-4.02-1.16"/>
	<path fill="none" stroke="#572323" stroke-width="0.5" stroke-miterlimit="10" d="M59.5-37.94c0.79,1.44,0.28,3.23-1.16,4.02
		c-1.43,0.79-3.23,0.28-4.02-1.16"/>
</g>
<path fill="#846748" d="M83.01-90.54c-0.09-0.41-0.41-0.81-0.97-1.13l-1.96-1.1l-27.64-15.55c-1.35-0.76-3.54-0.76-4.89,0
	L20.64-93.18l-2.68,1.51c-0.68,0.38-1.02,0.88-1.01,1.39c0,0.5,0.33,0.99,1.01,1.37l29.59,16.65c1.35,0.76,3.53,0.76,4.89,0
	l29.6-16.65c0.54-0.3,0.85-0.68,0.96-1.08v-0.02C83.05-90.18,83.06-90.36,83.01-90.54z M50.78-75.13c-1.22,0.68-3.18,0.68-4.38,0
	L19.87-90.05c-0.12-0.07-0.22-0.14-0.32-0.22c-0.87-0.68-0.76-1.65,0.32-2.25l1.16-0.65l25.37-14.28c1.2-0.68,3.17-0.68,4.38,0
	l26.04,14.66l0.48,0.27c1.2,0.69,1.2,1.79,0,2.47l-0.06,0.03L50.78-75.13z"/>
<path fill="#A15352" d="M20.64-93.18l0.39,0.01l-1.16,0.65c-1.08,0.6-1.19,1.57-0.32,2.25l-2.6-0.01h-0.02L17-93.2L20.64-93.18z"/>
<path fill="#A15352" d="M83.03-92.75l-0.02,2.21L83-90.01v0.02l-5.76-0.03l0.06-0.03c1.2-0.68,1.2-1.78,0-2.47l-0.48-0.27l3.26,0.02
	L83.03-92.75z"/>
<path fill="#6E2D2A" d="M38.81-105.95l9.19-5.13l0.08-0.04l12.16-6.79c1.78-0.76,3.85-0.15,4.94,1.44l17.54,22.79l-0.03-0.01
	c0.63,0.73,0.42,1.64-0.66,2.24l-29.6,16.64c-0.46,0.25-1.04,0.45-1.62,0.52l-18.6-23.59c-1.11-1.6-3.17-2.2-4.94-1.44l-2.24,1.13
	L38.81-105.95z"/>
<path fill="#A15352" d="M50.81-74.29c-0.36,0.05-0.72,0.07-1.09,0.05c-0.68-0.03-1.37-0.17-1.93-0.45l-15.62-19.8
	c-1.16-1.69-3.36-2.33-5.25-1.53l-2.38,1.21l-6.27,3.53l-0.31-0.17c-0.84-0.48-1.17-1.14-0.97-1.75c0.14-0.37,0.46-0.73,0.95-1
	l7.08-3.99l2.24-1.13c1.77-0.76,3.85-0.16,4.94,1.44L50.81-74.29z"/>
<g>
	<path fill="none" stroke="#572323" stroke-width="0.5" stroke-miterlimit="10" d="M58.41-112.03c0.79,1.44,0.28,3.23-1.16,4.02
		c-1.43,0.79-3.23,0.28-4.02-1.16"/>
	<path fill="none" stroke="#572323" stroke-width="0.5" stroke-miterlimit="10" d="M62.43-110.87c0.79,1.44,0.28,3.23-1.16,4.02
		c-1.43,0.79-3.23,0.28-4.02-1.16"/>
	<path fill="none" stroke="#572323" stroke-width="0.5" stroke-miterlimit="10" d="M66.46-109.71c0.79,1.44,0.28,3.23-1.16,4.02
		c-1.43,0.79-3.23,0.28-4.02-1.16"/>
	<path fill="none" stroke="#572323" stroke-width="0.5" stroke-miterlimit="10" d="M53.22-109.16c0.79,1.44,0.28,3.23-1.16,4.02
		c-1.43,0.79-3.23,0.28-4.02-1.16"/>
	<path fill="none" stroke="#572323" stroke-width="0.5" stroke-miterlimit="10" d="M57.25-108c0.79,1.44,0.28,3.23-1.16,4.02
		c-1.43,0.79-3.23,0.28-4.02-1.16"/>
	<path fill="none" stroke="#572323" stroke-width="0.5" stroke-miterlimit="10" d="M61.27-106.84c0.79,1.44,0.28,3.23-1.16,4.02
		c-1.43,0.79-3.23,0.28-4.02-1.16"/>
	<path fill="none" stroke="#572323" stroke-width="0.5" stroke-miterlimit="10" d="M65.3-105.68c0.79,1.44,0.28,3.23-1.16,4.02
		c-1.43,0.79-3.23,0.28-4.02-1.16"/>
	<path fill="none" stroke="#572323" stroke-width="0.5" stroke-miterlimit="10" d="M69.32-104.53c0.79,1.44,0.28,3.23-1.16,4.02
		c-1.43,0.79-3.23,0.28-4.02-1.16"/>
	<path fill="none" stroke="#572323" stroke-width="0.5" stroke-miterlimit="10" d="M48.04-106.3c0.79,1.44,0.28,3.23-1.16,4.02
		c-1.43,0.79-3.23,0.28-4.02-1.16"/>
	<path fill="none" stroke="#572323" stroke-width="0.5" stroke-miterlimit="10" d="M52.06-105.14c0.79,1.44,0.28,3.23-1.16,4.02
		c-1.43,0.79-3.23,0.28-4.02-1.16"/>
	<path fill="none" stroke="#572323" stroke-width="0.5" stroke-miterlimit="10" d="M56.09-103.98c0.79,1.44,0.28,3.23-1.16,4.02
		c-1.43,0.79-3.23,0.28-4.02-1.16"/>
	<path fill="none" stroke="#572323" stroke-width="0.5" stroke-miterlimit="10" d="M60.11-102.82c0.79,1.44,0.28,3.23-1.16,4.02
		c-1.43,0.79-3.23,0.28-4.02-1.16"/>
	<path fill="none" stroke="#572323" stroke-width="0.5" stroke-miterlimit="10" d="M64.14-101.66c0.79,1.44,0.28,3.23-1.16,4.02
		c-1.43,0.79-3.23,0.28-4.02-1.16"/>
	<path fill="none" stroke="#572323" stroke-width="0.5" stroke-miterlimit="10" d="M68.16-100.5c0.79,1.44,0.28,3.23-1.16,4.02
		c-1.43,0.79-3.23,0.28-4.02-1.16"/>
	<path fill="none" stroke="#572323" stroke-width="0.5" stroke-miterlimit="10" d="M72.19-99.34c0.79,1.44,0.28,3.23-1.16,4.02
		c-1.43,0.79-3.23,0.28-4.02-1.16"/>
	<path fill="none" stroke="#572323" stroke-width="0.5" stroke-miterlimit="10" d="M76.21-98.18c0.79,1.44,0.28,3.23-1.16,4.02
		c-1.43,0.79-3.23,0.28-4.02-1.16"/>
	<path fill="none" stroke="#572323" stroke-width="0.5" stroke-miterlimit="10" d="M42.85-103.43c0.79,1.44,0.28,3.23-1.16,4.02
		c-1.43,0.79-3.23,0.28-4.02-1.16"/>
	<path fill="none" stroke="#572323" stroke-width="0.5" stroke-miterlimit="10" d="M46.88-102.27c0.79,1.44,0.28,3.23-1.16,4.02
		c-1.43,0.79-3.23,0.28-4.02-1.16"/>
	<path fill="none" stroke="#572323" stroke-width="0.5" stroke-miterlimit="10" d="M50.9-101.11c0.79,1.44,0.28,3.23-1.16,4.02
		c-1.43,0.79-3.23,0.28-4.02-1.16"/>
	<path fill="none" stroke="#572323" stroke-width="0.5" stroke-miterlimit="10" d="M54.93-99.95c0.79,1.44,0.28,3.23-1.16,4.02
		c-1.43,0.79-3.23,0.28-4.02-1.16"/>
	<path fill="none" stroke="#572323" stroke-width="0.5" stroke-miterlimit="10" d="M58.95-98.79c0.79,1.44,0.28,3.23-1.16,4.02
		c-1.43,0.79-3.23,0.28-4.02-1.16"/>
	<path fill="none" stroke="#572323" stroke-width="0.5" stroke-miterlimit="10" d="M62.98-97.63c0.79,1.44,0.28,3.23-1.16,4.02
		c-1.43,0.79-3.23,0.28-4.02-1.16"/>
	<path fill="none" stroke="#572323" stroke-width="0.5" stroke-miterlimit="10" d="M67-96.48c0.79,1.44,0.28,3.23-1.16,4.02
		c-1.43,0.79-3.23,0.28-4.02-1.16"/>
	<path fill="none" stroke="#572323" stroke-width="0.5" stroke-miterlimit="10" d="M71.03-95.32c0.79,1.44,0.28,3.23-1.16,4.02
		c-1.43,0.79-3.23,0.28-4.02-1.16"/>
	<path fill="none" stroke="#572323" stroke-width="0.5" stroke-miterlimit="10" d="M75.05-94.16c0.79,1.44,0.28,3.23-1.16,4.02
		c-1.43,0.79-3.23,0.28-4.02-1.16"/>
	<path fill="none" stroke="#572323" stroke-width="0.5" stroke-miterlimit="10" d="M45.72-98.25c0.79,1.44,0.28,3.23-1.16,4.02
		c-1.43,0.79-3.23,0.28-4.02-1.16"/>
	<path fill="none" stroke="#572323" stroke-width="0.5" stroke-miterlimit="10" d="M49.74-97.09c0.79,1.44,0.28,3.23-1.16,4.02
		c-1.43,0.79-3.23,0.28-4.02-1.16"/>
	<path fill="none" stroke="#572323" stroke-width="0.5" stroke-miterlimit="10" d="M53.77-95.93c0.79,1.44,0.28,3.23-1.16,4.02
		c-1.43,0.79-3.23,0.28-4.02-1.16"/>
	<path fill="none" stroke="#572323" stroke-width="0.5" stroke-miterlimit="10" d="M57.79-94.77c0.79,1.44,0.28,3.23-1.16,4.02
		c-1.43,0.79-3.23,0.28-4.02-1.16"/>
	<path fill="none" stroke="#572323" stroke-width="0.5" stroke-miterlimit="10" d="M61.82-93.61c0.79,1.44,0.28,3.23-1.16,4.02
		c-1.43,0.79-3.23,0.28-4.02-1.16"/>
	<path fill="none" stroke="#572323" stroke-width="0.5" stroke-miterlimit="10" d="M65.84-92.45c0.79,1.44,0.28,3.23-1.16,4.02
		c-1.43,0.79-3.23,0.28-4.02-1.16"/>
	<path fill="none" stroke="#572323" stroke-width="0.5" stroke-miterlimit="10" d="M69.87-91.29c0.79,1.44,0.28,3.23-1.16,4.02
		c-1.43,0.79-3.23,0.28-4.02-1.16"/>
	<path fill="none" stroke="#572323" stroke-width="0.5" stroke-miterlimit="10" d="M48.59-93.06c0.79,1.44,0.28,3.23-1.16,4.02
		C46-88.25,44.2-88.76,43.4-90.2"/>
	<path fill="none" stroke="#572323" stroke-width="0.5" stroke-miterlimit="10" d="M52.61-91.9c0.79,1.44,0.28,3.23-1.16,4.02
		c-1.43,0.79-3.23,0.28-4.02-1.16"/>
	<path fill="none" stroke="#572323" stroke-width="0.5" stroke-miterlimit="10" d="M56.64-90.74c0.79,1.44,0.28,3.23-1.16,4.02
		c-1.43,0.79-3.23,0.28-4.02-1.16"/>
	<path fill="none" stroke="#572323" stroke-width="0.5" stroke-miterlimit="10" d="M60.66-89.58c0.79,1.44,0.28,3.23-1.16,4.02
		c-1.43,0.79-3.23,0.28-4.02-1.16"/>
	<path fill="none" stroke="#572323" stroke-width="0.5" stroke-miterlimit="10" d="M64.69-88.43c0.79,1.44,0.28,3.23-1.16,4.02
		c-1.43,0.79-3.23,0.28-4.02-1.16"/>
	<path fill="none" stroke="#572323" stroke-width="0.5" stroke-miterlimit="10" d="M51.45-87.88c0.79,1.44,0.28,3.23-1.16,4.02
		c-1.43,0.79-3.23,0.28-4.02-1.16"/>
	<path fill="none" stroke="#572323" stroke-width="0.5" stroke-miterlimit="10" d="M55.48-86.72c0.79,1.44,0.28,3.23-1.16,4.02
		c-1.43,0.79-3.23,0.28-4.02-1.16"/>
	<path fill="none" stroke="#572323" stroke-width="0.5" stroke-miterlimit="10" d="M59.5-85.56c0.79,1.44,0.28,3.23-1.16,4.02
		c-1.43,0.79-3.23,0.28-4.02-1.16"/>
</g>
<g>
	<polygon fill="#78593E" points="28.88,66.48 28.88,57.67 30.76,58.72 30.76,67.55 	"/>
	<polygon fill="#6C4F34" points="32.64,66.48 32.64,57.67 30.76,58.72 30.76,67.55 	"/>
</g>
<g>
	<polygon fill="#78593E" points="48.12,77.18 48.12,68.36 50,69.41 50,78.24 	"/>
	<polygon fill="#6C4F34" points="51.88,77.18 51.88,68.36 50,69.41 50,78.24 	"/>
</g>
<g>
	<polygon fill="#78593E" points="67.23,66.66 67.23,57.85 69.11,58.9 69.11,67.73 	"/>
	<polygon fill="#6C4F34" points="70.99,66.66 70.99,57.85 69.11,58.9 69.11,67.73 	"/>
</g>
<polygon fill="#6C4F34" points="27.17,54.74 48.83,66.42 50.08,69.1 26.8,56.64 26.49,54.83 "/>
<polygon fill="#60442D" points="31.02,51.76 45.18,59.39 46,61.14 30.78,53 30.58,51.82 "/>
<polygon fill="#6E5037" points="29.51,52.02 43.67,59.66 44.49,61.41 29.27,53.26 29.07,52.08 "/>
<path fill="#846748" d="M74.28,56.23c-0.07-0.3-0.3-0.6-0.71-0.83l-1.44-0.81L51.79,43.15c-0.99-0.56-2.6-0.56-3.6,0L28.4,54.29
	l-1.97,1.11c-0.5,0.28-0.75,0.65-0.74,1.02c0,0.37,0.24,0.73,0.74,1.01l21.77,12.25c0.99,0.56,2.6,0.56,3.6,0l21.77-12.25
	c0.4-0.22,0.63-0.5,0.71-0.79v-0.01C74.31,56.5,74.32,56.37,74.28,56.23z M50.57,67.57c-0.9,0.5-2.34,0.5-3.22,0L27.83,56.59
	c-0.09-0.05-0.16-0.1-0.24-0.16c-0.64-0.5-0.56-1.21,0.24-1.66l0.85-0.48l18.66-10.5c0.88-0.5,2.33-0.5,3.22,0l19.16,10.78l0.35,0.2
	c0.88,0.51,0.88,1.32,0,1.82l-0.04,0.02L50.57,67.57z"/>
<path fill="#846748" d="M74.28,56.23c-0.07-0.3-0.3-0.6-0.71-0.83l-1.44-0.81L51.79,43.15c-0.99-0.56-2.6-0.56-3.6,0L28.4,54.29
	l-1.97,1.11c-0.5,0.28-0.75,0.65-0.74,1.02c0,0.37,0.24,0.73,0.74,1.01l21.77,12.25c0.99,0.56,2.6,0.56,3.6,0l21.77-12.25
	c0.4-0.22,0.63-0.5,0.71-0.79v-0.01C74.31,56.5,74.32,56.37,74.28,56.23z M50.57,67.57c-0.9,0.5-2.34,0.5-3.22,0L27.83,56.59
	c-0.09-0.05-0.16-0.1-0.24-0.16c-0.64-0.5-0.56-1.21,0.24-1.66l0.85-0.48l18.66-10.5c0.88-0.5,2.33-0.5,3.22,0l19.16,10.78l0.35,0.2
	c0.88,0.51,0.88,1.32,0,1.82l-0.04,0.02L50.57,67.57z"/>
<path fill="#846748" d="M26.83,54.29l0.12,0.01l-0.36,0.48c-0.34,0.44-0.37,1.15-0.1,1.66l-0.82-0.01h-0.01l0.02-2.15L26.83,54.29z"
	/>
<path fill="#846748" d="M74.3,54.61l-0.01,1.63l-0.01,0.39v0.01l-4.24-0.02l0.04-0.02c0.88-0.5,0.88-1.31,0-1.82l-0.35-0.2l2.4,0.01
	L74.3,54.61z"/>
<path fill="#213C4A" d="M41.77,44.9l6.76-3.77l0.06-0.03l8.94-5c1.31-0.56,2.83-0.11,3.64,1.06l12.9,16.76l-0.02-0.01
	c0.46,0.54,0.31,1.21-0.48,1.65L51.79,67.81c-0.34,0.19-0.76,0.33-1.2,0.38L36.91,50.84c-0.81-1.17-2.33-1.62-3.64-1.06l-1.65,0.83
	L41.77,44.9z"/>
<path fill="#846748" d="M50.59,68.19c-0.26,0.04-0.53,0.05-0.8,0.04c-0.5-0.02-1.01-0.13-1.42-0.33L36.88,53.33
	c-0.85-1.24-2.47-1.71-3.86-1.13l-1.75,0.89l-4.61,2.6l-0.23-0.13c-0.62-0.35-0.86-0.84-0.71-1.29c0.1-0.27,0.34-0.54,0.7-0.74
	l5.21-2.94l1.65-0.83c1.3-0.56,2.83-0.12,3.63,1.06L50.59,68.19z"/>
<g>
	<path fill="none" stroke="#172D33" stroke-width="0.3916" stroke-miterlimit="10" d="M52.37,42.54"/>
	<path fill="none" stroke="#172D33" stroke-width="0.3916" stroke-miterlimit="10" d="M59.14,41.28c0.58,1.06,0.2,2.38-0.85,2.96
		c-1.05,0.58-2.38,0.2-2.96-0.85"/>
	<path fill="none" stroke="#172D33" stroke-width="0.3916" stroke-miterlimit="10" d="M62.1,42.14c0.58,1.06,0.2,2.38-0.85,2.96
		c-1.05,0.58-2.38,0.2-2.96-0.85"/>
	<path fill="none" stroke="#172D33" stroke-width="0.3916" stroke-miterlimit="10" d="M58.29,44.24c0.58,1.06,0.2,2.38-0.85,2.96
		c-1.05,0.58-2.38,0.2-2.96-0.85"/>
	<path fill="none" stroke="#172D33" stroke-width="0.3916" stroke-miterlimit="10" d="M61.25,45.1c0.58,1.06,0.2,2.38-0.85,2.96
		c-1.05,0.58-2.38,0.2-2.96-0.85"/>
	<path fill="none" stroke="#172D33" stroke-width="0.3916" stroke-miterlimit="10" d="M64.21,45.95c0.58,1.06,0.2,2.38-0.85,2.96
		c-1.05,0.58-2.38,0.2-2.96-0.85"/>
	<path fill="none" stroke="#172D33" stroke-width="0.3916" stroke-miterlimit="10" d="M54.48,46.35c0.58,1.06,0.2,2.38-0.85,2.96
		c-1.05,0.58-2.38,0.2-2.96-0.85"/>
	<path fill="none" stroke="#172D33" stroke-width="0.3916" stroke-miterlimit="10" d="M57.44,47.2c0.58,1.06,0.2,2.38-0.85,2.96
		c-1.05,0.58-2.38,0.2-2.96-0.85"/>
	<path fill="none" stroke="#172D33" stroke-width="0.3916" stroke-miterlimit="10" d="M60.4,48.06c0.58,1.06,0.2,2.38-0.85,2.96
		c-1.05,0.58-2.38,0.2-2.96-0.85"/>
	<path fill="none" stroke="#172D33" stroke-width="0.3916" stroke-miterlimit="10" d="M63.36,48.91c0.58,1.06,0.2,2.38-0.85,2.96
		c-1.05,0.58-2.38,0.2-2.96-0.85"/>
	<path fill="none" stroke="#172D33" stroke-width="0.3916" stroke-miterlimit="10" d="M66.32,49.76c0.58,1.06,0.2,2.38-0.85,2.96
		c-1.05,0.58-2.38,0.2-2.96-0.85"/>
	<path fill="none" stroke="#172D33" stroke-width="0.3916" stroke-miterlimit="10" d="M69.28,50.62c0.58,1.06,0.2,2.38-0.85,2.96
		c-1.05,0.58-2.38,0.2-2.96-0.85"/>
	<path fill="none" stroke="#172D33" stroke-width="0.3916" stroke-miterlimit="10" d="M44.74,46.75c0.58,1.06,0.2,2.38-0.85,2.96
		c-1.05,0.58-2.38,0.2-2.96-0.85"/>
	<path fill="none" stroke="#172D33" stroke-width="0.3916" stroke-miterlimit="10" d="M47.7,47.61c0.58,1.06,0.2,2.38-0.85,2.96
		c-1.05,0.58-2.38,0.2-2.96-0.85"/>
	<path fill="none" stroke="#172D33" stroke-width="0.3916" stroke-miterlimit="10" d="M50.66,48.46c0.58,1.06,0.2,2.38-0.85,2.96
		c-1.05,0.58-2.38,0.2-2.96-0.85"/>
	<path fill="none" stroke="#172D33" stroke-width="0.3916" stroke-miterlimit="10" d="M53.62,49.31c0.58,1.06,0.2,2.38-0.85,2.96
		c-1.05,0.58-2.38,0.2-2.96-0.85"/>
	<path fill="none" stroke="#172D33" stroke-width="0.3916" stroke-miterlimit="10" d="M56.58,50.17c0.58,1.06,0.2,2.38-0.85,2.96
		c-1.05,0.58-2.38,0.2-2.96-0.85"/>
	<path fill="none" stroke="#172D33" stroke-width="0.3916" stroke-miterlimit="10" d="M59.54,51.02c0.58,1.06,0.2,2.38-0.85,2.96
		c-1.05,0.58-2.38,0.2-2.96-0.85"/>
	<path fill="none" stroke="#172D33" stroke-width="0.3916" stroke-miterlimit="10" d="M62.51,51.87c0.58,1.06,0.2,2.38-0.85,2.96
		c-1.05,0.58-2.38,0.2-2.96-0.85"/>
	<path fill="none" stroke="#172D33" stroke-width="0.3916" stroke-miterlimit="10" d="M65.47,52.72c0.58,1.06,0.2,2.38-0.85,2.96
		c-1.05,0.58-2.38,0.2-2.96-0.85"/>
	<path fill="none" stroke="#172D33" stroke-width="0.3916" stroke-miterlimit="10" d="M68.43,53.58c0.58,1.06,0.2,2.38-0.85,2.96
		c-1.05,0.58-2.38,0.2-2.96-0.85"/>
	<path fill="none" stroke="#172D33" stroke-width="0.3916" stroke-miterlimit="10" d="M46.85,50.57c0.58,1.06,0.2,2.38-0.85,2.96
		c-1.05,0.58-2.38,0.2-2.96-0.85"/>
	<path fill="none" stroke="#172D33" stroke-width="0.3916" stroke-miterlimit="10" d="M49.81,51.42c0.58,1.06,0.2,2.38-0.85,2.96
		c-1.05,0.58-2.38,0.2-2.96-0.85"/>
	<path fill="none" stroke="#172D33" stroke-width="0.3916" stroke-miterlimit="10" d="M52.77,52.27c0.58,1.06,0.2,2.38-0.85,2.96
		c-1.05,0.58-2.38,0.2-2.96-0.85"/>
	<path fill="none" stroke="#172D33" stroke-width="0.3916" stroke-miterlimit="10" d="M55.73,53.13c0.58,1.06,0.2,2.38-0.85,2.96
		c-1.05,0.58-2.38,0.2-2.96-0.85"/>
	<path fill="none" stroke="#172D33" stroke-width="0.3916" stroke-miterlimit="10" d="M58.69,53.98c0.58,1.06,0.2,2.38-0.85,2.96
		c-1.05,0.58-2.38,0.2-2.96-0.85"/>
	<path fill="none" stroke="#172D33" stroke-width="0.3916" stroke-miterlimit="10" d="M61.65,54.83c0.58,1.06,0.2,2.38-0.85,2.96
		c-1.05,0.58-2.38,0.2-2.96-0.85"/>
	<path fill="none" stroke="#172D33" stroke-width="0.3916" stroke-miterlimit="10" d="M64.61,55.68c0.58,1.06,0.2,2.38-0.85,2.96
		c-1.05,0.58-2.38,0.2-2.96-0.85"/>
	<path fill="none" stroke="#172D33" stroke-width="0.3916" stroke-miterlimit="10" d="M48.96,54.38c0.58,1.06,0.2,2.38-0.85,2.96
		c-1.05,0.58-2.38,0.2-2.96-0.85"/>
	<path fill="none" stroke="#172D33" stroke-width="0.3916" stroke-miterlimit="10" d="M51.92,55.23c0.58,1.06,0.2,2.38-0.85,2.96
		c-1.05,0.58-2.38,0.2-2.96-0.85"/>
	<path fill="none" stroke="#172D33" stroke-width="0.3916" stroke-miterlimit="10" d="M54.88,56.09c0.58,1.06,0.2,2.38-0.85,2.96
		c-1.05,0.58-2.38,0.2-2.96-0.85"/>
	<path fill="none" stroke="#172D33" stroke-width="0.3916" stroke-miterlimit="10" d="M57.84,56.94c0.58,1.06,0.2,2.38-0.85,2.96
		c-1.05,0.58-2.38,0.2-2.96-0.85"/>
	<path fill="none" stroke="#172D33" stroke-width="0.3916" stroke-miterlimit="10" d="M60.8,57.79c0.58,1.06,0.2,2.38-0.85,2.96
		c-1.05,0.58-2.38,0.2-2.96-0.85"/>
	<path fill="none" stroke="#172D33" stroke-width="0.3916" stroke-miterlimit="10" d="M51.06,58.2c0.58,1.06,0.2,2.38-0.85,2.96
		c-1.05,0.58-2.38,0.2-2.96-0.85"/>
	<path fill="none" stroke="#172D33" stroke-width="0.3916" stroke-miterlimit="10" d="M54.03,59.05c0.58,1.06,0.2,2.38-0.85,2.96
		c-1.05,0.58-2.38,0.2-2.96-0.85"/>
	<path fill="none" stroke="#172D33" stroke-width="0.3916" stroke-miterlimit="10" d="M56.99,59.9c0.58,1.06,0.2,2.38-0.85,2.96
		c-1.05,0.58-2.38,0.2-2.96-0.85"/>
</g>
<ellipse fill="#665D52" cx="38.76" cy="73.29" rx="2.4" ry="1.44"/>
<ellipse fill="#665D52" cx="66.1" cy="70.89" rx="2.4" ry="1.44"/>
<ellipse fill="#665D52" cx="32.3" cy="70.89" rx="1.52" ry="0.91"/>
<ellipse fill="#665D52" cx="23.77" cy="65.89" rx="1.07" ry="0.65"/>
<ellipse fill="#665D52" cx="26.49" cy="64.63" rx="0.68" ry="0.41"/>
<ellipse fill="#665D52" cx="64.61" cy="73.3" rx="0.68" ry="0.41"/>
<ellipse fill="#665D52" cx="61.52" cy="73.71" rx="0.68" ry="0.41"/>
<ellipse fill="#665D52" cx="57.37" cy="76.6" rx="1.52" ry="0.91"/>
<ellipse fill="#665D52" cx="74.3" cy="64.63" rx="1.52" ry="0.91"/>
<g>
	<polyline fill="#78593E" points="49.23,40.41 49.23,45.98 44.66,43.43 44.66,37.76 49.23,40.41 	"/>
	<polyline fill="#6C4F34" points="49.23,40.41 49.23,45.98 53.8,43.43 53.8,37.76 49.23,40.41 	"/>
	<path fill="#2E2314" stroke="#B8846A" stroke-width="0.6513" stroke-miterlimit="10" d="M48.89,40.25l-4.08-2.3
		c-0.19-0.11-0.19-0.27,0-0.38l4.08-2.3c0.19-0.11,0.49-0.11,0.67,0l4.08,2.3c0.19,0.11,0.19,0.27,0,0.38l-4.08,2.3
		C49.38,40.35,49.08,40.35,48.89,40.25z"/>
</g>
<path fill="#846748" d="M-60.52,99.05l-43.88-24.69c-2-1.13-2-2.95,0-4.08l43.88-24.69c2-1.13,5.25-1.13,7.25,0l43.88,24.69
	c1.11,0.63,1.61,1.47,1.48,2.29c-0.1,0.65-0.59,1.29-1.48,1.79l-43.88,24.69C-55.27,100.18-58.52,100.18-60.52,99.05z"/>
<polygon fill="#846748" points="-7.91,72.57 -105.9,72.32 -105.9,67.79 -7.91,68.04 "/>
<path fill="#3A2C18" d="M-60.52,94.52l-43.88-24.69c-2-1.13-2-2.95,0-4.08l43.88-24.69c2-1.13,5.25-1.13,7.25,0l43.88,24.69
	c2,1.13,2,2.95,0,4.08l-43.88,24.69C-55.27,95.65-58.52,95.65-60.52,94.52z"/>
<path fill="#665D52" d="M-59.79,89.16l-34.9-19.65c-1.6-0.9-1.6-2.36,0-3.25l34.9-19.65c1.6-0.9,4.17-0.9,5.77,0l34.9,19.65
	c1.6,0.9,1.6,2.36,0,3.25l-34.9,19.65C-55.6,90.06-58.19,90.06-59.79,89.16z"/>
<path fill="#2D2A28" d="M-59.69,87.24l-33.67-18.95c-1.54-0.87-1.54-2.27,0-3.14l33.67-18.95c1.54-0.87,4.02-0.87,5.57,0
	l33.67,18.95c1.54,0.87,1.54,2.27,0,3.14l-33.67,18.95C-55.65,88.11-58.14,88.11-59.69,87.24z"/>
<path fill="#5B534B" d="M-58.39,78.1l-17.98-10.12c-0.82-0.46-0.82-1.21,0-1.68l17.98-10.12c0.82-0.46,2.15-0.46,2.97,0l17.98,10.12
	c0.82,0.46,0.82,1.21,0,1.68L-55.42,78.1C-56.23,78.56-57.57,78.56-58.39,78.1z"/>
<rect x="-76.99" y="64.72" fill="#5B534B" width="40.17" height="2.41"/>
<path fill="#3F372D" d="M-58.39,75.68l-17.98-10.12c-0.82-0.46-0.82-1.21,0-1.68l17.98-10.12c0.82-0.46,2.15-0.46,2.97,0
	l17.98,10.12c0.82,0.46,0.82,1.21,0,1.68l-17.98,10.12C-56.23,76.15-57.57,76.15-58.39,75.68z"/>
<path fill="#F9A236" d="M-58.04,73.12l-13.77-7.75c-0.63-0.35-0.63-0.93,0-1.28l13.77-7.75c0.63-0.35,1.64-0.35,2.28,0L-42,64.08
	c0.63,0.35,0.63,0.93,0,1.28l-13.77,7.75C-56.39,73.47-57.41,73.47-58.04,73.12z"/>
<path fill="#494036" d="M-57.21,82.45l-3.73-2.1c-0.17-0.1-0.17-0.25,0-0.35l3.73-2.1c0.17-0.1,0.45-0.1,0.62,0l3.73,2.1
	c0.17,0.1,0.17,0.25,0,0.35l-3.73,2.1C-56.77,82.55-57.04,82.55-57.21,82.45z"/>
<path fill="#494036" d="M-81.74,68.94l-3.73-2.1c-0.17-0.1-0.17-0.25,0-0.35l3.73-2.1c0.17-0.1,0.45-0.1,0.62,0l3.73,2.1
	c0.17,0.1,0.17,0.25,0,0.35l-3.73,2.1C-81.29,69.03-81.57,69.03-81.74,68.94z"/>
<path fill="#494036" d="M-32.8,68.94l-3.73-2.1c-0.17-0.1-0.17-0.25,0-0.35l3.73-2.1c0.17-0.1,0.45-0.1,0.62,0l3.73,2.1
	c0.17,0.1,0.17,0.25,0,0.35l-3.73,2.1C-32.35,69.03-32.63,69.03-32.8,68.94z"/>
<g>
	<polygon fill="#78593E" points="-83.86,66.69 -83.86,55.44 -81.46,56.78 -81.46,68.05 	"/>
	<polygon fill="#6C4F34" points="-79.06,66.69 -79.06,55.44 -81.46,56.78 -81.46,68.05 	"/>
</g>
<g>
	<polygon fill="#78593E" points="-59.29,80.35 -59.29,69.09 -56.89,70.43 -56.89,81.71 	"/>
	<polygon fill="#6C4F34" points="-54.5,80.35 -54.5,69.09 -56.89,70.43 -56.89,81.71 	"/>
</g>
<g>
	<polygon fill="#78593E" points="-34.89,66.92 -34.89,55.67 -32.49,57.01 -32.49,68.28 	"/>
	<polygon fill="#6C4F34" points="-30.09,66.92 -30.09,55.67 -32.49,57.01 -32.49,68.28 	"/>
</g>
<polygon fill="#6C4F34" points="-86.04,51.7 -58.39,66.61 -56.78,70.03 -86.52,54.12 -86.91,51.81 "/>
<polygon fill="#60442D" points="-81.13,47.89 -63.05,57.63 -62,59.87 -81.44,49.47 -81.69,47.96 "/>
<polygon fill="#6E5037" points="-83.05,48.23 -64.98,57.97 -63.93,60.21 -83.36,49.81 -83.62,48.3 "/>
<path fill="#846748" d="M-25.89,53.6c-0.08-0.39-0.39-0.76-0.91-1.06l-1.84-1.03L-54.6,36.9c-1.27-0.71-3.33-0.71-4.59,0
	l-25.28,14.22l-2.52,1.42c-0.64,0.36-0.96,0.83-0.95,1.31c0,0.47,0.31,0.93,0.95,1.29l27.8,15.64c1.27,0.71,3.32,0.71,4.59,0
	l27.81-15.64c0.51-0.28,0.8-0.64,0.9-1.01V54.1C-25.85,53.94-25.84,53.77-25.89,53.6z M-56.16,68.08c-1.15,0.64-2.99,0.64-4.11,0
	L-85.2,54.06c-0.11-0.07-0.21-0.13-0.3-0.21c-0.82-0.64-0.71-1.55,0.3-2.11l1.09-0.61l23.83-13.41c1.13-0.64,2.98-0.64,4.11,0
	l24.46,13.77l0.45,0.25c1.13,0.65,1.13,1.68,0,2.32l-0.06,0.03L-56.16,68.08z"/>
<path fill="#846748" d="M-25.89,53.6c-0.08-0.39-0.39-0.76-0.91-1.06l-1.84-1.03L-54.6,36.9c-1.27-0.71-3.33-0.71-4.59,0
	l-25.28,14.22l-2.52,1.42c-0.64,0.36-0.96,0.83-0.95,1.31c0,0.47,0.31,0.93,0.95,1.29l27.8,15.64c1.27,0.71,3.32,0.71,4.59,0
	l27.81-15.64c0.51-0.28,0.8-0.64,0.9-1.01V54.1C-25.85,53.94-25.84,53.77-25.89,53.6z M-56.16,68.08c-1.15,0.64-2.99,0.64-4.11,0
	L-85.2,54.06c-0.11-0.07-0.21-0.13-0.3-0.21c-0.82-0.64-0.71-1.55,0.3-2.11l1.09-0.61l23.83-13.41c1.13-0.64,2.98-0.64,4.11,0
	l24.46,13.77l0.45,0.25c1.13,0.65,1.13,1.68,0,2.32l-0.06,0.03L-56.16,68.08z"/>
<path fill="#846748" d="M-86.47,51.12l0.16,0.01l-0.47,0.61c-0.43,0.56-0.48,1.47-0.13,2.11l-1.04-0.01h-0.01l0.03-2.74
	L-86.47,51.12z"/>
<path fill="#846748" d="M-25.87,51.53l-0.02,2.08l-0.01,0.5v0.02l-5.41-0.03l0.06-0.03c1.13-0.64,1.13-1.67,0-2.32l-0.45-0.25
	l3.06,0.02L-25.87,51.53z"/>
<path fill="#213C4A" d="M-67.4,39.14l8.63-4.82l0.08-0.04l11.42-6.38c1.67-0.71,3.62-0.14,4.64,1.36l16.47,21.41l-0.03-0.01
	c0.59,0.68,0.39,1.54-0.62,2.11l-27.8,15.63c-0.43,0.24-0.97,0.42-1.53,0.49L-73.6,46.71c-1.04-1.5-2.97-2.07-4.64-1.36l-2.11,1.07
	L-67.4,39.14z"/>
<path fill="#846748" d="M-56.13,68.87c-0.34,0.05-0.68,0.07-1.02,0.05c-0.64-0.03-1.29-0.16-1.81-0.42l-14.67-18.6
	c-1.09-1.59-3.16-2.19-4.93-1.44l-2.24,1.14l-5.89,3.32l-0.29-0.16c-0.79-0.45-1.1-1.07-0.91-1.64c0.13-0.35,0.43-0.69,0.89-0.94
	l6.65-3.75l2.1-1.06c1.66-0.71,3.62-0.15,4.64,1.35L-56.13,68.87z"/>
<g>
	<path fill="none" stroke="#172D33" stroke-width="0.5" stroke-miterlimit="10" d="M-53.87,36.12"/>
	<path fill="none" stroke="#172D33" stroke-width="0.5" stroke-miterlimit="10" d="M-45.22,34.51c0.75,1.35,0.26,3.03-1.09,3.78
		c-1.34,0.74-3.03,0.26-3.78-1.09"/>
	<path fill="none" stroke="#172D33" stroke-width="0.5" stroke-miterlimit="10" d="M-41.44,35.6c0.75,1.35,0.26,3.03-1.09,3.78
		c-1.34,0.74-3.03,0.26-3.78-1.09"/>
	<path fill="none" stroke="#172D33" stroke-width="0.5" stroke-miterlimit="10" d="M-46.31,38.29c0.75,1.35,0.26,3.03-1.09,3.78
		c-1.34,0.74-3.03,0.26-3.78-1.09"/>
	<path fill="none" stroke="#172D33" stroke-width="0.5" stroke-miterlimit="10" d="M-42.53,39.38c0.75,1.35,0.26,3.03-1.09,3.78
		c-1.34,0.74-3.03,0.26-3.78-1.09"/>
	<path fill="none" stroke="#172D33" stroke-width="0.5" stroke-miterlimit="10" d="M-38.74,40.47c0.75,1.35,0.26,3.03-1.09,3.78
		c-1.34,0.74-3.03,0.26-3.78-1.09"/>
	<path fill="none" stroke="#172D33" stroke-width="0.5" stroke-miterlimit="10" d="M-51.18,40.99c0.75,1.35,0.26,3.03-1.09,3.78
		c-1.34,0.74-3.03,0.26-3.78-1.09"/>
	<path fill="none" stroke="#172D33" stroke-width="0.5" stroke-miterlimit="10" d="M-47.39,42.07c0.75,1.35,0.26,3.03-1.09,3.78
		c-1.34,0.74-3.03,0.26-3.78-1.09"/>
	<path fill="none" stroke="#172D33" stroke-width="0.5" stroke-miterlimit="10" d="M-43.61,43.16c0.75,1.35,0.26,3.03-1.09,3.78
		c-1.34,0.74-3.03,0.26-3.78-1.09"/>
	<path fill="none" stroke="#172D33" stroke-width="0.5" stroke-miterlimit="10" d="M-39.83,44.25c0.75,1.35,0.26,3.03-1.09,3.78
		c-1.34,0.74-3.03,0.26-3.78-1.09"/>
	<path fill="none" stroke="#172D33" stroke-width="0.5" stroke-miterlimit="10" d="M-36.05,45.34c0.75,1.35,0.26,3.03-1.09,3.78
		c-1.34,0.74-3.03,0.26-3.78-1.09"/>
	<path fill="none" stroke="#172D33" stroke-width="0.5" stroke-miterlimit="10" d="M-32.27,46.43c0.75,1.35,0.26,3.03-1.09,3.78
		c-1.34,0.74-3.03,0.26-3.78-1.09"/>
	<path fill="none" stroke="#172D33" stroke-width="0.5" stroke-miterlimit="10" d="M-63.61,41.5c0.75,1.35,0.26,3.03-1.09,3.78
		c-1.34,0.74-3.03,0.26-3.78-1.09"/>
	<path fill="none" stroke="#172D33" stroke-width="0.5" stroke-miterlimit="10" d="M-59.83,42.59c0.75,1.35,0.26,3.03-1.09,3.78
		c-1.34,0.74-3.03,0.26-3.78-1.09"/>
	<path fill="none" stroke="#172D33" stroke-width="0.5" stroke-miterlimit="10" d="M-56.05,43.68c0.75,1.35,0.26,3.03-1.09,3.78
		c-1.34,0.74-3.03,0.26-3.78-1.09"/>
	<path fill="none" stroke="#172D33" stroke-width="0.5" stroke-miterlimit="10" d="M-52.26,44.77c0.75,1.35,0.26,3.03-1.09,3.78
		c-1.34,0.74-3.03,0.26-3.78-1.09"/>
	<path fill="none" stroke="#172D33" stroke-width="0.5" stroke-miterlimit="10" d="M-48.48,45.85c0.75,1.35,0.26,3.03-1.09,3.78
		c-1.34,0.74-3.03,0.26-3.78-1.09"/>
	<path fill="none" stroke="#172D33" stroke-width="0.5" stroke-miterlimit="10" d="M-44.7,46.94c0.75,1.35,0.26,3.03-1.09,3.78
		c-1.34,0.74-3.03,0.26-3.78-1.09"/>
	<path fill="none" stroke="#172D33" stroke-width="0.5" stroke-miterlimit="10" d="M-40.92,48.03c0.75,1.35,0.26,3.03-1.09,3.78
		c-1.34,0.74-3.03,0.26-3.78-1.09"/>
	<path fill="none" stroke="#172D33" stroke-width="0.5" stroke-miterlimit="10" d="M-37.14,49.12c0.75,1.35,0.26,3.03-1.09,3.78
		c-1.34,0.74-3.03,0.26-3.78-1.09"/>
	<path fill="none" stroke="#172D33" stroke-width="0.5" stroke-miterlimit="10" d="M-33.36,50.21c0.75,1.35,0.26,3.03-1.09,3.78
		c-1.34,0.74-3.03,0.26-3.78-1.09"/>
	<path fill="none" stroke="#172D33" stroke-width="0.5" stroke-miterlimit="10" d="M-60.91,46.37c0.75,1.35,0.26,3.03-1.09,3.78
		c-1.34,0.74-3.03,0.26-3.78-1.09"/>
	<path fill="none" stroke="#172D33" stroke-width="0.5" stroke-miterlimit="10" d="M-57.13,47.46c0.75,1.35,0.26,3.03-1.09,3.78
		c-1.34,0.74-3.03,0.26-3.78-1.09"/>
	<path fill="none" stroke="#172D33" stroke-width="0.5" stroke-miterlimit="10" d="M-53.35,48.55c0.75,1.35,0.26,3.03-1.09,3.78
		c-1.34,0.74-3.03,0.26-3.78-1.09"/>
	<path fill="none" stroke="#172D33" stroke-width="0.5" stroke-miterlimit="10" d="M-49.57,49.64c0.75,1.35,0.26,3.03-1.09,3.78
		c-1.34,0.74-3.03,0.26-3.78-1.09"/>
	<path fill="none" stroke="#172D33" stroke-width="0.5" stroke-miterlimit="10" d="M-45.79,50.72c0.75,1.35,0.26,3.03-1.09,3.78
		c-1.34,0.74-3.03,0.26-3.78-1.09"/>
	<path fill="none" stroke="#172D33" stroke-width="0.5" stroke-miterlimit="10" d="M-42.01,51.81c0.75,1.35,0.26,3.03-1.09,3.78
		c-1.34,0.74-3.03,0.26-3.78-1.09"/>
	<path fill="none" stroke="#172D33" stroke-width="0.5" stroke-miterlimit="10" d="M-38.23,52.9c0.75,1.35,0.26,3.03-1.09,3.78
		c-1.34,0.74-3.03,0.26-3.78-1.09"/>
	<path fill="none" stroke="#172D33" stroke-width="0.5" stroke-miterlimit="10" d="M-58.22,51.24c0.75,1.35,0.26,3.03-1.09,3.78
		c-1.34,0.74-3.03,0.26-3.78-1.09"/>
	<path fill="none" stroke="#172D33" stroke-width="0.5" stroke-miterlimit="10" d="M-54.44,52.33c0.75,1.35,0.26,3.03-1.09,3.78
		c-1.34,0.74-3.03,0.26-3.78-1.09"/>
	<path fill="none" stroke="#172D33" stroke-width="0.5" stroke-miterlimit="10" d="M-50.66,53.42c0.75,1.35,0.26,3.03-1.09,3.78
		c-1.34,0.74-3.03,0.26-3.78-1.09"/>
	<path fill="none" stroke="#172D33" stroke-width="0.5" stroke-miterlimit="10" d="M-46.88,54.51c0.75,1.35,0.26,3.03-1.09,3.78
		c-1.34,0.74-3.03,0.26-3.78-1.09"/>
	<path fill="none" stroke="#172D33" stroke-width="0.5" stroke-miterlimit="10" d="M-43.1,55.59c0.75,1.35,0.26,3.03-1.09,3.78
		c-1.34,0.74-3.03,0.26-3.78-1.09"/>
	<path fill="none" stroke="#172D33" stroke-width="0.5" stroke-miterlimit="10" d="M-55.53,56.11c0.75,1.35,0.26,3.03-1.09,3.78
		c-1.34,0.74-3.03,0.26-3.78-1.09"/>
	<path fill="none" stroke="#172D33" stroke-width="0.5" stroke-miterlimit="10" d="M-51.75,57.2c0.75,1.35,0.26,3.03-1.09,3.78
		c-1.34,0.74-3.03,0.26-3.78-1.09"/>
	<path fill="none" stroke="#172D33" stroke-width="0.5" stroke-miterlimit="10" d="M-47.97,58.29c0.75,1.35,0.26,3.03-1.09,3.78
		c-1.34,0.74-3.03,0.26-3.78-1.09"/>
</g>
<ellipse fill="#665D52" cx="-71.25" cy="75.38" rx="3.06" ry="1.84"/>
<ellipse fill="#665D52" cx="-36.34" cy="72.32" rx="3.06" ry="1.84"/>
<ellipse fill="#665D52" cx="-79.49" cy="72.32" rx="1.94" ry="1.17"/>
<ellipse fill="#665D52" cx="-90.38" cy="65.93" rx="1.37" ry="0.83"/>
<ellipse fill="#665D52" cx="-86.91" cy="64.32" rx="0.87" ry="0.52"/>
<ellipse fill="#665D52" cx="-38.23" cy="75.4" rx="0.87" ry="0.52"/>
<ellipse fill="#665D52" cx="-42.18" cy="75.92" rx="0.87" ry="0.52"/>
<ellipse fill="#665D52" cx="-47.48" cy="79.61" rx="1.94" ry="1.17"/>
<ellipse fill="#665D52" cx="-25.87" cy="64.32" rx="1.94" ry="1.17"/>
<g>
	<polyline fill="#78593E" points="-57.87,33.39 -57.87,40.52 -63.71,37.26 -63.71,30.02 -57.87,33.39 	"/>
	<polyline fill="#6C4F34" points="-57.87,33.39 -57.87,40.52 -52.04,37.26 -52.04,30.02 -57.87,33.39 	"/>
	<path fill="#2E2314" stroke="#B8846A" stroke-width="0.8317" stroke-miterlimit="10" d="M-58.3,33.19l-5.21-2.93
		c-0.24-0.13-0.24-0.35,0-0.48l5.21-2.93c0.24-0.13,0.62-0.13,0.86,0l5.21,2.93c0.24,0.13,0.24,0.35,0,0.48l-5.21,2.93
		C-57.68,33.33-58.07,33.33-58.3,33.19z"/>
</g>
<ellipse fill="#382C20" cx="43.03" cy="84.97" rx="1.84" ry="1.11"/>
<ellipse fill="#382C20" cx="19.85" cy="72.32" rx="1.28" ry="0.77"/>
<ellipse fill="#382C20" cx="80.72" cy="61.92" rx="1.28" ry="0.77"/>
<ellipse fill="#382C20" cx="86.27" cy="66.53" rx="1.84" ry="1.11"/>
<ellipse fill="#382C20" cx="76.96" cy="73.8" rx="3.08" ry="1.85"/>
<ellipse fill="#382C20" cx="13.71" cy="67.42" rx="3.08" ry="1.85"/>
</svg>
