<?xml version="1.0" encoding="utf-8"?>
<!-- Generator: Adobe Illustrator 25.0.1, SVG Export Plug-In . SVG Version: 6.00 Build 0)  -->
<svg version="1.1" id="Layer_1" xmlns="http://www.w3.org/2000/svg" xmlns:xlink="http://www.w3.org/1999/xlink" x="0px" y="0px"
	 viewBox="0 0 100 100" enable-background="new 0 0 100 100" xml:space="preserve">
<circle fill="#009AC9" cx="49.83" cy="50.15" r="47.85"/>
<g>
	<polyline fill="none" stroke="#383838" stroke-width="4.9554" stroke-miterlimit="10" points="42.97,18.96 49.53,26.05 
		49.53,50.97 	"/>
	<line fill="none" stroke="#383838" stroke-width="4.9554" stroke-miterlimit="10" x1="56.69" y1="18.96" x2="49.53" y2="26.05"/>
	<polyline fill="none" stroke="#383838" stroke-width="4.9554" stroke-miterlimit="10" points="42.97,82.98 49.53,75.88 
		49.53,50.97 	"/>
	<line fill="none" stroke="#383838" stroke-width="4.9554" stroke-miterlimit="10" x1="56.69" y1="82.98" x2="49.53" y2="75.88"/>
	<polyline fill="none" stroke="#383838" stroke-width="4.9554" stroke-miterlimit="10" points="81.84,44.11 74.74,50.67 
		49.83,50.67 	"/>
	<line fill="none" stroke="#383838" stroke-width="4.9554" stroke-miterlimit="10" x1="81.84" y1="57.83" x2="74.74" y2="50.67"/>
	<polyline fill="none" stroke="#383838" stroke-width="4.9554" stroke-miterlimit="10" points="17.82,44.11 24.91,50.67 
		49.83,50.67 	"/>
	<line fill="none" stroke="#383838" stroke-width="4.9554" stroke-miterlimit="10" x1="17.82" y1="57.83" x2="24.91" y2="50.67"/>
	<polyline fill="none" stroke="#383838" stroke-width="4.9554" stroke-miterlimit="10" points="77.32,68.75 67.66,68.38 
		50.04,50.76 	"/>
	<line fill="none" stroke="#383838" stroke-width="4.9554" stroke-miterlimit="10" x1="67.61" y1="78.45" x2="67.66" y2="68.38"/>
	<polyline fill="none" stroke="#383838" stroke-width="4.9554" stroke-miterlimit="10" points="32.05,23.48 32.42,33.14 
		50.04,50.76 	"/>
	<line fill="none" stroke="#383838" stroke-width="4.9554" stroke-miterlimit="10" x1="22.34" y1="33.19" x2="32.42" y2="33.14"/>
	<polyline fill="none" stroke="#383838" stroke-width="4.9554" stroke-miterlimit="10" points="32.05,78.45 32.42,68.8 50.04,51.18 
			"/>
	<line fill="none" stroke="#383838" stroke-width="4.9554" stroke-miterlimit="10" x1="22.34" y1="68.75" x2="32.42" y2="68.8"/>
	<polyline fill="none" stroke="#383838" stroke-width="4.9554" stroke-miterlimit="10" points="77.32,33.19 67.66,33.56 
		50.04,51.18 	"/>
	<line fill="none" stroke="#383838" stroke-width="4.9554" stroke-miterlimit="10" x1="67.61" y1="23.48" x2="67.66" y2="33.56"/>
	<polygon fill="#383838" points="55.72,37.25 44.36,37.25 36.32,45.29 36.32,56.65 44.36,64.69 55.72,64.69 63.76,56.65 
		63.76,45.29 	"/>
</g>
</svg>
