<?xml version="1.0" encoding="utf-8"?>
<!-- Generator: Adobe Illustrator 25.0.1, SVG Export Plug-In . SVG Version: 6.00 Build 0)  -->
<svg version="1.1" id="Layer_1" xmlns="http://www.w3.org/2000/svg" xmlns:xlink="http://www.w3.org/1999/xlink" x="0px" y="0px"
	 viewBox="0 0 100 100" enable-background="new 0 0 100 100" xml:space="preserve">
<g>
	<path fill="#FFFFFF" d="M41.5,13.2V15v1.1h0.6c0.5,0,0.9,0.1,1.1,0.2c0.2,0.1,0.4,0.3,0.5,0.5s0.1,0.7,0.1,1.4v12.4
		c0,0.7-0.1,1.1-0.1,1.3c-0.1,0.2-0.3,0.4-0.5,0.5c-0.2,0.1-0.6,0.2-1.1,0.2h-0.6v1.1v1.8h17.6v-1.8v-1.1h-0.6
		c-0.5,0-0.9-0.1-1.1-0.2c-0.2-0.1-0.4-0.3-0.5-0.6c-0.1-0.3-0.2-0.7-0.2-1.3V18.5c0-0.8,0.1-1.3,0.2-1.5c0.1-0.3,0.3-0.5,0.5-0.6
		c0.2-0.1,0.6-0.2,1.1-0.2h0.6V15v-1.8H41.5z M54.3,30.6c0,0.7-0.1,1.1-0.1,1.3c-0.1,0.2-0.3,0.4-0.5,0.5c-0.2,0.1-0.6,0.2-1.1,0.2
		h-0.6v1.1h-3.2v-1.1h-0.6c-0.5,0-0.9-0.1-1.1-0.2c-0.2-0.1-0.4-0.3-0.5-0.6c-0.1-0.3-0.2-0.7-0.2-1.3V18.5c0-0.8,0.1-1.3,0.2-1.5
		c0.1-0.3,0.3-0.5,0.5-0.6c0.2-0.1,0.6-0.2,1.1-0.2h0.6V15h3.2v1.1h0.6c0.5,0,0.9,0.1,1.1,0.2c0.2,0.1,0.4,0.3,0.5,0.5
		c0.1,0.2,0.1,0.7,0.1,1.4L54.3,30.6z"/>
	<circle fill="none" stroke="#FFFFFF" stroke-width="3.6648" stroke-miterlimit="10" cx="50.5" cy="66.7" r="22.6"/>
	<g>
		<polyline fill="none" stroke="#FAFDF9" stroke-width="2.3411" stroke-miterlimit="10" points="47.2,51.9 50.3,55.3 50.3,67 		"/>
		<line fill="none" stroke="#FAFDF9" stroke-width="2.3411" stroke-miterlimit="10" x1="53.7" y1="51.9" x2="50.3" y2="55.3"/>
		<polyline fill="none" stroke="#FAFDF9" stroke-width="2.3411" stroke-miterlimit="10" points="47.2,82.2 50.3,78.8 50.3,67 		"/>
		<line fill="none" stroke="#FAFDF9" stroke-width="2.3411" stroke-miterlimit="10" x1="53.7" y1="82.2" x2="50.3" y2="78.8"/>
		<polyline fill="none" stroke="#FAFDF9" stroke-width="2.3411" stroke-miterlimit="10" points="65.6,63.8 62.2,66.9 50.5,66.9 		
			"/>
		<line fill="none" stroke="#FAFDF9" stroke-width="2.3411" stroke-miterlimit="10" x1="65.6" y1="70.3" x2="62.2" y2="66.9"/>
		<polyline fill="none" stroke="#FAFDF9" stroke-width="2.3411" stroke-miterlimit="10" points="35.3,63.8 38.7,66.9 50.5,66.9 		
			"/>
		<line fill="none" stroke="#FAFDF9" stroke-width="2.3411" stroke-miterlimit="10" x1="35.3" y1="70.3" x2="38.7" y2="66.9"/>
		<polyline fill="none" stroke="#FAFDF9" stroke-width="2.3411" stroke-miterlimit="10" points="63.4,75.4 58.9,75.3 50.6,67 		"/>
		<line fill="none" stroke="#FAFDF9" stroke-width="2.3411" stroke-miterlimit="10" x1="58.9" y1="80" x2="58.9" y2="75.3"/>
		<polyline fill="none" stroke="#FAFDF9" stroke-width="2.3411" stroke-miterlimit="10" points="42.1,54.1 42.2,58.6 50.6,67 		"/>
		<line fill="none" stroke="#FAFDF9" stroke-width="2.3411" stroke-miterlimit="10" x1="37.5" y1="58.6" x2="42.2" y2="58.6"/>
		<polyline fill="none" stroke="#FAFDF9" stroke-width="2.3411" stroke-miterlimit="10" points="42.1,80 42.2,75.5 50.6,67.1 		"/>
		<line fill="none" stroke="#FAFDF9" stroke-width="2.3411" stroke-miterlimit="10" x1="37.5" y1="75.4" x2="42.2" y2="75.5"/>
		<polyline fill="none" stroke="#FAFDF9" stroke-width="2.3411" stroke-miterlimit="10" points="63.4,58.6 58.9,58.8 50.6,67.1 		
			"/>
		<line fill="none" stroke="#FAFDF9" stroke-width="2.3411" stroke-miterlimit="10" x1="58.9" y1="54.1" x2="58.9" y2="58.8"/>
		<polygon fill="#FAFDF9" points="53.2,60.6 47.9,60.6 44.1,64.4 44.1,69.7 47.9,73.5 53.2,73.5 57,69.7 57,64.4 		"/>
	</g>
</g>
</svg>
