<?xml version="1.0" encoding="utf-8"?>
<!-- Generator: Adobe Illustrator 25.0.1, SVG Export Plug-In . SVG Version: 6.00 Build 0)  -->
<svg version="1.1" id="Layer_1" xmlns="http://www.w3.org/2000/svg" xmlns:xlink="http://www.w3.org/1999/xlink" x="0px" y="0px"
	 viewBox="0 0 100 100" enable-background="new 0 0 100 100" xml:space="preserve">
<g>
	<g>
		<polyline fill="none" stroke="#FAFDF9" stroke-width="1.9437" stroke-miterlimit="10" points="59.2,25.3 61.8,28 61.8,37.8 		"/>
		<line fill="none" stroke="#FAFDF9" stroke-width="1.9437" stroke-miterlimit="10" x1="64.6" y1="25.3" x2="61.8" y2="28"/>
		<polyline fill="none" stroke="#FAFDF9" stroke-width="1.9437" stroke-miterlimit="10" points="59.2,50.4 61.8,47.6 61.8,37.8 		
			"/>
		<line fill="none" stroke="#FAFDF9" stroke-width="1.9437" stroke-miterlimit="10" x1="64.6" y1="50.4" x2="61.8" y2="47.6"/>
		<polyline fill="none" stroke="#FAFDF9" stroke-width="1.9437" stroke-miterlimit="10" points="74.5,35.1 71.7,37.7 61.9,37.7 		
			"/>
		<line fill="none" stroke="#FAFDF9" stroke-width="1.9437" stroke-miterlimit="10" x1="74.5" y1="40.5" x2="71.7" y2="37.7"/>
		<polyline fill="none" stroke="#FAFDF9" stroke-width="1.9437" stroke-miterlimit="10" points="49.4,35.1 52.1,37.7 61.9,37.7 		
			"/>
		<line fill="none" stroke="#FAFDF9" stroke-width="1.9437" stroke-miterlimit="10" x1="49.4" y1="40.5" x2="52.1" y2="37.7"/>
		<polyline fill="none" stroke="#FAFDF9" stroke-width="1.9437" stroke-miterlimit="10" points="72.7,44.8 68.9,44.6 62,37.7 		"/>
		<line fill="none" stroke="#FAFDF9" stroke-width="1.9437" stroke-miterlimit="10" x1="68.9" y1="48.6" x2="68.9" y2="44.6"/>
		<polyline fill="none" stroke="#FAFDF9" stroke-width="1.9437" stroke-miterlimit="10" points="54.9,27 55.1,30.8 62,37.7 		"/>
		<line fill="none" stroke="#FAFDF9" stroke-width="1.9437" stroke-miterlimit="10" x1="51.1" y1="30.8" x2="55.1" y2="30.8"/>
		<polyline fill="none" stroke="#FAFDF9" stroke-width="1.9437" stroke-miterlimit="10" points="54.9,48.6 55.1,44.8 62,37.9 		"/>
		<line fill="none" stroke="#FAFDF9" stroke-width="1.9437" stroke-miterlimit="10" x1="51.1" y1="44.8" x2="55.1" y2="44.8"/>
		<polyline fill="none" stroke="#FAFDF9" stroke-width="1.9437" stroke-miterlimit="10" points="72.7,30.8 68.9,31 62,37.9 		"/>
		<line fill="none" stroke="#FAFDF9" stroke-width="1.9437" stroke-miterlimit="10" x1="68.9" y1="27" x2="68.9" y2="31"/>
		<polygon fill="#FAFDF9" points="64.2,32.4 59.8,32.4 56.6,35.6 56.6,40 59.8,43.2 64.2,43.2 67.4,40 67.4,35.6 		"/>
	</g>
	<circle fill="none" stroke="#FFFFFF" stroke-width="3.0426" stroke-miterlimit="10" cx="61.9" cy="37.6" r="23.4"/>
	<path fill="#FFFFFF" d="M16.4,83.1L16.4,83.1c-1.3-1.3-1.3-3.5,0-4.8l26.1-26.1l4.8,4.8L21.2,83.1C19.9,84.4,17.8,84.4,16.4,83.1z"
		/>
</g>
</svg>
