<?xml version="1.0" encoding="utf-8"?>
<!-- Generator: Adobe Illustrator 25.0.1, SVG Export Plug-In . SVG Version: 6.00 Build 0)  -->
<svg version="1.1" id="Layer_1" xmlns="http://www.w3.org/2000/svg" xmlns:xlink="http://www.w3.org/1999/xlink" x="0px" y="0px"
	 viewBox="0 0 100 100" style="enable-background:new 0 0 100 100;" xml:space="preserve">
<style type="text/css">
	.st0{fill:#1F1F1F;}
	.st1{fill:#65848F;}
	.st2{fill:#5AB3BF;}
	.st3{fill:#D19950;}
	.st4{fill:#41D6F7;}
	.st5{fill:#85EEFF;}
</style>
<path class="st0" d="M69.8,67.4l3.6-10.8l-0.2-21l-44.9-1.2l-0.7,21.3l5.2,4.5L32.4,67C29,67.4,34,68.9,34,69.5
	c0,1.3,7.4,14.9,16.5,14.9S67,70.8,67,69.5C67,69.1,71.3,67.8,69.8,67.4z"/>
<path class="st1" d="M50.5,7.8L50.5,7.8c-7.6,0-14.5,4.6-19.4,11.1C25,27,22.5,37.2,23.8,47.3l2.9,22.8c0,2.3,0.6,4.6,1.9,6.6L37,91
	c1.3,2.1,4.5,1.2,4.5-1.3l-2.7-17.4c-0.9-5.6-0.8-11.3,0-16.9c0.3-1.9,0.3-3.4-0.5-3.7L33,50.2c-2.6-0.8-4.4-8.9-4.4-11.7
	c0.1-4.8,5.4-1.8,9.3,0.8l5.9,3.8c1.6,1,2.5,2.8,2.5,4.7v12.1c0,1.4,0.9,1.8,2,1c3.1-2.1,6.2,1.9,6.2-1v-12c0-1.9,1-3.7,2.5-4.7
	l5.9-3.8c4-2.6,9.3-5.5,9.3-0.8c0.1,2.7-1.8,10.9-4.4,11.7l-5.2,1.5c-0.6,0.2-0.6,1-0.5,2.1c1.1,7.2,1.3,14.5-0.1,21.6l-2.7,14.3
	c0,2.5,3.2,3.4,4.5,1.3l9.1-14.3c1.2-2,1.8-4.3,1.8-6.6l2.4-23.7c0.8-8.2-0.8-16.5-4.9-23.5C67.5,14.4,59.5,7.8,50.5,7.8z"/>
<ellipse transform="matrix(0.6961 -0.718 0.718 0.6961 -0.9086 34.5143)" class="st2" cx="40.3" cy="18.3" rx="5.5" ry="3.1"/>
<ellipse class="st3" cx="50.5" cy="30.1" rx="6.9" ry="10.6"/>
<path class="st3" d="M50.5,40.7c0,0,7.5,0.1,24.3-13.4c0,0,1.3-2.7-2.4-4.7c0,0-12.2,12.8-21.9,13V40.7z"/>
<path class="st3" d="M50.2,40.7c0,0-7.5,0.1-24.3-13.4c0,0-1.3-2.7,2.4-4.7c0,0,12.2,12.8,21.9,13V40.7z"/>
<ellipse class="st4" cx="50.5" cy="30.1" rx="4.9" ry="7.5"/>
<ellipse class="st5" cx="50.5" cy="30.1" rx="3.4" ry="5.1"/>
<ellipse transform="matrix(0.9823 -0.1875 0.1875 0.9823 -13.0862 6.6473)" class="st3" cx="28.6" cy="72.5" rx="3.5" ry="5.3"/>
<ellipse transform="matrix(0.9823 -0.1875 0.1875 0.9823 -13.1684 6.3918)" class="st4" cx="27.2" cy="72.8" rx="2.5" ry="3.8"/>
<ellipse transform="matrix(0.9823 -0.1875 0.1875 0.9823 -13.2189 6.2466)" class="st5" cx="26.4" cy="73" rx="1.4" ry="2.1"/>
<ellipse transform="matrix(0.1875 -0.9823 0.9823 0.1875 -11.8084 130.8382)" class="st3" cx="73.2" cy="72.6" rx="5.3" ry="3.5"/>
<ellipse transform="matrix(0.1875 -0.9823 0.9823 0.1875 -10.8892 132.4069)" class="st4" cx="74.6" cy="72.8" rx="3.8" ry="2.5"/>
<ellipse transform="matrix(0.1875 -0.9823 0.9823 0.1875 -10.3767 133.4115)" class="st5" cx="75.5" cy="73" rx="2.1" ry="1.4"/>
</svg>
