<?xml version="1.0" encoding="utf-8"?>
<!-- Generator: Adobe Illustrator 25.0.1, SVG Export Plug-In . SVG Version: 6.00 Build 0)  -->
<svg version="1.1" id="Layer_1" xmlns="http://www.w3.org/2000/svg" xmlns:xlink="http://www.w3.org/1999/xlink" x="0px" y="0px"
	 viewBox="0 0 100 100" style="enable-background:new 0 0 100 100;" xml:space="preserve">
<style type="text/css">
	.st0{fill:none;stroke:#EA8642;stroke-width:3.0923;stroke-miterlimit:10;}
	.st1{fill:#9E614C;}
	.st2{fill:none;stroke:#E8C19E;stroke-width:0.8835;stroke-miterlimit:10;}
	.st3{fill:none;stroke:#D36841;stroke-width:1.5008;stroke-miterlimit:10;}
	.st4{fill:#4F4F4F;}
	.st5{fill:#32A6B2;}
	.st6{opacity:0.28;fill:#42CBEA;}
</style>
<path class="st0" d="M23.3,10.8c0,0-1,4.8,7.1,7.7s17.7,2,30.8,26"/>
<path class="st0" d="M69.3,94.6c0,0-4.6-1.7-2.6-10.1s7.8-16-5.3-40"/>
<rect x="59.2" y="37.3" transform="matrix(0.8769 -0.4806 0.4806 0.8769 -14.104 35.1895)" class="st1" width="4.8" height="15.7"/>
<polyline class="st2" points="25.3,12.8 22.5,14.3 65.6,93.1 68.5,91.5 "/>
<line class="st3" x1="19.9" y1="64.1" x2="74.5" y2="34.2"/>
<polygon class="st4" points="71,32.5 79.7,31.3 74.2,34.3 "/>
<polygon class="st4" points="74,38 79.7,31.3 74.2,34.3 "/>
<polygon class="st5" points="29.8,57.8 25.8,56.9 15.6,62.5 20.8,62.7 "/>
<polygon class="st5" points="30.5,59.2 29.2,63 18.9,68.6 21.6,64.1 "/>
<circle class="st0" cx="73.3" cy="89.2" r="6.7"/>
<circle class="st0" cx="30" cy="10.8" r="6.7"/>
<circle class="st6" cx="75.3" cy="33.7" r="9.7"/>
<circle class="st6" cx="75.3" cy="33.7" r="6.8"/>
<circle class="st6" cx="77.5" cy="66" r="2.1"/>
<circle class="st6" cx="80.7" cy="55.4" r="2.1"/>
<polygon class="st6" points="75.3,14.1 77.3,26.5 85.1,16.7 80.6,28.4 92.3,23.9 82.6,31.8 94.9,33.7 82.6,35.6 92.3,43.5 80.6,39 
	85.1,50.6 77.3,40.9 75.3,53.2 73.4,40.9 65.6,50.6 70.1,39 58.4,43.5 68.1,35.6 55.8,33.7 68.1,31.8 58.4,23.9 70.1,28.4 
	65.6,16.7 73.4,26.5 "/>
</svg>
