<?xml version="1.0" encoding="utf-8"?>
<!-- Generator: Adobe Illustrator 25.0.1, SVG Export Plug-In . SVG Version: 6.00 Build 0)  -->
<svg version="1.1" id="Layer_1" xmlns="http://www.w3.org/2000/svg" xmlns:xlink="http://www.w3.org/1999/xlink" x="0px" y="0px"
	 viewBox="0 0 100 100" enable-background="new 0 0 100 100" xml:space="preserve">
<g>
	<circle fill="none" stroke="#FFFFFF" stroke-width="4.2116" stroke-miterlimit="10" cx="50.4" cy="50.2" r="26"/>
	<g>
		<polyline fill="none" stroke="#FAFDF9" stroke-width="2.6905" stroke-miterlimit="10" points="46.6,33.3 50.2,37.1 50.2,50.7 		
			"/>
		<line fill="none" stroke="#FAFDF9" stroke-width="2.6905" stroke-miterlimit="10" x1="54.1" y1="33.3" x2="50.2" y2="37.1"/>
		<polyline fill="none" stroke="#FAFDF9" stroke-width="2.6905" stroke-miterlimit="10" points="46.6,68 50.2,64.2 50.2,50.7 		"/>
		<line fill="none" stroke="#FAFDF9" stroke-width="2.6905" stroke-miterlimit="10" x1="54.1" y1="68" x2="50.2" y2="64.2"/>
		<polyline fill="none" stroke="#FAFDF9" stroke-width="2.6905" stroke-miterlimit="10" points="67.7,46.9 63.9,50.5 50.4,50.5 		
			"/>
		<line fill="none" stroke="#FAFDF9" stroke-width="2.6905" stroke-miterlimit="10" x1="67.7" y1="54.4" x2="63.9" y2="50.5"/>
		<polyline fill="none" stroke="#FAFDF9" stroke-width="2.6905" stroke-miterlimit="10" points="33,46.9 36.8,50.5 50.4,50.5 		"/>
		<line fill="none" stroke="#FAFDF9" stroke-width="2.6905" stroke-miterlimit="10" x1="33" y1="54.4" x2="36.8" y2="50.5"/>
		<polyline fill="none" stroke="#FAFDF9" stroke-width="2.6905" stroke-miterlimit="10" points="65.3,60.3 60,60.1 50.5,50.5 		"/>
		<line fill="none" stroke="#FAFDF9" stroke-width="2.6905" stroke-miterlimit="10" x1="60" y1="65.6" x2="60" y2="60.1"/>
		<polyline fill="none" stroke="#FAFDF9" stroke-width="2.6905" stroke-miterlimit="10" points="40.7,35.7 40.9,41 50.5,50.5 		"/>
		<line fill="none" stroke="#FAFDF9" stroke-width="2.6905" stroke-miterlimit="10" x1="35.4" y1="41" x2="40.9" y2="41"/>
		<polyline fill="none" stroke="#FAFDF9" stroke-width="2.6905" stroke-miterlimit="10" points="40.7,65.6 40.9,60.3 50.5,50.8 		
			"/>
		<line fill="none" stroke="#FAFDF9" stroke-width="2.6905" stroke-miterlimit="10" x1="35.4" y1="60.3" x2="40.9" y2="60.3"/>
		<polyline fill="none" stroke="#FAFDF9" stroke-width="2.6905" stroke-miterlimit="10" points="65.3,41 60,41.2 50.5,50.8 		"/>
		<line fill="none" stroke="#FAFDF9" stroke-width="2.6905" stroke-miterlimit="10" x1="60" y1="35.7" x2="60" y2="41.2"/>
		<polygon fill="#FAFDF9" points="53.6,43.2 47.4,43.2 43,47.6 43,53.7 47.4,58.1 53.6,58.1 57.9,53.7 57.9,47.6 		"/>
	</g>
</g>
</svg>
