<?xml version="1.0" encoding="utf-8"?>
<!-- Generator: Adobe Illustrator 25.0.1, SVG Export Plug-In . SVG Version: 6.00 Build 0)  -->
<svg version="1.1" id="Layer_1" xmlns="http://www.w3.org/2000/svg" xmlns:xlink="http://www.w3.org/1999/xlink" x="0px" y="0px"
	 viewBox="0 0 100 100" enable-background="new 0 0 100 100" xml:space="preserve">
<g>
	<path fill="#D36841" d="M15.41,43.79c0.04,0.38-2.85,27.86,3.07,34.39c11.62,12.8,47.56,16.5,58.75,3.29
		c5.44-6.42,6.1-30.58,6.1-30.58L15.41,43.79z"/>
	<path fill="#D67A4E" d="M15.79,42.81c-4.16,6.47,23.03,29.22,58.71,15.9S27.14,25.14,15.79,42.81z"/>
	<path fill="#464646" d="M21.3,43.2c-3.72,4.86,18.02,22.31,48.28,12.52S31.46,29.92,21.3,43.2z"/>
	<path fill="#464646" d="M69.58,55.72c-0.38,0.12-0.76,0.24-1.12,0.33c-6.18,1.89-11.99,2.64-17.27,2.61
		c-1.56-0.02-3.08-0.09-4.55-0.24c-6.73-0.62-12.43-2.52-16.74-4.79c-6.9-3.64-10.26-8.28-8.61-10.43
		C31.45,29.92,99.82,45.93,69.58,55.72z"/>
	<path fill="#ED4240" d="M68.45,56.05c-6.18,1.89-11.99,2.64-17.27,2.61c-1.56-0.02-3.08-0.09-4.55-0.24
		c0.06-3.49,1.73-6.56,4.31-8.53c1.86-1.44,4.21-2.3,6.76-2.3C62.92,47.58,67.3,51.19,68.45,56.05z"/>
	<path fill="#F16061" d="M51.99,54.54c0,1.46-0.29,2.85-0.8,4.12c-1.56-0.02-3.08-0.09-4.55-0.24c-6.73-0.62-12.43-2.52-16.74-4.79
		c0.45-5.68,5.21-10.16,11.02-10.16c4.44,0,8.29,2.62,10.02,6.41C51.63,51.29,51.99,52.87,51.99,54.54z"/>
	<path fill="none" stroke="#D67A4E" stroke-width="5.9798" stroke-miterlimit="10" d="M36.77,59.22c0,0-6.04-43.3,8.78-45.22
		c25.95-3.35,18.38,25.44,18.38,25.44"/>
</g>
</svg>
