<?xml version="1.0" encoding="utf-8"?>
<!-- Generator: Adobe Illustrator 25.0.1, SVG Export Plug-In . SVG Version: 6.00 Build 0)  -->
<svg version="1.1" id="Layer_1" xmlns="http://www.w3.org/2000/svg" xmlns:xlink="http://www.w3.org/1999/xlink" x="0px" y="0px"
	 viewBox="0 0 100 100" enable-background="new 0 0 100 100" xml:space="preserve">
<path fill="#856849" d="M46.38,98.95L2.5,74.26c-0.89-0.5-1.38-1.14-1.48-1.79c-0.13-0.82,0.37-1.66,1.48-2.29l43.88-24.69
	c2-1.13,5.25-1.13,7.25,0l43.88,24.69c2,1.13,2,2.95,0,4.08L53.63,98.95C51.63,100.08,48.38,100.08,46.38,98.95z"/>
<polygon fill="#856849" points="1.02,67.94 99.01,67.69 99.01,72.22 1.02,72.47 "/>
<path fill="#3A2D18" d="M46.38,94.42L2.5,69.73c-2-1.13-2-2.95,0-4.08l43.88-24.69c2-1.13,5.25-1.13,7.25,0l43.88,24.69
	c2,1.13,2,2.95,0,4.08L53.63,94.42C51.63,95.55,48.38,95.55,46.38,94.42z"/>
<path fill="#394D30" d="M46.83,90.43L8.28,68.74c-1.76-0.99-1.76-2.59,0-3.58l38.55-21.69c1.76-0.99,4.61-0.99,6.37,0l38.55,21.69
	c1.76,0.99,1.76,2.59,0,3.58L53.2,90.43C51.44,91.42,48.59,91.42,46.83,90.43z"/>
<path fill="#2D2C2A" d="M48.31,78.04L27.89,66.54c-0.93-0.53-0.93-1.37,0-1.9l20.42-11.49c0.93-0.53,2.44-0.53,3.37,0l20.42,11.49
	c0.93,0.53,0.93,1.37,0,1.9L51.69,78.04C50.76,78.56,49.24,78.56,48.31,78.04z"/>
<ellipse fill="#293323" cx="21.51" cy="63.76" rx="1.84" ry="1.11"/>
<ellipse fill="#293323" cx="57.49" cy="80.82" rx="1.84" ry="1.11"/>
<ellipse fill="#293323" cx="74.62" cy="72.49" rx="1.84" ry="1.11"/>
<ellipse fill="#293323" cx="26.42" cy="72.47" rx="3.06" ry="1.84"/>
<ellipse fill="#293323" cx="64.08" cy="77.86" rx="3.06" ry="1.84"/>
<ellipse fill="#293323" cx="45.52" cy="83.84" rx="3.06" ry="1.84"/>
<ellipse fill="#353535" cx="78.38" cy="59.66" rx="1.16" ry="0.94"/>
<ellipse fill="#353535" cx="72.36" cy="59.66" rx="1.16" ry="0.94"/>
<path fill="#1B1B1B" d="M78.39,60.58c0,0,0.91-2.67-0.75-6.35c-1.66-3.68-1.43-5.79,1.69-7.69c3.12-1.89,6.21-3.13,6.01-5.57
	c-0.22-2.74,2.34-4.35,2.34-4.35s-2.92,0.89-3.24,3.02c-0.59,3.9-5.44,4.81-5.33,4.25c0.11-0.56,2.83-3.48,2.61-5.43
	c0,0-2,3.8-4.31,4.77c-1.59,0.67-2.91-5.89-2.18-7.62c0,0-1.17,1.1-0.54,8.05c0.51,5.61-3.83-1.24-3.33-3.03
	c0,0-0.45,2.56,1.11,5.79s1.78,3.73,1.06,5.57s0.95,4.12,0.28,5.63c-0.67,1.5-2.79,2.95-2.79,2.95H78.39z"/>
<ellipse fill="#353535" cx="78.89" cy="61.06" rx="1.48" ry="1.32"/>
<circle fill="#353535" cx="76.79" cy="61.18" r="1.16"/>
<ellipse fill="#353535" cx="74.69" cy="60.95" rx="1.77" ry="2"/>
<ellipse fill="#353535" cx="72.36" cy="61.47" rx="1.62" ry="1.34"/>
<ellipse fill="#353535" cx="71.38" cy="60.33" rx="1.16" ry="0.94"/>
<g>
	<circle fill="#C9C4AF" cx="-65.26" cy="32.96" r="4.94"/>
	<circle fill="#C9C4AF" cx="-65.26" cy="42.74" r="4.94"/>
	<circle fill="#C9C4AF" cx="-36.49" cy="32.96" r="4.94"/>
	<circle fill="#C9C4AF" cx="-36.49" cy="42.74" r="4.94"/>
	<rect x="-65.26" y="33.99" fill="#C9C4AF" width="28.77" height="7.87"/>
</g>
<g>
	<circle fill="#C9C4AF" cx="19.11" cy="68.05" r="0.49"/>
	<circle fill="#C9C4AF" cx="18.97" cy="69.02" r="0.49"/>
	<circle fill="#C9C4AF" cx="21.94" cy="68.46" r="0.49"/>
	<circle fill="#C9C4AF" cx="21.8" cy="69.43" r="0.49"/>
	
		<rect x="19.03" y="68.36" transform="matrix(0.9898 0.1426 -0.1426 0.9898 10.0111 -2.2143)" fill="#C9C4AF" width="2.86" height="0.78"/>
</g>
<g>
	<circle fill="#C9C4AF" cx="32.15" cy="75.83" r="0.5"/>
	<circle fill="#C9C4AF" cx="32.28" cy="76.81" r="0.5"/>
	<circle fill="#C9C4AF" cx="35.04" cy="75.44" r="0.5"/>
	<circle fill="#C9C4AF" cx="35.17" cy="76.43" r="0.5"/>
	
		<rect x="32.2" y="75.74" transform="matrix(0.9913 -0.1314 0.1314 0.9913 -9.7133 5.0837)" fill="#C9C4AF" width="2.92" height="0.8"/>
</g>
<g>
	<g>
		<path fill="#5A4B3B" d="M49.42-18.11C49.3-17.6,50.5-3.72,50.5-3.72l0.65-1.79v-2.98l0.72-0.68l0.56-8.94H49.42z"/>
		<path fill="#EFB065" d="M49.21-17.6c-2.98-2.81-1.02-4.85,0-7.74c1.02-2.89,0.95-4.09,0.56-4.94c-0.39-0.85,1.82,3.74,1.48,6.34
			c-0.34,2.6,1.62,1.56,1.87-0.05c0.26-1.61,2.3,5.03,0,6.39C50.83-16.23,49.21-17.6,49.21-17.6z"/>
		<path fill="#F1582E" d="M49.76-18.4c-1.59-1.3-0.55-2.25,0-3.59s0.51-1.89,0.3-2.29c-0.21-0.39,0.98,1.73,0.79,2.94
			c-0.18,1.2,0.87,0.72,1-0.02c0.14-0.74,1.23,2.33,0,2.96C50.62-17.76,49.76-18.4,49.76-18.4z"/>
	</g>
	<path fill="#40403F" d="M48.53-15.38c0,0,1.36,2.12,4.68,1.62v2.13c0,0-3.66,0.6-4.68-1.53V-15.38z"/>
</g>
<g>
	<path fill="#475C59" d="M69.65,65.24c0,0.3-0.2,0.59-0.6,0.82l-17.51,9.85c-0.25,0.14-0.55,0.23-0.86,0.28h-0.04
		c-0.04,0.01-0.06,0.02-0.1,0.02v-31.5l19.11-11C69.64,33.61,69.65,65.24,69.65,65.24z"/>
	<path fill="#5F7371" d="M49.65,44.71v31.5c-0.04,0-0.06-0.01-0.1-0.02h-0.04c-0.31-0.04-0.61-0.13-0.86-0.28l-17.52-9.85
		c-0.4-0.22-0.59-0.52-0.59-0.82V33.71L49.65,44.71z"/>
	<path fill="#6B7E7A" d="M69.05,34.52l-17.51,9.86c-0.25,0.14-0.55,0.23-0.86,0.29c-0.38,0.06-0.79,0.06-1.17,0
		c-0.31-0.05-0.61-0.14-0.86-0.29l-17.52-9.86c-0.8-0.45-0.8-1.18,0-1.62l17.52-9.85c0.8-0.45,2.09-0.45,2.89,0l17.51,9.85
		C69.86,33.34,69.86,34.07,69.05,34.52z"/>
	<path fill="#3C504E" d="M50.09,24.66v18.1c-0.16,0-0.32-0.02-0.48-0.04c-0.25-0.04-0.49-0.12-0.7-0.23l-12.12-6.82l-2.3-1.29
		c-0.65-0.37-0.65-0.97,0-1.34l14.42-8.1C49.23,24.75,49.66,24.66,50.09,24.66z"/>
	<path fill="#475C59" d="M65.68,34.38l-2.3,1.29l-12.11,6.82c-0.21,0.12-0.45,0.19-0.7,0.23c-0.16,0.03-0.32,0.04-0.48,0.04v-18.1
		c0.43,0,0.86,0.09,1.18,0.28l14.41,8.1C66.35,33.41,66.35,34.01,65.68,34.38z"/>
	<path fill="#596B66" d="M63.39,35.67l-12.11,6.81c-0.21,0.12-0.45,0.2-0.71,0.24c-0.31,0.06-0.65,0.06-0.96,0
		c-0.25-0.04-0.5-0.12-0.71-0.24l-12.12-6.81l12.12-6.81c0.66-0.37,1.71-0.37,2.37,0L63.39,35.67z"/>
	<path fill="#6B7E7A" d="M50.68,44.67v31.52c-0.38,0.07-0.79,0.07-1.17,0V44.67C49.89,44.73,50.3,44.73,50.68,44.67z"/>
	<polygon fill="#6B7E7A" points="46.56,53.51 44.26,52.16 44.26,50.31 46.56,51.66 	"/>
	<polygon fill="#6B7E7A" points="35.63,43.91 33.34,42.56 33.34,40.71 35.63,42.06 	"/>
	<g>
		<polygon fill="#334642" points="63.11,61.24 65.39,59.9 65.39,58.05 63.11,59.4 		"/>
		<polygon fill="#334642" points="65.28,57.04 67.57,55.69 67.57,53.85 65.28,55.2 		"/>
	</g>
	<polygon fill="#334642" points="58.25,52.08 60.55,50.74 60.55,48.89 58.25,50.23 	"/>
	<polygon fill="#334642" points="61.39,46.85 63.69,45.51 63.69,43.66 61.39,45 	"/>
	<polygon fill="#334642" points="54.01,47.88 56.31,46.53 56.31,44.69 54.01,46.04 	"/>
	<polygon fill="#6B7E7A" points="41.27,61.47 38.97,60.12 38.97,58.27 41.27,59.62 	"/>
	<polygon fill="#6B7E7A" points="45.85,64.08 43.55,62.73 43.55,60.88 45.85,62.24 	"/>
	<polygon fill="#6B7E7A" points="42.12,67.66 39.83,66.31 39.83,64.46 42.12,65.81 	"/>
</g>
<path fill="#9B8BC2" d="M26.37,18.67c-4.45,1.21-6.52,5.38-14,4.52c0,0,4.3,1.16,8.79,0.88c-2.15,1.27-4.64,2.35-8.79,1.87
	c0,0,4.84,1.31,9.61,0.8l1.19-1.8l0.64,1.52c0.77-0.16,1.52-0.39,2.23-0.68c5.64-2.37,8.46,2.44,8.46,2.44v-7.77
	C34.48,20.45,30.83,17.48,26.37,18.67z M27.21,21.63l-1.99-0.23l1.99-1.13l2.01,0.45L27.21,21.63z"/>
<line fill="none" stroke="#4C4947" stroke-width="1.3456" stroke-linecap="round" stroke-miterlimit="10" x1="34.48" y1="20.19" x2="34.48" y2="33.65"/>
<path fill="#1B1B1B" d="M59.02,71.82v-7.17c0-0.84,0.46-1.6,1.19-2l2.05-1.12c0.67-0.37,1.5,0.12,1.5,0.89v6.79L59.02,71.82z"/>
<g>
	<g>
		<path fill="#382D21" d="M66.36,61.43C66.4,61.6,66,66.23,66,66.23l-0.22-0.6v-0.99l-0.24-0.23l-0.19-2.98H66.36z"/>
		<path fill="#EFB065" d="M66.43,61.6c0.99-0.94,0.34-1.62,0-2.58c-0.34-0.96-0.32-1.36-0.19-1.65s-0.61,1.25-0.49,2.11
			c0.11,0.87-0.54,0.52-0.62-0.02s-0.77,1.68,0,2.13C65.89,62.06,66.43,61.6,66.43,61.6z"/>
		<path fill="#F1582E" d="M66.25,61.34c0.53-0.43,0.18-0.75,0-1.2c-0.18-0.45-0.17-0.63-0.1-0.76c0.07-0.13-0.33,0.58-0.26,0.98
			c0.06,0.4-0.29,0.24-0.33-0.01c-0.05-0.25-0.41,0.78,0,0.99C65.96,61.55,66.25,61.34,66.25,61.34z"/>
	</g>
	<path fill="#40403F" d="M66.66,62.34c0,0-0.45,0.71-1.56,0.54v0.71c0,0,1.22,0.2,1.56-0.51V62.34z"/>
</g>
<g>
	<g>
		<path fill="#382D21" d="M57.07,65.71c0.04,0.17-0.36,4.79-0.36,4.79l-0.22-0.6v-0.99l-0.24-0.23l-0.19-2.98H57.07z"/>
		<path fill="#EFB065" d="M57.14,65.88c0.99-0.94,0.34-1.62,0-2.58c-0.34-0.96-0.32-1.36-0.19-1.65s-0.61,1.25-0.49,2.11
			c0.11,0.87-0.54,0.52-0.62-0.02c-0.09-0.54-0.77,1.68,0,2.13C56.6,66.33,57.14,65.88,57.14,65.88z"/>
		<path fill="#F1582E" d="M56.95,65.61c0.53-0.43,0.18-0.75,0-1.2s-0.17-0.63-0.1-0.76s-0.33,0.58-0.26,0.98s-0.29,0.24-0.33-0.01
			c-0.05-0.25-0.41,0.78,0,0.99C56.67,65.82,56.95,65.61,56.95,65.61z"/>
	</g>
	<path fill="#40403F" d="M57.36,66.62c0,0-0.45,0.71-1.56,0.54v0.71c0,0,1.22,0.2,1.56-0.51V66.62z"/>
</g>
<circle opacity="0.33" fill="#EFB065" cx="56.57" cy="63.96" r="3.29"/>
<circle opacity="0.33" fill="#EFB065" cx="65.86" cy="59.62" r="3.12"/>
<path fill="#706B7E" d="M42.11,53.98c0,0.23-0.03,0.46-0.04,0.7L37.1,52c0,0-0.83-6.97,2.43-8.91c0,0,0.05,0.06,0.14,0.18
	C40.24,44.07,42.44,47.57,42.11,53.98z"/>
<path fill="#2D2D2D" d="M41.57,53.46c0,0.18-0.02,0.36-0.03,0.55l-3.91-2.11c0,0-0.65-5.48,1.91-7.01c0,0,0.04,0.05,0.11,0.14
	C40.1,45.66,41.83,48.41,41.57,53.46z"/>
<path fill="#1B1B1B" d="M41.57,53.46l-0.74-0.4l-0.14-0.08l-0.61-0.33l-0.14-0.07l-0.95-0.51l-0.75-0.41c0,0-0.16-1.39,0-2.96
	c0.1-0.94,0.31-1.95,0.75-2.77c0.18-0.34,0.39-0.65,0.66-0.9c0.07,0.1,0.17,0.25,0.29,0.45c0.05,0.08,0.09,0.16,0.14,0.25
	c0.19,0.34,0.4,0.78,0.61,1.33c0.05,0.13,0.1,0.26,0.14,0.4C41.31,48.86,41.71,50.86,41.57,53.46z"/>
<g>
	<path fill="#545554" d="M39.09,45.54v6.81c-0.38-0.09-0.61-0.21-0.75-0.32v-5.21C38.43,46.53,38.64,45.94,39.09,45.54z"/>
</g>
<g>
	<path fill="#545554" d="M40.83,47.46v5.9c-0.38-0.09-0.61-0.31-0.75-0.42v-7.21c0.19,0.34,0.4,0.78,0.61,1.33
		C40.74,47.19,40.79,47.32,40.83,47.46z"/>
</g>
<g>
	<polygon fill="#898696" points="37.05,52.41 37.03,51.65 42.1,54.29 42.13,55.06 	"/>
	
		<rect x="41.64" y="54.29" transform="matrix(0.9995 -0.0312 0.0312 0.9995 -1.6842 1.332)" fill="#4D465C" width="0.47" height="0.77"/>
	
		<rect x="36.57" y="51.66" transform="matrix(0.9995 -0.0312 0.0312 0.9995 -1.6046 1.1726)" fill="#898696" width="0.47" height="0.77"/>
	<polygon fill="#746F7F" points="36.58,52.42 36.55,51.67 41.63,54.3 41.65,55.07 	"/>
</g>
<ellipse fill="#751614" cx="54.42" cy="36.42" rx="2.11" ry="1.28"/>
<ellipse fill="#751614" cx="50.19" cy="34.3" rx="1.28" ry="0.78"/>
</svg>
