<?xml version="1.0" encoding="utf-8"?>
<!-- Generator: Adobe Illustrator 25.0.1, SVG Export Plug-In . SVG Version: 6.00 Build 0)  -->
<svg version="1.1" id="Layer_1" xmlns="http://www.w3.org/2000/svg" xmlns:xlink="http://www.w3.org/1999/xlink" x="0px" y="0px"
	 viewBox="0 0 100 100" style="enable-background:new 0 0 100 100;" xml:space="preserve">
<style type="text/css">
	.st0{fill:#4A9167;}
	.st1{fill:#5FA87D;}
	.st2{fill:#544159;}
	.st3{fill:#DA2A69;}
	.st4{fill:#FBF8E1;}
	.st5{fill:none;stroke:#242625;stroke-width:2.6091;stroke-miterlimit:10;}
</style>
<g>
	<path class="st0" d="M33.1,38.5c-0.5-1-8.7-12.8-32.1-12.6c0,0,10.8,4.1,26.2,31.6S33.1,38.5,33.1,38.5z"/>
	<path class="st0" d="M66.9,38.5C69,34.7,75.7,25.7,99,25.9c0,0-10.8,4.1-26.2,31.6S66.9,38.5,66.9,38.5z"/>
	<path class="st1" d="M73.2,30.6c0.3-7.2-9.8-13.2-16.7-16.5c-4.1-1.9-8.8-1.9-12.8,0c-7,3.3-17.1,9.3-16.7,16.5
		c0.8,18.7-8.2,17.7-8.5,25.6C18,63.6,23.9,75,45.8,85.3c2.6,1.2,5.7,1.2,8.4,0C76.1,75,81.9,63.6,81.7,56.2
		C81.4,48.3,72.3,49.3,73.2,30.6z"/>
	<path class="st2" d="M50,58.2V77c0,0-1-0.4-2.7-1.3c-1.2-0.7-2.8-1.5-4.6-2.6c-0.4-0.2-0.8-0.5-1.2-0.7c-2.6-1.7-5.6-3.9-8.4-6.5
		c-3.3-3.1-6.2-6.8-8.1-11.1c0,0,1.3,0.3,3.6,0.6c0.7,0.1,1.4,0.2,2.3,0.4c1,0.2,2.1,0.3,3.4,0.5c1.4,0.2,2.8,0.4,4.5,0.6
		c1.2,0.2,2.4,0.3,3.7,0.5c1.1,0.1,2.2,0.3,3.3,0.4C47.1,57.9,48.5,58,50,58.2z"/>
	<polygon class="st3" points="46.9,44.9 33.1,38.5 32.7,44.8 46.5,47 	"/>
	<path class="st4" d="M41.5,72.4c-2.6-1.7-5.6-3.9-8.3-6.5c0-2.3,0.1-6,1.2-9.6c0.8-2.6,2-5.1,4-7c0,0,0.1,3.2,0.5,7.6
		C39.2,61.5,40,67.5,41.5,72.4z"/>
	<path class="st2" d="M50,58.2V77c0,0,3.8-1.6,8.5-4.6c2.6-1.7,5.6-3.9,8.4-6.5c3.3-3.1,6.2-6.8,8.1-11.1c0,0-3.5,0.7-9.3,1.5
		c-1.4,0.2-2.8,0.4-4.5,0.6C57.9,57.3,54.1,57.8,50,58.2z"/>
	<polygon class="st3" points="53.1,44.9 66.9,38.5 67.3,44.8 53.5,47 	"/>
	<path class="st4" d="M69,55.8c0.6,1.9,1.1,3.7,1.1,3.7c0.7-1.2,1.1-2.7,1.2-4.1C70.6,55.5,69.8,55.6,69,55.8z"/>
	<path class="st4" d="M54.2,57.7c1,2.4,2.1,6.6,2.1,6.6c1.3-2.1,1.3-5,1.2-7C56.4,57.5,55.3,57.6,54.2,57.7z"/>
	<path class="st4" d="M52.7,75.7c1.2-0.7,2.8-1.5,4.6-2.6c-0.3-2-1-4.5-2.8-6.1C54.5,67,53.7,73.3,52.7,75.7z"/>
	<path class="st4" d="M58.5,72.4c2.6-1.7,5.6-3.9,8.3-6.5c0-2.3-0.1-6-1.2-9.6c-0.8-2.6-2-5.1-4-7c0,0-0.1,3.2-0.5,7.6
		C60.8,61.5,60,67.5,58.5,72.4z"/>
	<path class="st4" d="M30.9,55.8c-0.6,1.9-1.1,3.7-1.1,3.7c-0.7-1.2-1.1-2.7-1.2-4.1C29.3,55.5,30.1,55.6,30.9,55.8z"/>
	<path class="st4" d="M45.7,57.7c-1,2.4-2.1,6.6-2.1,6.6c-1.3-2.1-1.3-5-1.2-7C43.5,57.5,44.6,57.6,45.7,57.7z"/>
	<path class="st4" d="M47.2,75.7c-1.2-0.7-2.8-1.5-4.6-2.6c0.3-2,1-4.5,2.8-6.1C45.5,67,46.2,73.3,47.2,75.7z"/>
	<polygon class="st0" points="50,36.6 46.4,36.6 42.9,55.5 50,64.4 	"/>
	<polygon class="st0" points="50,36.6 53.6,36.6 57.1,55.5 50,64.4 	"/>
	<path class="st5" d="M43.6,40.7c0,0-7.3-7.7-12.3-8.1"/>
	<path class="st5" d="M56.3,40.7c0,0,7.3-7.7,12.3-8.1"/>
</g>
</svg>
