<?xml version="1.0" encoding="utf-8"?>
<!-- Generator: Adobe Illustrator 25.0.1, SVG Export Plug-In . SVG Version: 6.00 Build 0)  -->
<svg version="1.1" id="Layer_1" xmlns="http://www.w3.org/2000/svg" xmlns:xlink="http://www.w3.org/1999/xlink" x="0px" y="0px"
	 viewBox="0 0 100 100" enable-background="new 0 0 100 100" xml:space="preserve">
<path fill="#E5E1CC" d="M39.76,22.49c0,0-3.89-11.23-17.16-8.34c0,0,5.7,6.81,2.42,8.34c-3.28,1.53-4.61-1.71-9.57,1.53
	c0,0,6.14,5.68,5.96,9.22c-0.18,3.54,16.09,6.78,16.09,6.78L39.76,22.49z"/>
<path fill="#E5E1CC" d="M60.24,22.49c0,0,3.38-11.93,16.65-9.03c0,0-5.19,7.5-1.91,9.03c3.28,1.53,4.61-1.71,9.57,1.53
	c0,0-6.14,5.68-5.96,9.22s-16.09,6.78-16.09,6.78L60.24,22.49z"/>
<path fill="#925B8E" d="M33.08,39.26C32.58,38.21,24.34,26.44,1,26.61c0,0,10.83,4.06,26.17,31.6S33.08,39.26,33.08,39.26z"/>
<path fill="#92406A" d="M8.77,31.91c-0.03,0.17-0.06,0.35-0.07,0.53c-0.13-0.13-0.26-0.25-0.39-0.38C8.46,32,8.61,31.95,8.77,31.91z
	"/>
<path fill="#925B8E" d="M66.92,39.26C68.99,35.44,75.66,26.44,99,26.6c0,0-10.83,4.06-26.17,31.6S66.92,39.26,66.92,39.26z"/>
<path fill="#A970A4" d="M73.15,31.34c0.32-7.2-9.78-13.19-16.74-16.46c-4.06-1.9-8.77-1.9-12.83,0
	c-6.96,3.26-17.07,9.26-16.74,16.46c0.84,18.7-8.21,17.71-8.52,25.58c-0.28,7.42,5.6,18.84,27.49,29.07c2.64,1.23,5.72,1.23,8.35,0
	c21.91-10.23,27.79-21.64,27.51-29.06C81.37,49.05,72.31,50.04,73.15,31.34z"/>
<path fill="#55425A" d="M49.99,58.91v18.81c0,0-1.04-0.44-2.74-1.3c-1.25-0.65-2.84-1.51-4.62-2.61c-0.39-0.23-0.78-0.47-1.17-0.73
	c-2.64-1.72-5.61-3.91-8.35-6.5c-3.26-3.1-6.24-6.81-8.09-11.09c0,0,1.3,0.26,3.63,0.63c0.68,0.1,1.44,0.23,2.27,0.37
	c1.02,0.16,2.14,0.34,3.37,0.52c1.36,0.21,2.84,0.42,4.46,0.63c1.17,0.16,2.4,0.31,3.68,0.47c1.07,0.13,2.17,0.26,3.31,0.37
	C47.12,58.62,48.53,58.78,49.99,58.91z"/>
<polygon fill="#DC9AB1" points="46.86,45.62 33.08,39.26 32.66,45.58 46.52,47.75 "/>
<path fill="#FAF7E2" d="M41.46,73.09c-2.64-1.72-5.61-3.91-8.35-6.5c-0.03-2.35,0.13-6.03,1.17-9.58c0.76-2.58,1.98-5.09,3.97-6.97
	c0,0,0.08,3.21,0.5,7.59C39.19,62.28,40,68.26,41.46,73.09z"/>
<path fill="#55425A" d="M50.01,58.92v18.81c0,0,3.78-1.59,8.53-4.64c2.64-1.72,5.61-3.91,8.35-6.5c3.26-3.1,6.24-6.81,8.09-11.09
	c0,0-3.52,0.68-9.26,1.51c-1.36,0.21-2.84,0.42-4.46,0.63C57.91,58.08,54.13,58.53,50.01,58.92z"/>
<polygon fill="#DC9AB1" points="53.14,45.62 66.92,39.26 67.34,45.58 53.48,47.75 "/>
<path fill="#FAF7E2" d="M68.99,56.48c0.6,1.93,1.07,3.7,1.07,3.7c0.73-1.17,1.1-2.66,1.2-4.07C70.58,56.22,69.82,56.35,68.99,56.48z
	"/>
<path fill="#FAF7E2" d="M54.17,58.47c1.02,2.37,2.14,6.63,2.14,6.63c1.3-2.06,1.33-5.04,1.17-6.99
	C56.41,58.23,55.31,58.36,54.17,58.47z"/>
<path fill="#FAF7E2" d="M52.65,76.42c1.25-0.65,2.84-1.51,4.62-2.61c-0.29-2.01-1.02-4.51-2.82-6.11
	C54.45,67.7,53.72,74.04,52.65,76.42z"/>
<path fill="#FAF7E2" d="M58.54,73.09c2.64-1.72,5.61-3.91,8.35-6.5c0.03-2.35-0.13-6.03-1.17-9.58c-0.76-2.58-1.98-5.09-3.97-6.97
	c0,0-0.08,3.21-0.5,7.59C60.81,62.28,60,68.26,58.54,73.09z"/>
<path fill="#FAF7E2" d="M30.92,56.48c-0.6,1.93-1.07,3.7-1.07,3.7c-0.73-1.17-1.1-2.66-1.2-4.07
	C29.33,56.22,30.08,56.35,30.92,56.48z"/>
<path fill="#FAF7E2" d="M45.74,58.47c-1.02,2.37-2.14,6.63-2.14,6.63c-1.3-2.06-1.33-5.04-1.17-6.99
	C43.49,58.23,44.59,58.36,45.74,58.47z"/>
<path fill="#FAF7E2" d="M47.25,76.42c-1.25-0.65-2.84-1.51-4.62-2.61c0.29-2.01,1.02-4.51,2.82-6.11
	C45.45,67.7,46.18,74.04,47.25,76.42z"/>
<circle fill="none" stroke="#DA8327" stroke-width="2.6561" stroke-miterlimit="10" cx="49.99" cy="63.72" r="8.55"/>
<g>
	<path fill="#DA8327" d="M8.7,32.44c0.02,0.02,0.05,0.04,0.07,0.07c0.15,0.14,0.3,0.3,0.45,0.45c0.16,0.15,0.31,0.31,0.46,0.47
		c0.26,0.27,0.53,0.54,0.8,0.83c-0.58,0.07-1.14,0.23-1.67,0.45c-2.64,1.07-4.5,3.66-4.5,6.68c0,3.98,3.24,7.22,7.22,7.22
		c3.08,0,5.72-1.94,6.74-4.67c0.31-0.79,0.48-1.65,0.48-2.55c0-0.71-0.1-1.4-0.3-2.04c0.85-0.42,1.61-1.01,2.21-1.73
		c0.48,1.16,0.75,2.43,0.75,3.77c0,1.85-0.51,3.58-1.4,5.07v0.01c-1.74,2.87-4.88,4.8-8.48,4.8c-5.45,0-9.88-4.44-9.88-9.88
		c0-4.32,2.79-8,6.66-9.33L8.7,32.44z"/>
</g>
<polygon fill="#925B8E" points="50,37.31 46.44,37.31 42.87,56.23 50,65.11 "/>
<polygon fill="#925B8E" points="50,37.31 53.56,37.31 57.13,56.23 50,65.11 "/>
<path fill="none" stroke="#242725" stroke-width="2.6091" stroke-miterlimit="10" d="M43.64,41.39c0,0-7.3-7.72-12.28-8.15"/>
<path fill="none" stroke="#242725" stroke-width="2.6091" stroke-miterlimit="10" d="M56.35,41.39c0,0,7.3-7.72,12.28-8.15"/>
<path fill="#E5E1CC" d="M27.6,27.57c0,0,4.04,2.93,1.05,13.82l-2.27-1.37c0,0,0.38-4.43-1.36-9.19S27.6,27.57,27.6,27.57z"/>
<path fill="#E5E1CC" d="M72.36,27.57c0,0-4.04,2.93-1.05,13.82l2.27-1.37c0,0-0.38-4.43,1.36-9.19
	C76.68,26.06,72.36,27.57,72.36,27.57z"/>
</svg>
