<?xml version="1.0" encoding="utf-8"?>
<!-- Generator: Adobe Illustrator 25.0.1, SVG Export Plug-In . SVG Version: 6.00 Build 0)  -->
<svg version="1.1" id="Layer_1" xmlns="http://www.w3.org/2000/svg" xmlns:xlink="http://www.w3.org/1999/xlink" x="0px" y="0px"
	 viewBox="0 0 100 100" enable-background="new 0 0 100 100" xml:space="preserve">
<path fill="#86694A" d="M46.54,99L2.66,74.31c-0.89-0.5-1.38-1.14-1.48-1.79c-0.13-0.82,0.37-1.66,1.48-2.29l43.88-24.69
	c2-1.13,5.25-1.13,7.25,0l43.88,24.69c2,1.13,2,2.95,0,4.08L53.79,99C51.79,100.13,48.54,100.13,46.54,99z"/>
<polygon fill="#86694A" points="1.18,67.99 99.17,67.74 99.17,72.27 1.18,72.52 "/>
<path fill="#3B2E19" d="M46.54,94.47L2.66,69.78c-2-1.13-2-2.95,0-4.08l43.88-24.69c2-1.13,5.25-1.13,7.25,0L97.67,65.7
	c2,1.13,2,2.95,0,4.08L53.79,94.47C51.79,95.6,48.54,95.6,46.54,94.47z"/>
<path fill="#4E5945" d="M46.99,90.48L8.44,68.79c-1.76-0.99-1.76-2.59,0-3.58l38.55-21.69c1.76-0.99,4.61-0.99,6.37,0l38.55,21.69
	c1.76,0.99,1.76,2.59,0,3.58L53.36,90.48C51.6,91.47,48.75,91.47,46.99,90.48z"/>
<path fill="#2D2C2A" d="M48.79-10.56l-20.42-11.5c-0.93-0.53-0.93-1.37,0-1.9l20.42-11.49c0.93-0.53,2.44-0.53,3.37,0l20.42,11.49
	c0.93,0.53,0.93,1.37,0,1.9l-20.41,11.5C51.24-10.04,49.72-10.04,48.79-10.56z"/>
<path fill="#2D2C2A" d="M38.69,78.5l-5.3-2.99c-0.24-0.14-0.24-0.36,0-0.49l5.3-2.98c0.24-0.14,0.63-0.14,0.88,0l5.3,2.98
	c0.24,0.14,0.24,0.36,0,0.49l-5.3,2.99C39.33,78.64,38.94,78.64,38.69,78.5z"/>
<ellipse fill="#293323" cx="74.81" cy="67" rx="1.84" ry="1.11"/>
<ellipse fill="#293323" cx="57.65" cy="80.87" rx="1.84" ry="1.11"/>
<ellipse fill="#293323" cx="23.56" cy="71.18" rx="1.54" ry="0.93"/>
<ellipse fill="#293323" cx="46.87" cy="53.68" rx="1.84" ry="1.11"/>
<ellipse fill="#293323" cx="56.29" cy="55.9" rx="1.2" ry="0.73"/>
<ellipse fill="#293323" cx="40.78" cy="53.68" rx="0.73" ry="0.44"/>
<ellipse fill="#293323" cx="28.99" cy="60.6" rx="0.73" ry="0.44"/>
<polygon fill="#3B2E19" points="33.76,50.95 78.91,76.09 69.94,81.14 24.81,55.99 "/>
<ellipse fill="#293323" cx="131.07" cy="51.3" rx="3.06" ry="1.84"/>
<g>
	<line fill="none" stroke="#607472" stroke-linecap="round" stroke-miterlimit="10" x1="9.07" y1="66.68" x2="9.07" y2="55.72"/>
	<line fill="none" stroke="#607472" stroke-linecap="round" stroke-miterlimit="10" x1="11.72" y1="65.23" x2="11.72" y2="54.28"/>
	<line fill="none" stroke="#607472" stroke-linecap="round" stroke-miterlimit="10" x1="14.37" y1="63.79" x2="14.37" y2="52.83"/>
	<line fill="none" stroke="#607472" stroke-linecap="round" stroke-miterlimit="10" x1="17.03" y1="62.34" x2="17.03" y2="51.38"/>
	<line fill="none" stroke="#607472" stroke-linecap="round" stroke-miterlimit="10" x1="19.68" y1="60.9" x2="19.68" y2="49.94"/>
	<line fill="none" stroke="#607472" stroke-linecap="round" stroke-miterlimit="10" x1="22.33" y1="59.45" x2="22.33" y2="48.49"/>
	<line fill="none" stroke="#607472" stroke-linecap="round" stroke-miterlimit="10" x1="24.99" y1="58.01" x2="24.99" y2="47.05"/>
	<line fill="none" stroke="#4A5B59" stroke-linecap="round" stroke-miterlimit="10" x1="9.07" y1="59.45" x2="25.43" y2="50.07"/>
	<line fill="none" stroke="#4A5B59" stroke-linecap="round" stroke-miterlimit="10" x1="9.07" y1="64.66" x2="25.43" y2="55.28"/>
</g>
<line fill="none" stroke="#607472" stroke-linecap="round" stroke-miterlimit="10" x1="38.25" y1="50.78" x2="38.25" y2="39.82"/>
<line fill="none" stroke="#607472" stroke-linecap="round" stroke-miterlimit="10" x1="40.91" y1="49.33" x2="40.91" y2="38.38"/>
<line fill="none" stroke="#607472" stroke-linecap="round" stroke-miterlimit="10" x1="43.56" y1="47.89" x2="43.56" y2="36.93"/>
<line fill="none" stroke="#607472" stroke-linecap="round" stroke-miterlimit="10" x1="46.21" y1="46.44" x2="46.21" y2="35.49"/>
<line fill="none" stroke="#607472" stroke-linecap="round" stroke-miterlimit="10" x1="48.87" y1="45" x2="48.87" y2="34.04"/>
<g>
	<line fill="none" stroke="#607472" stroke-linecap="round" stroke-miterlimit="10" x1="88.2" y1="65.35" x2="88.2" y2="54.39"/>
	<line fill="none" stroke="#607472" stroke-linecap="round" stroke-miterlimit="10" x1="85.55" y1="63.9" x2="85.55" y2="52.95"/>
	<line fill="none" stroke="#607472" stroke-linecap="round" stroke-miterlimit="10" x1="82.89" y1="62.46" x2="82.89" y2="51.5"/>
	<line fill="none" stroke="#607472" stroke-linecap="round" stroke-miterlimit="10" x1="80.24" y1="61.01" x2="80.24" y2="50.06"/>
	<line fill="none" stroke="#607472" stroke-linecap="round" stroke-miterlimit="10" x1="77.59" y1="59.57" x2="77.59" y2="48.61"/>
	<line fill="none" stroke="#607472" stroke-linecap="round" stroke-miterlimit="10" x1="74.93" y1="58.12" x2="74.93" y2="47.17"/>
	<line fill="none" stroke="#607472" stroke-linecap="round" stroke-miterlimit="10" x1="72.28" y1="56.68" x2="72.28" y2="45.72"/>
	<line fill="none" stroke="#607472" stroke-linecap="round" stroke-miterlimit="10" x1="69.63" y1="55.23" x2="69.63" y2="44.28"/>
	<line fill="none" stroke="#607472" stroke-linecap="round" stroke-miterlimit="10" x1="66.97" y1="53.79" x2="66.97" y2="42.83"/>
	<line fill="none" stroke="#607472" stroke-linecap="round" stroke-miterlimit="10" x1="64.32" y1="52.34" x2="64.32" y2="41.38"/>
	<line fill="none" stroke="#607472" stroke-linecap="round" stroke-miterlimit="10" x1="61.67" y1="50.9" x2="61.67" y2="39.94"/>
	<line fill="none" stroke="#607472" stroke-linecap="round" stroke-miterlimit="10" x1="59.01" y1="49.45" x2="59.01" y2="38.49"/>
	<line fill="none" stroke="#607472" stroke-linecap="round" stroke-miterlimit="10" x1="56.36" y1="48" x2="56.36" y2="37.05"/>
	<line fill="none" stroke="#607472" stroke-linecap="round" stroke-miterlimit="10" x1="53.71" y1="46.56" x2="53.71" y2="35.6"/>
	<line fill="none" stroke="#607472" stroke-linecap="round" stroke-miterlimit="10" x1="51.05" y1="45.11" x2="51.05" y2="34.16"/>
</g>
<polyline fill="none" stroke="#4A5B59" stroke-linecap="round" stroke-miterlimit="10" points="38.25,48.78 48.71,42.7 50.75,42.7 
	90.85,64.11 "/>
<ellipse fill="#293323" cx="45.68" cy="83.89" rx="3.06" ry="1.84"/>
<g>
	<ellipse fill="#353635" cx="18.99" cy="64.59" rx="1.16" ry="0.94"/>
	<ellipse fill="#353635" cx="25.01" cy="64.59" rx="1.16" ry="0.94"/>
	<path fill="#1B1B1B" d="M18.98,65.5h7.37c0,0-2.12-1.45-2.79-2.95c-0.67-1.51,1-3.79,0.28-5.63s-0.5-2.34,1.06-5.57
		s1.11-5.79,1.11-5.79c0.5,1.79-3.84,8.64-3.33,3.03c0.63-6.95-0.54-8.05-0.54-8.05c0.73,1.73-0.59,8.29-2.18,7.62
		c-2.31-0.97-4.31-4.77-4.31-4.77c-0.22,1.95,2.5,4.87,2.61,5.43s-4.74-0.35-5.33-4.25c-0.32-2.13-3.24-3.02-3.24-3.02
		s2.56,1.61,2.34,4.35c-0.2,2.44,2.89,3.68,6.01,5.57c3.12,1.9,3.35,4.01,1.69,7.69S18.98,65.51,18.98,65.5L18.98,65.5z"/>
	<ellipse fill="#353635" cx="18.48" cy="65.99" rx="1.48" ry="1.32"/>
	<circle fill="#353635" cx="20.58" cy="66.11" r="1.16"/>
	<ellipse fill="#353635" cx="22.68" cy="65.88" rx="1.77" ry="2"/>
	<ellipse fill="#353635" cx="25.01" cy="66.4" rx="1.62" ry="1.34"/>
	<ellipse fill="#353635" cx="25.99" cy="65.26" rx="1.16" ry="0.94"/>
</g>
<polyline fill="none" stroke="#4A5B59" stroke-linecap="round" stroke-miterlimit="10" points="38.25,43.85 48.71,37.77 
	50.75,37.77 90.85,59.18 "/>
<g>
	<circle fill="#C9C4B0" cx="64.24" cy="60.71" r="0.49"/>
	<circle fill="#C9C4B0" cx="64.1" cy="61.68" r="0.49"/>
	<circle fill="#C9C4B0" cx="67.07" cy="61.12" r="0.49"/>
	<circle fill="#C9C4B0" cx="66.93" cy="62.09" r="0.49"/>
	
		<rect x="65.2" y="59.98" transform="matrix(0.1426 -0.9898 0.9898 0.1426 -4.5456 117.5755)" fill="#C9C4B0" width="0.78" height="2.86"/>
</g>
<g>
	<circle fill="#C9C4B0" cx="49.24" cy="76.68" r="0.5"/>
	<circle fill="#C9C4B0" cx="49.37" cy="77.66" r="0.5"/>
	<circle fill="#C9C4B0" cx="52.13" cy="76.29" r="0.5"/>
	<circle fill="#C9C4B0" cx="52.26" cy="77.28" r="0.5"/>
	
		<rect x="49.29" y="76.59" transform="matrix(0.9913 -0.1314 0.1314 0.9913 -9.6771 7.3364)" fill="#C9C4B0" width="2.92" height="0.8"/>
</g>
<g>
	<path fill="#485D5A" d="M70.13-38.5c0,0.3-0.2,0.59-0.6,0.82l-17.51,9.85c-0.25,0.14-0.55,0.23-0.86,0.28h-0.04
		c-0.04,0.01-0.06,0.02-0.1,0.02v-31.5l19.11-11C70.12-70.13,70.13-38.5,70.13-38.5z"/>
	<path fill="#607472" d="M50.13-59.03v31.5c-0.04,0-0.06-0.01-0.1-0.02h-0.04c-0.31-0.04-0.61-0.13-0.86-0.28l-17.52-9.85
		c-0.4-0.22-0.59-0.52-0.59-0.82v-31.53L50.13-59.03z"/>
	<path fill="#6C7F7B" d="M69.53-69.22l-17.51,9.86c-0.25,0.14-0.55,0.23-0.86,0.29c-0.38,0.06-0.79,0.06-1.17,0
		c-0.31-0.05-0.61-0.14-0.86-0.29l-17.52-9.86c-0.8-0.45-0.8-1.18,0-1.62l17.52-9.85c0.8-0.45,2.09-0.45,2.89,0l17.51,9.85
		C70.34-70.4,70.34-69.67,69.53-69.22z"/>
	<path fill="#3D514F" d="M50.57-79.08v18.1c-0.16,0-0.32-0.02-0.48-0.04c-0.25-0.04-0.49-0.12-0.7-0.23l-12.12-6.82l-2.3-1.29
		c-0.65-0.37-0.65-0.97,0-1.34l14.42-8.1C49.71-78.99,50.14-79.08,50.57-79.08z"/>
	<path fill="#485D5A" d="M66.16-69.36l-2.3,1.29l-12.11,6.82c-0.21,0.12-0.45,0.19-0.7,0.23c-0.16,0.03-0.32,0.04-0.48,0.04v-18.1
		c0.43,0,0.86,0.09,1.18,0.28l14.41,8.1C66.83-70.33,66.83-69.73,66.16-69.36z"/>
	<path fill="#5A6C67" d="M63.87-68.07l-12.11,6.81c-0.21,0.12-0.45,0.2-0.71,0.24c-0.31,0.06-0.65,0.06-0.96,0
		c-0.25-0.04-0.5-0.12-0.71-0.24l-12.12-6.81l12.12-6.81c0.66-0.37,1.71-0.37,2.37,0L63.87-68.07z"/>
	<path fill="#6C7F7B" d="M51.16-59.07v31.52c-0.38,0.07-0.79,0.07-1.17,0v-31.52C50.37-59.01,50.78-59.01,51.16-59.07z"/>
	<polygon fill="#6C7F7B" points="47.04,-50.23 44.74,-51.58 44.74,-53.43 47.04,-52.08 	"/>
	<polygon fill="#6C7F7B" points="36.11,-59.83 33.82,-61.18 33.82,-63.03 36.11,-61.68 	"/>
	<g>
		<polygon fill="#344743" points="63.59,-42.5 65.87,-43.84 65.87,-45.69 63.59,-44.34 		"/>
		<polygon fill="#344743" points="65.76,-46.7 68.05,-48.05 68.05,-49.89 65.76,-48.54 		"/>
	</g>
	<polygon fill="#344743" points="58.73,-51.66 61.03,-53 61.03,-54.85 58.73,-53.51 	"/>
	<polygon fill="#344743" points="61.87,-56.89 64.17,-58.23 64.17,-60.08 61.87,-58.74 	"/>
	<polygon fill="#344743" points="54.49,-55.86 56.79,-57.21 56.79,-59.05 54.49,-57.7 	"/>
	<polygon fill="#6C7F7B" points="41.75,-42.27 39.45,-43.62 39.45,-45.47 41.75,-44.12 	"/>
	<polygon fill="#6C7F7B" points="46.33,-39.66 44.03,-41.01 44.03,-42.86 46.33,-41.5 	"/>
	<polygon fill="#6C7F7B" points="42.6,-36.08 40.31,-37.43 40.31,-39.28 42.6,-37.93 	"/>
</g>
<path fill="#9A8CC2" d="M26.85-85.07c-4.45,1.21-6.52,5.38-14,4.52c0,0,4.3,1.16,8.79,0.88c-2.15,1.27-4.64,2.35-8.79,1.87
	c0,0,4.84,1.31,9.61,0.8l1.19-1.8l0.64,1.52c0.77-0.16,1.52-0.39,2.23-0.68c5.64-2.37,8.46,2.44,8.46,2.44v-7.77
	C34.96-83.29,31.31-86.26,26.85-85.07z M27.69-82.11l-1.99-0.23l1.99-1.13l2.01,0.45L27.69-82.11z"/>
<line fill="none" stroke="#4D4A48" stroke-width="1.3456" stroke-linecap="round" stroke-miterlimit="10" x1="34.96" y1="-83.55" x2="34.96" y2="-70.09"/>
<path fill="#1B1B1B" d="M59.5-31.92v-7.17c0-0.84,0.46-1.6,1.19-2l2.05-1.12c0.67-0.37,1.5,0.12,1.5,0.89v6.79L59.5-31.92z"/>
<g>
	<g>
		<path fill="#392D21" d="M66.84-42.31c0.04,0.17-0.36,4.8-0.36,4.8l-0.22-0.6v-0.99l-0.24-0.23l-0.19-2.98
			C65.83-42.31,66.84-42.31,66.84-42.31z"/>
		<path fill="#EFB065" d="M66.91-42.14c0.99-0.94,0.34-1.62,0-2.58c-0.34-0.96-0.32-1.36-0.19-1.65s-0.61,1.25-0.49,2.11
			c0.11,0.87-0.54,0.52-0.62-0.02s-0.77,1.68,0,2.13C66.37-41.68,66.91-42.14,66.91-42.14z"/>
		<path fill="#F15A2E" d="M66.73-42.4c0.53-0.43,0.18-0.75,0-1.2s-0.17-0.63-0.1-0.76c0.07-0.13-0.33,0.58-0.26,0.98
			c0.06,0.4-0.29,0.24-0.33-0.01c-0.05-0.25-0.41,0.78,0,0.99C66.44-42.19,66.73-42.4,66.73-42.4z"/>
	</g>
	<path fill="#414140" d="M67.14-41.4c0,0-0.45,0.71-1.56,0.54v0.71c0,0,1.22,0.2,1.56-0.51V-41.4z"/>
</g>
<circle opacity="0.33" fill="#EFB065" enable-background="new    " cx="66.34" cy="-44.12" r="3.12"/>
<path fill="#716C7F" d="M42.59-49.76c0,0.23-0.03,0.46-0.04,0.7l-4.97-2.68c0,0-0.83-6.97,2.43-8.91c0,0,0.05,0.06,0.14,0.18
	C40.72-59.67,42.92-56.17,42.59-49.76z"/>
<path fill="#2D2E2D" d="M42.05-50.28c0,0.18-0.02,0.36-0.03,0.55l-3.91-2.11c0,0-0.65-5.48,1.91-7.01c0,0,0.04,0.05,0.11,0.14
	C40.58-58.08,42.31-55.33,42.05-50.28z"/>
<path fill="#1B1B1B" d="M42.05-50.28l-0.74-0.4l-0.14-0.08l-0.61-0.33l-0.14-0.07l-0.95-0.51l-0.75-0.41c0,0-0.16-1.39,0-2.96
	c0.1-0.94,0.31-1.95,0.75-2.77c0.18-0.34,0.39-0.65,0.66-0.9c0.07,0.1,0.17,0.25,0.29,0.45c0.05,0.08,0.09,0.16,0.14,0.25
	c0.19,0.34,0.4,0.78,0.61,1.33c0.05,0.13,0.1,0.26,0.14,0.4C41.79-54.88,42.19-52.88,42.05-50.28z"/>
<g>
	<path fill="#555655" d="M39.57-58.2v6.81c-0.38-0.09-0.61-0.21-0.75-0.32v-5.21C38.91-57.21,39.12-57.8,39.57-58.2z"/>
</g>
<g>
	<path fill="#555655" d="M41.31-56.28v5.9c-0.38-0.09-0.61-0.31-0.75-0.42v-7.21c0.19,0.34,0.4,0.78,0.61,1.33
		C41.22-56.55,41.27-56.42,41.31-56.28z"/>
</g>
<g>
	<polygon fill="#8A8696" points="37.53,-51.33 37.51,-52.09 42.58,-49.45 42.61,-48.68 	"/>
	
		<rect x="42.12" y="-49.45" transform="matrix(0.9995 -0.0312 0.0312 0.9995 1.5516 1.2978)" fill="#4E465D" width="0.47" height="0.77"/>
	
		<rect x="37.06" y="-52.08" transform="matrix(0.9995 -0.0312 0.0312 0.9995 1.6312 1.1383)" fill="#8A8696" width="0.47" height="0.77"/>
	<polygon fill="#757080" points="37.06,-51.32 37.03,-52.07 42.11,-49.44 42.13,-48.67 	"/>
</g>
<ellipse fill="#751815" cx="54.9" cy="-67.32" rx="2.11" ry="1.28"/>
<ellipse fill="#751815" cx="50.67" cy="-69.44" rx="1.28" ry="0.78"/>
<polygon fill="#9A968F" points="145.46,38.15 145.46,33.04 148.58,34.8 148.58,39.85 "/>
<polygon fill="#9A968F" points="131.07,17.72 131.07,3.5 134.2,5.26 134.2,19.43 "/>
<polygon fill="#9A968F" points="128.67,6.03 136.64,10.36 136.57,14.12 128.65,9.74 "/>
<polygon fill="#485D5A" points="166.42,67.38 163.97,66.05 163.97,62.28 160.85,60.52 160.85,64.35 158.45,63.05 158.42,66.76 
	160.85,68.1 160.85,74.74 163.97,76.45 163.97,69.83 166.34,71.14 "/>
<polygon fill="#485D5A" points="162.35,77.42 163.97,76.45 163.97,69.83 164.72,72.11 166.34,71.14 166.42,67.38 164.8,68.35 
	162.35,70.8 "/>
<polygon fill="#6C7F7B" points="156.83,64.02 158.45,63.05 160.85,64.35 159.23,61.5 160.85,60.52 163.97,62.28 162.35,63.26 
	159.23,65.33 "/>
<polygon fill="#607472" points="164.8,68.35 162.35,67.02 162.35,63.26 159.23,61.5 159.23,65.33 156.83,64.02 156.81,67.73 
	159.23,69.07 159.23,75.72 162.35,77.42 162.35,70.8 164.72,72.11 "/>
<path fill="#9A968F" d="M152.83,38.15v-3.27c0-0.82,0.88-1.34,1.6-0.93l0,0c0.94,0.53,1.53,1.53,1.53,2.61v3.3L152.83,38.15z"/>
<g>
	<path fill="#293323" d="M165.07,26.24l-4.9-2.6c-0.2-0.11-0.21-0.39-0.01-0.5l1.94-1.16l5.19,2.8c0.18,0.1,0.19,0.35,0.01,0.46
		l-1.63,0.98C165.49,26.33,165.26,26.34,165.07,26.24z"/>
	<path fill="#485D5A" d="M162.34,22.58v-4.63c0-1.16,1.25-1.89,2.26-1.32v0c1.33,0.75,2.16,2.16,2.16,3.69v4.67L162.34,22.58z"/>
	<polygon fill="#485D5A" points="165.32,25.82 166.76,24.99 166.14,21.39 163.17,16.61 161.61,17.49 	"/>
	<path fill="#607472" d="M160.9,23.4v-4.63c0-1.16,1.25-1.89,2.26-1.32v0c1.33,0.75,2.16,2.16,2.16,3.69v4.67L160.9,23.4z"/>
	<g>
		<polygon fill="#485D5A" points="164.46,21.54 161.75,20.23 161.72,19.66 164.46,20.99 		"/>
	</g>
	<g>
		<polygon fill="#485D5A" points="164.35,22.92 161.64,21.6 161.61,21.03 164.35,22.36 		"/>
	</g>
</g>
<g>
	<path fill="#2D2C2A" d="M80.79,66l-6.3-3.34c-0.25-0.14-0.26-0.5-0.02-0.65l2.5-1.5l6.67,3.6c0.23,0.13,0.24,0.45,0.01,0.59
		l-2.09,1.27C81.33,66.13,81.04,66.13,80.79,66z"/>
	<path fill="#6D8081" d="M77.29,61.31v-5.95c0-1.49,1.6-2.43,2.9-1.7h0c1.71,0.97,2.77,2.78,2.77,4.75v6L77.29,61.31z"/>
	<polygon fill="#6D8081" points="81.12,65.46 82.97,64.41 82.17,59.77 78.35,53.62 76.35,54.76 	"/>
	<path fill="#889697" d="M75.44,62.36v-5.95c0-1.49,1.6-2.43,2.9-1.7h0c1.71,0.97,2.77,2.78,2.77,4.75v6L75.44,62.36z"/>
	<g>
		<polygon fill="#6D8081" points="80.01,59.97 76.53,58.28 76.49,57.55 80.01,59.25 		"/>
	</g>
	<g>
		<polygon fill="#6D8081" points="79.87,61.73 76.39,60.05 76.35,59.31 79.87,61.02 		"/>
	</g>
</g>
<g>
	<path fill="#2D2C2A" d="M68.38,59.28l-6.3-3.34c-0.25-0.14-0.26-0.5-0.02-0.65l2.5-1.5l6.67,3.6c0.23,0.13,0.24,0.45,0.01,0.59
		l-2.09,1.27C68.92,59.4,68.62,59.41,68.38,59.28z"/>
	<path fill="#6D8081" d="M64.88,54.58v-5.95c0-1.49,1.6-2.43,2.9-1.7v0c1.71,0.97,2.77,2.78,2.77,4.75v6L64.88,54.58z"/>
	<polygon fill="#6D8081" points="68.7,58.74 70.55,57.68 69.76,53.04 65.94,46.9 63.94,48.04 	"/>
	<path fill="#889697" d="M63.03,55.64v-5.95c0-1.49,1.6-2.43,2.9-1.7v0c1.71,0.97,2.77,2.78,2.77,4.75v6L63.03,55.64z"/>
	<g>
		<polygon fill="#6D8081" points="67.6,53.24 64.12,51.56 64.08,50.82 67.6,52.53 		"/>
	</g>
	<g>
		<polygon fill="#6D8081" points="67.46,55.01 63.98,53.32 63.94,52.59 67.46,54.29 		"/>
	</g>
</g>
<g>
	<path fill="#2D2C2A" d="M55.97,52.76l-6.3-3.34c-0.25-0.14-0.26-0.5-0.02-0.65l2.5-1.5l6.67,3.6c0.23,0.13,0.24,0.45,0.01,0.59
		l-2.09,1.27C56.51,52.88,56.21,52.89,55.97,52.76z"/>
	<path fill="#6D8081" d="M52.47,48.06v-5.95c0-1.49,1.6-2.43,2.9-1.7l0,0c1.71,0.97,2.77,2.78,2.77,4.75v6L52.47,48.06z"/>
	<polygon fill="#6D8081" points="56.29,52.22 58.14,51.16 57.35,46.52 53.53,40.38 51.53,41.52 	"/>
	<path fill="#889697" d="M50.61,49.12v-5.95c0-1.49,1.6-2.43,2.9-1.7l0,0c1.71,0.97,2.77,2.78,2.77,4.75v6L50.61,49.12z"/>
	<g>
		<polygon fill="#6D8081" points="55.19,46.73 51.71,45.04 51.67,44.31 55.19,46.01 		"/>
	</g>
	<g>
		<polygon fill="#6D8081" points="55.05,48.49 51.57,46.8 51.53,46.07 55.05,47.78 		"/>
	</g>
</g>
<g>
	<ellipse fill="#344743" cx="42.66" cy="62.09" rx="3.28" ry="1.98"/>
	<ellipse fill="#344743" cx="50.75" cy="66.58" rx="2.25" ry="1.36"/>
	<ellipse fill="#344743" cx="30.17" cy="55.73" rx="1.84" ry="1.11"/>
	<ellipse fill="#344743" cx="48.71" cy="62.58" rx="1.84" ry="1.11"/>
	<ellipse fill="#344743" cx="45.91" cy="65" rx="1.41" ry="0.85"/>
	<ellipse fill="#344743" cx="41.21" cy="58.07" rx="1.84" ry="1.11"/>
	<ellipse fill="#344743" cx="37.29" cy="59.66" rx="1.56" ry="0.94"/>
	<ellipse fill="#344743" cx="32.81" cy="53.68" rx="0.95" ry="0.57"/>
	<ellipse fill="#344743" cx="32.3" cy="58.03" rx="0.95" ry="0.57"/>
	<ellipse fill="#344743" cx="54.59" cy="65.19" rx="1.16" ry="0.7"/>
	<ellipse fill="#344743" cx="45.03" cy="59.18" rx="0.95" ry="0.57"/>
	<ellipse fill="#344743" cx="36.09" cy="55.9" rx="3.28" ry="1.98"/>
</g>
<g>
	<ellipse fill="#344743" cx="67.2" cy="75.57" rx="3.28" ry="1.98"/>
	<ellipse fill="#344743" cx="54.71" cy="69.2" rx="1.84" ry="1.11"/>
	<ellipse fill="#344743" cx="73.25" cy="76.06" rx="1.84" ry="1.11"/>
	<ellipse fill="#344743" cx="70.45" cy="78.48" rx="1.41" ry="0.85"/>
	<ellipse fill="#344743" cx="65.75" cy="71.55" rx="1.84" ry="1.11"/>
	<ellipse fill="#344743" cx="61.83" cy="73.14" rx="1.56" ry="0.94"/>
	<ellipse fill="#344743" cx="57.35" cy="67.16" rx="0.95" ry="0.57"/>
	<ellipse fill="#344743" cx="56.84" cy="71.51" rx="0.95" ry="0.57"/>
	<ellipse fill="#344743" cx="71.78" cy="74.08" rx="0.95" ry="0.57"/>
	<ellipse fill="#344743" cx="69.57" cy="72.66" rx="0.95" ry="0.57"/>
	<ellipse fill="#344743" cx="60.63" cy="69.37" rx="3.28" ry="1.98"/>
</g>
<polygon fill="#6C7F7B" points="166.42,67.38 163.97,66.05 162.35,67.02 164.8,68.35 "/>
<g>
	<g>
		<polygon fill="#6D8081" points="43.39,67.57 41.18,66.37 41.18,63.68 38.35,62.09 38.35,64.84 36.18,63.66 36.16,67.01 
			38.35,68.22 38.35,74.23 41.18,75.77 41.18,69.78 43.32,70.97 		"/>
		<polygon fill="#6D8081" points="39.72,76.65 41.18,75.77 41.18,69.78 41.86,71.85 43.32,70.97 43.39,67.57 41.93,68.45 
			39.72,70.67 		"/>
		<polygon fill="#96A2A2" points="34.72,64.54 36.18,63.66 38.35,64.84 36.89,62.97 38.35,62.09 41.18,63.68 39.72,64.56 
			36.89,65.72 		"/>
		<polygon fill="#889697" points="41.93,68.45 39.72,67.25 39.72,64.56 36.89,62.97 36.89,65.72 34.72,64.54 34.7,67.89 
			36.89,69.11 36.89,75.11 39.72,76.65 39.72,70.67 41.86,71.85 		"/>
		<polygon fill="#96A2A2" points="43.39,67.57 41.18,66.37 39.72,67.25 41.93,68.45 		"/>
	</g>
</g>
<line fill="none" stroke="#4A5B59" stroke-linecap="round" stroke-miterlimit="10" x1="50.17" y1="82.68" x2="9.36" y2="59.75"/>
<line fill="none" stroke="#4A5B59" stroke-linecap="round" stroke-miterlimit="10" x1="50.17" y1="87.85" x2="9.36" y2="64.93"/>
<line fill="none" stroke="#4A5B59" stroke-linecap="round" stroke-miterlimit="10" x1="50.12" y1="82.84" x2="66.48" y2="73.45"/>
<line fill="none" stroke="#4A5B59" stroke-linecap="round" stroke-miterlimit="10" x1="50.12" y1="88.05" x2="66.48" y2="78.66"/>
<g>
	<line fill="none" stroke="#607472" stroke-linecap="round" stroke-miterlimit="10" x1="49.84" y1="90.17" x2="49.99" y2="79.22"/>
	<line fill="none" stroke="#607472" stroke-linecap="round" stroke-miterlimit="10" x1="47.21" y1="88.69" x2="47.36" y2="77.74"/>
	<line fill="none" stroke="#607472" stroke-linecap="round" stroke-miterlimit="10" x1="44.58" y1="87.21" x2="44.73" y2="76.25"/>
	<line fill="none" stroke="#607472" stroke-linecap="round" stroke-miterlimit="10" x1="41.94" y1="85.73" x2="42.09" y2="74.77"/>
	<line fill="none" stroke="#607472" stroke-linecap="round" stroke-miterlimit="10" x1="39.31" y1="84.25" x2="39.46" y2="73.29"/>
	<line fill="none" stroke="#607472" stroke-linecap="round" stroke-miterlimit="10" x1="36.68" y1="82.77" x2="36.82" y2="71.81"/>
	<line fill="none" stroke="#607472" stroke-linecap="round" stroke-miterlimit="10" x1="34.04" y1="81.29" x2="34.19" y2="70.33"/>
	<line fill="none" stroke="#607472" stroke-linecap="round" stroke-miterlimit="10" x1="31.41" y1="79.8" x2="31.56" y2="68.85"/>
	<line fill="none" stroke="#607472" stroke-linecap="round" stroke-miterlimit="10" x1="28.78" y1="78.32" x2="28.92" y2="67.37"/>
	<line fill="none" stroke="#607472" stroke-linecap="round" stroke-miterlimit="10" x1="26.14" y1="76.84" x2="26.29" y2="65.89"/>
	<line fill="none" stroke="#607472" stroke-linecap="round" stroke-miterlimit="10" x1="23.51" y1="75.36" x2="23.66" y2="64.4"/>
	<line fill="none" stroke="#607472" stroke-linecap="round" stroke-miterlimit="10" x1="20.88" y1="73.88" x2="21.02" y2="62.92"/>
	<line fill="none" stroke="#607472" stroke-linecap="round" stroke-miterlimit="10" x1="18.24" y1="72.4" x2="18.39" y2="61.44"/>
	<line fill="none" stroke="#607472" stroke-linecap="round" stroke-miterlimit="10" x1="15.61" y1="70.92" x2="15.76" y2="59.96"/>
	<line fill="none" stroke="#607472" stroke-linecap="round" stroke-miterlimit="10" x1="12.97" y1="69.43" x2="13.12" y2="58.48"/>
	<line fill="none" stroke="#607472" stroke-linecap="round" stroke-miterlimit="10" x1="10.34" y1="67.95" x2="10.49" y2="57"/>
</g>
<line fill="none" stroke="#607472" stroke-linecap="round" stroke-miterlimit="10" x1="52.77" y1="88.62" x2="52.77" y2="77.66"/>
<line fill="none" stroke="#607472" stroke-linecap="round" stroke-miterlimit="10" x1="55.42" y1="87.17" x2="55.42" y2="76.22"/>
<line fill="none" stroke="#607472" stroke-linecap="round" stroke-miterlimit="10" x1="58.08" y1="85.73" x2="58.08" y2="74.77"/>
<line fill="none" stroke="#607472" stroke-linecap="round" stroke-miterlimit="10" x1="60.73" y1="84.28" x2="60.73" y2="73.33"/>
<line fill="none" stroke="#607472" stroke-linecap="round" stroke-miterlimit="10" x1="63.38" y1="82.84" x2="63.38" y2="71.88"/>
<line fill="none" stroke="#607472" stroke-linecap="round" stroke-miterlimit="10" x1="66.04" y1="81.39" x2="66.04" y2="70.44"/>
<line fill="none" stroke="#4A5B59" stroke-linecap="round" stroke-miterlimit="10" x1="77.44" y1="66.78" x2="91.15" y2="58.92"/>
<line fill="none" stroke="#4A5B59" stroke-linecap="round" stroke-miterlimit="10" x1="77.44" y1="71.99" x2="91.15" y2="64.13"/>
<line fill="none" stroke="#607472" stroke-linecap="round" stroke-miterlimit="10" x1="77.44" y1="74.09" x2="77.44" y2="63.13"/>
<line fill="none" stroke="#607472" stroke-linecap="round" stroke-miterlimit="10" x1="80.09" y1="72.64" x2="80.09" y2="61.69"/>
<line fill="none" stroke="#607472" stroke-linecap="round" stroke-miterlimit="10" x1="82.74" y1="71.2" x2="82.74" y2="60.24"/>
<line fill="none" stroke="#607472" stroke-linecap="round" stroke-miterlimit="10" x1="85.4" y1="69.75" x2="85.4" y2="58.79"/>
<line fill="none" stroke="#607472" stroke-linecap="round" stroke-miterlimit="10" x1="88.05" y1="68.31" x2="88.05" y2="57.35"/>
<line fill="none" stroke="#607472" stroke-linecap="round" stroke-miterlimit="10" x1="91.15" y1="66.93" x2="91.15" y2="55.98"/>
<g>
	
		<line fill="none" stroke="#414140" stroke-width="0.75" stroke-linecap="round" stroke-miterlimit="10" x1="28.99" y1="50.15" x2="28.99" y2="60.4"/>
	<g>
		<g>
			<path fill="#392D21" d="M30.26,48.7c0.04,0.17-0.36,4.79-0.36,4.79l-0.22-0.6V51.9l-0.24-0.23l-0.19-2.98h1.01V48.7z"/>
			<path fill="#EFB065" d="M30.33,48.87c0.99-0.94,0.34-1.62,0-2.58s-0.32-1.36-0.19-1.65s-0.61,1.25-0.49,2.11
				c0.11,0.87-0.54,0.52-0.62-0.02c-0.09-0.54-0.77,1.68,0,2.13C29.79,49.32,30.33,48.87,30.33,48.87z"/>
			<path fill="#F15A2E" d="M30.14,48.6c0.53-0.43,0.18-0.75,0-1.2s-0.17-0.63-0.1-0.76s-0.33,0.58-0.26,0.98s-0.29,0.24-0.33-0.01
				c-0.05-0.25-0.41,0.78,0,0.99C29.86,48.81,30.14,48.6,30.14,48.6z"/>
		</g>
		<path fill="#414140" d="M30.55,49.61c0,0-0.45,0.71-1.56,0.54v0.71c0,0,1.22,0.2,1.56-0.51V49.61z"/>
	</g>
	<circle opacity="0.33" fill="#EFB065" enable-background="new    " cx="29.76" cy="46.95" r="3.29"/>
</g>
<g>
	
		<line fill="none" stroke="#414140" stroke-width="0.75" stroke-linecap="round" stroke-miterlimit="10" x1="40.78" y1="43.23" x2="40.78" y2="53.48"/>
	<g>
		<g>
			<path fill="#392D21" d="M42.05,41.78c0.04,0.17-0.36,4.79-0.36,4.79l-0.22-0.6v-0.99l-0.24-0.23l-0.19-2.98h1.01V41.78z"/>
			<path fill="#EFB065" d="M42.12,41.95c0.99-0.94,0.34-1.62,0-2.58s-0.32-1.36-0.19-1.65s-0.61,1.25-0.49,2.11
				c0.11,0.87-0.54,0.52-0.62-0.02c-0.09-0.54-0.77,1.68,0,2.13C41.58,42.4,42.12,41.95,42.12,41.95z"/>
			<path fill="#F15A2E" d="M41.93,41.68c0.53-0.43,0.18-0.75,0-1.2s-0.17-0.63-0.1-0.76s-0.33,0.58-0.26,0.98s-0.29,0.24-0.33-0.01
				c-0.05-0.25-0.41,0.78,0,0.99C41.65,41.89,41.93,41.68,41.93,41.68z"/>
		</g>
		<path fill="#414140" d="M42.34,42.69c0,0-0.45,0.71-1.56,0.54v0.71c0,0,1.22,0.2,1.56-0.51V42.69z"/>
	</g>
	<circle opacity="0.33" fill="#EFB065" enable-background="new    " cx="41.55" cy="40.03" r="3.29"/>
</g>
</svg>
