<?xml version="1.0" encoding="utf-8"?>
<!-- Generator: Adobe Illustrator 25.0.1, SVG Export Plug-In . SVG Version: 6.00 Build 0)  -->
<svg version="1.1" id="Layer_1" xmlns="http://www.w3.org/2000/svg" xmlns:xlink="http://www.w3.org/1999/xlink" x="0px" y="0px"
	 viewBox="0 0 100 100" enable-background="new 0 0 100 100" xml:space="preserve">
<path fill="#86694A" d="M46.4,99.19L2.5,74.49c-0.9-0.5-1.4-1.1-1.5-1.8c-0.1-0.8,0.4-1.7,1.5-2.3l43.9-24.7c2-1.1,5.2-1.1,7.2,0
	l43.9,24.7c2,1.1,2,2.9,0,4.1l-43.9,24.7C51.6,100.29,48.4,100.29,46.4,99.19z"/>
<polygon fill="#86694A" points="1,68.19 99,67.89 99,72.39 1,72.69 "/>
<path fill="#3B2E19" d="M46.4,94.59L2.5,69.89c-2-1.1-2-2.9,0-4.1l43.9-24.7c2-1.1,5.2-1.1,7.2,0l43.9,24.7c2,1.1,2,2.9,0,4.1
	l-43.9,24.7C51.6,95.79,48.4,95.79,46.4,94.59z"/>
<path fill="#2D2A27" d="M46.86,91L8.36,69.3c-1.8-1-1.8-2.6,0-3.6L46.86,44c1.8-1,4.6-1,6.4,0l38.5,21.7c1.8,1,1.8,2.6,0,3.6
	L53.26,91C51.56,91.9,48.66,91.9,46.86,91z"/>
<path fill="#3D3E3D" d="M47.31,87.68L14.24,69.04c-1.55-0.86-1.55-2.23,0-3.09l33.07-18.64c1.55-0.86,3.95-0.86,5.5,0l33.07,18.64
	c1.55,0.86,1.55,2.23,0,3.09L52.81,87.68C51.35,88.45,48.86,88.45,47.31,87.68z"/>
<path fill="#2D2A27" d="M49.15,77.25l-16.97-9.56c-0.79-0.44-0.79-1.15,0-1.59l16.97-9.56c0.79-0.44,2.03-0.44,2.82,0l16.97,9.56
	c0.79,0.44,0.79,1.15,0,1.59l-16.97,9.56C51.22,77.64,49.94,77.64,49.15,77.25z"/>
<g>
	<path fill="#646362" d="M49.78,47.88c1.09-0.04,2.2,0.19,3.06,0.66l30.31,17.08l0.2-0.12c0.49-0.28,0.82-0.62,0.97-0.97
		c0.3-0.67-0.03-1.39-0.97-1.91L52.61,45.3c-0.77-0.43-1.78-0.63-2.76-0.59L49.78,47.88z"/>
	<path fill="#4D4D4D" d="M16.76,62.63L47.5,45.3c0.66-0.37,1.5-0.56,2.35-0.59l-0.07,3.16c-0.95,0.02-1.9,0.24-2.65,0.66
		L16.89,65.57l-0.13-0.07c-0.49-0.28-0.82-0.62-0.97-0.97C15.5,63.86,15.83,63.14,16.76,62.63z"/>
	<path fill="#4D4D4D" d="M50.03,85.67h0.07c1.01-0.01,2.03-0.22,2.82-0.61l33.91-19.11l0.49-0.28c0.81-0.45,1.21-1.03,1.21-1.61
		v3.77c0,0.58-0.41,1.16-1.21,1.61l-34.4,19.39c-0.81,0.4-1.86,0.61-2.91,0.61L50.03,85.67z"/>
	<path fill="#646362" d="M50.03,85.67l-0.02,3.77c-1.03,0-2.05-0.21-2.81-0.61l-13.52-7.62v-3.77l13.52,7.62
		C47.96,85.46,48.98,85.67,50.03,85.67z"/>
	<path fill="#646362" d="M11.6,67.52v-3.48l4.2,2.42l-0.03,0.88l11.28,6.38l0,0l-0.09,3.72l-14.16-8c-0.94-0.52-1.33-1.23-1.17-1.9
		l-0.04-0.02C11.59,67.52,11.6,67.52,11.6,67.52z"/>
	<path fill="#817E7B" d="M12.79,65.67l0.49,0.28l13.76,7.76l1.97-1.29L16.76,65.5c-0.49-0.28-0.82-0.62-0.97-0.97
		c-0.3-0.67,0.03-1.39,0.97-1.91L47.5,45.29c1.44-0.8,3.67-0.8,5.11,0l30.74,17.33c0.93,0.52,1.26,1.24,0.97,1.91
		c-0.15,0.35-0.48,0.69-0.97,0.97L52.61,82.83c-1.44,0.71-3.75,0.71-5.11,0l-11.62-6.55l-2.2,1.16l13.52,7.62
		c0.78,0.41,1.84,0.62,2.9,0.61c1.01-0.01,2.03-0.22,2.82-0.61l33.91-19.11l0.49-0.28c0.81-0.45,1.21-1.03,1.21-1.61v-0.04
		c-0.02-0.57-0.42-1.13-1.21-1.57l-34.4-19.39c-1.61-0.89-4.11-0.89-5.72,0L12.8,62.45C11.19,63.35,11.19,64.78,12.79,65.67z"/>
	<polygon fill="#4D4D4D" points="27.05,73.72 26.96,77.44 28.95,76.22 29.02,72.42 	"/>
</g>
<path fill="#D4D4D4" d="M50.44,51.06v24.28c-0.37,0-0.74-0.07-1.02-0.21l-13.05-7.36c-0.44-0.25-0.56-0.59-0.36-0.9h-0.09V51.06
	H50.44z"/>
<line fill="none" stroke="#563C30" stroke-width="0.8563" stroke-linecap="round" stroke-miterlimit="10" x1="40.07" y1="53.25" x2="40.07" y2="69.47"/>
<path fill="#B8B7B7" d="M65.1,66.87H65c0.2,0.31,0.09,0.66-0.36,0.9l-13.05,7.36c-0.31,0.16-0.73,0.23-1.15,0.21V51.06H65.1V66.87z"
	/>
<polyline fill="none" stroke="#563C30" stroke-width="0.6809" stroke-linecap="round" stroke-miterlimit="10" points="36.22,55.79 
	50.48,63.76 64.91,55.79 "/>
<polyline fill="none" stroke="#563C30" stroke-width="0.6809" stroke-linecap="round" stroke-miterlimit="10" points="36.22,57.38 
	50.48,65.34 64.91,57.38 "/>
<polyline fill="none" stroke="#563C30" stroke-width="0.6809" stroke-linecap="round" stroke-miterlimit="10" points="36.22,65.92 
	50.48,73.88 64.91,65.92 "/>
<line fill="none" stroke="#A15C26" stroke-width="1.7126" stroke-miterlimit="10" x1="65.1" y1="51.33" x2="65.1" y2="67.55"/>
<line fill="none" stroke="#A15C26" stroke-width="1.7126" stroke-miterlimit="10" x1="36.14" y1="51.33" x2="36.14" y2="67.55"/>
<line fill="none" stroke="#563C30" stroke-width="0.8563" stroke-linecap="round" stroke-miterlimit="10" x1="45.1" y1="56.2" x2="45.1" y2="72.42"/>
<line fill="none" stroke="#563C30" stroke-width="0.8563" stroke-linecap="round" stroke-miterlimit="10" x1="60.97" y1="53.25" x2="60.97" y2="69.47"/>
<line fill="none" stroke="#563C30" stroke-width="0.8563" stroke-linecap="round" stroke-miterlimit="10" x1="55.94" y1="56.2" x2="55.94" y2="72.42"/>
<line fill="none" stroke="#A15C26" stroke-width="2.4305" stroke-miterlimit="10" x1="50.46" y1="58.76" x2="50.46" y2="74.98"/>
<polyline fill="none" stroke="#563C30" stroke-width="0.8563" stroke-linecap="round" stroke-miterlimit="10" points="35.46,67.12 
	50.5,75.47 65.78,67 "/>
<path fill="#888677" d="M50.45,43.7v17.89c-0.4-0.01-0.81-0.09-1.13-0.24l-14.23-8.02c-0.34-0.19-0.5-0.44-0.49-0.68v-1.53h2.06
	l12.67-7.14C49.64,43.8,50.04,43.71,50.45,43.7z"/>
<path fill="#427FA9" d="M50.45,42.13v17.91c-0.4-0.01-0.81-0.09-1.13-0.25L35.5,52l-0.41-0.23c-0.11-0.06-0.2-0.13-0.28-0.21
	c-0.12-0.12-0.2-0.26-0.21-0.4c-0.01-0.02-0.01-0.03-0.01-0.05c0-0.16,0.08-0.33,0.23-0.47c0.07-0.08,0.16-0.15,0.27-0.21l0.42-0.23
	l0.54-0.31c2.79-0.71,6.05-2.84,8.76-4.93l4.51-2.55C49.64,42.23,50.04,42.14,50.45,42.13z"/>
<path fill="#727067" d="M66.42,51.12v1.53c0.01,0.25-0.16,0.5-0.5,0.68l-14.23,8.02c-0.33,0.17-0.78,0.26-1.24,0.24V43.7
	c0.44-0.01,0.89,0.09,1.24,0.28l12.67,7.14H66.42z"/>
<path fill="#37729C" d="M66.42,51.11c0,0.02,0,0.03-0.01,0.05c-0.01,0.14-0.08,0.28-0.21,0.4c-0.07,0.08-0.16,0.15-0.28,0.21
	L65.51,52l-13.82,7.79c-0.33,0.17-0.78,0.26-1.24,0.25V42.13h0.06c0.42,0,0.85,0.09,1.18,0.28l4.38,2.47c0,0,0,0,0.01,0.01
	c2.75,2.13,6.07,4.31,8.9,5.02c0,0,0,0,0.01,0L65,49.91l0.92,0.52C66.26,50.62,66.42,50.87,66.42,51.11z"/>
<polyline fill="none" stroke="#563C30" stroke-width="0.7766" stroke-linecap="round" stroke-miterlimit="10" points="34.2,51.16 
	50.46,60.24 66.92,51.16 "/>
<path fill="#BA6A28" d="M50.51,40v2.53c-0.01,0.01-0.02,0.02-0.02,0.02c-0.19,0.19-0.37,0.37-0.56,0.56
	c-0.68,0.68-1.37,1.31-2.07,1.89c-3.46,2.95-7,4.8-10.1,5.64c-0.76,0.2-1.5,0.35-2.2,0.43c-0.11,0.01-0.22,0.02-0.32,0.03
	c-0.23,0.02-0.44,0.04-0.66,0.05c0,0,0,0-0.01,0c-2.17,0.09-3.96-0.46-5.09-1.59c-2.31-2.31,2.52-4.31,2.52-2.83
	c0,0.89-0.5,0.85-0.89,0.68c-0.37-0.16-0.79-0.01-0.98,0.35c-0.41,0.78-0.4,2.04,3.7,2.35c0.65,0.05,1.36-0.03,2.1-0.21
	c0.04-0.01,0.07-0.02,0.1-0.02c2.79-0.71,6.05-2.84,8.76-4.93c0.43-0.33,0.83-0.65,1.23-0.98c1.04-0.85,1.96-1.65,2.69-2.32
	c0.95-0.85,1.58-1.47,1.74-1.62c0.01-0.01,0.02-0.02,0.02-0.02C50.5,40.01,50.51,40,50.51,40z"/>
<path fill="#A35826" d="M71.49,49.57c-1.13,1.13-2.9,1.67-5.06,1.59c-0.01,0-0.01,0-0.01,0c-0.23-0.01-0.47-0.02-0.7-0.05
	c-0.09-0.01-0.18-0.02-0.27-0.03c-0.71-0.09-1.46-0.23-2.24-0.43c-3.09-0.83-6.62-2.68-10.08-5.62c-0.7-0.59-1.4-1.23-2.09-1.92
	c-0.18-0.18-0.37-0.36-0.54-0.55l-0.02-0.02V40c0,0,0.01,0.01,0.02,0.02c0.01,0.01,0.01,0.01,0.02,0.02
	c0.16,0.15,0.75,0.73,1.65,1.55c0.01,0.01,0.02,0.02,0.02,0.02c0.74,0.68,1.69,1.51,2.77,2.39c0.36,0.3,0.73,0.59,1.12,0.89
	c0,0,0,0,0.01,0.01c2.75,2.13,6.07,4.31,8.9,5.02c0,0,0,0,0.01,0c0.75,0.19,1.47,0.26,2.14,0.22c4.1-0.31,4.12-1.58,3.71-2.35
	c-0.19-0.36-0.61-0.5-0.98-0.35c-0.4,0.17-0.9,0.21-0.9-0.68C68.95,45.26,73.79,47.25,71.49,49.57z"/>
<path fill="#BA6A28" d="M51.92,62.48c-0.64-2.28-0.59-20.34-0.59-20.34h-0.85h-0.85c0,0,0.05,18.06-0.59,20.34
	c-0.64,2.28,1.45,2.23,1.45,2.23S52.56,64.76,51.92,62.48z"/>
<path fill="none" stroke="#563C30" stroke-width="0.7766" stroke-linecap="round" stroke-miterlimit="10" d="M38.57,53.41
	c9.21-5.49,11.91-13.72,11.91-13.72s-2.15,11.68-6.54,16.75"/>
<path fill="none" stroke="#563C30" stroke-width="0.7766" stroke-linecap="round" stroke-miterlimit="10" d="M62.37,53.41
	c-9.21-5.49-11.91-13.72-11.91-13.72S52.6,51.37,57,56.43"/>
<path fill="#D87A27" d="M54.95,43.8l-1.82,1.82l-1.44,1.42c-0.63,0.59-1.7,0.59-2.37,0l-1.45-1.45l-1.83-1.8
	c1.04-1.49,1.96-2.91,2.69-4.09c0.95-1.49,1.58-2.58,1.74-2.86v-0.07c0,0,0.01,0.01,0.02,0.04c0.01-0.03,0.02-0.04,0.02-0.04v0.07
	c0.16,0.26,0.75,1.28,1.65,2.72c0.01,0.01,0.02,0.03,0.02,0.03C52.92,40.8,53.87,42.26,54.95,43.8z"/>
<circle fill="#C39C56" cx="50.46" cy="36.78" r="1.49"/>
<path fill="#2C2014" d="M41.35,69.92v-3.47c0-0.41,0.41-0.67,0.76-0.46l1.02,0.56c0.36,0.2,0.61,0.61,0.61,1.02v3.67L41.35,69.92z"
	/>
<line fill="none" stroke="#C39C56" stroke-linecap="round" stroke-miterlimit="10" x1="50.46" y1="35.29" x2="50.46" y2="28.7"/>
<path fill="#575757" d="M76.19,64.57l-2.17,1.19L71,64.05l2.17-1.19L76.19,64.57z"/>
<path fill="#575757" d="M75.09,69.25l-2.17,1.19l-3.02-1.7l2.17-1.19L75.09,69.25z"/>
<path fill="#575757" d="M60.14,77.01l-2.17,1.19l-3.02-1.7l2.17-1.19L60.14,77.01z"/>
<path fill="#575757" d="M34.18,61.62l-2.17,1.19l-3.02-1.7l2.17-1.19L34.18,61.62z"/>
<path fill="#575757" d="M27.99,67.26l-2.17,1.19l-3.02-1.7l2.17-1.19L27.99,67.26z"/>
<path fill="#575757" d="M35.37,75.6l-2.17,1.19l-3.02-1.7l2.17-1.19L35.37,75.6z"/>
<path fill="#575757" d="M41.41,75.24l-2.17,1.19l-3.02-1.7l2.17-1.19L41.41,75.24z"/>
</svg>
