<?xml version="1.0" encoding="utf-8"?>
<!-- Generator: Adobe Illustrator 25.0.1, SVG Export Plug-In . SVG Version: 6.00 Build 0)  -->
<svg version="1.1" id="Layer_1" xmlns="http://www.w3.org/2000/svg" xmlns:xlink="http://www.w3.org/1999/xlink" x="0px" y="0px"
	 viewBox="0 0 100 100" enable-background="new 0 0 100 100" xml:space="preserve">
<path opacity="0.2" fill="#9F9E9F" d="M72.07,64.39c-0.49-3.38-0.82-8.25-0.75-15.22c0.02-2.06-0.15-3.96-0.48-5.73
	c-1.42-7.7-5.79-12.83-10.11-16.13c-5.16-3.94-10.24-5.28-10.24-5.28s-21.04,5.54-20.82,27.13c0.1,10.25-0.68,15.93-1.51,19.06
	c-0.66,2.49,0.65,5.09,3.03,6.1c2.2,0.93,4.91,1.98,7.64,2.76c3.24,0.92,6.5-1.34,6.71-4.71l0.26-4.52c0.14-2.44-1.44-4.67-3.8-5.34
	l-2.35-0.67c-2.27-0.64-3.83-2.72-3.8-5.08c0.03-2.36,1.6-4.3,3.69-4.95h0.01c0.48-0.14,1-0.22,1.52-0.22c0.3,0,0.6,0.01,0.91,0.08
	l2.91,0.51l1.67,0.29c2.61,0.45,5.28,0.45,7.89,0l4.57-0.8c3.18-0.55,6.09,1.87,6.12,5.09v0.06c0,2.32-1.55,4.38-3.8,5.02
	l-2.35,0.67c-2.37,0.67-3.95,2.89-3.8,5.34l0.26,4.52c0.12,2.15,1.5,3.85,3.32,4.56c1.03,0.4,2.21,0.49,3.38,0.15
	c2.73-0.79,5.44-1.82,7.64-2.76c2.38-1,3.68-3.61,3.02-6.09C72.55,67.23,72.29,65.96,72.07,64.39z"/>
</svg>
