<?xml version="1.0" encoding="utf-8"?>
<!-- Generator: Adobe Illustrator 25.0.1, SVG Export Plug-In . SVG Version: 6.00 Build 0)  -->
<svg version="1.1" id="Layer_1" xmlns="http://www.w3.org/2000/svg" xmlns:xlink="http://www.w3.org/1999/xlink" x="0px" y="0px"
	 viewBox="0 0 100 100" style="enable-background:new 0 0 100 100;" xml:space="preserve">
<style type="text/css">
	.st0{fill:#8F6C49;}
	.st1{fill:#2E2C26;}
	.st2{fill:none;stroke:#873B1D;stroke-width:8;stroke-linecap:round;stroke-miterlimit:10;}
	.st3{fill:none;stroke:#873B1D;stroke-width:6;stroke-linecap:round;stroke-miterlimit:10;}
</style>
<path class="st0" d="M47,95.9C6.4,97.9,8.4,62,19.2,50.7S44,35.8,47,26.5c1-3.1-4.8-9.8-9.8-12.7c-1.3-0.8-1.6-2.6-0.4-3.5
	c3.1-2.3,10.3-5.5,26.1-4.8c24.7,1-9.8,14.4,0,23.2S124.2,92,47,95.9z"/>
<path class="st1" d="M40.9,11.1c7-4,27.4-5.1,27.4-1.8C68.2,13.4,34.7,14.6,40.9,11.1z"/>
<path class="st2" d="M47,26.4c0.1-0.2,5.1,2.8,14.2-0.3"/>
<path class="st3" d="M50.1,28.1c0,0-17.7,8.3-17.7,36.9"/>
<path class="st3" d="M52.3,28.7c0,0,1.7,7.6,1.9,9.6"/>
</svg>
