<?xml version="1.0" encoding="utf-8"?>
<!-- Generator: Adobe Illustrator 25.0.1, SVG Export Plug-In . SVG Version: 6.00 Build 0)  -->
<svg version="1.1" id="Layer_1" xmlns="http://www.w3.org/2000/svg" xmlns:xlink="http://www.w3.org/1999/xlink" x="0px" y="0px"
	 viewBox="0 0 100 100" style="enable-background:new 0 0 100 100;" xml:space="preserve">
<style type="text/css">
	.st0{fill:#3E6F4F;}
	.st1{fill:#538B64;}
	.st2{fill:#B1502F;}
	.st3{fill:#CEC8C6;}
	.st4{fill:#8F8C8B;}
	.st5{fill:#78432D;}
</style>
<path class="st0" d="M28.2,70.3c0,0-12.8,0.7-7.7-9C30.7,42,65.7,23.8,78.5,21.9c0,0,7.2,18.3-40.9,55.5
	C30.9,82.5,28.2,70.3,28.2,70.3z"/>
<g>
	<path class="st1" d="M75.7,24.3c-9.9,9.1-19.6,18.3-29,27.7c-4.7,4.7-9.3,9.5-13.8,14.5c-2.2,2.5-4.4,5-6.3,7.6
		c-1,1.3-1.9,2.6-2.9,4c-0.8,1.3-1.6,2.7-2,4l0,0c-0.3,0.8-1.2,1.3-2.1,1.1c-0.9-0.3-1.4-1.1-1.2-2v-0.1c0.6-1.8,1.6-3.2,2.5-4.6
		c1-1.4,2-2.7,3.2-4.1c2.1-2.5,4.5-5.1,6.8-7.5c4.9-4.7,9.7-9.4,14.6-14C55.3,41.9,65.4,33,75.7,24.3z"/>
</g>
<g>
	<path class="st2" d="M84.6,74.7l1.1,4.2c0.7,2.7-0.5,5.5-2.9,6.9l0,0c-2.9,1.7-6.7,0.6-8.3-2.3L57.9,54.3l7.4-4.2l13.4,23.6
		C79.9,75.9,82.8,76.4,84.6,74.7L84.6,74.7z"/>
	<path class="st3" d="M65.3,50.1L54,30.3c-7.9-13.9-25.5-18.7-39.4-10.9l-0.5,0.3l0,0c11.3-1.1,22.3,4.6,27.9,14.5l10.2,18
		c0.8,1.4,2.4,2.3,4,2.2l1.7-0.1L65.3,50.1z"/>
	<path class="st4" d="M18.3,17.6c13.2-5.2,28.5-0.1,35.7,12.6l11.3,19.8L58,54.2l-12.5-22c-2.8-5-6.9-8.9-11.8-11.4
		C29,18.4,23.7,17.2,18.3,17.6z"/>
	<path class="st4" d="M18.3,17.6c13.2-5.2,28.5-0.1,35.7,12.6l11.3,19.8L58,54.2l-12.5-22c-2.8-5-6.9-8.9-11.8-11.4
		C29,18.4,23.7,17.2,18.3,17.6z"/>
	
		<rect x="55.9" y="51.3" transform="matrix(-0.8698 0.4934 -0.4934 -0.8698 141.2135 68.8798)" class="st5" width="11.2" height="3.5"/>
</g>
</svg>
