<?xml version="1.0" encoding="utf-8"?>
<!-- Generator: Adobe Illustrator 25.0.1, SVG Export Plug-In . SVG Version: 6.00 Build 0)  -->
<svg version="1.1" id="Layer_1" xmlns="http://www.w3.org/2000/svg" xmlns:xlink="http://www.w3.org/1999/xlink" x="0px" y="0px"
	 viewBox="0 0 100 100" enable-background="new 0 0 100 100" xml:space="preserve">
<g>
	<path fill="#856849" d="M46.41,99.06l-43.9-24.7c-0.9-0.5-1.4-1.1-1.5-1.8c-0.1-0.8,0.4-1.7,1.5-2.3l43.9-24.7c2-1.1,5.2-1.1,7.2,0
		l43.9,24.7c2,1.1,2,2.9,0,4.1l-43.9,24.7C51.61,100.16,48.41,100.16,46.41,99.06z"/>
	<polygon fill="#856849" points="1.01,68.06 99.01,67.76 99.01,72.26 1.01,72.56 	"/>
	<path fill="#3A2D18" d="M46.41,94.46l-43.9-24.7c-2-1.1-2-2.9,0-4.1l43.9-24.7c2-1.1,5.2-1.1,7.2,0l43.9,24.7c2,1.1,2,2.9,0,4.1
		l-43.9,24.7C51.61,95.66,48.41,95.66,46.41,94.46z"/>
	<path fill="#52412B" d="M46.87,90.87l-38.5-21.7c-1.8-1-1.8-2.6,0-3.6l38.5-21.7c1.8-1,4.6-1,6.4,0l38.5,21.7c1.8,1,1.8,2.6,0,3.6
		l-38.5,21.7C51.57,91.77,48.67,91.77,46.87,90.87z"/>
</g>
<path fill="#52412B" d="M46.9,47.12c1.76-1.06,7.13,0.81,8.89,1.87c0,0,10.44,6.4,28.73,15.94c4.57,2.38-5.1,6.11-7.89,8.26
	c-4.28,3.3-16.07,7.15-21.36,12.31c-4.06,3.95-14.42-2.05-15.88-2.94c-3.26-1.98-10.08-6.5-12.6-8.54
	c-3.47-2.82-15.59-5.2-10.47-9.1C29.81,54.65,46.9,47.12,46.9,47.12z"/>
<ellipse fill="#6B6C59" cx="34.77" cy="76.48" rx="1.89" ry="1.09"/>
<path fill="#3A2D18" d="M48.3,78.44L27.55,66.77c-0.95-0.56-0.95-1.41,0-1.93L48.3,53.17c0.95-0.52,2.46-0.52,3.4,0l20.75,11.68
	c0.95,0.56,0.95,1.41,0,1.93L51.7,78.45C50.77,79.03,49.25,79.03,48.3,78.44z"/>
<ellipse fill="#6B6C59" cx="30.22" cy="77.62" rx="1.38" ry="0.8"/>
<ellipse fill="#6B6C59" cx="31.52" cy="74.67" rx="1.41" ry="0.82"/>
<ellipse fill="#6B6C59" cx="35.63" cy="73.5" rx="1.41" ry="0.82"/>
<ellipse fill="#3A2D18" cx="41.27" cy="54.25" rx="1.41" ry="0.82"/>
<ellipse fill="#3A2D18" cx="42.96" cy="78.42" rx="1.41" ry="0.82"/>
<ellipse fill="#3A2D18" cx="48.56" cy="50.14" rx="2.11" ry="1.23"/>
<path fill="#3B6443" d="M49.8,47.4c1.09-0.04,2.2,0.19,3.06,0.66l30.31,17.08l0.2-0.12c0.49-0.28,0.82-0.62,0.97-0.97
	c0.3-0.67-0.03-1.39-0.97-1.91L52.63,44.82c-0.77-0.43-1.78-0.63-2.76-0.59L49.8,47.4z"/>
<path fill="#3B6443" d="M16.78,62.15l30.74-17.33c0.66-0.37,1.5-0.56,2.35-0.59l-0.07,3.16c-0.95,0.02-1.9,0.24-2.65,0.66
	L16.91,65.09l-0.13-0.07c-0.49-0.28-0.82-0.62-0.97-0.97C15.52,63.38,15.85,62.66,16.78,62.15z"/>
<path fill="#436C4A" d="M50.05,85.19h0.07c1.01-0.01,2.03-0.22,2.82-0.61l33.91-19.11l0.49-0.28c0.81-0.45,1.21-1.03,1.21-1.61v3.77
	c0,0.58-0.41,1.16-1.21,1.61l-34.4,19.39c-0.81,0.4-1.86,0.61-2.91,0.61L50.05,85.19z"/>
<path fill="#3B6443" d="M50.05,85.19l-0.02,3.77c-1.03,0-2.05-0.21-2.81-0.61L33.7,80.73v-3.77l13.52,7.62
	C47.98,84.98,49,85.19,50.05,85.19z"/>
<path fill="#3B6443" d="M11.62,67.04v-3.48l4.2,2.42l-0.03,0.88l11.28,6.38l0,0l-0.09,3.72l-14.16-8c-0.94-0.52-1.33-1.23-1.17-1.9
	l-0.04-0.02H11.62z"/>
<path fill="#4F7E5C" d="M12.81,65.19l0.49,0.28l13.76,7.76l1.97-1.29l-12.25-6.92c-0.49-0.28-0.82-0.62-0.97-0.97
	c-0.3-0.67,0.03-1.39,0.97-1.91l30.74-17.33c1.44-0.8,3.67-0.8,5.11,0l30.74,17.33c0.93,0.52,1.26,1.24,0.97,1.91
	c-0.15,0.35-0.48,0.69-0.97,0.97L52.63,82.35c-1.44,0.71-3.75,0.71-5.11,0L35.9,75.8l-2.2,1.16l13.52,7.62
	c0.78,0.41,1.84,0.62,2.9,0.61c1.01-0.01,2.03-0.22,2.82-0.61l33.91-19.11l0.49-0.28c0.81-0.45,1.21-1.03,1.21-1.61v-0.04
	c-0.02-0.57-0.42-1.13-1.21-1.57l-34.4-19.39c-1.61-0.89-4.11-0.89-5.72,0l-34.4,19.39C11.21,62.87,11.21,64.3,12.81,65.19z"/>
<polygon fill="#476D5B" points="27.07,73.24 26.98,76.96 28.97,75.74 29.04,71.94 "/>
<g>
	<g>
		<path fill="#597240" d="M49.3,64.56l-8.57-4.82c-0.39-0.23-0.39-0.58,0-0.8l8.57-4.82c0.39-0.22,1.01-0.22,1.41,0l8.57,4.83
			c0.39,0.23,0.39,0.58,0,0.8l-8.57,4.82C50.32,64.8,49.69,64.8,49.3,64.56z"/>
		<rect x="40.44" y="57.49" fill="#597240" width="19.13" height="1.85"/>
		<path fill="#778659" d="M49.3,62.76l-8.57-4.82c-0.39-0.23-0.39-0.58,0-0.8l8.57-4.82c0.39-0.22,1.01-0.22,1.41,0l8.57,4.83
			c0.39,0.23,0.39,0.58,0,0.8l-8.57,4.82C50.32,63,49.69,63,49.3,62.76z"/>
	</g>
	<g>
		<path fill="#75577E" d="M38.43,70.85l-8.57-4.82c-0.39-0.23-0.39-0.58,0-0.8l8.57-4.82c0.39-0.22,1.01-0.22,1.41,0l8.57,4.83
			c0.39,0.23,0.39,0.58,0,0.8l-8.57,4.82C39.45,71.09,38.82,71.09,38.43,70.85z"/>
		<rect x="29.57" y="63.79" fill="#75577E" width="19.13" height="1.85"/>
		<path fill="#827391" d="M38.43,69.05l-8.57-4.82c-0.39-0.23-0.39-0.58,0-0.8l8.57-4.82c0.39-0.22,1.01-0.22,1.41,0l8.57,4.83
			c0.39,0.23,0.39,0.58,0,0.8l-8.57,4.82C39.45,69.29,38.82,69.29,38.43,69.05z"/>
	</g>
	<g>
		<path fill="#7C7D4E" d="M60.22,70.85l-8.57-4.82c-0.39-0.23-0.39-0.58,0-0.8l8.57-4.82c0.39-0.22,1.01-0.22,1.41,0l8.57,4.83
			c0.39,0.23,0.39,0.58,0,0.8l-8.57,4.82C61.24,71.09,60.61,71.09,60.22,70.85z"/>
		<rect x="51.36" y="63.79" fill="#7C7D4E" width="19.13" height="1.85"/>
		<path fill="#8F8A69" d="M60.22,69.05l-8.57-4.82c-0.39-0.23-0.39-0.58,0-0.8l8.57-4.82c0.39-0.22,1.01-0.22,1.41,0l8.57,4.83
			c0.39,0.23,0.39,0.58,0,0.8l-8.57,4.82C61.24,69.29,60.61,69.29,60.22,69.05z"/>
	</g>
	<g>
		<path fill="#7E544E" d="M49.3,77.14l-8.57-4.82c-0.39-0.23-0.39-0.58,0-0.8l8.57-4.82c0.39-0.22,1.01-0.22,1.41,0l8.57,4.83
			c0.39,0.23,0.39,0.58,0,0.8l-8.57,4.82C50.32,77.38,49.69,77.38,49.3,77.14z"/>
		<rect x="40.44" y="70.08" fill="#7E544E" width="19.13" height="1.85"/>
		<path fill="#926867" d="M49.3,75.34l-8.57-4.82c-0.39-0.23-0.39-0.58,0-0.8l8.57-4.82c0.39-0.22,1.01-0.22,1.41,0l8.57,4.83
			c0.39,0.23,0.39,0.58,0,0.8l-8.57,4.82C50.32,75.59,49.69,75.59,49.3,75.34z"/>
	</g>
	<g>
		<line fill="none" stroke="#9F87A4" stroke-width="0.442" stroke-miterlimit="10" x1="31.69" y1="63.61" x2="39.57" y2="68.05"/>
		<line fill="none" stroke="#9F87A4" stroke-width="0.442" stroke-miterlimit="10" x1="33.38" y1="62.69" x2="41.27" y2="67.13"/>
		<line fill="none" stroke="#9F87A4" stroke-width="0.442" stroke-miterlimit="10" x1="35.07" y1="61.78" x2="42.96" y2="66.22"/>
		<line fill="none" stroke="#9F87A4" stroke-width="0.442" stroke-miterlimit="10" x1="36.77" y1="60.87" x2="44.65" y2="65.3"/>
		<line fill="none" stroke="#9F87A4" stroke-width="0.442" stroke-miterlimit="10" x1="38.46" y1="59.95" x2="46.35" y2="64.39"/>
	</g>
	<g>
		<line fill="none" stroke="#A4817A" stroke-width="0.442" stroke-miterlimit="10" x1="42.65" y1="69.69" x2="50.53" y2="74.13"/>
		<line fill="none" stroke="#A4817A" stroke-width="0.442" stroke-miterlimit="10" x1="44.34" y1="68.77" x2="52.22" y2="73.21"/>
		<line fill="none" stroke="#A4817A" stroke-width="0.442" stroke-miterlimit="10" x1="46.03" y1="67.86" x2="53.92" y2="72.3"/>
		<line fill="none" stroke="#A4817A" stroke-width="0.442" stroke-miterlimit="10" x1="47.72" y1="66.95" x2="55.61" y2="71.38"/>
		<line fill="none" stroke="#A4817A" stroke-width="0.442" stroke-miterlimit="10" x1="49.42" y1="66.03" x2="57.3" y2="70.47"/>
	</g>
	<g>
		<line fill="none" stroke="#A2A27C" stroke-width="0.442" stroke-miterlimit="10" x1="53.66" y1="63.47" x2="61.54" y2="67.91"/>
		<line fill="none" stroke="#A2A27C" stroke-width="0.442" stroke-miterlimit="10" x1="55.35" y1="62.56" x2="63.24" y2="67"/>
		<line fill="none" stroke="#A2A27C" stroke-width="0.442" stroke-miterlimit="10" x1="57.04" y1="61.64" x2="64.93" y2="66.08"/>
		<line fill="none" stroke="#A2A27C" stroke-width="0.442" stroke-miterlimit="10" x1="58.74" y1="60.73" x2="66.62" y2="65.17"/>
		<line fill="none" stroke="#A2A27C" stroke-width="0.442" stroke-miterlimit="10" x1="60.43" y1="59.82" x2="68.31" y2="64.25"/>
	</g>
	<g>
		<line fill="none" stroke="#82986A" stroke-width="0.442" stroke-miterlimit="10" x1="42.78" y1="57.1" x2="50.67" y2="61.54"/>
		<line fill="none" stroke="#82986A" stroke-width="0.442" stroke-miterlimit="10" x1="44.48" y1="56.19" x2="52.36" y2="60.63"/>
		<line fill="none" stroke="#82986A" stroke-width="0.442" stroke-miterlimit="10" x1="46.17" y1="55.27" x2="54.05" y2="59.71"/>
		<line fill="none" stroke="#82986A" stroke-width="0.442" stroke-miterlimit="10" x1="47.86" y1="54.36" x2="55.75" y2="58.8"/>
		<line fill="none" stroke="#82986A" stroke-width="0.442" stroke-miterlimit="10" x1="49.55" y1="53.45" x2="57.44" y2="57.88"/>
	</g>
</g>
<g>
	<ellipse fill="#556B39" cx="31.03" cy="48.89" rx="4.22" ry="3.6"/>
	<path fill="#2D1713" d="M31.25,60.46c1.26-3.63,1.08-9.91,1.08-9.91s1.57-3.81,0.88,0.89c-0.69,4.7,0.61,8.91,0.61,8.91
		C32.65,61.5,31.26,60.45,31.25,60.46z"/>
	<ellipse fill="#6C8648" cx="34" cy="50.02" rx="4.22" ry="3.6"/>
	<ellipse fill="#627440" cx="30.39" cy="51.17" rx="3.62" ry="3.08"/>
</g>
<g>
	<ellipse fill="#396B4B" cx="22.51" cy="52.49" rx="4.94" ry="4.21"/>
	<path fill="#2D2212" d="M22.77,66.02c1.47-4.25,1.26-11.59,1.26-11.59s1.83-4.46,1.03,1.04c-0.81,5.5,0.71,10.42,0.71,10.42
		C24.4,67.23,22.78,66.01,22.77,66.02z"/>
	<ellipse fill="#49865D" cx="25.98" cy="53.81" rx="4.94" ry="4.21"/>
	<ellipse fill="#3F744C" cx="21.76" cy="55.16" rx="4.23" ry="3.6"/>
</g>
<g>
	<ellipse fill="#3A2D18" cx="55.18" cy="52.25" rx="2.4" ry="1.11"/>
	<path fill="none" stroke="#2C2414" stroke-width="0.8013" stroke-miterlimit="10" d="M55.5,51.78c0,0,0.53-1.18-1.3-3.03
		c-1.89-1.93-1.47-2.29-1.5-2.93"/>
	<path fill="none" stroke="#2C2414" stroke-width="0.8013" stroke-miterlimit="10" d="M54.88,51.57c0,0-0.83-1.45,1.58-3.69
		c2.4-2.24,1.79-2.79,1.83-3.57"/>
	<g>
		<circle fill="#CA7267" cx="54.13" cy="41.58" r="3.48"/>
		<circle fill="#DE7768" cx="58.22" cy="43.22" r="3.48"/>
		<circle fill="#EB806E" cx="52.66" cy="44.31" r="3.48"/>
	</g>
</g>
<g>
	<ellipse fill="#3A2D18" cx="62.8" cy="55.9" rx="2.86" ry="1.32"/>
	<path fill="none" stroke="#2C2014" stroke-width="0.9548" stroke-miterlimit="10" d="M63.18,55.34c0,0,0.63-1.4-1.55-3.61
		c-2.25-2.3-1.76-2.73-1.79-3.49"/>
	<path fill="none" stroke="#2C2014" stroke-width="0.9548" stroke-miterlimit="10" d="M62.45,55.09c0,0-0.99-1.73,1.88-4.4
		c2.86-2.67,2.14-3.32,2.18-4.25"/>
	<g>
		<circle fill="#CA677D" cx="61.56" cy="43.19" r="4.14"/>
		<circle fill="#DE687D" cx="66.43" cy="45.14" r="4.14"/>
		<circle fill="#EB6F80" cx="59.8" cy="46.44" r="4.14"/>
	</g>
</g>
<g>
	<ellipse fill="#3A2D18" cx="70.54" cy="60.45" rx="2.17" ry="1"/>
	<path fill="none" stroke="#2C2414" stroke-width="0.7233" stroke-miterlimit="10" d="M70.83,60.02c0,0,0.48-1.06-1.17-2.73
		c-1.71-1.74-1.33-2.07-1.35-2.65"/>
	<path fill="none" stroke="#2C2414" stroke-width="0.7233" stroke-miterlimit="10" d="M70.27,59.83c0,0-0.75-1.31,1.42-3.33
		c2.17-2.03,1.62-2.52,1.65-3.22"/>
	<g>
		<circle fill="#CA7267" cx="69.6" cy="50.81" r="3.14"/>
		<circle fill="#DE7768" cx="73.28" cy="52.3" r="3.14"/>
		<circle fill="#EB806E" cx="68.27" cy="53.28" r="3.14"/>
	</g>
</g>
<g>
	<ellipse fill="#3A2D18" cx="77.47" cy="65.24" rx="2.4" ry="1.11"/>
	<path fill="none" stroke="#2C2014" stroke-width="0.8013" stroke-miterlimit="10" d="M77.79,64.76c0,0,0.53-1.18-1.3-3.03
		c-1.89-1.93-1.47-2.29-1.5-2.93"/>
	<path fill="none" stroke="#2C2014" stroke-width="0.8013" stroke-miterlimit="10" d="M77.17,64.56c0,0-0.83-1.45,1.58-3.69
		c2.4-2.24,1.79-2.79,1.83-3.57"/>
	<g>
		<circle fill="#CA677D" cx="76.42" cy="54.56" r="3.48"/>
		<circle fill="#DE687D" cx="80.51" cy="56.21" r="3.48"/>
		<circle fill="#EB6F80" cx="74.95" cy="57.3" r="3.48"/>
	</g>
</g>
<g>
	<ellipse fill="#0F120E" cx="64.92" cy="73.87" rx="1.88" ry="0.87"/>
	<path fill="none" stroke="#000000" stroke-width="0.6265" stroke-miterlimit="10" d="M65.17,73.5c0,0,0.41-0.92-1.01-2.37
		c-1.48-1.51-1.15-1.79-1.17-2.29"/>
	<path fill="none" stroke="#000000" stroke-width="0.6265" stroke-miterlimit="10" d="M64.69,73.34c0,0-0.65-1.13,1.23-2.89
		c1.88-1.75,1.4-2.18,1.43-2.79"/>
	<g>
		<circle fill="#9B934F" cx="64.1" cy="65.53" r="2.72"/>
		<circle fill="#AFA551" cx="67.3" cy="66.81" r="2.72"/>
		<circle fill="#BDB458" cx="62.95" cy="67.66" r="2.72"/>
	</g>
</g>
<g>
	<ellipse fill="#2C8175" cx="58.49" cy="63.41" rx="5.57" ry="4.74"/>
	<path fill="#2D1713" d="M54.92,78.66c1.66-4.79,1.42-13.06,1.42-13.06s2.06-5.03,1.16,1.17c-0.91,6.2,0.8,11.74,0.8,11.74
		C56.75,80.02,54.93,78.65,54.92,78.66z"/>
	<ellipse fill="#359C8B" cx="54.58" cy="64.9" rx="5.57" ry="4.74"/>
	<ellipse fill="#328A74" cx="59.34" cy="66.42" rx="4.77" ry="4.06"/>
</g>
</svg>
