<?xml version="1.0" encoding="utf-8"?>
<!-- Generator: Adobe Illustrator 25.0.1, SVG Export Plug-In . SVG Version: 6.00 Build 0)  -->
<svg version="1.1" id="Layer_1" xmlns="http://www.w3.org/2000/svg" xmlns:xlink="http://www.w3.org/1999/xlink" x="0px" y="0px"
	 viewBox="0 0 100 100" style="enable-background:new 0 0 100 100;" xml:space="preserve">
<style type="text/css">
	.st0{fill:#FFFFFF;}
</style>
<rect x="15.5" y="62.8" class="st0" width="68.5" height="9.3"/>
<path class="st0" d="M48.5,27.9c-10.9,0.3-14.7,6-16,10.1c-2.1-2.7-6.2-5.4-13.7-4c0,0,3.8,10.2,13.1,9.4v13.3h2.9V42.3
	C46.5,41.4,48.5,27.9,48.5,27.9z"/>
<path class="st0" d="M80.6,27.9c-10.9,0.3-14.7,6-16,10.1c-2.1-2.7-6.2-5.4-13.7-4c0,0,3.8,10.2,13.1,9.4v13.3h2.9V42.3
	C78.6,41.4,80.6,27.9,80.6,27.9z"/>
</svg>
