<?xml version="1.0" encoding="utf-8"?>
<!-- Generator: Adobe Illustrator 25.0.1, SVG Export Plug-In . SVG Version: 6.00 Build 0)  -->
<svg version="1.1" id="Layer_1" xmlns="http://www.w3.org/2000/svg" xmlns:xlink="http://www.w3.org/1999/xlink" x="0px" y="0px"
	 viewBox="0 0 100 100" enable-background="new 0 0 100 100" xml:space="preserve">
<g>
	<path fill="#BE9171" d="M55.59,29.45v29.37c0,0-6.63,3.28-19.86,4.59c-13.22,1.3-13.66-1.9-13.66-1.9c0-6.51,14.7-12.5,14.7-12.5
		V29.45C48.21,32.32,55.59,29.45,55.59,29.45z"/>
	<path fill="#D2A783" d="M34.11,26.52v11.83c0,0.14,0.06,0.26,0.16,0.34c0.72,0.53,3.75,2.58,6.61,1.89
		c0.13-0.03,0.24-0.14,0.29-0.28l1.51-5c0.11-0.36,0.57-0.38,0.71-0.04l2.18,5.27c0.05,0.12,0.15,0.21,0.27,0.23
		c1.13,0.25,7.07,1.36,11.18-1.42c0.11-0.08,0.18-0.21,0.18-0.36V26.35c0-0.25-0.2-0.45-0.44-0.41c-2.65,0.46-16.69,2.71-22.12,0.21
		C34.4,26.04,34.11,26.22,34.11,26.52z"/>
	<ellipse fill="#D2A783" cx="45.66" cy="26.47" rx="11.55" ry="2.49"/>
	<ellipse fill="#353535" cx="45.66" cy="26.96" rx="9.93" ry="1.99"/>
	<path fill="#9B745B" d="M55.59,58.82c0,2.45-1.75,4.55-4.14,5.02c-11.96,2.38-29.38,4.47-29.38-2.33c0,0,0.45,3.2,13.66,1.9
		C48.97,62.1,55.59,58.82,55.59,58.82z"/>
	<path fill="#CB9B78" d="M74.04,37.05v29.37c0,0-6.63,3.28-19.86,4.59c-13.22,1.3-13.66-1.9-13.66-1.9c0-6.51,14.7-12.5,14.7-12.5
		V37.05C66.66,39.92,74.04,37.05,74.04,37.05z"/>
	<path fill="#DFB28B" d="M52.55,34.12v11.83c0,0.14,0.06,0.26,0.16,0.34c0.72,0.53,3.75,2.58,6.61,1.89
		c0.13-0.03,0.24-0.14,0.29-0.28l1.51-5c0.11-0.36,0.57-0.38,0.71-0.04l2.18,5.27c0.05,0.12,0.15,0.21,0.27,0.23
		c1.13,0.25,7.07,1.36,11.18-1.42c0.11-0.08,0.18-0.21,0.18-0.36V33.95c0-0.25-0.2-0.45-0.44-0.41C72.57,34,58.53,36.25,53.1,33.75
		C52.84,33.63,52.55,33.82,52.55,34.12z"/>
	<ellipse fill="#DFB28B" cx="64.11" cy="34.06" rx="11.55" ry="2.49"/>
	<ellipse fill="#434343" cx="64.11" cy="34.56" rx="9.93" ry="1.99"/>
	<path fill="#A87E63" d="M74.04,66.42c0,2.45-1.75,4.55-4.14,5.02c-11.96,2.38-29.38,4.47-29.38-2.33c0,0,0.45,3.2,13.66,1.9
		C67.41,69.69,74.04,66.42,74.04,66.42z"/>
</g>
</svg>
