<?xml version="1.0" encoding="utf-8"?>
<!-- Generator: Adobe Illustrator 25.0.1, SVG Export Plug-In . SVG Version: 6.00 Build 0)  -->
<svg version="1.1" id="Layer_1" xmlns="http://www.w3.org/2000/svg" xmlns:xlink="http://www.w3.org/1999/xlink" x="0px" y="0px"
	 viewBox="0 0 100 100" enable-background="new 0 0 100 100" xml:space="preserve">
<g>
	<g>
		<path fill="#A87E63" d="M34.1,79.53c-2.63,0-5.42-1.5-7.19-3.35c-0.62-0.66-0.6-1.7,0.05-2.32c0.66-0.62,1.7-0.6,2.32,0.05
			c1.69,1.76,4.29,2.73,5.79,2.17c1.32-0.5,1.66-2.24,1.73-3.63c0.32-6.99-1.01-8.93-1.04-8.96c-0.61-0.67-0.53-1.67,0.14-2.29
			s1.74-0.53,2.36,0.14c0.38,0.4,2.22,2.86,1.83,11.24c-0.21,4.51-2.51,6.05-3.85,6.55C35.55,79.42,34.83,79.53,34.1,79.53z"/>
	</g>
	<g>
		<path fill="#A87E63" d="M72.83,80.05c-0.01,0-0.02,0-0.04,0c-3.82-0.08-10.41-0.66-11.66-3.64c-0.28-0.68-0.54-2.09,0.98-3.7
			c2.25-2.39,3.49-6.39,3.48-11.27l1.64-0.09l1.64,0.08c0.01,5.72-1.54,10.53-4.37,13.53c-0.11,0.11-0.18,0.2-0.22,0.27
			c0.94,0.74,4.84,1.45,8.58,1.53c0.91,0.02,1.63,0.77,1.6,1.67C74.46,79.34,73.73,80.05,72.83,80.05z"/>
	</g>
	<path fill="#352621" d="M37.74,62.47c0,0,13.55-12.3,29.5,0L63.32,40.8l-23.61-2.1L37.74,62.47z"/>
	<path fill="#CB9B78" d="M33.67,51.18c0,0-2.1-23.53,19.28-31.2c0,0,19.25,4.1,18.7,31.2c-0.39,19.31-6.82,13.01-7.85,5.56
		c-1.37-9.9-16.94-9.33-20.92-2.96c-2.88,4.61-1.97,10.43-7.96,10.41C31.91,64.16,33.71,54.06,33.67,51.18z"/>
</g>
</svg>
