<?xml version="1.0" encoding="utf-8"?>
<!-- Generator: Adobe Illustrator 25.0.1, SVG Export Plug-In . SVG Version: 6.00 Build 0)  -->
<svg version="1.1" id="Layer_1" xmlns="http://www.w3.org/2000/svg" xmlns:xlink="http://www.w3.org/1999/xlink" x="0px" y="0px"
	 viewBox="0 0 100 100" enable-background="new 0 0 100 100" xml:space="preserve">
<g>
	<path fill="#CB9B78" d="M50.4,29.82l-20.81-1.27l1.36,44.6v2.19c0,1.06,0.77,1.97,1.81,2.15c1.66,0.29,4.72,0.49,10.17,0
		c1.11-0.1,1.97-1.02,1.99-2.13l0.05-2.22h0c0,0,0,0,0,0l0.08-3.78c0.25-6.79,1.26-20.35,5.34-20.35s5.09,13.56,5.34,20.35
		l0.08,3.78c0,0,0,0,0,0h0l0.05,2.22c0.02,1.11,0.88,2.03,1.99,2.13c5.45,0.49,8.51,0.29,10.17,0c1.05-0.18,1.81-1.09,1.81-2.15
		v-2.19l1.36-44.6L50.4,29.82z"/>
	<path fill="#644032" d="M69.26,23.64L69.26,23.64c-22.25-4.39-37.33-0.03-37.33-0.03l0.13,0.1c-1.27-0.16-2.46,0.81-2.46,2.14v2.99
		c0,0.16,0.1,0.3,0.25,0.36c2.41,0.89,21.73,7.56,41.12-0.36c0.15-0.06,0.24-0.2,0.24-0.36v-2.7
		C71.21,24.64,70.32,23.76,69.26,23.64z"/>
	<ellipse fill="#212020" cx="50.42" cy="25.44" rx="16.81" ry="2.47"/>
	<ellipse fill="#A87E63" cx="36.84" cy="60.11" rx="5.18" ry="6.94"/>
	<ellipse fill="#A87E63" cx="63.39" cy="60.11" rx="5.18" ry="6.94"/>
	<path fill="#A87E63" d="M30.81,74.94c-0.45-0.17-0.94,0.14-0.96,0.62c-0.04,0.96,0.04,2.4,0.73,3.46c1.12,1.75,11.72,0.62,13.09,0
		c1.37-0.62,1.37-4.11,1.37-4.49C45.04,74.19,35.75,76.82,30.81,74.94z"/>
	<path fill="#A87E63" d="M70.02,74.94c0.45-0.17,0.94,0.14,0.96,0.62c0.04,0.96-0.04,2.4-0.72,3.46c-1.12,1.75-11.72,0.62-13.09,0
		c-1.37-0.62-1.37-4.11-1.37-4.49C55.79,74.19,65.09,76.82,70.02,74.94z"/>
	<path fill="none" stroke="#3D3D3D" stroke-width="2" stroke-miterlimit="10" d="M46.42,28.55v3.54c0,0.76,0.61,1.37,1.37,1.37h4.92
		c0.76,0,1.37-0.61,1.37-1.37v-3.54c0-0.76-0.61-1.37-1.37-1.37h-4.92C47.04,27.18,46.42,27.8,46.42,28.55z"/>
</g>
</svg>
