<?xml version="1.0" encoding="utf-8"?>
<!-- Generator: Adobe Illustrator 25.0.1, SVG Export Plug-In . SVG Version: 6.00 Build 0)  -->
<svg version="1.1" id="Layer_1" xmlns="http://www.w3.org/2000/svg" xmlns:xlink="http://www.w3.org/1999/xlink" x="0px" y="0px"
	 viewBox="0 0 100 100" style="enable-background:new 0 0 100 100;" xml:space="preserve">
<style type="text/css">
	.st0{fill:#FFFFFF;}
</style>
<g>
	<path class="st0" d="M50.8,32.7c-1.2-2-3.8-5.3-7.6-6.9c1.2-1.8,3-5,3-5c-0.5-1-3.2-1-3.2-1c0.1,1.9-0.9,4.1-1.6,5.4
		c-4.3-1.1-8.5-0.1-10.5,0.6c-1.6-0.2-3.1,0-3.7,1c-2.9,4.5-2.7,9.8-2.4,12c0,0.5,0.7,0.4,1.6-0.2c-0.5,4.2-0.5,8.5,0.2,9.1
		c0.1,0.1,0.4,0.1,0.8-0.1c0.7,3.6,1.6,6.9,2.3,7.3c0.2,0.1,0.7-0.2,1.3-0.9c0.1,1.3,0.2,2.2,0.5,2.5C32,57,35,55.6,38,53.7
		c0.1,0.5,0.2,0.9,0.3,1c0.7,0.7,5.8-4,8.6-7.7c0.2,0.2,0.4,0.2,0.6,0c1.6-1.8,5.1-6,5.4-11.6C53,34.5,52.1,33.5,50.8,32.7z"/>
	<path class="st0" d="M73,53.9c-0.5-0.6-1.7-0.7-2.8-0.5c-1.6-0.3-5.6-0.9-9.4,0.5c-0.7-1-1.7-2.7-1.9-4.3c0,0-2.3,0.2-2.6,1.2
		c0,0,1.7,2.4,3,3.8c-3.2,1.8-5,5.1-5.8,6.9c-0.6,0.5-0.9,1.1-0.9,1.7c0.3,4.7,3.3,8.3,4.7,9.8c0.2,0.2,0.5,0.1,0.8-0.4
		c2.8,2.9,7.9,6.6,8.3,6c0.1-0.1,0.2-0.5,0.2-0.9c2.8,1.3,5.4,2.2,5.8,1.6c0.2-0.3,0.3-1.1,0.2-2.1c0.6,0.5,1,0.8,1.2,0.6
		c0.5-0.4,0.9-3.3,1.1-6.4c0.5,0.2,0.8,0.2,0.9,0.1c0.4-0.6-0.1-4.2-0.8-7.5c0.8,0.3,1.3,0.3,1.3-0.1C76.3,61.9,75.9,57.4,73,53.9z"
		/>
</g>
</svg>
