<?xml version="1.0" encoding="utf-8"?>
<!-- Generator: Adobe Illustrator 25.0.1, SVG Export Plug-In . SVG Version: 6.00 Build 0)  -->
<svg version="1.1" id="Layer_1" xmlns="http://www.w3.org/2000/svg" xmlns:xlink="http://www.w3.org/1999/xlink" x="0px" y="0px"
	 viewBox="0 0 100 100" style="enable-background:new 0 0 100 100;" xml:space="preserve">
<style type="text/css">
	.st0{fill:#3F6139;}
	.st1{fill:#5C8551;}
	.st2{fill:#42633C;}
	.st3{fill:#4B7647;}
</style>
<g>
	<path class="st0" d="M23.7,19.7c0,0,8.3-3.6,16.4-1s12.1,11.5,12.1,11.5l-21.7-1.9L23.7,19.7z"/>
	<path class="st1" d="M20,39.7c-0.3-4.5,15.1-3.5,13.5,1.8C32,46.8,25,57.4,23.9,56.6C22.6,55.9,20.4,46,20,39.7z"/>
	<path class="st2" d="M27.1,40.9c1.2-4.4,19.2,3.5,15.6,7.9C39.1,53,27.4,60,26.2,58.7C25,57.3,25.4,47.1,27.1,40.9z"/>
	<path class="st3" d="M23.4,34.7c0.5-4.5,19.6,0.6,16.6,5.4S26.5,53.5,25.2,52.4C23.6,51.3,22.6,41.1,23.4,34.7z"/>
	<path class="st3" d="M35.1,39.1c0.8-4.4,15.5,0.1,12.8,4.9S36,57.5,35,56.5C33.9,55.3,34.1,45.4,35.1,39.1z"/>
	<path class="st2" d="M30.2,29.9c0.9-4.9,20.3,1.5,16.9,6.6c-3.4,5-15,13.9-16.3,12.6C29.4,47.9,29,36.8,30.2,29.9z"/>
	<path class="st2" d="M20.5,30c0.9-4.4,15.5,0.6,12.6,5.3s-12.4,13.2-13.3,12C18.7,46.3,19.1,36.2,20.5,30z"/>
	<path class="st1" d="M20.6,20.4c2.2-3.4,13.5,0.3,11.1,4.4S17.7,38.3,17.5,35.9C17.2,33,16.9,26.2,20.6,20.4z"/>
	<path class="st1" d="M53.8,31.6c0.1-4.1-12.1-8.3-12.5-3.2c-0.4,4.9,3.9,20.1,5.5,18.2C48.9,44.2,53.4,38.8,53.8,31.6z"/>
	<path class="st3" d="M27.9,22.3c0.5-4.5,20.8,0.9,17.8,5.7S31.6,41.3,30.1,40.1C28.5,38.8,27.1,28.6,27.9,22.3z"/>
	<path class="st0" d="M38.1,19.9c0,0,3.1-4.6,3-8.5c0,0,3.5,0,4.1,1.3c0,0-3.6,6.6-4.9,7.9C39,21.9,38.1,19.9,38.1,19.9z"/>
</g>
<g>
	<path class="st0" d="M77,55c0,0-7.4-2.2-13.9,0.8c-6.6,3-9.2,11-9.2,11L72,62.8L77,55z"/>
	<path class="st1" d="M82.2,71.5C81.9,67.6,69,70,71,74.4c1.8,4.3,8.8,12.5,9.8,11.7C81.7,85.4,82.6,76.9,82.2,71.5z"/>
	<path class="st2" d="M76.4,73.3C75,69.7,60.5,78.2,64,81.4s14.1,8,15,6.7C79.9,86.8,78.5,78.3,76.4,73.3z"/>
	<path class="st3" d="M79,67.7C78.1,64,62.6,70.3,65.5,74c3,3.7,12.8,9.9,13.8,8.8C80.4,81.7,80.3,73,79,67.7z"/>
	<path class="st3" d="M69.4,72.5c-1.2-3.6-13,1.7-10.3,5.4c2.8,3.7,11.5,10.2,12.1,9.3C72.1,86.2,71,77.7,69.4,72.5z"/>
	<path class="st2" d="M72.6,64.2c-1.2-4-17,3.4-13.5,7.2c3.4,3.9,14.1,10.2,15,9C75.1,79.3,74.3,69.9,72.6,64.2z"/>
	<path class="st2" d="M80.9,63.5c-1.3-3.6-13,2.1-10.1,5.8c3,3.6,11.7,9.8,12.5,8.8C84,76.9,82.7,68.5,80.9,63.5z"/>
	<path class="st1" d="M79.7,55.3c-2.2-2.6-11.4,1.7-8.9,4.9c2.5,3.2,13.2,10.1,13.2,8C84,65.7,83.5,59.9,79.7,55.3z"/>
	<path class="st1" d="M53.4,67.3c-0.3-3.5,10.2-7.1,10.6-3S61,81.5,59.5,80C57.7,78,53.8,73.4,53.4,67.3z"/>
	<path class="st3" d="M73.9,57.5c-0.9-3.7-17.5,3-14.5,6.7c3,3.7,13.3,9.7,14.5,8.6C75.1,71.7,75.1,63,73.9,57.5z"/>
	<path class="st0" d="M64.9,56.6c0,0-3.1-3.6-3.4-6.8c0,0-3,0.3-3.4,1.5c0,0,3.7,5.2,5,6.2C64.4,58.4,64.9,56.6,64.9,56.6z"/>
</g>
</svg>
