<?xml version="1.0" encoding="utf-8"?>
<!-- Generator: Adobe Illustrator 25.0.1, SVG Export Plug-In . SVG Version: 6.00 Build 0)  -->
<svg version="1.1" id="Layer_1" xmlns="http://www.w3.org/2000/svg" xmlns:xlink="http://www.w3.org/1999/xlink" x="0px" y="0px"
	 viewBox="0 0 100 100" enable-background="new 0 0 100 100" xml:space="preserve">
<g>
	<path fill="#B27558" d="M74.94,42.3c-0.15,0.33-0.3,0.66-0.47,0.99l-4.17,8.32l-2.43,4.86L57.39,77.36l0,0l-0.53,1.05
		c-0.34,0.67-0.7,1.31-1.12,1.91c-4.67,6.99-13.78,9.79-21.68,6.35c-7.9-3.44-12.06-12.01-10.13-20.2c0.17-0.71,0.38-1.42,0.64-2.12
		L25,63.26l8.15-21.9l1.9-5.09l3.25-8.73c3.96-10.63,16.02-15.75,26.41-11.23C74.77,20.69,79.27,32.37,74.94,42.3z"/>
	<path fill="#F9C1C8" d="M70.9,39.49c-3.29,7.56-12.1,11.03-19.66,7.74c-7.56-3.29-11.03-12.1-7.73-19.66
		c2.23-5.13,7.01-8.37,12.21-8.9c2.46-0.25,5.02,0.11,7.45,1.17c3.22,1.4,5.69,3.79,7.22,6.68C72.46,30.39,72.8,35.15,70.9,39.49z"
		/>
	<circle fill="#010101" cx="51.65" cy="30.12" r="2.13"/>
	<circle fill="#010101" cx="63.22" cy="35.16" r="2.13"/>
	<path fill="#F15F39" d="M70.39,26.51l-2.03,2.19l-3.16-3.41l-4.43,2.86l-1.84-5.44l-6.42,0.1l3.21-4.14
		c2.46-0.25,5.02,0.11,7.45,1.17C66.39,21.23,68.86,23.63,70.39,26.51z"/>
	<g>
		<path fill="#CC8F75" d="M70.31,51.61l-2.43,4.86c-4.28,2.05-10.91,4.57-20.57,6.66c-1.05,0.23-2.14,0.45-3.27,0.67
			c-5.71,1.1-12.37,2.05-20.09,2.69c0.17-0.71,0.38-1.42,0.64-2.12L25,63.26c6.54-0.58,12.28-1.39,17.29-2.32
			c1.12-0.2,2.21-0.42,3.26-0.64C59.41,57.39,67,53.61,70.31,51.61z"/>
	</g>
	<g>
		<path fill="#CC8F75" d="M57.39,77.36L57.39,77.36l-0.53,1.06c-0.34,0.67-0.7,1.31-1.12,1.91c-4.79-6.09-8.64-11.61-11.71-16.53
			c-0.61-0.98-1.19-1.93-1.74-2.86c-5.05-8.49-7.72-15.05-9.14-19.58l1.9-5.09c0.78,3.78,3.19,11.91,10.5,24.03
			c0.56,0.92,1.14,1.87,1.75,2.83C50.04,67.43,53.36,72.18,57.39,77.36z"/>
	</g>
</g>
</svg>
