<?xml version="1.0" encoding="utf-8"?>
<!-- Generator: Adobe Illustrator 25.0.1, SVG Export Plug-In . SVG Version: 6.00 Build 0)  -->
<svg version="1.1" id="Layer_1" xmlns="http://www.w3.org/2000/svg" xmlns:xlink="http://www.w3.org/1999/xlink" x="0px" y="0px"
	 viewBox="0 0 100 100" enable-background="new 0 0 100 100" xml:space="preserve">
<g>
	<path fill="#846748" d="M46.7,99.1L2.8,74.4c-0.9-0.5-1.4-1.1-1.5-1.8c-0.1-0.8,0.4-1.7,1.5-2.3l43.9-24.7c2-1.1,5.2-1.1,7.2,0
		l43.9,24.7c2,1.1,2,2.9,0,4.1L53.9,99.1C51.9,100.2,48.7,100.2,46.7,99.1z"/>
	<polygon fill="#846748" points="1.3,68.1 99.3,67.8 99.3,72.3 1.3,72.6 	"/>
	<path fill="#3A2C18" d="M46.7,94.5L2.8,69.8c-2-1.1-2-2.9,0-4.1L46.7,41c2-1.1,5.2-1.1,7.2,0l43.9,24.7c2,1.1,2,2.9,0,4.1
		L53.9,94.5C51.9,95.7,48.7,95.7,46.7,94.5z"/>
	<path fill="#51402A" d="M47.16,90.91l-38.5-21.7c-1.8-1-1.8-2.6,0-3.6l38.5-21.7c1.8-1,4.6-1,6.4,0l38.5,21.7c1.8,1,1.8,2.6,0,3.6
		l-38.5,21.7C51.86,91.81,48.96,91.81,47.16,90.91z"/>
</g>
<path fill="#253B30" d="M84.13,64.96c5.12,3.9-7,6.28-10.47,9.1c-2.52,2.04-9.34,6.56-12.6,8.54c-1.46,0.89-11.82,6.89-15.88,2.94
	c-5.29-5.16-17.08-9.01-21.36-12.31c-2.79-2.15-12.46-5.88-7.89-8.26c18.29-9.54,28.73-15.94,28.73-15.94
	c1.76-1.06,7.13-2.93,8.89-1.87C53.55,47.16,70.64,54.69,84.13,64.96z"/>
<path fill="#394C3D" d="M50.51-62.4c-0.98-0.04-1.99,0.16-2.76,0.59L17.01-44.49c-0.94,0.52-1.27,1.24-0.97,1.91
	c0.15,0.35,0.48,0.69,0.97,0.97l0.2,0.12l30.31-17.08c0.86-0.47,1.97-0.7,3.06-0.66L50.51-62.4z"/>
<path fill="#394C3D" d="M84.57-42.58c-0.15,0.35-0.48,0.69-0.97,0.97l-0.13,0.07L53.23-58.58c-0.75-0.42-1.7-0.64-2.65-0.66
	l-0.07-3.16c0.85,0.03,1.69,0.22,2.35,0.59l30.74,17.33C84.53-43.97,84.86-43.25,84.57-42.58z"/>
<path fill="#425445" d="M50.35-17.67c-1.05,0-2.1-0.21-2.91-0.61l-34.4-19.39c-0.8-0.45-1.21-1.03-1.21-1.61v-3.77
	c0,0.58,0.4,1.16,1.21,1.61l0.49,0.28l33.91,19.11c0.79,0.39,1.81,0.6,2.82,0.61h0.07L50.35-17.67z"/>
<ellipse fill="#545454" cx="65.68" cy="76.52" rx="1.89" ry="1.09"/>
<path fill="#394C3D" d="M53.16-22.05l13.52-7.62v3.77l-13.52,7.62c-0.76,0.4-1.78,0.61-2.81,0.61l-0.02-3.77
	C51.38-21.44,52.4-21.65,53.16-22.05z"/>
<path fill="#394C3D" d="M88.77-39.59l-0.04,0.02c0.16,0.67-0.23,1.38-1.17,1.9l-14.16,8l-0.09-3.72l0,0l11.28-6.38l-0.03-0.88
	l4.2-2.42V-39.59z"/>
<path fill="#211D18" d="M74.71,58.02c2.97-3.08,3.92-6.19,3.92-6.19C77.64,53.28,75.09,56,75.09,56L74.71,58.02z"/>
<ellipse fill="#314B3E" cx="55.07" cy="79.8" rx="2.32" ry="1.34"/>
<path fill="#394C3D" d="M48.9,76.68l-16.64-9.36c-0.76-0.42-0.76-1.1,0-1.55L48.9,56.4c0.76-0.42,1.97-0.42,2.73,0l16.64,9.36
	c0.76,0.42,0.76,1.1,0,1.55l-16.64,9.36C50.87,77.14,49.65,77.14,48.9,76.68z"/>
<path fill="#526657" d="M87.56-44.66l-34.4-19.39c-1.61-0.89-4.11-0.89-5.72,0l-34.4,19.39c-0.79,0.44-1.19,1-1.21,1.57v0.04
	c0,0.58,0.4,1.16,1.21,1.61l0.49,0.28l33.91,19.11c0.79,0.39,1.81,0.6,2.82,0.61c1.06,0.01,2.12-0.2,2.9-0.61l13.52-7.62l-2.2-1.16
	l-11.62,6.55c-1.36,0.71-3.67,0.71-5.11,0L17.01-41.61c-0.49-0.28-0.82-0.62-0.97-0.97c-0.29-0.67,0.04-1.39,0.97-1.91l30.74-17.33
	c1.44-0.8,3.67-0.8,5.11,0l30.74,17.33c0.94,0.52,1.27,1.24,0.97,1.91c-0.15,0.35-0.48,0.69-0.97,0.97l-12.25,6.92l1.97,1.29
	l13.76-7.76l0.49-0.28C89.17-42.33,89.17-43.76,87.56-44.66z"/>
<g>
	<path fill="#DBA883" d="M49.11,74.98l-14.77-8.31c-0.67-0.37-0.67-0.96,0-1.34l14.69-8.31c0.67-0.37,1.78-0.37,2.45,0l14.69,8.31
		c0.67,0.37,0.67,0.96,0,1.34l-14.62,8.31C50.82,75.35,49.78,75.35,49.11,74.98z"/>
	<path fill="#A67F67" d="M66.77,57.84V66l0,0l0,0c0,0.22-0.15,0.52-0.52,0.67l-14.69,8.31c-0.37,0.22-0.74,0.3-1.19,0.3V64.52
		L66.77,57.84z"/>
	<polygon fill="#D36737" points="33.9,65.33 33.9,57.02 50.3,64.52 50.3,75.28 48.96,73.27 48.15,73.35 	"/>
	<polygon fill="#DBA883" points="33.9,66 33.9,57.02 50.3,64.52 50.3,75.28 48.96,73.27 48.15,73.35 	"/>
	<polygon fill="#A67F67" points="33.9,59.4 33.9,61.18 50.3,70.53 50.3,68.15 	"/>
	<path fill="#2C1F14" d="M36.72,60.66l2.89,1.63c0.07,0.07,0.15,0.15,0.15,0.3v2.6c0,0.22-0.3,0.37-0.52,0.3l-2.89-1.71
		c-0.07-0.07-0.15-0.15-0.15-0.3v-2.52C36.27,60.73,36.57,60.58,36.72,60.66z"/>
	<path fill="#2C1F14" d="M43.92,64.74l2.89,1.63c0.07,0.07,0.15,0.15,0.15,0.3v2.6c0,0.22-0.3,0.37-0.52,0.3l-2.89-1.71
		c-0.07-0.07-0.15-0.15-0.15-0.3v-2.52C43.47,64.74,43.77,64.59,43.92,64.74z"/>
	<polygon fill="#C43A39" points="33.9,57.99 50.3,67.11 50.3,60.51 33.9,57.02 	"/>
	<path fill="#825522" d="M49.04,68.45L33.3,59.62c-0.74-0.37-0.74-1.04,0-1.48l15.66-8.83c0.74-0.37,1.86-0.37,2.6,0l15.66,8.83
		c0.74,0.37,0.74,1.04,0,1.48l-15.58,8.83C50.89,68.82,49.7,68.82,49.04,68.45z"/>
	<polygon fill="#825522" points="32.78,57.54 32.86,59.02 67.81,58.88 67.81,57.32 	"/>
	<path fill="#CE954F" d="M63.51,54.72l-1.19-0.59c-0.96-0.37-2-0.07-2.6,0.74l-9.87,12.47c-0.3-0.07-0.59-0.15-0.89-0.3L33.3,58.28
		c-0.59-0.3-0.67-0.82-0.37-1.19l0,0L42.21,45c0.59-0.82,1.71-1.19,2.6-0.74l6.46,3.56h0.07l4.9,2.75L63.51,54.72z"/>
	<path fill="#9B6928" d="M67.29,58.28l-15.66,8.76c-0.3,0.15-0.74,0.3-1.11,0.3c-0.22,0-0.37,0-0.59,0l9.8-12.47
		c0.59-0.82,1.71-1.19,2.6-0.74l1.19,0.59l3.78,2.08c0.22,0.15,0.45,0.37,0.52,0.52C67.89,57.69,67.74,57.99,67.29,58.28z"/>
	<path fill="#2C1F14" d="M57.57,71.64V66.3c0-0.59,0.37-1.19,0.89-1.48L59.95,64c0.52-0.3,1.11,0.07,1.11,0.67v5.05L57.57,71.64z"/>
	<g>
		<polyline fill="#DBA883" points="47.77,45.52 47.77,49.38 44.66,47.6 44.66,43.74 47.77,45.52 		"/>
		<polyline fill="#A67F67" points="47.77,45.52 47.77,49.38 50.89,47.6 50.89,43.74 47.77,45.52 		"/>
		<path fill="#3F3C2C" stroke="#E1B294" stroke-width="0.4454" stroke-miterlimit="10" d="M47.55,45.44l-2.82-1.56
			c-0.15-0.07-0.15-0.15,0-0.22l2.82-1.56c0.15-0.07,0.37-0.07,0.45,0l2.82,1.56c0.15,0.07,0.15,0.15,0,0.22L48,45.44
			C47.85,45.52,47.63,45.52,47.55,45.44z"/>
	</g>
	<g>
		<path fill="none" stroke="#C1814D" stroke-width="0.3711" stroke-miterlimit="10" d="M55.57,54.57c-0.52,0.89-1.78,1.11-2.82,0.52
			s-1.48-1.78-1.04-2.67"/>
		<path fill="none" stroke="#C1814D" stroke-width="0.3711" stroke-miterlimit="10" d="M51.71,52.42c-0.52,0.89-1.78,1.11-2.82,0.52
			s-1.48-1.78-1.04-2.67"/>
		<path fill="none" stroke="#C1814D" stroke-width="0.3711" stroke-miterlimit="10" d="M52.75,55.09c-0.52,0.89-1.78,1.11-2.82,0.52
			s-1.48-1.78-1.04-2.67"/>
		<path fill="none" stroke="#C1814D" stroke-width="0.3711" stroke-miterlimit="10" d="M53.79,57.76c-0.52,0.89-1.78,1.11-2.82,0.52
			s-1.48-1.78-1.04-2.67"/>
		<path fill="none" stroke="#C1814D" stroke-width="0.3711" stroke-miterlimit="10" d="M48.89,52.94c-0.52,0.89-1.78,1.11-2.82,0.52
			s-1.48-1.78-1.04-2.67"/>
		<path fill="none" stroke="#C1814D" stroke-width="0.3711" stroke-miterlimit="10" d="M49.93,55.61c-0.52,0.89-1.78,1.11-2.82,0.52
			s-1.48-1.78-1.04-2.67"/>
		<path fill="none" stroke="#C1814D" stroke-width="0.3711" stroke-miterlimit="10" d="M50.97,58.28c-0.52,0.89-1.78,1.11-2.82,0.52
			s-1.48-1.78-1.04-2.67"/>
		<path fill="none" stroke="#C1814D" stroke-width="0.3711" stroke-miterlimit="10" d="M52,60.95c-0.52,0.89-1.78,1.11-2.82,0.52
			s-1.48-1.78-1.04-2.67"/>
		<path fill="none" stroke="#C1814D" stroke-width="0.3711" stroke-miterlimit="10" d="M45.03,50.79c-0.52,0.89-1.78,1.11-2.82,0.52
			s-1.48-1.78-1.04-2.67"/>
		<path fill="none" stroke="#C1814D" stroke-width="0.3711" stroke-miterlimit="10" d="M46.07,53.46c-0.52,0.89-1.78,1.11-2.82,0.52
			s-1.48-1.78-1.04-2.67"/>
		<path fill="none" stroke="#C1814D" stroke-width="0.3711" stroke-miterlimit="10" d="M47.11,56.13c-0.52,0.89-1.78,1.11-2.82,0.52
			s-1.48-1.78-1.04-2.67"/>
		<path fill="none" stroke="#C1814D" stroke-width="0.3711" stroke-miterlimit="10" d="M48.15,58.8c-0.52,0.89-1.78,1.11-2.82,0.52
			s-1.48-1.78-1.04-2.67"/>
		<path fill="none" stroke="#C1814D" stroke-width="0.3711" stroke-miterlimit="10" d="M49.18,61.47c-0.52,0.89-1.78,1.11-2.82,0.52
			s-1.48-1.78-1.04-2.67"/>
		<path fill="none" stroke="#C1814D" stroke-width="0.3711" stroke-miterlimit="10" d="M43.25,53.98c-0.52,0.89-1.78,1.11-2.82,0.52
			s-1.48-1.78-1.04-2.67"/>
		<path fill="none" stroke="#C1814D" stroke-width="0.3711" stroke-miterlimit="10" d="M44.29,56.65c-0.52,0.89-1.78,1.11-2.82,0.52
			s-1.48-1.78-1.04-2.67"/>
		<path fill="none" stroke="#C1814D" stroke-width="0.3711" stroke-miterlimit="10" d="M45.33,59.32c-0.52,0.89-1.78,1.11-2.82,0.52
			s-1.48-1.78-1.04-2.67"/>
		<path fill="none" stroke="#C1814D" stroke-width="0.3711" stroke-miterlimit="10" d="M41.47,57.17c-0.52,0.89-1.78,1.11-2.82,0.52
			s-1.48-1.78-1.04-2.67"/>
	</g>
</g>
<ellipse fill="#386A49" cx="77.13" cy="51.54" rx="4.94" ry="4.21"/>
<path fill="#2D2112" d="M73.87,64.94c0,0,1.52-4.92,0.71-10.42c-0.8-5.5,1.03-1.04,1.03-1.04s-0.21,7.34,1.26,11.59
	C76.86,65.06,75.24,66.28,73.87,64.94z"/>
<ellipse fill="#49855C" cx="73.66" cy="52.86" rx="4.94" ry="4.21"/>
<ellipse fill="#3E734B" cx="77.88" cy="54.21" rx="4.23" ry="3.6"/>
<polygon fill="#466C5A" points="71.34,-34.69 71.41,-30.89 73.4,-29.67 73.31,-33.39 "/>
<ellipse fill="#314B3E" cx="25.32" cy="64.61" rx="1.5" ry="0.86"/>
<ellipse fill="#314B3E" cx="39.22" cy="74.47" rx="1.5" ry="0.86"/>
<ellipse fill="#314B3E" cx="72.37" cy="68.73" rx="1.5" ry="0.86"/>
<ellipse fill="#314B3E" cx="69.03" cy="62.5" rx="1.2" ry="0.69"/>
<ellipse fill="#314B3E" cx="30.42" cy="61.33" rx="2.32" ry="1.34"/>
<ellipse fill="#545454" cx="65.8" cy="73.67" rx="1.38" ry="0.8"/>
<ellipse fill="#545454" cx="70.23" cy="77.66" rx="1.38" ry="0.8"/>
<ellipse fill="#545454" cx="68.93" cy="74.71" rx="1.41" ry="0.82"/>
<ellipse fill="#545454" cx="64.15" cy="71.81" rx="0.98" ry="0.57"/>
<ellipse fill="#545454" cx="61.06" cy="73.22" rx="1.46" ry="0.84"/>
<ellipse fill="#545454" cx="62.46" cy="75.26" rx="1.05" ry="0.61"/>
</svg>
