<?xml version="1.0" encoding="utf-8"?>
<!-- Generator: Adobe Illustrator 25.0.1, SVG Export Plug-In . SVG Version: 6.00 Build 0)  -->
<svg version="1.1" id="Layer_1" xmlns="http://www.w3.org/2000/svg" xmlns:xlink="http://www.w3.org/1999/xlink" x="0px" y="0px"
	 viewBox="0 0 100 100" style="enable-background:new 0 0 100 100;" xml:space="preserve">
<style type="text/css">
	.st0{opacity:0.68;fill:none;stroke:#EAB01E;stroke-width:2;stroke-miterlimit:10;enable-background:new    ;}
	.st1{opacity:0.68;fill:#EAB01E;enable-background:new    ;}
	.st2{fill:#8A5A56;}
	.st3{fill:#6D443F;}
	.st4{fill:#CC7473;}
	.st5{fill:#E3A5A4;}
	.st6{fill:#EDC7C6;}
</style>
<ellipse transform="matrix(0.4841 -0.875 0.875 0.4841 -9.0704 69.8679)" class="st0" cx="54.7" cy="42.6" rx="7.4" ry="29.6"/>
<ellipse transform="matrix(0.9998 -1.831852e-02 1.831852e-02 0.9998 -0.6626 1.0684)" class="st0" cx="58" cy="36.7" rx="29.6" ry="7.4"/>
<ellipse transform="matrix(0.5 -0.866 0.866 0.5 -27.2652 52.7752)" class="st0" cx="32.1" cy="50" rx="21.7" ry="5.4"/>
<path class="st1" d="M34.4,44.4c-3.9-2-7.7-10.4-0.6-19.6S35.4,13,35.4,13s7.2-0.6,6.2,8.6c-1,9.2,11.3-5.2,4.8-12.3
	c0,0,14.7,4.4,4,21.1c-0.5,0.9,3,2.4,4.3-0.5C54.7,29.9,51.9,53.3,34.4,44.4z"/>
<path class="st1" d="M30.5,40c-3.8-4.4-4.4-16.6,8.9-24.5s7.9-13.7,7.9-13.7s9.2,2.8,3.4,13.7s16.5-0.8,12-12.8
	c0,0,15.9,12.7-5.5,28.1c-1.1,0.8,2.6,4.5,5.6,1.5C62.7,32.3,47.7,59.8,30.5,40z"/>
<path class="st2" d="M68.1,95.8L41.5,37.9l2.6-1.2l26.6,57.9c0.3,0.7,0,1.6-0.7,1.9l0,0C69.3,96.9,68.5,96.5,68.1,95.8z"/>
<path class="st3" d="M45.1,39.3l-2.1,1c-0.3,0.2-0.8,0-0.9-0.3l-0.3-0.7c-0.2-0.3,0-0.8,0.3-0.9l2.1-1c0.3-0.2,0.8,0,0.9,0.3
	l0.3,0.7C45.6,38.8,45.4,39.2,45.1,39.3z"/>
<circle class="st4" cx="41.5" cy="34.2" r="4.5"/>
<circle class="st5" cx="41.5" cy="34.2" r="3.2"/>
<path class="st6" d="M54.4,59.2L52,60.3c-0.3,0.1-0.6,0-0.7-0.3l-5.2-11.3c-0.1-0.3,0-0.6,0.3-0.7l2.4-1.1c0.3-0.1,0.6,0,0.7,0.3
	l5.2,11.3C54.8,58.8,54.7,59.1,54.4,59.2z"/>
<circle class="st1" cx="26" cy="50" r="4.2"/>
<circle class="st1" cx="26" cy="16.5" r="2.1"/>
<circle class="st1" cx="15.2" cy="18.6" r="3.6"/>
<circle class="st1" cx="68.3" cy="56.4" r="4.8"/>
<circle class="st1" cx="95.9" cy="36.1" r="3"/>
</svg>
