<?xml version="1.0" encoding="utf-8"?>
<!-- Generator: Adobe Illustrator 25.0.1, SVG Export Plug-In . SVG Version: 6.00 Build 0)  -->
<svg version="1.1" id="Layer_1" xmlns="http://www.w3.org/2000/svg" xmlns:xlink="http://www.w3.org/1999/xlink" x="0px" y="0px"
	 viewBox="0 0 100 100" enable-background="new 0 0 100 100" xml:space="preserve">
<path fill="none" stroke="#AF7852" stroke-width="5.5808" stroke-miterlimit="10" d="M-93.35,23.48c0,0-2.51-11.64,5.75-12.35
	c8.26-0.71,18.98-2.86,18.71,11.16"/>
<polygon fill="#8A5733" points="-62.95,86.63 -53.48,77.16 -76.78,66.78 -109.11,81.82 "/>
<path fill="#8A5733" d="M-57.16,79.01h-50.97v-42.7h55.63v38.04C-52.5,76.92-54.59,79.01-57.16,79.01z"/>
<path fill="#9E653E" d="M-66.64,88.48h-46.31c-2.57,0-4.66-2.09-4.66-4.66V45.78h55.63v38.04C-61.97,86.39-64.06,88.48-66.64,88.48z
	"/>
<path fill="#9E653E" d="M-50.61,23.6L-50.61,23.6L-50.61,23.6c-0.69-1.43-2.29-2.44-4.15-2.44h-54.42c-1.25,0-2.37,0.45-3.19,1.18
	l-6.99,6.39l5.67,6.14v5.04c0,4.88,14.2,8.84,31.72,8.84c3.71,0,7.25-0.19,10.56-0.51l11.55,1.55l7.18-6.47v0
	c1.57-1.05,2.44-2.19,2.44-3.4V25.18C-50.25,24.62-50.38,24.09-50.61,23.6z"/>
<path fill="#89481F" d="M-72.68,73.47c0-1.08-1.63-1.95-3.65-1.95h-23.96c-0.64,0-1.2,0.11-1.72,0.26l-0.06-0.01l-0.2,0.1
	c-0.35,0.12-0.65,0.27-0.9,0.45l-1.93,0.97l1.16,0.41v6.88c0,1.08,1.63,1.95,3.65,1.95h21.3l2.48,0.88l2.69-1.42
	c0.04-0.02,0.08-0.04,0.12-0.06l0.13-0.07v-0.03c0.53-0.34,0.89-0.76,0.89-1.24V73.47z"/>
<path fill="#AF7852" d="M-117,28.12c-2.49,0-4.51,1.8-4.51,4.02v14.73c0,4.88,14.2,8.84,31.72,8.84s31.72-3.96,31.72-8.84V32.14
	c0-2.22-2.02-4.02-4.51-4.02H-117z"/>
<path fill="#CE7A41" d="M-77.84,83.87h-25.93c-1.47,0-2.67-1.19-2.67-2.67v-5.69c0-1.47,1.19-2.67,2.67-2.67h25.93
	c1.47,0,2.67,1.19,2.67,2.67v5.69C-75.17,82.67-76.37,83.87-77.84,83.87z"/>
<polygon fill="#684024" points="-93.87,20.09 -98.74,20.09 -110.26,28.12 -110.26,64 -107.41,68.18 -105.1,64.26 -105.1,28.66 
	-95.02,21.2 -93.87,21.16 "/>
<polygon fill="#684024" points="-60.12,20.09 -64.99,20.09 -76.51,28.12 -76.51,64.73 -73.66,68.83 -71.34,64.91 -71.34,28.66 
	-61.27,21.2 -60.12,21.16 "/>
<path fill="none" stroke="#CC7D60" stroke-width="3.8262" stroke-miterlimit="10" d="M46.51,32.39c0,0-0.54-8.14,5.13-7.8
	c5.68,0.34,13.16-0.04,11.58,9.44"/>
<polygon fill="#A75C3D" points="60.81,78.26 68.18,72.78 53.41,63.42 29.98,70.38 "/>
<path fill="#A75C3D" d="M65.49,73.67l-34.57-5.1l4.27-28.96l37.73,5.56l-3.8,25.8C68.86,72.72,67.24,73.93,65.49,73.67z"/>
<path fill="#BD6949" d="M58.12,79.15l-31.41-4.63c-1.75-0.26-2.95-1.88-2.7-3.63l3.8-25.8l37.73,5.56l-3.8,25.8
	C61.49,78.2,59.87,79.41,58.12,79.15z"/>
<path fill="#BD6949" d="M75.48,36.75L75.48,36.75L75.48,36.75c-0.32-1.04-1.31-1.88-2.57-2.07L36,29.23
	c-0.84-0.12-1.65,0.07-2.28,0.48l-5.38,3.64l3.23,4.73l-0.5,3.42c-0.49,3.31,8.75,7.41,20.63,9.17c2.52,0.37,4.94,0.6,7.21,0.71
	l7.68,2.2l5.51-3.67l0,0c1.17-0.55,1.87-1.24,1.99-2.06l1.47-9.99C75.62,37.47,75.59,37.1,75.48,36.75z"/>
<path fill="#A74833" d="M55.53,66.96c0.11-0.73-0.91-1.48-2.28-1.69L37,62.88c-0.43-0.06-0.83-0.05-1.2,0.01l-0.04-0.01l-0.15,0.05
	c-0.25,0.05-0.47,0.12-0.65,0.22l-1.4,0.47L34.31,64l-0.69,4.67c-0.11,0.73,0.91,1.48,2.28,1.69l14.45,2.13l1.59,0.84l1.96-0.7
	c0.03-0.01,0.06-0.02,0.09-0.03l0.1-0.03l0-0.02c0.39-0.18,0.68-0.43,0.73-0.75L55.53,66.96z"/>
<path fill="#CC7D60" d="M30,33.17c-1.69-0.25-3.24,0.77-3.46,2.27l-1.47,9.99c-0.49,3.31,8.75,7.41,20.63,9.17s21.91,0.49,22.4-2.82
	l1.47-9.99c0.22-1.5-0.97-2.93-2.66-3.18L30,33.17z"/>
<path fill="#EA7548" d="M50.99,73.5l-17.58-2.59c-1-0.15-1.69-1.08-1.54-2.08l0.57-3.86c0.15-1,1.08-1.69,2.08-1.54l17.58,2.59
	c1,0.15,1.69,1.08,1.54,2.08l-0.57,3.86C52.92,72.96,51.99,73.65,50.99,73.5z"/>
<polygon fill="#86472F" points="46.49,30.04 43.19,29.55 34.57,33.85 30.98,58.18 32.5,61.3 34.46,58.88 38.02,34.73 45.6,30.68 
	46.38,30.76 "/>
<polygon fill="#86472F" points="69.38,33.41 66.08,32.93 57.46,37.22 53.8,62.06 55.32,65.12 57.29,62.69 60.91,38.1 68.49,34.05 
	69.27,34.14 "/>
</svg>
