<?xml version="1.0" encoding="utf-8"?>
<!-- Generator: Adobe Illustrator 25.0.1, SVG Export Plug-In . SVG Version: 6.00 Build 0)  -->
<svg version="1.1" id="Layer_1" xmlns="http://www.w3.org/2000/svg" xmlns:xlink="http://www.w3.org/1999/xlink" x="0px" y="0px"
	 viewBox="0 0 100 100" enable-background="new 0 0 100 100" xml:space="preserve">
<g>
	<g>
		<path fill="#777777" d="M55.45,26.29v41.8c0,0-5.41,2.68-16.22,3.75c-2.85,0.28-4.98,0.3-6.56,0.19c-0.05,0-0.09,0-0.15-0.01
			c-0.16-0.02-0.3-0.03-0.45-0.04c-0.07,0-0.15-0.01-0.22-0.03c-0.85-0.09-1.52-0.24-2.03-0.41c-1.66-0.53-1.76-1.25-1.76-1.25
			c0-5.32,12-10.21,12-10.21V28.4C49.42,30.74,55.45,26.29,55.45,26.29z"/>
		<path fill="#A7A7A7" d="M55.58,62.26l-3.59-2.19c-3.39-12.79-0.43-31-0.43-31l-7.18-1.67l-3.86,15.57c0,0-0.3,4.45-0.99,15.09
			c-0.7,10.64-11.82,10.21-7.67,13.88c4.15,3.67,23.48-2.95,23.48-2.95L55.58,62.26"/>
		<path fill="#B6B6B6" d="M32.67,72.03c-0.05,0-0.09,0-0.15-0.01c-0.16-0.02-0.3-0.03-0.45-0.04c-0.07,0-0.15-0.01-0.22-0.03
			c-0.65-0.15-1.33-0.28-2.03-0.41c-1.66-0.53-1.76-1.25-1.76-1.25c0-5.32,12-10.21,12-10.21s3.94,0.85,5.36,3.74
			C46.76,66.51,36.96,72.02,32.67,72.03z"/>
		<path fill="#777777" d="M51.06,60.07c0,0-10.29-3.48-10.99-7.23c-0.7-3.75-2.77,2.92-0.97,7.23c1.81,4.31,10.84,4.31,11.96,4.31
			S51.06,60.07,51.06,60.07z"/>
		<circle fill="#B6B6B6" cx="51.99" cy="62.26" r="3.59"/>
		<path fill="#777777" d="M56.77,25.56c0,0-0.65-4.53-14.93-6.83v8.13l14.82-0.56"/>
		<path fill="#1E1616" d="M55.86,26.11c0,0,0.44-3.36-13.83-5.66l-1.1,6.95l14.82-0.56"/>
		<path fill="#4E4D4C" d="M55.45,68.09c0,2-1.43,3.72-3.38,4.1c-9.76,1.95-24,3.65-24-1.91c0,0,0.36,2.61,11.16,1.55
			C50.03,70.76,55.45,68.09,55.45,68.09z"/>
		<path fill="#B6B6B6" d="M38.12,27.38c0.55,4.69,1.88,17.09,1.11,21.23c0,0,0.31,2.31,2.53,3.1c2.21,0.79-2.93-14.22,6.39-18.81
			s8.63-7.34,8.63-7.34s-12.61-2.66-14.93-6.83c0,0-1.66,2.15-3.06,4.89C38.2,24.78,37.97,26.09,38.12,27.38z"/>
	</g>
	<g>
		<path fill="#8C8C8C" d="M71.08,31.65v41.8c0,0-5.41,2.68-16.22,3.75c-2.85,0.28-4.98,0.3-6.56,0.19c-0.05,0-0.09,0-0.15-0.01
			c-0.16-0.02-0.3-0.03-0.45-0.04c-0.07,0-0.15-0.01-0.22-0.03c-0.85-0.09-1.52-0.24-2.03-0.41c-1.66-0.53-1.76-1.25-1.76-1.25
			c0-5.32,12-10.21,12-10.21V33.75C65.06,36.09,71.08,31.65,71.08,31.65z"/>
		<path fill="#BDBDBD" d="M71.21,67.61l-3.59-2.19c-3.39-12.79-0.43-31-0.43-31l-7.18-1.67l-3.86,15.57c0,0-0.3,4.45-0.99,15.09
			c-0.7,10.64-11.82,10.21-7.67,13.88s23.48-2.95,23.48-2.95L71.21,67.61"/>
		<path fill="#CCCCCB" d="M48.31,77.38c-0.05,0-0.09,0-0.15-0.01c-0.16-0.02-0.3-0.03-0.45-0.04c-0.07,0-0.15-0.01-0.22-0.03
			c-0.65-0.15-1.33-0.28-2.03-0.41c-1.66-0.53-1.76-1.25-1.76-1.25c0-5.32,12-10.21,12-10.21s3.94,0.85,5.36,3.74
			C62.39,71.86,52.59,77.37,48.31,77.38z"/>
		<path fill="#8C8C8C" d="M66.7,65.43c0,0-10.29-3.48-10.99-7.23c-0.7-3.75-2.77,2.92-0.97,7.23c1.81,4.31,10.84,4.31,11.96,4.31
			S66.7,65.43,66.7,65.43z"/>
		<circle fill="#CCCCCB" cx="67.62" cy="67.61" r="3.59"/>
		<path fill="#8C8C8C" d="M72.41,30.91c0,0-0.65-4.53-14.93-6.83v8.13l14.82-0.56"/>
		<path fill="#1E1616" d="M71.49,31.47c0,0,0.44-3.36-13.83-5.66l-1.1,6.95l14.82-0.56"/>
		<path fill="#636261" d="M71.08,73.44c0,2-1.43,3.72-3.38,4.1c-9.76,1.95-24,3.65-24-1.91c0,0,0.36,2.61,11.16,1.55
			C65.67,76.12,71.08,73.44,71.08,73.44z"/>
		<path fill="#CCCCCB" d="M53.76,32.73c0.55,4.69,1.88,17.09,1.11,21.23c0,0,0.31,2.31,2.53,3.1s-2.93-14.22,6.39-18.81
			s8.63-7.34,8.63-7.34s-12.61-2.66-14.93-6.83c0,0-1.66,2.15-3.06,4.89C53.83,30.13,53.61,31.44,53.76,32.73z"/>
	</g>
</g>
</svg>
