<?xml version="1.0" encoding="utf-8"?>
<!-- Generator: Adobe Illustrator 25.0.1, SVG Export Plug-In . SVG Version: 6.00 Build 0)  -->
<svg version="1.1" id="Layer_1" xmlns="http://www.w3.org/2000/svg" xmlns:xlink="http://www.w3.org/1999/xlink" x="0px" y="0px"
	 viewBox="0 0 100 100" enable-background="new 0 0 100 100" xml:space="preserve">
<g>
	<path fill="#353535" d="M64.78,60.82c2.11-1.43,3.37-3.17,3.37-5.04c0-4.85-8.28-8.78-18.5-8.78s-18.5,3.93-18.5,8.78
		c0,1.87,1.25,3.62,3.37,5.04c-2.11,0.9-3.37,2.01-3.37,3.19c0,3.07,8.28,5.55,18.5,5.55s18.5-2.48,18.5-5.55
		C68.15,62.81,66.89,61.72,64.78,60.82z"/>
	<path fill="#8B8B8B" d="M68.88,74.2c-2.2,0.94-4.91,1.97-7.64,2.76c-1.17,0.34-2.35,0.25-3.38-0.15c-1.82-0.71-3.2-2.41-3.32-4.56
		l-0.26-4.52c-0.15-2.45,1.43-4.67,3.8-5.34l2.35-0.67c2.25-0.64,3.8-2.7,3.8-5.02v-0.06c-0.03-3.22-2.94-5.64-6.12-5.09l-4.57,0.8
		c-2.61,0.45-5.28,0.45-7.89,0l-1.67-0.29l-2.91-0.51c-0.31-0.07-0.61-0.08-0.91-0.08c-0.52,0-1.04,0.08-1.52,0.22h-0.01
		c-2.09,0.65-3.66,2.59-3.69,4.95c-0.03,2.36,1.53,4.44,3.8,5.08l2.35,0.67c2.36,0.67,3.94,2.9,3.8,5.34l-0.26,4.52
		c-0.21,3.37-3.47,5.63-6.71,4.71c-2.73-0.78-5.44-1.83-7.64-2.76c-2.38-1.01-3.69-3.61-3.03-6.1c0.83-3.13,1.61-8.81,1.51-19.06
		c-0.22-21.59,20.82-27.13,20.82-27.13s5.08,1.34,10.24,5.28c4.32,3.3,8.69,8.43,10.11,16.13c0.33,1.77,0.5,3.67,0.48,5.73
		c-0.07,6.97,0.26,11.84,0.75,15.22c0.22,1.57,0.48,2.84,0.74,3.84C72.56,70.59,71.26,73.2,68.88,74.2z"/>
	<ellipse transform="matrix(0.866 -0.5 0.5 0.866 -10.3227 25.0638)" fill="#CFCFCE" cx="41.61" cy="31.79" rx="4.09" ry="2.33"/>
</g>
</svg>
