<?xml version="1.0" encoding="utf-8"?>
<!-- Generator: Adobe Illustrator 25.0.1, SVG Export Plug-In . SVG Version: 6.00 Build 0)  -->
<svg version="1.1" id="Layer_1" xmlns="http://www.w3.org/2000/svg" xmlns:xlink="http://www.w3.org/1999/xlink" x="0px" y="0px"
	 viewBox="0 0 100 100" enable-background="new 0 0 100 100" xml:space="preserve">
<g>
	<path fill="#8C8C8C" d="M31.15,68.25v8.64c0,1.06,0.77,1.97,1.81,2.15c1.66,0.29,4.72,0.49,10.17,0c1.11-0.1,1.97-1.02,1.99-2.13
		l0.24-10.82c0.01-0.24-0.21-0.43-0.45-0.39l-13.44,2.17C31.29,67.9,31.15,68.06,31.15,68.25z"/>
	<path fill="#A9A8A9" d="M46.36,53.25l-0.1,2.92L46,64.07v0.01l-0.12,3.68c0,0.15-0.09,0.28-0.22,0.34
		c-0.11,0.05-0.23,0.1-0.35,0.15c-4.81,1.95-12.19,0.74-14.16,0.36c-0.07-0.01-0.14-0.03-0.2-0.04c-0.18-0.04-0.31-0.19-0.31-0.38
		V55.96c0-0.19,0.13-0.35,0.32-0.38l0.19-0.03l10.24-1.87l4.52-0.82C46.15,52.81,46.37,53,46.36,53.25z"/>
	<path fill="#8C8C8C" d="M69.7,68.25v8.63c0,1.07-0.77,1.97-1.81,2.15c-0.98,0.17-2.46,0.31-4.63,0.3c-1.49-0.01-3.32-0.09-5.55-0.3
		c-1.11-0.1-1.97-1.02-1.99-2.13l-0.19-8.67l-0.05-2.16c-0.01-0.24,0.21-0.43,0.45-0.39l10.79,1.74l2.65,0.43
		C69.56,67.9,69.7,68.06,69.7,68.25z"/>
	<path fill="#A9A8A9" d="M70.2,55.96v12.22c0,0.18-0.13,0.34-0.31,0.38c-0.06,0.01-0.12,0.03-0.19,0.04
		c-0.87,0.17-2.79,0.5-5.07,0.65c-2.9,0.19-6.4,0.09-9.09-1c-0.12-0.05-0.23-0.1-0.35-0.15c-0.13-0.06-0.22-0.19-0.22-0.34
		l-0.38-11.59l-0.1-2.92c-0.01-0.24,0.21-0.44,0.45-0.39l8.99,1.64l5.96,1.09C70.07,55.62,70.2,55.78,70.2,55.96z"/>
	<path fill="#BDBDBD" d="M70.63,55.75c0,0.16-0.09,0.3-0.23,0.36c-0.06,0.02-0.12,0.05-0.19,0.08c-0.69,0.26-2.21,0.74-4.57,0.95h0
		c-2.63,0.24-6.31,0.14-11.05-0.97c-0.13-0.03-0.25-0.06-0.38-0.09c-0.17-0.04-0.3-0.2-0.3-0.38c0.02-1.29-0.11-6.28-3.18-7.82
		c-0.1-0.05-0.23-0.05-0.33,0c-1.07,0.53-1.81,1.49-2.32,2.56c-0.96,2.02-1.1,4.45-1.12,5.28c-0.01,0.17-0.13,0.32-0.3,0.36
		c-0.13,0.03-0.26,0.06-0.39,0.09c-1.95,0.46-3.72,0.74-5.31,0.9c-5.65,0.58-9.05-0.41-10.25-0.86c-0.02-0.01-0.04-0.02-0.06-0.02
		c-0.08-0.03-0.14-0.06-0.19-0.08c-0.14-0.06-0.24-0.2-0.23-0.36l0.27-19.91l0.07-5.19v0l0.01-0.8c0-0.23,0.2-0.4,0.42-0.38
		l19.4,1.9c0.03,0,0.05,0,0.08,0l19.4-1.9c0.23-0.02,0.42,0.15,0.42,0.38l0.01,0.45l0.06,4.18L70.63,55.75z"/>
	<path fill="#8C8C8C" d="M68.2,24.96c-5.92,1.87-20.38,5.27-35.55,0.08c-1.41-0.48-2.87,0.57-2.87,2.05v2.99
		c0,0.16,0.1,0.3,0.25,0.36c2.39,0.89,21.53,7.56,40.74-0.36c0.14-0.06,0.24-0.2,0.24-0.36v-2.7C71.02,25.57,69.6,24.52,68.2,24.96z
		"/>
	<path fill="#8C8C8C" d="M32.1,24.86c0,0,14.94-4.36,36.99,0.02l-3.66,4.59L37.55,28.9L32.1,24.86z"/>
	<ellipse fill="#212020" cx="50.42" cy="26.68" rx="16.65" ry="2.47"/>
</g>
</svg>
