<?xml version="1.0" encoding="utf-8"?>
<!-- Generator: Adobe Illustrator 25.0.1, SVG Export Plug-In . SVG Version: 6.00 Build 0)  -->
<svg version="1.1" id="Layer_1" xmlns="http://www.w3.org/2000/svg" xmlns:xlink="http://www.w3.org/1999/xlink" x="0px" y="0px"
	 viewBox="0 0 100 100" enable-background="new 0 0 100 100" xml:space="preserve">
<g>
	<path fill="#686969" d="M70.59,77.86H19.86V54.62h44.72c1.35,0,2.6,1.42,3.28,3.71l0.46,1.57l1.86,6.35l-6.96,6.57
		c0.07,0.24,0.12,0.47,0.16,0.71C63.7,75.61,71.78,77.86,70.59,77.86z"/>
	<path fill="#434343" d="M70.59,77.86h-48.5v-4.33h41.29C63.7,75.61,71.78,77.86,70.59,77.86z"/>
	<path fill="#B9B9B9" d="M32.77,77.9H6.94c-1.33,0-2.17-2.8-1.5-5.05l4.23-14.48c0.67-2.29,1.92-3.7,3.28-3.7h13.83
		c1.35,0,2.6,1.41,3.27,3.7l4.24,14.48C34.93,75.1,34.1,77.9,32.77,77.9z"/>
	<path fill="#CBCBCB" d="M25.38,54.67L9.81,77.9H6.94c-1.33,0-2.17-2.8-1.5-5.05l4.23-14.48c0.67-2.29,1.92-3.7,3.28-3.7H25.38z"/>
	<path fill="#9E9E9E" d="M76.99,54.63H35.14V31.39h35.85c1.35,0,2.6,1.42,3.28,3.71l0.46,1.57l1.86,6.35l1.91,6.57
		c0.07,0.24,0.12,0.47,0.16,0.71C78.98,52.38,78.19,54.63,76.99,54.63z"/>
	<polygon fill="#CBCBCB" points="76.58,43.02 35.78,43.02 35.78,36.67 74.73,36.67 	"/>
	<path fill="#797979" d="M76.99,54.63H37.37V50.3h41.29C78.98,52.38,78.19,54.63,76.99,54.63z"/>
	<path fill="#B9B9B9" d="M48.06,54.63H22.23c-1.33,0-2.17-2.8-1.5-5.05l4.23-14.48c0.67-2.29,1.92-3.7,3.28-3.7h13.83
		c1.35,0,2.6,1.41,3.27,3.7l4.24,14.48C50.21,51.83,49.38,54.63,48.06,54.63z"/>
	<path fill="#CBCBCB" d="M40.66,31.4L25.09,54.63h-2.87c-1.33,0-2.17-2.8-1.5-5.05l4.23-14.48c0.67-2.29,1.92-3.7,3.28-3.7H40.66z"
		/>
	<path fill="#8C8C8C" d="M92.09,77.77H50.24V54.53h35.85c1.35,0,2.6,1.42,3.28,3.71l0.46,1.57l1.86,6.35l1.91,6.57
		c0.07,0.24,0.12,0.47,0.16,0.71C94.08,75.51,93.28,77.77,92.09,77.77z"/>
	<polygon fill="#CBCBCB" points="91.81,66.29 51.01,66.29 51.01,59.94 89.96,59.94 	"/>
	<path fill="#676767" d="M92.22,77.9H52.59v-4.33h41.29C94.21,75.65,93.42,77.9,92.22,77.9z"/>
	<path fill="#B9B9B9" d="M63.29,77.9H37.46c-1.33,0-2.17-2.8-1.5-5.05l4.23-14.48c0.67-2.29,1.92-3.7,3.28-3.7h13.83
		c1.35,0,2.6,1.41,3.27,3.7l4.24,14.48C65.44,75.1,64.61,77.9,63.29,77.9z"/>
	<path fill="#CBCBCB" d="M55.89,54.67L40.32,77.9h-2.87c-1.33,0-2.17-2.8-1.5-5.05l4.23-14.48c0.67-2.29,1.92-3.7,3.28-3.7H55.89z"
		/>
</g>
</svg>
