<?xml version="1.0" encoding="utf-8"?>
<!-- Generator: Adobe Illustrator 25.0.1, SVG Export Plug-In . SVG Version: 6.00 Build 0)  -->
<svg version="1.1" id="Layer_1" xmlns="http://www.w3.org/2000/svg" xmlns:xlink="http://www.w3.org/1999/xlink" x="0px" y="0px"
	 viewBox="0 0 100 100" enable-background="new 0 0 100 100" xml:space="preserve">
<g>
	<path fill="#8C8C8C" d="M27.02,36.65c0,0-4.14,2.98-5.73,11.75c0,0,3.32,5.12,11.47,4.02C40.92,51.33,34.21,40,34.21,40
		L27.02,36.65z"/>
	<path fill="#8C8C8C" d="M73.95,35.92c0,0,4.14,2.98,5.73,11.75c0,0-3.32,5.12-11.47,4.02s-1.45-12.43-1.45-12.43L73.95,35.92z"/>
	<path fill="#8C8C8C" d="M66.15,61.81H50.49H34.82L30.92,74c0,0,5.98,7.68,19.56,7.68c13.59,0,19.56-7.68,19.56-7.68L66.15,61.81z"
		/>
	<path fill="#B0B0B0" d="M67.64,41.18l-4.09-6l-13.07,0.67l-13.07-0.67l-4.09,6c0,0-2.45,5.7-0.85,18.58
		c1.59,12.88,18.01,12.88,18.01,12.88s16.41,0,18.01-12.88C70.09,46.88,67.64,41.18,67.64,41.18z"/>
	<path fill="#BFBFBE" d="M36.92,25.95c0,0-7.18-1.73-12.63,8.3c0,0,7.21,5.94,8.19,10.28c0,0,7.63,0.51,13.71-7.36
		S36.92,25.95,36.92,25.95z"/>
	<path fill="#BFBFBE" d="M64.05,25.95c0,0,7.18-1.73,12.63,8.3c0,0-7.21,5.94-8.19,10.28c0,0-7.63,0.51-13.71-7.36
		S64.05,25.95,64.05,25.95z"/>
	<path fill="#8C8C8C" d="M57.61,21.61h-7.12h-7.12l-6.44,5.07c0,0,5.46,12.01,13.56,12.63c8.11-0.62,13.56-12.63,13.56-12.63
		L57.61,21.61z"/>
	<ellipse fill="#8C8C8C" cx="50.49" cy="24.95" rx="9.13" ry="6.63"/>
	<ellipse fill="#2D2D2D" cx="50.49" cy="27.51" rx="9.13" ry="6.63"/>
</g>
</svg>
