<?xml version="1.0" encoding="utf-8"?>
<!-- Generator: Adobe Illustrator 25.0.1, SVG Export Plug-In . SVG Version: 6.00 Build 0)  -->
<svg version="1.1" id="Layer_1" xmlns="http://www.w3.org/2000/svg" xmlns:xlink="http://www.w3.org/1999/xlink" x="0px" y="0px"
	 viewBox="0 0 100 100" style="enable-background:new 0 0 100 100;" xml:space="preserve">
<style type="text/css">
	.st0{opacity:0.28;fill:#42CBEA;enable-background:new    ;}
	.st1{opacity:0.28;fill:none;stroke:#42CBEA;stroke-width:3;stroke-miterlimit:10;enable-background:new    ;}
	.st2{opacity:0.28;fill:none;stroke:#42CBEA;stroke-width:2.605;stroke-miterlimit:10;enable-background:new    ;}
	.st3{opacity:0.43;fill:#CCF5FF;enable-background:new    ;}
	.st4{fill:#547789;}
	.st5{fill:#426470;}
	.st6{fill:#73BFCC;}
	.st7{fill:#A4DCE3;}
	.st8{fill:#C6E8ED;}
</style>
<circle class="st0" cx="41.5" cy="34.3" r="16.1"/>
<circle class="st1" cx="41.5" cy="34.3" r="25.8"/>
<circle class="st2" cx="49.6" cy="51.9" r="22.4"/>
<circle class="st0" cx="41.5" cy="34.3" r="11.3"/>
<polygon class="st0" points="41.5,1.8 44.8,22.4 57.7,6.1 50.3,25.5 69.7,18.1 53.6,31.1 74,34.3 53.6,37.4 69.7,50.5 50.3,43.1 
	57.7,62.3 44.8,46.2 41.5,66.6 38.4,46.2 25.5,62.3 32.9,43.1 13.5,50.5 29.6,37.4 9.2,34.3 29.6,31.1 13.5,18.1 32.9,25.5 
	25.5,6.1 38.4,22.4 "/>
<circle class="st3" cx="51.8" cy="29.5" r="2.2"/>
<circle class="st3" cx="25.3" cy="43.1" r="3.2"/>
<circle class="st3" cx="31.7" cy="70.3" r="1.9"/>
<circle class="st3" cx="37.6" cy="44.8" r="3.2"/>
<circle class="st3" cx="38.4" cy="59.4" r="1.7"/>
<circle class="st3" cx="44.7" cy="67.6" r="1.7"/>
<circle class="st3" cx="41.6" cy="82.1" r="3.2"/>
<circle class="st3" cx="33.6" cy="27.6" r="3.2"/>
<circle class="st3" cx="52.2" cy="38.2" r="3.2"/>
<path class="st4" d="M68.2,95.8L41.6,37.9l2.6-1.2l26.6,57.9c0.3,0.7,0,1.6-0.7,1.9l0,0C69.4,96.9,68.6,96.5,68.2,95.8z"/>
<path class="st5" d="M45.2,39.3l-2.1,1c-0.3,0.2-0.8,0-0.9-0.3l-0.3-0.7c-0.2-0.3,0-0.8,0.3-0.9l2.1-1c0.3-0.2,0.8,0,0.9,0.3
	l0.3,0.7C45.7,38.8,45.5,39.2,45.2,39.3z"/>
<circle class="st6" cx="41.6" cy="34.2" r="4.5"/>
<circle class="st7" cx="41.6" cy="34.2" r="3.2"/>
<path class="st8" d="M54.5,59.2l-2.4,1.1c-0.3,0.1-0.6,0-0.7-0.3l-5.2-11.3c-0.1-0.3,0-0.6,0.3-0.7l2.4-1.1c0.3-0.1,0.6,0,0.7,0.3
	l5.2,11.3C54.9,58.8,54.8,59.1,54.5,59.2z"/>
</svg>
