<?xml version="1.0" encoding="utf-8"?>
<!-- Generator: Adobe Illustrator 25.0.1, SVG Export Plug-In . SVG Version: 6.00 Build 0)  -->
<svg version="1.1" id="Layer_1" xmlns="http://www.w3.org/2000/svg" xmlns:xlink="http://www.w3.org/1999/xlink" x="0px" y="0px"
	 viewBox="0 0 100 100" style="enable-background:new 0 0 100 100;" xml:space="preserve">
<style type="text/css">
	.st0{fill:#3B3B3B;}
	.st1{fill:#4D4E4E;}
</style>
<g>
	<path class="st0" d="M14,51.1c-3.2,0-7.8-1.9-10.7-5.6c-2-2.6-3.9-7.1-1.5-13.5c0.9-2.3,2.5-3.9,4.7-4.8c5.2-2,11.9,1,12.7,1.4
		L17.1,33c-1.5-0.7-6.1-2.3-8.8-1.2c-0.9,0.4-1.5,1-1.9,2c-1.3,3.4-1,6.4,0.8,8.7c2,2.6,5.5,3.9,7.1,3.7l0.5,4.9
		C14.6,51.1,14.3,51.1,14,51.1z"/>
</g>
<g>
	<path class="st0" d="M86,51.1c-0.3,0-0.5,0-0.8,0l0.5-4.9c1.6,0.2,5-1.1,7.1-3.7c1.8-2.4,2.1-5.3,0.8-8.8c-0.4-1-1-1.6-1.9-1.9
		c-2.8-1.1-7.3,0.5-8.8,1.2l-2.1-4.4c0.8-0.4,7.5-3.4,12.7-1.4c2.2,0.8,3.8,2.5,4.7,4.7c2.4,6.5,0.5,10.9-1.5,13.5
		C93.8,49.3,89.2,51.1,86,51.1z"/>
</g>
<g>
	<path class="st0" d="M83.9,17.2c2.5,0,4.5-2,4.5-4.5l0,0c0-2.5-2-4.5-4.5-4.5h-68c-2.5,0-4.5,2-4.5,4.5l0,0c0,2.5,2,4.5,4.5,4.5
		c0,0,5.1,2.8,1.2,12.5l0,0c-2.9,4.6-4.5,9.8-4.5,15.4c0,17.9,16.7,32.4,37.3,32.4S87.2,63,87.2,45.1c0-5.6-1.6-10.8-4.5-15.4l0,0
		C78.8,20,83.9,17.2,83.9,17.2z"/>
</g>
<g>
	<path class="st0" d="M49.9,88.7c-3,0-5.5-2.5-5.5-5.5V71.7c0-3,2.5-5.5,5.5-5.5s5.5,2.5,5.5,5.5v11.5
		C55.4,86.3,52.9,88.7,49.9,88.7z"/>
</g>
<g>
	<path class="st0" d="M26.6,78.8c-0.6,0-1.3-0.1-1.9-0.3c-2.9-1-4.3-4.2-3.3-7.1l3.9-10.8c1-2.9,4.2-4.3,7.1-3.3s4.3,4.2,3.3,7.1
		l-3.9,10.8C30.9,77.4,28.8,78.8,26.6,78.8z"/>
</g>
<g>
	<path class="st0" d="M72.9,78.7c-2.1,0-4.2-1.2-5.1-3.3l-4.6-10.5c-1.2-2.8,0.1-6,2.9-7.3c2.8-1.2,6,0.1,7.3,2.9L77.9,71
		c1.2,2.8-0.1,6-2.9,7.3C74.3,78.5,73.6,78.7,72.9,78.7z"/>
</g>
<g>
	<path class="st1" d="M77.9,8.2h-56l0,0c0,3.7,0.5,7.3,1.7,10.7c0.6,1.8,0.8,4.6-0.7,8.9l0,0c-2.4,4.2-3.7,9-3.7,14.2
		c0,16.4,13.7,29.7,30.7,29.7c16.9,0,30.7-13.3,30.7-29.7c0-5.1-1.3-9.9-3.7-14.2l0,0c-1.6-4.3-1.4-7.2-0.7-8.9
		C77.3,15.5,77.9,11.8,77.9,8.2L77.9,8.2z"/>
</g>
</svg>
