<?xml version="1.0" encoding="utf-8"?>
<!-- Generator: Adobe Illustrator 25.0.1, SVG Export Plug-In . SVG Version: 6.00 Build 0)  -->
<svg version="1.1" id="Layer_1" xmlns="http://www.w3.org/2000/svg" xmlns:xlink="http://www.w3.org/1999/xlink" x="0px" y="0px"
	 viewBox="0 0 100 100" enable-background="new 0 0 100 100" xml:space="preserve">
<g>
	
		<rect x="37.57" y="22.77" transform="matrix(0.9597 0.281 -0.281 0.9597 15.8934 -13.7528)" fill="#408F75" width="36.67" height="51.55"/>
	<path fill="#408F75" d="M33.41,25.95c0,0,3.25-7.44,12.14-7.29l4.36,1.28L46.18,32.7L32.6,28.73L33.41,25.95z"/>
	<path fill="#D7D3C1" d="M76.97,31.26L62.81,79.62l-33.85-9.91l13.73-46.89c0.27-0.11,0.54-0.2,0.83-0.29
		c0.09-0.03,0.18-0.06,0.27-0.08c0.55-0.16,1.14-0.29,1.78-0.37L76.97,31.26z"/>
	<path fill="#D7D3C1" d="M78.13,30.62L63.98,78.97l-33.84-9.91l13.65-46.63c0.55-0.16,1.14-0.29,1.78-0.37
		c0.92-0.13,1.95-0.17,3.06-0.08L78.13,30.62z"/>
	<path fill="#C6C2AF" d="M75.71,31.95L61.55,80.3l-33.84-9.91l13.78-47.08l0.07,0.02c0.34-0.19,0.72-0.36,1.13-0.51
		c0.27-0.11,0.54-0.2,0.83-0.29L75.71,31.95z"/>
	<path fill="#D7D3C1" d="M74.07,32.84L59.91,81.19l-33.84-9.91l13.72-46.84c0.21-0.15,0.42-0.31,0.66-0.46
		c0.31-0.21,0.66-0.41,1.03-0.61l0.02-0.06L74.07,32.84z"/>
	<path fill="#D7D3C1" d="M72.91,33.48L58.75,81.84l-33.85-9.91l13.54-46.26c0.23-0.24,0.53-0.55,0.93-0.89
		c0.13-0.1,0.27-0.22,0.42-0.34c0.21-0.15,0.42-0.31,0.66-0.46L72.91,33.48z"/>
	<path fill="#C6C2AF" d="M71.57,34.21L57.41,82.56l-1.07-0.31l0.3-1.02l-31.75-9.3l12.52-42.75l-0.73-0.37l1.29-2.59
		c0,0,0.15-0.21,0.46-0.54c0.23-0.24,0.53-0.55,0.93-0.89L71.57,34.21z"/>
	<path fill="#D7D3C1" d="M70.19,34.97L56.64,81.23l-31.75-9.3l12.52-42.75l-0.73-0.37l1.29-2.59c0,0,0.15-0.21,0.46-0.54
		L70.19,34.97z"/>
	<path fill="#D7D3C1" d="M69.53,37.22L55.98,83.48l-31.75-9.3l12.52-42.75l-0.73-0.37l1.29-2.59c0,0,0.15-0.21,0.46-0.54
		L69.53,37.22z"/>
	
		<rect x="25.6" y="30.08" transform="matrix(0.9597 0.281 -0.281 0.9597 17.3014 -10.1166)" fill="#408F75" width="36.67" height="50.38"/>
	
		<rect x="31.44" y="36.8" transform="matrix(0.9597 0.281 -0.281 0.9597 17.3014 -10.1166)" fill="none" stroke="#4CABBC" stroke-width="3.7121" stroke-miterlimit="10" width="24.97" height="36.95"/>
</g>
</svg>
