<?xml version="1.0" encoding="utf-8"?>
<!-- Generator: Adobe Illustrator 25.0.1, SVG Export Plug-In . SVG Version: 6.00 Build 0)  -->
<svg version="1.1" id="Layer_1" xmlns="http://www.w3.org/2000/svg" xmlns:xlink="http://www.w3.org/1999/xlink" x="0px" y="0px"
	 viewBox="0 0 100 100" enable-background="new 0 0 100 100" xml:space="preserve">
<path fill="#F2D5BA" d="M32.37,87.86c1.3-7.72,2.23-27.27,6.2-49.47c0,0,10.58,4.46,23.34-1.61c0,0,5.97,29.46,5.93,51.41
	c0,2.38-1.34,4.55-3.95,5.36c-5.8,1.79-16.54,3.87-27.83-0.22C33.52,92.41,31.98,90.19,32.37,87.86z"/>
<path fill="#FCE5D4" d="M38.57,37.64c0,0,10.8-6.7,24.2-0.86C62.77,36.78,51.96,44.34,38.57,37.64z"/>
<path fill="#FCE5D4" d="M37.81,37.64c0,0-2.06,7.78-3.9,10.8c-1.84,3.03,2.98,3.24,4.82,0c1.84-3.24,0.92-5.83,4.59-5.62
	c3.67,0.22,0.46,3.84,0,7.97s3.44,7.3,7,3.02s4.24-6.02,6.08-4.94s0.84,3.99,4.82,4.94c3.98,0.94,8.49-1.05,6.42-5.58
	c-2.06-4.54-4.36-7.56-4.13-11.45s-8.47-2.97-13.19-2.39S39.33,32.58,37.81,37.64z"/>
<path fill="#F2D5BA" d="M43.24,36.78c0,0,2.9-2.17,14.85-0.86C58.09,35.91,53.83,38.56,43.24,36.78z"/>
<path fill="none" stroke="#2B2927" stroke-width="2.0054" stroke-miterlimit="10" d="M50.07,37.15c0,0-0.93-8.38,1.81-13.12"/>
<path opacity="0.73" fill="#FFD68D" d="M46.5,29.22c-1.39-1.67-3.37-6.51,4.13-24.91c0,0,7.63,16.98,4.96,23.79
	C54.19,31.66,48.69,31.86,46.5,29.22z"/>
</svg>
