<?xml version="1.0" encoding="utf-8"?>
<!-- Generator: Adobe Illustrator 25.0.1, SVG Export Plug-In . SVG Version: 6.00 Build 0)  -->
<svg version="1.1" id="Layer_1" xmlns="http://www.w3.org/2000/svg" xmlns:xlink="http://www.w3.org/1999/xlink" x="0px" y="0px"
	 viewBox="0 0 100 100" enable-background="new 0 0 100 100" xml:space="preserve">
<g>
	<path fill="#865844" d="M26.56,37.01c0,0-4.21,3.03-5.82,11.94c0,0,3.37,5.2,11.66,4.09s1.47-12.63,1.47-12.63L26.56,37.01z"/>
	<path fill="#865844" d="M74.24,37.01c0,0,4.21,3.03,5.82,11.94c0,0-3.37,5.2-11.66,4.09s-1.47-12.63-1.47-12.63L74.24,37.01z"/>
	<path fill="#754A3C" d="M68,73.41c0,0-5.38,6.36-17.6,6.36c-12.22,0-17.59-6.36-17.59-6.36l0.96-17.04
		c-0.42-9.22,1.18-13.36,1.18-13.36l3.68-6l11.77,0.67l11.78-0.67l3.68,6c0,0,1.6,4.14,1.18,13.36L68,73.41z"/>
	<path fill="#644032" d="M36.84,27.78c0,0-7.18-1.73-12.63,8.3c0,0,7.21,5.94,8.19,10.28c0,0,7.63,0.51,13.71-7.36
		S36.84,27.78,36.84,27.78z"/>
	<path fill="#644032" d="M63.97,27.78c0,0,7.18-1.73,12.63,8.3c0,0-7.21,5.94-8.19,10.28c0,0-7.63,0.51-13.71-7.36
		S63.97,27.78,63.97,27.78z"/>
	<path fill="#865844" d="M57.52,22.7H50.4h-7.12l-6.44,5.07c0,0,5.46,12.01,13.56,12.63c8.11-0.62,13.56-12.63,13.56-12.63
		L57.52,22.7z"/>
	<ellipse fill="#865844" cx="50.4" cy="26.78" rx="9.13" ry="6.63"/>
	<ellipse fill="#2D2D2D" cx="50.4" cy="29.33" rx="9.13" ry="6.63"/>
	<path fill="none" d="M36.84,27.78"/>
	<path fill="#543228" d="M36.84,27.78c0,0,7.42,25.42,30.69,37.32c4.45,2.27,0.47,7.4,0.47,7.4s-22.72-6.18-37.89-43.16
		C30.11,29.33,29.55,24.29,36.84,27.78z"/>
</g>
</svg>
