<?xml version="1.0" encoding="utf-8"?>
<!-- Generator: Adobe Illustrator 25.0.1, SVG Export Plug-In . SVG Version: 6.00 Build 0)  -->
<svg version="1.1" id="Layer_1" xmlns="http://www.w3.org/2000/svg" xmlns:xlink="http://www.w3.org/1999/xlink" x="0px" y="0px"
	 viewBox="0 0 100 100" enable-background="new 0 0 100 100" xml:space="preserve">
<g>
	<path fill="#7A4F3E" d="M55.59,29.52v29.37c0,0-6.63,3.28-19.86,4.59c-13.22,1.3-13.66-1.9-13.66-1.9c0-6.51,14.7-12.5,14.7-12.5
		V29.52C48.21,32.39,55.59,29.52,55.59,29.52z"/>
	<path fill="#8C614C" d="M34.11,26.59v11.83c0,0.14,0.06,0.26,0.16,0.34c0.72,0.53,3.75,2.58,6.61,1.89
		c0.13-0.03,0.24-0.14,0.29-0.28l1.51-5c0.11-0.36,0.57-0.38,0.71-0.04l2.18,5.27c0.05,0.12,0.15,0.21,0.27,0.23
		c1.13,0.25,7.07,1.36,11.18-1.42c0.11-0.08,0.18-0.21,0.18-0.36V26.42c0-0.25-0.2-0.45-0.44-0.41c-2.65,0.46-16.69,2.71-22.12,0.21
		C34.4,26.11,34.11,26.29,34.11,26.59z"/>
	<ellipse fill="#8C614C" cx="45.66" cy="26.54" rx="11.55" ry="2.49"/>
	<ellipse fill="#110E0E" cx="45.66" cy="27.03" rx="9.93" ry="1.99"/>
	<path fill="#57382C" d="M55.59,58.89c0,2.45-1.75,4.55-4.14,5.02c-11.96,2.38-29.38,4.47-29.38-2.33c0,0,0.45,3.2,13.66,1.9
		C48.97,62.17,55.59,58.89,55.59,58.89z"/>
	<path fill="#865844" d="M74.04,37.12v29.37c0,0-6.63,3.28-19.86,4.59c-13.22,1.3-13.66-1.9-13.66-1.9c0-6.51,14.7-12.5,14.7-12.5
		V37.12C66.66,39.99,74.04,37.12,74.04,37.12z"/>
	<path fill="#996A51" d="M52.55,34.19v11.83c0,0.14,0.06,0.26,0.16,0.34c0.72,0.53,3.75,2.58,6.61,1.89
		c0.13-0.03,0.24-0.14,0.29-0.28l1.51-5c0.11-0.36,0.57-0.38,0.71-0.04l2.18,5.27c0.05,0.12,0.15,0.21,0.27,0.23
		c1.13,0.25,7.07,1.36,11.18-1.42c0.11-0.08,0.18-0.21,0.18-0.36V34.02c0-0.25-0.2-0.45-0.44-0.41c-2.65,0.46-16.69,2.71-22.12,0.21
		C52.84,33.7,52.55,33.89,52.55,34.19z"/>
	<ellipse fill="#996A51" cx="64.11" cy="34.13" rx="11.55" ry="2.49"/>
	<ellipse fill="#1E1616" cx="64.11" cy="34.63" rx="9.93" ry="1.99"/>
	<path fill="#644032" d="M74.04,66.49c0,2.45-1.75,4.55-4.14,5.02c-11.96,2.38-29.38,4.47-29.38-2.33c0,0,0.45,3.2,13.66,1.9
		C67.41,69.76,74.04,66.49,74.04,66.49z"/>
</g>
</svg>
