<?xml version="1.0" encoding="utf-8"?>
<!-- Generator: Adobe Illustrator 25.0.1, SVG Export Plug-In . SVG Version: 6.00 Build 0)  -->
<svg version="1.1" id="Layer_1" xmlns="http://www.w3.org/2000/svg" xmlns:xlink="http://www.w3.org/1999/xlink" x="0px" y="0px"
	 viewBox="0 0 100 100" enable-background="new 0 0 100 100" xml:space="preserve">
<path fill="#C4BBA7" d="M19.8,15.1c0,0,1.7,14,2.3,30.4c0,1.2,3.1,2.4,3.1,3.6c0,1.4-2.9,2.8-2.9,4.2c0.2,11.8-0.4,24-2.5,32.5
	c0,0,5.2-0.4,12.8-0.7c1.1-0.1,1.8-2,3.1-2c1.3-0.1,3.2,1.8,4.7,1.7c12.6-0.4,28.2-0.5,38.9,1c0,0-1.3-30.1-0.6-52.3
	c0-1.3-4-1.1-4-2.4c0.1-1.2,4.2-3.9,4.3-5.1c0.3-4.4,0.7-8.2,1.2-11c0,0-5.8,0.5-14,0.9c-1.3,0.1-2.7,5.6-4.1,5.7
	c-1.1,0-2.1-5.4-3.2-5.4C46,16.8,30.1,16.8,19.8,15.1z"/>
<circle fill="#CE4645" cx="51" cy="39.5" r="5.3"/>
<circle fill="#A9872F" cx="38" cy="60.8" r="5.3"/>
<circle fill="#8956A3" cx="64" cy="60.8" r="5.3"/>
<g>
	<line fill="none" stroke="#575757" stroke-width="1.4847" stroke-miterlimit="10" x1="41.4" y1="55.4" x2="45.1" y2="48.9"/>
	<polygon fill="#575757" points="47,45.5 43.1,47.8 47,50.1 	"/>
</g>
<g>
	<line fill="none" stroke="#575757" stroke-width="1.4847" stroke-miterlimit="10" x1="54.3" y1="45.3" x2="58" y2="51.7"/>
	<polygon fill="#575757" points="60,55.1 60,50.6 56,52.9 	"/>
</g>
<g>
	<line fill="none" stroke="#575757" stroke-width="1.4847" stroke-miterlimit="10" x1="56.9" y1="60.8" x2="49.5" y2="60.8"/>
	<polygon fill="#575757" points="45.5,60.8 49.5,63.1 49.5,58.5 	"/>
</g>
</svg>
