<?xml version="1.0" encoding="utf-8"?>
<!-- Generator: Adobe Illustrator 25.0.1, SVG Export Plug-In . SVG Version: 6.00 Build 0)  -->
<svg version="1.1" id="Layer_1" xmlns="http://www.w3.org/2000/svg" xmlns:xlink="http://www.w3.org/1999/xlink" x="0px" y="0px"
	 viewBox="0 0 100 100" enable-background="new 0 0 100 100" xml:space="preserve">
<path opacity="0.2" fill="#9F9E9F" d="M69.18,24.88c-0.02,0-0.04-0.01-0.06-0.01c-22.02-4.36-36.93-0.01-36.93-0.01l0.11,0.08
	c-1.26-0.15-2.43,0.83-2.43,2.15v2.99c0,0.16,0.1,0.3,0.25,0.36c0.13,0.05,0.31,0.12,0.54,0.2c0,0,0,0,0,0l0,0.01l-0.07,5.19
	l-0.27,19.91c-0.01,0.16,0.09,0.3,0.23,0.36c0.05,0.02,0.11,0.05,0.18,0.08v12c0,0.19,0.13,0.34,0.31,0.38
	c0.06,0.01,0.13,0.03,0.2,0.04v8.28c0,1.06,0.77,1.97,1.81,2.15c1.66,0.29,4.72,0.49,10.17,0c1.11-0.1,1.97-1.02,1.99-2.13
	l0.19-8.66c0.12-0.05,0.24-0.1,0.35-0.15c0.13-0.06,0.22-0.19,0.22-0.34l0.12-3.68v-0.01l0.26-7.9c0,0,0.01,0,0.01,0
	c0.13-0.03,0.26-0.06,0.39-0.09c0.17-0.04,0.29-0.19,0.3-0.36c0.02-0.83,0.16-3.26,1.12-5.28c0.51-1.07,1.25-2.03,2.32-2.56
	c0.1-0.05,0.23-0.05,0.33,0c3.07,1.54,3.2,6.53,3.18,7.82c0,0.18,0.13,0.34,0.3,0.38c0.13,0.03,0.25,0.06,0.38,0.09l0.38,11.59
	c0,0.15,0.09,0.28,0.22,0.34c0.12,0.05,0.22,0.1,0.34,0.15l0.19,8.65c0.02,1.11,0.88,2.03,1.99,2.13c2.23,0.21,4.06,0.29,5.55,0.3
	c2.17,0.01,3.65-0.13,4.63-0.3c1.04-0.18,1.81-1.08,1.81-2.15V68.6c0.07-0.01,0.13-0.03,0.19-0.04c0.18-0.04,0.31-0.2,0.31-0.38
	V56.19c0,0,0.01,0,0.01,0c0.07-0.03,0.13-0.06,0.19-0.08c0.14-0.06,0.23-0.2,0.23-0.36l-0.26-21.27L70.4,30.3l0-0.04
	c0.15-0.05,0.31-0.12,0.46-0.18c0.14-0.06,0.24-0.2,0.24-0.36v-2.7C71.11,25.88,70.24,24.99,69.18,24.88z M35.05,25.76
	c2.45-0.9,8.45-1.55,15.46-1.55c6.82,0,12.67,0.61,15.25,1.48c0.9,0.3,1.4,0.64,1.4,0.99c0,1.36-7.45,2.47-16.65,2.47
	c-0.3,0-0.6,0-0.9-0.01l-2.79-0.05c-4.37-0.15-8.08-0.55-10.4-1.1c-1.62-0.38-2.56-0.83-2.56-1.31c0-0.14,0.08-0.28,0.23-0.41
	C34.29,26.1,34.61,25.93,35.05,25.76z"/>
</svg>
