<?xml version="1.0" encoding="utf-8"?>
<!-- Generator: Adobe Illustrator 25.0.1, SVG Export Plug-In . SVG Version: 6.00 Build 0)  -->
<svg version="1.1" id="Layer_1" xmlns="http://www.w3.org/2000/svg" xmlns:xlink="http://www.w3.org/1999/xlink" x="0px" y="0px"
	 viewBox="0 0 100 100" enable-background="new 0 0 100 100" xml:space="preserve">
<g>
	<path fill="#272626" d="M40.04,38.83c0,0-7.08,9.65-4.78,18.48c2.3,8.83,13.64,21.7,15.14,22.07c1.5,0.37,12.45-13.15,13.46-16.92
		c1.01-3.77,2.76-15.45,0.46-18.11c-2.3-2.67-8.28-7.82-10.48-8.37S40.04,38.83,40.04,38.83z"/>
	<path fill="#D6D598" d="M75.78,56.3c-2.55-1.56-9.19-13.33-10.11-16.27c-0.92-2.94-0.74-11.95-3.59-14.07
		c-2.85-2.11-11.68-7.54-11.68-7.54s-8.83,5.42-11.68,7.54c-2.85,2.11-2.67,11.13-3.59,14.07c-0.92,2.94-7.57,14.71-10.11,16.27
		s3.59,8.46,6.16,10.3c2.57,1.84,3.4-2.39,3.4-2.39s-4.23-2.67-4.23-3.4c0-0.74,11.49-16.09,12.6-16.92
		c1.1-0.83,5.42,7.17,7.45,7.17c2.02,0,6.34-8,7.45-7.17c1.1,0.83,12.6,16.18,12.6,16.92c0,0.74-4.23,3.4-4.23,3.4
		s0.83,4.23,3.4,2.39C72.19,64.76,78.32,57.87,75.78,56.3z"/>
	<path fill="#C9B17F" d="M62.21,49.27c0,0-0.96,11.63-1.7,14.2C59.78,66.05,50.4,77.91,50.4,77.91s-9.38-11.86-10.11-14.44
		c-0.74-2.57-1.7-14.2-1.7-14.2s-9.91,10.45-8.55,11.87c1.36,1.42,7.9,7.76,10.27,9.51S48.1,81.5,50.4,81.5
		c2.3,0,7.72-9.1,10.09-10.85s8.91-8.09,10.27-9.51C72.12,59.73,62.21,49.27,62.21,49.27z"/>
</g>
</svg>
