<?xml version="1.0" encoding="utf-8"?>
<!-- Generator: Adobe Illustrator 25.0.1, SVG Export Plug-In . SVG Version: 6.00 Build 0)  -->
<svg version="1.1" id="Layer_1" xmlns="http://www.w3.org/2000/svg" xmlns:xlink="http://www.w3.org/1999/xlink" x="0px" y="0px"
	 viewBox="0 0 100 100" enable-background="new 0 0 100 100" xml:space="preserve">
<path fill="#F2B975" d="M131.96,60.2c1.69,15.46,14.84,24.95,29.81,14.17c14.97-10.78,29.47-3.17,34.94,1.82
	c0,0-11.69-21.54-29.23-18.29c0,0,17.96-7.78,27.48-3.49c9.52,4.29,17.76,0.96,20.54-4.68c0,0-12.1,5.04-20.02-6.2
	s-21.47-3.07-21.47-3.07s-5.84-20.77,5.33-24.96c0,0-11.55-1.92-15.65,2.82c-12.15,14.06-6.63,19.38-14.72,19.46
	C140.87,37.87,129.68,39.36,131.96,60.2z"/>
<path fill="#F16163" d="M142.45,65.06c-6.71-7.22-5.8-17.45,5.57-20.15c11.37-2.7,14.08-1.89,13.96-6.57c0,0,5.12,3.61-3.71,10.67
	c0,0,11.17-5.37,13.06-11.71s6.9-8.9,10.75-7.9c0,0-7.43,3.7-5.33,12.16c2.1,8.45-7.43,11.55-7.43,11.55s13.17,4.88,19.81,1.27
	c0,0-6.39,6.16-18.13,7.03s-7.38,0.95-10.78,4.79C156.84,70.05,151.49,74.79,142.45,65.06z"/>
<path fill="#F2B975" d="M188.23,28.69c-3.21,2.54,3.72-13.51,10.44-10.4s7.75-0.14,8.89,0.1c1.15,0.24,0.61,8.16-7.2,9.78
	S194.86,23.45,188.23,28.69z"/>
<g>
	<polyline fill="none" stroke="#D67A4E" stroke-width="4.3333" stroke-miterlimit="10" points="79.52,98.01 41.91,29.38 
		47.05,16.76 39.4,6.37 28.8,5.45 18.93,18.15 28.27,26.49 34.17,19.61 	"/>
	
		<rect x="47.98" y="30.95" transform="matrix(0.8769 -0.4806 0.4806 0.8769 -15.5736 29.9422)" fill="#E8C19E" width="5.41" height="28.87"/>
</g>
</svg>
