<?xml version="1.0" encoding="utf-8"?>
<!-- Generator: Adobe Illustrator 25.0.1, SVG Export Plug-In . SVG Version: 6.00 Build 0)  -->
<svg version="1.1" id="Layer_1" xmlns="http://www.w3.org/2000/svg" xmlns:xlink="http://www.w3.org/1999/xlink" x="0px" y="0px"
	 viewBox="0 0 100 100" enable-background="new 0 0 100 100" xml:space="preserve">
<g>
	<circle fill="#7154A3" cx="49.7" cy="47.74" r="27.58"/>
	<path fill="#6385C3" d="M72.5,47.73c0,11.41-8.38,20.87-19.29,22.55c-1.14,0.17-2.31,0.26-3.5,0.26
		c-12.59,0-22.81-10.22-22.81-22.81c0-0.41,0.02-0.82,0.02-1.23c0.65-12.03,10.61-21.56,22.79-21.56
		C62.28,24.94,72.5,35.14,72.5,47.73z"/>
	
		<ellipse transform="matrix(0.7071 -0.7071 0.7071 0.7071 -13.8682 36.257)" fill="#A0BEE4" cx="36.83" cy="34.87" rx="8.2" ry="6.63"/>
	
		<ellipse transform="matrix(0.7071 -0.7071 0.7071 0.7071 -25.7859 65.0288)" fill="#A0BEE4" cx="65.6" cy="63.64" rx="3.57" ry="2.89"/>
	
		<ellipse transform="matrix(0.7071 -0.7071 0.7071 0.7071 -23.6918 59.9731)" fill="#A0BEE4" cx="60.55" cy="58.59" rx="2.19" ry="1.77"/>
	<path fill="#7154A3" d="M54.55,63.31c0,2.46-0.48,4.82-1.34,6.98c-1.14,0.17-2.31,0.26-3.5,0.26c-12.59,0-22.81-10.22-22.81-22.81
		c0-0.41,0.02-0.82,0.02-1.23c2.61-1.36,5.57-2.12,8.71-2.12C46.08,44.38,54.55,52.85,54.55,63.31z"/>
	<circle fill="#7FA4D6" cx="32.42" cy="66.52" r="16.58"/>
	<circle fill="#6385C3" cx="32.42" cy="66.52" r="11.4"/>
	
		<ellipse transform="matrix(0.7071 -0.7071 0.7071 0.7071 -34.3393 34.6732)" fill="#A0BEE4" cx="24.68" cy="58.79" rx="4.93" ry="3.98"/>
	
		<ellipse transform="matrix(0.7071 -0.7071 0.7071 0.7071 -40.8368 50.3596)" fill="#A0BEE4" cx="40.37" cy="74.47" rx="1.79" ry="1.44"/>
	<path fill="#FFFFFF" d="M42.94,44.6l0.61,8.02c0.08,1.01,0.88,1.82,1.9,1.9l8.02,0.61l-8.02,0.61c-1.01,0.08-1.82,0.88-1.9,1.9
		l-0.61,8.02l-0.61-8.02c-0.08-1.01-0.88-1.82-1.9-1.9l-8.02-0.61l8.02-0.61c1.01-0.08,1.82-0.88,1.9-1.9L42.94,44.6z"/>
	<path fill="#FFFFFF" d="M76.45,26.09l1.06,13.93c0.13,1.76,1.54,3.17,3.3,3.3l13.93,1.06l-13.93,1.06c-1.76,0.13-3.17,1.54-3.3,3.3
		l-1.06,13.93l-1.06-13.93c-0.13-1.76-1.54-3.17-3.3-3.3l-13.93-1.06l13.93-1.06c1.76-0.13,3.17-1.54,3.3-3.3L76.45,26.09z"/>
</g>
</svg>
