<?xml version="1.0" encoding="utf-8"?>
<!-- Generator: Adobe Illustrator 25.0.1, SVG Export Plug-In . SVG Version: 6.00 Build 0)  -->
<svg version="1.1" id="Layer_1" xmlns="http://www.w3.org/2000/svg" xmlns:xlink="http://www.w3.org/1999/xlink" x="0px" y="0px"
	 viewBox="0 0 100 100" enable-background="new 0 0 100 100" xml:space="preserve">
<path opacity="0.2" fill="#9F9E9F" d="M81.47,11.72l0.01-0.01l-0.02,0.02l-8.02,6.64c-2.74,2.26-5.25,4.82-7.49,7.61L34.66,65.05
	c-0.74-1.34-1.07-3.05,0.09-4.91l-1.47-0.75c0,0,0,0,0,0l-1.46-0.75c-2.56,4.12-0.9,7.59,0.88,9.74l-9.58,13.11
	c-0.07,0-0.13-0.02-0.2-0.02c-1.89,0-3.43,1.54-3.43,3.43c0,1.89,1.54,3.43,3.43,3.43s3.43-1.54,3.43-3.43
	c0-0.38-0.08-0.74-0.19-1.08l10.66-12.14c2.5,1.29,6.28,2.19,9.76-1.21l-1.06-1.26c0,0,0,0,0.01-0.01l-1.05-1.27
	c-1.59,1.57-3.36,1.59-4.84,1.13l31.3-39.07c2.24-2.8,4.18-5.81,5.8-8.97l4.72-9.29l0.03-0.03L81.47,11.72z"/>
</svg>
