<?xml version="1.0" encoding="utf-8"?>
<!-- Generator: Adobe Illustrator 25.0.1, SVG Export Plug-In . SVG Version: 6.00 Build 0)  -->
<svg version="1.1" id="Layer_1" xmlns="http://www.w3.org/2000/svg" xmlns:xlink="http://www.w3.org/1999/xlink" x="0px" y="0px"
	 viewBox="0 0 100 100" enable-background="new 0 0 100 100" xml:space="preserve">
<radialGradient id="SVGID_1_" cx="50" cy="48" r="48.7" gradientTransform="matrix(1 0 0 1 0 2)" gradientUnits="userSpaceOnUse">
	<stop  offset="0" style="stop-color:#9855A1"/>
	<stop  offset="1" style="stop-color:#8E55A2;stop-opacity:0"/>
</radialGradient>
<circle fill="url(#SVGID_1_)" cx="50" cy="50" r="48.7"/>
<g>
	<path fill="#D65048" d="M50.4,31.21l-20.81-1.27l1.36,44.6v2.19c0,1.06,0.77,1.97,1.81,2.15c1.66,0.29,4.72,0.49,10.17,0
		c1.11-0.1,1.97-1.02,1.99-2.13l0.05-2.22h0c0,0,0,0,0,0l0.08-3.78c0.25-6.79,1.26-20.35,5.34-20.35s5.09,13.56,5.34,20.35
		l0.08,3.78c0,0,0,0,0,0h0l0.05,2.22c0.02,1.11,0.88,2.03,1.99,2.13c5.45,0.49,8.51,0.29,10.17,0c1.05-0.18,1.81-1.09,1.81-2.15
		v-2.19l1.36-44.6L50.4,31.21z"/>
	<path fill="#C93B3A" d="M68.37,25.11c-5.98,1.87-20.57,5.27-35.88,0.08c-1.42-0.48-2.89,0.57-2.89,2.05v2.99
		c0,0.16,0.1,0.3,0.25,0.36c2.41,0.89,21.73,7.56,41.12-0.36c0.15-0.06,0.24-0.2,0.24-0.36v-2.7
		C71.21,25.72,69.77,24.67,68.37,25.11z"/>
	<path fill="#C93B3A" d="M31.92,25.01c0,0,15.08-4.36,37.34,0.02l-3.7,4.59l-28.13-0.56L31.92,25.01z"/>
	<ellipse fill="#212020" cx="50.42" cy="26.83" rx="16.81" ry="2.47"/>
	<polyline fill="none" stroke="#C93B3A" stroke-miterlimit="10" points="35.59,79.01 35.59,74.21 32.69,69.27 35.59,63.14 
		32.27,56.33 36.18,49.44 32.27,42.38 35.59,36.84 32.52,30.55 	"/>
	<polyline fill="none" stroke="#C93B3A" stroke-miterlimit="10" points="39.45,79.01 39.45,74.21 36.56,69.27 39.45,63.14 
		36.13,56.33 40.05,49.44 36.13,42.38 39.45,36.84 36.39,30.55 	"/>
	<polyline fill="none" stroke="#C93B3A" stroke-miterlimit="10" points="65.27,79.01 65.27,74.21 68.17,69.27 65.27,63.14 
		68.59,56.33 64.68,49.44 68.59,42.38 65.27,36.84 68.34,30.55 	"/>
	<polyline fill="none" stroke="#C93B3A" stroke-miterlimit="10" points="61.36,79.01 61.36,74.21 64.25,69.27 61.36,63.14 
		64.68,56.33 60.76,49.44 64.68,42.38 61.36,36.84 64.42,30.55 	"/>
	<path fill="#C93B3A" d="M44.53,32.33c0,0,1.19,18.08-1.36,22.23c0,0,3.23,4.53,14.47,0c0,0-4.26-17.64-1.53-22.23H44.53z"/>
</g>
<g>
	<path fill="#855BA6" d="M50.4,31.21l-20.81-1.27l1.36,44.6v2.19c0,1.06,0.77,1.97,1.81,2.15c1.66,0.29,4.72,0.49,10.17,0
		c1.11-0.1,1.97-1.02,1.99-2.13l0.05-2.22h0c0,0,0,0,0,0l0.08-3.78c0.25-6.79,1.26-20.35,5.34-20.35s5.09,13.56,5.34,20.35
		l0.08,3.78c0,0,0,0,0,0h0l0.05,2.22c0.02,1.11,0.88,2.03,1.99,2.13c5.45,0.49,8.51,0.29,10.17,0c1.05-0.18,1.81-1.09,1.81-2.15
		v-2.19l1.36-44.6L50.4,31.21z"/>
	<path fill="#DB8C53" d="M68.37,25.11c-5.98,1.87-20.57,5.27-35.88,0.08c-1.42-0.48-2.89,0.57-2.89,2.05v2.99
		c0,0.16,0.1,0.3,0.25,0.36c2.41,0.89,21.73,7.56,41.12-0.36c0.15-0.06,0.24-0.2,0.24-0.36v-2.7
		C71.21,25.72,69.77,24.67,68.37,25.11z"/>
	<path fill="#DB8C53" d="M31.92,25.01c0,0,15.08-4.36,37.34,0.02l-3.7,4.59l-28.13-0.56L31.92,25.01z"/>
	<ellipse fill="#212020" cx="50.42" cy="26.83" rx="16.81" ry="2.47"/>
	<polyline fill="none" stroke="#DB8C53" stroke-miterlimit="10" points="35.59,79.01 35.59,74.21 32.69,69.27 35.59,63.14 
		32.27,56.33 36.18,49.44 32.27,42.38 35.59,36.84 32.52,30.55 	"/>
	<polyline fill="none" stroke="#DB8C53" stroke-miterlimit="10" points="39.45,79.01 39.45,74.21 36.56,69.27 39.45,63.14 
		36.13,56.33 40.05,49.44 36.13,42.38 39.45,36.84 36.39,30.55 	"/>
	<polyline fill="none" stroke="#DB8C53" stroke-miterlimit="10" points="65.27,79.01 65.27,74.21 68.17,69.27 65.27,63.14 
		68.59,56.33 64.68,49.44 68.59,42.38 65.27,36.84 68.34,30.55 	"/>
	<polyline fill="none" stroke="#DB8C53" stroke-miterlimit="10" points="61.36,79.01 61.36,74.21 64.25,69.27 61.36,63.14 
		64.68,56.33 60.76,49.44 64.68,42.38 61.36,36.84 64.42,30.55 	"/>
	<path fill="#DB8C53" d="M44.53,32.33c0,0,1.19,18.08-1.36,22.23c0,0,3.23,4.53,14.47,0c0,0-4.26-17.64-1.53-22.23H44.53z"/>
</g>
</svg>
