<?xml version="1.0" encoding="utf-8"?>
<!-- Generator: Adobe Illustrator 25.0.1, SVG Export Plug-In . SVG Version: 6.00 Build 0)  -->
<svg version="1.1" id="Layer_1" xmlns="http://www.w3.org/2000/svg" xmlns:xlink="http://www.w3.org/1999/xlink" x="0px" y="0px"
	 viewBox="0 0 100 100" enable-background="new 0 0 100 100" xml:space="preserve">
<g>
	<path fill="#D67A4E" d="M75.56,93.01L45.13,38.02c-0.02-0.04-0.04-0.07-0.04-0.07L33.91,21.14c-0.37-0.58-0.18-1.33,0.42-1.66
		l7.53-4.17c0.6-0.33,1.33-0.09,1.62,0.53l8.1,18.46c0.02,0.04,0.04,0.07,0.06,0.11l30.41,54.96c0.31,0.56,0.11,1.27-0.46,1.59
		l-4.47,2.47C76.56,93.74,75.87,93.57,75.56,93.01z"/>
	<path fill="#A2A0A0" d="M80.82,8.02c0,0-18.24-1.72-41.73,11.27S7.38,48.65,7.38,48.65c12.67-11.1,21.56-16.71,27.26-19.54
		c1.08-0.55,2.37-0.12,2.96,0.94l2.36,4.26c0.37,0.67,1.19,0.9,1.86,0.53l8.98-4.97c0.67-0.37,0.9-1.19,0.53-1.86l-2.36-4.26
		c-0.58-1.06-0.24-2.35,0.78-3C55.21,17.41,64.69,12.85,80.82,8.02z"/>
</g>
</svg>
