<?xml version="1.0" encoding="utf-8"?>
<!-- Generator: Adobe Illustrator 25.0.1, SVG Export Plug-In . SVG Version: 6.00 Build 0)  -->
<svg version="1.1" id="Layer_1" xmlns="http://www.w3.org/2000/svg" xmlns:xlink="http://www.w3.org/1999/xlink" x="0px" y="0px"
	 viewBox="0 0 100 100" enable-background="new 0 0 100 100" xml:space="preserve">
<path fill="none" stroke="#9B7373" stroke-width="0.5079" stroke-miterlimit="10" d="M-29.17,39.17c0,0-1.44,3.87,0,7.94"/>
<path fill="none" stroke="#9B7373" stroke-width="0.5079" stroke-miterlimit="10" d="M-22.01,39.17c0,0,1.44,3.87,0,7.94"/>
<rect x="-29.81" y="46.4" fill="#926765" width="8.44" height="2"/>
<ellipse fill="#9B7373" cx="-25.6" cy="46.4" rx="4.23" ry="0.71"/>
<ellipse fill="#926765" cx="-25.6" cy="48.5" rx="4.23" ry="0.82"/>
<path fill="#EAE4B1" d="M-27.88,38.4v2.59c0,0-1.32,1.4,0,2.48v1.53c0,0.94,0.76,1.7,1.7,1.7h0.58v-8.3H-27.88z"/>
<path fill="#EAE4B1" d="M-23.31,38.4v2.59c0,0,1.32,1.4,0,2.48v1.53c0,0.94-0.76,1.7-1.7,1.7h-0.58v-8.3H-23.31z"/>
<path fill="#926765" d="M-27.43,33.23v1.94c0,0-1.62,0.85-1.62,1.41c0,0.57-1.4,1.74-1.08,2.77c0,0,0.22,0.43,4.53,0.43v-6.56
	H-27.43z"/>
<path fill="#926765" d="M-23.76,33.23v1.94c0,0,1.62,0.85,1.62,1.41c0,0.57,1.4,1.74,1.08,2.77c0,0-0.22,0.43-4.53,0.43v-6.56
	H-23.76z"/>
<ellipse fill="#9B7373" cx="-25.6" cy="33.23" rx="1.83" ry="0.31"/>
<path fill="none" stroke="#9B7373" stroke-width="0.5" stroke-miterlimit="10" d="M-26.66,33.23c0,0-1.4-2.39-0.86-3.65
	s1.93-1.28,1.93-1.28"/>
<path fill="none" stroke="#9B7373" stroke-width="0.5" stroke-miterlimit="10" d="M-24.53,33.23c0,0,1.4-2.39,0.86-3.65
	c-0.55-1.26-1.93-1.28-1.93-1.28"/>
<line fill="none" stroke="#9B7373" stroke-width="0.5" stroke-miterlimit="10" x1="-25.6" y1="39.8" x2="-25.6" y2="46.69"/>
<path fill="none" stroke="#9B7373" stroke-width="0.7309" stroke-miterlimit="10" d="M22.3,65.38c0,0-2.39,5.44-0.66,11.41"/>
<path fill="none" stroke="#9B7373" stroke-width="0.7309" stroke-miterlimit="10" d="M32.59,65.98c0,0,1.75,5.68-0.66,11.41"/>
<rect x="25.33" y="71.42" transform="matrix(0.0574 -0.9984 0.9984 0.0574 -52.1426 99.7668)" fill="#926765" width="2.87" height="12.15"/>
<ellipse transform="matrix(0.0574 -0.9984 0.9984 0.0574 -50.6428 98.4859)" fill="#9B7373" cx="26.84" cy="76.06" rx="1.03" ry="6.08"/>
<ellipse transform="matrix(0.0574 -0.9984 0.9984 0.0574 -53.8228 101.1602)" fill="#926765" cx="26.66" cy="79.08" rx="1.18" ry="6.08"/>
<path fill="#EAE4B1" d="M24.21,64.38L24,68.1c0,0-2.01,1.9-0.2,3.56l-0.13,2.2c-0.08,1.35,0.95,2.51,2.31,2.59l0.84,0.05l0.69-11.92
	L24.21,64.38z"/>
<path fill="#EAE4B1" d="M30.78,64.76l-0.21,3.72c0,0,1.78,2.12-0.2,3.56l-0.13,2.2c-0.08,1.35-1.24,2.38-2.59,2.31l-0.84-0.05
	l0.69-11.92L30.78,64.76z"/>
<path fill="#926765" d="M25.29,57l-0.16,2.79c0,0-2.39,1.09-2.44,1.9s-2.16,2.38-1.78,3.9c0,0,0.27,0.64,6.47,0.99l0.54-9.43
	L25.29,57z"/>
<path fill="#926765" d="M30.55,57.3l-0.16,2.79c0,0,2.25,1.35,2.21,2.17s1.87,2.61,1.32,4.08c0,0-0.35,0.6-6.54,0.25l0.54-9.43
	L30.55,57.3z"/>
<ellipse transform="matrix(0.0574 -0.9984 0.9984 0.0574 -30.7373 81.7461)" fill="#9B7373" cx="27.92" cy="57.15" rx="0.44" ry="2.64"/>
<path fill="none" stroke="#9B7373" stroke-width="0.7195" stroke-miterlimit="10" d="M26.39,57.06c0,0-1.82-3.56-0.93-5.32
	c0.89-1.76,2.87-1.68,2.87-1.68"/>
<path fill="none" stroke="#9B7373" stroke-width="0.7195" stroke-miterlimit="10" d="M29.46,57.24c0,0,2.22-3.32,1.54-5.17
	c-0.68-1.85-2.66-2-2.66-2"/>
<line fill="none" stroke="#9B7373" stroke-width="0.7195" stroke-miterlimit="10" x1="27.38" y1="66.58" x2="26.81" y2="76.49"/>
<g>
	<path fill="#D67A4D" d="M62.65,60.16l-1.02-1.91c-0.13-0.25-0.04-0.54,0.2-0.67l23.51-12.56c0.02-0.01,0.03-0.02,0.05-0.03
		l7.14-4.71c0.25-0.15,0.56-0.07,0.7,0.18l1.72,3.22c0.14,0.26,0.03,0.57-0.23,0.69l-7.86,3.41c0,0-0.01,0.01-0.03,0.02L63.3,60.37
		C63.06,60.5,62.78,60.4,62.65,60.16z"/>
	<path fill="#A2A0A0" d="M89.16,40.58c0.21,0.47,0.04,1-0.41,1.25l-1.82,0.97c-0.29,0.15-0.39,0.5-0.24,0.78l2.05,3.84
		c0.15,0.29,0.5,0.39,0.78,0.24l1.82-0.97c0.45-0.24,1.01-0.1,1.27,0.35c1.38,2.32,3.25,6.37,5.2,13.25c0,0,0.85-7.73-4.52-17.77
		S81.03,28.88,81.03,28.88C85.66,34.32,87.98,38.13,89.16,40.58z"/>
</g>
<path opacity="0.36" fill="#8ABEDB" d="M76.19,52.98c-1.89-1.1-6.52-10.51-9.21-17.14c1.04-2.05,1.28-4.14-0.35-5.93
	c-4.81-5.28-15.04-5.28-14.44-12.71c0.6-7.44-8.12-12.83-14.74-5.52c-6.62,7.32,3.28,11.27-1.2,12.59
	c-7.8,2.29-12.22,2.65-12.41,6.72c-6.63,6.55-6.94,17.39,0.51,21.93c1.13,0.69,2.12,1.29,2.98,1.79c0.01,0.13,0.02,0.25,0.04,0.38
	c1.5,13.43,20.6,31.3,19.85,40.29c0,0,0.6-17.39,7.52-27.22c5.54-7.87,5-17.05,4.8-21.26c4.43,7.05,9.36,15.5,11.29,14.07
	C73.96,58.64,78.77,54.48,76.19,52.98z"/>
<path opacity="0.13" fill="#DDE2F2" d="M39.76,33.37c-6.19,1.82-8.71,1.53-6.27,7.57s0.26,2.5,1.13,10.28s11.94,18.13,11.5,23.35
	c0,0,0.35-10.07,4.36-15.77S53,46.22,53.27,45.25c0.26-0.97,6.88-5.56,4.1-8.62c-2.79-3.06-8.71-3.06-8.36-7.36s-4.71-7.43-8.54-3.2
	S42.36,32.61,39.76,33.37z"/>
</svg>
