<?xml version="1.0" encoding="utf-8"?>
<!-- Generator: Adobe Illustrator 25.0.1, SVG Export Plug-In . SVG Version: 6.00 Build 0)  -->
<svg version="1.1" id="Layer_1" xmlns="http://www.w3.org/2000/svg" xmlns:xlink="http://www.w3.org/1999/xlink" x="0px" y="0px"
	 viewBox="0 0 100 100" enable-background="new 0 0 100 100" xml:space="preserve">
<radialGradient id="SVGID_1_" cx="50" cy="50" r="48.7" gradientUnits="userSpaceOnUse">
	<stop  offset="0" style="stop-color:#9653A1"/>
	<stop  offset="1" style="stop-color:#8E51A0;stop-opacity:0"/>
</radialGradient>
<circle fill="url(#SVGID_1_)" cx="50" cy="50" r="48.7"/>
<g>
	<polygon fill="#9A5C3D" points="31.76,66.14 20.16,82.04 21.59,83.2 33.89,67.84 	"/>
	<polygon fill="#864125" points="36.01,69.53 23.02,84.34 21.59,83.2 33.89,67.84 	"/>
	<path fill="#9ECDEF" d="M79.6,10.77L34.21,67.44l-2.5-2l32.35-40.4c2.24-2.79,4.75-5.35,7.49-7.61L79.6,10.77z"/>
	<path fill="#85B7D6" d="M69.06,29.06L36.7,69.44l-2.5-2l45.4-56.67l-4.74,9.32C73.23,23.25,71.29,26.26,69.06,29.06z"/>
	<path fill="#85B7D6" d="M44.7,69.54l-1.27-1.52c-3.34,3.27-7.56,0.57-9.06-0.59l-0.01-0.01c-0.04-0.04-0.07-0.05-0.11-0.09
		c-1.46-1.2-5.01-4.72-2.55-8.71l-1.76-0.91c-3.21,5.17,0.22,9.32,2.19,11.12l0,0c0.05,0.04,0.23,0.21,0.53,0.46
		c0.02,0.02,0.04,0.04,0.06,0.04c0.02,0.02,0.04,0.04,0.06,0.04c0.3,0.24,0.51,0.39,0.57,0.42l0,0
		C35.56,71.35,40.37,73.79,44.7,69.54z"/>
	<path fill="#9ECDEF" d="M43.64,68.28l-1.05-1.27c-2.88,2.84-6.38,0.61-7.63-0.35c0,0,0,0-0.01-0.01c-0.03-0.03-0.06-0.04-0.09-0.07
		c-1.22-1-4.15-3.93-2-7.36l-1.47-0.75c-2.8,4.46,0.03,7.93,1.66,9.43l0,0c0.04,0.04,0.18,0.18,0.44,0.38
		c0.01,0.01,0.03,0.03,0.05,0.04c0.01,0.01,0.03,0.03,0.05,0.04c0.26,0.2,0.43,0.33,0.47,0.35l0,0C35.9,70,39.91,71.98,43.64,68.28z
		"/>
	<circle fill="#9ECDEF" cx="21.03" cy="83.98" r="3.43"/>
	<circle fill="#E3569F" cx="21.03" cy="83.98" r="1.86"/>
	<circle fill="#DF7EB3" cx="21.03" cy="83.98" r="1.31"/>
</g>
</svg>
