<?xml version="1.0" encoding="utf-8"?>
<!-- Generator: Adobe Illustrator 25.0.1, SVG Export Plug-In . SVG Version: 6.00 Build 0)  -->
<svg version="1.1" id="Layer_1" xmlns="http://www.w3.org/2000/svg" xmlns:xlink="http://www.w3.org/1999/xlink" x="0px" y="0px"
	 viewBox="0 0 100 100" enable-background="new 0 0 100 100" xml:space="preserve">
<radialGradient id="SVGID_1_" cx="49.57" cy="50" r="48.7" gradientUnits="userSpaceOnUse">
	<stop  offset="0" style="stop-color:#9653A0"/>
	<stop  offset="1" style="stop-color:#8D52A0;stop-opacity:0"/>
</radialGradient>
<circle fill="url(#SVGID_1_)" cx="49.57" cy="50" r="48.7"/>
<g>
	<path fill="#353535" d="M64.79,60.81c2.11-1.43,3.36-3.17,3.36-5.04c0-4.85-8.28-8.79-18.5-8.79s-18.5,3.93-18.5,8.79
		c0,1.88,1.25,3.62,3.36,5.04c-2.11,0.9-3.36,2-3.36,3.19c0,3.07,8.28,5.55,18.5,5.55s18.5-2.48,18.5-5.55
		C68.15,62.82,66.9,61.72,64.79,60.81z"/>
	<path fill="#6EC0E1" d="M68.89,74.21c-2.2,0.94-4.91,1.98-7.63,2.76c-1.18,0.34-2.35,0.25-3.39-0.15c-1.82-0.71-3.2-2.41-3.32-4.56
		l-0.26-4.52c-0.15-2.45,1.43-4.67,3.79-5.34l2.35-0.68c2.25-0.64,3.81-2.69,3.81-5.03v-0.06c-0.03-3.22-2.94-5.64-6.12-5.09
		l-4.58,0.8c-2.61,0.46-5.28,0.46-7.89,0l-1.66-0.29l-2.91-0.51c-0.31-0.06-0.61-0.08-0.91-0.08c-0.53,0-1.04,0.08-1.52,0.23h-0.03
		c-2.09,0.65-3.67,2.59-3.69,4.95c-0.03,2.36,1.53,4.44,3.81,5.08l2.35,0.68c2.36,0.68,3.94,2.89,3.79,5.34l-0.26,4.52
		c-0.21,3.36-3.47,5.64-6.7,4.71c-2.73-0.79-5.44-1.83-7.63-2.76c-2.38-1-3.69-3.61-3.03-6.1c0.83-3.14,1.6-8.81,1.51-19.06
		C28.56,27.46,49.6,21.91,49.6,21.91s5.08,1.34,10.24,5.28c4.32,3.3,8.68,8.43,10.11,16.14c0.33,1.77,0.5,3.68,0.48,5.73
		c-0.07,6.98,0.26,11.83,0.75,15.22c0.23,1.58,0.48,2.84,0.75,3.84C72.57,70.59,71.27,73.2,68.89,74.21z"/>
	<ellipse transform="matrix(0.866 -0.5 0.5 0.866 -10.3211 25.0634)" fill="#EAEAE9" cx="41.61" cy="31.79" rx="4.09" ry="2.33"/>
</g>
</svg>
