<?xml version="1.0" encoding="utf-8"?>
<!-- Generator: Adobe Illustrator 25.0.1, SVG Export Plug-In . SVG Version: 6.00 Build 0)  -->
<svg version="1.1" id="Layer_1" xmlns="http://www.w3.org/2000/svg" xmlns:xlink="http://www.w3.org/1999/xlink" x="0px" y="0px"
	 viewBox="0 0 100 100" style="enable-background:new 0 0 100 100;" xml:space="preserve">
<style type="text/css">
	.st0{fill:url(#SVGID_1_);}
	.st1{fill:#A1D4EE;}
	.st2{fill:#7EC1EA;}
	.st3{fill:#6695AD;}
</style>
<radialGradient id="SVGID_1_" cx="50" cy="48.19" r="48.7" gradientTransform="matrix(1 0 0 1 0 2)" gradientUnits="userSpaceOnUse">
	<stop  offset="0" style="stop-color:#9754A1"/>
	<stop  offset="1" style="stop-color:#8E53A1;stop-opacity:0"/>
</radialGradient>
<circle class="st0" cx="50" cy="50.2" r="48.7"/>
<g>
	<path class="st1" d="M67.8,60.8c-2.5,5.1-6,10-10.8,13.9c-1.9,1.6-4.1,3-6.5,4.3c-23.3-12-24.2-43.4-24-51.9c0-1,1-1.7,2-1.5
		c6.3,1.9,20.6,2.5,21.9,2.6c0.1,0,0.1,0,0.1,0s9-0.3,16.2-1.4c2.2-0.3,4.3-0.7,5.8-1.2c1-0.3,1.9,0.4,2,1.5
		C74.7,32.5,74.3,47.6,67.8,60.8z"/>
	<path class="st2" d="M70.4,31.3c0-0.8-0.8-1.4-1.6-1.2c-5.5,1.7-18.3,2.2-18.3,2.2s-12.8-0.5-18.3-2.2c-0.8-0.2-1.6,0.4-1.6,1.2
		c-0.2,7.1,0.6,33.1,19.9,43.1C69.9,64.4,70.6,38.4,70.4,31.3z"/>
	<path class="st3" d="M67,44.2c-0.1-0.9-1-1.6-1.9-1.4c-3.8,0.9-7.5,1.3-11,1.5v-7.6c0-0.9-0.7-1.6-1.6-1.6h-4.4
		c-0.9,0-1.6,0.7-1.6,1.6v7.6c-3.4-0.2-7.1-0.6-10.8-1.5c-0.9-0.2-1.8,0.4-1.9,1.4c-0.1,1.3,0,3,0.7,4.3c0.7,1.2,5.6,2.7,11.9,3.1
		v15.8c0,0.9,0.7,1.6,1.6,1.6h4.4c0.9,0,1.6-0.7,1.6-1.6V51.6c6.5-0.4,11.4-1.9,12.1-3.1C67.1,47.2,67.1,45.5,67,44.2z"/>
</g>
</svg>
