<?xml version="1.0" encoding="utf-8"?>
<!-- Generator: Adobe Illustrator 25.0.1, SVG Export Plug-In . SVG Version: 6.00 Build 0)  -->
<svg version="1.1" id="Layer_1" xmlns="http://www.w3.org/2000/svg" xmlns:xlink="http://www.w3.org/1999/xlink" x="0px" y="0px"
	 viewBox="0 0 100 100" enable-background="new 0 0 100 100" xml:space="preserve">
<path fill="#856849" d="M46.41,99.18l-43.9-24.7c-0.9-0.5-1.4-1.1-1.5-1.8c-0.1-0.8,0.4-1.7,1.5-2.3l43.9-24.7c2-1.1,5.2-1.1,7.2,0
	l43.9,24.7c2,1.1,2,2.9,0,4.1l-43.9,24.7C51.61,100.28,48.41,100.28,46.41,99.18z"/>
<polygon fill="#856849" points="1.01,68.18 99.01,67.88 99.01,72.38 1.01,72.68 "/>
<path fill="#3A2D18" d="M46.41,94.58l-43.9-24.7c-2-1.1-2-2.9,0-4.1l43.9-24.7c2-1.1,5.2-1.1,7.2,0l43.9,24.7c2,1.1,2,2.9,0,4.1
	l-43.9,24.7C51.61,95.78,48.41,95.78,46.41,94.58z"/>
<path fill="#1D3F40" d="M46.81,90.68l-38.5-21.7c-1.8-1-1.8-2.6,0-3.6l38.5-21.7c1.8-1,4.6-1,6.4,0l38.5,21.7c1.8,1,1.8,2.6,0,3.6
	l-38.5,21.7C51.51,91.58,48.61,91.58,46.81,90.68z"/>
<path fill="#183333" d="M47.18,87.95L13.13,68.76c-1.59-0.88-1.59-2.3,0-3.18l34.05-19.19c1.59-0.88,4.07-0.88,5.66,0l34.05,19.19
	c1.59,0.88,1.59,2.3,0,3.18L52.84,87.95C51.33,88.75,48.77,88.75,47.18,87.95z"/>
<ellipse fill="#382D21" cx="-44.4" cy="59.4" rx="3.1" ry="1.8"/>
<polygon fill="#A96F4A" points="83.15,67.43 60.08,64.61 40.85,65.65 39.02,63.97 32.77,58.22 35.47,44.56 47.18,28.91 48.5,27.14 
	56.39,14.34 64.98,25 67.28,28.17 69.03,30.56 74.83,41.21 "/>
<path fill="#E3F4FC" d="M42.06,36.14c-0.09,0-0.19,0-0.28-0.01l0.15-0.2L42.06,36.14z"/>
<path fill="#A96F4A" d="M73.75,39.22c-4.75,0.12-9.69-1.09-9.37-2.42c0.54-2.25,3.52-4.53,5.67-4.37L73.75,39.22z"/>
<polygon fill="#FFEEDE" points="67.28,28.16 64.74,29.24 61.87,25.32 61.09,29.89 59.51,28.23 57.47,32.84 53.55,30.95 50.11,33.24 
	47.19,28.9 48.5,27.15 56.38,14.34 64.98,25 "/>
<polygon opacity="0.18" points="83.06,67.14 60.07,64.61 40.94,65.65 40.4,42.95 50.09,39.44 53.9,37.35 53.55,30.94 54.06,23.08 
	56.38,14.34 64.98,25 67.28,28.16 74.83,41.22 "/>
<polygon opacity="0.18" points="46.3,49.31 46.86,46.38 48.88,44.18 52.45,40.28 51.47,44.14 48,46.92 "/>
<polygon fill="#A96F4A" points="58.63,78.49 41.91,79.39 32.02,75.1 27.78,73.26 16.98,67.86 23.6,50.19 27.77,43.09 31.7,38.56 
	37.81,29.53 46.01,42.28 47.75,45.66 55.3,60.31 "/>
<path fill="#E3F4FC" d="M42.06,36.14c-0.09,0-0.19,0-0.28-0.01l0.15-0.2L42.06,36.14z"/>
<polygon opacity="0.18" points="48.42,33.09 46.65,37.17 43.7,40.01 39.91,44.14 42.19,38.88 45.72,36.24 "/>
<polygon opacity="0.18" points="82.97,66.85 61.76,75.47 48.71,78.79 34.32,72.73 46.17,62.59 49.36,48.79 53.57,50.17 62.3,36 
	66.94,35.36 69.03,30.56 74.83,41.21 "/>
<path fill="#FFEEDE" d="M47.75,45.66l-5.27-4.86l-1.97,4.14l-1.61-0.57l-2.48,3.33l-1.99-4.98c0,0-4.97,3.79-5.43,3.95
	c-0.46,0.16-1.23-3.59-1.23-3.59l3.93-4.53l6.1-9.02l8.21,12.75L47.75,45.66z"/>
<polygon opacity="0.18" points="58.63,78.49 41.91,79.39 32.02,75.1 24.92,69.65 30.5,65.59 34.65,55.49 34.43,42.73 37.81,29.53 
	46.01,42.28 47.75,45.66 55.3,60.31 "/>
<path fill="#1D3F40" d="M32.77,73.82c0.61-5.46,1.32-8.83,4.8-6.04c0,0,0.24-6.57,3.67-4.66c0,0,1.96-6.9,5.42-2.61
	c0,0,3.21-4.33,7.12-5.08c6.25-1.19,14.43,3.09,14.43,3.09s5.15-3.78,6.53,5.28c1.24,8.14-27.65,17.25-27.65,17.25L32.77,73.82z"/>
<path fill="#E3F4FC" d="M26.88-17.03c1.13-2.88-1.9-3.24-3.08-2.58c0,0-2.82-4.68-5.3,0.73c0,0-3.97,0.83-3.29,2.06
	C16.18-15.06,25.94-14.62,26.88-17.03z"/>
<polygon fill="#A96F4A" points="80.37,66.7 73.14,71.43 59.77,80.72 49.81,80.72 43.34,79.17 45.04,72.68 49.13,64.96 52.83,56.4 
	58.18,47.1 63.43,39.66 68.33,47.48 "/>
<polygon fill="#FFEEDE" points="68.33,47.48 67.29,50.19 65.25,48.15 63.01,49.58 60.84,47.09 59.42,49.77 58.25,47.23 58.18,47.1 
	63.43,39.66 "/>
<polygon opacity="0.18" points="80,66.12 74.78,69.1 73.14,71.43 54.33,81.04 49.98,80.43 49.81,76.78 51.95,71.77 55.8,67.33 
	57.15,60.45 61.64,55.91 62.1,48.54 63.43,39.66 68.33,47.48 70.02,50.19 70.03,50.2 "/>
<polygon opacity="0.24" points="80,66.12 71.01,74.46 60.45,78.36 62.83,68.36 64.17,61.81 68.33,59.31 70.02,50.19 70.03,50.2 "/>
<path fill="#183333" d="M13.99,66.49c2.26-4.02,6.25-3.44,7.22,1c0,0,5.65-3.04,6.85,2.29c0,0,4.97-0.19,6.26,4.82
	c0,0,5.68-0.4,7.46,3.76c0,0,5.41-2.87,8.03,2.37c0,0,3.54-4.73,7.87-2.19c0,0,0.97-5.74,7.23-3.2c0,0,0-5.79,5.07-3.74
	c0,0,3.11-6.35,6.51-3.47c0,0,1.42-5.36,4.99-1.81c0,0,2.57-4.45,3.7-0.42c1.13,4.04-0.13,3.15-2.81,4.56s-3.8,3.03-8.82,5.29
	c-5.32,2.4-5.33,2.91-10.42,5.01c-5.09,2.1-10.74,6.48-13.13,6.48c-2.91,0-8.49-4.67-11.71-5.65c-4.12-1.24-12.48-6.76-16.26-8.85
	C18,70.51,13.1,68.06,13.99,66.49z"/>
<path fill="#E3F4FC" d="M80.95-16.98c0,0,4.69-3.12-4.59-3.02s1.19-5.34,3.91-2.7c0,0,3.74-2.13,5.36,1.02c0,0,7.2,0.81,6.7,7.17
	s-18.29,4.26-17.69,1.78C75.25-15.21,78.81-17.73,80.95-16.98z"/>
<path fill="#E3F4FC" d="M52.38-17c-0.8-1.35,1.67-1.44,2.6-1.11c0,0,2.47-2.08,4.27,0.46c0,0,2.75-0.03,2.6,1.02
	C61.71-15.69,53.05-15.87,52.38-17z"/>
<polygon opacity="0.18" points="24.92,63.3 24.92,58.93 26.66,55.22 28.7,50 28.7,55.64 26.28,59.4 "/>
<polygon opacity="0.18" points="74.22,51.47 74,47.11 72.07,43.49 69.76,38.38 70.05,44.01 72.67,47.65 "/>
<polygon opacity="0.18" points="52.22,66.48 54.58,62.8 55.6,59.04 57.27,53.91 54.22,58.65 53.56,62.7 "/>
<polygon opacity="0.18" points="60.35,64.52 60.07,68.16 58.37,71.15 56.32,75.37 56.69,70.67 58.96,67.69 "/>
<polygon opacity="0.18" points="42.43,44.93 44.02,47.85 44.34,50.9 45.03,55.05 42.98,51.27 43.04,47.98 "/>
<polygon opacity="0.18" points="70.97,56.33 72.9,59.04 73.59,62.03 74.78,66.06 72.29,62.57 71.95,59.28 "/>
</svg>
