<?xml version="1.0" encoding="utf-8"?>
<!-- Generator: Adobe Illustrator 25.0.1, SVG Export Plug-In . SVG Version: 6.00 Build 0)  -->
<svg version="1.1" id="Layer_1" xmlns="http://www.w3.org/2000/svg" xmlns:xlink="http://www.w3.org/1999/xlink" x="0px" y="0px"
	 viewBox="0 0 100 100" enable-background="new 0 0 100 100" xml:space="preserve">
<path fill="#CBBC99" d="M58.87,36.54c0,0,26.2-12.33,18.99-25.46c0,0,21.29,12.4-12.88,31.7l-6.25,0.63L58.87,36.54z"/>
<path fill="#E4D7B6" d="M66.2,35.15c0,0,33.05-11.63,25.97-28.32c0,0,24.11,17.53-19.38,36.58h-7.6L66.2,35.15z"/>
<path fill="#C48D4A" d="M7.34,63.13c0,0-2.26-2.64-2.94-9.15c0,0-8.06,4.13,1.28,23.82l5.39,0.24l-3.15,5.08l8.6,8.03l2.81-8.87
	l41.5-9.05c1.84-0.4,3.75,0.28,4.93,1.76l0.65,0.82c0.43,0.54,1,0.96,1.65,1.2l5.68,2.13l0.6-4.36c0.12-0.86-0.06-1.73-0.51-2.48
	l0,0c-0.91-1.53,0.35-3.43,2.11-3.19l4.56,0.64c0.44,0.06,0.89,0.05,1.33-0.05l10.95-2.36l-7.85-7.98c-0.37-0.37-0.8-0.66-1.29-0.86
	l-3.51-1.42c-1.8-0.73-1.75-3.3,0.08-3.96l2.38-0.86c0.71-0.26,1.33-0.72,1.78-1.33l5.13-6.98l-8.49-2.02
	c-0.52-0.12-1.05-0.14-1.58-0.04l-3.85,0.72c-2.23,0.42-4.43-0.75-5.4-2.81c-1.91-4.06-6.29-9.39-15.2-3.53L7.34,63.13z"/>
<path fill="#7C5224" d="M10.87,67.86c0,0,4-5.37,7.03-4.13C20.94,64.96,13.94,67.71,10.87,67.86z"/>
<polyline fill="none" stroke="#7C5224" stroke-width="1.5644" stroke-miterlimit="10" points="11.07,78.04 17.04,78.04 21.43,73.58 
	29.52,73.58 34.07,68.86 40.14,68.86 46.99,70.23 "/>
<path fill="#A04723" d="M46.99,48.85c0,0,6.11-3.37,10.24-1.5c3.92,1.77,9.59,14.38-10.24,13.2V48.85z"/>
<circle fill="#E0D6CD" cx="46.99" cy="54.7" r="5.85"/>
<path fill="#A04723" d="M30.95,49.83l8.87-10.2l6.22,2.08c0,0-1.52,4.52-4.21,5.56C36.47,49.35,30.95,49.83,30.95,49.83z"/>
<path fill="#A04723" d="M47.13,40.84l7.59-8.73l5.32,1.78c0,0-1.3,3.87-3.61,4.76C51.85,40.42,47.13,40.84,47.13,40.84z"/>
<path fill="#A04723" d="M16.02,58.28l7.59-8.73l5.32,1.78c0,0-1.3,3.87-3.61,4.76C20.74,57.86,16.02,58.28,16.02,58.28z"/>
<path fill="#423D38" d="M47.26,49.39c0,0-5.11,4.49,0,10.62C47.26,60.01,51.19,56.07,47.26,49.39z"/>
<path fill="#EABF93" d="M76.93,59.33l4.07,1.5c1.62,0.59,3.08,1.53,4.3,2.74l2.01,2l-2.28,0.67c-1.99,0.58-4.09,0.63-6.1,0.16
	l-3.47-0.82L76.93,59.33z"/>
<path fill="#EABF93" d="M70,69.35l1.33,1.98c0.53,0.79,0.86,1.75,0.99,2.84l0.21,1.79l-1.27-0.14c-1.11-0.12-2.09-0.61-2.83-1.42
	l-1.29-1.4L70,69.35z"/>
<path fill="#EABF93" d="M74.19,45.94l3.69-0.86c1.46-0.34,3.03-0.34,4.59,0.02l2.57,0.59l-1.17,1.69c-1.02,1.48-2.43,2.59-4.1,3.22
	l-2.88,1.1L74.19,45.94z"/>
</svg>
