<?xml version="1.0" encoding="utf-8"?>
<!-- Generator: Adobe Illustrator 25.0.1, SVG Export Plug-In . SVG Version: 6.00 Build 0)  -->
<svg version="1.1" id="Layer_1" xmlns="http://www.w3.org/2000/svg" xmlns:xlink="http://www.w3.org/1999/xlink" x="0px" y="0px"
	 viewBox="0 0 100 100" style="enable-background:new 0 0 100 100;" xml:space="preserve">
<style type="text/css">
	.st0{fill:#FFFFFF;}
</style>
<path class="st0" d="M50.1,45c0,0-10.9-11.4,0-29.1C50.1,15.9,60.5,31.9,50.1,45z"/>
<path class="st0" d="M54.7,52.5c0,0,15.8,0.3,20.6,20.6C75.3,73,56.6,69.1,54.7,52.5z"/>
<path class="st0" d="M45.3,52.3c0,0-0.3,15.8-20.6,20.6C24.7,72.9,28.6,54.2,45.3,52.3z"/>
<path class="st0" d="M49.9,54.4c0,0,10.9,11.4,0,29.1C49.9,83.5,39.5,67.5,49.9,54.4z"/>
<path class="st0" d="M45.3,47c0,0-15.8-0.3-20.6-20.6C24.7,26.4,43.4,30.3,45.3,47z"/>
<path class="st0" d="M54.7,47.1c0,0,0.3-15.8,20.6-20.6C75.3,26.5,71.4,45.2,54.7,47.1z"/>
</svg>
