<?xml version="1.0" encoding="utf-8"?>
<!-- Generator: Adobe Illustrator 25.0.1, SVG Export Plug-In . SVG Version: 6.00 Build 0)  -->
<svg version="1.1" id="Layer_1" xmlns="http://www.w3.org/2000/svg" xmlns:xlink="http://www.w3.org/1999/xlink" x="0px" y="0px"
	 viewBox="0 0 100 100" style="enable-background:new 0 0 100 100;" xml:space="preserve">
<style type="text/css">
	.st0{fill:#FFFFFF;}
</style>
<path class="st0" d="M34.1,45.4c0,0-10.9-11.4,0-29.1C34.1,16.3,44.5,32.3,34.1,45.4z"/>
<path class="st0" d="M38.7,52.8c0,0,15.8,0.3,20.6,20.6C59.3,73.4,40.6,69.5,38.7,52.8z"/>
<path class="st0" d="M29.2,52.7c0,0-0.3,15.8-20.6,20.6C8.7,73.3,12.6,54.6,29.2,52.7z"/>
<path class="st0" d="M33.9,54.8c0,0,10.9,11.4,0,29.1C33.9,83.9,23.4,67.9,33.9,54.8z"/>
<path class="st0" d="M29.2,47.3c0,0-15.8-0.3-20.6-20.6C8.7,26.8,27.4,30.7,29.2,47.3z"/>
<path class="st0" d="M38.7,47.5c0,0,0.3-15.8,20.6-20.6C59.3,26.9,55.4,45.6,38.7,47.5z"/>
<path class="st0" d="M59.3,37.1v2.1v1.3H60c0.6,0,1,0.1,1.3,0.2c0.2,0.1,0.4,0.3,0.5,0.6s0.2,0.8,0.2,1.6v14.3
	c0,0.8-0.1,1.3-0.2,1.5s-0.3,0.5-0.5,0.6s-0.7,0.2-1.3,0.2h-0.7v1.3v2.1h32.1v-2.1v-1.3h-0.6c-0.6,0-1.1-0.1-1.3-0.2
	c-0.2-0.1-0.4-0.3-0.6-0.6c-0.1-0.3-0.2-0.8-0.2-1.5V43.2c0-0.9,0.1-1.5,0.2-1.8c0.1-0.3,0.3-0.5,0.6-0.7s0.7-0.2,1.3-0.2h0.6v-1.3
	v-2.1C91.4,37.1,59.3,37.1,59.3,37.1z M67.6,60.8v-1.3h-0.6c-0.6,0-1.1-0.1-1.3-0.2c-0.2-0.1-0.4-0.3-0.6-0.6
	c-0.1-0.3-0.2-0.8-0.2-1.5V43.2c0-0.9,0.1-1.5,0.2-1.8c0.1-0.3,0.3-0.5,0.6-0.7s0.7-0.2,1.3-0.2h0.6v-1.3h3.7v1.3h0.7
	c0.6,0,1,0.1,1.3,0.2c0.2,0.1,0.4,0.3,0.6,0.6c0.1,0.3,0.2,0.8,0.2,1.6v14.3c0,0.8-0.1,1.3-0.2,1.5s-0.3,0.5-0.6,0.6
	s-0.7,0.2-1.3,0.2h-0.7v1.3C71.2,60.8,67.6,60.8,67.6,60.8z M83.8,40.5c0.6,0,1,0.1,1.3,0.2c0.2,0.1,0.4,0.3,0.6,0.6
	c0.1,0.3,0.2,0.8,0.2,1.6v14.3c0,0.8-0.1,1.3-0.2,1.5s-0.3,0.5-0.6,0.6s-0.7,0.2-1.3,0.2h-0.7v1.3h-3.7v-1.3h-0.6
	c-0.6,0-1.1-0.1-1.3-0.2c-0.2-0.1-0.4-0.3-0.6-0.6c-0.1-0.3-0.2-0.8-0.2-1.5V43.2c0-0.9,0.1-1.5,0.2-1.8c0.1-0.3,0.3-0.5,0.6-0.7
	s0.7-0.2,1.3-0.2h0.6v-1.3h3.7v1.3H83.8z"/>
</svg>
