<?xml version="1.0" encoding="utf-8"?>
<!-- Generator: Adobe Illustrator 25.0.1, SVG Export Plug-In . SVG Version: 6.00 Build 0)  -->
<svg version="1.1" id="Layer_1" xmlns="http://www.w3.org/2000/svg" xmlns:xlink="http://www.w3.org/1999/xlink" x="0px" y="0px"
	 viewBox="0 0 100 100" style="enable-background:new 0 0 100 100;" xml:space="preserve">
<style type="text/css">
	.st0{fill:#FFFFFF;}
</style>
<path class="st0" d="M40.1,45.4c0,0-10.9-11.4,0-29.1C40.1,16.3,50.5,32.3,40.1,45.4z"/>
<path class="st0" d="M44.7,52.8c0,0,15.8,0.3,20.6,20.6C65.3,73.4,46.6,69.5,44.7,52.8z"/>
<path class="st0" d="M35.2,52.7c0,0-0.3,15.8-20.6,20.6C14.7,73.3,18.6,54.6,35.2,52.7z"/>
<path class="st0" d="M39.9,54.8c0,0,10.9,11.4,0,29.1C39.9,83.9,29.4,67.9,39.9,54.8z"/>
<path class="st0" d="M35.2,47.3c0,0-15.8-0.3-20.6-20.6C14.7,26.8,33.4,30.7,35.2,47.3z"/>
<path class="st0" d="M44.7,47.5c0,0,0.3-15.8,20.6-20.6C65.3,26.9,61.4,45.6,44.7,47.5z"/>
<path class="st0" d="M65.3,37.1v2.1v1.3H66c0.6,0,1,0.1,1.3,0.2c0.2,0.1,0.4,0.3,0.6,0.6s0.2,0.8,0.2,1.6v14.3
	c0,0.8-0.1,1.3-0.2,1.5c-0.1,0.3-0.3,0.5-0.6,0.6s-0.7,0.2-1.3,0.2h-0.7v1.3v2.1h20.2v-2.1v-1.3h-0.6c-0.6,0-1.1-0.1-1.3-0.2
	c-0.2-0.1-0.4-0.3-0.6-0.6c-0.1-0.3-0.2-0.8-0.2-1.5V43.2c0-0.9,0.1-1.5,0.2-1.8c0.1-0.3,0.3-0.5,0.6-0.7c0.3-0.2,0.7-0.2,1.3-0.2
	h0.6v-1.3v-2.1C85.5,37.1,65.3,37.1,65.3,37.1z M79.9,57.2c0,0.8-0.1,1.3-0.2,1.5c-0.1,0.3-0.3,0.5-0.6,0.6s-0.7,0.2-1.3,0.2h-0.7
	v1.3h-3.7v-1.3h-0.6c-0.6,0-1.1-0.1-1.3-0.2c-0.2-0.1-0.4-0.3-0.6-0.6c-0.1-0.3-0.2-0.8-0.2-1.5V43.2c0-0.9,0.1-1.5,0.2-1.8
	c0.1-0.3,0.3-0.5,0.6-0.7c0.3-0.2,0.7-0.2,1.3-0.2h0.6v-1.3h3.7v1.3h0.7c0.6,0,1,0.1,1.3,0.2c0.2,0.1,0.4,0.3,0.6,0.6
	s0.2,0.8,0.2,1.6V57.2z"/>
</svg>
