<?xml version="1.0" encoding="utf-8"?>
<!-- Generator: Adobe Illustrator 25.0.1, SVG Export Plug-In . SVG Version: 6.00 Build 0)  -->
<svg version="1.1" id="Layer_1" xmlns="http://www.w3.org/2000/svg" xmlns:xlink="http://www.w3.org/1999/xlink" x="0px" y="0px"
	 viewBox="0 0 100 100" enable-background="new 0 0 100 100" xml:space="preserve">
<g>
	<line fill="none" stroke="#D67A4E" stroke-width="4.3333" stroke-miterlimit="10" x1="79.52" y1="98.01" x2="48.43" y2="41.27"/>
	
		<rect x="47.98" y="30.95" transform="matrix(0.8769 -0.4806 0.4806 0.8769 -15.5733 29.9447)" fill="#AC30C1" width="5.41" height="28.87"/>
</g>
<path fill="#E2E4C6" d="M47.84,16.31c-3.38-5.77-10.8-7.71-16.57-4.33c-5.77,3.38-7.71,10.8-4.33,16.57
	c0.2,0.34,0.41,0.67,0.64,0.97l-0.01,0l3.85,5.33c0.42,0.58,1.04,0.97,1.74,1.1l2.21,0.4c0.79,0.14,1.49,0.63,1.89,1.32
	c0.32,0.55,0.82,0.96,1.38,1.18c0.01,0,0.01,0.01,0.02,0.01l0.44,1.86c1.01,0.08,1.94-0.46,1.94-0.46l-0.33-1.42l0.45-0.14
	l0.77,1.81c1.01-0.1,1.84-0.79,1.84-0.79l-0.7-1.63c0.25-0.09,0.49-0.18,0.73-0.28l0.77,1.48c1-0.18,1.77-0.93,1.77-0.93l-0.75-1.42
	c0.21-0.12,0.43-0.25,0.63-0.38l0.88,1.35c0,0,1.04-0.3,1.68-1.09l-0.93-1.43c0.2-0.16,0.4-0.33,0.59-0.5l1.1,1.44
	c0,0,1.01-0.39,1.58-1.22l-1.23-1.6l0.34-0.33l1.07,1.03c0,0,0.93-0.53,1.38-1.44l-1.55-1.49c0.03-0.53-0.09-1.07-0.38-1.55
	c-0.41-0.69-0.49-1.53-0.23-2.29l0.73-2.12c0.23-0.67,0.19-1.41-0.11-2.06l-2.77-5.97l-0.01,0C48.22,16.99,48.03,16.65,47.84,16.31z
	 M38.73,30.24c-0.48,1.01-4.92,3.95-6.15,1.86c-2.08-3.54,2.05-5.05,3.77-5.38C39.26,26.16,39.22,29.23,38.73,30.24z M43.62,32.82
	c-0.6,0.35-1.39,0.36-1.8-0.35c-0.83-1.42-0.61-3.51-0.61-3.51s2.22,0.73,3.02,2.1c0.38,0.65,0.04,1.32-0.5,1.69
	C43.7,32.77,43.66,32.8,43.62,32.82z M43.59,27.4c-1.12-0.07-3.82-1.54-1.91-3.8c1.13-1.34,4.47-4.2,6.53-0.65
	C49.44,25.04,44.71,27.47,43.59,27.4z"/>
<circle fill="#EEACFC" cx="35.5" cy="29.74" r="1.21"/>
<circle opacity="0.14" fill="#EEACFC" cx="35.5" cy="29.74" r="27.31"/>
<circle opacity="0.14" fill="#EEACFC" cx="44.72" cy="24.32" r="22.86"/>
<circle fill="#EEACFC" cx="44.72" cy="24.32" r="1.21"/>
</svg>
