<?xml version="1.0" encoding="utf-8"?>
<!-- Generator: Adobe Illustrator 25.0.1, SVG Export Plug-In . SVG Version: 6.00 Build 0)  -->
<svg version="1.1" id="Layer_1" xmlns="http://www.w3.org/2000/svg" xmlns:xlink="http://www.w3.org/1999/xlink" x="0px" y="0px"
	 viewBox="0 0 100 100" style="enable-background:new 0 0 100 100;" xml:space="preserve">
<style type="text/css">
	.st0{fill:#8A556A;}
	.st1{fill:#6D3F51;}
	.st2{fill:#CC73A7;}
	.st3{fill:#E3A4CA;}
	.st4{fill:#EDC6DE;}
	.st5{opacity:0.28;fill:#EA4280;enable-background:new    ;}
	.st6{opacity:0.28;fill:none;stroke:#EA4280;stroke-width:3;stroke-miterlimit:10;enable-background:new    ;}
	.st7{opacity:0.28;fill:none;stroke:#EA4280;stroke-width:2.5333;stroke-miterlimit:10;enable-background:new    ;}
	.st8{opacity:0.28;fill:none;stroke:#EA4280;stroke-width:2.4721;stroke-miterlimit:10;enable-background:new    ;}
</style>
<path class="st0" d="M68.2,95.8L41.6,37.9l2.6-1.2l26.6,57.9c0.3,0.7,0,1.6-0.7,1.9l0,0C69.4,96.9,68.6,96.5,68.2,95.8z"/>
<path class="st1" d="M45.2,39.3l-2.1,1c-0.3,0.2-0.8,0-0.9-0.3l-0.3-0.7c-0.2-0.3,0-0.8,0.3-0.9l2.1-1c0.3-0.2,0.8,0,0.9,0.3
	l0.3,0.7C45.7,38.8,45.5,39.2,45.2,39.3z"/>
<circle class="st2" cx="41.6" cy="34.2" r="4.5"/>
<circle class="st3" cx="41.6" cy="34.2" r="3.2"/>
<path class="st4" d="M54.5,59.2l-2.4,1.1c-0.3,0.1-0.6,0-0.7-0.3l-5.2-11.3c-0.1-0.3,0-0.6,0.3-0.7l2.4-1.1c0.3-0.1,0.6,0,0.7,0.3
	l5.2,11.3C54.9,58.8,54.8,59.1,54.5,59.2z"/>
<ellipse transform="matrix(0.9441 -0.3296 0.3296 0.9441 -9.0105 15.5541)" class="st5" cx="41.4" cy="34.4" rx="12.6" ry="20.4"/>
<ellipse transform="matrix(0.9441 -0.3296 0.3296 0.9441 -9.0105 15.5541)" class="st6" cx="41.4" cy="34.4" rx="26.2" ry="16.2"/>
<ellipse transform="matrix(0.9441 -0.3296 0.3296 0.9441 -22.1763 21.2174)" class="st7" cx="51.5" cy="76" rx="22.1" ry="13.7"/>
<ellipse transform="matrix(0.9441 -0.3296 0.3296 0.9441 -12.6785 21.7351)" class="st6" cx="57.8" cy="48.3" rx="36.8" ry="22.7"/>
<ellipse transform="matrix(0.9441 -0.3296 0.3296 0.9441 -12.6785 21.7351)" class="st8" cx="57.8" cy="48.3" rx="30.3" ry="18.7"/>
<ellipse transform="matrix(0.9441 -0.3296 0.3296 0.9441 -9.0105 15.5541)" class="st5" cx="41.4" cy="34.4" rx="8.9" ry="14.4"/>
<ellipse transform="matrix(0.9441 -0.3296 0.3296 0.9441 -12.2505 21.6625)" class="st5" cx="57.8" cy="47" rx="5" ry="8.1"/>
<ellipse transform="matrix(0.9441 -0.3296 0.3296 0.9441 -3.0292 9.6017)" class="st5" cx="26.8" cy="13.7" rx="3.2" ry="5.2"/>
<ellipse transform="matrix(0.9441 -0.3296 0.3296 0.9441 -3.4406 18.0412)" class="st5" cx="51.5" cy="19.2" rx="3.2" ry="5.2"/>
<ellipse transform="matrix(0.9441 -0.3296 0.3296 0.9441 -15.7226 15.3638)" class="st5" cx="37.5" cy="54.1" rx="3.2" ry="5.2"/>
</svg>
