<?xml version="1.0" encoding="utf-8"?>
<!-- Generator: Adobe Illustrator 25.0.1, SVG Export Plug-In . SVG Version: 6.00 Build 0)  -->
<svg version="1.1" id="Layer_1" xmlns="http://www.w3.org/2000/svg" xmlns:xlink="http://www.w3.org/1999/xlink" x="0px" y="0px"
	 viewBox="0 0 100 100" enable-background="new 0 0 100 100" xml:space="preserve">
<path opacity="0.2" fill="#9F9E9F" d="M67.76,61.74c-2.54,5.12-6.01,9.96-10.75,13.85c-1.94,1.59-4.1,3.03-6.48,4.26
	c-23.3-12.01-24.19-43.36-23.98-51.92c0.02-1.02,1.01-1.74,1.98-1.45c6.32,1.94,20.57,2.55,21.9,2.6c0.06,0.01,0.1,0.01,0.1,0.01
	s8.98-0.34,16.18-1.41c2.21-0.33,4.26-0.73,5.81-1.2c0.98-0.29,1.94,0.42,1.98,1.45C74.64,33.46,74.31,48.54,67.76,61.74z"/>
</svg>
