<?xml version="1.0" encoding="utf-8"?>
<!-- Generator: Adobe Illustrator 25.0.1, SVG Export Plug-In . SVG Version: 6.00 Build 0)  -->
<svg version="1.1" id="Layer_1" xmlns="http://www.w3.org/2000/svg" xmlns:xlink="http://www.w3.org/1999/xlink" x="0px" y="0px"
	 viewBox="0 0 100 100" enable-background="new 0 0 100 100" xml:space="preserve">
<path fill="#86694A" d="M46.41,99.18l-43.9-24.7c-0.9-0.5-1.4-1.1-1.5-1.8c-0.1-0.8,0.4-1.7,1.5-2.3l43.9-24.7c2-1.1,5.2-1.1,7.2,0
	l43.9,24.7c2,1.1,2,2.9,0,4.1l-43.9,24.7C51.61,100.28,48.41,100.28,46.41,99.18z"/>
<polygon fill="#86694A" points="1.01,68.18 99.01,67.88 99.01,72.38 1.01,72.68 "/>
<path fill="#3B2E19" d="M46.41,94.58l-43.9-24.7c-2-1.1-2-2.9,0-4.1l43.9-24.7c2-1.1,5.2-1.1,7.2,0l43.9,24.7c2,1.1,2,2.9,0,4.1
	l-43.9,24.7C51.61,95.78,48.41,95.78,46.41,94.58z"/>
<path fill="#2D2213" d="M46.87,90.99l-38.5-21.7c-1.8-1-1.8-2.6,0-3.6l38.5-21.7c1.8-1,4.6-1,6.4,0l38.5,21.7c1.8,1,1.8,2.6,0,3.6
	l-38.5,21.7C51.57,91.89,48.67,91.89,46.87,90.99z"/>
<path fill="#3D3E3D" d="M47.32,87.67L14.25,69.03c-1.55-0.86-1.55-2.23,0-3.09l33.07-18.64c1.55-0.86,3.95-0.86,5.5,0l33.07,18.64
	c1.55,0.86,1.55,2.23,0,3.09L52.81,87.67C51.35,88.44,48.86,88.44,47.32,87.67z"/>
<path fill="#2D2213" d="M48.8,79.28L27.6,67.33c-0.99-0.55-0.99-1.43,0-1.98L48.8,53.4c0.99-0.55,2.53-0.55,3.52,0l21.2,11.95
	c0.99,0.55,0.99,1.43,0,1.98l-21.2,11.95C51.39,79.78,49.79,79.78,48.8,79.28z"/>
<g>
	<path fill="#646362" d="M49.66,47.82c1.09-0.04,2.2,0.19,3.06,0.66l30.31,17.08l0.2-0.12c0.49-0.28,0.82-0.62,0.97-0.97
		c0.3-0.67-0.03-1.39-0.97-1.91L52.49,45.24c-0.77-0.43-1.78-0.63-2.76-0.59L49.66,47.82z"/>
	<path fill="#4D4D4D" d="M16.64,62.57l30.74-17.33c0.66-0.37,1.5-0.56,2.35-0.59l-0.07,3.16c-0.95,0.02-1.9,0.24-2.65,0.66
		L16.77,65.51l-0.13-0.07c-0.49-0.28-0.82-0.62-0.97-0.97C15.38,63.8,15.71,63.08,16.64,62.57z"/>
	<path fill="#4D4D4D" d="M49.91,85.61h0.07c1.01-0.01,2.03-0.22,2.82-0.61l33.91-19.11l0.49-0.28c0.81-0.45,1.21-1.03,1.21-1.61
		v3.77c0,0.58-0.41,1.16-1.21,1.61L52.8,88.77c-0.81,0.4-1.86,0.61-2.91,0.61L49.91,85.61z"/>
	<path fill="#646362" d="M49.91,85.61l-0.02,3.77c-1.03,0-2.05-0.21-2.81-0.61l-13.52-7.62v-3.77L47.08,85
		C47.84,85.4,48.86,85.61,49.91,85.61z"/>
	<path fill="#646362" d="M11.48,67.46v-3.48l4.2,2.42l-0.03,0.88l11.28,6.38l0,0l-0.09,3.72l-14.16-8c-0.94-0.52-1.33-1.23-1.17-1.9
		l-0.04-0.02C11.47,67.46,11.48,67.46,11.48,67.46z"/>
	<path fill="#817E7B" d="M12.67,65.61l0.49,0.28l13.76,7.76l1.97-1.29l-12.25-6.92c-0.49-0.28-0.82-0.62-0.97-0.97
		c-0.3-0.67,0.03-1.39,0.97-1.91l30.74-17.33c1.44-0.8,3.67-0.8,5.11,0l30.74,17.33c0.93,0.52,1.26,1.24,0.97,1.91
		c-0.15,0.35-0.48,0.69-0.97,0.97L52.49,82.77c-1.44,0.71-3.75,0.71-5.11,0l-11.62-6.55l-2.2,1.16L47.08,85
		c0.78,0.41,1.84,0.62,2.9,0.61c1.01-0.01,2.03-0.22,2.82-0.61l33.91-19.11l0.49-0.28c0.81-0.45,1.21-1.03,1.21-1.61v-0.04
		c-0.02-0.57-0.42-1.13-1.21-1.57L52.8,43c-1.61-0.89-4.11-0.89-5.72,0l-34.4,19.39C11.07,63.29,11.07,64.72,12.67,65.61z"/>
	<polygon fill="#4D4D4D" points="26.93,73.66 26.84,77.38 28.83,76.16 28.9,72.36 	"/>
</g>
<path fill="#D4D4D4" d="M50.44,46.65v29.96c-0.45,0-0.91-0.08-1.26-0.26l-16.11-9.08c-0.54-0.31-0.69-0.73-0.44-1.11h-0.12V46.65
	H50.44z"/>
<line fill="none" stroke="#563C30" stroke-width="1.0569" stroke-linecap="round" stroke-miterlimit="10" x1="37.64" y1="49.35" x2="37.64" y2="69.37"/>
<path fill="#B8B7B7" d="M68.52,66.16h-0.12c0.24,0.38,0.11,0.81-0.44,1.11l-16.11,9.08c-0.38,0.2-0.9,0.29-1.42,0.26V46.65h18.08
	V66.16z"/>
<polyline fill="none" stroke="#563C30" stroke-width="0.8404" stroke-linecap="round" stroke-miterlimit="10" points="32.88,52.49 
	50.48,62.31 68.29,52.49 "/>
<polyline fill="none" stroke="#563C30" stroke-width="0.8404" stroke-linecap="round" stroke-miterlimit="10" points="32.88,54.44 
	50.48,64.27 68.29,54.45 "/>
<polyline fill="none" stroke="#563C30" stroke-width="0.8404" stroke-linecap="round" stroke-miterlimit="10" points="32.88,64.98 
	50.48,74.81 68.29,64.98 "/>
<line fill="none" stroke="#A15C26" stroke-width="2.1139" stroke-miterlimit="10" x1="68.53" y1="46.98" x2="68.53" y2="67"/>
<line fill="none" stroke="#A15C26" stroke-width="2.1139" stroke-miterlimit="10" x1="32.78" y1="46.98" x2="32.78" y2="67"/>
<line fill="none" stroke="#563C30" stroke-width="1.0569" stroke-linecap="round" stroke-miterlimit="10" x1="43.85" y1="52.99" x2="43.85" y2="73.01"/>
<line fill="none" stroke="#563C30" stroke-width="1.0569" stroke-linecap="round" stroke-miterlimit="10" x1="63.43" y1="49.35" x2="63.43" y2="69.37"/>
<line fill="none" stroke="#563C30" stroke-width="1.0569" stroke-linecap="round" stroke-miterlimit="10" x1="57.23" y1="52.99" x2="57.23" y2="73.01"/>
<line fill="none" stroke="#A15C26" stroke-width="3" stroke-miterlimit="10" x1="50.46" y1="56.15" x2="50.46" y2="76.17"/>
<polyline fill="none" stroke="#563C30" stroke-width="1.0569" stroke-linecap="round" stroke-miterlimit="10" points="31.94,66.47 
	50.5,76.77 69.36,66.32 "/>
<path fill="#888677" d="M50.46,35.03v23.25c-0.53,0-1.07-0.11-1.47-0.32L30.49,47.54c-0.49-0.28-0.69-0.64-0.63-0.99h-0.01v-1.89
	h2.67l16.46-9.27C49.39,35.15,49.93,35.03,50.46,35.03z"/>
<path fill="#427FA9" d="M50.46,32.99v23.25c-0.53,0-1.07-0.1-1.48-0.31L31.02,45.81l-0.53-0.3c-0.14-0.08-0.27-0.17-0.37-0.27
	c-0.15-0.16-0.26-0.35-0.27-0.52c-0.01-0.02-0.01-0.04-0.01-0.07c0-0.21,0.1-0.42,0.29-0.6c0.09-0.1,0.21-0.19,0.35-0.27l0.54-0.3
	l0.71-0.41c3.62-0.93,7.86-3.69,11.38-6.4l5.85-3.31C49.39,33.13,49.93,33,50.46,32.99z"/>
<path fill="#727067" d="M71.19,44.66v1.89h-0.02c0.07,0.35-0.13,0.72-0.63,0.99L52.05,57.96c-0.43,0.22-1.02,0.33-1.6,0.32V35.03
	c0.57-0.01,1.15,0.11,1.6,0.36l16.45,9.27H71.19z"/>
<path fill="#37729C" d="M71.19,44.65c0,0.02,0,0.04-0.01,0.07c-0.01,0.18-0.1,0.36-0.27,0.52c-0.09,0.1-0.21,0.19-0.36,0.27
	l-0.54,0.3L52.05,55.93c-0.43,0.22-1.02,0.32-1.6,0.31V32.99c0.01,0,0.01,0,0.01,0h0.05c0.54,0,1.1,0.13,1.53,0.36l5.69,3.21
	c0,0,0,0,0.01,0.01c3.57,2.77,7.88,5.6,11.56,6.52c0,0,0,0,0.01,0l0.02,0.01l1.2,0.67C70.98,44.02,71.19,44.34,71.19,44.65z"/>
<polyline fill="none" stroke="#563C30" stroke-width="1.0086" stroke-linecap="round" stroke-miterlimit="10" points="29.34,44.72 
	50.46,56.52 71.83,44.73 "/>
<path fill="#BA6A28" d="M50.52,30.23v3.29c-0.01,0.01-0.02,0.02-0.02,0.03c-0.25,0.24-0.48,0.48-0.73,0.73
	c-0.89,0.88-1.79,1.7-2.68,2.46c-4.5,3.83-9.09,6.23-13.11,7.32c-0.99,0.26-1.95,0.45-2.85,0.56c-0.14,0.01-0.28,0.03-0.41,0.04
	c-0.29,0.03-0.57,0.05-0.86,0.06c0,0,0,0-0.01,0c-2.82,0.11-5.14-0.6-6.62-2.07c-3.01-3.01,3.28-5.6,3.28-3.67
	c0,1.16-0.65,1.11-1.16,0.89c-0.48-0.2-1.03-0.01-1.27,0.45c-0.53,1.01-0.51,2.65,4.81,3.06c0.85,0.06,1.77-0.04,2.72-0.27
	c0.05-0.01,0.09-0.02,0.13-0.03c3.62-0.93,7.86-3.69,11.38-6.4c0.55-0.42,1.08-0.85,1.59-1.27c1.35-1.1,2.55-2.15,3.5-3.02
	c1.23-1.1,2.06-1.91,2.26-2.11c0.01-0.01,0.02-0.02,0.03-0.02C50.51,30.24,50.52,30.23,50.52,30.23z"/>
<path fill="#A35826" d="M77.76,42.65c-1.46,1.46-3.76,2.17-6.58,2.07c-0.01,0-0.01,0-0.01,0c-0.3-0.01-0.61-0.03-0.91-0.06
	c-0.12-0.01-0.23-0.02-0.35-0.04c-0.93-0.11-1.9-0.29-2.9-0.56c-4.01-1.08-8.59-3.48-13.09-7.3c-0.91-0.77-1.82-1.6-2.71-2.49
	c-0.23-0.23-0.47-0.47-0.71-0.72l-0.03-0.03v-3.29c0,0,0.01,0.01,0.03,0.03c0.01,0.01,0.01,0.01,0.02,0.02
	c0.2,0.19,0.97,0.95,2.14,2.01c0.01,0.01,0.02,0.02,0.03,0.02c0.96,0.89,2.2,1.97,3.6,3.11c0.46,0.38,0.95,0.77,1.45,1.16
	c0,0,0,0,0.01,0.01c3.57,2.76,7.88,5.6,11.56,6.52c0,0,0,0,0.01,0c0.98,0.24,1.91,0.34,2.77,0.28c5.33-0.4,5.36-2.05,4.82-3.06
	c-0.24-0.46-0.8-0.66-1.27-0.45c-0.52,0.22-1.17,0.27-1.17-0.89C74.48,37.05,80.76,39.65,77.76,42.65z"/>
<path fill="#BA6A28" d="M52.35,59.42c-0.84-2.96-0.77-26.42-0.77-26.42h-1.1h-1.1c0,0,0.06,23.46-0.77,26.42
	c-0.84,2.96,1.88,2.9,1.88,2.9S53.18,62.38,52.35,59.42z"/>
<path fill="none" stroke="#563C30" stroke-width="1.0086" stroke-linecap="round" stroke-miterlimit="10" d="M35.02,47.64
	c11.96-7.13,15.47-17.82,15.47-17.82s-2.79,15.17-8.5,21.75"/>
<path fill="none" stroke="#563C30" stroke-width="1.0086" stroke-linecap="round" stroke-miterlimit="10" d="M65.92,47.64
	c-11.96-7.13-15.47-17.82-15.47-17.82s2.79,15.17,8.5,21.75"/>
<path fill="#D4D4D4" d="M50.46,26.67v20.88c-0.32,0-0.63-0.06-0.88-0.18l-11.22-6.33c-0.38-0.21-0.48-0.51-0.31-0.77h-0.08V26.67
	H50.46z"/>
<line fill="none" stroke="#563C30" stroke-width="0.7364" stroke-linecap="round" stroke-miterlimit="10" x1="41.54" y1="28.55" x2="41.54" y2="42.5"/>
<path fill="#B8B7B7" d="M63.05,40.26h-0.08c0.17,0.27,0.07,0.57-0.31,0.77l-11.22,6.33c-0.27,0.14-0.63,0.2-0.99,0.18V26.67h12.6
	V40.26z"/>
<polyline fill="none" stroke="#563C30" stroke-width="0.7364" stroke-linecap="round" stroke-miterlimit="10" points="38.25,35.03 
	50.51,41.88 62.92,35.03 "/>
<line fill="none" stroke="#A15C26" stroke-width="1.4727" stroke-miterlimit="10" x1="38.15" y1="26.89" x2="38.15" y2="40.84"/>
<line fill="none" stroke="#A15C26" stroke-width="1.4727" stroke-miterlimit="10" x1="63.06" y1="26.89" x2="63.06" y2="40.84"/>
<line fill="none" stroke="#563C30" stroke-width="0.7364" stroke-linecap="round" stroke-miterlimit="10" x1="45.86" y1="31.08" x2="45.86" y2="45.03"/>
<line fill="none" stroke="#563C30" stroke-width="0.7364" stroke-linecap="round" stroke-miterlimit="10" x1="59.51" y1="28.55" x2="59.51" y2="42.5"/>
<line fill="none" stroke="#563C30" stroke-width="0.7364" stroke-linecap="round" stroke-miterlimit="10" x1="55.19" y1="31.08" x2="55.19" y2="45.03"/>
<line fill="none" stroke="#A15C26" stroke-width="2" stroke-miterlimit="10" x1="50.47" y1="33.29" x2="50.47" y2="47.24"/>
<polyline fill="none" stroke="#BA6A28" stroke-width="1.4727" stroke-linecap="round" stroke-miterlimit="10" points="37.57,40.48 
	50.5,47.65 63.64,40.37 "/>
<path fill="#888677" d="M50.47,20.02v17.2c-0.39,0-0.79-0.08-1.09-0.23l-13.68-7.71c-0.37-0.21-0.51-0.47-0.46-0.74h-0.01v-1.39
	h1.98l12.18-6.86C49.68,20.11,50.07,20.02,50.47,20.02z"/>
<path fill="#427FA9" d="M50.47,18.51v17.2c-0.39,0-0.79-0.08-1.1-0.23L36.09,28l-0.39-0.22c-0.1-0.06-0.2-0.13-0.27-0.2
	c-0.11-0.12-0.19-0.26-0.2-0.39c-0.01-0.02-0.01-0.03-0.01-0.05c0-0.15,0.08-0.31,0.22-0.45c0.07-0.07,0.16-0.14,0.26-0.2l0.4-0.22
	l0.52-0.3c2.68-0.69,5.81-2.73,8.42-4.74l4.33-2.45C49.68,18.61,50.08,18.52,50.47,18.51z"/>
<path fill="#727067" d="M65.81,27.14v1.39h-0.02c0.05,0.26-0.1,0.53-0.46,0.74l-13.68,7.71c-0.32,0.16-0.75,0.25-1.18,0.23v-17.2
	c0.43-0.01,0.85,0.08,1.18,0.27l12.17,6.86H65.81z"/>
<path fill="#37729C" d="M65.81,27.14c0,0.02,0,0.03-0.01,0.05c-0.01,0.13-0.07,0.27-0.2,0.39c-0.07,0.08-0.16,0.14-0.27,0.2
	L64.93,28l-13.28,7.49c-0.32,0.16-0.75,0.24-1.18,0.23v-17.2c0.01,0,0.01,0,0.01,0h0.04c0.4,0,0.81,0.09,1.13,0.27l4.21,2.38
	c0,0,0,0,0.01,0.01c2.64,2.05,5.83,4.15,8.56,4.82c0,0,0,0,0.01,0l0.02,0.01l0.89,0.5C65.65,26.67,65.81,26.91,65.81,27.14z"/>
<polyline fill="none" stroke="#563C30" stroke-width="0.7464" stroke-linecap="round" stroke-miterlimit="10" points="34.84,27.19 
	50.47,35.92 66.28,27.19 "/>
<path fill="#BA6A28" d="M50.51,16.46v2.43c-0.01,0.01-0.01,0.01-0.01,0.02c-0.19,0.18-0.36,0.36-0.54,0.54
	c-0.66,0.65-1.32,1.26-1.99,1.82c-3.33,2.84-6.72,4.61-9.7,5.42c-0.73,0.19-1.44,0.34-2.11,0.42c-0.1,0.01-0.21,0.02-0.31,0.03
	c-0.22,0.02-0.43,0.04-0.63,0.04c0,0,0,0-0.01,0c-2.09,0.08-3.81-0.44-4.9-1.53c-2.22-2.22,2.43-4.14,2.43-2.72
	c0,0.86-0.48,0.82-0.86,0.66c-0.36-0.15-0.76-0.01-0.94,0.34c-0.4,0.75-0.38,1.96,3.56,2.26c0.63,0.04,1.31-0.03,2.02-0.2
	c0.04-0.01,0.07-0.01,0.1-0.02c2.68-0.69,5.81-2.73,8.42-4.74c0.41-0.31,0.8-0.63,1.18-0.94c1-0.81,1.89-1.59,2.59-2.23
	c0.91-0.81,1.52-1.41,1.67-1.56c0.01-0.01,0.01-0.01,0.02-0.01C50.51,16.47,50.51,16.46,50.51,16.46z"/>
<path fill="#A35826" d="M70.67,25.66c-1.08,1.08-2.78,1.6-4.87,1.53c-0.01,0-0.01,0-0.01,0c-0.22-0.01-0.45-0.02-0.67-0.04
	c-0.09-0.01-0.17-0.01-0.26-0.03c-0.69-0.08-1.4-0.22-2.15-0.42c-2.97-0.8-6.36-2.57-9.69-5.4c-0.67-0.57-1.34-1.19-2.01-1.84
	c-0.17-0.17-0.35-0.35-0.52-0.53l-0.02-0.02v-2.43c0,0,0.01,0.01,0.02,0.02c0.01,0.01,0.01,0.01,0.01,0.01
	c0.15,0.14,0.72,0.7,1.58,1.49C52.1,17.99,52.11,18,52.12,18c0.71,0.66,1.63,1.46,2.66,2.3c0.34,0.28,0.7,0.57,1.07,0.86
	c0,0,0,0,0.01,0.01c2.64,2.05,5.83,4.14,8.55,4.82c0,0,0,0,0.01,0c0.72,0.18,1.41,0.25,2.05,0.21c3.94-0.3,3.96-1.52,3.57-2.26
	c-0.18-0.34-0.59-0.49-0.94-0.34c-0.39,0.16-0.87,0.2-0.87-0.66C68.24,21.52,72.89,23.44,70.67,25.66z"/>
<path fill="#BA6A28" d="M51.86,38.07c-0.62-2.19-0.57-19.55-0.57-19.55h-0.82h-0.82c0,0,0.05,17.36-0.57,19.55
	c-0.62,2.19,1.39,2.14,1.39,2.14S52.48,40.26,51.86,38.07z"/>
<path fill="none" stroke="#563C30" stroke-width="0.7464" stroke-linecap="round" stroke-miterlimit="10" d="M39.04,29.35
	c8.85-5.28,11.45-13.19,11.45-13.19s-2.06,11.23-6.29,16.09"/>
<path fill="none" stroke="#563C30" stroke-width="0.7464" stroke-linecap="round" stroke-miterlimit="10" d="M61.91,29.35
	c-8.85-5.28-11.45-13.19-11.45-13.19s2.06,11.23,6.29,16.09"/>
<path fill="#D4D4D4" d="M50.47,13.83v15.45c-0.23,0-0.47-0.04-0.65-0.14l-8.3-4.68c-0.28-0.16-0.35-0.38-0.23-0.57h-0.06V13.83
	H50.47z"/>
<line fill="none" stroke="#563C30" stroke-width="0.5449" stroke-linecap="round" stroke-miterlimit="10" x1="43.87" y1="15.22" x2="43.87" y2="25.54"/>
<path fill="#B8B7B7" d="M59.79,23.89h-0.06c0.13,0.2,0.05,0.42-0.23,0.57l-8.3,4.68c-0.2,0.1-0.46,0.15-0.73,0.14V13.83h9.32V23.89z
	"/>
<polyline fill="none" stroke="#563C30" stroke-width="0.5449" stroke-linecap="round" stroke-miterlimit="10" points="41.66,19.08 
	50.53,24.03 59.51,19.08 "/>
<line fill="none" stroke="#A15C26" stroke-width="1.0898" stroke-miterlimit="10" x1="41.36" y1="14" x2="41.36" y2="24.32"/>
<line fill="none" stroke="#A15C26" stroke-width="1.0898" stroke-miterlimit="10" x1="59.79" y1="14" x2="59.79" y2="24.32"/>
<line fill="none" stroke="#563C30" stroke-width="0.5449" stroke-linecap="round" stroke-miterlimit="10" x1="47.07" y1="17.1" x2="47.07" y2="27.42"/>
<line fill="none" stroke="#563C30" stroke-width="0.5449" stroke-linecap="round" stroke-miterlimit="10" x1="57.17" y1="15.22" x2="57.17" y2="25.54"/>
<line fill="none" stroke="#563C30" stroke-width="0.5449" stroke-linecap="round" stroke-miterlimit="10" x1="53.97" y1="17.1" x2="53.97" y2="27.42"/>
<line fill="none" stroke="#A15C26" stroke-width="1.0898" stroke-miterlimit="10" x1="50.48" y1="18.73" x2="50.48" y2="29.05"/>
<path fill="#888677" d="M50.47,6.6v12.55c-0.28-0.01-0.57-0.06-0.79-0.17l-9.99-5.63c-0.24-0.14-0.35-0.31-0.34-0.48V11.8h1.44
	l8.89-5.01C49.9,6.67,50.18,6.61,50.47,6.6z"/>
<path fill="#427FA9" d="M50.47,5.5v12.57c-0.28-0.01-0.57-0.07-0.79-0.17l-9.7-5.47l-0.29-0.16c-0.08-0.04-0.14-0.09-0.2-0.15
	c-0.09-0.09-0.14-0.19-0.15-0.28c-0.01-0.01-0.01-0.02-0.01-0.03c0-0.11,0.05-0.23,0.16-0.33c0.05-0.05,0.11-0.1,0.19-0.15
	l0.29-0.16l0.38-0.22c1.96-0.5,4.24-1.99,6.15-3.46l3.17-1.79C49.9,5.57,50.18,5.51,50.47,5.5z"/>
<path fill="#727067" d="M61.67,11.8v1.07c0.01,0.17-0.11,0.35-0.35,0.48l-9.99,5.63c-0.23,0.12-0.55,0.18-0.87,0.17V6.6
	c0.31-0.01,0.63,0.06,0.87,0.2l8.89,5.01H61.67z"/>
<path fill="#37729C" d="M61.67,11.8c0,0.01,0,0.02-0.01,0.03c-0.01,0.1-0.05,0.2-0.15,0.28c-0.05,0.05-0.11,0.1-0.2,0.15l-0.29,0.16
	l-9.7,5.47c-0.23,0.12-0.55,0.18-0.87,0.17V5.5h0.04c0.29,0,0.59,0.07,0.83,0.2l3.07,1.73c0,0,0,0,0.01,0.01
	c1.93,1.49,4.26,3.02,6.24,3.52c0,0,0,0,0.01,0l0.01,0.01l0.65,0.37C61.56,11.46,61.67,11.63,61.67,11.8z"/>
<polyline fill="none" stroke="#563C30" stroke-width="0.5449" stroke-linecap="round" stroke-miterlimit="10" points="39.06,11.84 
	50.48,18.21 62.02,11.84 "/>
<path fill="#BA6A28" d="M50.51,4.01v1.78C50.5,5.79,50.5,5.79,50.5,5.8c-0.14,0.13-0.26,0.26-0.39,0.39
	c-0.48,0.47-0.96,0.92-1.45,1.33c-2.43,2.07-4.91,3.37-7.08,3.96c-0.53,0.14-1.05,0.25-1.54,0.31c-0.08,0.01-0.15,0.02-0.22,0.02
	c-0.16,0.02-0.31,0.03-0.46,0.03c0,0,0,0-0.01,0c-1.53,0.06-2.78-0.32-3.57-1.12c-1.62-1.62,1.77-3.02,1.77-1.98
	c0,0.63-0.35,0.6-0.63,0.48c-0.26-0.11-0.56-0.01-0.69,0.25c-0.29,0.54-0.28,1.43,2.6,1.65c0.46,0.03,0.95-0.02,1.47-0.15
	c0.03-0.01,0.05-0.01,0.07-0.02c1.96-0.5,4.24-1.99,6.15-3.46c0.3-0.23,0.58-0.46,0.86-0.69c0.73-0.59,1.38-1.16,1.89-1.63
	c0.66-0.59,1.11-1.03,1.22-1.14c0.01-0.01,0.01-0.01,0.02-0.01C50.5,4.01,50.51,4.01,50.51,4.01z"/>
<path fill="#A35826" d="M65.23,10.72c-0.79,0.79-2.03,1.17-3.55,1.12c-0.01,0-0.01,0-0.01,0c-0.16-0.01-0.33-0.02-0.49-0.03
	c-0.07-0.01-0.13-0.01-0.19-0.02c-0.5-0.06-1.02-0.16-1.57-0.31c-2.17-0.58-4.64-1.88-7.07-3.95c-0.49-0.41-0.98-0.87-1.47-1.35
	c-0.13-0.13-0.26-0.26-0.38-0.39l-0.02-0.02V4.01c0,0,0.01,0.01,0.02,0.02c0.01,0.01,0.01,0.01,0.01,0.01
	c0.11,0.1,0.52,0.51,1.16,1.08c0.01,0.01,0.01,0.01,0.02,0.01c0.52,0.48,1.19,1.06,1.95,1.68c0.25,0.21,0.51,0.41,0.78,0.63
	c0,0,0,0,0.01,0.01c1.93,1.49,4.26,3.02,6.24,3.52c0,0,0,0,0.01,0c0.53,0.13,1.03,0.19,1.5,0.15c2.88-0.22,2.89-1.11,2.6-1.65
	c-0.13-0.25-0.43-0.35-0.69-0.25c-0.28,0.12-0.63,0.15-0.63-0.48C63.45,7.69,66.85,9.09,65.23,10.72z"/>
<path fill="#BA6A28" d="M51.49,19.78c-0.45-1.6-0.42-14.27-0.42-14.27h-0.6h-0.6c0,0,0.03,12.67-0.42,14.27
	c-0.45,1.6,1.01,1.57,1.01,1.57S51.95,21.38,51.49,19.78z"/>
<path fill="none" stroke="#563C30" stroke-width="0.5449" stroke-linecap="round" stroke-miterlimit="10" d="M42.13,13.41
	c6.46-3.85,8.36-9.63,8.36-9.63s-1.51,8.2-4.59,11.75"/>
<path fill="none" stroke="#563C30" stroke-width="0.5449" stroke-linecap="round" stroke-miterlimit="10" d="M58.83,13.41
	c-6.46-3.85-8.36-9.63-8.36-9.63s1.51,8.2,4.59,11.75"/>
<path fill="#D87A27" d="M53.63,6.67l-1.28,1.28l-1.01,1c-0.44,0.41-1.19,0.41-1.66,0l-1.02-1.02l-1.29-1.27
	c0.73-1.05,1.38-2.04,1.89-2.87c0.66-1.05,1.11-1.81,1.22-2V1.75c0,0,0.01,0.01,0.02,0.03c0.01-0.02,0.01-0.03,0.01-0.03v0.05
	c0.11,0.18,0.52,0.9,1.16,1.91c0.01,0.01,0.01,0.02,0.02,0.02C52.2,4.56,52.87,5.59,53.63,6.67z"/>
<circle fill="#C39C56" cx="50.47" cy="1.75" r="1.04"/>
<polyline fill="none" stroke="#BA6A28" stroke-width="1.0898" stroke-linecap="round" stroke-miterlimit="10" points="40.93,24.05 
	50.5,29.36 60.22,23.97 "/>
<path fill="#2C2014" d="M39.21,69.92v-4.28c0-0.51,0.5-0.82,0.94-0.57l1.26,0.7c0.44,0.25,0.75,0.75,0.75,1.25v4.53L39.21,69.92z"/>
<path fill="#575757" d="M77.37,63.71l-1.78,0.97l-2.48-1.4l1.78-0.97L77.37,63.71z"/>
<path fill="#575757" d="M45.74,79.03l-1.78,0.97l-2.48-1.4l1.78-0.97L45.74,79.03z"/>
<path fill="#575757" d="M63.77,76.2l-1.78,0.97l-2.48-1.4l1.78-0.97L63.77,76.2z"/>
<path fill="#575757" d="M33.6,76.99l-1.78,0.97l-2.48-1.4l1.78-0.97L33.6,76.99z"/>
<path fill="#575757" d="M34.79,73.82L33,74.8l-2.48-1.4l1.78-0.97L34.79,73.82z"/>
<path fill="#575757" d="M24.92,66.73l-1.78,0.97l-2.48-1.4l1.78-0.97L24.92,66.73z"/>
<path fill="#575757" d="M31.47,60.92l-1.78,0.97l-2.48-1.4l1.78-0.97L31.47,60.92z"/>
<path fill="#575757" d="M79.5,66.73l-1.78,0.97l-2.48-1.4l1.78-0.97L79.5,66.73z"/>
</svg>
