<?xml version="1.0" encoding="utf-8"?>
<!-- Generator: Adobe Illustrator 25.0.1, SVG Export Plug-In . SVG Version: 6.00 Build 0)  -->
<svg version="1.1" id="Layer_1" xmlns="http://www.w3.org/2000/svg" xmlns:xlink="http://www.w3.org/1999/xlink" x="0px" y="0px"
	 viewBox="0 0 100 100" enable-background="new 0 0 100 100" xml:space="preserve">
<polygon fill="#613D5F" points="30.54,77.36 25.94,72.75 63.98,27.27 68.85,31.98 "/>
<path fill="#613D5F" d="M29.92,26.67v49.16c0,1.23,1,2.23,2.23,2.23h40.19c1.23,0,2.23-1,2.23-2.23V26.67c0-1.23-1-2.23-2.23-2.23
	H32.15C30.92,24.44,29.92,25.44,29.92,26.67z"/>
<g>
	<path fill="#E2C4A6" d="M27.46,24.4v45.09c0,1.13,0.92,2.05,2.05,2.05h36.87c1.13,0,2.05-0.92,2.05-2.05V24.4
		c0-1.13-0.92-2.05-2.05-2.05H29.51C28.38,22.35,27.46,23.27,27.46,24.4z"/>
	<path fill="#E2C4A6" d="M31.58,28.52v45.09c0,1.13,0.92,2.05,2.05,2.05H70.5c1.13,0,2.05-0.92,2.05-2.05V28.52
		c0-1.13-0.92-2.05-2.05-2.05H33.63C32.5,26.47,31.58,27.39,31.58,28.52z"/>
	<polygon fill="#E2C4A6" points="32.25,75.12 28.27,71.11 67.74,22.87 71.9,27.02 	"/>
</g>
<path fill="#613D5F" d="M25.44,22.18v49.16c0,1.23,1,2.23,2.23,2.23h40.19c1.23,0,2.23-1,2.23-2.23V22.18
	c0.01-1.23-0.99-2.23-2.23-2.23H27.66C26.43,19.95,25.44,20.95,25.44,22.18z"/>
<path fill="none" stroke="#BAB8BA" stroke-width="0.6282" stroke-miterlimit="10" d="M28.55,25.15v43.23c0,1.08,0.86,1.96,1.92,1.96
	h34.59c1.06,0,1.92-0.88,1.92-1.96V25.15c0-1.08-0.86-1.96-1.92-1.96H30.46C29.41,23.18,28.55,24.06,28.55,25.15z"/>
<path fill="#434343" d="M30.54,77.36"/>
<polygon fill="#BAB8BA" points="63.4,70.29 59.79,68.48 55.71,70.25 59.54,72.17 "/>
<polygon fill="#BAB8BA" points="28.5,51.25 27.13,55.25 28.5,59.74 29.96,55.49 "/>
<polygon fill="#BAB8BA" points="66.92,31.53 65.56,35.53 66.92,40.03 68.39,35.78 "/>
<polygon fill="#BAB8BA" points="50.44,23.14 46.44,21.77 41.96,23.14 46.2,24.6 "/>
<g>
	<path fill="#C4C4C4" stroke="#C4C4C4" stroke-width="0.6827" stroke-miterlimit="10" d="M50.03,56.2"/>
	<path fill="none" stroke="#9B9B9B" stroke-width="1.4849" stroke-miterlimit="10" d="M47.59,54.24l-6.19,1.47
		c-0.54,0.13-1.08-0.2-1.21-0.75L37.01,41.6"/>
	<path fill="none" stroke="#9B9B9B" stroke-width="1.4849" stroke-miterlimit="10" d="M51.85,53.23l6.19-1.47
		c0.54-0.13,0.88-0.67,0.75-1.21l-1.75-7.39"/>
	<path fill="#C4C4C4" stroke="#C4C4C4" stroke-width="0.6827" stroke-miterlimit="10" d="M53.31,56.68l-6,1.43
		c-0.33,0.08-0.65-0.12-0.73-0.45l-1.43-6c-0.08-0.33,0.12-0.65,0.45-0.73l6-1.43c0.33-0.08,0.65,0.12,0.73,0.45l1.43,6
		C53.83,56.27,53.63,56.6,53.31,56.68z"/>
	<path fill="#C4C4C4" stroke="#C4C4C4" stroke-width="0.6827" stroke-miterlimit="10" d="M60.6,44.84l-6,1.43
		c-0.33,0.08-0.65-0.12-0.73-0.45l-1.43-6c-0.08-0.33,0.12-0.65,0.45-0.73l6-1.43c0.33-0.08,0.65,0.12,0.73,0.45l1.43,6
		C61.13,44.44,60.92,44.77,60.6,44.84z"/>
	<path fill="#C4C4C4" stroke="#C4C4C4" stroke-width="0.6827" stroke-miterlimit="10" d="M41.15,45.67l-6,1.43
		c-0.33,0.08-0.65-0.12-0.73-0.45l-1.43-6c-0.08-0.33,0.12-0.65,0.45-0.73l6-1.43c0.33-0.08,0.65,0.12,0.73,0.45l1.43,6
		C41.67,45.27,41.47,45.59,41.15,45.67z"/>
</g>
</svg>
