<?xml version="1.0" encoding="utf-8"?>
<!-- Generator: Adobe Illustrator 25.0.1, SVG Export Plug-In . SVG Version: 6.00 Build 0)  -->
<svg version="1.1" id="Layer_1" xmlns="http://www.w3.org/2000/svg" xmlns:xlink="http://www.w3.org/1999/xlink" x="0px" y="0px"
	 viewBox="0 0 100 100" style="enable-background:new 0 0 100 100;" xml:space="preserve">
<style type="text/css">
	.st0{fill:#3D6E4E;}
	.st1{fill:#528A62;}
	.st2{fill:none;stroke:#ACDAC1;stroke-width:2;stroke-linecap:round;stroke-miterlimit:10;}
</style>
<path class="st0" d="M26.6,73.6c0,0-15.3,0.8-9.2-11.5c12.2-24.9,53.8-48.1,69.1-50.7c0,0,8.6,23.5-48.6,71.3
	C29.9,89.3,26.6,73.6,26.6,73.6z"/>
<g>
	<path class="st1" d="M83.1,14.5C71.4,26.2,59.9,38.1,48.6,50.2c-5.6,6.1-11,12.2-16.4,18.7c-2.7,3.2-5.2,6.4-7.5,9.7
		c-1.2,1.7-2.3,3.4-3.4,5.1c-1,1.7-1.9,3.5-2.4,5.1l0,0c-0.4,1.1-1.5,1.7-2.5,1.5c-1.1-0.4-1.7-1.5-1.5-2.5v-0.1
		c0.7-2.3,1.9-4.1,3-5.9c1.2-1.8,2.4-3.5,3.8-5.2c2.5-3.3,5.3-6.5,8.1-9.6c5.8-6.1,11.5-12.1,17.3-17.9
		C58.9,37.1,70.9,25.7,83.1,14.5z"/>
</g>
<path class="st2" d="M65.7,29c-0.2-1.3-0.1-6.5,0.7-7.6"/>
<path class="st2" d="M63,31.5c0,0-1-5.1,0-8.5"/>
<path class="st2" d="M60,33.9c0,0-1.2-5.1-0.4-9.1"/>
<g>
	<path class="st2" d="M70.7,31.4c1.6,0.2,7.5,0.1,8.7-0.8"/>
	<path class="st2" d="M67.7,34.4c0,0,5.9,1.1,9.7,0"/>
	<path class="st2" d="M65,37.7c0,0,5.9,1.3,10.4,0.4"/>
</g>
<path class="st2" d="M50.5,41.2c-0.6-1.6-1.6-7.6-0.8-9.1"/>
<path class="st2" d="M48,44.7c0,0-2.3-5.8-1.9-9.9"/>
<path class="st2" d="M45.1,48.2c0,0-2.5-5.8-2.5-10.7"/>
<g>
	<path class="st2" d="M58.4,45.5c1.8,0.6,9,1.5,10.7,0.7"/>
	<path class="st2" d="M54.3,48.5c0,0,6.9,2.4,11.8,1.8"/>
	<path class="st2" d="M50.4,52c0,0,6.9,2.7,12.5,2.4"/>
</g>
<path class="st2" d="M35.9,55.6c-0.8-1.8-2.3-9.1-1.6-10.9"/>
<path class="st2" d="M33,60.1c0,0-3.2-6.9-2.9-11.9"/>
<path class="st2" d="M29.7,64.5c0,0-3.4-6.8-3.6-12.6"/>
<g>
	<path class="st2" d="M43.6,61.3c1.9,0.7,9.5,1.8,11.3,1"/>
	<path class="st2" d="M39.3,64.5c0,0,7.3,2.8,12.4,2.3"/>
	<path class="st2" d="M35,68c0,0,7.2,3,13.2,2.9"/>
</g>
</svg>
