<?xml version="1.0" encoding="utf-8"?>
<!-- Generator: Adobe Illustrator 25.0.1, SVG Export Plug-In . SVG Version: 6.00 Build 0)  -->
<svg version="1.1" id="Layer_1" xmlns="http://www.w3.org/2000/svg" xmlns:xlink="http://www.w3.org/1999/xlink" x="0px" y="0px"
	 viewBox="0 0 100 100" style="enable-background:new 0 0 100 100;" xml:space="preserve">
<style type="text/css">
	.st0{fill:#FFFFFF;}
</style>
<g>
	<path class="st0" d="M80.3,18.3c-12.6,2.1-46.9,21.3-57,41.8c-3.6,7.4,2,9.1,5.4,9.4c-0.7,0.8-1.3,1.6-1.9,2.4
		c-1.1,1.4-2.1,2.8-3.1,4.3c-0.9,1.5-1.9,3-2.5,4.9v0.1c-0.2,0.9,0.3,1.8,1.2,2.1c0.1,0,0.3,0,0.4,0c0.8,0,1.4-0.5,1.7-1.2
		c0.4-1.3,1.2-2.8,2-4.2c0.9-1.4,1.8-2.8,2.8-4.2c0.6-0.9,1.3-1.8,2-2.7c0.9,3.2,3.7,10.4,8.9,6.1C87.4,37.7,80.3,18.3,80.3,18.3z
		 M63.4,26.3c0.1-0.1,0.3-0.2,0.5-0.1c0.1,0.1,0.2,0.3,0.1,0.5c-0.6,0.8-0.8,4.8-0.5,6c0,0.2-0.1,0.4-0.3,0.4c0,0,0,0-0.1,0
		c-0.2,0-0.3-0.1-0.3-0.3C62.6,31.8,62.6,27.3,63.4,26.3z M60.6,27.8c0-0.2,0.2-0.3,0.4-0.2c0.2,0,0.3,0.2,0.2,0.4
		c-0.8,2.7,0,6.8,0,6.9c0,0.2-0.1,0.4-0.3,0.4c0,0,0,0-0.1,0c-0.2,0-0.3-0.1-0.3-0.3C60.5,34.8,59.8,30.7,60.6,27.8z M57.8,29.3
		c0-0.2,0.2-0.3,0.4-0.3c0.2,0,0.3,0.2,0.3,0.4c-0.7,3.2,0.3,7.3,0.3,7.4c0,0.2-0.1,0.4-0.2,0.4c0,0,0,0-0.1,0
		c-0.2,0-0.3-0.1-0.3-0.3C58,36.8,57.1,32.7,57.8,29.3z M49.6,35.2c0.1-0.2,0.3-0.2,0.5-0.2c0.2,0.1,0.2,0.3,0.2,0.5
		c-0.5,1,0.2,5.9,0.7,7.2c0.1,0.2,0,0.4-0.2,0.4c0,0-0.1,0-0.1,0c-0.1,0-0.3-0.1-0.3-0.2C49.8,41.8,48.9,36.6,49.6,35.2z M46.6,37.6
		c0-0.2,0.2-0.3,0.4-0.3c0.2,0,0.3,0.2,0.3,0.4c-0.3,3.3,1.5,8,1.6,8c0.1,0.2,0,0.4-0.2,0.4c0,0-0.1,0-0.1,0c-0.1,0-0.3-0.1-0.3-0.2
		C48.1,45.7,46.3,41,46.6,37.6z M44,39.6c0.2,0,0.3,0.2,0.3,0.3c0,3.9,2,8.6,2.1,8.7c0.1,0.2,0,0.4-0.2,0.5c0,0-0.1,0-0.1,0
		c-0.1,0-0.2-0.1-0.3-0.2c-0.1-0.2-2.1-4.9-2.1-8.9C43.7,39.7,43.8,39.6,44,39.6z M33.5,62.4c0,0-0.1,0-0.1,0
		c-0.1,0-0.2-0.1-0.3-0.2c-0.1-0.2-2.8-5.7-3-10.5c0-0.2,0.1-0.3,0.3-0.4c0.2,0,0.3,0.1,0.3,0.3c0.2,4.7,2.9,10.2,3,10.3
		C33.8,62.1,33.7,62.3,33.5,62.4z M36.2,58.8c0,0-0.1,0-0.1,0c-0.1,0-0.2-0.1-0.3-0.2c-0.1-0.2-2.6-5.8-2.4-10
		c0-0.2,0.2-0.3,0.4-0.3c0.2,0,0.3,0.2,0.3,0.4c-0.2,4,2.3,9.6,2.4,9.6C36.5,58.5,36.4,58.7,36.2,58.8z M36.9,45.7
		c0.1-0.2,0.3-0.2,0.4-0.2c0.2,0.1,0.2,0.3,0.2,0.4c-0.5,1.4,0.6,7.3,1.3,8.7c0.1,0.2,0,0.4-0.2,0.5c0,0-0.1,0-0.1,0
		c-0.1,0-0.2-0.1-0.3-0.2C37.5,53.5,36.2,47.3,36.9,45.7z M48.7,67.7h-0.3c-4.9,0-10.5-2.3-10.7-2.4c-0.2-0.1-0.2-0.3-0.2-0.4
		s0.3-0.2,0.4-0.2c0.1,0,5.9,2.5,10.8,2.4c0,0,0,0,0,0c0.2,0,0.3,0.2,0.3,0.3C49,67.6,48.9,67.7,48.7,67.7z M51.5,64.3
		c-0.4,0-0.7,0-1.1,0c-4.1,0-9-1.9-9.3-2C41,62.3,40.9,62.2,41,62c0.1-0.2,0.3-0.3,0.4-0.2c0.1,0,6,2.2,10,1.9
		c0.2,0,0.4,0.1,0.4,0.3C51.8,64.2,51.7,64.3,51.5,64.3z M54.3,60.6c-0.4,0.2-1.2,0.3-2.1,0.3c-2.5,0-6.3-0.6-7.5-1.1
		c-0.2-0.1-0.3-0.3-0.2-0.4c0.1-0.2,0.3-0.3,0.4-0.2c1.6,0.6,7.7,1.5,9,0.8c0.2-0.1,0.4,0,0.5,0.2C54.6,60.3,54.5,60.5,54.3,60.6z
		 M60.8,54.1c-0.2,0-0.4,0-0.6,0c-4.5,0-9.6-2-9.8-2c-0.2-0.1-0.3-0.3-0.2-0.4c0.1-0.2,0.3-0.3,0.4-0.2c0.1,0,5.7,2.2,10.2,2
		c0.2,0,0.3,0.1,0.4,0.3C61.1,54,61,54.1,60.8,54.1z M63.4,50.7c-0.5,0.1-0.9,0.1-1.4,0.1c-3.8,0-8.2-1.5-8.4-1.6
		c-0.2-0.1-0.3-0.3-0.2-0.4c0.1-0.2,0.3-0.3,0.4-0.2c0.1,0,5.7,2,9.5,1.5c0.2,0,0.4,0.1,0.4,0.3C63.8,50.5,63.6,50.7,63.4,50.7z
		 M66,47.3c-0.4,0.2-1.2,0.2-2.1,0.2c-2.4,0-5.9-0.5-6.9-0.8c-0.2-0.1-0.3-0.2-0.2-0.4c0.1-0.2,0.2-0.3,0.4-0.2
		c1.5,0.5,7.3,1.2,8.6,0.6c0.2-0.1,0.4,0,0.4,0.2S66.2,47.2,66,47.3z M71.2,40.6c-1,0.2-2.1,0.3-3.2,0.3c-2.8,0-5.4-0.6-5.5-0.6
		c-0.2,0-0.3-0.2-0.3-0.4c0-0.2,0.2-0.3,0.4-0.3c0,0,4.9,1.1,8.5,0.3c0.2,0,0.4,0.1,0.4,0.3S71.3,40.6,71.2,40.6z M72.9,37.6
		c-1.1,0.3-2.3,0.4-3.6,0.4c-2.3,0-4.5-0.4-4.6-0.4c-0.2,0-0.3-0.2-0.3-0.4c0-0.2,0.2-0.3,0.4-0.3c0,0,4.9,0.9,7.9,0
		c0.2-0.1,0.4,0.1,0.4,0.2C73.2,37.4,73.1,37.6,72.9,37.6z M74.6,34.4C73.8,35,71,35.2,69,35.2c-0.8,0-1.5,0-1.8-0.1
		c-0.2,0-0.3-0.2-0.3-0.4c0-0.2,0.2-0.3,0.4-0.3c1.3,0.2,6.1,0.1,6.9-0.6c0.1-0.1,0.4-0.1,0.5,0C74.8,34,74.8,34.2,74.6,34.4z"/>
</g>
</svg>
