<?xml version="1.0" encoding="utf-8"?>
<!-- Generator: Adobe Illustrator 25.0.1, SVG Export Plug-In . SVG Version: 6.00 Build 0)  -->
<svg version="1.1" id="Layer_1" xmlns="http://www.w3.org/2000/svg" xmlns:xlink="http://www.w3.org/1999/xlink" x="0px" y="0px"
	 viewBox="0 0 100 100" style="enable-background:new 0 0 100 100;" xml:space="preserve">
<style type="text/css">
	.st0{fill:#2A4939;}
	.st1{fill:#395F4C;}
	.st2{fill:#CCB68F;}
	.st3{fill:#E5D1AA;}
	.st4{fill:#EFDDBD;}
	.st5{fill:none;stroke:#8C6C57;stroke-width:1.2652;stroke-miterlimit:10;}
	.st6{fill:#8C6C57;}
	.st7{fill:none;stroke:#8C6C57;stroke-width:1.7031;stroke-miterlimit:10;}
</style>
<path class="st0" d="M50.3,30.8v51.9c-3.8,0-7-3-8.2-4H4.7c-0.8,0-1.5-0.6-1.5-1.3l8.4-45c0-0.7,0.7-1.2,1.5-1.2L50.3,30.8z"/>
<path class="st0" d="M50.3,30.8v51.9c3.8,0,7-3,8.2-4H96c0.8,0,1.5-0.6,1.5-1.3l-8.5-45c0-0.7-0.7-1.2-1.5-1.2L50.3,30.8z"/>
<path class="st1" d="M50.3,28.8v49.7c-3.8,0-7-0.7-8.2-1.8H4.7c-0.8,0-1.5-0.6-1.5-1.3l8.4-45c0-0.7,0.7-1.2,1.5-1.2L50.3,28.8z"/>
<path class="st1" d="M50.3,28.8v49.7c3.8,0,7-0.7,8.2-1.8H96c0.8,0,1.5-0.6,1.5-1.3l-8.5-45c0-0.7-0.7-1.2-1.5-1.2L50.3,28.8z"/>
<path class="st2" d="M50.3,29.2c0,0-18.7-6.6-34.4-2.2L9,73.9c0,0,19.3-4.5,41.3,0V29.2z"/>
<ellipse class="st2" cx="50.3" cy="72.7" rx="5.9" ry="2.7"/>
<path class="st3" d="M50.3,28c0,0-5.9-10.8-34.4-3.7L9,71.2c0,0,23-6.1,41.3,0V28z"/>
<path class="st2" d="M50.3,29.2c0,0,18.7-6.6,34.4-2.2l7,46.9c0,0-19.3-4.5-41.3,0V29.2z"/>
<path class="st4" d="M50.3,28c0,0,6.7-9.1,34.4-3.7l7,46.9c0,0-23.9-6.3-41.3,0V28z"/>
<path class="st5" d="M19.9,28.9c0,0,13.2-4.7,24.1,0.8"/>
<path class="st5" d="M19.9,33.4c0,0,13.2-4.7,24.1,0.8"/>
<path class="st5" d="M83.5,53.8c0,0-11.1-3-27.3,0.5"/>
<path class="st5" d="M84.6,57.9c0,0-10.9-2.9-27.8,0.5"/>
<path class="st5" d="M85.3,63c0,0-11.3-2.9-28.8,0.4"/>
<ellipse class="st6" cx="69" cy="41.6" rx="7.8" ry="5.7"/>
<rect x="65.6" y="32.5" transform="matrix(0.9945 -0.1047 0.1047 0.9945 -3.3891 7.3449)" class="st6" width="5.3" height="7"/>
<rect x="63.8" y="28.9" transform="matrix(0.9945 -0.1047 0.1047 0.9945 -2.7751 7.2475)" class="st6" width="7.7" height="2.3"/>
<path class="st7" d="M15.7,64c0,0,14.7-16.8,28.4-22.3"/>
<path class="st7" d="M19.7,59.8c0,0,19.5-1,24.4-18.6C44.1,41.2,20.8,40.7,19.7,59.8z"/>
</svg>
