<?xml version="1.0" encoding="utf-8"?>
<!-- Generator: Adobe Illustrator 25.0.1, SVG Export Plug-In . SVG Version: 6.00 Build 0)  -->
<svg version="1.1" id="Layer_1" xmlns="http://www.w3.org/2000/svg" xmlns:xlink="http://www.w3.org/1999/xlink" x="0px" y="0px"
	 viewBox="0 0 100 100" enable-background="new 0 0 100 100" xml:space="preserve">
<path fill="#86694A" d="M46.42,99.02L2.54,74.33c-0.89-0.5-1.38-1.14-1.48-1.79c-0.13-0.82,0.37-1.66,1.48-2.29l43.88-24.69
	c2-1.13,5.25-1.13,7.25,0l43.88,24.69c2,1.13,2,2.95,0,4.08L53.67,99.02C51.67,100.15,48.42,100.15,46.42,99.02z"/>
<polygon fill="#86694A" points="1.06,68.01 99.05,67.76 99.05,72.29 1.06,72.54 "/>
<path fill="#3B2E19" d="M46.42,94.49L2.54,69.8c-2-1.13-2-2.95,0-4.08l43.88-24.69c2-1.13,5.25-1.13,7.25,0l43.88,24.69
	c2,1.13,2,2.95,0,4.08L53.67,94.49C51.67,95.62,48.42,95.62,46.42,94.49z"/>
<path fill="#53422C" d="M46.87,90.5L8.32,68.81c-1.76-0.99-1.76-2.59,0-3.58l38.55-21.69c1.76-0.99,4.61-0.99,6.37,0l38.55,21.69
	c1.76,0.99,1.76,2.59,0,3.58L53.24,90.5C51.48,91.49,48.63,91.49,46.87,90.5z"/>
<ellipse fill="#392D21" cx="62.31" cy="52.85" rx="1.84" ry="1.11"/>
<ellipse fill="#392D21" cx="52.08" cy="48.13" rx="1.01" ry="0.61"/>
<ellipse fill="#392D21" cx="84.62" cy="69.17" rx="1.01" ry="0.61"/>
<path fill="#515251" d="M82.02,62.89c-2.76-3.12-13.21-6.36-16.99-6.25c-3.39,0.11-10.23-5.83-18.86-5.18
	c-0.99,0.07-2.02,0.23-3.05,0.5c-6.64,1.72-20.55,8.49-25.21,13.52c-1.36,1.46,0.13,3.55,3,5.68c2.76,2.05,6.8,4.16,10.81,5.76
	c11.3,4.53,20.73,2.22,30.36,0.22c1.84-0.38,3.68-0.75,5.54-1.06c5.93-0.98,10.27-3.56,12.74-6.29
	C82.73,67.16,83.37,64.42,82.02,62.89z"/>
<ellipse fill="#392D21" cx="13.16" cy="67.17" rx="1.84" ry="1.11"/>
<ellipse fill="#392D21" cx="42.47" cy="83.09" rx="1.84" ry="1.11"/>
<ellipse fill="#392D21" cx="54.6" cy="81.98" rx="3.06" ry="1.84"/>
<path fill="#303030" d="M78,69.35c-2.22,2.45-6.12,4.77-11.44,5.65c-1.67,0.28-3.32,0.61-4.97,0.95c-1.55-4.46-5.31-9.88-7.51-11.29
	c-2.03-1.3-3.06-7.39-6.76-11.77c7.75-0.58,13.89,4.75,16.93,4.65c3.39-0.1,12.77,2.81,15.25,5.61C80.71,64.53,80.14,66.99,78,69.35
	z"/>
<path fill="#232323" d="M61.59,75.95c-8.64,1.79-17.11,3.87-27.25-0.2c-3.6-1.44-7.22-3.33-9.7-5.17c-2.57-1.91-3.91-3.79-2.69-5.1
	c4.18-4.52,16.67-10.6,22.63-12.14c0.93-0.24,1.85-0.39,2.74-0.45c3.7,4.38,4.73,10.47,6.76,11.77
	C56.28,66.07,60.04,71.49,61.59,75.95z"/>
<path fill="#40403F" d="M78,69.35c-2.22,2.45-6.12,4.77-11.44,5.65c-10.45,1.72-20.15,5.6-32.22,0.75c-3.6-1.44-7.22-3.33-9.7-5.17
	c5.44-4.07,14.97-8.51,19.94-9.79c9.04-2.33,16.28,4.31,19.67,4.2C67.14,64.9,74.39,67,78,69.35z"/>
<path fill="#303030" d="M55.85,73.22c0.05-0.88,0.9-1.6,1.87-1.5c0.97,0.1,1.38,0.31,1.51,0.56c0.08,0.15,0.15,0.3,0.19,0.44
	c0.23,0.66,0.08,1.23-0.21,1.43c-0.35,0.25-1.18-0.2-1.88-0.02c-0.21,0.06-0.43,0.08-0.64,0.05C56.21,74.13,55.82,73.83,55.85,73.22
	z"/>
<path fill="#303030" d="M41.36,66.33c0.67-0.09,1.6,0.87,2.74,1.02c0.85,0.1,1.68,0.52,1.75,1.16c0.02,0.21-0.03,0.44-0.19,0.69
	c-0.63,0.95-2.18,1.35-3.48,0.87c-0.07-0.03-0.15-0.06-0.22-0.09c-1.36-0.63-1.14-1.34-1.19-1.68
	C40.64,67.05,40.69,66.44,41.36,66.33z"/>
<path fill="#303030" d="M33.41,70.13c0.25-0.18,2.76-0.42,3.29-0.26c0.29,0.09,0.44,0.36,0.5,0.69c0.05,0.22,0.06,0.48,0.04,0.74
	c-0.04,0.63-0.64,1.14-1.33,1.07c-0.53-0.05-1.32-0.03-1.87-0.23c-0.17-0.06-0.32-0.14-0.43-0.25
	C33.12,71.39,33.16,70.31,33.41,70.13z"/>
<path fill="#303030" d="M65.9,70.26c0.52-0.24,5.92-0.58,7.05-0.34c0.63,0.13,0.95,0.5,1.08,0.96c0.12,0.31,0.12,0.68,0.09,1.03
	c-0.08,0.88-1.37,1.59-2.85,1.49c-1.13-0.08-2.83-0.06-4.01-0.33c-0.37-0.09-0.69-0.2-0.92-0.36C65.29,72.02,65.37,70.5,65.9,70.26z
	"/>
<path fill="#303030" d="M52.06,64.57c0.54-0.21,1.5,0.78,2.47,0.78c0.73,0,1.5,0.38,1.68,1.11c0.06,0.24,0.06,0.51-0.03,0.82
	c-0.36,1.25-0.98,1.04-2.22,0.5c-0.48-0.21-0.94-0.27-1.35-0.3c-0.65-0.03-1.12,0.03-1.17-0.21C51.09,65.88,51.53,64.78,52.06,64.57
	z"/>
<path fill="#303030" d="M43.59,64.3c-0.15-0.56,0.57-0.95,1.26-1c0.67-0.04,1.36-0.05,2.53,0.02c1.04,0.06,1.51,0.41,1.12,0.8
	c-0.02,0.05-0.09,0.1-0.15,0.15c-0.54,0.37-1.39,0.58-2.4,0.48c-0.24-0.02-0.5-0.06-0.78-0.12C43.79,64.35,43.63,64.45,43.59,64.3z"
	/>
<path fill="#303030" d="M45.87,74.58c0-0.21,0.42-0.51,1.81-0.93c1.38-0.43,3.27-0.26,4.1,0.31c0.17,0.12,0.28,0.23,0.29,0.34
	c0.1,0.41-0.76,0.73-1.72,0.83c-1.05,0.11-1.84,0.57-2.51,0.68c-0.11,0.02-0.23,0.03-0.33,0.03C46.78,75.81,45.88,75.32,45.87,74.58
	z"/>
<path fill="#303030" d="M61.97,68.34c-0.05,0.29-0.72,1.42-2.11,0.58c-0.3-0.18-0.45-0.34-0.48-0.51c-0.02-0.18,0.1-0.38,0.37-0.61
	c0.21-0.19,0.35-0.36,0.45-0.45c0.12-0.12,0.2-0.13,0.28,0.06c0.02,0.05,0.05,0.13,0.08,0.22c0.05,0.17,0.17,0.28,0.31,0.35
	C61.3,68.21,62,68.13,61.97,68.34z"/>
<g>
	<path fill="#B5663E" d="M-18.46,58.46V42.84c0-0.01,0-0.02,0-0.02l-0.41-5c-0.01-0.17,0.12-0.31,0.29-0.31h2.14
		c0.17,0,0.3,0.14,0.29,0.31l-0.46,4.99c0,0.01,0,0.02,0,0.03v15.61c0,0.16-0.13,0.29-0.29,0.29h-1.27
		C-18.33,58.74-18.46,58.62-18.46,58.46z"/>
	<path fill="#707071" d="M-7.09,40.61c0,0-3.76-2.57-10.43-2.57c-6.67,0-10.43,2.57-10.43,2.57c4.09-0.89,6.7-1.04,8.28-0.97
		c0.3,0.01,0.53,0.26,0.53,0.56l0,1.21c0,0.19,0.15,0.34,0.34,0.34h2.55c0.19,0,0.34-0.15,0.34-0.34l0-1.21
		c0-0.3,0.23-0.54,0.53-0.56C-13.79,39.57-11.18,39.72-7.09,40.61z"/>
</g>
<path fill="#606161" d="M43,67.41c-0.06,1.14-1.14,2.07-2.39,1.96c-1.25-0.12-1.78-0.39-1.95-0.7c-0.11-0.19-0.2-0.38-0.25-0.57
	c-0.3-0.85-0.12-1.59,0.25-1.85c0.45-0.32,1.53,0.25,2.43,0c0.27-0.08,0.56-0.11,0.83-0.07C42.53,66.25,43.04,66.63,43,67.41z"/>
<path fill="#606161" d="M51.99,67.67c-0.54,0.1-1.3-0.86-2.22-1c-0.69-0.09-1.36-0.51-1.42-1.15c-0.02-0.21,0.02-0.44,0.15-0.69
	c0.5-0.96,1.75-1.38,2.8-0.9c0.06,0.03,0.12,0.06,0.18,0.09c1.1,0.62,0.93,1.34,0.97,1.68C52.57,66.94,52.53,67.56,51.99,67.67z"/>
<path fill="#606161" d="M72.03,71.17c-0.44,0.32-4.98,0.81-5.93,0.52c-0.53-0.16-0.8-0.64-0.92-1.23c-0.1-0.4-0.11-0.87-0.08-1.33
	c0.06-1.13,1.14-2.07,2.39-1.95c0.95,0.09,2.38,0.04,3.38,0.38c0.31,0.11,0.58,0.25,0.78,0.45C72.53,68.89,72.48,70.85,72.03,71.17z
	"/>
<path fill="#757576" d="M70.75,69.89c-0.4,0.29-4.17,0.72-5.57,0.57c-0.1-0.4-0.11-0.87-0.08-1.33c0.06-1.13,1.14-2.07,2.39-1.95
	c0.95,0.09,2.38,0.04,3.38,0.38C71.2,68.49,71.09,69.65,70.75,69.89z"/>
<path fill="#606161" d="M47.97,75.26c-0.54,0.11-1.3-0.86-2.22-0.99c-0.69-0.1-1.36-0.52-1.42-1.16c-0.02-0.21,0.02-0.44,0.15-0.69
	c0.53-1.01,1.08-0.75,2.17-0.13c0.42,0.24,0.85,0.35,1.23,0.43c0.61,0.11,1.06,0.12,1.08,0.33C49.08,74.28,48.5,75.15,47.97,75.26z"
	/>
<path fill="#606161" d="M56.94,72.21c0.07,0.72-0.26,1.23-0.58,1.3c-0.31,0.06-0.63,0.08-1.17,0c-0.48-0.07-0.7-0.51-0.52-1.02
	c0.01-0.07,0.04-0.13,0.07-0.2c0.25-0.48,0.64-0.76,1.11-0.65c0.11,0.02,0.23,0.07,0.36,0.14C56.85,72.14,56.92,72.01,56.94,72.21z"
	/>
<path fill="#606161" d="M46.84,62.79c0,0.27-0.24,0.66-1.03,1.22c-0.79,0.57-1.87,0.37-2.35-0.36c-0.1-0.15-0.16-0.3-0.17-0.44
	c-0.06-0.53,0.43-0.95,0.98-1.09c0.6-0.16,1.05-0.76,1.43-0.91c0.06-0.03,0.13-0.04,0.19-0.04C46.31,61.21,46.83,61.83,46.84,62.79z
	"/>
<path fill="#606161" d="M34.77,70.81c-0.11,0.37-1.14,1.71-2.79,0.42c-0.35-0.28-0.53-0.5-0.54-0.73c0-0.24,0.19-0.47,0.57-0.73
	c0.3-0.21,0.5-0.41,0.64-0.51c0.17-0.13,0.27-0.13,0.35,0.12c0.02,0.07,0.05,0.17,0.07,0.29c0.04,0.22,0.17,0.38,0.34,0.5
	C33.94,70.53,34.85,70.54,34.77,70.81z"/>
<path fill="#606161" d="M60.46,67.39c0.1,0.23-1,0.28-1.04,0.88c-0.05,0.6-0.18,0.3-0.71,0.01c-0.37-0.2-0.5-0.38-0.39-0.62
	c0.04-0.1,0.13-0.22,0.26-0.35c0.59-0.57,1.1-0.53,1.44-0.35C60.26,67.09,60.42,67.29,60.46,67.39z"/>
<path fill="#757576" d="M41.93,66.34c-0.07,1.13-1.14,2.07-2.39,1.95c-0.47-0.04-0.85-0.11-1.13-0.19c-0.3-0.85-0.12-1.59,0.25-1.85
	c0.45-0.32,1.53,0.25,2.43,0c0.27-0.08,0.56-0.11,0.83-0.07C41.93,66.23,41.93,66.28,41.93,66.34z"/>
<path fill="#757576" d="M50.91,66.59c-0.53,0.11-1.29-0.86-2.21-0.99c-0.12-0.02-0.24-0.04-0.35-0.08
	c-0.02-0.21,0.02-0.44,0.15-0.69c0.5-0.96,1.75-1.38,2.8-0.9c0.09,0.28,0.06,0.54,0.07,0.7C51.5,65.86,51.45,66.49,50.91,66.59z"/>
<path fill="#757576" d="M47.88,72.72c-0.12,0.83-0.57,1.38-0.99,1.47c-0.53,0.11-1.29-0.86-2.21-0.99
	c-0.12-0.02-0.24-0.05-0.35-0.09c-0.02-0.21,0.02-0.44,0.15-0.69c0.53-1.01,1.08-0.75,2.17-0.13C47.07,72.53,47.5,72.64,47.88,72.72
	z"/>
<path fill="#757576" d="M55.85,71.64c-0.08,0.45-0.33,0.75-0.56,0.8c-0.19,0.04-0.38,0.06-0.62,0.05c0.01-0.07,0.04-0.13,0.07-0.2
	C54.99,71.81,55.38,71.53,55.85,71.64z"/>
<path fill="#757576" d="M45.77,61.72c0,0.26-0.25,0.65-1.03,1.22c-0.44,0.32-0.98,0.4-1.45,0.27c-0.06-0.53,0.43-0.95,0.98-1.09
	c0.6-0.16,1.05-0.76,1.43-0.91C45.74,61.37,45.77,61.54,45.77,61.72z"/>
<path fill="#757576" d="M33.41,70.17c-0.36,0.4-1.04,0.78-1.97,0.33c0-0.24,0.19-0.47,0.57-0.73c0.3-0.21,0.5-0.41,0.64-0.51
	c0.11,0.05,0.23,0.09,0.35,0.12c0.02,0.07,0.05,0.17,0.07,0.29C33.11,69.89,33.24,70.05,33.41,70.17z"/>
<path fill="#757576" d="M60.02,66.96c-0.57,0.64-1.22,0.74-1.7,0.7c0.04-0.1,0.13-0.22,0.26-0.35
	C59.17,66.74,59.68,66.78,60.02,66.96z"/>
<g>
	<path fill="#B5663E" d="M61.87,62.58l6.57,1.58c0,0,0.01,0,0.01,0l2.14,0.33c0.07,0.01,0.12,0.08,0.1,0.15l-0.22,0.9
		c-0.02,0.07-0.09,0.11-0.16,0.09l-2.06-0.7c0,0-0.01,0-0.01,0l-6.57-1.58c-0.07-0.02-0.11-0.08-0.09-0.15l0.13-0.53
		C61.74,62.6,61.81,62.56,61.87,62.58z"/>
	<path fill="#979899" d="M68.23,69.17c0,0,1.46-1.32,2.14-4.13c0.68-2.81-0.02-4.65-0.02-4.65c-0.04,1.81-0.24,2.92-0.43,3.58
		c-0.04,0.12-0.16,0.2-0.29,0.17l-0.51-0.12c-0.08-0.02-0.16,0.03-0.17,0.11l-0.26,1.07c-0.02,0.08,0.03,0.16,0.11,0.17l0.51,0.12
		c0.13,0.03,0.21,0.15,0.18,0.28C69.35,66.46,69.02,67.54,68.23,69.17z"/>
</g>
<rect x="67.73" y="68.03" fill="#757576" width="1.98" height="1.6"/>
</svg>
