<?xml version="1.0" encoding="utf-8"?>
<!-- Generator: Adobe Illustrator 25.0.1, SVG Export Plug-In . SVG Version: 6.00 Build 0)  -->
<svg version="1.1" id="Layer_1" xmlns="http://www.w3.org/2000/svg" xmlns:xlink="http://www.w3.org/1999/xlink" x="0px" y="0px"
	 viewBox="0 0 100 100" style="enable-background:new 0 0 100 100;" xml:space="preserve">
<style type="text/css">
	.st0{fill:#FFFFFF;}
</style>
<path class="st0" d="M44.9,67.3c-5.3-8.6-5.4-14.5-5.4-14.5s0,5.9-5.4,14.5c-5.3,8.5,1.8,12.9,5.4,12.9S50.1,75.7,44.9,67.3z"/>
<path class="st0" d="M65.9,79.3c-5.3-8.6-5.4-14.5-5.4-14.5s0,5.9-5.4,14.5c-5.3,8.5,1.8,12.9,5.4,12.9
	C64.1,92.2,71.2,87.8,65.9,79.3z"/>
<path class="st0" d="M66.7,20.1c-0.4,0-0.9,0-1.3,0.1c-3.4-6-9.8-10-17.1-10c-10,0-18.2,7.4-19.4,17.1c-5.7,0.5-10.2,5.2-10.2,11.1
	c0,6.1,5,11.1,11.1,11.1h36.9c8.1,0,14.6-6.6,14.6-14.6S74.8,20.1,66.7,20.1z"/>
</svg>
