<?xml version="1.0" encoding="utf-8"?>
<!-- Generator: Adobe Illustrator 25.0.1, SVG Export Plug-In . SVG Version: 6.00 Build 0)  -->
<svg version="1.1" id="Layer_1" xmlns="http://www.w3.org/2000/svg" xmlns:xlink="http://www.w3.org/1999/xlink" x="0px" y="0px"
	 viewBox="0 0 100 100" enable-background="new 0 0 100 100" xml:space="preserve">
<g>
	<path fill="#796B6B" d="M26.65,35.94c0,0-4.21,3.03-5.82,11.94c0,0,3.37,5.2,11.66,4.09s1.47-12.63,1.47-12.63L26.65,35.94z"/>
	<path fill="#796B6B" d="M74.33,35.2c0,0,4.21,3.03,5.82,11.94c0,0-3.37,5.2-11.66,4.09S67.03,38.6,67.03,38.6L74.33,35.2z"/>
	<path fill="#796B6B" d="M70.37,73.89c0,0-3.31,4.25-10.59,6.48c-2.58,0.79-5.67,1.33-9.29,1.33c-13.8,0-19.88-7.8-19.88-7.8
		l0.93-2.9l2.21-6.9l0.83-2.58h31.84l0.83,2.58l1.55,4.85L70.37,73.89z"/>
	<path fill="#A99595" d="M68.5,59.78c-0.2,1.64-0.64,3.07-1.26,4.31c-4.24,8.57-16.75,8.57-16.75,8.57s-6.01,0-11.11-2.86
		c-2.26-1.26-4.33-3.08-5.63-5.71c-0.62-1.25-1.06-2.68-1.27-4.32c-0.37-3-0.52-5.61-0.53-7.84c-0.05-7.38,1.39-10.73,1.39-10.73
		l4.09-6l13.07,0.67l13.07-0.67l4.09,6C67.65,41.2,70.09,46.9,68.5,59.78z"/>
	<path fill="#B8A7A7" d="M36.92,25.97c0,0-7.18-1.73-12.63,8.3c0,0,7.21,5.94,8.19,10.28c0,0,7.63,0.51,13.71-7.36
		S36.92,25.97,36.92,25.97z"/>
	<path fill="#B8A7A7" d="M76.69,34.26c0,0-7.21,5.95-8.19,10.28c0,0-7.63,0.51-13.71-7.36c-6.09-7.87,9.27-11.22,9.27-11.22
		s2.27-0.55,5.22,0.75c1.85,0.81,3.97,2.35,5.96,5.19C75.73,32.61,76.21,33.39,76.69,34.26z"/>
	<path fill="#796B6B" d="M57.61,21.63h-7.12h-7.12l-6.44,5.07c0,0,5.46,12.01,13.56,12.63c8.11-0.62,13.56-12.63,13.56-12.63
		L57.61,21.63z"/>
	<ellipse fill="#796B6B" cx="50.49" cy="24.97" rx="9.13" ry="6.63"/>
	<ellipse fill="#2D2D2D" cx="50.49" cy="27.52" rx="9.13" ry="6.63"/>
	<path fill="#B25B37" d="M70.37,73.89c0,0-3.31,4.25-10.59,6.48c-0.11-0.56-0.16-1.14-0.16-1.72c0-5.18,4.06-9.42,9.17-9.7
		L70.37,73.89z"/>
	<path fill="#B25B37" d="M43.94,61.51c0,3.49-1.82,6.55-4.56,8.29c-2.26-1.26-4.33-3.08-5.63-5.71c-0.62-1.25-1.06-2.68-1.27-4.32
		c-0.37-3-0.52-5.61-0.53-7.84c0.7-0.16,1.42-0.24,2.17-0.24C39.54,51.69,43.94,56.08,43.94,61.51z"/>
	<circle fill="#B25B37" cx="52.31" cy="51.39" r="4.02"/>
	<path fill="#B25B37" d="M75.23,31.91c-0.7,1.19-1.99,1.99-3.47,1.99c-2.22,0-4.02-1.8-4.02-4.02c0-1.28,0.6-2.42,1.53-3.16
		C71.12,27.53,73.24,29.06,75.23,31.91z"/>
	<circle fill="#B25B37" cx="39.77" cy="35.2" r="2.03"/>
</g>
</svg>
