<?xml version="1.0" encoding="utf-8"?>
<!-- Generator: Adobe Illustrator 25.0.1, SVG Export Plug-In . SVG Version: 6.00 Build 0)  -->
<svg version="1.1" id="Layer_1" xmlns="http://www.w3.org/2000/svg" xmlns:xlink="http://www.w3.org/1999/xlink" x="0px" y="0px"
	 viewBox="0 0 100 100" enable-background="new 0 0 100 100" xml:space="preserve">
<g>
	<polygon fill="#A1715A" points="43.76,53.26 31.15,70.69 33.01,72.19 46.52,55.46 	"/>
	<polygon fill="#8A5A47" points="49.25,57.65 34.85,73.65 33.01,72.19 46.52,55.46 	"/>
	<path fill="#A99595" d="M73.13,22.41L46.93,54.94l-3.23-2.59l9.33-11.49c2.9-3.61,6.14-6.92,9.69-9.84L73.13,22.41z"/>
	<path fill="#796B6B" d="M59.48,46.07l-9.33,11.46l-3.23-2.59l26.19-32.53l-6.13,12.05C64.89,38.55,62.38,42.44,59.48,46.07z"/>
	<circle fill="#837474" cx="32.29" cy="73.19" r="4.44"/>
	<circle fill="#A99595" cx="32.29" cy="73.19" r="2.98"/>
	
		<rect x="39.54" y="53.94" transform="matrix(0.7811 0.6244 -0.6244 0.7811 44.6406 -17.1216)" fill="#A99595" width="14.41" height="2.33"/>
	
		<rect x="39.18" y="54.72" transform="matrix(0.7811 0.6244 -0.6244 0.7811 44.8431 -16.7981)" fill="#796B6B" width="14.41" height="1.68"/>
	<path fill="#B25B37" d="M59.75,45.55l-7.15,8.94c-0.44-2.1,0.03-4.35,1.47-6.16C55.5,46.53,57.61,45.57,59.75,45.55z"/>
	<circle fill="#B25B37" cx="58.96" cy="37.15" r="1.53"/>
</g>
</svg>
