<?xml version="1.0" encoding="utf-8"?>
<!-- Generator: Adobe Illustrator 25.0.1, SVG Export Plug-In . SVG Version: 6.00 Build 0)  -->
<svg version="1.1" id="Layer_1" xmlns="http://www.w3.org/2000/svg" xmlns:xlink="http://www.w3.org/1999/xlink" x="0px" y="0px"
	 viewBox="0 0 100 100" enable-background="new 0 0 100 100" xml:space="preserve">
<g>
	<g>
		<path fill="#645859" d="M55.45,26.41v41.8c0,0-5.41,2.68-16.22,3.75c-2.85,0.28-4.98,0.3-6.56,0.19c-0.05,0-0.09,0-0.15-0.01
			c-0.16-0.02-0.3-0.03-0.45-0.04c-0.07,0-0.15-0.01-0.22-0.03c-0.85-0.09-1.52-0.24-2.03-0.41c-1.66-0.53-1.76-1.25-1.76-1.25
			c0-5.32,12-10.21,12-10.21V28.51C49.42,30.86,55.45,26.41,55.45,26.41z"/>
		<path fill="#777070" d="M55.58,62.38l-3.59-2.19c-3.39-12.79-0.43-31-0.43-31l-7.18-1.67l-3.86,15.57c0,0-0.3,4.45-0.99,15.09
			c-0.7,10.64-11.82,10.21-7.67,13.88s23.48-2.95,23.48-2.95L55.58,62.38L55.58,62.38z"/>
		<path fill="#948282" d="M32.67,72.14c-0.05,0-0.09,0-0.15-0.01c-0.16-0.02-0.3-0.03-0.45-0.04c-0.07,0-0.15-0.01-0.22-0.03
			c-0.65-0.15-1.33-0.28-2.03-0.41c-1.66-0.53-1.76-1.25-1.76-1.25c0-5.32,12-10.21,12-10.21s3.94,0.85,5.36,3.74
			C46.76,66.63,36.96,72.13,32.67,72.14z"/>
		<path fill="#4E4D4C" d="M51.06,60.19c0,0-10.29-3.48-10.99-7.23c-0.7-3.75-2.77,2.92-0.97,7.23c1.81,4.31,10.84,4.31,11.96,4.31
			S51.06,60.19,51.06,60.19z"/>
		<circle fill="#827F7E" cx="51.99" cy="62.38" r="3.59"/>
		<path fill="#645859" d="M56.77,25.68c0,0-0.65-4.53-14.93-6.83v8.13l14.82-0.56L56.77,25.68z"/>
		<path fill="#1E1616" d="M55.86,26.23c0,0,0.44-3.36-13.83-5.66l-1.1,6.95l14.82-0.56L55.86,26.23z"/>
		<path fill="#4E4D4C" d="M55.45,68.21c0,2-1.43,3.72-3.38,4.1c-9.76,1.95-24,3.65-24-1.91c0,0,0.36,2.61,11.16,1.55
			C50.03,70.88,55.45,68.21,55.45,68.21z"/>
		<path fill="#948282" d="M56.66,26.39c0,0.01,0,0.02-0.01,0.02c-0.15,0.42-0.48,1.02-1.21,1.79c-0.29,0.31-0.65,0.65-1.09,1
			c-0.77,0.64-1.77,1.36-3.1,2.14c-0.88,0.52-1.92,1.09-3.11,1.67c-0.97,0.47-1.78,1.06-2.46,1.74c-1.92,1.89-2.79,4.45-3.17,7.01
			c-0.77,5.27,0.57,10.54-0.76,10.06c-0.77-0.28-1.31-0.74-1.69-1.23c-0.02-0.02-0.03-0.04-0.04-0.06c-0.67-0.88-0.8-1.82-0.8-1.82
			c0.24-1.27,0.28-3.35,0.2-5.73c-0.16-4.95-0.81-11.26-1.21-14.73c-0.03-0.27-0.07-0.52-0.09-0.76c-0.16-1.3,0.07-2.61,0.66-3.76
			c1.4-2.74,3.05-4.89,3.05-4.89c0.41,0.74,1.14,1.42,2.07,2.06c3.31,2.27,9.1,3.86,11.62,4.48c0.41,0.11,0.74,0.18,0.95,0.23
			c0.19,0.04,0.29,0.07,0.29,0.07S56.83,25.92,56.66,26.39z"/>
	</g>
	<g>
		<path fill="#796B6B" d="M71.08,31.76v41.8c0,0-0.02,0.01-0.07,0.03c-0.12,0.06-0.42,0.2-0.89,0.38c-0.07,0.02-0.14,0.05-0.21,0.08
			c-0.13,0.05-0.27,0.1-0.42,0.16c-0.11,0.04-0.21,0.08-0.33,0.12c-0.11,0.04-0.24,0.08-0.37,0.13c-0.12,0.04-0.26,0.08-0.39,0.13
			c-0.14,0.04-0.28,0.09-0.43,0.14c-0.18,0.06-0.36,0.11-0.56,0.17v0.01c-0.12,0.03-0.25,0.07-0.39,0.11
			c-0.57,0.17-1.2,0.34-1.89,0.51c-0.23,0.07-0.47,0.12-0.71,0.18c-0.48,0.11-1,0.24-1.54,0.35c-0.22,0.05-0.45,0.1-0.69,0.14
			c-0.33,0.07-0.67,0.14-1.01,0.2c-0.53,0.1-1.08,0.2-1.64,0.29c-0.29,0.04-0.58,0.09-0.87,0.13c-0.3,0.04-0.6,0.08-0.91,0.13
			c-0.69,0.09-1.4,0.18-2.15,0.26c-0.25,0.03-0.49,0.06-0.74,0.08c-0.77,0.07-1.49,0.13-2.16,0.17c-0.47,0.03-0.9,0.05-1.31,0.06
			c-0.85,0.03-1.61,0.03-2.28,0c-0.27-0.02-0.52-0.02-0.76-0.04c-0.04-0.01-0.08-0.01-0.12-0.01c-0.24-0.02-0.47-0.04-0.68-0.07
			c-0.02,0-0.04-0.01-0.07-0.02c-0.07-0.01-0.13-0.02-0.2-0.02c-0.53-0.07-0.98-0.16-1.36-0.25c-0.09-0.02-0.18-0.05-0.27-0.07
			c-0.07-0.02-0.13-0.03-0.2-0.06c-0.02-0.01-0.04-0.02-0.06-0.02c-0.08-0.02-0.16-0.05-0.24-0.08c-0.08-0.02-0.16-0.06-0.23-0.09
			c-0.06-0.02-0.11-0.05-0.16-0.07c-0.03-0.02-0.06-0.02-0.09-0.05c-0.07-0.03-0.14-0.07-0.2-0.11c-0.07-0.02-0.11-0.07-0.16-0.1
			c-0.06-0.03-0.11-0.07-0.15-0.11c-0.05-0.03-0.09-0.07-0.12-0.1c-0.19-0.16-0.28-0.31-0.32-0.41c-0.02-0.02-0.02-0.04-0.03-0.07
			c-0.01-0.03-0.01-0.05-0.01-0.05c0-0.74,0.23-1.45,0.62-2.16c0.33-0.6,0.78-1.18,1.31-1.75c0.33-0.35,0.69-0.69,1.08-1.02
			c2.65-2.29,6.37-4.12,8.08-4.89c0.04-0.02,0.08-0.03,0.12-0.05c0.22-0.11,0.4-0.18,0.54-0.24c0.01-0.01,0.01-0.01,0.02-0.01
			c0.16-0.07,0.24-0.11,0.24-0.11V33.87c1.37,0.34,2.68,0.54,3.9,0.62c2.17,0.16,4.09-0.04,5.71-0.38c2.19-0.47,3.82-1.22,4.78-1.74
			c0.48-0.26,0.8-0.47,0.92-0.56C71.06,31.78,71.08,31.76,71.08,31.76z"/>
		<path fill="#8C8484" d="M71.21,67.73l-3.59-2.19c-3.39-12.79-0.43-31-0.43-31l-7.18-1.67l-3.86,15.57c0,0-0.3,4.45-0.99,15.09
			c-0.7,10.64-11.82,10.21-7.67,13.88s23.48-2.95,23.48-2.95L71.21,67.73L71.21,67.73z"/>
		<path fill="#A99595" d="M48.31,77.5c-0.05,0-0.09,0-0.15-0.01c-0.16-0.02-0.3-0.03-0.45-0.04c-0.07,0-0.15-0.01-0.22-0.03
			c-0.65-0.15-1.33-0.28-2.03-0.41c-1.66-0.53-1.76-1.25-1.76-1.25c0-5.32,12-10.21,12-10.21s3.94,0.85,5.36,3.74
			C62.39,71.98,52.59,77.48,48.31,77.5z"/>
		<path fill="#636261" d="M66.7,65.54c0,0-10.29-3.48-10.99-7.23c-0.7-3.75-2.77,2.92-0.97,7.23c1.81,4.31,10.84,4.31,11.96,4.31
			S66.7,65.54,66.7,65.54z"/>
		<circle fill="#989492" cx="67.62" cy="67.73" r="3.59"/>
		<path fill="#796B6B" d="M72.41,31.03c0,0-0.65-4.53-14.93-6.83v8.13l14.82-0.56L72.41,31.03z"/>
		<path fill="#1E1616" d="M71.49,31.58c0,0,0.44-3.36-13.83-5.66l-1.1,6.95l14.82-0.56L71.49,31.58z"/>
		<path fill="#636261" d="M71.08,73.56c0,0.3-0.03,0.59-0.1,0.87c0,0.01,0,0.02-0.01,0.03c-0.29,1.3-1.19,2.39-2.42,2.92
			c-0.27,0.12-0.56,0.21-0.86,0.27c-4.75,0.94-10.54,1.84-15.25,1.86c-4.99,0.02-8.75-0.91-8.75-3.76c0,0,0,0.02,0.01,0.05
			c0.01,0.02,0.02,0.04,0.03,0.07c0.04,0.1,0.13,0.24,0.32,0.41c0.03,0.03,0.07,0.07,0.12,0.1c0.04,0.04,0.09,0.07,0.15,0.11
			c0.12,0.09,0.27,0.17,0.45,0.25c0.18,0.09,0.38,0.17,0.63,0.25c0.03,0.02,0.07,0.02,0.11,0.03c0.05,0.02,0.1,0.03,0.15,0.05
			c0.08,0.02,0.18,0.05,0.27,0.07c0.38,0.1,0.83,0.18,1.36,0.25c0.07,0.01,0.13,0.02,0.2,0.02c0.02,0,0.03,0,0.06,0.01
			c0.21,0.02,0.44,0.04,0.68,0.07c0.04,0,0.08,0,0.12,0.01c0.24,0.02,0.49,0.02,0.76,0.04c1,0.03,2.19,0.02,3.59-0.07
			c0.66-0.04,1.38-0.1,2.15-0.17c1.01-0.1,1.98-0.21,2.9-0.33c0.3-0.05,0.6-0.09,0.91-0.13c0.88-0.13,1.72-0.27,2.52-0.42
			c2.38-0.45,4.33-0.94,5.85-1.39c0.13-0.04,0.26-0.08,0.39-0.12c2.12-0.65,3.32-1.18,3.59-1.31
			C71.06,73.57,71.08,73.56,71.08,73.56z"/>
		<path fill="#A99595" d="M53.76,32.85c0.55,4.69,1.88,17.09,1.11,21.23c0,0,0.31,2.31,2.53,3.1s-2.93-14.22,6.39-18.81
			s8.63-7.34,8.63-7.34s-12.61-2.66-14.93-6.83c0,0-1.66,2.15-3.06,4.89C53.83,30.25,53.61,31.56,53.76,32.85z"/>
	</g>
	<path fill="#B25B37" d="M71.08,49.55V63.9c-0.51,0.16-1.04,0.24-1.59,0.24c-0.82,0-1.59-0.18-2.31-0.51
		c-2.34-1.08-4.01-3.77-4.01-6.91c0-2.58,1.13-4.86,2.83-6.18c1-0.78,2.2-1.23,3.49-1.23C70.04,49.31,70.57,49.39,71.08,49.55z"/>
	<path fill="#B25B37" d="M45.69,34.76c-1.92,1.89-2.79,4.45-3.17,7.01c-0.58,0.4-1.22,0.72-1.9,0.94c-0.18,0.06-0.36,0.11-0.55,0.16
		c-0.21,0.05-0.42,0.09-0.65,0.13c-0.16-4.95-0.81-11.26-1.21-14.73h0.12c0.86,0,1.69,0.15,2.46,0.42c0.01,0,0.02,0,0.03,0.01
		c1.07,0.38,2.03,1,2.81,1.8C44.75,31.63,45.49,33.11,45.69,34.76z"/>
	
		<ellipse transform="matrix(0.9313 -0.3643 0.3643 0.9313 -21.5417 18.5006)" fill="#B25B37" cx="38.27" cy="66.35" rx="2.21" ry="1.85"/>
</g>
</svg>
