<?xml version="1.0" encoding="utf-8"?>
<!-- Generator: Adobe Illustrator 25.0.1, SVG Export Plug-In . SVG Version: 6.00 Build 0)  -->
<svg version="1.1" id="Layer_1" xmlns="http://www.w3.org/2000/svg" xmlns:xlink="http://www.w3.org/1999/xlink" x="0px" y="0px"
	 viewBox="0 0 100 100" enable-background="new 0 0 100 100" xml:space="preserve">
<g>
	<path fill="#353535" d="M64.78,60.81c2.11-1.43,3.37-3.17,3.37-5.04c0-4.85-8.28-8.77-18.49-8.77s-18.5,3.93-18.5,8.77
		c0,1.87,1.25,3.62,3.37,5.04c-2.11,0.9-3.37,2-3.37,3.19c0,3.07,8.28,5.55,18.49,5.55s18.49-2.48,18.49-5.55
		C68.14,62.81,66.89,61.71,64.78,60.81z"/>
	<path fill="#786B6A" d="M68.88,74.19c-2.2,0.94-4.91,1.97-7.64,2.76c-1.17,0.34-2.35,0.25-3.38-0.15c-1.82-0.71-3.2-2.41-3.32-4.56
		l-0.26-4.52c-0.15-2.45,1.43-4.67,3.79-5.34l2.35-0.67c2.25-0.64,3.8-2.7,3.8-5.02v-0.06c-0.03-3.22-2.94-5.64-6.12-5.09l-4.57,0.8
		c-2.61,0.45-5.28,0.45-7.88,0l-1.67-0.29l-2.91-0.51c-0.31-0.07-0.61-0.08-0.91-0.08c-0.52,0-1.04,0.08-1.52,0.22h0
		c-2.09,0.65-3.66,2.59-3.69,4.95c-0.03,2.36,1.53,4.44,3.8,5.08l2.35,0.67c2.36,0.67,3.93,2.9,3.79,5.34l-0.26,4.52
		c-0.21,3.37-3.47,5.63-6.7,4.71c-2.73-0.78-5.44-1.83-7.64-2.76c-2.38-1.01-3.69-3.6-3.03-6.1c0.83-3.13,1.61-8.81,1.51-19.06
		C28.53,27.45,49.57,21.9,49.57,21.9s5.08,1.34,10.24,5.28c4.32,3.3,8.68,8.43,10.11,16.12c0.33,1.77,0.5,3.67,0.48,5.72
		c-0.08,6.97,0.26,11.84,0.75,15.22c0.22,1.57,0.48,2.84,0.74,3.83C72.57,70.59,71.25,73.19,68.88,74.19z"/>
	<path fill="#B15B36" d="M68.88,74.19c-2.2,0.94-4.91,1.97-7.64,2.76c-1.17,0.34-2.35,0.25-3.38-0.15
		c2.83-5.58,7.54-10.05,13.29-12.54c0.22,1.57,0.48,2.84,0.74,3.83C72.57,70.59,71.25,73.19,68.88,74.19z"/>
	<path fill="#B15B36" d="M69.92,43.31C68.38,44.38,66.52,45,64.5,45c-5.26,0-9.52-4.26-9.52-9.52c0-3.55,1.95-6.66,4.83-8.3
		C64.14,30.48,68.5,35.61,69.92,43.31z"/>
	<path fill="#B15B36" d="M38.63,51.69L38.63,51.69c-1.42-0.97-2.36-2.59-2.36-4.42c0-2.94,2.39-5.34,5.34-5.34
		c2.95,0,5.34,2.39,5.34,5.34c0,2.1-1.21,3.93-2.98,4.78L38.63,51.69z"/>
</g>
</svg>
