<?xml version="1.0" encoding="utf-8"?>
<!-- Generator: Adobe Illustrator 25.0.1, SVG Export Plug-In . SVG Version: 6.00 Build 0)  -->
<svg version="1.1" id="Layer_1" xmlns="http://www.w3.org/2000/svg" xmlns:xlink="http://www.w3.org/1999/xlink" x="0px" y="0px"
	 viewBox="0 0 100 100" enable-background="new 0 0 100 100" xml:space="preserve">
<g>
	<g>
		<polygon fill="#8C573D" points="31.52,66.45 19.91,82.35 21.35,83.51 33.65,68.15 		"/>
		<polygon fill="#75432F" points="35.76,69.84 22.77,84.64 21.35,83.51 33.65,68.15 		"/>
		<path fill="#A99595" d="M79.36,11.08L33.97,67.75l-2.5-2l32.35-40.4c2.24-2.79,4.75-5.35,7.49-7.61L79.36,11.08z"/>
		<path fill="#786A6A" d="M68.82,29.37L36.46,69.75l-2.5-2l45.39-56.67l-4.74,9.32C72.99,23.56,71.05,26.57,68.82,29.37z"/>
		<path fill="#786A6A" d="M44.45,69.85l-1.27-1.52c-3.34,3.27-7.56,0.57-9.06-0.59l-0.01-0.01c-0.04-0.04-0.07-0.05-0.11-0.09
			c-1.46-1.2-5.01-4.72-2.55-8.71l-1.76-0.91c-3.21,5.17,0.22,9.32,2.19,11.12l0,0c0.05,0.04,0.23,0.21,0.53,0.46
			c0.02,0.02,0.04,0.04,0.06,0.04c0.02,0.02,0.04,0.04,0.06,0.04c0.3,0.24,0.51,0.39,0.57,0.42l0,0
			C35.32,71.66,40.12,74.09,44.45,69.85z"/>
		<path fill="#A99595" d="M43.4,68.58l-1.05-1.27c-2.88,2.84-6.38,0.61-7.63-0.35c0,0,0,0-0.01-0.01c-0.03-0.03-0.06-0.04-0.09-0.07
			c-1.22-1-4.15-3.93-2-7.36l-1.47-0.75c-2.8,4.46,0.03,7.93,1.66,9.43l0,0c0.04,0.04,0.18,0.18,0.44,0.38
			c0.01,0.01,0.03,0.03,0.05,0.04c0.01,0.01,0.03,0.03,0.05,0.04c0.26,0.2,0.43,0.33,0.47,0.35l0,0
			C35.66,70.31,39.66,72.28,43.4,68.58z"/>
		<circle fill="#827373" cx="20.79" cy="84.28" r="3.43"/>
		<circle fill="#A99595" cx="20.79" cy="84.28" r="1.86"/>
	</g>
	<path fill="#B15A36" d="M49.46,53.52l-6.14,7.66c-0.52-1.58-0.12-3.62,1.23-5.31C45.9,54.2,47.81,53.36,49.46,53.52z"/>
	<path fill="#B15A36" d="M54.54,39.62c-0.94,1.17-2.28,1.8-3.61,1.82l4.6-5.75C55.8,37,55.48,38.46,54.54,39.62z"/>
	<path fill="#B15A36" d="M65.92,32.97l-4.91,6.14c-0.3-1.44,0.02-2.98,1.01-4.23C63.01,33.65,64.46,32.99,65.92,32.97z"/>
	<circle fill="#B15A36" cx="68.34" cy="22.66" r="1.05"/>
	<circle fill="#B15A36" cx="50.62" cy="49.12" r="1.05"/>
	<circle fill="#B15A36" cx="30.43" cy="63.06" r="0.74"/>
	<circle fill="#B15A36" cx="19.63" cy="84.21" r="1.21"/>
</g>
</svg>
