<?xml version="1.0" encoding="utf-8"?>
<!-- Generator: Adobe Illustrator 25.0.1, SVG Export Plug-In . SVG Version: 6.00 Build 0)  -->
<svg version="1.1" id="Layer_1" xmlns="http://www.w3.org/2000/svg" xmlns:xlink="http://www.w3.org/1999/xlink" x="0px" y="0px"
	 viewBox="0 0 100 100" enable-background="new 0 0 100 100" xml:space="preserve">
<rect x="21.65" y="57.47" fill="#FFFFFF" width="56.69" height="10.13"/>
<polygon fill="#FFFFFF" points="66.73,71.76 63.29,71.76 36.71,71.76 33.19,71.76 33.21,78.47 36.71,78.47 36.71,81.35 30.46,81.35 
	30.46,87.7 69.54,87.7 69.54,81.35 63.29,81.35 63.29,78.47 66.79,78.47 "/>
<path fill="#FFFFFF" d="M47.85,28.14c-4.74-7.58-4.76-12.84-4.76-12.84s-0.02,5.26-4.76,12.84c-4.69,7.5,1.59,11.4,4.76,11.4
	C46.27,39.55,52.55,35.65,47.85,28.14z"/>
<path fill="#FFFFFF" d="M61.67,40.11c-4.74-7.58-4.76-12.84-4.76-12.84s-0.02,5.26-4.76,12.84c-4.69,7.5,1.59,11.4,4.76,11.4
	C60.08,51.51,66.36,47.62,61.67,40.11z"/>
</svg>
