<?xml version="1.0" encoding="utf-8"?>
<!-- Generator: Adobe Illustrator 25.0.1, SVG Export Plug-In . SVG Version: 6.00 Build 0)  -->
<svg version="1.1" id="Layer_1" xmlns="http://www.w3.org/2000/svg" xmlns:xlink="http://www.w3.org/1999/xlink" x="0px" y="0px"
	 viewBox="0 0 100 100" enable-background="new 0 0 100 100" xml:space="preserve">
<g>
	<path fill="#856849" d="M46.41,99.18l-43.9-24.7c-0.9-0.5-1.4-1.1-1.5-1.8c-0.1-0.8,0.4-1.7,1.5-2.3l43.9-24.7c2-1.1,5.2-1.1,7.2,0
		l43.9,24.7c2,1.1,2,2.9,0,4.1l-43.9,24.7C51.61,100.28,48.41,100.28,46.41,99.18z"/>
	<polygon fill="#856849" points="1.01,68.18 99.01,67.88 99.01,72.38 1.01,72.68 	"/>
	<path fill="#3A2D18" d="M46.41,94.58l-43.9-24.7c-2-1.1-2-2.9,0-4.1l43.9-24.7c2-1.1,5.2-1.1,7.2,0l43.9,24.7c2,1.1,2,2.9,0,4.1
		l-43.9,24.7C51.61,95.78,48.41,95.78,46.41,94.58z"/>
</g>
<path fill="#4D4949" d="M46.81,90.68l-38.5-21.7c-1.8-1-1.8-2.6,0-3.6l38.5-21.7c1.8-1,4.6-1,6.4,0l38.5,21.7c1.8,1,1.8,2.6,0,3.6
	l-38.5,21.7C51.51,91.58,48.61,91.58,46.81,90.68z"/>
<polygon fill="#3A3939" points="40.82,72.42 38.03,73.98 35.23,72.42 38.03,70.87 "/>
<g>
	<path fill="#2D2D2D" d="M49.35,54.92l-8.64-4.86c-0.18-0.1-0.28-0.22-0.3-0.35c-0.02-0.16,0.08-0.33,0.3-0.45l8.64-4.86
		c0.39-0.22,1.02-0.22,1.42,0l8.64,4.86c0.39,0.22,0.39,0.57,0,0.81l-8.64,4.86C50.37,55.13,49.74,55.13,49.35,54.92z"/>
	<polygon fill="#15373F" points="40.41,48.81 59.7,48.75 59.7,49.64 40.41,49.7 	"/>
	<path fill="#3D3D3D" d="M49.35,54.01l-8.64-4.86c-0.39-0.22-0.39-0.57,0-0.81l8.64-4.86c0.39-0.22,1.02-0.22,1.42,0l8.64,4.86
		c0.39,0.22,0.39,0.57,0,0.81l-8.64,4.86C50.37,54.25,49.74,54.25,49.35,54.01z"/>
</g>
<g>
	<path fill="#2D2D2D" d="M80.62,72.76l-8.64-4.86c-0.18-0.1-0.28-0.22-0.3-0.35c-0.02-0.16,0.08-0.33,0.3-0.45l8.64-4.86
		c0.39-0.22,1.02-0.22,1.42,0l8.64,4.86c0.39,0.22,0.39,0.57,0,0.81l-8.64,4.86C81.65,72.98,81.02,72.98,80.62,72.76z"/>
	<polygon fill="#15373F" points="71.68,66.66 90.98,66.6 90.98,67.48 71.68,67.54 	"/>
	<path fill="#3D3D3D" d="M80.62,71.85l-8.64-4.86c-0.39-0.22-0.39-0.57,0-0.81l8.64-4.86c0.39-0.22,1.02-0.22,1.42,0l8.64,4.86
		c0.39,0.22,0.39,0.57,0,0.81l-8.64,4.86C81.65,72.09,81.02,72.09,80.62,71.85z"/>
</g>
<polygon fill="#3A3939" points="50.57,58.82 47.78,60.37 44.99,58.82 47.78,57.27 "/>
<polygon fill="#3A3939" points="64.42,53.65 62.45,54.74 60.48,53.65 62.45,52.55 "/>
<polygon fill="#3A3939" points="28.48,68.65 26.4,69.81 24.31,68.65 26.4,67.49 "/>
<polygon fill="#3A3939" points="67.89,73.58 65.81,74.74 63.72,73.58 65.81,72.43 "/>
<line fill="none" stroke="#6D4B2E" stroke-width="0.75" stroke-miterlimit="10" x1="80.56" y1="41.66" x2="71.66" y2="41.72"/>
<polygon fill="#3A3939" points="53.02,76.77 48.71,79.16 44.4,76.77 48.71,74.37 "/>
<path fill="none" stroke="#6D4B2E" stroke-width="0.75" stroke-miterlimit="10" d="M68.15,52.88c0,0,6.58,4.44,11.63,2.92"/>
<polygon fill="#3A3939" points="64.43,67.53 61.64,69.08 58.85,67.53 61.64,65.98 "/>
<polygon fill="#3A3939" points="26.97,62.06 24.88,63.22 22.79,62.06 24.88,60.9 "/>
<polygon fill="#3A3939" points="40.11,54.8 38.03,55.96 35.94,54.8 38.03,53.65 "/>
<polygon fill="#3A3939" points="53.97,85.68 51.88,86.84 49.79,85.68 51.88,84.52 "/>
<polygon fill="#3A3939" points="58.58,59.05 56.49,60.21 54.41,59.05 56.49,57.89 "/>
<g>
	<polygon fill="#3A3939" points="50.06,21.92 50.06,51.06 45.98,48.79 45.98,36.56 46.43,35.66 45.98,34.73 45.98,21.92 	"/>
	<polygon fill="#282725" points="54.12,21.92 54.12,48.79 50.06,51.06 50.06,21.92 	"/>
	<polygon fill="#606060" points="54.13,21.93 50.06,24.19 45.98,21.93 50.06,19.67 	"/>
</g>
<g>
	<polygon fill="#3A3939" points="81.34,40.02 81.34,69.16 77.26,66.89 77.26,40.02 	"/>
	<polygon fill="#282725" points="85.4,40.02 85.4,60.26 84.93,60.82 85.4,61.64 85.4,66.89 81.34,69.16 81.34,40.02 	"/>
	<polygon fill="#606060" points="85.4,40.03 81.33,42.29 77.26,40.03 81.33,37.77 	"/>
</g>
<polygon fill="#3A3939" points="71.4,77.96 68.96,79.32 66.51,77.96 68.96,76.6 "/>
<polygon fill="#3A3939" points="35.75,65.98 32.96,67.53 30.17,65.98 32.96,64.43 "/>
<polygon fill="#3A3939" points="29.05,76.6 26.97,77.76 24.88,76.6 26.97,75.44 "/>
<polygon fill="#3A3939" points="79.85,74.37 77.76,75.53 75.68,74.37 77.76,73.21 "/>
<polygon fill="#3A3939" points="63.72,83.36 61.64,84.52 59.55,83.36 61.64,82.2 "/>
<path fill="none" stroke="#6D4B2E" stroke-width="0.75" stroke-miterlimit="10" d="M62.28,37.86c0,0-9.99-6.41-9.99-9.93"/>
<polygon fill="#3A3939" points="28.48,57.12 26.4,58.28 24.31,57.12 26.4,55.96 "/>
<polygon fill="#3A3939" points="14.45,67.14 12.36,68.3 10.28,67.14 12.36,65.98 "/>
<path fill="#606060" d="M42.67,6.64l-0.44,0.23C42.36,6.76,42.51,6.69,42.67,6.64z"/>
<path fill="#2E2725" d="M55.87,71.4v6.8h-0.01c-0.02,0.19-0.11,0.38-0.31,0.5l-8.61,4.9c-0.32,0.17-0.68,0.25-1.03,0.2V72.11
	l7.89-0.71H55.87z"/>
<path fill="#463F3A" d="M45.9,72.11v11.69c-0.24-0.02-0.46-0.08-0.68-0.2l-6.85-3.89l-0.58-1.26l-1.19,0.25l-12.9-7.33
	c-0.24-0.13-0.36-0.37-0.37-0.6h-0.01v-9.31h1.94l7.05,3.74c0.44-0.24,0.98-0.24,1.41,0L45.9,72.11z"/>
<polygon fill="#2B2B2B" points="38.57,22.08 38.55,22.09 38.55,22.08 "/>
<path fill="#615A57" d="M47.42,65.81v14.51c-0.29-0.02-0.57-0.1-0.84-0.25l-26.7-15.17c-0.29-0.16-0.44-0.45-0.45-0.75h-0.01v-1.95
	h2.4l8.75-4.97c0.54-0.3,1.21-0.3,1.75,0L47.42,65.81z"/>
<path fill="#463F3A" d="M59.78,71.37v2h-0.01c-0.02,0.24-0.14,0.48-0.39,0.62L48.7,80.07c-0.4,0.22-0.84,0.31-1.28,0.25V65.81
	l9.79,5.56H59.78z"/>
<path fill="#6D6C6B" d="M46.58,78.17l-17.62-10l-0.11-1.38l-1.57,0.42l-7.39-4.2c-0.62-0.35-0.62-1.24,0-1.59l10.68-6.06
	c0.55-0.31,1.21-0.31,1.76,0l27.07,15.37c0.53,0.3,0.53,1.07,0,1.38l-2.5,1.42l-1.31-0.17l-0.44,1.16l-6.46,3.67
	C48.04,78.54,47.23,78.54,46.58,78.17z"/>
<polygon fill="#282725" points="59.05,-11.72 32.09,-27.03 44.08,-33.83 71.04,-18.53 "/>
<g>
	<g>
		<path fill="#392D21" d="M78.18,48.7h1.01L79,51.68l-0.24,0.23v0.99l-0.22,0.6c0,0-0.4-4.62-0.36-4.79V48.7z"/>
		<path fill="#EFB065" d="M79.41,48.87c0.77-0.45,0.09-2.67,0-2.13c-0.08,0.54-0.73,0.89-0.62,0.02c0.12-0.86-0.62-2.4-0.49-2.11
			c0.13,0.29,0.15,0.69-0.19,1.65c-0.34,0.96-0.99,1.64,0,2.58C78.11,48.88,78.65,49.33,79.41,48.87z"/>
		<path fill="#F15A2E" d="M78.99,48.61c0.41-0.21,0.05-1.24,0-0.99c-0.04,0.25-0.4,0.41-0.33,0.01c0.07-0.4-0.33-1.11-0.26-0.98
			s0.08,0.31-0.1,0.76s-0.53,0.77,0,1.2C78.3,48.61,78.58,48.82,78.99,48.61z"/>
	</g>
	<path fill="#414140" d="M77.89,50.36c0.34,0.71,1.56,0.51,1.56,0.51v-0.71c-1.11,0.17-1.56-0.54-1.56-0.54V50.36z"/>
</g>
<circle opacity="0.33" fill="#EFB065" enable-background="new    " cx="78.68" cy="46.96" r="3.29"/>
<g>
	<g>
		<path fill="#392D21" d="M47.29,29.94h1.01l-0.19,2.98l-0.24,0.23v0.99l-0.22,0.6c0,0-0.4-4.62-0.36-4.79V29.94z"/>
		<path fill="#EFB065" d="M48.52,30.11c0.77-0.45,0.09-2.67,0-2.13c-0.08,0.54-0.73,0.89-0.62,0.02c0.12-0.86-0.62-2.4-0.49-2.11
			s0.15,0.69-0.19,1.65s-0.99,1.64,0,2.58C47.22,30.12,47.76,30.57,48.52,30.11z"/>
		<path fill="#F15A2E" d="M48.1,29.85c0.41-0.21,0.05-1.24,0-0.99c-0.04,0.25-0.4,0.41-0.33,0.01s-0.33-1.11-0.26-0.98
			s0.08,0.31-0.1,0.76s-0.53,0.77,0,1.2C47.41,29.85,47.69,30.06,48.1,29.85z"/>
	</g>
	<path fill="#414140" d="M47,31.6c0.34,0.71,1.56,0.51,1.56,0.51V31.4C47.45,31.57,47,30.86,47,30.86V31.6z"/>
</g>
<circle opacity="0.33" fill="#EFB065" enable-background="new    " cx="47.79" cy="28.2" r="3.29"/>
<g>
	<polygon fill="#B7B7B7" points="-31.97,9.94 -31.26,3.08 -33.28,-1.64 -33.28,9.94 	"/>
	<polygon fill="#D3D3D3" points="-34.59,9.94 -35.31,3.08 -33.29,-1.64 -33.29,9.94 	"/>
	<rect x="-36.53" y="9.94" fill="#999999" width="6.51" height="0.77"/>
	
		<rect x="-36.53" y="12.74" transform="matrix(-1.836970e-16 1 -1 -1.836970e-16 -19.3191 47.234)" fill="#D85540" width="6.51" height="2.43"/>
	<circle fill="#999999" cx="-33.29" cy="16.29" r="1.52"/>
</g>
<g>
	<polygon fill="#B7B7B7" points="46.38,70.92 47.4,67.77 46.92,65.36 45.77,70.79 	"/>
	<polygon fill="#D3D3D3" points="45.15,70.66 45.5,67.37 46.92,65.36 45.76,70.79 	"/>
	
		<rect x="44.17" y="70.78" transform="matrix(0.9782 0.2075 -0.2075 0.9782 15.7251 -7.9459)" fill="#999999" width="3.12" height="0.37"/>
	
		<rect x="43.81" y="72.09" transform="matrix(-0.2075 0.9782 -0.9782 -0.2075 125.8761 43.3781)" fill="#D85540" width="3.12" height="1.16"/>
	<circle fill="#999999" cx="45.13" cy="73.77" r="0.73"/>
</g>
<ellipse fill="#AE2A32" cx="38.48" cy="67.89" rx="3.49" ry="2.03"/>
<ellipse fill="#AE2A32" cx="39.26" cy="63.88" rx="1.57" ry="0.92"/>
<ellipse fill="#661D26" cx="67.68" cy="58.28" rx="1.13" ry="0.66"/>
<ellipse fill="#661D26" cx="63.69" cy="58.28" rx="1.7" ry="0.99"/>
<g>
	<path fill="#284850" d="M31.42,54.58v6.07c0,0-1.09-0.02-1.73-0.64c-0.1-0.09,0-0.6,0-0.6s-1.81-1.5-1.41-4.41"/>
	<path fill="#284850" d="M31.42,54.58v6.07c0,0,1.09-0.02,1.73-0.64c0.1-0.09,0-0.6,0-0.6s1.81-1.5,1.41-4.41"/>
	<ellipse fill="#35585F" cx="31.42" cy="55" rx="3.14" ry="1.53"/>
	<ellipse fill="#183035" cx="31.42" cy="55" rx="2.7" ry="1.15"/>
</g>
<g>
	<path fill="#5F2E24" d="M28.96,58.93v4.73c0,0-0.81-0.02-1.28-0.5c-0.07-0.07,0-0.47,0-0.47s-1.35-1.17-1.05-3.44"/>
	<path fill="#5F2E24" d="M28.96,58.93v4.73c0,0,0.81-0.02,1.28-0.5c0.07-0.07,0-0.47,0-0.47s1.35-1.17,1.05-3.44"/>
	<ellipse fill="#6E3B31" cx="28.96" cy="59.26" rx="2.33" ry="1.19"/>
	<ellipse fill="#442019" cx="28.96" cy="59.26" rx="2.01" ry="0.89"/>
</g>
<path fill="#E2A586" d="M65.22,39.39c-0.72-0.52-0.79-0.96-0.6-2.03c0.05-0.31,0.65-0.98,0.86-1.13c1.47-1.12,2.57,0.1,3.12,1.2
	c0.29,0.57,0.2,0.93-0.58,2.19c-0.76,1.22-0.84,4.14-0.68,5.72c0.12,1.24-2.75,1.98-3.05-0.01C63.69,41.29,65.44,39.55,65.22,39.39z
	"/>
<path fill="#E2A586" d="M65.33,39.93c-1.07-0.73-2.41-1.31-2.74-2.25c-0.36-1.01,0.3-2.34-0.48-2.23c-0.72,0.1-1.24,1.79,0,3.36
	c1.23,1.57,1.54,1.27,2.53,2.38c0.99,1.11,0.73-1.23,0.73-1.23L65.33,39.93z"/>
<path fill="none" stroke="#6D4B2E" stroke-width="0.75" stroke-miterlimit="10" d="M62.45,50.36c0,0-7.56-3.66-9.53-6.83"/>
<path fill="#E2A586" d="M67.56,40.36c1.28,0.46,2.64,1.23,3.59,0.94c1.03-0.31,1.6-1.67,2.05-0.94c0.41,0.67-0.55,2.12-2.6,2.03
	c-2.04-0.09-2.02-0.53-3.55-0.68c-1.53-0.16,0.65-1.48,0.65-1.48"/>
<path fill="#E2A586" d="M64.84,44.14c0,0-1.79,2.76-2.56,5.87s0.74,1.72,0.99,0.64c0.25-1.08,3.05-5.45,3.05-5.45L64.84,44.14z"/>
<path fill="#E2A586" d="M67.28,44.82c0,0,0.9,3.4,0.93,4.7c0.02,1.29,0.12,4.12-0.33,4.9c-0.45,0.78-1.05-1.56-0.83-2.71
	c0.22-1.14-1.33-5.49-1.33-5.49L67.28,44.82z"/>
<path fill="#7C5F43" d="M67.38,37.77c-0.56,0.37-0.57,0.22-1.15-0.49s-1.56,0.17-1.48-0.62c0.07-0.76,2.2-2.19,2.8-1.24
	c0.6,0.94,1.82,0.05,1.7,1.26c-0.12,1.21,0.07,1.7-0.19,2.39s-0.61,0.53-1.04,0.56c-0.43,0.03-0.75-0.39-0.23-0.68
	C68.64,38.45,68.04,37.33,67.38,37.77z"/>
<path fill="#6D4B2E" d="M67.28,43.53c0.22,0.39-2.03,1.73-3.08,0.31c-0.21-0.28-0.93,1.19-0.8,1.96c0.13,0.77,1.25,0.02,1.2,0.72
	c-0.09,1.39,1.5,0.77,1.5,0.77s-0.13-0.65,0.08-1.02c0.21-0.37,1.28-0.04,1.46,0.5C67.82,47.31,68.29,45.65,67.28,43.53z"/>
<path fill="#E2A586" d="M62.14,50.81c0,0-1.81,0.33-1.54,0.97c0.27,0.65,1.81,0.56,2.23-0.18C63.26,50.86,62.14,50.81,62.14,50.81z"
	/>
<path fill="#E2A586" d="M67.03,53.07c0,0-0.19,1.66,1.19,1.59C69.59,54.6,68.97,53.59,67.03,53.07z"/>
<path fill="#6D4B2E" d="M61.71,38.37c0,0-0.31-0.11-0.25-0.45s0.97-0.07,1.04-0.46c0.08-0.39,0.37,0.3,0.13,0.46
	C62.41,38.07,62.05,38.48,61.71,38.37z"/>
<path fill="#6D4B2E" d="M70.96,41.43c0,0,0.03-0.36,0.43-0.4c0.4-0.03,0.36,1.02,0.81,0.99c0.45-0.03-0.22,0.48-0.47,0.28
	C71.49,42.09,70.94,41.82,70.96,41.43z"/>
<path fill="#6D4B2E" d="M67,53.39c0,0-0.27-0.23-0.08-0.51c0.19-0.29,1.01,0.34,1.23,0.01c0.22-0.32,0.26,0.42-0.04,0.47
	C67.82,53.41,67.3,53.62,67,53.39z"/>
<path fill="#6D4B2E" d="M63.06,51.33c0,0,0.33-0.12,0.25-0.44c-0.08-0.33-1.05-0.03-1.14-0.4c-0.09-0.37-0.39,0.3-0.13,0.44
	C62.3,51.07,62.7,51.45,63.06,51.33z"/>
</svg>
