<?xml version="1.0" encoding="utf-8"?>
<!-- Generator: Adobe Illustrator 25.0.1, SVG Export Plug-In . SVG Version: 6.00 Build 0)  -->
<svg version="1.1" id="Layer_1" xmlns="http://www.w3.org/2000/svg" xmlns:xlink="http://www.w3.org/1999/xlink" x="0px" y="0px"
	 viewBox="0 0 100 100" style="enable-background:new 0 0 100 100;" xml:space="preserve">
<style type="text/css">
	.st0{fill:#FFFFFF;}
</style>
<path class="st0" d="M55.7,33.2c-8.7-2.4-31.1-5-21.7,7.5c1.2,1.7,3.1,3.2,5.3,4.6c1,1.6,2,3.1,2.4,4c0,0.1,0.1,0.2,0.2,0.3
	c-4.4,6.5-5.6,11.7-4.9,15.2c0.4,2.6,2,4.3,3.8,5c5.2,1.9,8.5,0.6,10.5-2.1c2.6-3.5,3.2-9.2,3.4-13.7c0.1-0.1,0.3-0.1,0.4-0.2
	c0.9-0.6,2.6-1.1,4.4-1.3c6.5,1.2,12.1,1.4,13.9,0.1C77.7,49.5,64.4,35.6,55.7,33.2z"/>
</svg>
