<?xml version="1.0" encoding="utf-8"?>
<!-- Generator: Adobe Illustrator 25.0.1, SVG Export Plug-In . SVG Version: 6.00 Build 0)  -->
<svg version="1.1" id="Layer_1" xmlns="http://www.w3.org/2000/svg" xmlns:xlink="http://www.w3.org/1999/xlink" x="0px" y="0px"
	 viewBox="0 0 100 100" style="enable-background:new 0 0 100 100;" xml:space="preserve">
<style type="text/css">
	.st0{fill:#BD703B;}
	.st1{fill:#D9996F;}
	.st2{fill:#D27F40;}
	.st3{fill:#553824;}
</style>
<path class="st0" d="M50.3,77.2c-3.2,4.2-8.3,6.2-16.5,3.3c-2.8-1-5.2-3.7-5.9-7.8c-1.2-6.6,1.6-17,12.6-30.2
	c17.8-21.6,15.6-3.2,15.2,4.6C55.5,52.1,56.6,68.9,50.3,77.2z"/>
<path class="st1" d="M25.8,34c0,0,7.9,10.7,9.5,14.4s17,9.8,20.9,7s17.9-3,17.9-3L25.8,34z"/>
<path class="st2" d="M23.2,35c11,14.9,54.6,23.3,61.6,18.5S70.9,26.9,57.2,23.2S8.5,15.3,23.2,35z"/>
<ellipse transform="matrix(0.2878 -0.9577 0.9577 0.2878 -2.3086 61.8019)" class="st1" cx="40.4" cy="32.5" rx="3.8" ry="4.9"/>
<ellipse transform="matrix(0.7857 -0.6186 0.6186 0.7857 -10.1387 50.137)" class="st1" cx="67.3" cy="39.7" rx="4.7" ry="7.8"/>
<path class="st3" d="M50.3,77.2c-3.2,4.2-8.3,6.2-16.5,3.3c-2.8-1-5.2-3.7-5.9-7.8c0,0,5.1-1.6,7.2,0.3c2,1.8-0.1,2.9,3.3,2.9
	C41.8,75.8,47.5,74.7,50.3,77.2z"/>
</svg>
