<?xml version="1.0" encoding="utf-8"?>
<!-- Generator: Adobe Illustrator 25.0.1, SVG Export Plug-In . SVG Version: 6.00 Build 0)  -->
<svg version="1.1" id="Layer_1" xmlns="http://www.w3.org/2000/svg" xmlns:xlink="http://www.w3.org/1999/xlink" x="0px" y="0px"
	 viewBox="0 0 100 100" style="enable-background:new 0 0 100 100;" xml:space="preserve">
<style type="text/css">
	.st0{fill:#E4A4B8;}
	.st1{fill:#FAC3C7;}
	.st2{fill:#F0B1C1;}
	.st3{fill:#D193AC;}
	.st4{fill:#BF839D;}
	.st5{fill:#956884;}
	.st6{fill:#A67290;}
</style>
<polyline class="st0" points="21.2,33.5 21.2,33.5 50.5,17.5 79.8,33.5 79.8,67.1 50.5,84 21.2,67.1 21.2,67.1 21.2,33.5 "/>
<polygon class="st1" points="69.3,61.4 31.7,61.4 50.5,29.2 "/>
<polygon class="st0" points="50.5,17.5 50.5,29.2 21.2,33.5 "/>
<polygon class="st2" points="50.5,29.2 31.7,61.4 21.2,33.5 "/>
<polygon class="st3" points="50.5,84 21.2,67.1 31.7,61.4 "/>
<polygon class="st0" points="21.2,33.5 21.2,67.1 31.7,61.4 "/>
<polygon class="st4" points="69.3,61.4 50.5,84 31.7,61.4 "/>
<polygon class="st3" points="50.5,17.5 50.5,29.2 79.8,33.5 "/>
<polygon class="st4" points="79.8,33.5 69.3,61.4 50.5,29.2 "/>
<polygon class="st5" points="79.8,67.1 50.5,84 69.3,61.4 "/>
<polygon class="st6" points="79.8,33.5 79.8,67.1 69.3,61.4 "/>
</svg>
