<?xml version="1.0" encoding="utf-8"?>
<!-- Generator: Adobe Illustrator 25.0.1, SVG Export Plug-In . SVG Version: 6.00 Build 0)  -->
<svg version="1.1" id="Layer_1" xmlns="http://www.w3.org/2000/svg" xmlns:xlink="http://www.w3.org/1999/xlink" x="0px" y="0px"
	 viewBox="0 0 100 100" enable-background="new 0 0 100 100" xml:space="preserve">
<path fill="#856849" d="M46.4,99L2.5,74.3c-0.9-0.5-1.4-1.1-1.5-1.8c-0.1-0.8,0.4-1.7,1.5-2.3l43.9-24.7c2-1.1,5.2-1.1,7.2,0
	l43.9,24.7c2,1.1,2,2.9,0,4.1L53.6,99C51.6,100.2,48.4,100.2,46.4,99z"/>
<polygon fill="#856849" points="1,68 99,67.8 99,72.3 1,72.6 "/>
<path fill="#3A2D18" d="M46.4,94.5L2.5,69.8c-2-1.1-2-2.9,0-4.1L46.4,41c2-1.1,5.2-1.1,7.2,0l43.9,24.7c2,1.1,2,2.9,0,4.1L53.6,94.5
	C51.6,95.6,48.4,95.6,46.4,94.5z"/>
<path fill="#52412B" d="M46.8,90.5L8.3,68.8c-1.8-1-1.8-2.6,0-3.6l38.5-21.7c1.8-1,4.6-1,6.4,0l38.6,21.7c1.8,1,1.8,2.6,0,3.6
	L53.2,90.5C51.4,91.5,48.6,91.5,46.8,90.5z"/>
<g>
	<polygon fill="#5C462C" points="-70.5,29.8 -40,46.6 -43,53.8 -71.6,37.4 	"/>
	
		<ellipse transform="matrix(0.3567 -0.9342 0.9342 0.3567 -73.5783 -6.3342)" fill="#937855" cx="-41.39" cy="50.26" rx="3.9" ry="3.4"/>
	
		<ellipse transform="matrix(0.3567 -0.9342 0.9342 0.3567 -73.5783 -6.3342)" fill="#A58A6D" cx="-41.39" cy="50.26" rx="2.9" ry="2.6"/>
	
		<ellipse transform="matrix(0.3567 -0.9342 0.9342 0.3567 -73.5783 -6.3342)" fill="#937855" cx="-41.39" cy="50.26" rx="2" ry="1.7"/>
	<path fill="#5C462C" d="M-68.1,34.4c0.6-2.1-0.4-4.2-2.2-4.7s-6,0.5-6.6,2.6s2.8,4.6,4.5,5.1C-70.5,37.9-68.6,36.5-68.1,34.4z"/>
	
		<ellipse transform="matrix(0.3567 -0.9342 0.9342 0.3567 -73.5783 -6.3342)" fill="#A58A6D" cx="-41.39" cy="50.26" rx="1.2" ry="1"/>
</g>
<g>
	<path fill="#472E25" d="M47.29,86.94L14.62,68.53c-1.53-0.85-1.53-2.21,0-3.06l32.68-18.42c1.53-0.85,3.9-0.85,5.43,0l32.76,18.42
		c1.53,0.85,1.53,2.21,0,3.06L52.72,86.94C51.2,87.79,48.82,87.79,47.29,86.94z"/>
	<ellipse fill="#613C2F" cx="23.86" cy="70.02" rx="2.93" ry="1.7"/>
	<ellipse fill="#613C2F" cx="63.52" cy="75.21" rx="1.7" ry="1.04"/>
	<ellipse fill="#613C2F" cx="78.22" cy="64.03" rx="1.7" ry="1.04"/>
	<ellipse fill="#613C2F" cx="49.9" cy="84.11" rx="1.7" ry="1.04"/>
	<ellipse fill="#613C2F" cx="38.87" cy="61.53" rx="1.7" ry="1.04"/>
	<ellipse fill="#613C2F" cx="75.2" cy="70.11" rx="2.93" ry="1.7"/>
</g>
<polygon fill="#675233" points="-77.3,33.3 -47.4,50 -49.6,57.3 -79.2,40.7 "/>
<ellipse transform="matrix(0.3567 -0.9342 0.9342 0.3567 -81.1652 -10.4144)" fill="#937855" cx="-48.14" cy="53.73" rx="3.9" ry="3.4"/>
<ellipse transform="matrix(0.3567 -0.9342 0.9342 0.3567 -81.1652 -10.4144)" fill="#A58A6D" cx="-48.14" cy="53.73" rx="2.9" ry="2.6"/>
<ellipse transform="matrix(0.3567 -0.9342 0.9342 0.3567 -81.1652 -10.4144)" fill="#937855" cx="-48.14" cy="53.73" rx="2" ry="1.7"/>
<ellipse transform="matrix(0.2555 -0.9668 0.9668 0.2555 -93.8003 -47.6924)" fill="#675233" cx="-77.87" cy="37.06" rx="3.9" ry="3.2"/>
<ellipse transform="matrix(0.3567 -0.9342 0.9342 0.3567 -81.1652 -10.4144)" fill="#A58A6D" cx="-48.14" cy="53.73" rx="1.2" ry="1"/>
<g>
	<polygon fill="#776043" points="-75.3,25.7 -45.5,42.4 -48.6,49.5 -78.1,33.1 	"/>
	
		<ellipse transform="matrix(0.3567 -0.9342 0.9342 0.3567 -73.1201 -14.2246)" fill="#937855" cx="-46.89" cy="45.98" rx="3.9" ry="3.4"/>
	
		<ellipse transform="matrix(0.3567 -0.9342 0.9342 0.3567 -73.1201 -14.2246)" fill="#A58A6D" cx="-46.89" cy="45.98" rx="2.9" ry="2.6"/>
	
		<ellipse transform="matrix(0.3567 -0.9342 0.9342 0.3567 -73.1201 -14.2246)" fill="#937855" cx="-46.89" cy="45.98" rx="2" ry="1.7"/>
	
		<ellipse transform="matrix(0.2555 -0.9668 0.9668 0.2555 -85.5474 -52.3333)" fill="#776043" cx="-76.75" cy="29.38" rx="4" ry="3.3"/>
	
		<ellipse transform="matrix(0.3567 -0.9342 0.9342 0.3567 -73.1201 -14.2246)" fill="#A58A6D" cx="-46.89" cy="45.98" rx="1.2" ry="1"/>
</g>
<polygon fill="#7E421A" points="27.8,58.7 46,68.7 44.2,72.9 27.2,63.2 "/>
<polygon fill="#8A4F28" points="23.8,60.8 41.5,70.7 40.2,75.1 22.7,65.2 "/>
<ellipse transform="matrix(0.2555 -0.9668 0.9668 0.2555 -43.5334 69.5334)" fill="#8A4F28" cx="23.38" cy="63.03" rx="2.3" ry="1.9"/>
<g>
	
		<ellipse transform="matrix(0.3567 -0.9342 0.9342 0.3567 -37.1447 88.0124)" fill="#B76B3E" cx="45.34" cy="70.98" rx="2.4" ry="1.6"/>
	
		<ellipse transform="matrix(0.3567 -0.9342 0.9342 0.3567 -37.1447 88.0124)" fill="#C97C55" cx="45.34" cy="70.98" rx="1.8" ry="1.2"/>
	
		<ellipse transform="matrix(0.3567 -0.9342 0.9342 0.3567 -37.1447 88.0124)" fill="#B76B3E" cx="45.34" cy="70.98" rx="1.2" ry="0.8"/>
	
		<ellipse transform="matrix(0.3567 -0.9342 0.9342 0.3567 -37.1447 88.0124)" fill="#C97C55" cx="45.34" cy="70.98" rx="0.7" ry="0.5"/>
</g>
<g>
	
		<ellipse transform="matrix(0.3567 -0.9342 0.9342 0.3567 -41.7361 85.8931)" fill="#B76B3E" cx="41.5" cy="73.25" rx="2.4" ry="1.6"/>
	
		<ellipse transform="matrix(0.3567 -0.9342 0.9342 0.3567 -41.7361 85.8931)" fill="#C97C55" cx="41.5" cy="73.25" rx="1.8" ry="1.2"/>
	
		<ellipse transform="matrix(0.3567 -0.9342 0.9342 0.3567 -41.7361 85.8931)" fill="#B76B3E" cx="41.5" cy="73.25" rx="1.2" ry="0.8"/>
	
		<ellipse transform="matrix(0.3567 -0.9342 0.9342 0.3567 -41.7361 85.8931)" fill="#C97C55" cx="41.5" cy="73.25" rx="0.7" ry="0.5"/>
</g>
<g>
	<polygon fill="#6B553F" points="57.4,54.9 46.8,61.2 45,60.1 55,53.8 	"/>
	<polygon fill="#6B553F" points="54.3,53.1 43.8,59.4 41.9,58.2 51.9,52 	"/>
	<polygon fill="#6B553F" points="60,56.5 51.1,62.6 49.4,61.7 57.9,55.7 	"/>
	<polygon fill="#6B553F" points="63.5,58.7 53.2,64.8 51.3,63.8 61,57.3 	"/>
	<polygon fill="#6B553F" points="49.5,51.8 40.3,57.5 38.6,56.5 47.4,50.8 	"/>
	<polygon fill="#6B553F" points="67.6,60.5 56.8,66.5 55,65.2 65.3,59.4 	"/>
	<polygon fill="#6B553F" points="72.4,62.1 62.7,67.9 60.9,66.9 70.2,61.2 	"/>
	<polygon fill="#6B553F" points="75.2,64.5 66,70.9 64.1,69.9 73.5,63.1 	"/>
</g>
<path fill="#3A2D18" d="M49.8,68.9l-2.9-1.6c-0.1-0.1-0.1-0.2,0-0.3l2.9-1.6c0.1-0.1,0.3-0.1,0.5,0l2.9,1.6c0.1,0.1,0.1,0.2,0,0.3
	l-2.9,1.6C50.2,69,50,69,49.8,68.9z"/>
<path fill="#3A2D18" d="M69.1,58.4l-2.9-1.6c-0.1-0.1-0.1-0.2,0-0.3l2.9-1.6c0.1-0.1,0.3-0.1,0.5,0l2.9,1.6c0.1,0.1,0.1,0.2,0,0.3
	l-2.9,1.6C69.4,58.4,69.2,58.4,69.1,58.4z"/>
<path fill="#3A2D18" d="M30.7,58.4l-2.9-1.6c-0.1-0.1-0.1-0.2,0-0.3l2.9-1.6c0.1-0.1,0.4-0.1,0.5,0l2.9,1.6c0.1,0.1,0.1,0.2,0,0.3
	l-2.9,1.6C31.1,58.4,30.9,58.4,30.7,58.4z"/>
<g>
	<polygon fill="#6D5035" points="69.3,57.7 69.3,48.8 71.2,47.8 71.2,56.6 	"/>
	<polygon fill="#795A3F" points="69.3,57.7 69.3,48.8 67.4,47.8 67.4,56.6 	"/>
</g>
<g>
	<polygon fill="#6D5035" points="50.1,68.4 50.1,59.5 52,58.5 52,67.3 	"/>
	<polygon fill="#795A3F" points="50.1,68.4 50.1,59.5 48.2,58.5 48.2,67.3 	"/>
</g>
<g>
	<polygon fill="#6D5035" points="31,57.8 31,49 32.8,48 32.8,56.8 	"/>
	<polygon fill="#795A3F" points="31,57.8 31,49 29.1,48 29.1,56.8 	"/>
</g>
<polygon fill="#9B5834" points="47,48 64.7,57.9 62.9,62.1 45.3,52.4 "/>
<g>
	
		<ellipse transform="matrix(0.3567 -0.9342 0.9342 0.3567 -14.8129 98.7777)" fill="#B76B3E" cx="64.32" cy="60.14" rx="2.4" ry="1.6"/>
	
		<ellipse transform="matrix(0.3567 -0.9342 0.9342 0.3567 -14.8128 98.7775)" fill="#C97C55" cx="64.32" cy="60.14" rx="1.8" ry="1.2"/>
	
		<ellipse transform="matrix(0.3567 -0.9342 0.9342 0.3567 -14.8129 98.7777)" fill="#B76B3E" cx="64.32" cy="60.14" rx="1.2" ry="0.8"/>
	
		<ellipse transform="matrix(0.3567 -0.9342 0.9342 0.3567 -14.8128 98.778)" fill="#C97C55" cx="64.32" cy="60.14" rx="0.7" ry="0.5"/>
</g>
<polygon fill="#6D5035" points="73.6,45 73.3,46.8 50,59.2 51.2,56.5 72.9,44.9 "/>
<polygon fill="#61452E" points="69.5,41.9 69.3,43.1 54.1,51.3 54.9,49.5 69.1,41.9 "/>
<polygon fill="#6F5138" points="71,42.2 70.8,43.4 55.6,51.5 56.4,49.8 70.6,42.1 "/>
<path fill="#856849" d="M25.8,46.8L25.8,46.8c0.1,0.3,0.3,0.6,0.7,0.8l21.8,12.2c1,0.6,2.6,0.6,3.6,0l21.8-12.2
	c0.5-0.3,0.7-0.6,0.7-1s-0.2-0.7-0.7-1l-2-1.1L51.9,33.3c-1-0.6-2.6-0.6-3.6,0L27.9,44.7l-1.4,0.8c-0.4,0.2-0.6,0.5-0.7,0.8
	C25.8,46.5,25.8,46.6,25.8,46.8z M30,46.7L30,46.7c-0.9-0.5-0.9-1.3,0-1.8l0.4-0.2l19.2-10.8c0.9-0.5,2.3-0.5,3.2,0l18.7,10.5
	l0.8,0.5c0.8,0.5,0.9,1.2,0.2,1.7c-0.1,0.1-0.2,0.1-0.2,0.2l-19.5,11c-0.9,0.5-2.3,0.5-3.2,0L30,46.7z"/>
<path fill="#856849" d="M74.4,44.4v2.2l0,0h-0.8c0.3-0.5,0.2-1.2-0.1-1.7l-0.4-0.5h0.1H74.4z"/>
<path fill="#856849" d="M27.9,44.7h2.4L30,44.9c-0.9,0.5-0.9,1.3,0,1.8l0,0h-4.2l0,0v-0.4v-1.6H27.9z"/>
<path fill="#23544A" d="M68.4,40.7l-1.6-0.8c-1.3-0.6-2.8-0.1-3.6,1.1L49.5,58.3c-0.4,0-0.9-0.2-1.2-0.4L26.5,45.7
	c-0.8-0.4-0.9-1.1-0.5-1.7l0,0l12.9-16.8c0.8-1.2,2.3-1.6,3.6-1.1l8.9,5h0.1l6.8,3.8L68.4,40.7z"/>
<path fill="#856849" d="M63.2,40.9c0.8-1.2,2.3-1.6,3.6-1.1l1.7,0.8l5.2,2.9c0.4,0.2,0.6,0.5,0.7,0.7c0.2,0.5-0.1,0.9-0.7,1.3
	l-0.2,0.1L68.9,43L67,42.3c-1.4-0.6-3-0.1-3.9,1.1L51.7,58c-0.4,0.2-0.9,0.3-1.4,0.3c-0.3,0-0.5,0-0.8,0L63.2,40.9z"/>
<g>
	<path fill="none" stroke="#1C4235" stroke-width="0.3916" stroke-miterlimit="10" d="M48.5,32.3"/>
	<path fill="none" stroke="#1C4235" stroke-width="0.3916" stroke-miterlimit="10" d="M45.5,33.2c-0.6,1-1.9,1.4-3,0.8
		s-1.4-1.9-0.8-3"/>
	<path fill="none" stroke="#1C4235" stroke-width="0.3916" stroke-miterlimit="10" d="M42.5,34c-0.6,1-1.9,1.4-3,0.8s-1.4-1.9-0.8-3
		"/>
	<path fill="none" stroke="#1C4235" stroke-width="0.3916" stroke-miterlimit="10" d="M46.4,36.1c-0.6,1-1.9,1.4-3,0.8
		s-1.4-1.9-0.8-3"/>
	<path fill="none" stroke="#1C4235" stroke-width="0.3916" stroke-miterlimit="10" d="M43.4,37c-0.6,1-1.9,1.4-3,0.8s-1.4-1.9-0.8-3
		"/>
	<path fill="none" stroke="#1C4235" stroke-width="0.3916" stroke-miterlimit="10" d="M40.4,37.8c-0.6,1-1.9,1.4-3,0.8
		s-1.4-1.9-0.8-3"/>
	<path fill="none" stroke="#1C4235" stroke-width="0.3916" stroke-miterlimit="10" d="M50.2,38.2c-0.6,1-1.9,1.4-3,0.8
		s-1.4-1.9-0.8-3"/>
	<path fill="none" stroke="#1C4235" stroke-width="0.3916" stroke-miterlimit="10" d="M47.2,39.1c-0.6,1-1.9,1.4-3,0.8
		s-1.4-1.9-0.8-3"/>
	<path fill="none" stroke="#1C4235" stroke-width="0.3916" stroke-miterlimit="10" d="M44.2,40c-0.6,1-1.9,1.4-3,0.8s-1.4-1.9-0.8-3
		"/>
	<path fill="none" stroke="#1C4235" stroke-width="0.3916" stroke-miterlimit="10" d="M41.3,40.8c-0.6,1-1.9,1.4-3,0.8
		s-1.4-1.9-0.8-3"/>
	<path fill="none" stroke="#1C4235" stroke-width="0.3916" stroke-miterlimit="10" d="M38.3,41.7c-0.6,1-1.9,1.4-3,0.8
		s-1.4-1.9-0.8-3"/>
	<path fill="none" stroke="#1C4235" stroke-width="0.3916" stroke-miterlimit="10" d="M35.4,42.5c-0.6,1-1.9,1.4-3,0.8
		s-1.4-1.9-0.9-3"/>
	<path fill="none" stroke="#1C4235" stroke-width="0.3916" stroke-miterlimit="10" d="M59.9,38.7c-0.6,1-1.9,1.4-3,0.8
		s-1.4-1.9-0.8-3"/>
	<path fill="none" stroke="#1C4235" stroke-width="0.3916" stroke-miterlimit="10" d="M57,39.5c-0.6,1-1.9,1.4-3,0.8s-1.4-1.9-0.8-3
		"/>
	<path fill="none" stroke="#1C4235" stroke-width="0.3916" stroke-miterlimit="10" d="M54,40.4c-0.6,1-1.9,1.4-3,0.8s-1.4-1.9-0.8-3
		"/>
	<path fill="none" stroke="#1C4235" stroke-width="0.3916" stroke-miterlimit="10" d="M51,41.2c-0.6,1-1.9,1.4-3,0.8s-1.4-1.9-0.8-3
		"/>
	<path fill="none" stroke="#1C4235" stroke-width="0.3916" stroke-miterlimit="10" d="M48.1,42.1c-0.6,1-1.9,1.4-3,0.8
		s-1.4-1.9-0.8-3"/>
	<path fill="none" stroke="#1C4235" stroke-width="0.3916" stroke-miterlimit="10" d="M45.1,42.9c-0.6,1-1.9,1.4-3,0.8
		s-1.4-1.9-0.8-3"/>
	<path fill="none" stroke="#1C4235" stroke-width="0.3916" stroke-miterlimit="10" d="M42.1,43.8c-0.6,1-1.9,1.4-3,0.8
		s-1.4-1.9-0.8-3"/>
	<path fill="none" stroke="#1C4235" stroke-width="0.3916" stroke-miterlimit="10" d="M39.2,44.6c-0.6,1-1.9,1.4-3,0.8
		s-1.4-1.9-0.8-3"/>
	<path fill="none" stroke="#1C4235" stroke-width="0.3916" stroke-miterlimit="10" d="M36.2,45.5c-0.6,1-1.9,1.4-3,0.8
		s-1.4-1.9-0.8-3"/>
	<path fill="none" stroke="#1C4235" stroke-width="0.3916" stroke-miterlimit="10" d="M57.8,42.5c-0.6,1-1.9,1.4-3,0.8
		s-1.4-1.9-0.8-3"/>
	<path fill="none" stroke="#1C4235" stroke-width="0.3916" stroke-miterlimit="10" d="M54.8,43.3c-0.6,1-1.9,1.4-3,0.8
		s-1.4-1.9-0.8-3"/>
	<path fill="none" stroke="#1C4235" stroke-width="0.3916" stroke-miterlimit="10" d="M51.9,44.2c-0.6,1-1.9,1.4-3,0.8
		s-1.4-1.9-0.8-3"/>
	<path fill="none" stroke="#1C4235" stroke-width="0.3916" stroke-miterlimit="10" d="M48.9,45c-0.6,1-1.9,1.4-3,0.8s-1.4-1.9-0.8-3
		"/>
	<path fill="none" stroke="#1C4235" stroke-width="0.3916" stroke-miterlimit="10" d="M46,45.9c-0.6,1-1.9,1.4-3,0.8s-1.4-1.9-0.8-3
		"/>
	<path fill="none" stroke="#1C4235" stroke-width="0.3916" stroke-miterlimit="10" d="M43,46.7c-0.6,1-1.9,1.4-3,0.8s-1.4-1.9-0.8-3
		"/>
	<path fill="none" stroke="#1C4235" stroke-width="0.3916" stroke-miterlimit="10" d="M40,47.6c-0.6,1-1.9,1.4-3,0.8s-1.4-1.9-0.8-3
		"/>
	<path fill="none" stroke="#1C4235" stroke-width="0.3916" stroke-miterlimit="10" d="M55.7,46.3c-0.6,1-1.9,1.4-3,0.8
		s-1.4-1.9-0.8-3"/>
	<path fill="none" stroke="#1C4235" stroke-width="0.3916" stroke-miterlimit="10" d="M52.7,47.1c-0.6,1-1.9,1.4-3,0.8
		s-1.4-1.9-0.8-3"/>
	<path fill="none" stroke="#1C4235" stroke-width="0.3916" stroke-miterlimit="10" d="M49.8,48c-0.6,1-1.9,1.4-3,0.8s-1.4-1.9-0.8-3
		"/>
	<path fill="none" stroke="#1C4235" stroke-width="0.3916" stroke-miterlimit="10" d="M46.8,48.8c-0.6,1-1.9,1.4-3,0.8
		s-1.4-1.9-0.8-3"/>
	<path fill="none" stroke="#1C4235" stroke-width="0.3916" stroke-miterlimit="10" d="M43.8,49.7c-0.6,1-1.9,1.4-3,0.8
		s-1.4-1.9-0.8-3"/>
	<path fill="none" stroke="#1C4235" stroke-width="0.3916" stroke-miterlimit="10" d="M53.6,50.1c-0.6,1-1.9,1.4-3,0.8
		s-1.4-1.9-0.8-3"/>
	<path fill="none" stroke="#1C4235" stroke-width="0.3916" stroke-miterlimit="10" d="M50.6,51c-0.6,1-1.9,1.4-3,0.8s-1.4-1.9-0.8-3
		"/>
	<path fill="none" stroke="#1C4235" stroke-width="0.3916" stroke-miterlimit="10" d="M47.7,51.8c-0.6,1-1.9,1.4-3,0.8
		s-1.4-1.9-0.8-3"/>
</g>
<polygon fill="#9B5834" points="25.5,56.8 43.2,66.7 41.4,70.9 23.9,61.2 "/>
<ellipse transform="matrix(0.2555 -0.9668 0.9668 0.2555 -38.5913 67.7593)" fill="#9B5834" cx="24.7" cy="58.94" rx="2.3" ry="1.9"/>
<g>
	
		<ellipse transform="matrix(0.3567 -0.9342 0.9342 0.3567 -36.8892 84.3802)" fill="#B76B3E" cx="42.83" cy="68.98" rx="2.4" ry="1.6"/>
	
		<ellipse transform="matrix(0.3567 -0.9342 0.9342 0.3567 -36.8892 84.3802)" fill="#C97C55" cx="42.83" cy="68.98" rx="1.8" ry="1.2"/>
	
		<ellipse transform="matrix(0.3567 -0.9342 0.9342 0.3567 -36.8892 84.3802)" fill="#B76B3E" cx="42.83" cy="68.98" rx="1.2" ry="0.8"/>
	
		<ellipse transform="matrix(0.3567 -0.9342 0.9342 0.3567 -36.8892 84.3802)" fill="#C97C55" cx="42.83" cy="68.98" rx="0.7" ry="0.5"/>
</g>
<polygon fill="#9B5834" points="58.7,69.4 41,79.3 42.8,83.6 60.4,73.8 "/>
<ellipse transform="matrix(0.9668 -0.2555 0.2555 0.9668 -16.313 17.6035)" fill="#9B5834" cx="59.6" cy="71.59" rx="1.9" ry="2.3"/>
<g>
	
		<ellipse transform="matrix(0.9342 -0.3567 0.3567 0.9342 -26.3871 20.1352)" fill="#B76B3E" cx="41.4" cy="81.61" rx="1.6" ry="2.4"/>
	
		<ellipse transform="matrix(0.9342 -0.3567 0.3567 0.9342 -26.3871 20.1352)" fill="#C97C55" cx="41.4" cy="81.61" rx="1.2" ry="1.8"/>
	
		<ellipse transform="matrix(0.9342 -0.3567 0.3567 0.9342 -26.3871 20.1352)" fill="#B76B3E" cx="41.4" cy="81.61" rx="0.8" ry="1.2"/>
	
		<ellipse transform="matrix(0.9342 -0.3567 0.3567 0.9342 -26.3871 20.1352)" fill="#C97C55" cx="41.4" cy="81.61" rx="0.5" ry="0.7"/>
</g>
</svg>
