<?xml version="1.0" encoding="utf-8"?>
<!-- Generator: Adobe Illustrator 25.0.1, SVG Export Plug-In . SVG Version: 6.00 Build 0)  -->
<svg version="1.1" id="Layer_1" xmlns="http://www.w3.org/2000/svg" xmlns:xlink="http://www.w3.org/1999/xlink" x="0px" y="0px"
	 viewBox="0 0 100 100" enable-background="new 0 0 100 100" xml:space="preserve">
<path fill="#7255A4" d="M22.9,44.26v20.67c0,1.74,1.09,3.16,2.61,3.99c11.97,6.62,24.76,14.95,49.21,0.01
	c1.45-0.89,2.53-2.27,2.53-3.97v-20.7H22.9z"/>
<path fill="#554184" d="M22.9,40.98v20.67c0,1.74,1.09,3.16,2.61,3.99c11.97,6.62,24.76,14.95,49.21,0.01
	c1.45-0.89,2.53-2.27,2.53-3.97v-20.7H22.9z"/>
<rect x="7.81" y="40.48" fill="#6386C4" width="84.55" height="2.32"/>
<path fill="#6386C4" d="M8.71,41.51l36.23-13.17c2.18-0.79,4.58-0.82,6.78-0.08l39.54,13.3c1.44,0.49,1.47,2.52,0.04,3.05
	L53.63,58.5c-2.29,0.85-4.81,0.85-7.1,0L8.7,44.55C7.29,44.03,7.3,42.03,8.71,41.51z"/>
<path fill="#7255A4" d="M8.71,38.99l36.23-13.17c2.18-0.79,4.58-0.82,6.78-0.08l39.54,13.3c1.44,0.49,1.47,2.52,0.04,3.05
	l-37.67,13.9c-2.29,0.85-4.81,0.85-7.1,0L8.7,42.02C7.29,41.5,7.3,39.5,8.71,38.99z"/>
<ellipse fill="#D9D67C" cx="50.08" cy="40.48" rx="5.74" ry="2.32"/>
<polyline fill="none" stroke="#D9D67C" stroke-width="2.5961" stroke-miterlimit="10" points="50.28,40.14 74.4,48.92 74.4,64.67 
	"/>
<circle fill="#D9D67C" cx="74.4" cy="64.67" r="2.37"/>
<path fill="#D9D67C" d="M72.32,65.87l-3.4,10.65c0,0,5.58,2.21,10.16,0l-2.6-10.65H72.32z"/>
</svg>
