<?xml version="1.0" encoding="utf-8"?>
<!-- Generator: Adobe Illustrator 25.0.1, SVG Export Plug-In . SVG Version: 6.00 Build 0)  -->
<svg version="1.1" id="Layer_1" xmlns="http://www.w3.org/2000/svg" xmlns:xlink="http://www.w3.org/1999/xlink" x="0px" y="0px"
	 viewBox="0 0 100 100" enable-background="new 0 0 100 100" xml:space="preserve">
<path fill="#FFFFFF" d="M50,17.43c-6.45,0-24.41,2.01-24.41,23c0,21,8.45,11.14,9.79,21S42.24,86.57,50,86.57
	s13.28-15.28,14.62-25.14c1.34-9.86,9.79,0,9.79-21C74.41,19.44,56.45,17.43,50,17.43z M51.62,43.36c0.74-0.41,0.95,1.23,2.68,1.95
	c1.72,0.72,0.2,2.75-1.28,1.83C51.55,46.21,50.76,43.83,51.62,43.36z M45.7,45.31c1.73-0.72,1.94-2.36,2.68-1.95
	c0.86,0.47,0.07,2.85-1.4,3.78C45.5,48.06,43.98,46.03,45.7,45.31z M38.48,44.43c-5.63,3.52-11.44-4.22-4.86-6.96
	c6.57-2.75,7.39-9.01,10.22-7.43C47.09,31.84,44.1,40.91,38.48,44.43z M55.99,58.4c-0.88,4.47-2.37,7.43-2.94,12.26
	c-0.58,4.83-1.77,6.27-3.05,6.27s-2.47-1.44-3.05-6.27c-0.57-4.83-2.06-7.79-2.94-12.26c-0.88-4.48,3.92-5.11,5.99-5.11
	S56.87,53.92,55.99,58.4z M61.52,44.43c-5.62-3.52-8.61-12.59-5.36-14.39c2.83-1.58,3.65,4.68,10.22,7.43
	C72.96,40.21,67.15,47.95,61.52,44.43z"/>
</svg>
