<?xml version="1.0" encoding="utf-8"?>
<!-- Generator: Adobe Illustrator 25.0.1, SVG Export Plug-In . SVG Version: 6.00 Build 0)  -->
<svg version="1.1" id="Layer_1" xmlns="http://www.w3.org/2000/svg" xmlns:xlink="http://www.w3.org/1999/xlink" x="0px" y="0px"
	 viewBox="0 0 100 100" enable-background="new 0 0 100 100" xml:space="preserve">
<radialGradient id="SVGID_1_" cx="50" cy="51.6093" r="48.7" gradientTransform="matrix(1 0 0 -1 0 102)" gradientUnits="userSpaceOnUse">
	<stop  offset="0" style="stop-color:#5570A0"/>
	<stop  offset="1" style="stop-color:#5276A0;stop-opacity:0"/>
</radialGradient>
<circle fill="url(#SVGID_1_)" cx="50" cy="50.39" r="48.7"/>
<g>
	<path fill="#C93B3A" d="M31.33,33.54c0,0-2.91,5.4-4.33,20.98c-0.26,2.91,0.33,5.86,1.88,8.34c1.48,2.36,3.78,4.44,7.05,3.31
		c6.53-2.27,1.16-25.71,1.16-25.71L31.33,33.54z"/>
	<path fill="#C93B3A" d="M68.95,33.54c0,0,2.91,5.4,4.33,20.98c0.26,2.91-0.33,5.86-1.88,8.34c-1.48,2.36-3.78,4.44-7.05,3.31
		c-6.53-2.27-1.16-25.71-1.16-25.71L68.95,33.54z"/>
	<path fill="#D65048" d="M65.16,72.65c0.11,1.36-0.56,2.66-1.72,3.38c-2.38,1.49-6.95,3.66-13.3,3.66c-6.16,0-10.38-1.78-12.62-3.07
		c-1.18-0.68-1.87-1.97-1.8-3.33l1.3-24.47c-0.33-7.27,0.93-10.54,0.93-10.54l2.9-4.73l9.29,0.53l9.29-0.53l2.9,4.73
		c0,0,1.26,3.27,0.93,10.54L65.16,72.65z"/>
	<path fill="#D65048" d="M39.44,26.25c0,0-10.32-0.63-14.62,7.29c0,0,11.47,6.69,12.24,10.11c0,0,4.9-2.33,9.7-8.54
		S39.44,26.25,39.44,26.25z"/>
	<path fill="#D65048" d="M60.85,26.25c0,0,10.84-0.72,15.14,7.19c0,0-11.94,7.46-12.71,10.88c0,0-4.94-3.01-9.74-9.23
		S60.85,26.25,60.85,26.25z"/>
	<path fill="#C93B3A" d="M55.76,22.25h-5.62h-5.62l-5.08,4c0,0,4.31,9.48,10.7,9.97c6.39-0.49,10.7-9.97,10.7-9.97L55.76,22.25z"/>
	<ellipse fill="#C93B3A" cx="50.14" cy="25.47" rx="7.2" ry="5.23"/>
	<ellipse fill="#2D2D2D" cx="50.14" cy="27.48" rx="7.2" ry="5.23"/>
	<path fill="none" d="M39.44,26.25"/>
	<polyline fill="none" stroke="#C93B3A" stroke-width="0.7889" stroke-miterlimit="10" points="40.22,77.61 40.73,72.93 
		38.99,67.89 41.91,62.18 40.04,55.27 43.84,48.91 41.53,41.71 44.72,36.61 42.99,30.23 	"/>
	<polyline fill="none" stroke="#C93B3A" stroke-width="0.7889" stroke-miterlimit="10" points="43.38,78.83 43.89,74.23 
		42.13,69.26 45.05,63.66 43.16,56.87 46.95,50.62 44.62,43.53 47.8,38.53 46.06,32.25 	"/>
	<polyline fill="none" stroke="#C93B3A" stroke-width="0.7889" stroke-miterlimit="10" points="59.88,77.61 59.37,72.93 
		61.11,67.89 58.19,62.18 60.07,55.27 56.26,48.91 58.58,41.71 55.38,36.61 57.11,30.23 	"/>
	<polyline fill="none" stroke="#C93B3A" stroke-width="0.7889" stroke-miterlimit="10" points="56.72,78.83 56.22,74.23 
		57.97,69.26 55.06,63.66 56.94,56.87 53.15,50.62 55.48,43.53 52.3,38.53 54.04,32.25 	"/>
</g>
</svg>
