<?xml version="1.0" encoding="utf-8"?>
<!-- Generator: Adobe Illustrator 25.0.1, SVG Export Plug-In . SVG Version: 6.00 Build 0)  -->
<svg version="1.1" id="Layer_1" xmlns="http://www.w3.org/2000/svg" xmlns:xlink="http://www.w3.org/1999/xlink" x="0px" y="0px"
	 viewBox="0 0 100 100" enable-background="new 0 0 100 100" xml:space="preserve">
<path fill="#E3E5C7" d="M75.04,45.64c0-13.83-11.21-25.04-25.04-25.04c-13.83,0-25.04,11.21-25.04,25.04c0,0.81,0.04,1.61,0.12,2.4
	h-0.02l1.29,13.53c0.14,1.47,0.84,2.83,1.96,3.79l3.51,3.02c1.27,1.08,2,2.67,2,4.33c0,1.32,0.45,2.56,1.22,3.54
	c0.01,0.01,0.02,0.03,0.04,0.04l-1.16,3.79c1.72,1.2,3.94,1.22,3.94,1.22l0.89-2.88l0.95,0.22l-0.51,4.04
	c1.91,0.88,4.1,0.51,4.1,0.51l0.45-3.65c0.53,0.11,1.06,0.2,1.59,0.27l-0.17,3.45c1.97,0.73,4.12,0.19,4.12,0.19l0.15-3.32
	c0.51,0.01,1.02,0.01,1.53-0.01l0.15,3.33c0,0,2.16,0.54,4.12-0.19l-0.16-3.51c0.52-0.07,1.05-0.17,1.57-0.27l0.46,3.72
	c0,0,2.2,0.36,4.1-0.51l-0.52-4.13l0.95-0.23l0.83,2.95c0,0,2.22,0.03,3.96-1.13l-1.21-4.27c0.6-0.9,0.95-2,0.95-3.16
	c0-1.66,0.73-3.25,2-4.33l3.51-3.02c1.12-0.96,1.82-2.31,1.96-3.79l1.29-13.53h-0.02C75,47.26,75.04,46.45,75.04,45.64z
	 M44.24,60.99c-1.92,1.3-12.9,1.91-12.9-3.11c-0.02-8.49,8.92-6.86,12.34-5.66C49.45,54.25,46.17,59.69,44.24,60.99z M50.27,70.68
	c-1.43,0-2.85-0.82-2.85-2.5c0-3.4,2.58-6.91,2.58-6.91s3.19,3.63,3.19,6.91c0,1.55-1.29,2.39-2.65,2.49
	C50.45,70.68,50.35,70.68,50.27,70.68z M55.88,60.99c-1.92-1.29-5.21-6.73,0.57-8.77c3.41-1.21,12.35-2.83,12.34,5.66
	C68.78,62.89,57.8,62.29,55.88,60.99z"/>
<path fill="none" stroke="#674C37" stroke-width="4" stroke-linecap="round" stroke-miterlimit="10" d="M26.95,63.61
	c0,0,33.44-16.63,43.38-32.58"/>
<path fill="#5B402E" d="M32.65,52.26c2.57-1.11,12.79-3.02,14.12-0.53C48.1,54.22,49.6,62,43.55,64.2
	c-6.05,2.2-10.81-1.31-12.2-2.95C29.96,59.61,30.7,53.1,32.65,52.26z"/>
</svg>
