<?xml version="1.0" encoding="utf-8"?>
<!-- Generator: Adobe Illustrator 25.0.1, SVG Export Plug-In . SVG Version: 6.00 Build 0)  -->
<svg version="1.1" id="Layer_1" xmlns="http://www.w3.org/2000/svg" xmlns:xlink="http://www.w3.org/1999/xlink" x="0px" y="0px"
	 viewBox="0 0 100 100" enable-background="new 0 0 100 100" xml:space="preserve">
<circle cx="142.17" cy="32.02" r="28.23"/>
<polygon points="114.06,34.73 115.77,52.57 123.94,59.6 123.94,67.64 142.17,71.98 142.17,32.02 "/>
<polygon points="170.28,34.73 168.57,52.57 160.4,59.6 160.4,67.64 142.17,71.98 142.17,32.02 "/>
<circle fill="#E3E5C7" cx="244.94" cy="32.02" r="28.23"/>
<path fill="#E3E5C7" d="M244.94,32.02l-28.11,2.71l1.46,15.26c0.16,1.66,0.95,3.19,2.21,4.27l3.96,3.4
	c1.42,1.22,2.24,3.01,2.24,4.88v0c0,2.98,2.05,5.57,4.95,6.26l4.46,1.06c5.8,1.38,11.85,1.38,17.66,0l4.46-1.06
	c2.9-0.69,4.95-3.28,4.95-6.26v0c0-1.88,0.82-3.66,2.24-4.88l3.96-3.4c1.26-1.08,2.06-2.62,2.21-4.27l1.46-15.26L244.94,32.02z"/>
<path fill="#383838" d="M237.81,39.43c-3.85-1.36-13.94-3.19-13.91,6.38c0.01,5.65,12.38,4.98,14.55,3.51S244.32,41.73,237.81,39.43
	z"/>
<path fill="#383838" d="M252.2,39.43c3.85-1.36,13.94-3.19,13.91,6.38c-0.01,5.65-12.38,4.98-14.55,3.51S245.69,41.73,252.2,39.43z"
	/>
<path fill="#383838" d="M244.94,49.64c0,0-2.91,3.96-2.91,7.79s6.51,3.7,6.51,0C248.53,53.73,244.94,49.64,244.94,49.64z"/>
<path fill="#E3E5C7" d="M228.29,66.05c0,0,2.24-1.56,4.45,1.37l-1.48,4.8c0,0-2.51-0.02-4.45-1.37L228.29,66.05z"/>
<path fill="#E3E5C7" d="M233.38,68.8c0,0,1.94-1.93,4.62,0.58l-0.62,4.98c0,0-2.47,0.41-4.62-0.58L233.38,68.8z"/>
<path fill="#E3E5C7" d="M239.71,69.42c0,0,1.78-2.07,4.65,0.22l-0.23,5.02c0,0-2.43,0.61-4.65-0.22L239.71,69.42z"/>
<path fill="#E3E5C7" d="M262.09,66.09c0,0-2.21-1.61-4.47,1.27l1.37,4.83c0,0,2.51,0.04,4.47-1.27L262.09,66.09z"/>
<path fill="#E3E5C7" d="M256.94,68.8c0,0-1.94-1.93-4.62,0.58l0.62,4.98c0,0,2.47,0.41,4.62-0.58L256.94,68.8z"/>
<path fill="#E3E5C7" d="M250.6,69.42c0,0-1.78-2.07-4.65,0.22l0.23,5.02c0,0,2.43,0.61,4.65-0.22L250.6,69.42z"/>
<path fill="#E3E5C7" d="M436.57,32.02c0-15.59-12.64-28.23-28.23-28.23c-15.59,0-28.23,12.64-28.23,28.23
	c0,0.91,0.04,1.82,0.14,2.71h-0.02l1.46,15.26c0.16,1.66,0.95,3.19,2.21,4.27l3.96,3.41c1.43,1.22,2.25,3.01,2.25,4.88
	c0,1.49,0.51,2.89,1.38,3.99c0.01,0.01,0.02,0.03,0.04,0.04l-1.31,4.27c1.94,1.35,4.44,1.37,4.44,1.37l1-3.25l1.07,0.25l-0.58,4.56
	c2.15,0.99,4.62,0.58,4.62,0.58l0.51-4.11c0.6,0.12,1.19,0.22,1.79,0.3l-0.19,3.89c2.22,0.82,4.65,0.21,4.65,0.21l0.17-3.74
	c0.57,0.01,1.15,0.01,1.72-0.01l0.17,3.75c0,0,2.44,0.61,4.65-0.21l-0.18-3.96c0.59-0.08,1.18-0.19,1.77-0.31l0.52,4.19
	c0,0,2.48,0.41,4.62-0.58l-0.59-4.66l1.07-0.26l0.94,3.33c0,0,2.5,0.03,4.47-1.27l-1.36-4.81c0.68-1.02,1.07-2.26,1.07-3.56
	c0-1.87,0.82-3.66,2.25-4.88l3.96-3.41c1.26-1.08,2.05-2.61,2.21-4.27l1.46-15.26h-0.02C436.53,33.84,436.57,32.93,436.57,32.02z
	 M401.85,49.32c-2.17,1.47-14.54,2.15-14.55-3.51c-0.02-9.57,10.06-7.74,13.91-6.38C407.72,41.73,404.02,47.86,401.85,49.32z
	 M408.64,60.25c-1.61,0-3.21-0.92-3.21-2.82c0-3.83,2.91-7.79,2.91-7.79s3.6,4.09,3.6,7.79c0,1.75-1.46,2.7-2.99,2.81
	C408.85,60.25,408.74,60.25,408.64,60.25z M414.97,49.32c-2.17-1.46-5.88-7.59,0.64-9.89c3.85-1.36,13.93-3.19,13.91,6.38
	C429.51,51.47,417.14,50.79,414.97,49.32z"/>
<path fill="#FFFFFF" d="M370.32,68.19c0,0,17.87,9.19,29.96,9.87l1.36-23.12l-16.17-4.59l0.17-16.03l23.05,4.01V-0.91
	c0,0-33.26-1.19-32.92,32.94S370.32,68.19,370.32,68.19z"/>
<path fill="#FFFFFF" d="M447.05,68.19c0,0-17.87,9.19-29.96,9.87l-1.36-23.12l16.17-4.59l-0.17-16.03l-23.05,4.01V-0.91
	c0,0,33.26-1.19,32.92,32.94S447.05,68.19,447.05,68.19z"/>
<path fill="#E3E5C7" d="M436.57,129.55c0-15.59-12.64-28.23-28.23-28.23c-15.59,0-28.23,12.64-28.23,28.23
	c0,0.91,0.04,1.82,0.14,2.71h-0.02l1.46,15.26c0.16,1.66,0.95,3.19,2.21,4.27l3.96,3.41c1.43,1.22,2.25,3.01,2.25,4.88
	c0,1.49,0.51,2.89,1.38,3.99c0.01,0.01,0.02,0.03,0.04,0.04l-1.31,4.27c1.94,1.35,4.44,1.37,4.44,1.37l1-3.25l1.07,0.25l-0.58,4.56
	c2.15,0.99,4.62,0.58,4.62,0.58l0.51-4.11c0.6,0.12,1.19,0.22,1.79,0.3l-0.19,3.89c2.22,0.82,4.65,0.21,4.65,0.21l0.17-3.74
	c0.57,0.01,1.15,0.01,1.72-0.01l0.17,3.75c0,0,2.44,0.61,4.65-0.21l-0.18-3.96c0.59-0.08,1.18-0.19,1.77-0.31l0.52,4.19
	c0,0,2.48,0.41,4.62-0.58l-0.59-4.66l1.07-0.26l0.94,3.33c0,0,2.5,0.03,4.47-1.27l-1.36-4.81c0.68-1.02,1.07-2.26,1.07-3.56
	c0-1.87,0.82-3.66,2.25-4.88l3.96-3.41c1.26-1.08,2.05-2.61,2.21-4.27l1.46-15.26h-0.02C436.53,131.37,436.57,130.46,436.57,129.55z
	 M401.85,146.85c-2.17,1.47-14.54,2.15-14.55-3.51c-0.02-9.57,10.06-7.74,13.91-6.38C407.72,139.26,404.02,145.39,401.85,146.85z
	 M408.64,157.78c-1.61,0-3.21-0.92-3.21-2.82c0-3.83,2.91-7.79,2.91-7.79s3.6,4.09,3.6,7.79c0,1.75-1.46,2.7-2.99,2.81
	C408.85,157.78,408.74,157.78,408.64,157.78z M414.97,146.85c-2.17-1.46-5.88-7.59,0.64-9.89c3.85-1.36,13.93-3.19,13.91,6.38
	C429.51,149,417.14,148.32,414.97,146.85z"/>
<path fill="#A2A0A0" d="M441.6,133.13c0.34-34.13-32.92-42.89-32.92-42.89s-33.26,8.77-32.92,42.89c0.16,16.2-1.06,25.17-2.38,30.13
	c-1.06,3.95,1.02,8.06,4.78,9.65c3.48,1.47,7.76,3.12,12.07,4.36c5.11,1.47,10.28-2.13,10.6-7.44l0.42-7.15
	c0.23-3.87-2.26-7.38-5.99-8.44l-3.72-1.06c-3.59-1.02-6.05-4.31-6.01-8.04v0c0.05-5.09,4.66-8.93,9.68-8.05l7.23,1.26
	c4.13,0.72,8.35,0.72,12.47,0l7.23-1.26c5.02-0.87,9.63,2.96,9.68,8.05v0c0.04,3.73-2.42,7.02-6.01,8.04l-3.72,1.06
	c-3.73,1.06-6.22,4.57-5.99,8.44l0.42,7.15c0.31,5.31,5.48,8.91,10.6,7.44c4.31-1.24,8.59-2.88,12.07-4.36
	c3.76-1.59,5.83-5.71,4.78-9.65C442.66,158.3,441.44,149.33,441.6,133.13z"/>
<path fill="#E3E5C7" d="M557.34,129.55c0-15.59-12.64-28.23-28.23-28.23c-15.59,0-28.23,12.64-28.23,28.23
	c0,0.91,0.04,1.82,0.14,2.71H501l1.46,15.26c0.16,1.66,0.95,3.19,2.21,4.27l3.96,3.41c1.43,1.22,2.25,3.01,2.25,4.88
	c0,1.49,0.51,2.89,1.38,3.99c0.01,0.01,0.02,0.03,0.04,0.04l-1.31,4.27c1.94,1.35,4.44,1.37,4.44,1.37l1-3.25l1.07,0.25l-0.58,4.56
	c2.15,0.99,4.62,0.58,4.62,0.58l0.51-4.11c0.6,0.12,1.19,0.22,1.79,0.3l-0.19,3.89c2.22,0.82,4.65,0.21,4.65,0.21l0.17-3.74
	c0.57,0.01,1.15,0.01,1.72-0.01l0.17,3.75c0,0,2.44,0.61,4.65-0.21l-0.18-3.96c0.59-0.08,1.18-0.19,1.77-0.31l0.52,4.19
	c0,0,2.48,0.41,4.62-0.58l-0.59-4.66l1.07-0.26l0.94,3.33c0,0,2.5,0.03,4.47-1.27l-1.36-4.81c0.68-1.02,1.07-2.26,1.07-3.56
	c0-1.87,0.82-3.66,2.25-4.88l3.96-3.41c1.26-1.08,2.05-2.61,2.21-4.27l1.46-15.26h-0.02C557.3,131.37,557.34,130.46,557.34,129.55z
	 M522.62,146.85c-2.17,1.47-14.54,2.15-14.55-3.51c-0.02-9.57,10.06-7.74,13.91-6.38C528.49,139.26,524.79,145.39,522.62,146.85z
	 M529.41,157.78c-1.61,0-3.21-0.92-3.21-2.82c0-3.83,2.91-7.79,2.91-7.79s3.6,4.09,3.6,7.79c0,1.75-1.46,2.7-2.99,2.81
	C529.62,157.78,529.51,157.78,529.41,157.78z M535.74,146.85c-2.17-1.46-5.88-7.59,0.64-9.89c3.85-1.36,13.93-3.19,13.91,6.38
	C550.28,149,537.91,148.32,535.74,146.85z"/>
<path fill="#A2A0A0" d="M562.37,133.13c0.34-34.13-32.92-42.89-32.92-42.89s-33.26,8.77-32.92,42.89
	c0.16,16.2-1.06,25.17-2.38,30.13c-1.06,3.95,1.02,8.06,4.78,9.65c3.48,1.47,7.76,3.12,12.07,4.36c5.11,1.47,10.28-2.13,10.6-7.44
	l0.42-7.15c0.23-3.87-2.26-7.38-5.99-8.44l-3.72-1.06c-3.59-1.02-6.05-4.31-6.01-8.04v0c0.05-5.09,4.66-8.93,9.68-8.05l7.23,1.26
	c4.13,0.72,8.35,0.72,12.47,0l7.23-1.26c5.02-0.87,9.63,2.96,9.68,8.05v0c0.04,3.73-2.42,7.02-6.01,8.04l-3.72,1.06
	c-3.73,1.06-6.22,4.57-5.99,8.44l0.42,7.15c0.31,5.31,5.48,8.91,10.6,7.44c4.31-1.24,8.59-2.88,12.07-4.36
	c3.76-1.59,5.83-5.71,4.78-9.65C563.43,158.3,562.21,149.33,562.37,133.13z"/>
<path fill="#474747" d="M522.64,16.61l11.23-11.23l-2.77-21.53l-44.9-1.23l-4,18.45l15.07,6.46v8.56c-3.28,0.42-5.35,1.02-5.35,1.68
	c0,1.27,7.4,2.29,16.52,2.29c9.12,0,16.52-1.03,16.52-2.29C524.96,17.35,524.1,16.95,522.64,16.61z"/>
<path fill="#A2A0A0" d="M508.44-35.31L508.44-35.31c-15.17,0-27.47,12.3-27.47,27.47v23.06c0,2.33,0.64,4.61,1.85,6.6l12.09,19.87
	c1.28,2.1,4.52,1.2,4.52-1.27V6.77c0-2.03-1.35-3.82-3.3-4.38l-5.2-1.48c-2.63-0.75-4.43-3.18-4.39-5.92
	c0.08-4.75,5.36-7.56,9.34-4.97l5.92,3.85c1.58,1.03,2.54,2.79,2.54,4.68v12.14c0,2.27,1.84,4.11,4.11,4.11
	c2.27,0,4.11-1.84,4.11-4.11V-1.44c0-1.89,0.96-3.65,2.54-4.68l5.92-3.85c3.98-2.59,9.26,0.22,9.34,4.97
	c0.05,2.74-1.75,5.16-4.39,5.92l-5.2,1.48c-1.95,0.56-3.3,2.34-3.3,4.38v33.67c0,2.46,3.24,3.37,4.52,1.27l12.09-19.87
	c1.21-1.99,1.85-4.27,1.85-6.6V-7.84C535.91-23.01,523.61-35.31,508.44-35.31z"/>
<ellipse transform="matrix(0.866 -0.5 0.5 0.866 78.7999 245.5955)" fill="#D0CFCE" cx="497.68" cy="-24.24" rx="6.46" ry="3.69"/>
<ellipse transform="matrix(0.866 -0.5 0.5 0.866 16.3149 272.6174)" fill="#D0CFCE" cx="516.86" cy="105.87" rx="6.46" ry="3.69"/>
<g>
	<path fill="#E3E5C7" d="M74.73,45.55c0-13.83-11.21-25.04-25.04-25.04c-13.83,0-25.04,11.21-25.04,25.04c0,0.81,0.04,1.61,0.12,2.4
		h-0.02l1.29,13.53c0.14,1.47,0.84,2.83,1.96,3.79l3.51,3.02c1.27,1.08,2,2.67,2,4.33c0,1.32,0.45,2.56,1.22,3.54
		c0.01,0.01,0.02,0.03,0.04,0.04l-1.16,3.79c1.72,1.2,3.94,1.22,3.94,1.22l0.89-2.88l0.95,0.22l-0.51,4.04
		c1.91,0.88,4.1,0.51,4.1,0.51l0.45-3.65c0.53,0.11,1.06,0.2,1.59,0.27l-0.17,3.45c1.97,0.73,4.12,0.19,4.12,0.19l0.15-3.32
		c0.51,0.01,1.02,0.01,1.53-0.01l0.15,3.33c0,0,2.16,0.54,4.12-0.19l-0.16-3.51c0.52-0.07,1.05-0.17,1.57-0.27l0.46,3.72
		c0,0,2.2,0.36,4.1-0.51l-0.52-4.13l0.95-0.23l0.83,2.95c0,0,2.22,0.03,3.96-1.13l-1.21-4.27c0.6-0.9,0.95-2,0.95-3.16
		c0-1.66,0.73-3.25,2-4.33l3.51-3.02c1.12-0.96,1.82-2.31,1.96-3.79l1.29-13.53h-0.02C74.7,47.16,74.73,46.35,74.73,45.55z
		 M43.94,60.89c-1.92,1.3-12.9,1.91-12.9-3.11c-0.02-8.49,8.92-6.86,12.34-5.66C49.14,54.16,45.86,59.59,43.94,60.89z M49.96,70.58
		c-1.43,0-2.85-0.82-2.85-2.5c0-3.4,2.58-6.91,2.58-6.91s3.19,3.63,3.19,6.91c0,1.55-1.29,2.39-2.65,2.49
		C50.15,70.58,50.05,70.58,49.96,70.58z M55.57,60.89c-1.92-1.29-5.21-6.73,0.57-8.77c3.41-1.21,12.35-2.83,12.34,5.66
		C68.47,62.8,57.5,62.19,55.57,60.89z"/>
	<path fill="#A2A0A0" d="M79.2,48.72C79.5,18.45,50,10.68,50,10.68s-29.5,7.77-29.2,38.04c0.14,14.37-0.94,22.33-2.11,26.72
		c-0.94,3.5,0.9,7.15,4.24,8.56c3.09,1.31,6.88,2.76,10.71,3.86c4.54,1.3,9.12-1.89,9.4-6.6l0.37-6.34c0.2-3.43-2.01-6.54-5.31-7.48
		l-3.3-0.94c-3.18-0.9-5.36-3.82-5.33-7.13v0c0.05-4.52,4.13-7.92,8.58-7.14l6.41,1.12c3.66,0.64,7.4,0.64,11.06,0l6.41-1.12
		c4.45-0.77,8.54,2.62,8.58,7.14v0c0.04,3.31-2.15,6.22-5.33,7.13l-3.3,0.94c-3.31,0.94-5.52,4.05-5.31,7.48l0.37,6.34
		c0.28,4.71,4.86,7.9,9.4,6.6c3.82-1.1,7.62-2.56,10.71-3.86c3.34-1.41,5.17-5.06,4.24-8.56C80.13,71.04,79.05,63.09,79.2,48.72z"/>
	<ellipse transform="matrix(0.866 -0.5 0.5 0.866 -7.0672 22.7028)" fill="#D0CFCE" cx="38.83" cy="24.54" rx="5.73" ry="3.27"/>
</g>
</svg>
