<?xml version="1.0" encoding="utf-8"?>
<!-- Generator: Adobe Illustrator 25.0.1, SVG Export Plug-In . SVG Version: 6.00 Build 0)  -->
<svg version="1.1" id="Layer_1" xmlns="http://www.w3.org/2000/svg" xmlns:xlink="http://www.w3.org/1999/xlink" x="0px" y="0px"
	 viewBox="0 0 100 100" enable-background="new 0 0 100 100" xml:space="preserve">
<path fill="#464646" d="M64.69,62.46l11.23-11.23l-2.77-21.53l-44.9-1.23l-4,18.45l15.07,6.46v8.56c-3.28,0.42-5.35,1.02-5.35,1.68
	c0,1.27,7.4,2.29,16.52,2.29c9.12,0,16.52-1.03,16.52-2.29C67.01,63.2,66.15,62.8,64.69,62.46z"/>
<path fill="#A2A0A0" d="M50.49,10.54L50.49,10.54c-15.17,0-27.47,12.3-27.47,27.47v23.06c0,2.33,0.64,4.61,1.85,6.6l12.09,19.87
	c1.28,2.1,4.52,1.2,4.52-1.27V52.62c0-2.03-1.35-3.82-3.3-4.38l-5.2-1.48c-2.63-0.75-4.43-3.18-4.39-5.92
	c0.08-4.75,5.36-7.56,9.34-4.97l5.92,3.85c1.58,1.03,2.54,2.79,2.54,4.68v12.14c0,2.27,1.84,4.11,4.11,4.11
	c2.27,0,4.11-1.84,4.11-4.11V44.41c0-1.89,0.96-3.65,2.54-4.68l5.92-3.85c3.98-2.59,9.26,0.22,9.34,4.97
	c0.05,2.74-1.75,5.16-4.39,5.92l-5.2,1.48c-1.95,0.56-3.3,2.34-3.3,4.38v33.67c0,2.46,3.24,3.37,4.52,1.27l12.09-19.87
	c1.21-1.99,1.85-4.27,1.85-6.6V38.01C77.96,22.84,65.66,10.54,50.49,10.54z"/>
<ellipse transform="matrix(0.866 -0.5 0.5 0.866 -5.4823 22.7598)" fill="#CFCFCE" cx="39.73" cy="21.61" rx="6.46" ry="3.69"/>
</svg>
