<?xml version="1.0" encoding="utf-8"?>
<!-- Generator: Adobe Illustrator 25.0.1, SVG Export Plug-In . SVG Version: 6.00 Build 0)  -->
<svg version="1.1" id="Layer_1" xmlns="http://www.w3.org/2000/svg" xmlns:xlink="http://www.w3.org/1999/xlink" x="0px" y="0px"
	 viewBox="0 0 100 100" enable-background="new 0 0 100 100" xml:space="preserve">
<g>
	<path fill="#46678D" d="M68.5,17.4V31H50V14.8C55.8,14.7,62.2,15.3,68.5,17.4z"/>
	<path fill="#46678D" d="M50,14.8V31H31.5V17.4C31.5,17.4,39.6,14.9,50,14.8z"/>
	<path fill="#282828" d="M31.5,19.4c0,0,19.5-6,36.9,0v13.6H31.5V19.4z"/>
	<path fill="#46678D" d="M50,20.8v41.1c-9.7,0.3-16.4-1.3-20.6-2.9c0-0.4-0.1-0.8-0.2-1.2l-4.6-14.6l-4.3,1
		c-1.2,0.3-2.4-0.3-2.9-1.4l-5.3-11.5c-0.6-1.2-0.1-2.6,1.1-3.3l18.4-10.5L42,19.8C44.6,20.5,47.3,20.8,50,20.8z"/>
	<path fill="#BCBCBC" d="M87.9,31.2l-5.3,11.5c-0.5,1.1-1.7,1.7-2.9,1.4l-4.3-1l-4.6,14.6c-0.1,0.4-0.2,0.8-0.2,1.3
		c-8,1.9-14.8,2.7-20.6,2.9V20.8c2.7,0,5.4-0.3,8-0.9l10.5-2.4l18.4,10.5C88,28.5,88.4,30,87.9,31.2z"/>
	<path fill="#BCBCBC" d="M50,61.8V77c0,5.9-5.2,10.5-11,9.7c0,0-0.1,0-0.1,0l-12.2-1.7c-2.2-0.3-3.7-2.5-3.1-4.7l5.7-20.4
		c0.1-0.3,0.1-0.6,0.1-0.9C33.6,60.5,40.3,62.1,50,61.8z"/>
	<path fill="#46678D" d="M73.3,84.9l-12.2,1.7c0,0-0.1,0-0.1,0c-5.8,0.8-11-3.8-11-9.7V61.8c5.7-0.2,12.6-1,20.6-2.9
		c0,0.3,0.1,0.6,0.1,0.8l5.7,20.4C77,82.4,75.6,84.6,73.3,84.9z"/>
	<path fill="none" stroke="#834836" stroke-width="4.2319" stroke-linecap="round" stroke-miterlimit="10" d="M30.3,59.2
		c0,0,15.5,5.6,39.7,0.7"/>
</g>
</svg>
