<?xml version="1.0" encoding="utf-8"?>
<!-- Generator: Adobe Illustrator 26.0.2, SVG Export Plug-In . SVG Version: 6.00 Build 0)  -->
<svg version="1.1" id="Layer_1" xmlns="http://www.w3.org/2000/svg" xmlns:xlink="http://www.w3.org/1999/xlink" x="0px" y="0px"
	 viewBox="0 0 100 100" style="enable-background:new 0 0 100 100;" xml:space="preserve">
<style type="text/css">
	.st0{fill:#C9C9C9;}
</style>
<g>
	<path class="st0" d="M99.35,17.7c0,2.73-2.05,4.44-4.4,4.44c-2.35,0-4.41-1.71-4.41-4.44c0-2.73,2.06-4.43,4.41-4.43
		C97.3,13.27,99.35,14.97,99.35,17.7z M91.21,17.7c0,2.33,1.7,3.8,3.74,3.8c2.04,0,3.73-1.47,3.73-3.8c0-2.34-1.69-3.79-3.73-3.79
		S91.21,15.36,91.21,17.7z M95,15.44c1.17,0,1.51,0.61,1.51,1.24c0,0.6-0.37,1-0.79,1.21l1.02,1.93h-0.78l-0.88-1.72h-0.94v1.72
		h-0.64v-4.37H95z M94.15,17.49h0.81c0.53,0,0.85-0.34,0.85-0.75s-0.22-0.69-0.85-0.69h-0.81V17.49z"/>
	<g>
		<path class="st0" d="M49.7,4.47c-23.96,0-43.58,18.47-45.45,41.95L28.7,56.52c2.07-1.42,4.57-2.24,7.27-2.24
			c0.24,0,0.48,0.01,0.72,0.02l10.87-15.76c0-0.07,0-0.15,0-0.22c0-9.48,7.72-17.2,17.2-17.2c9.48,0,17.2,7.72,17.2,17.2
			c0,9.48-7.72,17.2-17.2,17.2c-0.13,0-0.26,0-0.39-0.01l-15.5,11.06c0.01,0.2,0.01,0.41,0.01,0.61c0,7.12-5.79,12.91-12.91,12.91
			c-6.25,0-11.47-4.46-12.66-10.37L5.82,62.5c5.41,19.14,23,33.18,43.88,33.18c25.19,0,45.6-20.42,45.6-45.6
			C95.3,24.89,74.89,4.47,49.7,4.47z"/>
		<path class="st0" d="M32.83,73.67l-5.6-2.31c0.99,2.07,2.71,3.8,4.99,4.75c4.93,2.05,10.61-0.29,12.67-5.22
			c0.99-2.39,1-5.02,0.01-7.41c-0.98-2.39-2.84-4.26-5.23-5.25c-2.37-0.99-4.91-0.95-7.14-0.11l5.79,2.39
			c3.64,1.52,5.36,5.69,3.84,9.33C40.64,73.46,36.47,75.18,32.83,73.67z"/>
		<path class="st0" d="M76.21,38.32c0-6.32-5.14-11.46-11.46-11.46S53.29,32,53.29,38.32s5.14,11.46,11.46,11.46
			S76.21,44.64,76.21,38.32z M56.16,38.3c0-4.75,3.86-8.61,8.61-8.61c4.75,0,8.61,3.85,8.61,8.61c0,4.75-3.85,8.61-8.61,8.61
			C60.01,46.91,56.16,43.06,56.16,38.3z"/>
	</g>
</g>
</svg>
