<?xml version="1.0" encoding="utf-8"?>
<!-- Generator: Adobe Illustrator 25.0.1, SVG Export Plug-In . SVG Version: 6.00 Build 0)  -->
<svg version="1.1" id="Layer_1" xmlns="http://www.w3.org/2000/svg" xmlns:xlink="http://www.w3.org/1999/xlink" x="0px" y="0px"
	 viewBox="0 0 100 100" enable-background="new 0 0 100 100" xml:space="preserve">
<radialGradient id="SVGID_1_" cx="49.5" cy="49" r="48.7021" gradientUnits="userSpaceOnUse">
	<stop  offset="0" style="stop-color:#5370A0"/>
	<stop  offset="1" style="stop-color:#51759F;stop-opacity:0"/>
</radialGradient>
<circle fill="url(#SVGID_1_)" cx="49.5" cy="49" r="48.7"/>
<g>
	<path fill="#CCCCCB" d="M27.02,36.67c0,0-4.14,2.98-5.73,11.75c0,0,3.32,5.12,11.47,4.02s1.45-12.43,1.45-12.43L27.02,36.67z"/>
	<path fill="#CCCCCB" d="M73.95,35.94c0,0,4.14,2.98,5.73,11.75c0,0-3.32,5.12-11.47,4.02s-1.45-12.43-1.45-12.43L73.95,35.94z"/>
	<path fill="#CCCCCB" d="M66.15,61.83H50.49H34.82l-3.9,12.19c0,0,5.98,7.68,19.56,7.68c13.59,0,19.56-7.68,19.56-7.68L66.15,61.83z
		"/>
	<path fill="#DDDDDD" d="M67.65,41.2l-4.09-6l-13.07,0.67L37.42,35.2l-4.09,6c0,0-2.45,5.7-0.85,18.58
		c1.59,12.88,18.01,12.88,18.01,12.88s16.41,0,18.01-12.88C70.09,46.9,67.65,41.2,67.65,41.2z"/>
	<path fill="#E8E8E8" d="M36.92,25.97c0,0-7.18-1.73-12.63,8.3c0,0,7.21,5.94,8.19,10.28c0,0,7.63,0.51,13.71-7.36
		S36.92,25.97,36.92,25.97z"/>
	<path fill="#E8E8E8" d="M64.05,25.97c0,0,7.18-1.73,12.63,8.3c0,0-7.21,5.94-8.19,10.28c0,0-7.63,0.51-13.71-7.36
		S64.05,25.97,64.05,25.97z"/>
	<path fill="#CCCCCB" d="M57.61,21.63h-7.12h-7.12l-6.44,5.07c0,0,5.46,12.01,13.56,12.63C58.6,38.71,64.05,26.7,64.05,26.7
		L57.61,21.63z"/>
	<ellipse fill="#CCCCCB" cx="50.49" cy="24.97" rx="9.13" ry="6.63"/>
	<ellipse fill="#2D2D2D" cx="50.49" cy="27.52" rx="9.13" ry="6.63"/>
</g>
</svg>
