<?xml version="1.0" encoding="utf-8"?>
<!-- Generator: Adobe Illustrator 25.0.1, SVG Export Plug-In . SVG Version: 6.00 Build 0)  -->
<svg version="1.1" id="Layer_1" xmlns="http://www.w3.org/2000/svg" xmlns:xlink="http://www.w3.org/1999/xlink" x="0px" y="0px"
	 viewBox="0 0 100 100" enable-background="new 0 0 100 100" xml:space="preserve">
<path fill="#A2A1A1" d="M62,60.96c-4.41,5.88-17.08,12.36-26.29,12.36c-5.07,0-10.49-0.16-15.42-1.56
	c-1.04-0.29-2.05-0.65-3.03-1.07c-0.01,0-0.01-0.01-0.03-0.01c-0.29-0.12-0.58-0.24-0.86-0.37c-2.97-1.4-5.62-3.44-7.72-6.41
	c0,0-6.41-11.83-1.14-19.61c0.01-0.01,0.03-0.03,0.03-0.04c0.23-0.32,0.48-0.63,0.73-0.95c0.12-0.12,0.22-0.25,0.32-0.37
	c6.25-7.21,4.41-3.14,12.19-13.24c4.15-5.38,14.41-11.99,25.03-4.41c1.15,0.82,2.12,1.57,2.94,2.26c5.16,4.32,4.86,6.4,8.08,8.82
	c0.89,0.68,2.06,1.38,3.69,2.16C68.99,42.56,66.41,55.07,62,60.96z"/>
<path fill="#BBBBBB" d="M48.75,37.41c-5.89,3.67-11.04,10.66-10.68,13.6c0.37,2.94-6.61,10.68-12.87,9.21
	C19.3,58.83,4.25,50.2,7.51,44.29c0.01-0.01,0.03-0.03,0.03-0.04c0.19-0.33,0.43-0.65,0.73-0.95c0.12-0.12,0.22-0.25,0.32-0.37
	c6.25-7.21,4.41-3.14,12.19-13.24c4.15-5.38,14.41-11.99,25.03-4.41c1.15,0.82,2.12,1.57,2.94,2.26v0.01
	C48.75,27.54,54.65,33.72,48.75,37.41z"/>
<path fill="#A2A1A1" d="M20.45,41.13c-2.58-1.32,2.5-5.56,7.32-1.88c4.82,3.68,4.82,3.68,4.82,3.68S28.05,45.03,20.45,41.13z"/>
<path fill="#A2A1A1" d="M16.37,70.31c0.27,0.04,0.56,0.17,0.86,0.37C16.95,70.57,16.66,70.44,16.37,70.31z"/>
<path fill="#656565" d="M62,60.96c-4.41,5.88-17.08,12.36-26.29,12.36c-5.07,0-10.49-0.16-15.42-1.56
	c6.43,0.88,15.49-4.77,19.25-6.04c4.42-1.47,12.15-5.88,9.57-9.93c-2.57-4.05,0-5.88,0-5.88c3.69,2.57,6.63,7.35,9.94,2.2
	c3.3-5.16-2.23-15.78-2.23-15.78h0.01c0.89,0.68,2.06,1.38,3.69,2.16C68.99,42.56,66.41,55.07,62,60.96z"/>
<path fill="#747475" d="M51.73,76.55c3.34,2.91,12.93,6.11,19.91,6.11c3.84,0,7.95-0.08,11.68-0.77c0.79-0.14,1.55-0.32,2.29-0.53
	c0.01,0,0.01-0.01,0.02-0.01c0.22-0.06,0.44-0.12,0.65-0.19c2.25-0.69,4.26-1.7,5.85-3.17c0,0,4.86-5.85,0.86-9.69
	c-0.01-0.01-0.02-0.01-0.02-0.02c-0.17-0.16-0.36-0.31-0.56-0.47c-0.09-0.06-0.16-0.12-0.24-0.19c-4.74-3.56-3.34-1.55-9.23-6.55
	c-3.14-2.66-10.91-5.93-18.96-2.18c-0.87,0.41-1.6,0.78-2.23,1.12c-3.91,2.14-3.68,3.16-6.12,4.36c-0.68,0.33-1.56,0.68-2.79,1.07
	C46.44,67.46,48.39,73.64,51.73,76.55z"/>
<path fill="#8E8E8E" d="M61.76,64.91c4.46,1.82,8.36,5.27,8.09,6.72c-0.28,1.45,5.01,5.28,9.75,4.55c4.47-0.69,15.87-4.96,13.4-7.88
	c-0.01-0.01-0.02-0.01-0.02-0.02c-0.14-0.16-0.33-0.32-0.56-0.47c-0.09-0.06-0.16-0.12-0.24-0.19c-4.74-3.56-3.34-1.55-9.23-6.55
	c-3.14-2.66-10.91-5.93-18.96-2.18c-0.87,0.41-1.6,0.78-2.23,1.12v0.01C61.76,60.03,57.3,63.09,61.76,64.91z"/>
<path fill="#747475" d="M78.93,66.41c1.56-0.8-1.51-3.36-4.42-1.13C71.6,67.5,71.6,67.5,71.6,67.5S74.34,68.77,78.93,66.41z"/>
<path fill="#747475" d="M86.29,81.18c-0.21,0.02-0.43,0.09-0.65,0.19C85.85,81.3,86.07,81.24,86.29,81.18z"/>
<path fill="#454545" d="M51.73,76.55c3.34,2.91,12.93,6.11,19.91,6.11c3.84,0,7.95-0.08,11.68-0.77
	c-4.87,0.43-11.73-2.36-14.58-2.98c-3.35-0.73-9.2-2.91-7.25-4.91c1.94-2,0-2.91,0-2.91c-2.79,1.27-5.02,3.63-7.53,1.09
	c-2.5-2.55,1.69-7.8,1.69-7.8h-0.01c-0.68,0.33-1.56,0.68-2.79,1.07C46.44,67.46,48.39,73.64,51.73,76.55z"/>
</svg>
