<?xml version="1.0" encoding="utf-8"?>
<!-- Generator: Adobe Illustrator 25.0.1, SVG Export Plug-In . SVG Version: 6.00 Build 0)  -->
<svg version="1.1" id="Layer_1" xmlns="http://www.w3.org/2000/svg" xmlns:xlink="http://www.w3.org/1999/xlink" x="0px" y="0px"
	 viewBox="0 0 100 100" style="enable-background:new 0 0 100 100;" xml:space="preserve">
<style type="text/css">
	.st0{fill:url(#SVGID_1_);}
	.st1{fill:#4D3E38;}
	.st2{fill:#42342E;}
	.st3{fill:#2B221E;}
	.st4{fill:#212020;}
	.st5{fill:none;stroke:#5E5E5E;stroke-width:2;stroke-miterlimit:10;}
	.st6{fill:#5E5E5E;}
</style>
<radialGradient id="SVGID_1_" cx="50.4" cy="48.01" r="48.7" gradientTransform="matrix(1 0 0 1 0 2)" gradientUnits="userSpaceOnUse">
	<stop  offset="0" style="stop-color:#5570A0"/>
	<stop  offset="1" style="stop-color:#5276A0;stop-opacity:0"/>
</radialGradient>
<circle class="st0" cx="50.4" cy="50" r="48.7"/>
<g>
	<path class="st1" d="M71.2,28.5l-1.4,44.6v2.2c0,1.1-0.8,2-1.8,2.2c-1.7,0.3-4.7,0.5-10.2,0c-1.1-0.1-2-1-2-2.1l0-2.2v0l-0.1-3.8
		c-0.2-4.9-0.8-13.3-2.6-17.6c-0.7-1.7-1.6-2.7-2.8-2.7c-1.2,0-2,1.1-2.8,2.8c-1.8,4.3-2.4,12.7-2.6,17.6L45,73.2v0l0,2.2
		c0,1.1-0.9,2-2,2.1c-5.5,0.5-8.5,0.3-10.2,0c-1-0.2-1.8-1.1-1.8-2.2v-2.2l-1.4-44.6l20.8,1.3L71.2,28.5z"/>
	<path class="st2" d="M58.8,32.1c0,0-2.2,14.8-5.7,19.7c-0.7-1.7-1.6-2.7-2.8-2.7c-1.2,0-2,1.1-2.8,2.8c0,0,0,0,0,0
		S40.7,38.5,42,32.1l8.4-2.3L58.8,32.1z"/>
	<path class="st3" d="M69.3,23.6L69.3,23.6c-22.3-4.4-37.3,0-37.3,0l0.1,0.1c-1.3-0.2-2.5,0.8-2.5,2.1v3c0,0.2,0.1,0.3,0.2,0.4
		c2.4,0.9,21.7,7.6,41.1-0.4c0.2-0.1,0.2-0.2,0.2-0.4v-2.7C71.2,24.6,70.3,23.8,69.3,23.6z"/>
	<ellipse class="st4" cx="50.4" cy="25.4" rx="16.8" ry="2.5"/>
	<ellipse class="st3" cx="36.8" cy="60.1" rx="5.2" ry="6.9"/>
	<ellipse class="st3" cx="63.4" cy="60.1" rx="5.2" ry="6.9"/>
	<path class="st3" d="M30.8,74.9c-0.5-0.2-0.9,0.1-1,0.6c0,1,0,2.4,0.7,3.5c1.1,1.8,11.7,0.6,13.1,0s1.4-4.1,1.4-4.5
		C45,74.2,35.8,76.8,30.8,74.9z"/>
	<path class="st3" d="M70,74.9c0.4-0.2,0.9,0.1,1,0.6c0,1,0,2.4-0.7,3.5c-1.1,1.8-11.7,0.6-13.1,0s-1.4-4.1-1.4-4.5
		C55.8,74.2,65.1,76.8,70,74.9z"/>
	<path class="st5" d="M46.4,28.5v3.5c0,0.8,0.6,1.4,1.4,1.4h4.9c0.8,0,1.4-0.6,1.4-1.4v-3.5c0-0.8-0.6-1.4-1.4-1.4h-4.9
		C47,27.2,46.4,27.8,46.4,28.5z"/>
	<circle class="st6" cx="66.3" cy="38.5" r="1.8"/>
	<circle class="st6" cx="66.3" cy="45.4" r="1.8"/>
	<circle class="st6" cx="35.2" cy="38.5" r="1.8"/>
	<circle class="st6" cx="35.2" cy="45.4" r="1.8"/>
</g>
</svg>
