<?xml version="1.0" encoding="utf-8"?>
<!-- Generator: Adobe Illustrator 25.0.1, SVG Export Plug-In . SVG Version: 6.00 Build 0)  -->
<svg version="1.1" id="Layer_1" xmlns="http://www.w3.org/2000/svg" xmlns:xlink="http://www.w3.org/1999/xlink" x="0px" y="0px"
	 viewBox="0 0 100 100" style="enable-background:new 0 0 100 100;" xml:space="preserve">
<style type="text/css">
	.st0{fill:url(#SVGID_1_);}
	.st1{fill:#42342E;}
	.st2{fill:#171717;}
	.st3{fill:#53453E;}
	.st4{fill:#110E0E;}
	.st5{fill:#201917;}
	.st6{fill:#4D3E38;}
	.st7{fill:#604F46;}
	.st8{fill:#1E1616;}
	.st9{fill:#2B221E;}
</style>
<radialGradient id="SVGID_1_" cx="50" cy="48.02" r="48.7" gradientTransform="matrix(1 0 0 1 0 2)" gradientUnits="userSpaceOnUse">
	<stop  offset="0" style="stop-color:#5570A0"/>
	<stop  offset="1" style="stop-color:#5276A0;stop-opacity:0"/>
</radialGradient>
<circle class="st0" cx="50" cy="50" r="48.7"/>
<g>
	<path class="st1" d="M55.6,29.5v29.4c0,0-6.6,3.3-19.9,4.6c-3.5,0.3-6.1,0.4-8,0.2c-0.1,0-0.1,0-0.2,0c-0.2,0-0.4,0-0.5,0
		c-0.1,0-0.2,0-0.3,0c-1-0.1-1.9-0.3-2.5-0.5c-2-0.7-2.1-1.5-2.1-1.5c0-6.5,14.7-12.5,14.7-12.5V29.5C48.2,32.4,55.6,29.5,55.6,29.5
		z"/>
	<circle class="st2" cx="51.4" cy="47.3" r="1.9"/>
	<circle class="st2" cx="51.4" cy="53.7" r="1.9"/>
	<path class="st3" d="M34.1,26.6v11.8c0,0.1,0.1,0.3,0.2,0.3c0.7,0.5,3.8,2.6,6.6,1.9c0.1,0,0.2-0.1,0.3-0.3l1.5-5
		c0.1-0.4,0.6-0.4,0.7,0l2.2,5.3c0,0.1,0.2,0.2,0.3,0.2c1.1,0.2,7.1,1.4,11.2-1.4c0.1-0.1,0.2-0.2,0.2-0.4V26.4
		c0-0.2-0.2-0.5-0.4-0.4c-2.7,0.5-16.7,2.7-22.1,0.2C34.4,26.1,34.1,26.3,34.1,26.6z"/>
	<ellipse class="st3" cx="45.7" cy="26.5" rx="11.5" ry="2.5"/>
	<ellipse class="st4" cx="45.7" cy="27" rx="9.9" ry="2"/>
	<path class="st5" d="M55.6,58.9c0,2.5-1.8,4.5-4.1,5c-12,2.4-29.4,4.5-29.4-2.3c0,0,0.5,3.2,13.7,1.9C49,62.2,55.6,58.9,55.6,58.9z
		"/>
	<path class="st6" d="M74,37.1v29.4c0,0-6.6,3.3-19.9,4.6c-13.2,1.3-13.7-1.9-13.7-1.9c0-6.5,14.7-12.5,14.7-12.5V37.1
		C66.7,40,74,37.1,74,37.1z"/>
	<path class="st7" d="M52.5,34.2V46c0,0.1,0.1,0.3,0.2,0.3c0.7,0.5,3.8,2.6,6.6,1.9c0.1,0,0.2-0.1,0.3-0.3l1.5-5
		c0.1-0.4,0.6-0.4,0.7,0l2.2,5.3c0.1,0.1,0.2,0.2,0.3,0.2c1.1,0.2,7.1,1.4,11.2-1.4c0.1-0.1,0.2-0.2,0.2-0.4V34
		c0-0.2-0.2-0.5-0.4-0.4c-2.7,0.5-16.7,2.7-22.1,0.2C52.8,33.7,52.5,33.9,52.5,34.2z"/>
	<ellipse class="st7" cx="64.1" cy="34.1" rx="11.6" ry="2.5"/>
	<ellipse class="st8" cx="64.1" cy="34.6" rx="9.9" ry="2"/>
	<path class="st9" d="M74,66.5c0,2.4-1.8,4.6-4.1,5c-12,2.4-29.4,4.5-29.4-2.3c0,0,0.5,3.2,13.7,1.9C67.4,69.8,74,66.5,74,66.5z"/>
	<circle class="st2" cx="68.9" cy="54.2" r="1.9"/>
	<circle class="st2" cx="68.9" cy="60.7" r="1.9"/>
	<path class="st3" d="M27.7,63.7c-0.1,0-0.1,0-0.2,0c-0.2,0-0.4,0-0.5,0c-0.1,0-0.2,0-0.3,0c-0.8-0.2-1.6-0.3-2.5-0.5
		c-2-0.7-2.1-1.5-2.1-1.5c0-6.5,14.7-12.5,14.7-12.5s4.8,1,6.6,4.6C45,57,33,63.7,27.7,63.7z"/>
	<path class="st3" d="M46.3,71.1c-0.1,0-0.1,0-0.2,0c-0.2,0-0.4,0-0.5-0.1c-0.1,0-0.2,0-0.3,0c-0.8-0.2-1.6-0.3-2.5-0.5
		c-2-0.7-2.2-1.5-2.2-1.5c0-6.5,14.7-12.5,14.7-12.5s4.8,1,6.6,4.6C63.5,64.3,51.5,71.1,46.3,71.1z"/>
</g>
</svg>
