<?xml version="1.0" encoding="utf-8"?>
<!-- Generator: Adobe Illustrator 25.0.1, SVG Export Plug-In . SVG Version: 6.00 Build 0)  -->
<svg version="1.1" id="Layer_1" xmlns="http://www.w3.org/2000/svg" xmlns:xlink="http://www.w3.org/1999/xlink" x="0px" y="0px"
	 viewBox="0 0 100 100" enable-background="new 0 0 100 100" xml:space="preserve">
<path fill="none" stroke="#B7856C" stroke-width="4.635" stroke-miterlimit="10" d="M20.28,47.13c0,0,5.26-18.79,6.81-24.36
	c1.9-6.77,8.67-5.91,12.8-4.33l0,0c4.12,1.58,9.54,5.33,6.62,15.8c-2.91,10.4-14.47,29.57-15.52,40.32c-0.5,5.14,0.44,8.1,4.25,9.57
	l0,0c3.82,1.47,8.92,4.23,13.81-1.67c5.43-6.55,2.64-16.09,5.27-22.95c3.76-9.8,13-12.91,21.07-9.8"/>
<rect x="18.31" y="36.79" transform="matrix(0.3459 -0.9383 0.9383 0.3459 -26.3668 47.8858)" fill="#DB9A7D" width="5.71" height="12.12"/>
<path fill="#DB9A7D" d="M23.44,46.34l-6.75,19.01c-0.55,1.54-2.24,2.35-3.78,1.8h0c-1.54-0.55-2.35-2.24-1.8-3.78l6.75-19.01
	L23.44,46.34z"/>
<path fill="none" stroke="#B7856C" stroke-width="2.3279" stroke-linecap="round" stroke-miterlimit="10" d="M74.58,48.03
	c0,0,12.34-2.63,13.49,3.9"/>
<path fill="none" stroke="#B7856C" stroke-width="2.3279" stroke-linecap="round" stroke-miterlimit="10" d="M74.58,49.63
	c0,0,12.28,2.91,10.52,9.3"/>
<path fill="none" stroke="#B7856C" stroke-width="2.3279" stroke-linecap="round" stroke-miterlimit="10" d="M72.99,49.67
	c0,0,8.34,9.47,3.2,13.67"/>
<path fill="#F05D7F" d="M73.06,19.07c-3.23-0.02-4.15,4.99-4.15,4.99s-4.64-2.08-6.46,0.59c-1.82,2.67-0.41,7.54,4.05,9.27
	c4.45,1.72,8.7,2.11,8.7,2.11s2.09-3.72,3.2-8.37C79.51,23,76.3,19.08,73.06,19.07z"/>
<circle fill="#B7856C" cx="76.19" cy="63.34" r="2.66"/>
<circle fill="#B7856C" cx="85.28" cy="59.17" r="2.66"/>
<circle fill="#B7856C" cx="89.36" cy="52.38" r="2.66"/>
</svg>
