<?xml version="1.0" encoding="utf-8"?>
<!-- Generator: Adobe Illustrator 25.0.1, SVG Export Plug-In . SVG Version: 6.00 Build 0)  -->
<svg version="1.1" id="Layer_1" xmlns="http://www.w3.org/2000/svg" xmlns:xlink="http://www.w3.org/1999/xlink" x="0px" y="0px"
	 viewBox="0 0 100 100" enable-background="new 0 0 100 100" xml:space="preserve">
<g>
	<polygon fill="#A06F58" points="-24.85,65.93 -24.15,81.55 -22.69,81.55 -22.69,65.93 	"/>
	<polygon fill="#885946" points="-20.54,65.93 -21.24,81.55 -22.69,81.55 -22.69,65.93 	"/>
	<path fill="#DDDDDD" d="M-22.69,7.89v57.64h-2.54V24.45c0-2.84,0.29-5.67,0.86-8.43L-22.69,7.89z"/>
	<path fill="#CCCCCB" d="M-20.15,24.45v41.08h-2.54V7.89l1.69,8.13C-20.44,18.78-20.15,21.61-20.15,24.45z"/>
	<path fill="#CCCCCB" d="M-15.15,61.62l-1.54-0.31c-0.45,3.68-4.4,4.1-5.9,4.13c0,0-0.01,0-0.01,0c-0.04,0-0.07,0-0.11,0
		c-1.5-0.02-5.45-0.44-5.9-4.13l-1.54,0.31c0.58,4.79,4.76,5.66,6.88,5.8l0,0c0.05,0,0.25,0.02,0.56,0.02c0.02,0,0.04,0,0.06,0
		c0.02,0,0.04,0,0.06,0c0.31,0,0.51-0.01,0.56-0.02l0,0C-19.91,67.28-15.73,66.4-15.15,61.62z"/>
	<path fill="#DDDDDD" d="M-16.43,61.36l-1.28-0.27c-0.37,3.19-3.65,3.55-4.9,3.57c0,0,0,0-0.01,0c-0.03,0-0.06,0-0.09,0
		c-1.25-0.02-4.52-0.38-4.89-3.57l-1.28,0.27c0.48,4.15,3.95,4.9,5.71,5.02l0,0c0.04,0,0.2,0.02,0.46,0.02c0.01,0,0.03,0,0.05,0
		c0.01,0,0.03,0,0.05,0c0.26,0,0.43-0.01,0.46-0.02l0,0C-20.37,66.27-16.91,65.51-16.43,61.36z"/>
	<circle fill="#BCBCBC" cx="-22.65" cy="82.31" r="2.72"/>
	<circle fill="#DDDDDD" cx="-22.65" cy="82.31" r="1.48"/>
</g>
<g>
	<polygon fill="#A06F58" points="32.66,69.71 20.68,87.62 22.3,88.81 35.05,71.47 	"/>
	<polygon fill="#885946" points="37.44,73.23 23.91,89.99 22.3,88.81 35.05,71.47 	"/>
	<path fill="#DDDDDD" d="M82.45,7.05L35.38,71.03l-2.82-2.07l33.55-45.6c2.32-3.15,4.95-6.06,7.83-8.66L82.45,7.05z"/>
	<path fill="#CCCCCB" d="M71.74,27.51L38.2,73.1l-2.82-2.07L82.45,7.05l-4.77,10.4C76.05,20.98,74.06,24.35,71.74,27.51z"/>
	<path fill="#CCCCCB" d="M46.95,72.84l-1.45-1.6c-3.5,3.72-8.24,0.96-9.92-0.24c0,0-0.01,0-0.01-0.01
		c-0.05-0.03-0.08-0.06-0.12-0.09c-1.65-1.25-5.69-4.94-3.18-9.4l-1.96-0.91c-3.26,5.79,0.66,10.17,2.91,12.05l0,0.01
		c0.05,0.04,0.26,0.22,0.6,0.48c0.02,0.01,0.04,0.03,0.06,0.05c0.02,0.01,0.04,0.03,0.06,0.05c0.35,0.25,0.58,0.4,0.63,0.43l0-0.01
		C37.04,75.24,42.39,77.68,46.95,72.84z"/>
	<path fill="#DDDDDD" d="M45.74,71.52l-1.2-1.34c-3.01,3.23-6.95,0.96-8.35-0.03c0,0,0,0-0.01-0.01c-0.04-0.03-0.06-0.05-0.1-0.07
		c-1.37-1.04-4.7-4.11-2.51-7.96l-1.63-0.74c-2.85,5,0.37,8.67,2.24,10.23l0,0c0.04,0.03,0.21,0.18,0.5,0.4
		c0.02,0.01,0.04,0.03,0.05,0.04c0.02,0.01,0.04,0.03,0.05,0.04c0.29,0.21,0.48,0.33,0.53,0.36l0,0
		C37.35,73.74,41.81,75.72,45.74,71.52z"/>
	<circle fill="#BCBCBC" cx="21.73" cy="89.68" r="3.75"/>
	<circle fill="#DDDDDD" cx="21.73" cy="89.68" r="2.03"/>
</g>
</svg>
