<?xml version="1.0" encoding="utf-8"?>
<!-- Generator: Adobe Illustrator 25.0.1, SVG Export Plug-In . SVG Version: 6.00 Build 0)  -->
<svg version="1.1" id="Layer_1" xmlns="http://www.w3.org/2000/svg" xmlns:xlink="http://www.w3.org/1999/xlink" x="0px" y="0px"
	 viewBox="0 0 100 100" style="enable-background:new 0 0 100 100;" xml:space="preserve">
<style type="text/css">
	.st0{fill:#FFFFFF;}
</style>
<path class="st0" d="M50.5,18.7c-13.5,0-24.4,14-24.4,31.3c0,17.3,10.9,31.3,24.4,31.3c13.5,0,24.4-14,24.4-31.3
	C74.9,32.7,64,18.7,50.5,18.7z M50.5,27.3c3.3,0,6,2.7,6,6c0,3.3-2.7,6-6,6c-3.3,0-6-2.7-6-6C44.5,30,47.2,27.3,50.5,27.3z M37.3,48
	c0-3.8,3.1-6.9,6.9-6.9h12.6c3.8,0,6.9,3.1,6.9,6.9v2.4H37.3V48z M35.8,59.4c-0.7,0-1.2-0.6-1.2-1.2c0-0.7,0.6-1.2,1.2-1.2h26.4
	c0.7,0,1.2,0.6,1.2,1.2c0,0.7-0.6,1.2-1.2,1.2H35.8z M51.7,62.5c0,0.7-0.6,1.2-1.2,1.2H39.3c-0.7,0-1.2-0.6-1.2-1.2
	c0-0.7,0.6-1.2,1.2-1.2h11.2C51.2,61.2,51.7,61.8,51.7,62.5z M63.7,68.1H37.3c-0.7,0-1.2-0.6-1.2-1.2c0-0.7,0.6-1.2,1.2-1.2h26.4
	c0.7,0,1.2,0.6,1.2,1.2C64.9,67.5,64.4,68.1,63.7,68.1z M63.7,63.7h-8.4c-0.7,0-1.2-0.6-1.2-1.2c0-0.7,0.5-1.2,1.2-1.2h8.4
	c0.7,0,1.2,0.6,1.2,1.2C64.9,63.2,64.4,63.7,63.7,63.7z M63.7,55H37.3c-0.7,0-1.2-0.6-1.2-1.2c0-0.7,0.6-1.2,1.2-1.2h26.4
	c0.7,0,1.2,0.6,1.2,1.2C64.9,54.4,64.4,55,63.7,55z"/>
</svg>
