<?xml version="1.0" encoding="utf-8"?>
<!-- Generator: Adobe Illustrator 25.0.1, SVG Export Plug-In . SVG Version: 6.00 Build 0)  -->
<svg version="1.1" id="Layer_1" xmlns="http://www.w3.org/2000/svg" xmlns:xlink="http://www.w3.org/1999/xlink" x="0px" y="0px"
	 viewBox="0 0 100 100" style="enable-background:new 0 0 100 100;" xml:space="preserve">
<style type="text/css">
	.st0{fill:#1B1E1E;}
	.st1{fill:#232626;}
	.st2{fill:#2B2E2E;}
	.st3{fill:#324C48;}
	.st4{fill:none;stroke:#798256;stroke-width:1.4351;stroke-miterlimit:10;}
</style>
<path class="st0" d="M91.5,98.4h-83c-3.8,0-6.9-3.1-6.9-6.9v-83c0-3.8,3.1-6.9,6.9-6.9h83c3.8,0,6.9,3.1,6.9,6.9v83
	C98.4,95.3,95.3,98.4,91.5,98.4z"/>
<path class="st1" d="M86.1,92H13.9c-3.3,0-6-2.6-6-6V13.9c0-3.3,2.6-6,6-6h72.2c3.3,0,6,2.6,6,6v72.2C92,89.4,89.4,92,86.1,92z"/>
<path class="st2" d="M79.3,84.1H20.7c-2.7,0-4.8-2.1-4.8-4.8V20.7c0-2.7,2.1-4.8,4.8-4.8h58.6c2.7,0,4.8,2.1,4.8,4.8v58.6
	C84.1,82,82,84.1,79.3,84.1z"/>
<path class="st3" d="M-49.2,98.4h-83c-3.8,0-6.9-3.1-6.9-6.9v-83c0-3.8,3.1-6.9,6.9-6.9h83c3.8,0,6.9,3.1,6.9,6.9v83
	C-42.3,95.3-45.4,98.4-49.2,98.4z"/>
<path class="st4" d="M-122.8,52.6l1.8-3.7c0.7-1.5,2-2.8,3.5-3.5l3.7-1.8"/>
<path class="st4" d="M-109.4,39.2l1.8-3.7c0.7-1.5,2-2.8,3.5-3.5l3.7-1.8"/>
<path class="st4" d="M-96.1,25.9l1.8-3.7c0.7-1.5,2-2.8,3.5-3.5l3.7-1.8"/>
<path class="st4" d="M-109.4,52.5l1.8-3.7c0.7-1.5,2-2.8,3.5-3.5l3.7-1.8"/>
<path class="st4" d="M-96.1,39.2l1.8-3.7c0.7-1.5,2-2.8,3.5-3.5l3.7-1.8"/>
<path class="st4" d="M-109.5,65.8l1.8-3.7c0.7-1.5,2-2.8,3.5-3.5l3.7-1.8"/>
<path class="st4" d="M-96.2,52.5l1.8-3.7c0.7-1.5,2-2.8,3.5-3.5l3.7-1.8"/>
<path class="st4" d="M-82.8,39.2l1.8-3.7c0.7-1.5,2-2.8,3.5-3.5l3.7-1.8"/>
<path class="st4" d="M-96.2,65.8l1.8-3.7c0.7-1.5,2-2.8,3.5-3.5l3.7-1.8"/>
<path class="st4" d="M-122.7,65.8l1.8-3.7c0.7-1.5,2-2.8,3.5-3.5l3.7-1.8"/>
<path class="st4" d="M-122.8,79.2l1.8-3.7c0.7-1.5,2-2.8,3.5-3.5l3.7-1.8"/>
<path class="st4" d="M-109.5,79.1l1.8-3.7c0.7-1.5,2-2.8,3.5-3.5l3.7-1.8"/>
<path class="st4" d="M-82.8,52.5l1.8-3.7c0.7-1.5,2-2.8,3.5-3.5l3.7-1.8"/>
<path class="st4" d="M-82.8,25.9l1.8-3.7c0.7-1.5,2-2.8,3.5-3.5l3.7-1.8"/>
<path class="st4" d="M-69.6,25.9l1.8-3.7c0.7-1.5,2-2.8,3.5-3.5l3.7-1.8"/>
<path class="st4" d="M-69.6,39.2l1.8-3.7c0.7-1.5,2-2.8,3.5-3.5l3.7-1.8"/>
<path class="st4" d="M-96.2,79.1l1.8-3.7c0.7-1.5,2-2.8,3.5-3.5l3.7-1.8"/>
<path class="st4" d="M-82.9,65.8l1.8-3.7c0.7-1.5,2-2.8,3.5-3.5l3.7-1.8"/>
<path class="st4" d="M-69.6,52.5l1.8-3.7c0.7-1.5,2-2.8,3.5-3.5l3.7-1.8"/>
<path class="st4" d="M-82.9,79.1l1.8-3.7c0.7-1.5,2-2.8,3.5-3.5l3.7-1.8"/>
<path class="st4" d="M-69.6,65.8l1.8-3.7c0.7-1.5,2-2.8,3.5-3.5l3.7-1.8"/>
<circle class="st0" cx="29.4" cy="66.9" r="4.8"/>
<circle class="st0" cx="60.2" cy="30.4" r="6"/>
<circle class="st0" cx="74.1" cy="60.1" r="3.8"/>
<circle class="st0" cx="40.3" cy="35.2" r="2.7"/>
<circle class="st0" cx="66" cy="73.7" r="2.2"/>
<circle class="st0" cx="24.7" cy="21.9" r="1.3"/>
<circle class="st0" cx="30.2" cy="43.8" r="1.3"/>
</svg>
