<?xml version="1.0" encoding="utf-8"?>
<!-- Generator: Adobe Illustrator 25.0.1, SVG Export Plug-In . SVG Version: 6.00 Build 0)  -->
<svg version="1.1" id="Layer_1" xmlns="http://www.w3.org/2000/svg" xmlns:xlink="http://www.w3.org/1999/xlink" x="0px" y="0px"
	 viewBox="0 0 100 100" enable-background="new 0 0 100 100" xml:space="preserve">
<g>
	<path fill="#924B40" d="M69.31,76.08c-7.85-9.45-7.6-22.55-7.6-22.55c-0.17-2.31-5.29-3.71-10.66-3.94
		c-5.37,0.23-10.49,1.63-10.66,3.94c0,0,0.25,13.1-7.6,22.55c-6.99,8.4-0.48,6.91,2.77,5.21c0.54-0.28,1.2-0.03,1.44,0.54
		c0.97,2.29,3.23,13.78,8.86,7.92c0.43-0.46,1.39,3.33,5.19,3.32c3.8,0.01,4.76-3.78,5.19-3.32c5.63,5.86,7.89-5.63,8.86-7.92
		c0.23-0.57,0.89-0.83,1.44-0.54C69.79,82.99,76.29,84.48,69.31,76.08z"/>
	<circle fill="#556958" cx="53.6" cy="29.16" r="21.28"/>
	<circle fill="#5A7061" cx="70.35" cy="46.14" r="20.81"/>
	<circle fill="#5E7867" cx="32.15" cy="43.36" r="22.33"/>
	<ellipse fill="#3B221F" cx="45.47" cy="75.64" rx="2.87" ry="6.81"/>
	<ellipse fill="#3B221F" cx="56.97" cy="75.64" rx="2.87" ry="6.81"/>
	<path fill="#924B40" d="M58.05,66.31c0,0,12.83-1.67,15.51-17.81c0.23-1.36,1.42-2.35,2.8-2.35h0c1.71,0,3.04,1.49,2.83,3.18
		c-0.75,6.07-3.89,19.32-17.04,26.32L58.05,66.31z"/>
	<path fill="#924B40" d="M40.63,64.73c0,0-9.09-1.18-10.98-12.62c-0.16-0.97-1.01-1.67-1.99-1.67h0c-1.21,0-2.15,1.05-2.01,2.25
		c0.53,4.3,2.75,13.68,12.07,18.64L40.63,64.73z"/>
</g>
</svg>
