<?xml version="1.0" encoding="utf-8"?>
<!-- Generator: Adobe Illustrator 25.0.1, SVG Export Plug-In . SVG Version: 6.00 Build 0)  -->
<svg version="1.1" id="Layer_1" xmlns="http://www.w3.org/2000/svg" xmlns:xlink="http://www.w3.org/1999/xlink" x="0px" y="0px"
	 viewBox="0 0 100 100" style="enable-background:new 0 0 100 100;" xml:space="preserve">
<style type="text/css">
	.st0{fill:#FFFFFF;}
	.st1{fill:none;stroke:#FFFFFF;stroke-width:0.8403;stroke-miterlimit:10;}
</style>
<g>
	<path class="st0" d="M71.6,47.1c1.3,0,2.4,1.1,2.4,2.4c0,0.1,0,0.2,0,0.3c-0.4,3-1.4,8-4.4,12.9c-1.5,2.4-3.4,4.7-5.9,6.7
		c0.6,1,1.3,2,2.1,2.9c3.5,4.3,3,5.5,1.3,5.5c-1.1,0-2.6-0.5-3.7-1.1c-0.1-0.1-0.3-0.1-0.4-0.1c-0.3,0-0.7,0.2-0.8,0.6
		c-0.7,1.5-2,8-4.9,8c-0.7,0-1.6-0.4-2.5-1.4c0,0,0,0-0.1,0c-0.4,0-1.3,2.8-4.3,2.8c0,0,0,0,0,0c0,0,0,0,0,0c-3,0-3.9-2.8-4.3-2.8
		c0,0,0,0-0.1,0c-0.9,1-1.8,1.4-2.5,1.4c-2.9,0-4.3-6.5-4.9-8c-0.1-0.3-0.5-0.6-0.8-0.6c-0.1,0-0.3,0-0.4,0.1
		c-1.1,0.6-2.6,1.1-3.7,1.1c-1.6,0-2.2-1.2,1.3-5.5c1.2-1.5,2.2-3.1,3-4.6c-2.7-1.7-4.5-3.8-5.9-5.9c-2.1-3.4-2.9-7-3.1-9.1
		c0-0.1,0-0.1,0-0.2c0-0.9,0.7-1.7,1.7-1.7c0.8,0,1.5,0.6,1.7,1.4c0.9,5.3,3.6,8,5.9,9.3c0.7-0.2,1.5-0.3,2.2-0.6
		c4.3-1.4,7.9-4.4,10.2-8.3c1.9,4.2,5.5,7.6,9.9,9.2c0.2,0.1,0.5,0.2,0.7,0.3c3.1-1.9,6.8-5.7,8-13C69.5,47.9,70.5,47.1,71.6,47.1
		 M55.3,77.6c1.3,0,2.4-2.6,2.4-5.7c0-3.2-1.1-5.7-2.4-5.7c-1.3,0-2.4,2.6-2.4,5.7C52.9,75,54,77.6,55.3,77.6 M45.7,77.6
		c1.3,0,2.4-2.6,2.4-5.7c0-3.2-1.1-5.7-2.4-5.7c-1.3,0-2.4,2.6-2.4,5.7C43.3,75,44.3,77.6,45.7,77.6 M71.6,44c-2.7,0-5,1.9-5.4,4.6
		c-0.7,4.4-2.5,7.8-5.4,10c-3.2-1.4-5.9-4-7.4-7.3L51,45.8L48,51c-1.9,3.3-5,5.7-8.5,6.9c-0.2,0.1-0.4,0.1-0.6,0.2
		c-1.8-1.4-3-3.6-3.4-6.5c-0.4-2.3-2.4-4-4.7-4c-2.6,0-4.8,2.1-4.8,4.8c0,0.1,0,0.3,0,0.6c0.3,2.6,1.2,6.5,3.6,10.3
		c1.2,2,2.7,3.7,4.4,5.1c-0.4,0.6-0.9,1.2-1.3,1.8c-2.3,2.7-4.2,5.6-3,8.3c0.3,0.7,1.4,2.3,4,2.3c0.9,0,1.9-0.2,2.7-0.5
		c1,3.2,2.9,7.9,7.1,7.9c0.7,0,1.4-0.1,2.1-0.4c1.1,0.9,2.6,1.8,4.8,1.8c2.2,0,3.8-0.9,4.8-1.8c0.7,0.3,1.4,0.4,2.1,0.4
		c4.2,0,6.1-4.7,7.1-7.9c0.8,0.3,1.8,0.5,2.7,0.5c2.6,0,3.7-1.6,4-2.3c1.2-2.6-0.7-5.5-2.9-8.3c-0.1-0.1-0.2-0.3-0.4-0.4
		c1.7-1.6,3.2-3.5,4.5-5.6c3.2-5.2,4.4-10.5,4.9-14.1l0-0.1l0-0.1c0-0.2,0-0.4,0-0.6C77.1,46.4,74.7,44,71.6,44L71.6,44z"/>
</g>
<ellipse class="st1" cx="45.7" cy="71.8" rx="2.4" ry="5.7"/>
<ellipse class="st1" cx="55.3" cy="71.8" rx="2.4" ry="5.7"/>
<path class="st0" d="M84.1,45.4c0,8.6-6.3,15.8-14.5,17.2c3-4.8,4.1-9.9,4.4-12.9c0-0.1,0-0.2,0-0.3c0-1.3-1.1-2.4-2.4-2.4
	c-1.2,0-2.2,0.8-2.4,2c-1.2,7.3-4.9,11.1-8,13c-0.3-0.1-0.5-0.2-0.7-0.3c-4.4-1.6-7.9-5-9.9-9.2c-2.3,3.9-5.9,6.8-10.2,8.3
	c-0.7,0.2-1.4,0.4-2.2,0.6c-2.3-1.3-5-4-5.9-9.3c-0.1-0.8-0.8-1.4-1.7-1.4c-0.9,0-1.7,0.8-1.7,1.7c0,0.1,0,0.1,0,0.2
	c0.3,2.1,1,5.7,3.1,9.1c-9.3-1.1-16.4-9-16.4-18.6c0-10.4,8.4-18.8,18.8-18.8c0.5,0,1,0,1.5,0.1c2.7-6.5,9.1-11.1,16.5-11.1
	c8.9,0,16.3,6.5,17.6,15C78.1,29.9,84.1,36.9,84.1,45.4z"/>
<ellipse class="st0" cx="45.7" cy="71.8" rx="2.4" ry="5.7"/>
<ellipse class="st0" cx="55.3" cy="71.8" rx="2.4" ry="5.7"/>
</svg>
