<?xml version="1.0" encoding="utf-8"?>
<!-- Generator: Adobe Illustrator 25.0.1, SVG Export Plug-In . SVG Version: 6.00 Build 0)  -->
<svg version="1.1" id="Layer_1" xmlns="http://www.w3.org/2000/svg" xmlns:xlink="http://www.w3.org/1999/xlink" x="0px" y="0px"
	 viewBox="0 0 100 100" enable-background="new 0 0 100 100" xml:space="preserve">
<path fill="#FFFFFF" d="M25,74.9c-6.4,0.3-17.1-4.2-8.8-23.6c0,0,1.6,10.8,5.8,8.2c3.5-2.1,4.3-7.1,4.1-13.3c0,0,5.7,5,3.8,13.7
	c-0.8,3.4,5.5,6,6.9,1.1C36.8,61,40.4,74,25,74.9z"/>
<g>
	<polyline fill="none" stroke="#FAFDF9" stroke-width="2.2791" stroke-miterlimit="10" points="71,45.8 74,49.1 74,60.5 	"/>
	<line fill="none" stroke="#FAFDF9" stroke-width="2.2791" stroke-miterlimit="10" x1="77.3" y1="45.8" x2="74" y2="49.1"/>
	<polyline fill="none" stroke="#FAFDF9" stroke-width="2.2791" stroke-miterlimit="10" points="71,75.3 74,72 74,60.5 	"/>
	<line fill="none" stroke="#FAFDF9" stroke-width="2.2791" stroke-miterlimit="10" x1="77.3" y1="75.3" x2="74" y2="72"/>
	<polyline fill="none" stroke="#FAFDF9" stroke-width="2.2791" stroke-miterlimit="10" points="88.9,57.4 85.6,60.4 74.2,60.4 	"/>
	<line fill="none" stroke="#FAFDF9" stroke-width="2.2791" stroke-miterlimit="10" x1="88.9" y1="63.7" x2="85.6" y2="60.4"/>
	<polyline fill="none" stroke="#FAFDF9" stroke-width="2.2791" stroke-miterlimit="10" points="59.4,57.4 62.7,60.4 74.2,60.4 	"/>
	<line fill="none" stroke="#FAFDF9" stroke-width="2.2791" stroke-miterlimit="10" x1="59.4" y1="63.7" x2="62.7" y2="60.4"/>
	<polyline fill="none" stroke="#FAFDF9" stroke-width="2.2791" stroke-miterlimit="10" points="86.8,68.7 82.4,68.5 74.3,60.4 	"/>
	<line fill="none" stroke="#FAFDF9" stroke-width="2.2791" stroke-miterlimit="10" x1="82.3" y1="73.2" x2="82.4" y2="68.5"/>
	<polyline fill="none" stroke="#FAFDF9" stroke-width="2.2791" stroke-miterlimit="10" points="66,47.9 66.2,52.3 74.3,60.4 	"/>
	<line fill="none" stroke="#FAFDF9" stroke-width="2.2791" stroke-miterlimit="10" x1="61.5" y1="52.4" x2="66.2" y2="52.3"/>
	<polyline fill="none" stroke="#FAFDF9" stroke-width="2.2791" stroke-miterlimit="10" points="66,73.2 66.2,68.7 74.3,60.6 	"/>
	<line fill="none" stroke="#FAFDF9" stroke-width="2.2791" stroke-miterlimit="10" x1="61.5" y1="68.7" x2="66.2" y2="68.7"/>
	<polyline fill="none" stroke="#FAFDF9" stroke-width="2.2791" stroke-miterlimit="10" points="86.8,52.4 82.4,52.5 74.3,60.6 	"/>
	<line fill="none" stroke="#FAFDF9" stroke-width="2.2791" stroke-miterlimit="10" x1="82.3" y1="47.9" x2="82.4" y2="52.5"/>
	<polygon fill="#FAFDF9" points="76.9,54.2 71.6,54.2 67.9,57.9 67.9,63.1 71.6,66.8 76.9,66.8 80.6,63.1 80.6,57.9 	"/>
</g>
<g>
	<ellipse fill="none" stroke="#FFFFFF" stroke-width="3.5676" stroke-miterlimit="10" cx="48.3" cy="38.2" rx="10.7" ry="14.3"/>
	<ellipse fill="none" stroke="#FFFFFF" stroke-width="3.5676" stroke-miterlimit="10" cx="48.3" cy="38.2" rx="4.9" ry="6.6"/>
</g>
</svg>
