<?xml version="1.0" encoding="utf-8"?>
<!-- Generator: Adobe Illustrator 25.0.1, SVG Export Plug-In . SVG Version: 6.00 Build 0)  -->
<svg version="1.1" id="Layer_1" xmlns="http://www.w3.org/2000/svg" xmlns:xlink="http://www.w3.org/1999/xlink" x="0px" y="0px"
	 viewBox="0 0 100 100" enable-background="new 0 0 100 100" xml:space="preserve">
<path fill="#846748" d="M46.9,99L3,74.3c-2-1.1-2-2.9,0-4.1l43.9-24.7c2-1.1,5.2-1.1,7.2,0L98,70.2c1.1,0.6,1.6,1.5,1.5,2.3
	c-0.1,0.7-0.6,1.3-1.5,1.8L54.1,99C52.1,100.1,48.9,100.1,46.9,99z"/>
<polygon fill="#846748" points="99.5,72.5 1.5,72.2 1.5,67.7 99.5,68 "/>
<path fill="#3A2C18" d="M46.9,94.4L3,69.8c-2-1.1-2-2.9,0-4.1L46.9,41c2-1.1,5.2-1.1,7.2,0L98,65.7c2,1.1,2,2.9,0,4.1L54.1,94.4
	C52.1,95.6,48.9,95.6,46.9,94.4z"/>
<path fill="#51402A" d="M47.4,91.4L8.8,69.7c-1.8-1-1.8-2.6,0-3.6l38.5-21.7c1.8-1,4.6-1,6.4,0l38.5,21.7c1.8,1,1.8,2.6,0,3.6
	L53.8,91.4C52,92.4,49.2,92.4,47.4,91.4z"/>
<path fill="#7F604A" d="M47.66,86.5l-30.8-17.36c-1.44-0.8-1.44-2.08,0-2.88l30.8-17.36c1.44-0.8,3.68-0.8,5.12,0l30.88,17.36
	c1.44,0.8,1.44,2.08,0,2.88L52.78,86.5C51.34,87.3,49.1,87.3,47.66,86.5z"/>
<ellipse fill="#613C2F" cx="45.87" cy="81.35" rx="1.6" ry="0.98"/>
<ellipse fill="#613C2F" cx="24.61" cy="68.68" rx="1.6" ry="0.98"/>
<ellipse fill="#613C2F" cx="44.36" cy="78.05" rx="2.26" ry="1.38"/>
<path fill="#9E836B" d="M48.6,76.57L26.57,64.14c-1.02-0.55-1.02-1.48,0-2.03L48.6,49.69c1.02-0.55,2.66-0.55,3.67,0l22.04,12.42
	c1.02,0.55,1.02,1.48,0,2.03L52.28,76.57C51.26,77.12,49.62,77.12,48.6,76.57z"/>
<path fill="#D3AE8E" d="M50.48,60.94v16.1c-0.63,0-1.33-0.16-1.8-0.39l-22.11-12.5c-0.47-0.31-0.78-0.63-0.78-1.02l0,0l0,0V52.81
	L50.48,60.94z"/>
<ellipse fill="#382C20" cx="-26.23" cy="64.42" rx="3.1" ry="1.8"/>
<polygon fill="#9E836B" points="25.86,55 25.86,58.36 50.48,72.43 50.48,67.97 "/>
<polygon fill="#9E836B" points="53.68,74.15 52.43,74.07 50.48,76.96 50.48,60.94 75.09,51.88 75.09,63.13 "/>
<path fill="#552120" d="M48.53,69.07L25.4,56.02c-1.02-0.63-1.02-1.56,0-2.19l23.13-12.97c1.02-0.63,2.74-0.63,3.83,0l23.13,13.05
	c1.02,0.63,1.02,1.56,0,2.19L52.36,69.07C51.34,69.61,49.62,69.61,48.53,69.07z"/>
<polygon fill="#552120" points="24.69,52.74 24.61,55 76.27,55.24 76.27,53.05 "/>
<path fill="#6E2D2A" d="M41.73,42.73l7.19-3.99H49l9.53-5.31c1.41-0.63,3.05-0.08,3.83,1.09l13.68,17.82l0,0
	c0.47,0.55,0.31,1.25-0.55,1.72L52.36,67.11c-0.39,0.16-0.78,0.31-1.25,0.39L36.57,49.06c-0.86-1.25-2.5-1.72-3.83-1.09l-1.72,0.86
	L41.73,42.73z"/>
<path fill="#A15352" d="M24.69,52.74c0.08-0.31,0.39-0.55,0.78-0.78l5.55-3.13l1.72-0.86c1.41-0.63,3.05-0.16,3.83,1.09L51.11,67.5
	c-0.31,0.08-0.55,0.08-0.86,0.08c-0.63,0-1.25-0.16-1.72-0.47L25.4,54.06C24.77,53.67,24.54,53.2,24.69,52.74z"/>
<path fill="#B26263" d="M27.58,52.97c0.08-0.16,0.23-0.39,0.47-0.55l3.75-2.11l1.17-0.63c0.94-0.39,2.03-0.08,2.58,0.78l9.77,12.35
	c-0.16,0-0.39,0.08-0.55,0c-0.39,0-0.78-0.16-1.17-0.31l-15.55-8.6C27.66,53.6,27.51,53.28,27.58,52.97z"/>
<g>
	<path fill="none" stroke="#572323" stroke-width="0.3907" stroke-miterlimit="10" d="M57.04,37.97c0.63,1.09,0.23,2.5-0.94,3.13
		c-1.09,0.63-2.5,0.23-3.13-0.94"/>
	<path fill="none" stroke="#572323" stroke-width="0.3907" stroke-miterlimit="10" d="M60.17,38.9c0.63,1.09,0.23,2.5-0.94,3.13
		c-1.09,0.63-2.5,0.23-3.13-0.94"/>
	<path fill="none" stroke="#572323" stroke-width="0.3907" stroke-miterlimit="10" d="M63.3,39.84c0.63,1.09,0.23,2.5-0.94,3.13
		c-1.09,0.63-2.5,0.23-3.13-0.94"/>
	<path fill="none" stroke="#572323" stroke-width="0.3907" stroke-miterlimit="10" d="M52.98,40.23c0.63,1.09,0.23,2.5-0.94,3.13
		c-1.09,0.63-2.5,0.23-3.13-0.94"/>
	<path fill="none" stroke="#572323" stroke-width="0.3907" stroke-miterlimit="10" d="M56.11,41.17c0.63,1.09,0.23,2.5-0.94,3.13
		c-1.09,0.63-2.5,0.23-3.13-0.94"/>
	<path fill="none" stroke="#572323" stroke-width="0.3907" stroke-miterlimit="10" d="M59.31,42.03c0.63,1.09,0.23,2.5-0.94,3.13
		c-1.09,0.63-2.5,0.23-3.13-0.94"/>
	<path fill="none" stroke="#572323" stroke-width="0.3907" stroke-miterlimit="10" d="M62.44,42.97c0.63,1.09,0.23,2.5-0.94,3.13
		c-1.09,0.63-2.5,0.23-3.13-0.94"/>
	<path fill="none" stroke="#572323" stroke-width="0.3907" stroke-miterlimit="10" d="M65.56,43.83c0.63,1.09,0.23,2.5-0.94,3.13
		c-1.09,0.63-2.5,0.23-3.13-0.94"/>
	<path fill="none" stroke="#572323" stroke-width="0.3907" stroke-miterlimit="10" d="M48.92,42.5c0.63,1.09,0.23,2.5-0.94,3.13
		c-1.09,0.63-2.5,0.23-3.13-0.94"/>
	<path fill="none" stroke="#572323" stroke-width="0.3907" stroke-miterlimit="10" d="M52.04,43.36c0.63,1.09,0.23,2.5-0.94,3.13
		c-1.09,0.63-2.5,0.23-3.13-0.94"/>
	<path fill="none" stroke="#572323" stroke-width="0.3907" stroke-miterlimit="10" d="M55.25,44.3c0.63,1.09,0.23,2.5-0.94,3.13
		c-1.09,0.63-2.5,0.23-3.13-0.94"/>
	<path fill="none" stroke="#572323" stroke-width="0.3907" stroke-miterlimit="10" d="M58.37,45.16c0.63,1.09,0.23,2.5-0.94,3.13
		c-1.09,0.63-2.5,0.23-3.13-0.94"/>
	<path fill="none" stroke="#572323" stroke-width="0.3907" stroke-miterlimit="10" d="M61.5,46.09c0.63,1.09,0.23,2.5-0.94,3.13
		c-1.09,0.63-2.5,0.23-3.13-0.94"/>
	<path fill="none" stroke="#572323" stroke-width="0.3907" stroke-miterlimit="10" d="M64.7,47.03c0.63,1.09,0.23,2.5-0.94,3.13
		c-1.09,0.63-2.5,0.23-3.13-0.94"/>
	<path fill="none" stroke="#572323" stroke-width="0.3907" stroke-miterlimit="10" d="M67.83,47.89c0.63,1.09,0.23,2.5-0.94,3.13
		c-1.09,0.63-2.5,0.23-3.13-0.94"/>
	<path fill="none" stroke="#572323" stroke-width="0.3907" stroke-miterlimit="10" d="M70.95,48.83c0.63,1.09,0.23,2.5-0.94,3.13
		c-1.09,0.63-2.5,0.23-3.13-0.94"/>
	<path fill="none" stroke="#572323" stroke-width="0.3907" stroke-miterlimit="10" d="M44.85,44.69c0.63,1.09,0.23,2.5-0.94,3.13
		c-1.09,0.63-2.5,0.23-3.13-0.94"/>
	<path fill="none" stroke="#572323" stroke-width="0.3907" stroke-miterlimit="10" d="M48.06,45.62c0.63,1.09,0.23,2.5-0.94,3.13
		c-1.09,0.63-2.5,0.23-3.13-0.94"/>
	<path fill="none" stroke="#572323" stroke-width="0.3907" stroke-miterlimit="10" d="M51.18,46.48c0.63,1.09,0.23,2.5-0.94,3.13
		c-1.09,0.63-2.5,0.23-3.13-0.94"/>
	<path fill="none" stroke="#572323" stroke-width="0.3907" stroke-miterlimit="10" d="M54.31,47.42c0.63,1.09,0.23,2.5-0.94,3.13
		c-1.09,0.63-2.5,0.23-3.13-0.94"/>
	<path fill="none" stroke="#572323" stroke-width="0.3907" stroke-miterlimit="10" d="M57.43,48.36c0.63,1.09,0.23,2.5-0.94,3.13
		c-1.09,0.63-2.5,0.23-3.13-0.94"/>
	<path fill="none" stroke="#572323" stroke-width="0.3907" stroke-miterlimit="10" d="M60.64,49.22c0.63,1.09,0.23,2.5-0.94,3.13
		c-1.09,0.63-2.5,0.23-3.13-0.94"/>
	<path fill="none" stroke="#572323" stroke-width="0.3907" stroke-miterlimit="10" d="M63.76,50.16c0.63,1.09,0.23,2.5-0.94,3.13
		c-1.09,0.63-2.5,0.23-3.13-0.94"/>
	<path fill="none" stroke="#572323" stroke-width="0.3907" stroke-miterlimit="10" d="M66.89,51.02c0.63,1.09,0.23,2.5-0.94,3.13
		c-1.09,0.63-2.5,0.23-3.13-0.94"/>
	<path fill="none" stroke="#572323" stroke-width="0.3907" stroke-miterlimit="10" d="M70.02,51.95c0.63,1.09,0.23,2.5-0.94,3.13
		c-1.09,0.63-2.5,0.23-3.13-0.94"/>
	<path fill="none" stroke="#572323" stroke-width="0.3907" stroke-miterlimit="10" d="M47.12,48.75c0.63,1.09,0.23,2.5-0.94,3.13
		c-1.09,0.63-2.5,0.23-3.13-0.94"/>
	<path fill="none" stroke="#572323" stroke-width="0.3907" stroke-miterlimit="10" d="M50.25,49.69c0.63,1.09,0.23,2.5-0.94,3.13
		c-1.09,0.63-2.5,0.23-3.13-0.94"/>
	<path fill="none" stroke="#572323" stroke-width="0.3907" stroke-miterlimit="10" d="M53.45,50.55c0.63,1.09,0.23,2.5-0.94,3.13
		c-1.09,0.63-2.5,0.23-3.13-0.94"/>
	<path fill="none" stroke="#572323" stroke-width="0.3907" stroke-miterlimit="10" d="M56.58,51.49c0.63,1.09,0.23,2.5-0.94,3.13
		c-1.09,0.63-2.5,0.23-3.13-0.94"/>
	<path fill="none" stroke="#572323" stroke-width="0.3907" stroke-miterlimit="10" d="M59.7,52.35c0.63,1.09,0.23,2.5-0.94,3.13
		c-1.09,0.63-2.5,0.23-3.13-0.94"/>
	<path fill="none" stroke="#572323" stroke-width="0.3907" stroke-miterlimit="10" d="M62.83,53.28c0.63,1.09,0.23,2.5-0.94,3.13
		c-1.09,0.63-2.5,0.23-3.13-0.94"/>
	<path fill="none" stroke="#572323" stroke-width="0.3907" stroke-miterlimit="10" d="M66.03,54.22c0.63,1.09,0.23,2.5-0.94,3.13
		c-1.09,0.63-2.5,0.23-3.13-0.94"/>
	<path fill="none" stroke="#572323" stroke-width="0.3907" stroke-miterlimit="10" d="M49.39,52.81c0.63,1.09,0.23,2.5-0.94,3.13
		c-1.09,0.63-2.5,0.23-3.13-0.94"/>
	<path fill="none" stroke="#572323" stroke-width="0.3907" stroke-miterlimit="10" d="M52.51,53.67c0.63,1.09,0.23,2.5-0.94,3.13
		c-1.09,0.63-2.5,0.23-3.13-0.94"/>
	<path fill="none" stroke="#572323" stroke-width="0.3907" stroke-miterlimit="10" d="M55.64,54.61c0.63,1.09,0.23,2.5-0.94,3.13
		c-1.09,0.63-2.5,0.23-3.13-0.94"/>
	<path fill="none" stroke="#572323" stroke-width="0.3907" stroke-miterlimit="10" d="M58.84,55.55c0.63,1.09,0.23,2.5-0.94,3.13
		c-1.09,0.63-2.5,0.23-3.13-0.94"/>
	<path fill="none" stroke="#572323" stroke-width="0.3907" stroke-miterlimit="10" d="M61.97,56.41c0.63,1.09,0.23,2.5-0.94,3.13
		c-1.09,0.63-2.5,0.23-3.13-0.94"/>
	<path fill="none" stroke="#572323" stroke-width="0.3907" stroke-miterlimit="10" d="M51.57,56.88c0.63,1.09,0.23,2.5-0.94,3.13
		c-1.09,0.63-2.5,0.23-3.13-0.94"/>
	<path fill="none" stroke="#572323" stroke-width="0.3907" stroke-miterlimit="10" d="M54.78,57.74c0.63,1.09,0.23,2.5-0.94,3.13
		c-1.09,0.63-2.5,0.23-3.13-0.94"/>
	<path fill="none" stroke="#572323" stroke-width="0.3907" stroke-miterlimit="10" d="M57.9,58.67c0.63,1.09,0.23,2.5-0.94,3.13
		c-1.09,0.63-2.5,0.23-3.13-0.94"/>
</g>
<path fill="#2C1F14" d="M29.07,65.63v-5.31c0-0.63,0.63-1.02,1.17-0.7l1.56,0.86c0.55,0.31,0.94,0.94,0.94,1.56v5.63L29.07,65.63z"
	/>
<ellipse fill="#382C20" cx="16.7" cy="63.52" rx="1.4" ry="0.8"/>
<ellipse fill="#382C20" cx="81.38" cy="62.3" rx="1.56" ry="0.95"/>
<ellipse fill="#382C20" cx="27.58" cy="77.9" rx="1.8" ry="1.1"/>
<ellipse fill="#382C20" cx="60.5" cy="84.6" rx="2" ry="1.2"/>
<ellipse fill="#382C20" cx="64.6" cy="82.2" rx="1.4" ry="0.8"/>
<ellipse fill="#382C20" cx="77.1" cy="75.6" rx="1.9" ry="1.2"/>
<g>
	<ellipse fill="#5A2011" cx="-26.22" cy="84.6" rx="2.43" ry="1.47"/>
	<path fill="#6E301D" d="M-26.22,82.6v2.95c-1.34,0-2.43-0.66-2.43-1.47C-28.66,83.25-27.57,82.6-26.22,82.6z"/>
	<path fill="#6E301D" d="M-28.66,84.6c0,0-1.89-2.84,0-5.95h2.43v5.95H-28.66z"/>
	<path fill="#5E2718" d="M-23.79,84.6c0,0,1.89-2.84,0-5.95h-2.43v5.95H-23.79z"/>
	<ellipse fill="#8D4430" cx="-26.22" cy="78.65" rx="2.43" ry="1.47"/>
	<ellipse fill="#6E301D" cx="-26.22" cy="78.65" rx="1.98" ry="1.2"/>
	<path fill="#5E2718" d="M-23.79,84.06c0,0.81-1.09,1.47-2.43,1.47V82.6C-24.88,82.6-23.79,83.25-23.79,84.06z"/>
</g>
<polygon fill="#6E301D" points="-25.02,88.15 -25.02,83.91 -14.02,90.15 -14.02,94.41 "/>
<polygon fill="#5E2718" points="-14.02,94.41 -8.52,91.29 -8.52,87.03 -14.02,90.15 "/>
<polygon fill="#8D4430" points="-24.93,83.91 -19.43,80.79 -8.52,87.03 -14.02,90.15 "/>
<polygon fill="#5E2718" points="70.5,74.31 70.5,70.05 81.5,63.81 81.5,68.05 "/>
<polygon fill="#6E301D" points="70.5,70.05 65,66.93 65,71.19 70.5,74.31 "/>
<polygon fill="#8D4430" points="70.5,70.05 65,66.93 75.91,60.69 81.41,63.81 "/>
<g>
	<ellipse fill="#5A2011" cx="64.15" cy="75.47" rx="2.43" ry="1.47"/>
	<path fill="#6E301D" d="M64.15,73.47v2.95c-1.34,0-2.43-0.66-2.43-1.47C61.71,74.12,62.8,73.47,64.15,73.47z"/>
	<path fill="#6E301D" d="M61.71,75.47c0,0-1.89-2.84,0-5.95h2.43v5.95H61.71z"/>
	<path fill="#5E2718" d="M66.58,75.47c0,0,1.89-2.84,0-5.95h-2.43v5.95H66.58z"/>
	<ellipse fill="#8D4430" cx="64.15" cy="69.53" rx="2.43" ry="1.47"/>
	<ellipse fill="#6E301D" cx="64.15" cy="69.53" rx="1.98" ry="1.2"/>
	<path fill="#5E2718" d="M66.58,74.93c0,0.81-1.09,1.47-2.43,1.47v-2.94C65.49,73.47,66.58,74.12,66.58,74.93z"/>
</g>
<g>
	<ellipse fill="#5A2011" cx="58.67" cy="78.57" rx="2.43" ry="1.47"/>
	<path fill="#6E301D" d="M58.67,76.57v2.95c-1.34,0-2.43-0.66-2.43-1.47C56.23,77.22,57.32,76.57,58.67,76.57z"/>
	<path fill="#6E301D" d="M56.23,78.57c0,0-1.89-2.84,0-5.95h2.43v5.95H56.23z"/>
	<path fill="#5E2718" d="M61.1,78.57c0,0,1.89-2.84,0-5.95h-2.43v5.95H61.1z"/>
	<ellipse fill="#8D4430" cx="58.67" cy="72.62" rx="2.43" ry="1.47"/>
	<ellipse fill="#6E301D" cx="58.67" cy="72.62" rx="1.98" ry="1.2"/>
	<path fill="#5E2718" d="M61.1,78.03c0,0.81-1.09,1.47-2.43,1.47v-2.94C60.01,76.57,61.1,77.22,61.1,78.03z"/>
</g>
<g>
	<ellipse fill="#5A2011" cx="38.79" cy="71.73" rx="1.47" ry="2.43"/>
	<path fill="#6E301D" d="M38.26,69.3c0.81,0,1.47,1.09,1.47,2.43h-2.95C36.78,70.38,37.44,69.29,38.26,69.3z"/>
	<path fill="#6E301D" d="M38.79,71.72h-5.95v-2.43c3.11-1.89,5.95,0,5.95,0V71.72z"/>
	<path fill="#5E2718" d="M38.79,71.73h-5.95v2.43c3.11,1.89,5.95,0,5.95,0V71.73z"/>
	<ellipse fill="#8D4430" cx="32.84" cy="71.73" rx="1.47" ry="2.43"/>
	<ellipse fill="#8D4430" cx="32.84" cy="71.73" rx="1.2" ry="1.98"/>
	<path fill="#5E2718" d="M36.78,71.73h2.94c0,1.34-0.66,2.43-1.47,2.43S36.78,73.07,36.78,71.73z"/>
</g>
<path fill="#7F604A" d="M-22.02,43.8l-21.57,12.14c-0.99,0.55-2.58,0.55-3.57,0l-18.76-10.57c-0.51-0.29-0.51-1.03,0-1.32l0,0
	c1.08-0.61,1.08-1.61,0-2.22l-0.28-0.16c-0.51-0.29-0.51-1.03,0-1.32l11.49-6.47c0.23-0.13,0.51-0.13,0.74,0l7.4,4.16
	c0.66,0.37,1.73,0.37,2.39,0l7.4-4.16c0.23-0.13,0.51-0.13,0.74,0l1.49,0.85c0.51,0.29,0.51,1.03,0,1.32l-1.7,0.95
	c-0.44,0.25-0.44,0.66,0,0.91l9.71,5.46c0.44,0.25,1.16,0.25,1.6,0l2.87-1.62l0.04,0.03C-21.04,42.35-21.04,43.24-22.02,43.8z"/>
</svg>
