<?xml version="1.0" encoding="utf-8"?>
<!-- Generator: Adobe Illustrator 25.0.1, SVG Export Plug-In . SVG Version: 6.00 Build 0)  -->
<svg version="1.1" id="Layer_1" xmlns="http://www.w3.org/2000/svg" xmlns:xlink="http://www.w3.org/1999/xlink" x="0px" y="0px"
	 viewBox="0 0 100 100" enable-background="new 0 0 100 100" xml:space="preserve">
<path fill="#CC3E3E" d="M80.2,44.4l2.7-0.5l15.5-3c0,0-1.7-5.4-9.9-6.4c-0.7-0.1-1.3-0.2-1.9-0.5c-2.5-0.9-3.9-2.9-5.5-4.9
	c-2.4-3-5.1-5.8-12-4.5c-0.5,0.1-1,0.2-1.5,0.2c-3.7,0.5-7,0.1-9.7-0.7c-5.6-1.6-8.8-4.8-8.8-4.8L37,38.1c5,5.5,8.5,7.4,13.2,8
	c2.5,0.3,5.3,0.3,8.9,0.2c0.7,0,1.3,0,1.8,0c7,0.2,5.6,2.5,8.6,5.9c0.6,0.6,1.2,1.3,2.2,1.9c1.9,1.4,4,2.3,6.2,2.9
	c5.2,1.5,10.3,1.2,10.3,1.2L81.7,47L80.2,44.4z M64.5,38.8l-1-0.7l-4-2.8l5.6-2.1l4.5,5.7H64.5z"/>
<line fill="#8A5A47" stroke="#A1715A" stroke-width="3.2375" stroke-miterlimit="10" x1="7.4" y1="84.3" x2="49.9" y2="17.9"/>
<g>
	<polygon fill="#A1715A" points="48.4,69.8 58.1,84.1 59.5,83.2 50.4,68.4 	"/>
	<polygon fill="#8A5A47" points="48.4,69.8 58.1,84.1 56.8,85 46.5,71.1 	"/>
	<path fill="#BDBDBD" d="M19,22.9c2.2,2.2,4.3,4.6,6,7.2l25.5,37.7l-2.3,1.6L12.4,16.5L19,22.9z"/>
	<path fill="#9E9E9E" d="M15.9,25l-3.5-8.5l35.8,52.9L45.9,71L20.4,33.3C18.6,30.6,17.1,27.9,15.9,25z"/>
	<path fill="#9E9E9E" d="M48.8,71.5L48.8,71.5c0.1,0,0.2-0.1,0.5-0.3c0,0,0,0,0.1,0c0,0,0,0,0.1,0c0.3-0.2,0.5-0.3,0.5-0.4l0,0
		c1.9-1.4,5.2-4.8,2.7-9.6L51,61.8c1.9,3.7-1.5,6.5-2.9,7.5c0,0-0.1,0-0.1,0.1l0,0c-1.4,0.9-5.3,3-8-0.1l-1.2,1.2
		C42.4,74.5,46.7,72.7,48.8,71.5z"/>
	<path fill="#BDBDBD" d="M48.2,70.5L48.2,70.5c0,0,0.2-0.1,0.4-0.3c0,0,0,0,0,0c0,0,0,0,0,0c0.2-0.2,0.4-0.3,0.4-0.3l0,0
		c1.5-1.2,4.3-4,2.1-8.2L50,62.3c1.6,3.2-1.1,5.5-2.3,6.3c0,0-0.1,0-0.1,0.1c0,0,0,0,0,0c-1.2,0.8-4.4,2.5-6.7-0.2l-1,1
		C42.9,72.9,46.5,71.5,48.2,70.5z"/>
	<circle fill="#969696" cx="58.6" cy="84.8" r="3"/>
	<circle fill="#BDBDBD" cx="58.6" cy="84.8" r="1.6"/>
</g>
<path fill="#BB3939" d="M65,33.1l-5.6,2.1l4,2.8L61,46.3c-0.6,0-1.2,0-1.8,0c-3.6,0.1-6.5,0.1-8.9-0.2l7.7-21.9
	c2.7,0.8,6,1.2,9.7,0.7L65,33.1z"/>
<path fill="#BB3939" d="M86.6,34l-3.7,9.9L81.7,47l-3.8,10.1c-2.2-0.6-4.3-1.5-6.2-2.9c-0.9-0.7-1.6-1.3-2.2-1.9l11.5-23
	C82.6,31.1,84.1,33.1,86.6,34z"/>
</svg>
