<?xml version="1.0" encoding="utf-8"?>
<!-- Generator: Adobe Illustrator 25.0.1, SVG Export Plug-In . SVG Version: 6.00 Build 0)  -->
<svg version="1.1" id="Layer_1" xmlns="http://www.w3.org/2000/svg" xmlns:xlink="http://www.w3.org/1999/xlink" x="0px" y="0px"
	 viewBox="0 0 100 100" enable-background="new 0 0 100 100" xml:space="preserve">
<g>
	<path fill="#D67A4E" d="M80.31,93.09L44.84,28.97c-0.02-0.03-0.04-0.07-0.04-0.07L33.99,12.66c-0.35-0.56-0.18-1.28,0.4-1.6
		l7.28-4.03c0.58-0.32,1.28-0.09,1.57,0.51l7.83,17.85c0.02,0.03,0.04,0.07,0.06,0.1l35.46,64.09c0.3,0.54,0.1,1.23-0.44,1.53
		l-4.32,2.39C81.28,93.8,80.61,93.64,80.31,93.09z"/>
	<path fill="#A2A0A0" d="M14.1,21.15c0,0-6.14,18.68,14.97,27.06c0,0-0.37-10.18,13.15-17.66s13.52-7.48,13.52-7.48L46.49,6.35
		C46.49,6.35,28.41,20.61,14.1,21.15z"/>
	<path fill="#C9C9C9" d="M22.89,19.41c-0.52,4.85,0,13.75,9.17,20.1c-3.12,4.76-2.98,8.69-2.98,8.69
		C7.96,39.82,14.1,21.14,14.1,21.14C16.93,21.05,19.92,20.38,22.89,19.41z"/>
</g>
</svg>
