<?xml version="1.0" encoding="utf-8"?>
<!-- Generator: Adobe Illustrator 25.0.1, SVG Export Plug-In . SVG Version: 6.00 Build 0)  -->
<svg version="1.1" id="Layer_1" xmlns="http://www.w3.org/2000/svg" xmlns:xlink="http://www.w3.org/1999/xlink" x="0px" y="0px"
	 viewBox="0 0 100 100" enable-background="new 0 0 100 100" xml:space="preserve">
<g>
	<path fill="#9E604B" d="M63.02,50.41H17.51v26.93h45.51c5.38,0,9.73-6.03,9.73-13.46C72.75,56.44,68.39,50.41,63.02,50.41z"/>
	<path fill="#D7794E" d="M72.75,27.14H27.25v26.93h45.51c5.38,0,9.73-6.03,9.73-13.46S78.13,27.14,72.75,27.14z"/>
	<g>
		<path fill="#DCB682" d="M27.25,53.57c-5.09,0-9.23-5.81-9.23-12.96c0-7.15,4.14-12.96,9.23-12.96c5.09,0,9.23,5.81,9.23,12.96
			C36.48,47.75,32.34,53.57,27.25,53.57z"/>
		<path fill="#CAA374" d="M27.25,28.15c4.81,0,8.73,5.59,8.73,12.46s-3.92,12.46-8.73,12.46c-4.81,0-8.73-5.59-8.73-12.46
			S22.43,28.15,27.25,28.15 M27.25,27.14c-5.38,0-9.73,6.03-9.73,13.46s4.36,13.46,9.73,13.46c5.38,0,9.73-6.03,9.73-13.46
			S32.62,27.14,27.25,27.14L27.25,27.14z"/>
	</g>
	<g>
		<path fill="#DCB682" d="M17.51,76.84c-5.09,0-9.23-5.81-9.23-12.96s4.14-12.96,9.23-12.96c5.09,0,9.23,5.81,9.23,12.96
			S22.6,76.84,17.51,76.84z"/>
		<path fill="#CAA374" d="M17.51,51.42c4.81,0,8.73,5.59,8.73,12.46s-3.92,12.46-8.73,12.46c-4.81,0-8.73-5.59-8.73-12.46
			S12.7,51.42,17.51,51.42 M17.51,50.41c-5.38,0-9.73,6.03-9.73,13.46c0,7.44,4.36,13.46,9.73,13.46s9.73-6.03,9.73-13.46
			C27.25,56.44,22.89,50.41,17.51,50.41L17.51,50.41z"/>
	</g>
	<path fill="#D26741" d="M82.49,50.41H36.98v26.93h45.51c5.38,0,9.73-6.03,9.73-13.46C92.22,56.44,87.86,50.41,82.49,50.41z"/>
	<g>
		<ellipse fill="#DCB682" cx="36.98" cy="63.88" rx="9.23" ry="12.96"/>
		<path fill="#CAA374" d="M36.98,51.42c4.81,0,8.73,5.59,8.73,12.46s-3.92,12.46-8.73,12.46s-8.73-5.59-8.73-12.46
			S32.17,51.42,36.98,51.42 M36.98,50.41c-5.38,0-9.73,6.03-9.73,13.46c0,7.44,4.36,13.46,9.73,13.46s9.73-6.03,9.73-13.46
			C46.72,56.44,42.36,50.41,36.98,50.41L36.98,50.41z"/>
	</g>
	<ellipse fill="none" stroke="#CAA374" stroke-width="0.8986" stroke-miterlimit="10" cx="36.98" cy="63.88" rx="6.66" ry="9.21"/>
	<ellipse fill="#CAA374" cx="36.98" cy="63.88" rx="3.39" ry="4.69"/>
	<ellipse fill="none" stroke="#CAA374" stroke-width="0.8986" stroke-miterlimit="10" cx="27.25" cy="40.61" rx="6.66" ry="9.21"/>
	<ellipse fill="#CAA374" cx="27.25" cy="40.61" rx="3.39" ry="4.69"/>
	<ellipse fill="none" stroke="#CAA374" stroke-width="0.8986" stroke-miterlimit="10" cx="17.51" cy="63.88" rx="6.66" ry="9.21"/>
	<ellipse fill="#CAA374" cx="17.51" cy="63.88" rx="3.39" ry="4.69"/>
</g>
</svg>
