<?xml version="1.0" encoding="utf-8"?>
<!-- Generator: Adobe Illustrator 25.0.1, SVG Export Plug-In . SVG Version: 6.00 Build 0)  -->
<svg version="1.1" id="Layer_1" xmlns="http://www.w3.org/2000/svg" xmlns:xlink="http://www.w3.org/1999/xlink" x="0px" y="0px"
	 viewBox="0 0 100 100" enable-background="new 0 0 100 100" xml:space="preserve">
<g>
	<path fill="#C9C1B3" d="M31.59,33.54c0,0-2.91,5.4-4.33,20.98c-0.26,2.91,0.33,5.86,1.88,8.34c1.48,2.36,3.78,4.44,7.05,3.31
		c6.53-2.27,1.16-25.71,1.16-25.71L31.59,33.54z"/>
	<path fill="#C9C1B3" d="M69.21,33.54c0,0,2.91,5.4,4.33,20.98c0.26,2.91-0.33,5.86-1.88,8.34c-1.48,2.36-3.78,4.44-7.05,3.31
		c-6.53-2.27-1.16-25.71-1.16-25.71L69.21,33.54z"/>
	<path fill="#D6D6C8" d="M65.41,72.65c0.11,1.36-0.56,2.66-1.72,3.38c-2.38,1.49-6.95,3.66-13.3,3.66c-6.16,0-10.38-1.78-12.62-3.07
		c-1.18-0.68-1.87-1.97-1.8-3.33l1.3-24.47c-0.33-7.27,0.93-10.54,0.93-10.54l2.9-4.73l9.29,0.53l9.29-0.53l2.9,4.73
		c0,0,1.26,3.27,0.93,10.54L65.41,72.65z"/>
	<path fill="#D6D6C8" d="M39.7,26.25c0,0-3.81-0.63-8.11,7.29c0,0,4.95,6.69,5.72,10.11c0,0,4.9-2.33,9.7-8.54
		S39.7,26.25,39.7,26.25z"/>
	<path fill="#D6D6C8" d="M61.1,26.25c0,0,3.81-0.63,8.11,7.29c0,0-4.91,7.37-5.68,10.79c0,0-4.94-3.01-9.74-9.23
		S61.1,26.25,61.1,26.25z"/>
	<path fill="#D6D6C8" d="M56.02,22.25H50.4h-5.62l-5.08,4c0,0,4.31,9.48,10.7,9.97c6.39-0.49,10.7-9.97,10.7-9.97L56.02,22.25z"/>
	<ellipse fill="#D6D6C8" cx="50.4" cy="25.47" rx="7.2" ry="5.23"/>
	<ellipse fill="#2D2D2D" cx="50.4" cy="27.48" rx="7.2" ry="5.23"/>
	<path fill="none" d="M39.7,26.25"/>
</g>
</svg>
