<?xml version="1.0" encoding="utf-8"?>
<!-- Generator: Adobe Illustrator 25.0.1, SVG Export Plug-In . SVG Version: 6.00 Build 0)  -->
<svg version="1.1" id="Layer_1" xmlns="http://www.w3.org/2000/svg" xmlns:xlink="http://www.w3.org/1999/xlink" x="0px" y="0px"
	 viewBox="0 0 100 100" enable-background="new 0 0 100 100" xml:space="preserve">
<path fill="none" stroke="#94603D" stroke-width="1.6423" stroke-miterlimit="10" d="M37.6,49.9c0,0,10.6-10.3-13.1-13.4
	s25.1-30,39.9-9.6S51.1,41.1,38.7,50.6"/>
<rect x="26.1" y="49.3" transform="matrix(0.8683 0.496 -0.496 0.8683 38.0403 -5.8948)" fill="#BFBFBF" width="8" height="38.8"/>
<rect x="29.4" y="50.6" transform="matrix(-0.496 0.8683 -0.8683 -0.496 104.6355 65.1124)" fill="#BFBFBF" width="8" height="24.6"/>
<polygon fill="#BFBFBF" points="19.9,57.3 20.8,60.3 28.4,60 19.2,78.7 16.2,80.5 17.1,83.5 34.1,61.7 46.1,65.6 45.3,62.5 
	36.5,59.8 43.2,53.8 42.4,50.8 31.2,57.4 "/>
<rect x="25.3" y="46.3" transform="matrix(0.8683 0.496 -0.496 0.8683 36.4349 -5.8837)" fill="#E8E8E8" width="8" height="38.8"/>
<rect x="28.6" y="47.6" transform="matrix(-0.496 0.8683 -0.8683 -0.496 100.7827 61.3127)" fill="#E8E8E8" width="8" height="24.6"/>
<g>
	<polygon fill="#803F30" points="55.2,64 52.2,60.9 77.6,30.6 80.8,33.7 	"/>
	<path fill="#803F30" d="M54.8,30.2V63c0,0.8,0.7,1.5,1.5,1.5h26.8c0.8,0,1.5-0.7,1.5-1.5V30.2c0-0.8-0.7-1.5-1.5-1.5H56.3
		C55.5,28.7,54.8,29.3,54.8,30.2z"/>
	<g>
		<path fill="#E2C4A7" d="M53.2,28.7v30.1c0,0.8,0.6,1.4,1.4,1.4h24.6c0.8,0,1.4-0.6,1.4-1.4V28.7c0-0.8-0.6-1.4-1.4-1.4H54.6
			C53.8,27.3,53.2,27.9,53.2,28.7z"/>
		<path fill="#E2C4A7" d="M55.9,31.4v30.1c0,0.8,0.6,1.4,1.4,1.4h24.6c0.8,0,1.4-0.6,1.4-1.4V31.4c0-0.8-0.6-1.4-1.4-1.4H57.3
			C56.6,30,55.9,30.6,55.9,31.4z"/>
		<polygon fill="#E2C4A7" points="56.4,62.5 53.7,59.8 80.1,27.6 82.9,30.4 		"/>
	</g>
	<path fill="#803F30" d="M51.8,27.2V60c0,0.8,0.7,1.5,1.5,1.5h26.8c0.8,0,1.5-0.7,1.5-1.5V27.2c0-0.8-0.7-1.5-1.5-1.5H53.3
		C52.5,25.7,51.8,26.4,51.8,27.2z"/>
	<polygon fill="#E2C4A7" points="72.8,38.5 68.8,38.5 68.8,34.3 64.9,34.3 64.9,38.5 60.9,38.5 60.9,42.4 64.9,42.4 64.9,53.1 
		68.8,53.1 68.8,42.4 72.8,42.4 	"/>
</g>
</svg>
