<?xml version="1.0" encoding="utf-8"?>
<!-- Generator: Adobe Illustrator 25.0.1, SVG Export Plug-In . SVG Version: 6.00 Build 0)  -->
<svg version="1.1" id="Layer_1" xmlns="http://www.w3.org/2000/svg" xmlns:xlink="http://www.w3.org/1999/xlink" x="0px" y="0px"
	 viewBox="0 0 100 100" enable-background="new 0 0 100 100" xml:space="preserve">
<g>
	<path fill="none" stroke="#94603D" stroke-width="1.6423" stroke-miterlimit="10" d="M37.7,52.4c0,0,10.6-10.3-13.1-13.4
		s25.1-30,39.9-9.6S51.2,43.5,38.8,53"/>
	<rect x="26.2" y="51.8" transform="matrix(0.8683 0.496 -0.496 0.8683 39.2668 -5.6143)" fill="#BFBFBF" width="8" height="38.8"/>
	
		<rect x="29.5" y="53.1" transform="matrix(-0.496 0.8683 -0.8683 -0.496 106.8903 68.7044)" fill="#BFBFBF" width="8" height="24.6"/>
	<polygon fill="#BFBFBF" points="20,59.7 20.9,62.7 28.4,62.5 19.3,81.1 16.3,83 17.1,86 34.2,64.2 46.2,68 45.3,65 36.6,62.3 
		43.3,56.3 42.5,53.3 31.3,59.8 	"/>
	<rect x="25.4" y="48.8" transform="matrix(0.8683 0.496 -0.496 0.8683 37.6615 -5.6032)" fill="#E8E8E8" width="8" height="38.8"/>
	
		<rect x="28.7" y="50.1" transform="matrix(-0.496 0.8683 -0.8683 -0.496 103.0376 64.9047)" fill="#E8E8E8" width="8" height="24.6"/>
	<g>
		<polygon fill="#8A5A47" points="72.7,70.2 86.6,87.6 88.3,86.2 75.1,68.2 		"/>
		<polygon fill="#A1715A" points="72.7,70.2 86.6,87.6 85,88.8 70.3,72.1 		"/>
		<path fill="#CCCCCB" d="M30,13c3.1,2.6,5.9,5.5,8.5,8.6l36.7,45.8l-2.8,2.3L20.9,5.5L30,13z"/>
		<path fill="#DDDDDD" d="M26.3,16.1L20.9,5.5l51.4,64.2L69.5,72L32.9,26.2C30.3,23,28.1,19.6,26.3,16.1z"/>
		<path fill="#CCCCCB" d="M73.3,72.4L73.3,72.4c0.1,0,0.3-0.2,0.6-0.5c0,0,0,0,0.1,0c0,0,0,0,0.1,0c0.3-0.3,0.5-0.5,0.6-0.5l0,0
			c2.2-2,6.1-6.7,2.5-12.6l-2,1c2.8,4.5-1.2,8.5-2.9,9.9c0,0-0.1,0.1-0.1,0.1l0,0c-1.7,1.3-6.5,4.4-10.3,0.7l-1.4,1.7
			C65.4,76.9,70.8,74.1,73.3,72.4z"/>
		<path fill="#DDDDDD" d="M72.5,71.1L72.5,71.1c0,0,0.2-0.2,0.5-0.4c0,0,0,0,0.1,0c0,0,0,0,0.1,0c0.3-0.2,0.5-0.4,0.5-0.4l0,0
			c1.8-1.7,5.1-5.6,1.9-10.7l-1.7,0.8c2.4,3.9-0.9,7.2-2.3,8.3c0,0-0.1,0-0.1,0.1c0,0,0,0,0,0c-1.4,1.1-5.4,3.6-8.6,0.4l-1.2,1.4
			C65.9,74.8,70.4,72.6,72.5,71.1z"/>
		<circle fill="#BCBCBC" cx="87.3" cy="88.4" r="3.9"/>
	</g>
</g>
</svg>
